<?xml version="1.0" encoding="UTF-8" standalone="no"?>
<!DOCTYPE svg PUBLIC "-//W3C//DTD SVG 1.1//EN"
 "http://www.w3.org/Graphics/SVG/1.1/DTD/svg11.dtd">
<!-- Generated by graphviz version 2.38.0 (20140413.2041)
 -->
<!-- Title: src/FreeRTOS_hooks.c Pages: 1 -->
<svg width="269pt" height="140pt"
 viewBox="0.00 0.00 268.54 140.00" xmlns="http://www.w3.org/2000/svg" xmlns:xlink="http://www.w3.org/1999/xlink">
<g id="graph0" class="graph" transform="scale(1 1) rotate(0) translate(4 136)">
<title>src/FreeRTOS_hooks.c</title>
<polygon fill="white" stroke="none" points="-4,4 -4,-136 264.545,-136 264.545,4 -4,4"/>
<!-- Node0 -->
<g id="node1" class="node"><title>Node0</title>
<polygon fill="#bfbfbf" stroke="black" points="21.0446,-112.5 21.0446,-131.5 142.045,-131.5 142.045,-112.5 21.0446,-112.5"/>
<text text-anchor="middle" x="81.5446" y="-119.5" font-family="Helvetica,sans-Serif" font-size="10.00">src/FreeRTOS_hooks.c</text>
</g>
<!-- Node1 -->
<g id="node2" class="node"><title>Node1</title>
<polygon fill="white" stroke="#bfbfbf" points="21.0446,-0.5 21.0446,-19.5 92.0446,-19.5 92.0446,-0.5 21.0446,-0.5"/>
<text text-anchor="middle" x="56.5446" y="-7.5" font-family="Helvetica,sans-Serif" font-size="10.00">FreeRTOS.h</text>
</g>
<!-- Node0&#45;&gt;Node1 -->
<g id="edge1" class="edge"><title>Node0&#45;&gt;Node1</title>
<path fill="none" stroke="midnightblue" d="M52.4234,-112.441C34.9019,-105.62 14.0221,-94.1408 3.54459,-76 -7.51997,-56.8427 13.2184,-37.5291 31.9068,-24.993"/>
<polygon fill="midnightblue" stroke="midnightblue" points="33.9065,-27.8698 40.4972,-19.5743 30.1719,-21.9492 33.9065,-27.8698"/>
</g>
<!-- Node2 -->
<g id="node3" class="node"><title>Node2</title>
<polygon fill="white" stroke="#bfbfbf" points="12.5446,-56.5 12.5446,-75.5 58.5446,-75.5 58.5446,-56.5 12.5446,-56.5"/>
<text text-anchor="middle" x="35.5446" y="-63.5" font-family="Helvetica,sans-Serif" font-size="10.00">task.h</text>
</g>
<!-- Node0&#45;&gt;Node2 -->
<g id="edge2" class="edge"><title>Node0&#45;&gt;Node2</title>
<path fill="none" stroke="midnightblue" d="M73.9486,-112.083C67.3171,-104.298 57.5236,-92.8015 49.4864,-83.3665"/>
<polygon fill="midnightblue" stroke="midnightblue" points="52.1483,-81.0939 42.9992,-75.7511 46.8196,-85.6332 52.1483,-81.0939"/>
</g>
<!-- Node3 -->
<g id="node4" class="node"><title>Node3</title>
<g id="a_node4"><a xlink:href="_free_r_t_o_s__hooks_8h.xhtml" target="_top" xlink:title="FreeRTOS_hooks.h">
<polygon fill="white" stroke="black" points="76.5446,-56.5 76.5446,-75.5 180.545,-75.5 180.545,-56.5 76.5446,-56.5"/>
<text text-anchor="middle" x="128.545" y="-63.5" font-family="Helvetica,sans-Serif" font-size="10.00">FreeRTOS_hooks.h</text>
</a>
</g>
</g>
<!-- Node0&#45;&gt;Node3 -->
<g id="edge3" class="edge"><title>Node0&#45;&gt;Node3</title>
<path fill="none" stroke="midnightblue" d="M89.3057,-112.083C96.0814,-104.298 106.088,-92.8015 114.3,-83.3665"/>
<polygon fill="midnightblue" stroke="midnightblue" points="117.003,-85.592 120.928,-75.7511 111.723,-80.9963 117.003,-85.592"/>
</g>
<!-- Node4 -->
<g id="node5" class="node"><title>Node4</title>
<g id="a_node5"><a xlink:href="xep__hal_8h.xhtml" target="_top" xlink:title="Brief description. ">
<polygon fill="white" stroke="red" points="198.545,-56.5 198.545,-75.5 260.545,-75.5 260.545,-56.5 198.545,-56.5"/>
<text text-anchor="middle" x="229.545" y="-63.5" font-family="Helvetica,sans-Serif" font-size="10.00">xep_hal.h</text>
</a>
</g>
</g>
<!-- Node0&#45;&gt;Node4 -->
<g id="edge5" class="edge"><title>Node0&#45;&gt;Node4</title>
<path fill="none" stroke="midnightblue" d="M104.996,-112.444C129.677,-103.438 168.73,-89.1891 196.521,-79.049"/>
<polygon fill="midnightblue" stroke="midnightblue" points="198.009,-82.2321 206.203,-75.5164 195.609,-75.6561 198.009,-82.2321"/>
</g>
<!-- Node3&#45;&gt;Node1 -->
<g id="edge4" class="edge"><title>Node3&#45;&gt;Node1</title>
<path fill="none" stroke="midnightblue" d="M116.977,-56.324C106.124,-48.1849 89.6639,-35.8395 76.6612,-26.0874"/>
<polygon fill="midnightblue" stroke="midnightblue" points="78.4232,-23.0339 68.3231,-19.8339 74.2231,-28.6339 78.4232,-23.0339"/>
</g>
</g>
</svg>
