<?xml version="1.0" encoding="UTF-8" standalone="no"?>
<!DOCTYPE svg PUBLIC "-//W3C//DTD SVG 1.1//EN"
 "http://www.w3.org/Graphics/SVG/1.1/DTD/svg11.dtd">
<!-- Generated by graphviz version 2.38.0 (20140413.2041)
 -->
<!-- Title: src/hal/x4m0x_s70/asf.h Pages: 1 -->
<svg width="3507pt" height="140pt"
 viewBox="0.00 0.00 3507.00 140.00" xmlns="http://www.w3.org/2000/svg" xmlns:xlink="http://www.w3.org/1999/xlink">
<g id="graph0" class="graph" transform="scale(1 1) rotate(0) translate(4 136)">
<title>src/hal/x4m0x_s70/asf.h</title>
<polygon fill="white" stroke="none" points="-4,4 -4,-136 3503,-136 3503,4 -4,4"/>
<!-- Node0 -->
<g id="node1" class="node"><title>Node0</title>
<polygon fill="#bfbfbf" stroke="black" points="1640.5,-112.5 1640.5,-131.5 1771.5,-131.5 1771.5,-112.5 1640.5,-112.5"/>
<text text-anchor="middle" x="1706" y="-119.5" font-family="Helvetica,sans-Serif" font-size="10.00">src/hal/x4m0x_s70/asf.h</text>
</g>
<!-- Node1 -->
<g id="node2" class="node"><title>Node1</title>
<polygon fill="white" stroke="#bfbfbf" points="0,-56.5 0,-75.5 66,-75.5 66,-56.5 0,-56.5"/>
<text text-anchor="middle" x="33" y="-63.5" font-family="Helvetica,sans-Serif" font-size="10.00">compiler.h</text>
</g>
<!-- Node0&#45;&gt;Node1 -->
<g id="edge1" class="edge"><title>Node0&#45;&gt;Node1</title>
<path fill="none" stroke="midnightblue" d="M1640.35,-120.754C1378.43,-119.531 406.888,-112.648 76.3048,-75.7263"/>
<polygon fill="midnightblue" stroke="midnightblue" points="76.5723,-72.2341 66.238,-74.5691 75.7728,-79.1883 76.5723,-72.2341"/>
</g>
<!-- Node2 -->
<g id="node3" class="node"><title>Node2</title>
<polygon fill="white" stroke="#bfbfbf" points="84.5,-56.5 84.5,-75.5 173.5,-75.5 173.5,-56.5 84.5,-56.5"/>
<text text-anchor="middle" x="129" y="-63.5" font-family="Helvetica,sans-Serif" font-size="10.00">status_codes.h</text>
</g>
<!-- Node0&#45;&gt;Node2 -->
<g id="edge2" class="edge"><title>Node0&#45;&gt;Node2</title>
<path fill="none" stroke="midnightblue" d="M1640.44,-120.248C1389.99,-117.193 492.736,-104.537 184.017,-75.9158"/>
<polygon fill="midnightblue" stroke="midnightblue" points="184.014,-72.3997 173.727,-74.9343 183.35,-79.3681 184.014,-72.3997"/>
</g>
<!-- Node3 -->
<g id="node4" class="node"><title>Node3</title>
<g id="a_node4"><a xlink:href="board_8h.xhtml" target="_top" xlink:title="User board definition template. ">
<polygon fill="white" stroke="red" points="191.5,-56.5 191.5,-75.5 244.5,-75.5 244.5,-56.5 191.5,-56.5"/>
<text text-anchor="middle" x="218" y="-63.5" font-family="Helvetica,sans-Serif" font-size="10.00">board.h</text>
</a>
</g>
</g>
<!-- Node0&#45;&gt;Node3 -->
<g id="edge3" class="edge"><title>Node0&#45;&gt;Node3</title>
<path fill="none" stroke="midnightblue" d="M1640.33,-120.571C1394.93,-118.719 531.803,-109.888 259,-76 257.698,-75.8383 256.377,-75.6548 255.045,-75.4535"/>
<polygon fill="midnightblue" stroke="midnightblue" points="255.242,-71.9335 244.783,-73.6235 254.013,-78.8248 255.242,-71.9335"/>
</g>
<!-- Node6 -->
<g id="node5" class="node"><title>Node6</title>
<polygon fill="white" stroke="#bfbfbf" points="225,-0.5 225,-19.5 265,-19.5 265,-0.5 225,-0.5"/>
<text text-anchor="middle" x="245" y="-7.5" font-family="Helvetica,sans-Serif" font-size="10.00">pio.h</text>
</g>
<!-- Node0&#45;&gt;Node6 -->
<g id="edge23" class="edge"><title>Node0&#45;&gt;Node6</title>
<path fill="none" stroke="midnightblue" d="M1640.07,-120.514C1369.04,-118.31 352.124,-107.937 292,-76 273.034,-65.9254 259.862,-44.4001 252.386,-28.8764"/>
<polygon fill="midnightblue" stroke="midnightblue" points="255.57,-27.4224 248.293,-19.7225 249.18,-30.2801 255.57,-27.4224"/>
</g>
<!-- Node10 -->
<g id="node6" class="node"><title>Node10</title>
<polygon fill="white" stroke="#bfbfbf" points="301,-56.5 301,-75.5 351,-75.5 351,-56.5 301,-56.5"/>
<text text-anchor="middle" x="326" y="-63.5" font-family="Helvetica,sans-Serif" font-size="10.00">delay.h</text>
</g>
<!-- Node0&#45;&gt;Node10 -->
<g id="edge5" class="edge"><title>Node0&#45;&gt;Node10</title>
<path fill="none" stroke="midnightblue" d="M1640.49,-120.762C1409.31,-119.623 631.51,-113.161 361.289,-75.7818"/>
<polygon fill="midnightblue" stroke="midnightblue" points="361.515,-72.2784 351.12,-74.3244 360.522,-79.2076 361.515,-72.2784"/>
</g>
<!-- Node11 -->
<g id="node7" class="node"><title>Node11</title>
<polygon fill="white" stroke="#bfbfbf" points="369,-56.5 369,-75.5 409,-75.5 409,-56.5 369,-56.5"/>
<text text-anchor="middle" x="389" y="-63.5" font-family="Helvetica,sans-Serif" font-size="10.00">efc.h</text>
</g>
<!-- Node0&#45;&gt;Node11 -->
<g id="edge6" class="edge"><title>Node0&#45;&gt;Node11</title>
<path fill="none" stroke="midnightblue" d="M1640.13,-121.007C1415.02,-120.676 676.487,-116.568 419.168,-75.6526"/>
<polygon fill="midnightblue" stroke="midnightblue" points="419.551,-72.1686 409.115,-73.993 418.411,-79.0752 419.551,-72.1686"/>
</g>
<!-- Node12 -->
<g id="node8" class="node"><title>Node12</title>
<polygon fill="white" stroke="#bfbfbf" points="427,-56.5 427,-75.5 495,-75.5 495,-56.5 427,-56.5"/>
<text text-anchor="middle" x="461" y="-63.5" font-family="Helvetica,sans-Serif" font-size="10.00">flash_efc.h</text>
</g>
<!-- Node0&#45;&gt;Node12 -->
<g id="edge7" class="edge"><title>Node0&#45;&gt;Node12</title>
<path fill="none" stroke="midnightblue" d="M1640.21,-119.96C1422.64,-116.297 727.57,-102.749 505,-76 504.898,-75.9878 504.797,-75.9755 504.695,-75.963"/>
<polygon fill="midnightblue" stroke="midnightblue" points="505.424,-72.5328 495.02,-74.5336 504.401,-79.4576 505.424,-72.5328"/>
</g>
<!-- Node13 -->
<g id="node9" class="node"><title>Node13</title>
<polygon fill="white" stroke="#bfbfbf" points="513.5,-56.5 513.5,-75.5 584.5,-75.5 584.5,-56.5 513.5,-56.5"/>
<text text-anchor="middle" x="549" y="-63.5" font-family="Helvetica,sans-Serif" font-size="10.00">FreeRTOS.h</text>
</g>
<!-- Node0&#45;&gt;Node13 -->
<g id="edge8" class="edge"><title>Node0&#45;&gt;Node13</title>
<path fill="none" stroke="midnightblue" d="M1640.44,-119.699C1437.06,-115.454 817.696,-100.892 594.775,-75.8448"/>
<polygon fill="midnightblue" stroke="midnightblue" points="595.117,-72.3612 584.78,-74.6826 594.309,-79.3143 595.117,-72.3612"/>
</g>
<!-- Node14 -->
<g id="node10" class="node"><title>Node14</title>
<polygon fill="white" stroke="#bfbfbf" points="602.5,-56.5 602.5,-75.5 689.5,-75.5 689.5,-56.5 602.5,-56.5"/>
<text text-anchor="middle" x="646" y="-63.5" font-family="Helvetica,sans-Serif" font-size="10.00">StackMacros.h</text>
</g>
<!-- Node0&#45;&gt;Node14 -->
<g id="edge9" class="edge"><title>Node0&#45;&gt;Node14</title>
<path fill="none" stroke="midnightblue" d="M1640.4,-120.868C1481.01,-119.946 1060.57,-113.899 699.734,-75.9204"/>
<polygon fill="midnightblue" stroke="midnightblue" points="699.927,-72.4213 689.613,-74.8451 699.188,-79.3821 699.927,-72.4213"/>
</g>
<!-- Node15 -->
<g id="node11" class="node"><title>Node15</title>
<polygon fill="white" stroke="#bfbfbf" points="707.5,-56.5 707.5,-75.5 772.5,-75.5 772.5,-56.5 707.5,-56.5"/>
<text text-anchor="middle" x="740" y="-63.5" font-family="Helvetica,sans-Serif" font-size="10.00">croutine.h</text>
</g>
<!-- Node0&#45;&gt;Node15 -->
<g id="edge10" class="edge"><title>Node0&#45;&gt;Node15</title>
<path fill="none" stroke="midnightblue" d="M1640.42,-121.451C1490.24,-121.699 1109.81,-117.863 783.065,-75.9009"/>
<polygon fill="midnightblue" stroke="midnightblue" points="783.295,-72.4015 772.927,-74.5844 782.393,-79.3432 783.295,-72.4015"/>
</g>
<!-- Node16 -->
<g id="node12" class="node"><title>Node16</title>
<polygon fill="white" stroke="#bfbfbf" points="790.5,-56.5 790.5,-75.5 829.5,-75.5 829.5,-56.5 790.5,-56.5"/>
<text text-anchor="middle" x="810" y="-63.5" font-family="Helvetica,sans-Serif" font-size="10.00">list.h</text>
</g>
<!-- Node0&#45;&gt;Node16 -->
<g id="edge11" class="edge"><title>Node0&#45;&gt;Node16</title>
<path fill="none" stroke="midnightblue" d="M1640.38,-119.708C1469.21,-116.005 1011.13,-103.893 839.705,-75.5724"/>
<polygon fill="midnightblue" stroke="midnightblue" points="840.257,-72.1159 829.807,-73.8606 839.064,-79.0135 840.257,-72.1159"/>
</g>
<!-- Node17 -->
<g id="node13" class="node"><title>Node17</title>
<polygon fill="white" stroke="#bfbfbf" points="848,-56.5 848,-75.5 944,-75.5 944,-56.5 848,-56.5"/>
<text text-anchor="middle" x="896" y="-63.5" font-family="Helvetica,sans-Serif" font-size="10.00">mpu_wrappers.h</text>
</g>
<!-- Node0&#45;&gt;Node17 -->
<g id="edge12" class="edge"><title>Node0&#45;&gt;Node17</title>
<path fill="none" stroke="midnightblue" d="M1640.45,-119.154C1509.61,-115.012 1206.93,-103.131 954,-76 953.899,-75.9891 953.797,-75.9782 953.696,-75.9672"/>
<polygon fill="midnightblue" stroke="midnightblue" points="954.406,-72.5273 944.061,-74.8145 953.574,-79.4778 954.406,-72.5273"/>
</g>
<!-- Node18 -->
<g id="node14" class="node"><title>Node18</title>
<polygon fill="white" stroke="#bfbfbf" points="962.5,-56.5 962.5,-75.5 1027.5,-75.5 1027.5,-56.5 962.5,-56.5"/>
<text text-anchor="middle" x="995" y="-63.5" font-family="Helvetica,sans-Serif" font-size="10.00">portable.h</text>
</g>
<!-- Node0&#45;&gt;Node18 -->
<g id="edge13" class="edge"><title>Node0&#45;&gt;Node18</title>
<path fill="none" stroke="midnightblue" d="M1640.16,-119.71C1521.6,-116.7 1264.3,-107.042 1038.01,-75.9279"/>
<polygon fill="midnightblue" stroke="midnightblue" points="1038.32,-72.4382 1027.94,-74.526 1037.36,-79.3714 1038.32,-72.4382"/>
</g>
<!-- Node19 -->
<g id="node15" class="node"><title>Node19</title>
<polygon fill="white" stroke="#bfbfbf" points="1046,-56.5 1046,-75.5 1110,-75.5 1110,-56.5 1046,-56.5"/>
<text text-anchor="middle" x="1078" y="-63.5" font-family="Helvetica,sans-Serif" font-size="10.00">projdefs.h</text>
</g>
<!-- Node0&#45;&gt;Node19 -->
<g id="edge14" class="edge"><title>Node0&#45;&gt;Node19</title>
<path fill="none" stroke="midnightblue" d="M1640.08,-118.946C1532.99,-114.95 1314.46,-104.057 1120.26,-75.982"/>
<polygon fill="midnightblue" stroke="midnightblue" points="1120.55,-72.4879 1110.15,-74.5019 1119.54,-79.414 1120.55,-72.4879"/>
</g>
<!-- Node20 -->
<g id="node16" class="node"><title>Node20</title>
<polygon fill="white" stroke="#bfbfbf" points="1128,-56.5 1128,-75.5 1184,-75.5 1184,-56.5 1128,-56.5"/>
<text text-anchor="middle" x="1156" y="-63.5" font-family="Helvetica,sans-Serif" font-size="10.00">queue.h</text>
</g>
<!-- Node0&#45;&gt;Node20 -->
<g id="edge15" class="edge"><title>Node0&#45;&gt;Node20</title>
<path fill="none" stroke="midnightblue" d="M1640.42,-118.421C1544.39,-113.944 1359.84,-102.684 1194.07,-75.9391"/>
<polygon fill="midnightblue" stroke="midnightblue" points="1194.63,-72.4827 1184.19,-74.3223 1193.5,-79.3909 1194.63,-72.4827"/>
</g>
<!-- Node21 -->
<g id="node17" class="node"><title>Node21</title>
<polygon fill="white" stroke="#bfbfbf" points="1202,-56.5 1202,-75.5 1264,-75.5 1264,-56.5 1202,-56.5"/>
<text text-anchor="middle" x="1233" y="-63.5" font-family="Helvetica,sans-Serif" font-size="10.00">semphr.h</text>
</g>
<!-- Node0&#45;&gt;Node21 -->
<g id="edge16" class="edge"><title>Node0&#45;&gt;Node21</title>
<path fill="none" stroke="midnightblue" d="M1640.39,-116.599C1557.37,-110.491 1409.83,-97.8434 1274.51,-76.0773"/>
<polygon fill="midnightblue" stroke="midnightblue" points="1274.81,-72.5798 1264.37,-74.4261 1273.68,-79.4887 1274.81,-72.5798"/>
</g>
<!-- Node22 -->
<g id="node18" class="node"><title>Node22</title>
<polygon fill="white" stroke="#bfbfbf" points="1282,-56.5 1282,-75.5 1328,-75.5 1328,-56.5 1282,-56.5"/>
<text text-anchor="middle" x="1305" y="-63.5" font-family="Helvetica,sans-Serif" font-size="10.00">task.h</text>
</g>
<!-- Node0&#45;&gt;Node22 -->
<g id="edge17" class="edge"><title>Node0&#45;&gt;Node22</title>
<path fill="none" stroke="midnightblue" d="M1640.2,-116.03C1568.19,-109.906 1449.26,-97.7856 1338.34,-76.0017"/>
<polygon fill="midnightblue" stroke="midnightblue" points="1338.81,-72.5269 1328.32,-74.0028 1337.44,-79.3916 1338.81,-72.5269"/>
</g>
<!-- Node23 -->
<g id="node19" class="node"><title>Node23</title>
<polygon fill="white" stroke="#bfbfbf" points="1346,-56.5 1346,-75.5 1402,-75.5 1402,-56.5 1346,-56.5"/>
<text text-anchor="middle" x="1374" y="-63.5" font-family="Helvetica,sans-Serif" font-size="10.00">timers.h</text>
</g>
<!-- Node0&#45;&gt;Node23 -->
<g id="edge18" class="edge"><title>Node0&#45;&gt;Node23</title>
<path fill="none" stroke="midnightblue" d="M1640.35,-112.496C1580.59,-104.39 1490.06,-91.1913 1412,-76 1411.9,-75.9806 1411.8,-75.9611 1411.7,-75.9415"/>
<polygon fill="midnightblue" stroke="midnightblue" points="1412.67,-72.5695 1402.17,-73.9382 1411.23,-79.4199 1412.67,-72.5695"/>
</g>
<!-- Node24 -->
<g id="node20" class="node"><title>Node24</title>
<polygon fill="white" stroke="#bfbfbf" points="1420.5,-56.5 1420.5,-75.5 1467.5,-75.5 1467.5,-56.5 1420.5,-56.5"/>
<text text-anchor="middle" x="1444" y="-63.5" font-family="Helvetica,sans-Serif" font-size="10.00">gpbr.h</text>
</g>
<!-- Node0&#45;&gt;Node24 -->
<g id="edge19" class="edge"><title>Node0&#45;&gt;Node24</title>
<path fill="none" stroke="midnightblue" d="M1657.09,-112.446C1612.75,-104.455 1545.42,-91.728 1477.73,-76.032"/>
<polygon fill="midnightblue" stroke="midnightblue" points="1478.28,-72.5657 1467.74,-73.6949 1476.68,-79.3816 1478.28,-72.5657"/>
</g>
<!-- Node25 -->
<g id="node21" class="node"><title>Node25</title>
<polygon fill="white" stroke="#bfbfbf" points="1485.5,-56.5 1485.5,-75.5 1538.5,-75.5 1538.5,-56.5 1485.5,-56.5"/>
<text text-anchor="middle" x="1512" y="-63.5" font-family="Helvetica,sans-Serif" font-size="10.00">ioport.h</text>
</g>
<!-- Node0&#45;&gt;Node25 -->
<g id="edge20" class="edge"><title>Node0&#45;&gt;Node25</title>
<path fill="none" stroke="midnightblue" d="M1675.26,-112.444C1640.79,-102.848 1584.92,-87.2984 1548.32,-77.1104"/>
<polygon fill="midnightblue" stroke="midnightblue" points="1549.12,-73.6982 1538.54,-74.3884 1547.24,-80.4419 1549.12,-73.6982"/>
</g>
<!-- Node26 -->
<g id="node22" class="node"><title>Node26</title>
<polygon fill="white" stroke="#bfbfbf" points="1556.5,-56.5 1556.5,-75.5 1623.5,-75.5 1623.5,-56.5 1556.5,-56.5"/>
<text text-anchor="middle" x="1590" y="-63.5" font-family="Helvetica,sans-Serif" font-size="10.00">interrupt.h</text>
</g>
<!-- Node0&#45;&gt;Node26 -->
<g id="edge21" class="edge"><title>Node0&#45;&gt;Node26</title>
<path fill="none" stroke="midnightblue" d="M1687.62,-112.444C1668.78,-103.675 1639.27,-89.9355 1617.62,-79.8579"/>
<polygon fill="midnightblue" stroke="midnightblue" points="1618.84,-76.5637 1608.29,-75.5164 1615.88,-82.9098 1618.84,-76.5637"/>
</g>
<!-- Node27 -->
<g id="node23" class="node"><title>Node27</title>
<polygon fill="white" stroke="#bfbfbf" points="1642,-56.5 1642,-75.5 1700,-75.5 1700,-56.5 1642,-56.5"/>
<text text-anchor="middle" x="1671" y="-63.5" font-family="Helvetica,sans-Serif" font-size="10.00">xdmac.h</text>
</g>
<!-- Node0&#45;&gt;Node27 -->
<g id="edge22" class="edge"><title>Node0&#45;&gt;Node27</title>
<path fill="none" stroke="midnightblue" d="M1700.22,-112.083C1695.33,-104.534 1688.17,-93.4948 1682.17,-84.2298"/>
<polygon fill="midnightblue" stroke="midnightblue" points="1685.05,-82.239 1676.67,-75.7511 1679.17,-86.0463 1685.05,-82.239"/>
</g>
<!-- Node28 -->
<g id="node24" class="node"><title>Node28</title>
<polygon fill="white" stroke="#bfbfbf" points="1718.5,-56.5 1718.5,-75.5 1765.5,-75.5 1765.5,-56.5 1718.5,-56.5"/>
<text text-anchor="middle" x="1742" y="-63.5" font-family="Helvetica,sans-Serif" font-size="10.00">pmc.h</text>
</g>
<!-- Node0&#45;&gt;Node28 -->
<g id="edge24" class="edge"><title>Node0&#45;&gt;Node28</title>
<path fill="none" stroke="midnightblue" d="M1711.94,-112.083C1716.98,-104.534 1724.34,-93.4948 1730.51,-84.2298"/>
<polygon fill="midnightblue" stroke="midnightblue" points="1733.53,-86.0131 1736.17,-75.7511 1727.71,-82.1301 1733.53,-86.0131"/>
</g>
<!-- Node29 -->
<g id="node25" class="node"><title>Node29</title>
<polygon fill="white" stroke="#bfbfbf" points="1783.5,-56.5 1783.5,-75.5 1834.5,-75.5 1834.5,-56.5 1783.5,-56.5"/>
<text text-anchor="middle" x="1809" y="-63.5" font-family="Helvetica,sans-Serif" font-size="10.00">sleep.h</text>
</g>
<!-- Node0&#45;&gt;Node29 -->
<g id="edge25" class="edge"><title>Node0&#45;&gt;Node29</title>
<path fill="none" stroke="midnightblue" d="M1722.55,-112.324C1738.99,-103.703 1764.43,-90.3643 1783.47,-80.3855"/>
<polygon fill="midnightblue" stroke="midnightblue" points="1785.26,-83.3977 1792.49,-75.6545 1782.01,-77.198 1785.26,-83.3977"/>
</g>
<!-- Node30 -->
<g id="node26" class="node"><title>Node30</title>
<polygon fill="white" stroke="#bfbfbf" points="1853,-56.5 1853,-75.5 1903,-75.5 1903,-56.5 1853,-56.5"/>
<text text-anchor="middle" x="1878" y="-63.5" font-family="Helvetica,sans-Serif" font-size="10.00">parts.h</text>
</g>
<!-- Node0&#45;&gt;Node30 -->
<g id="edge26" class="edge"><title>Node0&#45;&gt;Node30</title>
<path fill="none" stroke="midnightblue" d="M1733.25,-112.444C1762.91,-103.132 1810.43,-88.2137 1842.87,-78.0289"/>
<polygon fill="midnightblue" stroke="midnightblue" points="1844.34,-81.2363 1852.83,-74.9015 1842.24,-74.5577 1844.34,-81.2363"/>
</g>
<!-- Node31 -->
<g id="node27" class="node"><title>Node31</title>
<polygon fill="white" stroke="#bfbfbf" points="1921,-56.5 1921,-75.5 1965,-75.5 1965,-56.5 1921,-56.5"/>
<text text-anchor="middle" x="1943" y="-63.5" font-family="Helvetica,sans-Serif" font-size="10.00">rstc.h</text>
</g>
<!-- Node0&#45;&gt;Node31 -->
<g id="edge27" class="edge"><title>Node0&#45;&gt;Node31</title>
<path fill="none" stroke="midnightblue" d="M1749.2,-112.446C1788.9,-104.39 1849.57,-91.582 1910.86,-76.166"/>
<polygon fill="midnightblue" stroke="midnightblue" points="1911.87,-79.5215 1920.7,-73.6698 1910.14,-72.7365 1911.87,-79.5215"/>
</g>
<!-- Node32 -->
<g id="node28" class="node"><title>Node32</title>
<polygon fill="white" stroke="#bfbfbf" points="1983.5,-56.5 1983.5,-75.5 2024.5,-75.5 2024.5,-56.5 1983.5,-56.5"/>
<text text-anchor="middle" x="2004" y="-63.5" font-family="Helvetica,sans-Serif" font-size="10.00">fpu.h</text>
</g>
<!-- Node0&#45;&gt;Node32 -->
<g id="edge28" class="edge"><title>Node0&#45;&gt;Node32</title>
<path fill="none" stroke="midnightblue" d="M1770.62,-112.464C1822.84,-105.039 1898.36,-93.1117 1973.34,-75.8907"/>
<polygon fill="midnightblue" stroke="midnightblue" points="1974.49,-79.217 1983.43,-73.5391 1972.9,-72.3995 1974.49,-79.217"/>
</g>
<!-- Node33 -->
<g id="node29" class="node"><title>Node33</title>
<polygon fill="white" stroke="#bfbfbf" points="2043,-56.5 2043,-75.5 2089,-75.5 2089,-56.5 2043,-56.5"/>
<text text-anchor="middle" x="2066" y="-63.5" font-family="Helvetica,sans-Serif" font-size="10.00">smc.h</text>
</g>
<!-- Node0&#45;&gt;Node33 -->
<g id="edge29" class="edge"><title>Node0&#45;&gt;Node33</title>
<path fill="none" stroke="midnightblue" d="M1771.8,-114.669C1836.14,-107.87 1937,-95.5936 2032.82,-76.0058"/>
<polygon fill="midnightblue" stroke="midnightblue" points="2033.59,-79.4201 2042.67,-73.9617 2032.17,-72.566 2033.59,-79.4201"/>
</g>
<!-- Node34 -->
<g id="node30" class="node"><title>Node34</title>
<polygon fill="white" stroke="#bfbfbf" points="2107.5,-56.5 2107.5,-75.5 2152.5,-75.5 2152.5,-56.5 2107.5,-56.5"/>
<text text-anchor="middle" x="2130" y="-63.5" font-family="Helvetica,sans-Serif" font-size="10.00">qspi.h</text>
</g>
<!-- Node0&#45;&gt;Node34 -->
<g id="edge30" class="edge"><title>Node0&#45;&gt;Node34</title>
<path fill="none" stroke="midnightblue" d="M1771.69,-116.683C1847.82,-110.96 1977.1,-99.0211 2097.27,-75.827"/>
<polygon fill="midnightblue" stroke="midnightblue" points="2098.24,-79.203 2107.38,-73.8441 2096.9,-72.3338 2098.24,-79.203"/>
</g>
<!-- Node35 -->
<g id="node31" class="node"><title>Node35</title>
<polygon fill="white" stroke="#bfbfbf" points="2171,-56.5 2171,-75.5 2219,-75.5 2219,-56.5 2171,-56.5"/>
<text text-anchor="middle" x="2195" y="-63.5" font-family="Helvetica,sans-Serif" font-size="10.00">supc.h</text>
</g>
<!-- Node0&#45;&gt;Node35 -->
<g id="edge31" class="edge"><title>Node0&#45;&gt;Node35</title>
<path fill="none" stroke="midnightblue" d="M1771.8,-117.979C1858.88,-113.211 2017.19,-101.872 2161.06,-75.8738"/>
<polygon fill="midnightblue" stroke="midnightblue" points="2161.75,-79.3059 2170.96,-74.0584 2160.49,-72.4209 2161.75,-79.3059"/>
</g>
<!-- Node36 -->
<g id="node32" class="node"><title>Node36</title>
<polygon fill="white" stroke="#bfbfbf" points="2237,-56.5 2237,-75.5 2291,-75.5 2291,-56.5 2237,-56.5"/>
<text text-anchor="middle" x="2264" y="-63.5" font-family="Helvetica,sans-Serif" font-size="10.00">sysclk.h</text>
</g>
<!-- Node0&#45;&gt;Node36 -->
<g id="edge32" class="edge"><title>Node0&#45;&gt;Node36</title>
<path fill="none" stroke="midnightblue" d="M1771.52,-118.695C1868.9,-114.532 2057.61,-103.633 2226.88,-75.9232"/>
<polygon fill="midnightblue" stroke="midnightblue" points="2227.68,-79.3383 2236.97,-74.2472 2226.53,-72.4329 2227.68,-79.3383"/>
</g>
<!-- Node37 -->
<g id="node33" class="node"><title>Node37</title>
<polygon fill="white" stroke="#bfbfbf" points="2309,-56.5 2309,-75.5 2451,-75.5 2451,-56.5 2309,-56.5"/>
<text text-anchor="middle" x="2380" y="-63.5" font-family="Helvetica,sans-Serif" font-size="10.00">sam_twihs/twihs_master.h</text>
</g>
<!-- Node0&#45;&gt;Node37 -->
<g id="edge33" class="edge"><title>Node0&#45;&gt;Node37</title>
<path fill="none" stroke="midnightblue" d="M1771.55,-116.817C1879.27,-109.771 2100.72,-94.5613 2298.9,-76.0723"/>
<polygon fill="midnightblue" stroke="midnightblue" points="2299.28,-79.5515 2308.91,-75.1331 2298.63,-72.582 2299.28,-79.5515"/>
</g>
<!-- Node38 -->
<g id="node34" class="node"><title>Node38</title>
<polygon fill="white" stroke="#bfbfbf" points="2469.5,-56.5 2469.5,-75.5 2602.5,-75.5 2602.5,-56.5 2469.5,-56.5"/>
<text text-anchor="middle" x="2536" y="-63.5" font-family="Helvetica,sans-Serif" font-size="10.00">sam_twihs/twihs_slave.h</text>
</g>
<!-- Node0&#45;&gt;Node38 -->
<g id="edge34" class="edge"><title>Node0&#45;&gt;Node38</title>
<path fill="none" stroke="midnightblue" d="M1771.65,-118.37C1901.03,-112.907 2198.27,-98.9646 2459.25,-76.0119"/>
<polygon fill="midnightblue" stroke="midnightblue" points="2459.64,-79.4906 2469.29,-75.1221 2459.02,-72.5179 2459.64,-79.4906"/>
</g>
<!-- Node39 -->
<g id="node35" class="node"><title>Node39</title>
<polygon fill="white" stroke="#bfbfbf" points="2620.5,-56.5 2620.5,-75.5 2709.5,-75.5 2709.5,-56.5 2620.5,-56.5"/>
<text text-anchor="middle" x="2665" y="-63.5" font-family="Helvetica,sans-Serif" font-size="10.00">twihs_master.h</text>
</g>
<!-- Node0&#45;&gt;Node39 -->
<g id="edge35" class="edge"><title>Node0&#45;&gt;Node39</title>
<path fill="none" stroke="midnightblue" d="M1771.58,-120.404C1919.49,-118.486 2290.42,-110.456 2609.85,-76.1138"/>
<polygon fill="midnightblue" stroke="midnightblue" points="2610.67,-79.545 2620.23,-74.9857 2609.91,-72.5859 2610.67,-79.545"/>
</g>
<!-- Node40 -->
<g id="node36" class="node"><title>Node40</title>
<polygon fill="white" stroke="#bfbfbf" points="2728,-56.5 2728,-75.5 2808,-75.5 2808,-56.5 2728,-56.5"/>
<text text-anchor="middle" x="2768" y="-63.5" font-family="Helvetica,sans-Serif" font-size="10.00">twihs_slave.h</text>
</g>
<!-- Node0&#45;&gt;Node40 -->
<g id="edge36" class="edge"><title>Node0&#45;&gt;Node40</title>
<path fill="none" stroke="midnightblue" d="M1771.72,-121.196C1931.91,-121.003 2355.31,-116.464 2717.79,-75.9649"/>
<polygon fill="midnightblue" stroke="midnightblue" points="2718.41,-79.417 2727.96,-74.8177 2717.63,-72.4611 2718.41,-79.417"/>
</g>
<!-- Node41 -->
<g id="node37" class="node"><title>Node41</title>
<polygon fill="white" stroke="#bfbfbf" points="2826.5,-56.5 2826.5,-75.5 2871.5,-75.5 2871.5,-56.5 2826.5,-56.5"/>
<text text-anchor="middle" x="2849" y="-63.5" font-family="Helvetica,sans-Serif" font-size="10.00">uart.h</text>
</g>
<!-- Node0&#45;&gt;Node41 -->
<g id="edge37" class="edge"><title>Node0&#45;&gt;Node41</title>
<path fill="none" stroke="midnightblue" d="M1771.59,-120.352C1975.05,-118.032 2594.57,-108.542 2816.47,-75.5915"/>
<polygon fill="midnightblue" stroke="midnightblue" points="2817.07,-79.0408 2826.42,-74.0556 2816,-72.1228 2817.07,-79.0408"/>
</g>
<!-- Node42 -->
<g id="node38" class="node"><title>Node42</title>
<polygon fill="white" stroke="#bfbfbf" points="2889.5,-56.5 2889.5,-75.5 2940.5,-75.5 2940.5,-56.5 2889.5,-56.5"/>
<text text-anchor="middle" x="2915" y="-63.5" font-family="Helvetica,sans-Serif" font-size="10.00">serial.h</text>
</g>
<!-- Node0&#45;&gt;Node42 -->
<g id="edge38" class="edge"><title>Node0&#45;&gt;Node42</title>
<path fill="none" stroke="midnightblue" d="M1771.55,-120.39C1982.74,-118.131 2644.69,-108.682 2878.97,-75.9511"/>
<polygon fill="midnightblue" stroke="midnightblue" points="2879.74,-79.3762 2889.13,-74.4758 2878.74,-72.4488 2879.74,-79.3762"/>
</g>
<!-- Node43 -->
<g id="node39" class="node"><title>Node43</title>
<polygon fill="white" stroke="#bfbfbf" points="2959,-56.5 2959,-75.5 3009,-75.5 3009,-56.5 2959,-56.5"/>
<text text-anchor="middle" x="2984" y="-63.5" font-family="Helvetica,sans-Serif" font-size="10.00">usart.h</text>
</g>
<!-- Node0&#45;&gt;Node43 -->
<g id="edge39" class="edge"><title>Node0&#45;&gt;Node43</title>
<path fill="none" stroke="midnightblue" d="M1771.87,-120.55C1991.71,-118.749 2699.81,-110.465 2948.79,-75.7744"/>
<polygon fill="midnightblue" stroke="midnightblue" points="2949.48,-79.2111 2958.88,-74.3166 2948.48,-72.2831 2949.48,-79.2111"/>
</g>
<!-- Node44 -->
<g id="node40" class="node"><title>Node44</title>
<polygon fill="white" stroke="#bfbfbf" points="3027,-56.5 3027,-75.5 3069,-75.5 3069,-56.5 3027,-56.5"/>
<text text-anchor="middle" x="3048" y="-63.5" font-family="Helvetica,sans-Serif" font-size="10.00">wdt.h</text>
</g>
<!-- Node0&#45;&gt;Node44 -->
<g id="edge40" class="edge"><title>Node0&#45;&gt;Node44</title>
<path fill="none" stroke="midnightblue" d="M1771.88,-120.975C1999.69,-120.546 2754.02,-116.169 3016.6,-75.7188"/>
<polygon fill="midnightblue" stroke="midnightblue" points="3017.53,-79.1137 3026.85,-74.0782 3016.43,-72.2015 3017.53,-79.1137"/>
</g>
<!-- Node45 -->
<g id="node41" class="node"><title>Node45</title>
<polygon fill="white" stroke="#bfbfbf" points="3087,-56.5 3087,-75.5 3167,-75.5 3167,-56.5 3087,-56.5"/>
<text text-anchor="middle" x="3127" y="-63.5" font-family="Helvetica,sans-Serif" font-size="10.00">pio_handler.h</text>
</g>
<!-- Node0&#45;&gt;Node45 -->
<g id="edge41" class="edge"><title>Node0&#45;&gt;Node45</title>
<path fill="none" stroke="midnightblue" d="M1771.87,-120.14C2006.3,-116.88 2800.45,-104.069 3076.95,-75.9071"/>
<polygon fill="midnightblue" stroke="midnightblue" points="3077.38,-79.3811 3086.96,-74.8559 3076.65,-72.4193 3077.38,-79.3811"/>
</g>
<!-- Node46 -->
<g id="node42" class="node"><title>Node46</title>
<polygon fill="white" stroke="#bfbfbf" points="3185.5,-56.5 3185.5,-75.5 3294.5,-75.5 3294.5,-56.5 3185.5,-56.5"/>
<text text-anchor="middle" x="3240" y="-63.5" font-family="Helvetica,sans-Serif" font-size="10.00">usb_protocol_cdc.h</text>
</g>
<!-- Node0&#45;&gt;Node46 -->
<g id="edge42" class="edge"><title>Node0&#45;&gt;Node46</title>
<path fill="none" stroke="midnightblue" d="M1771.71,-121.539C1977.37,-122.683 2627.08,-122.181 3175.15,-75.959"/>
<polygon fill="midnightblue" stroke="midnightblue" points="3175.56,-79.4362 3185.23,-75.1022 3174.97,-72.4613 3175.56,-79.4362"/>
</g>
<!-- Node47 -->
<g id="node43" class="node"><title>Node47</title>
<polygon fill="white" stroke="#bfbfbf" points="3313,-56.5 3313,-75.5 3375,-75.5 3375,-56.5 3313,-56.5"/>
<text text-anchor="middle" x="3344" y="-63.5" font-family="Helvetica,sans-Serif" font-size="10.00">udi_cdc.h</text>
</g>
<!-- Node0&#45;&gt;Node47 -->
<g id="edge43" class="edge"><title>Node0&#45;&gt;Node47</title>
<path fill="none" stroke="midnightblue" d="M1771.71,-120.842C2030.36,-119.959 2979.52,-114.215 3302.36,-75.9123"/>
<polygon fill="midnightblue" stroke="midnightblue" points="3303.16,-79.3415 3312.66,-74.653 3302.31,-72.3933 3303.16,-79.3415"/>
</g>
<!-- Node48 -->
<g id="node44" class="node"><title>Node48</title>
<polygon fill="white" stroke="#bfbfbf" points="3393.5,-56.5 3393.5,-75.5 3436.5,-75.5 3436.5,-56.5 3393.5,-56.5"/>
<text text-anchor="middle" x="3415" y="-63.5" font-family="Helvetica,sans-Serif" font-size="10.00">udc.h</text>
</g>
<!-- Node0&#45;&gt;Node48 -->
<g id="edge44" class="edge"><title>Node0&#45;&gt;Node48</title>
<path fill="none" stroke="midnightblue" d="M1771.51,-120.233C2056.47,-116.766 3182.37,-101.66 3383.58,-75.4297"/>
<polygon fill="midnightblue" stroke="midnightblue" points="3384.08,-78.894 3393.48,-74.0111 3383.08,-71.9647 3384.08,-78.894"/>
</g>
<!-- Node49 -->
<g id="node45" class="node"><title>Node49</title>
<polygon fill="white" stroke="#bfbfbf" points="3455,-56.5 3455,-75.5 3499,-75.5 3499,-56.5 3455,-56.5"/>
<text text-anchor="middle" x="3477" y="-63.5" font-family="Helvetica,sans-Serif" font-size="10.00">udd.h</text>
</g>
<!-- Node0&#45;&gt;Node49 -->
<g id="edge45" class="edge"><title>Node0&#45;&gt;Node49</title>
<path fill="none" stroke="midnightblue" d="M1771.93,-120.296C2064.23,-117.041 3237.53,-102.529 3444.87,-75.6001"/>
<polygon fill="midnightblue" stroke="midnightblue" points="3445.4,-79.0609 3454.8,-74.1841 3444.41,-72.131 3445.4,-79.0609"/>
</g>
<!-- Node3&#45;&gt;Node6 -->
<g id="edge4" class="edge"><title>Node3&#45;&gt;Node6</title>
<path fill="none" stroke="midnightblue" d="M222.459,-56.083C226.154,-48.6913 231.523,-37.9533 236.094,-28.8111"/>
<polygon fill="midnightblue" stroke="midnightblue" points="239.283,-30.2606 240.624,-19.7511 233.022,-27.1301 239.283,-30.2606"/>
</g>
</g>
</svg>
