<?xml version="1.0" encoding="UTF-8" standalone="no"?>
<!DOCTYPE svg PUBLIC "-//W3C//DTD SVG 1.1//EN"
 "http://www.w3.org/Graphics/SVG/1.1/DTD/svg11.dtd">
<!-- Generated by graphviz version 2.38.0 (20140413.2041)
 -->
<!-- Title: src/hal/x4m0x_s70/asf.h Pages: 1 -->
<svg width="399pt" height="95pt"
 viewBox="0.00 0.00 399.00 95.00" xmlns="http://www.w3.org/2000/svg" xmlns:xlink="http://www.w3.org/1999/xlink">
<g id="graph0" class="graph" transform="scale(1 1) rotate(0) translate(4 91)">
<title>src/hal/x4m0x_s70/asf.h</title>
<polygon fill="white" stroke="none" points="-4,4 -4,-91 395,-91 395,4 -4,4"/>
<!-- Node50 -->
<g id="node1" class="node"><title>Node50</title>
<polygon fill="#bfbfbf" stroke="black" points="135,-67.5 135,-86.5 266,-86.5 266,-67.5 135,-67.5"/>
<text text-anchor="middle" x="200.5" y="-74.5" font-family="Helvetica,sans-Serif" font-size="10.00">src/hal/x4m0x_s70/asf.h</text>
</g>
<!-- Node51 -->
<g id="node2" class="node"><title>Node51</title>
<g id="a_node2"><a xlink:href="hal__board__init_8c.xhtml" target="_top" xlink:title="User board initialization template. ">
<polygon fill="white" stroke="black" points="0,-0.5 0,-30.5 123,-30.5 123,-0.5 0,-0.5"/>
<text text-anchor="start" x="8" y="-18.5" font-family="Helvetica,sans-Serif" font-size="10.00">src/hal/x4m0x_s70/hal</text>
<text text-anchor="middle" x="61.5" y="-7.5" font-family="Helvetica,sans-Serif" font-size="10.00">_board_init.c</text>
</a>
</g>
</g>
<!-- Node50&#45;&gt;Node51 -->
<g id="edge1" class="edge"><title>Node50&#45;&gt;Node51</title>
<path fill="none" stroke="midnightblue" d="M171.206,-63.4605C148.692,-53.823 117.597,-40.5127 94.2595,-30.523"/>
<polygon fill="midnightblue" stroke="midnightblue" points="170.014,-66.7574 180.585,-67.4751 172.769,-60.3222 170.014,-66.7574"/>
</g>
<!-- Node52 -->
<g id="node3" class="node"><title>Node52</title>
<g id="a_node3"><a xlink:href="xt__system_8c.xhtml" target="_top" xlink:title="System level hardware functionality. ">
<polygon fill="white" stroke="black" points="141.5,-0.5 141.5,-30.5 259.5,-30.5 259.5,-0.5 141.5,-0.5"/>
<text text-anchor="start" x="149.5" y="-18.5" font-family="Helvetica,sans-Serif" font-size="10.00">src/hal/x4m0x_s70/xt</text>
<text text-anchor="middle" x="200.5" y="-7.5" font-family="Helvetica,sans-Serif" font-size="10.00">_system.c</text>
</a>
</g>
</g>
<!-- Node50&#45;&gt;Node52 -->
<g id="edge2" class="edge"><title>Node50&#45;&gt;Node52</title>
<path fill="none" stroke="midnightblue" d="M200.5,-57.2349C200.5,-48.5864 200.5,-38.4969 200.5,-30.523"/>
<polygon fill="midnightblue" stroke="midnightblue" points="197,-57.4751 200.5,-67.4751 204,-57.4751 197,-57.4751"/>
</g>
<!-- Node53 -->
<g id="node4" class="node"><title>Node53</title>
<g id="a_node4"><a xlink:href="xttoolbox_8c.xhtml" target="_top" xlink:title="src/Tools/xttoolbox.c">
<polygon fill="white" stroke="black" points="278,-6 278,-25 391,-25 391,-6 278,-6"/>
<text text-anchor="middle" x="334.5" y="-13" font-family="Helvetica,sans-Serif" font-size="10.00">src/Tools/xttoolbox.c</text>
</a>
</g>
</g>
<!-- Node50&#45;&gt;Node53 -->
<g id="edge3" class="edge"><title>Node50&#45;&gt;Node53</title>
<path fill="none" stroke="midnightblue" d="M229.04,-63.3272C255.055,-51.7761 292.765,-35.0316 315.337,-25.0091"/>
<polygon fill="midnightblue" stroke="midnightblue" points="227.418,-60.218 219.699,-67.4751 230.259,-66.6157 227.418,-60.218"/>
</g>
</g>
</svg>
