<?xml version="1.0" encoding="UTF-8" standalone="no"?>
<!DOCTYPE svg PUBLIC "-//W3C//DTD SVG 1.1//EN"
 "http://www.w3.org/Graphics/SVG/1.1/DTD/svg11.dtd">
<!-- Generated by graphviz version 2.38.0 (20140413.2041)
 -->
<!-- Title: src/hal/x4m0x_s70/board.h Pages: 1 -->
<svg width="308pt" height="84pt"
 viewBox="0.00 0.00 307.50 84.00" xmlns="http://www.w3.org/2000/svg" xmlns:xlink="http://www.w3.org/1999/xlink">
<g id="graph0" class="graph" transform="scale(1 1) rotate(0) translate(4 80)">
<title>src/hal/x4m0x_s70/board.h</title>
<polygon fill="white" stroke="none" points="-4,4 -4,-80 303.5,-80 303.5,4 -4,4"/>
<!-- Node0 -->
<g id="node1" class="node"><title>Node0</title>
<polygon fill="#bfbfbf" stroke="black" points="91.5,-56.5 91.5,-75.5 237.5,-75.5 237.5,-56.5 91.5,-56.5"/>
<text text-anchor="middle" x="164.5" y="-63.5" font-family="Helvetica,sans-Serif" font-size="10.00">src/hal/x4m0x_s70/board.h</text>
</g>
<!-- Node1 -->
<g id="node2" class="node"><title>Node1</title>
<g id="a_node2"><a xlink:href="conf__board_8h.xhtml" target="_top" xlink:title="User board configuration template. ">
<polygon fill="white" stroke="black" points="0,-0.5 0,-19.5 79,-19.5 79,-0.5 0,-0.5"/>
<text text-anchor="middle" x="39.5" y="-7.5" font-family="Helvetica,sans-Serif" font-size="10.00">conf_board.h</text>
</a>
</g>
</g>
<!-- Node0&#45;&gt;Node1 -->
<g id="edge1" class="edge"><title>Node0&#45;&gt;Node1</title>
<path fill="none" stroke="midnightblue" d="M144.693,-56.4435C124.213,-47.5961 92.0173,-33.6875 68.6353,-23.5865"/>
<polygon fill="midnightblue" stroke="midnightblue" points="69.782,-20.2692 59.214,-19.5164 67.0059,-26.6953 69.782,-20.2692"/>
</g>
<!-- Node2 -->
<g id="node3" class="node"><title>Node2</title>
<polygon fill="white" stroke="#bfbfbf" points="97.5,-0.5 97.5,-19.5 161.5,-19.5 161.5,-0.5 97.5,-0.5"/>
<text text-anchor="middle" x="129.5" y="-7.5" font-family="Helvetica,sans-Serif" font-size="10.00">inttypes.h</text>
</g>
<!-- Node0&#45;&gt;Node2 -->
<g id="edge2" class="edge"><title>Node0&#45;&gt;Node2</title>
<path fill="none" stroke="midnightblue" d="M158.72,-56.083C153.828,-48.5341 146.673,-37.4948 140.667,-28.2298"/>
<polygon fill="midnightblue" stroke="midnightblue" points="143.548,-26.239 135.172,-19.7511 137.674,-30.0463 143.548,-26.239"/>
</g>
<!-- Node3 -->
<g id="node4" class="node"><title>Node3</title>
<polygon fill="white" stroke="#bfbfbf" points="179.5,-0.5 179.5,-19.5 219.5,-19.5 219.5,-0.5 179.5,-0.5"/>
<text text-anchor="middle" x="199.5" y="-7.5" font-family="Helvetica,sans-Serif" font-size="10.00">pio.h</text>
</g>
<!-- Node0&#45;&gt;Node3 -->
<g id="edge3" class="edge"><title>Node0&#45;&gt;Node3</title>
<path fill="none" stroke="midnightblue" d="M170.28,-56.083C175.172,-48.5341 182.327,-37.4948 188.333,-28.2298"/>
<polygon fill="midnightblue" stroke="midnightblue" points="191.326,-30.0463 193.828,-19.7511 185.452,-26.239 191.326,-30.0463"/>
</g>
<!-- Node4 -->
<g id="node5" class="node"><title>Node4</title>
<g id="a_node5"><a xlink:href="xep__hal_8h.xhtml" target="_top" xlink:title="Brief description. ">
<polygon fill="white" stroke="red" points="237.5,-0.5 237.5,-19.5 299.5,-19.5 299.5,-0.5 237.5,-0.5"/>
<text text-anchor="middle" x="268.5" y="-7.5" font-family="Helvetica,sans-Serif" font-size="10.00">xep_hal.h</text>
</a>
</g>
</g>
<!-- Node0&#45;&gt;Node4 -->
<g id="edge4" class="edge"><title>Node0&#45;&gt;Node4</title>
<path fill="none" stroke="midnightblue" d="M181.209,-56.324C197.812,-47.7034 223.502,-34.3643 242.72,-24.3855"/>
<polygon fill="midnightblue" stroke="midnightblue" points="244.57,-27.3689 251.832,-19.6545 241.344,-21.1565 244.57,-27.3689"/>
</g>
</g>
</svg>
