<?xml version="1.0" encoding="UTF-8" standalone="no"?>
<!DOCTYPE svg PUBLIC "-//W3C//DTD SVG 1.1//EN"
 "http://www.w3.org/Graphics/SVG/1.1/DTD/svg11.dtd">
<!-- Generated by graphviz version 2.38.0 (20140413.2041)
 -->
<!-- Title: src/hal/x4m0x_s70/board.h Pages: 1 -->
<svg width="1279pt" height="162pt"
 viewBox="0.00 0.00 1278.50 162.00" xmlns="http://www.w3.org/2000/svg" xmlns:xlink="http://www.w3.org/1999/xlink">
<g id="graph0" class="graph" transform="scale(1 1) rotate(0) translate(4 158)">
<title>src/hal/x4m0x_s70/board.h</title>
<polygon fill="white" stroke="none" points="-4,4 -4,-158 1274.5,-158 1274.5,4 -4,4"/>
<!-- Node7 -->
<g id="node1" class="node"><title>Node7</title>
<polygon fill="#bfbfbf" stroke="black" points="493.5,-134.5 493.5,-153.5 639.5,-153.5 639.5,-134.5 493.5,-134.5"/>
<text text-anchor="middle" x="566.5" y="-141.5" font-family="Helvetica,sans-Serif" font-size="10.00">src/hal/x4m0x_s70/board.h</text>
</g>
<!-- Node8 -->
<g id="node2" class="node"><title>Node8</title>
<g id="a_node2"><a xlink:href="asf_8h.xhtml" target="_top" xlink:title="Autogenerated API include file for the Atmel Software Framework (ASF) ">
<polygon fill="white" stroke="red" points="78,-73 78,-92 209,-92 209,-73 78,-73"/>
<text text-anchor="middle" x="143.5" y="-80" font-family="Helvetica,sans-Serif" font-size="10.00">src/hal/x4m0x_s70/asf.h</text>
</a>
</g>
</g>
<!-- Node7&#45;&gt;Node8 -->
<g id="edge1" class="edge"><title>Node7&#45;&gt;Node8</title>
<path fill="none" stroke="midnightblue" d="M483.395,-133.25C413.83,-124.812 312.014,-111.819 223.5,-98 212.064,-96.2145 199.746,-94.0852 188.285,-92.0154"/>
<polygon fill="midnightblue" stroke="midnightblue" points="483.071,-136.736 493.419,-134.461 483.911,-129.787 483.071,-136.736"/>
</g>
<!-- Node9 -->
<g id="node3" class="node"><title>Node9</title>
<g id="a_node3"><a xlink:href="hal__board__init_8c.xhtml" target="_top" xlink:title="User board initialization template. ">
<polygon fill="white" stroke="black" points="0,-0.5 0,-30.5 123,-30.5 123,-0.5 0,-0.5"/>
<text text-anchor="start" x="8" y="-18.5" font-family="Helvetica,sans-Serif" font-size="10.00">src/hal/x4m0x_s70/hal</text>
<text text-anchor="middle" x="61.5" y="-7.5" font-family="Helvetica,sans-Serif" font-size="10.00">_board_init.c</text>
</a>
</g>
</g>
<!-- Node7&#45;&gt;Node9 -->
<g id="edge5" class="edge"><title>Node7&#45;&gt;Node9</title>
<path fill="none" stroke="midnightblue" d="M483.19,-141.209C349.011,-137.487 97.0966,-126.724 68.5,-98 50.9657,-80.3877 54.133,-48.7697 57.8927,-30.5247"/>
<polygon fill="midnightblue" stroke="midnightblue" points="483.341,-144.714 493.431,-141.485 483.53,-137.717 483.341,-144.714"/>
</g>
<!-- Node10 -->
<g id="node4" class="node"><title>Node10</title>
<g id="a_node4"><a xlink:href="xt__system_8c.xhtml" target="_top" xlink:title="System level hardware functionality. ">
<polygon fill="white" stroke="black" points="165.5,-0.5 165.5,-30.5 283.5,-30.5 283.5,-0.5 165.5,-0.5"/>
<text text-anchor="start" x="173.5" y="-18.5" font-family="Helvetica,sans-Serif" font-size="10.00">src/hal/x4m0x_s70/xt</text>
<text text-anchor="middle" x="224.5" y="-7.5" font-family="Helvetica,sans-Serif" font-size="10.00">_system.c</text>
</a>
</g>
</g>
<!-- Node7&#45;&gt;Node10 -->
<g id="edge9" class="edge"><title>Node7&#45;&gt;Node10</title>
<path fill="none" stroke="midnightblue" d="M483.348,-140.069C404.003,-135.678 291.651,-124.798 257.5,-98 236.364,-81.4144 228.692,-49.1125 225.962,-30.5435"/>
<polygon fill="midnightblue" stroke="midnightblue" points="483.168,-143.564 493.339,-140.597 483.538,-136.574 483.168,-143.564"/>
</g>
<!-- Node12 -->
<g id="node5" class="node"><title>Node12</title>
<g id="a_node5"><a xlink:href="conf__usb_8h.xhtml" target="_top" xlink:title="USB configuration file for CDC application. ">
<polygon fill="white" stroke="red" points="266,-67.5 266,-97.5 395,-97.5 395,-67.5 266,-67.5"/>
<text text-anchor="start" x="274" y="-85.5" font-family="Helvetica,sans-Serif" font-size="10.00">src/hal/x4m0x_s70/conf</text>
<text text-anchor="middle" x="330.5" y="-74.5" font-family="Helvetica,sans-Serif" font-size="10.00">_usb.h</text>
</a>
</g>
</g>
<!-- Node7&#45;&gt;Node12 -->
<g id="edge4" class="edge"><title>Node7&#45;&gt;Node12</title>
<path fill="none" stroke="midnightblue" d="M522.804,-131.983C484.257,-122.265 427.876,-108.05 386.121,-97.523"/>
<polygon fill="midnightblue" stroke="midnightblue" points="522.135,-135.424 532.687,-134.475 523.846,-128.637 522.135,-135.424"/>
</g>
<!-- Node15 -->
<g id="node6" class="node"><title>Node15</title>
<g id="a_node6"><a xlink:href="sdramc_8c.xhtml" target="_top" xlink:title="SDRAM controller (SDRAMC) driver for SAM. ">
<polygon fill="white" stroke="black" points="413,-73 413,-92 566,-92 566,-73 413,-73"/>
<text text-anchor="middle" x="489.5" y="-80" font-family="Helvetica,sans-Serif" font-size="10.00">src/hal/x4m0x_s70/sdramc.c</text>
</a>
</g>
</g>
<!-- Node7&#45;&gt;Node15 -->
<g id="edge6" class="edge"><title>Node7&#45;&gt;Node15</title>
<path fill="none" stroke="midnightblue" d="M547.468,-128.294C532.698,-116.88 512.739,-101.458 500.512,-92.0091"/>
<polygon fill="midnightblue" stroke="midnightblue" points="545.415,-131.13 555.468,-134.475 549.695,-125.591 545.415,-131.13"/>
</g>
<!-- Node16 -->
<g id="node7" class="node"><title>Node16</title>
<g id="a_node7"><a xlink:href="xt__mcu__handlers_8c.xhtml" target="_top" xlink:title="Interrupt handlers for common MCU interrupts. ">
<polygon fill="white" stroke="black" points="584.5,-67.5 584.5,-97.5 702.5,-97.5 702.5,-67.5 584.5,-67.5"/>
<text text-anchor="start" x="592.5" y="-85.5" font-family="Helvetica,sans-Serif" font-size="10.00">src/hal/x4m0x_s70/xt</text>
<text text-anchor="middle" x="643.5" y="-74.5" font-family="Helvetica,sans-Serif" font-size="10.00">_mcu_handlers.c</text>
</a>
</g>
</g>
<!-- Node7&#45;&gt;Node16 -->
<g id="edge7" class="edge"><title>Node7&#45;&gt;Node16</title>
<path fill="none" stroke="midnightblue" d="M585.659,-128.195C597.801,-118.813 613.41,-106.751 625.353,-97.523"/>
<polygon fill="midnightblue" stroke="midnightblue" points="583.305,-125.591 577.532,-134.475 587.585,-131.13 583.305,-125.591"/>
</g>
<!-- Node17 -->
<g id="node8" class="node"><title>Node17</title>
<g id="a_node8"><a xlink:href="xt__selftest_8c.xhtml" target="_top" xlink:title="src/hal/x4m0x_s70/xt\l_selftest.c">
<polygon fill="white" stroke="black" points="720.5,-67.5 720.5,-97.5 838.5,-97.5 838.5,-67.5 720.5,-67.5"/>
<text text-anchor="start" x="728.5" y="-85.5" font-family="Helvetica,sans-Serif" font-size="10.00">src/hal/x4m0x_s70/xt</text>
<text text-anchor="middle" x="779.5" y="-74.5" font-family="Helvetica,sans-Serif" font-size="10.00">_selftest.c</text>
</a>
</g>
</g>
<!-- Node7&#45;&gt;Node17 -->
<g id="edge8" class="edge"><title>Node7&#45;&gt;Node17</title>
<path fill="none" stroke="midnightblue" d="M606.829,-131.734C641.593,-122.023 691.935,-107.961 729.3,-97.523"/>
<polygon fill="midnightblue" stroke="midnightblue" points="605.707,-128.414 597.018,-134.475 607.591,-135.156 605.707,-128.414"/>
</g>
<!-- Node18 -->
<g id="node9" class="node"><title>Node18</title>
<g id="a_node9"><a xlink:href="xtio__extram_8c.xhtml" target="_top" xlink:title="Implementent support for external RAM on boards with Atmel SAM S70 MCU. ">
<polygon fill="white" stroke="black" points="856.5,-67.5 856.5,-97.5 982.5,-97.5 982.5,-67.5 856.5,-67.5"/>
<text text-anchor="start" x="864.5" y="-85.5" font-family="Helvetica,sans-Serif" font-size="10.00">src/hal/x4m0x_s70/xtio</text>
<text text-anchor="middle" x="919.5" y="-74.5" font-family="Helvetica,sans-Serif" font-size="10.00">_extram.c</text>
</a>
</g>
</g>
<!-- Node7&#45;&gt;Node18 -->
<g id="edge10" class="edge"><title>Node7&#45;&gt;Node18</title>
<path fill="none" stroke="midnightblue" d="M633.9,-132.98C690.903,-124.32 774.689,-111.156 847.5,-98 850.386,-97.4785 853.335,-96.9337 856.311,-96.374"/>
<polygon fill="midnightblue" stroke="midnightblue" points="633.293,-129.531 623.93,-134.49 634.341,-136.453 633.293,-129.531"/>
</g>
<!-- Node19 -->
<g id="node10" class="node"><title>Node19</title>
<g id="a_node10"><a xlink:href="x4m0x__s70_2xtio__gpio_8c.xhtml" target="_top" xlink:title="Implementation of GPIO functions for X4M0x boards with Atmel SAM S70 MCU. ">
<polygon fill="white" stroke="black" points="1000.5,-67.5 1000.5,-97.5 1126.5,-97.5 1126.5,-67.5 1000.5,-67.5"/>
<text text-anchor="start" x="1008.5" y="-85.5" font-family="Helvetica,sans-Serif" font-size="10.00">src/hal/x4m0x_s70/xtio</text>
<text text-anchor="middle" x="1063.5" y="-74.5" font-family="Helvetica,sans-Serif" font-size="10.00">_gpio.c</text>
</a>
</g>
</g>
<!-- Node7&#45;&gt;Node19 -->
<g id="edge11" class="edge"><title>Node7&#45;&gt;Node19</title>
<path fill="none" stroke="midnightblue" d="M649.93,-136.481C735.84,-129.226 873.453,-116.096 991.5,-98 994.399,-97.5556 997.358,-97.0741 1000.34,-96.5656"/>
<polygon fill="midnightblue" stroke="midnightblue" points="649.387,-133.014 639.714,-137.336 649.971,-139.989 649.387,-133.014"/>
</g>
<!-- Node20 -->
<g id="node11" class="node"><title>Node20</title>
<g id="a_node11"><a xlink:href="xtio__led_8c.xhtml" target="_top" xlink:title="Implementation of GPIO functions for X4M0x boards with Atmel SAM S70 MCU. ">
<polygon fill="white" stroke="black" points="1144.5,-67.5 1144.5,-97.5 1270.5,-97.5 1270.5,-67.5 1144.5,-67.5"/>
<text text-anchor="start" x="1152.5" y="-85.5" font-family="Helvetica,sans-Serif" font-size="10.00">src/hal/x4m0x_s70/xtio</text>
<text text-anchor="middle" x="1207.5" y="-74.5" font-family="Helvetica,sans-Serif" font-size="10.00">_led.c</text>
</a>
</g>
</g>
<!-- Node7&#45;&gt;Node20 -->
<g id="edge12" class="edge"><title>Node7&#45;&gt;Node20</title>
<path fill="none" stroke="midnightblue" d="M649.696,-139.546C760.841,-134.219 963.72,-122.002 1135.5,-98 1138.4,-97.5942 1141.37,-97.1442 1144.36,-96.6613"/>
<polygon fill="midnightblue" stroke="midnightblue" points="649.382,-136.057 639.558,-140.025 649.712,-143.049 649.382,-136.057"/>
</g>
<!-- Node8&#45;&gt;Node9 -->
<g id="edge2" class="edge"><title>Node8&#45;&gt;Node9</title>
<path fill="none" stroke="midnightblue" d="M124.245,-66.2371C110.639,-55.4518 92.537,-41.1025 79.2738,-30.589"/>
<polygon fill="midnightblue" stroke="midnightblue" points="122.43,-69.2647 132.441,-72.7338 126.779,-63.779 122.43,-69.2647"/>
</g>
<!-- Node8&#45;&gt;Node10 -->
<g id="edge3" class="edge"><title>Node8&#45;&gt;Node10</title>
<path fill="none" stroke="midnightblue" d="M162.52,-66.2371C175.96,-55.4518 193.842,-41.1025 206.943,-30.589"/>
<polygon fill="midnightblue" stroke="midnightblue" points="160.033,-63.7453 154.424,-72.7338 164.414,-69.2048 160.033,-63.7453"/>
</g>
</g>
</svg>
