<?xml version="1.0" encoding="UTF-8" standalone="no"?>
<!DOCTYPE svg PUBLIC "-//W3C//DTD SVG 1.1//EN"
 "http://www.w3.org/Graphics/SVG/1.1/DTD/svg11.dtd">
<!-- Generated by graphviz version 2.38.0 (20140413.2041)
 -->
<!-- Title: src/hal/x4m0x_s70/conf_usb.h Pages: 1 -->
<svg width="298pt" height="106pt"
 viewBox="0.00 0.00 298.00 106.00" xmlns="http://www.w3.org/2000/svg" xmlns:xlink="http://www.w3.org/1999/xlink">
<g id="graph0" class="graph" transform="scale(1 1) rotate(0) translate(4 102)">
<title>src/hal/x4m0x_s70/conf_usb.h</title>
<polygon fill="white" stroke="none" points="-4,4 -4,-102 294,-102 294,4 -4,4"/>
<!-- Node10 -->
<g id="node1" class="node"><title>Node10</title>
<polygon fill="#bfbfbf" stroke="black" points="81,-67.5 81,-97.5 210,-97.5 210,-67.5 81,-67.5"/>
<text text-anchor="start" x="89" y="-85.5" font-family="Helvetica,sans-Serif" font-size="10.00">src/hal/x4m0x_s70/conf</text>
<text text-anchor="middle" x="145.5" y="-74.5" font-family="Helvetica,sans-Serif" font-size="10.00">_usb.h</text>
</g>
<!-- Node11 -->
<g id="node2" class="node"><title>Node11</title>
<g id="a_node2"><a xlink:href="usbhs__device_8c.xhtml" target="_top" xlink:title="USB Device Driver for USBHS. ">
<polygon fill="white" stroke="black" points="0,-0.5 0,-30.5 137,-30.5 137,-0.5 0,-0.5"/>
<text text-anchor="start" x="8" y="-18.5" font-family="Helvetica,sans-Serif" font-size="10.00">src/hal/x4m0x_s70/usbhs</text>
<text text-anchor="middle" x="68.5" y="-7.5" font-family="Helvetica,sans-Serif" font-size="10.00">_device.c</text>
</a>
</g>
</g>
<!-- Node10&#45;&gt;Node11 -->
<g id="edge1" class="edge"><title>Node10&#45;&gt;Node11</title>
<path fill="none" stroke="midnightblue" d="M121.077,-60.8832C109.376,-51.0054 95.6624,-39.4293 85.1752,-30.5765"/>
<polygon fill="midnightblue" stroke="midnightblue" points="118.893,-63.6199 128.792,-67.396 123.408,-58.2709 118.893,-63.6199"/>
</g>
<!-- Node12 -->
<g id="node3" class="node"><title>Node12</title>
<g id="a_node3"><a xlink:href="xep__application__mcp__callbacks_8c.xhtml" target="_top" xlink:title="src/XEPA/xep_application\l_mcp_callbacks.c">
<polygon fill="white" stroke="black" points="155,-0.5 155,-30.5 290,-30.5 290,-0.5 155,-0.5"/>
<text text-anchor="start" x="163" y="-18.5" font-family="Helvetica,sans-Serif" font-size="10.00">src/XEPA/xep_application</text>
<text text-anchor="middle" x="222.5" y="-7.5" font-family="Helvetica,sans-Serif" font-size="10.00">_mcp_callbacks.c</text>
</a>
</g>
</g>
<!-- Node10&#45;&gt;Node12 -->
<g id="edge2" class="edge"><title>Node10&#45;&gt;Node12</title>
<path fill="none" stroke="midnightblue" d="M169.923,-60.8832C181.624,-51.0054 195.338,-39.4293 205.825,-30.5765"/>
<polygon fill="midnightblue" stroke="midnightblue" points="167.592,-58.2709 162.208,-67.396 172.107,-63.6199 167.592,-58.2709"/>
</g>
</g>
</svg>
