<?xml version="1.0" encoding="UTF-8" standalone="no"?>
<!DOCTYPE svg PUBLIC "-//W3C//DTD SVG 1.1//EN"
 "http://www.w3.org/Graphics/SVG/1.1/DTD/svg11.dtd">
<!-- Generated by graphviz version 2.38.0 (20140413.2041)
 -->
<!-- Title: src/hal/x4m0x_s70/conf_board.h Pages: 1 -->
<svg width="196pt" height="162pt"
 viewBox="0.00 0.00 195.50 162.00" xmlns="http://www.w3.org/2000/svg" xmlns:xlink="http://www.w3.org/1999/xlink">
<g id="graph0" class="graph" transform="scale(1 1) rotate(0) translate(4 158)">
<title>src/hal/x4m0x_s70/conf_board.h</title>
<polygon fill="white" stroke="none" points="-4,4 -4,-158 191.5,-158 191.5,4 -4,4"/>
<!-- Node1 -->
<g id="node1" class="node"><title>Node1</title>
<polygon fill="#bfbfbf" stroke="black" points="58.5,-123.5 58.5,-153.5 187.5,-153.5 187.5,-123.5 58.5,-123.5"/>
<text text-anchor="start" x="66.5" y="-141.5" font-family="Helvetica,sans-Serif" font-size="10.00">src/hal/x4m0x_s70/conf</text>
<text text-anchor="middle" x="123" y="-130.5" font-family="Helvetica,sans-Serif" font-size="10.00">_board.h</text>
</g>
<!-- Node2 -->
<g id="node2" class="node"><title>Node2</title>
<g id="a_node2"><a xlink:href="board_8h.xhtml" target="_top" xlink:title="User board definition template. ">
<polygon fill="white" stroke="red" points="0,-67.5 0,-86.5 146,-86.5 146,-67.5 0,-67.5"/>
<text text-anchor="middle" x="73" y="-74.5" font-family="Helvetica,sans-Serif" font-size="10.00">src/hal/x4m0x_s70/board.h</text>
</a>
</g>
</g>
<!-- Node1&#45;&gt;Node2 -->
<g id="edge1" class="edge"><title>Node1&#45;&gt;Node2</title>
<path fill="none" stroke="midnightblue" d="M104.684,-115.704C96.2235,-105.636 86.6611,-94.2567 80.2754,-86.6578"/>
<polygon fill="midnightblue" stroke="midnightblue" points="102.038,-117.995 111.151,-123.399 107.397,-113.492 102.038,-117.995"/>
</g>
<!-- Node4 -->
<g id="node3" class="node"><title>Node4</title>
<g id="a_node3"><a xlink:href="hal__board__init_8c.xhtml" target="_top" xlink:title="User board initialization template. ">
<polygon fill="white" stroke="black" points="61.5,-0.5 61.5,-30.5 184.5,-30.5 184.5,-0.5 61.5,-0.5"/>
<text text-anchor="start" x="69.5" y="-18.5" font-family="Helvetica,sans-Serif" font-size="10.00">src/hal/x4m0x_s70/hal</text>
<text text-anchor="middle" x="123" y="-7.5" font-family="Helvetica,sans-Serif" font-size="10.00">_board_init.c</text>
</a>
</g>
</g>
<!-- Node1&#45;&gt;Node4 -->
<g id="edge3" class="edge"><title>Node1&#45;&gt;Node4</title>
<path fill="none" stroke="midnightblue" d="M141.214,-114.801C146.767,-106.539 152.154,-96.8093 155,-87 160.918,-66.6038 147.342,-44.5293 136.08,-30.6174"/>
<polygon fill="midnightblue" stroke="midnightblue" points="138.227,-112.961 135.235,-123.125 143.912,-117.045 138.227,-112.961"/>
</g>
<!-- Node2&#45;&gt;Node4 -->
<g id="edge2" class="edge"><title>Node2&#45;&gt;Node4</title>
<path fill="none" stroke="midnightblue" d="M86.6044,-59.8108C94.3037,-50.6486 103.838,-39.3032 111.216,-30.523"/>
<polygon fill="midnightblue" stroke="midnightblue" points="83.9177,-57.5676 80.1638,-67.4751 89.2768,-62.071 83.9177,-57.5676"/>
</g>
</g>
</svg>
