<?xml version="1.0" encoding="UTF-8" standalone="no"?>
<!DOCTYPE svg PUBLIC "-//W3C//DTD SVG 1.1//EN"
 "http://www.w3.org/Graphics/SVG/1.1/DTD/svg11.dtd">
<!-- Generated by graphviz version 2.38.0 (20140413.2041)
 -->
<!-- Title: src Pages: 1 -->
<svg width="344pt" height="348pt"
 viewBox="0.00 0.00 344.04 348.00" xmlns="http://www.w3.org/2000/svg" xmlns:xlink="http://www.w3.org/1999/xlink">
<g id="graph0" class="graph" transform="scale(1 1) rotate(0) translate(4 344)">
<title>src</title>
<polygon fill="white" stroke="none" points="-4,4 -4,-344 340.044,-344 340.044,4 -4,4"/>
<g id="clust1" class="cluster"><title>clusterdir_68267d1309a1af8e8297ef4c3efbcdba</title>
<g id="a_clust1"><a xlink:href="dir_68267d1309a1af8e8297ef4c3efbcdba.xhtml" target="_top">
<polygon fill="#eeeeff" stroke="black" points="8,-64 8,-332 302,-332 302,-64 8,-64"/>
</a>
</g>
</g>
<!-- dir_68267d1309a1af8e8297ef4c3efbcdba -->
<g id="node1" class="node"><title>dir_68267d1309a1af8e8297ef4c3efbcdba</title>
<text text-anchor="middle" x="115" y="-303.5" font-family="Helvetica,sans-Serif" font-size="10.00">src</text>
</g>
<!-- dir_92f2e62c87211f56f43ead1760722699 -->
<g id="node4" class="node"><title>dir_92f2e62c87211f56f43ead1760722699</title>
<g id="a_node4"><a xlink:href="dir_92f2e62c87211f56f43ead1760722699.xhtml" target="_top" xlink:title="HostCom">
<polygon fill="white" stroke="black" points="294,-252 232,-252 232,-216 294,-216 294,-252"/>
<text text-anchor="middle" x="263" y="-231.5" font-family="Helvetica,sans-Serif" font-size="10.00">HostCom</text>
</a>
</g>
</g>
<!-- dir_68267d1309a1af8e8297ef4c3efbcdba&#45;&gt;dir_92f2e62c87211f56f43ead1760722699 -->
<g id="edge5" class="edge"><title>dir_68267d1309a1af8e8297ef4c3efbcdba&#45;&gt;dir_92f2e62c87211f56f43ead1760722699</title>
<path fill="none" stroke="black" d="M142.145,-292.161C164.74,-281.475 197.233,-266.106 222.839,-253.995"/>
<polygon fill="black" stroke="black" points="224.386,-257.135 231.929,-249.696 221.393,-250.807 224.386,-257.135"/>
<g id="a_edge5&#45;headlabel"><a xlink:href="dir_000001_000007.xhtml" target="_top" xlink:title="1">
<text text-anchor="middle" x="222.35" y="-258.739" font-family="Helvetica,sans-Serif" font-size="10.00">1</text>
</a>
</g>
</g>
<!-- dir_ac6ba0d187fcf0f3dc430aa0cf244721 -->
<g id="node5" class="node"><title>dir_ac6ba0d187fcf0f3dc430aa0cf244721</title>
<g id="a_node5"><a xlink:href="dir_ac6ba0d187fcf0f3dc430aa0cf244721.xhtml" target="_top" xlink:title="Radar">
<polygon fill="white" stroke="black" points="142,-252 88,-252 88,-216 142,-216 142,-252"/>
<text text-anchor="middle" x="115" y="-231.5" font-family="Helvetica,sans-Serif" font-size="10.00">Radar</text>
</a>
</g>
</g>
<!-- dir_68267d1309a1af8e8297ef4c3efbcdba&#45;&gt;dir_ac6ba0d187fcf0f3dc430aa0cf244721 -->
<g id="edge6" class="edge"><title>dir_68267d1309a1af8e8297ef4c3efbcdba&#45;&gt;dir_ac6ba0d187fcf0f3dc430aa0cf244721</title>
<path fill="none" stroke="black" d="M115,-287.697C115,-279.983 115,-270.712 115,-262.112"/>
<polygon fill="black" stroke="black" points="118.5,-262.104 115,-252.104 111.5,-262.104 118.5,-262.104"/>
<g id="a_edge6&#45;headlabel"><a xlink:href="dir_000001_000008.xhtml" target="_top" xlink:title="1">
<text text-anchor="middle" x="121.339" y="-263.199" font-family="Helvetica,sans-Serif" font-size="10.00">1</text>
</a>
</g>
</g>
<!-- dir_3d72ae7acc3fa3714915f4b435e4bc99 -->
<g id="node9" class="node"><title>dir_3d72ae7acc3fa3714915f4b435e4bc99</title>
<g id="a_node9"><a xlink:href="dir_3d72ae7acc3fa3714915f4b435e4bc99.xhtml" target="_top" xlink:title="XEPA">
<polygon fill="white" stroke="black" points="70,-252 16,-252 16,-216 70,-216 70,-252"/>
<text text-anchor="middle" x="43" y="-231.5" font-family="Helvetica,sans-Serif" font-size="10.00">XEPA</text>
</a>
</g>
</g>
<!-- dir_68267d1309a1af8e8297ef4c3efbcdba&#45;&gt;dir_3d72ae7acc3fa3714915f4b435e4bc99 -->
<g id="edge4" class="edge"><title>dir_68267d1309a1af8e8297ef4c3efbcdba&#45;&gt;dir_3d72ae7acc3fa3714915f4b435e4bc99</title>
<path fill="none" stroke="black" d="M97.2022,-287.697C88.396,-279.135 77.6179,-268.656 67.9989,-259.304"/>
<polygon fill="black" stroke="black" points="70.2028,-256.566 60.593,-252.104 65.3232,-261.585 70.2028,-256.566"/>
<g id="a_edge4&#45;headlabel"><a xlink:href="dir_000001_000012.xhtml" target="_top" xlink:title="1">
<text text-anchor="middle" x="74.7593" y="-254.536" font-family="Helvetica,sans-Serif" font-size="10.00">1</text>
</a>
</g>
</g>
<!-- dir_fa065129d71849fdf8127d6268df0818 -->
<g id="node2" class="node"><title>dir_fa065129d71849fdf8127d6268df0818</title>
<g id="a_node2"><a xlink:href="dir_fa065129d71849fdf8127d6268df0818.xhtml" target="_top" xlink:title="Dispatch">
<polygon fill="white" stroke="black" points="221.5,-324 162.5,-324 162.5,-288 221.5,-288 221.5,-324"/>
<text text-anchor="middle" x="192" y="-303.5" font-family="Helvetica,sans-Serif" font-size="10.00">Dispatch</text>
</a>
</g>
</g>
<!-- dir_d44c64559bbebec7f509842c48db8b23 -->
<g id="node10" class="node"><title>dir_d44c64559bbebec7f509842c48db8b23</title>
<g id="a_node10"><a xlink:href="dir_d44c64559bbebec7f509842c48db8b23.xhtml" target="_top" xlink:title="include">
<polygon fill="none" stroke="black" points="248,-36 194,-36 194,-0 248,-0 248,-36"/>
<text text-anchor="middle" x="221" y="-15.5" font-family="Helvetica,sans-Serif" font-size="10.00">include</text>
</a>
</g>
</g>
<!-- dir_fa065129d71849fdf8127d6268df0818&#45;&gt;dir_d44c64559bbebec7f509842c48db8b23 -->
<g id="edge7" class="edge"><title>dir_fa065129d71849fdf8127d6268df0818&#45;&gt;dir_d44c64559bbebec7f509842c48db8b23</title>
<path fill="none" stroke="black" d="M221.77,-291.733C253.831,-277.304 300.615,-255.782 303,-252 346.394,-183.194 280.455,-88.4247 243.387,-43.9482"/>
<polygon fill="black" stroke="black" points="245.98,-41.5948 236.834,-36.2464 240.649,-46.1308 245.98,-41.5948"/>
<g id="a_edge7&#45;headlabel"><a xlink:href="dir_000002_000000.xhtml" target="_top" xlink:title="5">
<text text-anchor="middle" x="250.472" y="-39.9928" font-family="Helvetica,sans-Serif" font-size="10.00">5</text>
</a>
</g>
</g>
<!-- dir_4ce6a7f885e2866a554ba9e7335035f1 -->
<g id="node3" class="node"><title>dir_4ce6a7f885e2866a554ba9e7335035f1</title>
<g id="a_node3"><a xlink:href="dir_4ce6a7f885e2866a554ba9e7335035f1.xhtml" target="_top" xlink:title="hal">
<polygon fill="white" stroke="red" points="136,-180 82,-180 82,-144 136,-144 136,-180"/>
<text text-anchor="middle" x="109" y="-159.5" font-family="Helvetica,sans-Serif" font-size="10.00">hal</text>
</a>
</g>
</g>
<!-- dir_ef68f1e1f5148ff8ef7fb1c955106c3c -->
<g id="node6" class="node"><title>dir_ef68f1e1f5148ff8ef7fb1c955106c3c</title>
<g id="a_node6"><a xlink:href="dir_ef68f1e1f5148ff8ef7fb1c955106c3c.xhtml" target="_top" xlink:title="System">
<polygon fill="white" stroke="black" points="92,-108 38,-108 38,-72 92,-72 92,-108"/>
<text text-anchor="middle" x="65" y="-87.5" font-family="Helvetica,sans-Serif" font-size="10.00">System</text>
</a>
</g>
</g>
<!-- dir_4ce6a7f885e2866a554ba9e7335035f1&#45;&gt;dir_ef68f1e1f5148ff8ef7fb1c955106c3c -->
<g id="edge8" class="edge"><title>dir_4ce6a7f885e2866a554ba9e7335035f1&#45;&gt;dir_ef68f1e1f5148ff8ef7fb1c955106c3c</title>
<path fill="none" stroke="black" d="M98.1236,-143.697C93.0084,-135.559 86.8045,-125.689 81.1551,-116.701"/>
<polygon fill="black" stroke="black" points="84.0363,-114.708 75.7513,-108.104 78.1098,-118.433 84.0363,-114.708"/>
<g id="a_edge8&#45;headlabel"><a xlink:href="dir_000003_000009.xhtml" target="_top" xlink:title="1">
<text text-anchor="middle" x="88.353" y="-113.74" font-family="Helvetica,sans-Serif" font-size="10.00">1</text>
</a>
</g>
</g>
<!-- dir_4ce6a7f885e2866a554ba9e7335035f1&#45;&gt;dir_d44c64559bbebec7f509842c48db8b23 -->
<g id="edge9" class="edge"><title>dir_4ce6a7f885e2866a554ba9e7335035f1&#45;&gt;dir_d44c64559bbebec7f509842c48db8b23</title>
<path fill="none" stroke="black" d="M112.874,-143.909C118.286,-123.12 129.79,-87.8533 150,-64 159.565,-52.7106 172.691,-43.3049 185.056,-36.0618"/>
<polygon fill="black" stroke="black" points="186.818,-39.0866 193.864,-31.1738 183.422,-32.966 186.818,-39.0866"/>
<g id="a_edge9&#45;headlabel"><a xlink:href="dir_000003_000000.xhtml" target="_top" xlink:title="17">
<text text-anchor="middle" x="185.053" y="-40.8134" font-family="Helvetica,sans-Serif" font-size="10.00">17</text>
</a>
</g>
</g>
<!-- dir_92f2e62c87211f56f43ead1760722699&#45;&gt;dir_d44c64559bbebec7f509842c48db8b23 -->
<g id="edge14" class="edge"><title>dir_92f2e62c87211f56f43ead1760722699&#45;&gt;dir_d44c64559bbebec7f509842c48db8b23</title>
<path fill="none" stroke="black" d="M262.166,-215.913C260.334,-185.071 254.865,-118.261 240,-64 238.335,-57.922 236.036,-51.5808 233.61,-45.6413"/>
<polygon fill="black" stroke="black" points="236.684,-43.93 229.5,-36.1424 230.259,-46.71 236.684,-43.93"/>
<g id="a_edge14&#45;headlabel"><a xlink:href="dir_000007_000000.xhtml" target="_top" xlink:title="4">
<text text-anchor="middle" x="240.717" y="-43.6015" font-family="Helvetica,sans-Serif" font-size="10.00">4</text>
</a>
</g>
</g>
<!-- dir_ac6ba0d187fcf0f3dc430aa0cf244721&#45;&gt;dir_4ce6a7f885e2866a554ba9e7335035f1 -->
<g id="edge16" class="edge"><title>dir_ac6ba0d187fcf0f3dc430aa0cf244721&#45;&gt;dir_4ce6a7f885e2866a554ba9e7335035f1</title>
<path fill="none" stroke="black" d="M113.517,-215.697C112.856,-207.983 112.061,-198.712 111.324,-190.112"/>
<polygon fill="black" stroke="black" points="114.807,-189.769 110.466,-180.104 107.833,-190.367 114.807,-189.769"/>
<g id="a_edge16&#45;headlabel"><a xlink:href="dir_000008_000003.xhtml" target="_top" xlink:title="1">
<text text-anchor="middle" x="117.943" y="-190.608" font-family="Helvetica,sans-Serif" font-size="10.00">1</text>
</a>
</g>
</g>
<!-- dir_ac6ba0d187fcf0f3dc430aa0cf244721&#45;&gt;dir_ef68f1e1f5148ff8ef7fb1c955106c3c -->
<g id="edge15" class="edge"><title>dir_ac6ba0d187fcf0f3dc430aa0cf244721&#45;&gt;dir_ef68f1e1f5148ff8ef7fb1c955106c3c</title>
<path fill="none" stroke="black" d="M96.8901,-215.572C88.0989,-205.962 78.3112,-193.302 73,-180 65.1503,-160.34 63.3958,-136.353 63.469,-118.237"/>
<polygon fill="black" stroke="black" points="66.9719,-118.144 63.7016,-108.067 59.9737,-117.984 66.9719,-118.144"/>
<g id="a_edge15&#45;headlabel"><a xlink:href="dir_000008_000009.xhtml" target="_top" xlink:title="1">
<text text-anchor="middle" x="69.7283" y="-119.303" font-family="Helvetica,sans-Serif" font-size="10.00">1</text>
</a>
</g>
</g>
<!-- dir_ac6ba0d187fcf0f3dc430aa0cf244721&#45;&gt;dir_d44c64559bbebec7f509842c48db8b23 -->
<g id="edge17" class="edge"><title>dir_ac6ba0d187fcf0f3dc430aa0cf244721&#45;&gt;dir_d44c64559bbebec7f509842c48db8b23</title>
<path fill="none" stroke="black" d="M142.297,-215.81C154.861,-206.607 168.953,-194.234 178,-180 204.607,-138.139 214.862,-80.1374 218.734,-46.3892"/>
<polygon fill="black" stroke="black" points="222.226,-46.6438 219.779,-36.3354 215.264,-45.9198 222.226,-46.6438"/>
<g id="a_edge17&#45;headlabel"><a xlink:href="dir_000008_000000.xhtml" target="_top" xlink:title="5">
<text text-anchor="middle" x="224.678" y="-48.0127" font-family="Helvetica,sans-Serif" font-size="10.00">5</text>
</a>
</g>
</g>
<!-- dir_ef68f1e1f5148ff8ef7fb1c955106c3c&#45;&gt;dir_d44c64559bbebec7f509842c48db8b23 -->
<g id="edge3" class="edge"><title>dir_ef68f1e1f5148ff8ef7fb1c955106c3c&#45;&gt;dir_d44c64559bbebec7f509842c48db8b23</title>
<path fill="none" stroke="black" d="M92.327,-73.1232C98.0958,-69.9687 104.195,-66.7764 110,-64 134.239,-52.4069 162.287,-41.0527 184.124,-32.6496"/>
<polygon fill="black" stroke="black" points="185.587,-35.838 193.685,-29.0062 183.094,-29.2969 185.587,-35.838"/>
<g id="a_edge3&#45;headlabel"><a xlink:href="dir_000009_000000.xhtml" target="_top" xlink:title="3">
<text text-anchor="middle" x="183.239" y="-37.2711" font-family="Helvetica,sans-Serif" font-size="10.00">3</text>
</a>
</g>
</g>
<!-- dir_b90d73d79b67ccd72c2aaf78972ad885 -->
<g id="node7" class="node"><title>dir_b90d73d79b67ccd72c2aaf78972ad885</title>
<g id="a_node7"><a xlink:href="dir_b90d73d79b67ccd72c2aaf78972ad885.xhtml" target="_top" xlink:title="Tools">
<polygon fill="white" stroke="black" points="214,-252 160,-252 160,-216 214,-216 214,-252"/>
<text text-anchor="middle" x="187" y="-231.5" font-family="Helvetica,sans-Serif" font-size="10.00">Tools</text>
</a>
</g>
</g>
<!-- dir_b90d73d79b67ccd72c2aaf78972ad885&#45;&gt;dir_4ce6a7f885e2866a554ba9e7335035f1 -->
<g id="edge1" class="edge"><title>dir_b90d73d79b67ccd72c2aaf78972ad885&#45;&gt;dir_4ce6a7f885e2866a554ba9e7335035f1</title>
<path fill="none" stroke="black" d="M167.719,-215.697C158.085,-207.05 146.271,-196.449 135.773,-187.027"/>
<polygon fill="black" stroke="black" points="137.839,-184.179 128.059,-180.104 133.164,-189.388 137.839,-184.179"/>
<g id="a_edge1&#45;headlabel"><a xlink:href="dir_000010_000003.xhtml" target="_top" xlink:title="4">
<text text-anchor="middle" x="142.411" y="-181.966" font-family="Helvetica,sans-Serif" font-size="10.00">4</text>
</a>
</g>
</g>
<!-- dir_b90d73d79b67ccd72c2aaf78972ad885&#45;&gt;dir_d44c64559bbebec7f509842c48db8b23 -->
<g id="edge2" class="edge"><title>dir_b90d73d79b67ccd72c2aaf78972ad885&#45;&gt;dir_d44c64559bbebec7f509842c48db8b23</title>
<path fill="none" stroke="black" d="M199.154,-215.744C205.448,-205.79 212.528,-192.752 216,-180 228.41,-134.425 226.621,-78.9029 223.967,-46.3995"/>
<polygon fill="black" stroke="black" points="227.441,-45.9503 223.053,-36.3067 220.469,-46.5816 227.441,-45.9503"/>
<g id="a_edge2&#45;headlabel"><a xlink:href="dir_000010_000000.xhtml" target="_top" xlink:title="3">
<text text-anchor="middle" x="230.592" y="-46.7742" font-family="Helvetica,sans-Serif" font-size="10.00">3</text>
</a>
</g>
</g>
<!-- dir_aec8c13e7ead484780e4df3176b5da50 -->
<g id="node8" class="node"><title>dir_aec8c13e7ead484780e4df3176b5da50</title>
<g id="a_node8"><a xlink:href="dir_aec8c13e7ead484780e4df3176b5da50.xhtml" target="_top" xlink:title="XDriver">
<polygon fill="white" stroke="black" points="294,-324 240,-324 240,-288 294,-288 294,-324"/>
<text text-anchor="middle" x="267" y="-303.5" font-family="Helvetica,sans-Serif" font-size="10.00">XDriver</text>
</a>
</g>
</g>
<!-- dir_aec8c13e7ead484780e4df3176b5da50&#45;&gt;dir_d44c64559bbebec7f509842c48db8b23 -->
<g id="edge13" class="edge"><title>dir_aec8c13e7ead484780e4df3176b5da50&#45;&gt;dir_d44c64559bbebec7f509842c48db8b23</title>
<path fill="none" stroke="black" d="M293.491,-287.872C305.128,-278.762 317.585,-266.45 324,-252 343.478,-208.127 335.073,-190.933 325,-144 316.818,-105.878 314.253,-93.707 289,-64 280.174,-53.6167 268.37,-44.6792 257.076,-37.5684"/>
<polygon fill="black" stroke="black" points="258.575,-34.3868 248.195,-32.2647 254.986,-40.3968 258.575,-34.3868"/>
<g id="a_edge13&#45;headlabel"><a xlink:href="dir_000011_000000.xhtml" target="_top" xlink:title="2">
<text text-anchor="middle" x="263.117" y="-31.2921" font-family="Helvetica,sans-Serif" font-size="10.00">2</text>
</a>
</g>
</g>
<!-- dir_3d72ae7acc3fa3714915f4b435e4bc99&#45;&gt;dir_4ce6a7f885e2866a554ba9e7335035f1 -->
<g id="edge11" class="edge"><title>dir_3d72ae7acc3fa3714915f4b435e4bc99&#45;&gt;dir_4ce6a7f885e2866a554ba9e7335035f1</title>
<path fill="none" stroke="black" d="M59.3146,-215.697C67.307,-207.22 77.0715,-196.864 85.8221,-187.583"/>
<polygon fill="black" stroke="black" points="88.5595,-189.781 92.8731,-180.104 83.4663,-184.979 88.5595,-189.781"/>
<g id="a_edge11&#45;headlabel"><a xlink:href="dir_000012_000003.xhtml" target="_top" xlink:title="1">
<text text-anchor="middle" x="88.1594" y="-191.844" font-family="Helvetica,sans-Serif" font-size="10.00">1</text>
</a>
</g>
</g>
<!-- dir_3d72ae7acc3fa3714915f4b435e4bc99&#45;&gt;dir_ef68f1e1f5148ff8ef7fb1c955106c3c -->
<g id="edge10" class="edge"><title>dir_3d72ae7acc3fa3714915f4b435e4bc99&#45;&gt;dir_ef68f1e1f5148ff8ef7fb1c955106c3c</title>
<path fill="none" stroke="black" d="M45.6537,-215.871C49.4032,-191.67 56.2913,-147.211 60.756,-118.393"/>
<polygon fill="black" stroke="black" points="64.2645,-118.607 62.3369,-108.189 57.347,-117.535 64.2645,-118.607"/>
<g id="a_edge10&#45;headlabel"><a xlink:href="dir_000012_000009.xhtml" target="_top" xlink:title="1">
<text text-anchor="middle" x="66.52" y="-120.094" font-family="Helvetica,sans-Serif" font-size="10.00">1</text>
</a>
</g>
</g>
<!-- dir_3d72ae7acc3fa3714915f4b435e4bc99&#45;&gt;dir_d44c64559bbebec7f509842c48db8b23 -->
<g id="edge12" class="edge"><title>dir_3d72ae7acc3fa3714915f4b435e4bc99&#45;&gt;dir_d44c64559bbebec7f509842c48db8b23</title>
<path fill="none" stroke="black" d="M70.0823,-220.043C98.3214,-206.357 139.274,-185.949 145,-180 164.662,-159.573 195.172,-85.7435 210.886,-45.5393"/>
<polygon fill="black" stroke="black" points="214.196,-46.6843 214.547,-36.0953 207.669,-44.1544 214.196,-46.6843"/>
<g id="a_edge12&#45;headlabel"><a xlink:href="dir_000012_000000.xhtml" target="_top" xlink:title="12">
<text text-anchor="middle" x="215.544" y="-48.5621" font-family="Helvetica,sans-Serif" font-size="10.00">12</text>
</a>
</g>
</g>
</g>
</svg>
