<?xml version="1.0" encoding="UTF-8" standalone="no"?>
<!DOCTYPE svg PUBLIC "-//W3C//DTD SVG 1.1//EN"
 "http://www.w3.org/Graphics/SVG/1.1/DTD/svg11.dtd">
<!-- Generated by graphviz version 2.38.0 (20140413.2041)
 -->
<!-- Title: src/hal/x4m0x_s70 Pages: 1 -->
<svg width="208pt" height="231pt"
 viewBox="0.00 0.00 208.00 231.00" xmlns="http://www.w3.org/2000/svg" xmlns:xlink="http://www.w3.org/1999/xlink">
<g id="graph0" class="graph" transform="scale(1 1) rotate(0) translate(4 227)">
<title>src/hal/x4m0x_s70</title>
<polygon fill="white" stroke="none" points="-4,4 -4,-227 204,-227 204,4 -4,4"/>
<g id="clust1" class="cluster"><title>clusterdir_4ce6a7f885e2866a554ba9e7335035f1</title>
<g id="a_clust1"><a xlink:href="dir_4ce6a7f885e2866a554ba9e7335035f1.xhtml" target="_top" xlink:title="hal">
<polygon fill="#ddddee" stroke="black" points="8,-128 8,-215 192,-215 192,-128 8,-128"/>
<text text-anchor="middle" x="100" y="-203" font-family="Helvetica,sans-Serif" font-size="10.00">hal</text>
</a>
</g>
</g>
<g id="clust2" class="cluster"><title>clusterdir_9dc4d255e566c48428ae1788dff8c9e9</title>
<g id="a_clust2"><a xlink:href="dir_9dc4d255e566c48428ae1788dff8c9e9.xhtml" target="_top">
<polygon fill="#eeeeff" stroke="black" points="16,-136 16,-188 184,-188 184,-136 16,-136"/>
</a>
</g>
</g>
<!-- dir_9dc4d255e566c48428ae1788dff8c9e9 -->
<g id="node1" class="node"><title>dir_9dc4d255e566c48428ae1788dff8c9e9</title>
<text text-anchor="middle" x="140" y="-159.5" font-family="Helvetica,sans-Serif" font-size="10.00">x4m0x_s70</text>
</g>
<!-- dir_ef68f1e1f5148ff8ef7fb1c955106c3c -->
<g id="node3" class="node"><title>dir_ef68f1e1f5148ff8ef7fb1c955106c3c</title>
<g id="a_node3"><a xlink:href="dir_ef68f1e1f5148ff8ef7fb1c955106c3c.xhtml" target="_top" xlink:title="System">
<polygon fill="none" stroke="black" points="140,-108 86,-108 86,-72 140,-72 140,-108"/>
<text text-anchor="middle" x="113" y="-87.5" font-family="Helvetica,sans-Serif" font-size="10.00">System</text>
</a>
</g>
</g>
<!-- dir_9dc4d255e566c48428ae1788dff8c9e9&#45;&gt;dir_ef68f1e1f5148ff8ef7fb1c955106c3c -->
<g id="edge2" class="edge"><title>dir_9dc4d255e566c48428ae1788dff8c9e9&#45;&gt;dir_ef68f1e1f5148ff8ef7fb1c955106c3c</title>
<path fill="none" stroke="black" d="M133.326,-143.697C130.285,-135.813 126.617,-126.304 123.239,-117.546"/>
<polygon fill="black" stroke="black" points="126.462,-116.175 119.597,-108.104 119.931,-118.694 126.462,-116.175"/>
<g id="a_edge2&#45;headlabel"><a xlink:href="dir_000005_000009.xhtml" target="_top" xlink:title="1">
<text text-anchor="middle" x="130.404" y="-116.007" font-family="Helvetica,sans-Serif" font-size="10.00">1</text>
</a>
</g>
</g>
<!-- dir_d44c64559bbebec7f509842c48db8b23 -->
<g id="node4" class="node"><title>dir_d44c64559bbebec7f509842c48db8b23</title>
<g id="a_node4"><a xlink:href="dir_d44c64559bbebec7f509842c48db8b23.xhtml" target="_top" xlink:title="include">
<polygon fill="none" stroke="black" points="167,-36 113,-36 113,-0 167,-0 167,-36"/>
<text text-anchor="middle" x="140" y="-15.5" font-family="Helvetica,sans-Serif" font-size="10.00">include</text>
</a>
</g>
</g>
<!-- dir_9dc4d255e566c48428ae1788dff8c9e9&#45;&gt;dir_d44c64559bbebec7f509842c48db8b23 -->
<g id="edge3" class="edge"><title>dir_9dc4d255e566c48428ae1788dff8c9e9&#45;&gt;dir_d44c64559bbebec7f509842c48db8b23</title>
<path fill="none" stroke="black" d="M143.654,-143.908C145.676,-133.569 147.981,-120.09 149,-108 150.344,-92.0566 150.344,-87.9434 149,-72 148.283,-63.4991 146.931,-54.3119 145.488,-46.0122"/>
<polygon fill="black" stroke="black" points="148.914,-45.2892 143.654,-36.0925 142.031,-46.5623 148.914,-45.2892"/>
<g id="a_edge3&#45;headlabel"><a xlink:href="dir_000005_000000.xhtml" target="_top" xlink:title="15">
<text text-anchor="middle" x="152.36" y="-45.8075" font-family="Helvetica,sans-Serif" font-size="10.00">15</text>
</a>
</g>
</g>
<!-- dir_8cb1f367fa8e9c71313148ce68981c88 -->
<g id="node2" class="node"><title>dir_8cb1f367fa8e9c71313148ce68981c88</title>
<g id="a_node2"><a xlink:href="dir_8cb1f367fa8e9c71313148ce68981c88.xhtml" target="_top" xlink:title="FreeRTOS">
<polygon fill="white" stroke="black" points="86,-180 24,-180 24,-144 86,-144 86,-180"/>
<text text-anchor="middle" x="55" y="-159.5" font-family="Helvetica,sans-Serif" font-size="10.00">FreeRTOS</text>
</a>
</g>
</g>
<!-- dir_ef68f1e1f5148ff8ef7fb1c955106c3c&#45;&gt;dir_d44c64559bbebec7f509842c48db8b23 -->
<g id="edge1" class="edge"><title>dir_ef68f1e1f5148ff8ef7fb1c955106c3c&#45;&gt;dir_d44c64559bbebec7f509842c48db8b23</title>
<path fill="none" stroke="black" d="M119.674,-71.6966C122.715,-63.8132 126.383,-54.3042 129.761,-45.5464"/>
<polygon fill="black" stroke="black" points="133.069,-46.6939 133.403,-36.1043 126.538,-44.1748 133.069,-46.6939"/>
<g id="a_edge1&#45;headlabel"><a xlink:href="dir_000009_000000.xhtml" target="_top" xlink:title="3">
<text text-anchor="middle" x="134.425" y="-48.5695" font-family="Helvetica,sans-Serif" font-size="10.00">3</text>
</a>
</g>
</g>
</g>
</svg>
