<?xml version="1.0" encoding="UTF-8" standalone="no"?>
<!DOCTYPE svg PUBLIC "-//W3C//DTD SVG 1.1//EN"
 "http://www.w3.org/Graphics/SVG/1.1/DTD/svg11.dtd">
<!-- Generated by graphviz version 2.38.0 (20140413.2041)
 -->
<!-- Title: src/hal Pages: 1 -->
<svg width="200pt" height="303pt"
 viewBox="0.00 0.00 200.00 303.00" xmlns="http://www.w3.org/2000/svg" xmlns:xlink="http://www.w3.org/1999/xlink">
<g id="graph0" class="graph" transform="scale(1 1) rotate(0) translate(4 299)">
<title>src/hal</title>
<polygon fill="white" stroke="none" points="-4,4 -4,-299 196,-299 196,4 -4,4"/>
<g id="clust1" class="cluster"><title>clusterdir_68267d1309a1af8e8297ef4c3efbcdba</title>
<g id="a_clust1"><a xlink:href="dir_68267d1309a1af8e8297ef4c3efbcdba.xhtml" target="_top" xlink:title="src">
<polygon fill="#ddddee" stroke="black" points="8,-128 8,-287 184,-287 184,-128 8,-128"/>
<text text-anchor="middle" x="96" y="-275" font-family="Helvetica,sans-Serif" font-size="10.00">src</text>
</a>
</g>
</g>
<g id="clust2" class="cluster"><title>clusterdir_4ce6a7f885e2866a554ba9e7335035f1</title>
<g id="a_clust2"><a xlink:href="dir_4ce6a7f885e2866a554ba9e7335035f1.xhtml" target="_top">
<polygon fill="#eeeeff" stroke="black" points="16,-136 16,-260 176,-260 176,-136 16,-136"/>
</a>
</g>
</g>
<!-- dir_4ce6a7f885e2866a554ba9e7335035f1 -->
<g id="node1" class="node"><title>dir_4ce6a7f885e2866a554ba9e7335035f1</title>
<text text-anchor="middle" x="141" y="-231.5" font-family="Helvetica,sans-Serif" font-size="10.00">hal</text>
</g>
<!-- dir_9dc4d255e566c48428ae1788dff8c9e9 -->
<g id="node3" class="node"><title>dir_9dc4d255e566c48428ae1788dff8c9e9</title>
<g id="a_node3"><a xlink:href="dir_9dc4d255e566c48428ae1788dff8c9e9.xhtml" target="_top" xlink:title="x4m0x_s70">
<polygon fill="white" stroke="red" points="139.5,-180 68.5,-180 68.5,-144 139.5,-144 139.5,-180"/>
<text text-anchor="middle" x="104" y="-159.5" font-family="Helvetica,sans-Serif" font-size="10.00">x4m0x_s70</text>
</a>
</g>
</g>
<!-- dir_4ce6a7f885e2866a554ba9e7335035f1&#45;&gt;dir_9dc4d255e566c48428ae1788dff8c9e9 -->
<g id="edge3" class="edge"><title>dir_4ce6a7f885e2866a554ba9e7335035f1&#45;&gt;dir_9dc4d255e566c48428ae1788dff8c9e9</title>
<path fill="none" stroke="black" d="M131.854,-215.697C127.597,-207.644 122.444,-197.894 117.734,-188.982"/>
<polygon fill="black" stroke="black" points="120.808,-187.31 113.041,-180.104 114.62,-190.581 120.808,-187.31"/>
<g id="a_edge3&#45;headlabel"><a xlink:href="dir_000003_000005.xhtml" target="_top" xlink:title="1">
<text text-anchor="middle" x="124.998" y="-186.661" font-family="Helvetica,sans-Serif" font-size="10.00">1</text>
</a>
</g>
</g>
<!-- dir_d44c64559bbebec7f509842c48db8b23 -->
<g id="node5" class="node"><title>dir_d44c64559bbebec7f509842c48db8b23</title>
<g id="a_node5"><a xlink:href="dir_d44c64559bbebec7f509842c48db8b23.xhtml" target="_top" xlink:title="include">
<polygon fill="none" stroke="black" points="157,-36 103,-36 103,-0 157,-0 157,-36"/>
<text text-anchor="middle" x="130" y="-15.5" font-family="Helvetica,sans-Serif" font-size="10.00">include</text>
</a>
</g>
</g>
<!-- dir_4ce6a7f885e2866a554ba9e7335035f1&#45;&gt;dir_d44c64559bbebec7f509842c48db8b23 -->
<g id="edge2" class="edge"><title>dir_4ce6a7f885e2866a554ba9e7335035f1&#45;&gt;dir_d44c64559bbebec7f509842c48db8b23</title>
<path fill="none" stroke="black" d="M144.248,-215.888C146.046,-205.542 148.095,-192.063 149,-180 150.73,-156.954 150.992,-151.025 149,-128 146.567,-99.8769 140.667,-68.1238 136.081,-46.1752"/>
<polygon fill="black" stroke="black" points="139.472,-45.2932 133.957,-36.2469 132.627,-46.7579 139.472,-45.2932"/>
<g id="a_edge2&#45;headlabel"><a xlink:href="dir_000003_000000.xhtml" target="_top" xlink:title="17">
<text text-anchor="middle" x="143" y="-45.7141" font-family="Helvetica,sans-Serif" font-size="10.00">17</text>
</a>
</g>
</g>
<!-- dir_54771ce2b5f0d50ae267d90a327dfafd -->
<g id="node2" class="node"><title>dir_54771ce2b5f0d50ae267d90a327dfafd</title>
<g id="a_node2"><a xlink:href="dir_54771ce2b5f0d50ae267d90a327dfafd.xhtml" target="_top" xlink:title="x4m0x_g55">
<polygon fill="white" stroke="black" points="96,-252 24,-252 24,-216 96,-216 96,-252"/>
<text text-anchor="middle" x="60" y="-231.5" font-family="Helvetica,sans-Serif" font-size="10.00">x4m0x_g55</text>
</a>
</g>
</g>
<!-- dir_ef68f1e1f5148ff8ef7fb1c955106c3c -->
<g id="node4" class="node"><title>dir_ef68f1e1f5148ff8ef7fb1c955106c3c</title>
<g id="a_node4"><a xlink:href="dir_ef68f1e1f5148ff8ef7fb1c955106c3c.xhtml" target="_top" xlink:title="System">
<polygon fill="none" stroke="black" points="102,-108 48,-108 48,-72 102,-72 102,-108"/>
<text text-anchor="middle" x="75" y="-87.5" font-family="Helvetica,sans-Serif" font-size="10.00">System</text>
</a>
</g>
</g>
<!-- dir_9dc4d255e566c48428ae1788dff8c9e9&#45;&gt;dir_ef68f1e1f5148ff8ef7fb1c955106c3c -->
<g id="edge4" class="edge"><title>dir_9dc4d255e566c48428ae1788dff8c9e9&#45;&gt;dir_ef68f1e1f5148ff8ef7fb1c955106c3c</title>
<path fill="none" stroke="black" d="M96.8315,-143.697C93.5655,-135.813 89.626,-126.304 85.9978,-117.546"/>
<polygon fill="black" stroke="black" points="89.147,-116.003 82.0861,-108.104 82.68,-118.683 89.147,-116.003"/>
<g id="a_edge4&#45;headlabel"><a xlink:href="dir_000005_000009.xhtml" target="_top" xlink:title="1">
<text text-anchor="middle" x="93.1459" y="-115.738" font-family="Helvetica,sans-Serif" font-size="10.00">1</text>
</a>
</g>
</g>
<!-- dir_9dc4d255e566c48428ae1788dff8c9e9&#45;&gt;dir_d44c64559bbebec7f509842c48db8b23 -->
<g id="edge5" class="edge"><title>dir_9dc4d255e566c48428ae1788dff8c9e9&#45;&gt;dir_d44c64559bbebec7f509842c48db8b23</title>
<path fill="none" stroke="black" d="M107.136,-143.871C111.567,-119.67 119.708,-75.2108 124.984,-46.3932"/>
<polygon fill="black" stroke="black" points="128.494,-46.6561 126.853,-36.1893 121.609,-45.3953 128.494,-46.6561"/>
<g id="a_edge5&#45;headlabel"><a xlink:href="dir_000005_000000.xhtml" target="_top" xlink:title="15">
<text text-anchor="middle" x="130.64" y="-48.2033" font-family="Helvetica,sans-Serif" font-size="10.00">15</text>
</a>
</g>
</g>
<!-- dir_ef68f1e1f5148ff8ef7fb1c955106c3c&#45;&gt;dir_d44c64559bbebec7f509842c48db8b23 -->
<g id="edge1" class="edge"><title>dir_ef68f1e1f5148ff8ef7fb1c955106c3c&#45;&gt;dir_d44c64559bbebec7f509842c48db8b23</title>
<path fill="none" stroke="black" d="M88.5955,-71.6966C95.1227,-63.3893 103.068,-53.2771 110.247,-44.1407"/>
<polygon fill="black" stroke="black" points="113.135,-46.1299 116.561,-36.1043 107.631,-41.8051 113.135,-46.1299"/>
<g id="a_edge1&#45;headlabel"><a xlink:href="dir_000009_000000.xhtml" target="_top" xlink:title="3">
<text text-anchor="middle" x="113.147" y="-48.2106" font-family="Helvetica,sans-Serif" font-size="10.00">3</text>
</a>
</g>
</g>
</g>
</svg>
