<?xml version="1.0" encoding="UTF-8" standalone="no"?>
<!DOCTYPE svg PUBLIC "-//W3C//DTD SVG 1.1//EN"
 "http://www.w3.org/Graphics/SVG/1.1/DTD/svg11.dtd">
<!-- Generated by graphviz version 2.38.0 (20140413.2041)
 -->
<!-- Title: udd_enable Pages: 1 -->
<svg width="321pt" height="47pt"
 viewBox="0.00 0.00 321.00 47.00" xmlns="http://www.w3.org/2000/svg" xmlns:xlink="http://www.w3.org/1999/xlink">
<g id="graph0" class="graph" transform="scale(1 1) rotate(0) translate(4 43)">
<title>udd_enable</title>
<polygon fill="white" stroke="none" points="-4,4 -4,-43 317,-43 317,4 -4,4"/>
<!-- Node118 -->
<g id="node1" class="node"><title>Node118</title>
<polygon fill="#bfbfbf" stroke="black" points="0,-0.5 0,-19.5 72,-19.5 72,-0.5 0,-0.5"/>
<text text-anchor="middle" x="36" y="-7.5" font-family="Helvetica,sans-Serif" font-size="10.00">udd_enable</text>
</g>
<!-- Node119 -->
<g id="node2" class="node"><title>Node119</title>
<g id="a_node2"><a xlink:href="group__udd__udphs__group.xhtml#gae37fb8512458fac3dc9d11746e99ffb6" target="_top" xlink:title="Authorize or not the CPU powerdown mode. ">
<polygon fill="white" stroke="red" points="108,-19.5 108,-38.5 206,-38.5 206,-19.5 108,-19.5"/>
<text text-anchor="middle" x="157" y="-26.5" font-family="Helvetica,sans-Serif" font-size="10.00">udd_sleep_mode</text>
</a>
</g>
</g>
<!-- Node118&#45;&gt;Node119 -->
<g id="edge1" class="edge"><title>Node118&#45;&gt;Node119</title>
<path fill="none" stroke="midnightblue" d="M72.0603,-15.5979C80.2295,-16.9022 89.1426,-18.3253 98.011,-19.7413"/>
<polygon fill="midnightblue" stroke="midnightblue" points="97.5358,-23.2096 107.963,-21.3302 98.6395,-16.2972 97.5358,-23.2096"/>
</g>
<!-- Node120 -->
<g id="node3" class="node"><title>Node120</title>
<g id="a_node3"><a xlink:href="group__udd__udphs__group.xhtml#ga7a7c0d9236c922c2af33c6702565a99f" target="_top" xlink:title="udd_attach">
<polygon fill="white" stroke="black" points="242,-19.5 242,-38.5 313,-38.5 313,-19.5 242,-19.5"/>
<text text-anchor="middle" x="277.5" y="-26.5" font-family="Helvetica,sans-Serif" font-size="10.00">udd_attach</text>
</a>
</g>
</g>
<!-- Node118&#45;&gt;Node120 -->
<g id="edge4" class="edge"><title>Node118&#45;&gt;Node120</title>
<path fill="none" stroke="midnightblue" d="M72.1327,-7.32517C106.439,-5.34179 160.043,-3.9158 206,-10 216.666,-11.4121 228.009,-13.9763 238.407,-16.7735"/>
<polygon fill="midnightblue" stroke="midnightblue" points="237.46,-20.1427 248.035,-19.4967 239.365,-13.407 237.46,-20.1427"/>
</g>
<!-- Node119&#45;&gt;Node120 -->
<g id="edge2" class="edge"><title>Node119&#45;&gt;Node120</title>
<path fill="none" stroke="midnightblue" d="M206.198,-22.3555C214.579,-22.1938 223.264,-22.218 231.553,-22.4279"/>
<polygon fill="midnightblue" stroke="midnightblue" points="231.668,-25.9342 241.787,-22.7932 231.918,-18.9386 231.668,-25.9342"/>
</g>
<!-- Node120&#45;&gt;Node119 -->
<g id="edge3" class="edge"><title>Node120&#45;&gt;Node119</title>
<path fill="none" stroke="midnightblue" d="M241.787,-35.2068C233.785,-35.5818 225.058,-35.7626 216.356,-35.7493"/>
<polygon fill="midnightblue" stroke="midnightblue" points="216.234,-32.248 206.198,-35.6445 216.162,-39.2476 216.234,-32.248"/>
</g>
</g>
</svg>
