<?xml version="1.0" encoding="UTF-8" standalone="no"?>
<!DOCTYPE svg PUBLIC "-//W3C//DTD SVG 1.1//EN"
 "http://www.w3.org/Graphics/SVG/1.1/DTD/svg11.dtd">
<!-- Generated by graphviz version 2.38.0 (20140413.2041)
 -->
<!-- Title: if Pages: 1 -->
<svg width="222pt" height="88pt"
 viewBox="0.00 0.00 222.00 88.00" xmlns="http://www.w3.org/2000/svg" xmlns:xlink="http://www.w3.org/1999/xlink">
<g id="graph0" class="graph" transform="scale(1 1) rotate(0) translate(4 84)">
<title>if</title>
<polygon fill="white" stroke="none" points="-4,4 -4,-84 218,-84 218,4 -4,4"/>
<!-- Node1 -->
<g id="node1" class="node"><title>Node1</title>
<polygon fill="#bfbfbf" stroke="black" points="0,-30 0,-49 29,-49 29,-30 0,-30"/>
<text text-anchor="middle" x="14.5" y="-37" font-family="Helvetica,sans-Serif" font-size="10.00">if</text>
</g>
<!-- Node2 -->
<g id="node2" class="node"><title>Node2</title>
<g id="a_node2"><a xlink:href="task__hostcom_8c.xhtml#a3ac02c1c3bd0b84c4488bce13f8fc1d9" target="_top" xlink:title="process_dispatch_message\l_hostcom_send">
<polygon fill="white" stroke="red" points="65,-49.5 65,-79.5 214,-79.5 214,-49.5 65,-49.5"/>
<text text-anchor="start" x="73" y="-67.5" font-family="Helvetica,sans-Serif" font-size="10.00">process_dispatch_message</text>
<text text-anchor="middle" x="139.5" y="-56.5" font-family="Helvetica,sans-Serif" font-size="10.00">_hostcom_send</text>
</a>
</g>
</g>
<!-- Node1&#45;&gt;Node2 -->
<g id="edge1" class="edge"><title>Node1&#45;&gt;Node2</title>
<path fill="none" stroke="midnightblue" d="M38.9492,-44.2661C46.5623,-45.8135 55.4569,-47.6213 64.7399,-49.5081"/>
<polygon fill="midnightblue" stroke="midnightblue" points="39.6299,-40.833 29.1331,-42.271 38.2356,-47.6927 39.6299,-40.833"/>
</g>
<!-- Node7 -->
<g id="node3" class="node"><title>Node7</title>
<g id="a_node3"><a xlink:href="xep__application_8c.xhtml#a038116ea60c2b708d4ab52b0eff00379" target="_top" xlink:title="Process dispatch messages. ">
<polygon fill="white" stroke="black" points="78.5,-0.5 78.5,-30.5 200.5,-30.5 200.5,-0.5 78.5,-0.5"/>
<text text-anchor="start" x="86.5" y="-18.5" font-family="Helvetica,sans-Serif" font-size="10.00">xep_process_dispatch</text>
<text text-anchor="middle" x="139.5" y="-7.5" font-family="Helvetica,sans-Serif" font-size="10.00">_message_default</text>
</a>
</g>
</g>
<!-- Node1&#45;&gt;Node7 -->
<g id="edge2" class="edge"><title>Node1&#45;&gt;Node7</title>
<path fill="none" stroke="midnightblue" d="M38.9995,-34.9147C50.2867,-32.7124 64.3822,-29.962 78.3822,-27.2303"/>
<polygon fill="midnightblue" stroke="midnightblue" points="38.2777,-31.4895 29.1331,-36.8399 39.6183,-38.3599 38.2777,-31.4895"/>
</g>
</g>
</svg>
