<?xml version="1.0" encoding="UTF-8" standalone="no"?>
<!DOCTYPE svg PUBLIC "-//W3C//DTD SVG 1.1//EN"
 "http://www.w3.org/Graphics/SVG/1.1/DTD/svg11.dtd">
<!-- Generated by graphviz version 2.38.0 (20140413.2041)
 -->
<!-- Title: udd_attach Pages: 1 -->
<svg width="213pt" height="28pt"
 viewBox="0.00 0.00 213.00 28.00" xmlns="http://www.w3.org/2000/svg" xmlns:xlink="http://www.w3.org/1999/xlink">
<g id="graph0" class="graph" transform="scale(1 1) rotate(0) translate(4 24)">
<title>udd_attach</title>
<polygon fill="white" stroke="none" points="-4,4 -4,-24 209,-24 209,4 -4,4"/>
<!-- Node22 -->
<g id="node1" class="node"><title>Node22</title>
<polygon fill="#bfbfbf" stroke="black" points="0,-0.5 0,-19.5 71,-19.5 71,-0.5 0,-0.5"/>
<text text-anchor="middle" x="35.5" y="-7.5" font-family="Helvetica,sans-Serif" font-size="10.00">udd_attach</text>
</g>
<!-- Node23 -->
<g id="node2" class="node"><title>Node23</title>
<g id="a_node2"><a xlink:href="group__udd__udphs__group.xhtml#gae37fb8512458fac3dc9d11746e99ffb6" target="_top" xlink:title="Authorize or not the CPU powerdown mode. ">
<polygon fill="white" stroke="red" points="107,-0.5 107,-19.5 205,-19.5 205,-0.5 107,-0.5"/>
<text text-anchor="middle" x="156" y="-7.5" font-family="Helvetica,sans-Serif" font-size="10.00">udd_sleep_mode</text>
</a>
</g>
</g>
<!-- Node22&#45;&gt;Node23 -->
<g id="edge1" class="edge"><title>Node22&#45;&gt;Node23</title>
<path fill="none" stroke="midnightblue" d="M71.0937,-3.79887C79.1462,-3.4192 87.9383,-3.2365 96.7026,-3.25078"/>
<polygon fill="midnightblue" stroke="midnightblue" points="96.8961,-6.7529 106.932,-3.35801 96.9696,0.246715 96.8961,-6.7529"/>
</g>
<!-- Node23&#45;&gt;Node22 -->
<g id="edge2" class="edge"><title>Node23&#45;&gt;Node22</title>
<path fill="none" stroke="midnightblue" d="M106.932,-16.642C98.401,-16.8086 89.5488,-16.7825 81.1182,-16.5636"/>
<polygon fill="midnightblue" stroke="midnightblue" points="81.2136,-13.0649 71.0937,-16.2011 80.9606,-20.0603 81.2136,-13.0649"/>
</g>
</g>
</svg>
