<?xml version="1.0" encoding="UTF-8" standalone="no"?>
<!DOCTYPE svg PUBLIC "-//W3C//DTD SVG 1.1//EN"
 "http://www.w3.org/Graphics/SVG/1.1/DTD/svg11.dtd">
<!-- Generated by graphviz version 2.38.0 (20140413.2041)
 -->
<!-- Title: qspi_set_bits_per_transfer Pages: 1 -->
<svg width="277pt" height="66pt"
 viewBox="0.00 0.00 277.00 66.00" xmlns="http://www.w3.org/2000/svg" xmlns:xlink="http://www.w3.org/1999/xlink">
<g id="graph0" class="graph" transform="scale(1 1) rotate(0) translate(4 62)">
<title>qspi_set_bits_per_transfer</title>
<polygon fill="white" stroke="none" points="-4,4 -4,-62 273,-62 273,4 -4,4"/>
<!-- Node66 -->
<g id="node1" class="node"><title>Node66</title>
<polygon fill="#bfbfbf" stroke="black" points="0,-19.5 0,-38.5 143,-38.5 143,-19.5 0,-19.5"/>
<text text-anchor="middle" x="71.5" y="-26.5" font-family="Helvetica,sans-Serif" font-size="10.00">qspi_set_bits_per_transfer</text>
</g>
<!-- Node67 -->
<g id="node2" class="node"><title>Node67</title>
<g id="a_node2"><a xlink:href="group__sam__drivers__qspi__group.xhtml#gac9b7fe706ebdf86eafc4289eaa82476e" target="_top" xlink:title="Config qspi according the config struct. ">
<polygon fill="white" stroke="red" points="179,-38.5 179,-57.5 269,-57.5 269,-38.5 179,-38.5"/>
<text text-anchor="middle" x="224" y="-45.5" font-family="Helvetica,sans-Serif" font-size="10.00">qspi_set_config</text>
</a>
</g>
</g>
<!-- Node66&#45;&gt;Node67 -->
<g id="edge1" class="edge"><title>Node66&#45;&gt;Node67</title>
<path fill="none" stroke="midnightblue" d="M153.515,-39.2278C162.164,-40.3197 170.71,-41.3986 178.694,-42.4065"/>
<polygon fill="midnightblue" stroke="midnightblue" points="153.703,-35.7238 143.343,-37.9436 152.826,-42.6687 153.703,-35.7238"/>
</g>
<!-- Node69 -->
<g id="node3" class="node"><title>Node69</title>
<g id="a_node3"><a xlink:href="xtio__spi_8c.xhtml#a018ae31f2548c72ebc1eef81cdcb3cc5" target="_top" xlink:title="Initialize the SPI system. ">
<polygon fill="white" stroke="red" points="188,-0.5 188,-19.5 260,-19.5 260,-0.5 188,-0.5"/>
<text text-anchor="middle" x="224" y="-7.5" font-family="Helvetica,sans-Serif" font-size="10.00">xtio_spi_init</text>
</a>
</g>
</g>
<!-- Node66&#45;&gt;Node69 -->
<g id="edge2" class="edge"><title>Node66&#45;&gt;Node69</title>
<path fill="none" stroke="midnightblue" d="M153.458,-18.7794C165.477,-17.262 177.301,-15.7693 187.694,-14.4573"/>
<polygon fill="midnightblue" stroke="midnightblue" points="152.826,-15.3313 143.343,-20.0564 153.703,-22.2762 152.826,-15.3313"/>
</g>
</g>
</svg>
