<?xml version="1.0" encoding="UTF-8" standalone="no"?>
<!DOCTYPE svg PUBLIC "-//W3C//DTD SVG 1.1//EN"
 "http://www.w3.org/Graphics/SVG/1.1/DTD/svg11.dtd">
<!-- Generated by graphviz version 2.38.0 (20140413.2041)
 -->
<!-- Title: udd_ctrl_in_sent Pages: 1 -->
<svg width="263pt" height="104pt"
 viewBox="0.00 0.00 263.00 104.00" xmlns="http://www.w3.org/2000/svg" xmlns:xlink="http://www.w3.org/1999/xlink">
<g id="graph0" class="graph" transform="scale(1 1) rotate(0) translate(4 100)">
<title>udd_ctrl_in_sent</title>
<polygon fill="white" stroke="none" points="-4,4 -4,-100 259,-100 259,4 -4,4"/>
<!-- Node38 -->
<g id="node1" class="node"><title>Node38</title>
<polygon fill="#bfbfbf" stroke="black" points="0,-38.5 0,-57.5 95,-57.5 95,-38.5 0,-38.5"/>
<text text-anchor="middle" x="47.5" y="-45.5" font-family="Helvetica,sans-Serif" font-size="10.00">udd_ctrl_in_sent</text>
</g>
<!-- Node39 -->
<g id="node2" class="node"><title>Node39</title>
<g id="a_node2"><a xlink:href="group__udd__udphs__group.xhtml#ga173a32ad9cb33b2851ff381da157328e" target="_top" xlink:title="Call callback associated to setup request. ">
<polygon fill="white" stroke="black" points="131,-76.5 131,-95.5 255,-95.5 255,-76.5 131,-76.5"/>
<text text-anchor="middle" x="193" y="-83.5" font-family="Helvetica,sans-Serif" font-size="10.00">udd_ctrl_endofrequest</text>
</a>
</g>
</g>
<!-- Node38&#45;&gt;Node39 -->
<g id="edge1" class="edge"><title>Node38&#45;&gt;Node39</title>
<path fill="none" stroke="midnightblue" d="M84.7111,-57.589C103.321,-62.5169 126.197,-68.5749 146.039,-73.8291"/>
<polygon fill="midnightblue" stroke="midnightblue" points="145.238,-77.2375 155.8,-76.4141 147.03,-70.4708 145.238,-77.2375"/>
</g>
<!-- Node40 -->
<g id="node3" class="node"><title>Node40</title>
<g id="a_node3"><a xlink:href="group__udd__udphs__group.xhtml#gab1a4a5ecb3cd996de2d94d5e78d9ea9e" target="_top" xlink:title="Reset control endpoint management. ">
<polygon fill="white" stroke="black" points="156,-38.5 156,-57.5 230,-57.5 230,-38.5 156,-38.5"/>
<text text-anchor="middle" x="193" y="-45.5" font-family="Helvetica,sans-Serif" font-size="10.00">udd_ctrl_init</text>
</a>
</g>
</g>
<!-- Node38&#45;&gt;Node40 -->
<g id="edge2" class="edge"><title>Node38&#45;&gt;Node40</title>
<path fill="none" stroke="midnightblue" d="M95.0903,-48C111.202,-48 129.252,-48 145.367,-48"/>
<polygon fill="midnightblue" stroke="midnightblue" points="145.638,-51.5001 155.638,-48 145.638,-44.5001 145.638,-51.5001"/>
</g>
<!-- Node41 -->
<g id="node4" class="node"><title>Node41</title>
<g id="a_node4"><a xlink:href="group__udd__udphs__group.xhtml#ga3831d9da6e90060fc68e7a0b98e27591" target="_top" xlink:title="Send a ZLP OUT on control endpoint. ">
<polygon fill="white" stroke="black" points="131.5,-0.5 131.5,-19.5 254.5,-19.5 254.5,-0.5 131.5,-0.5"/>
<text text-anchor="middle" x="193" y="-7.5" font-family="Helvetica,sans-Serif" font-size="10.00">udd_ctrl_send_zlp_out</text>
</a>
</g>
</g>
<!-- Node38&#45;&gt;Node41 -->
<g id="edge3" class="edge"><title>Node38&#45;&gt;Node41</title>
<path fill="none" stroke="midnightblue" d="M84.7111,-38.411C103.321,-33.4831 126.197,-27.4251 146.039,-22.1709"/>
<polygon fill="midnightblue" stroke="midnightblue" points="147.03,-25.5292 155.8,-19.5859 145.238,-18.7625 147.03,-25.5292"/>
</g>
</g>
</svg>
