<?xml version="1.0" encoding="UTF-8" standalone="no"?>
<!DOCTYPE svg PUBLIC "-//W3C//DTD SVG 1.1//EN"
 "http://www.w3.org/Graphics/SVG/1.1/DTD/svg11.dtd">
<!-- Generated by graphviz version 2.38.0 (20140413.2041)
 -->
<!-- Title: qspi_set_delay_between_consecutive_transfers Pages: 1 -->
<svg width="267pt" height="66pt"
 viewBox="0.00 0.00 267.00 66.00" xmlns="http://www.w3.org/2000/svg" xmlns:xlink="http://www.w3.org/1999/xlink">
<g id="graph0" class="graph" transform="scale(1 1) rotate(0) translate(4 62)">
<title>qspi_set_delay_between_consecutive_transfers</title>
<polygon fill="white" stroke="none" points="-4,4 -4,-62 263,-62 263,4 -4,4"/>
<!-- Node96 -->
<g id="node1" class="node"><title>Node96</title>
<polygon fill="#bfbfbf" stroke="black" points="0,-14 0,-44 133,-44 133,-14 0,-14"/>
<text text-anchor="start" x="8" y="-32" font-family="Helvetica,sans-Serif" font-size="10.00">qspi_set_delay_between</text>
<text text-anchor="middle" x="66.5" y="-21" font-family="Helvetica,sans-Serif" font-size="10.00">_consecutive_transfers</text>
</g>
<!-- Node97 -->
<g id="node2" class="node"><title>Node97</title>
<g id="a_node2"><a xlink:href="group__sam__drivers__qspi__group.xhtml#gac9b7fe706ebdf86eafc4289eaa82476e" target="_top" xlink:title="Config qspi according the config struct. ">
<polygon fill="white" stroke="red" points="169,-38.5 169,-57.5 259,-57.5 259,-38.5 169,-38.5"/>
<text text-anchor="middle" x="214" y="-45.5" font-family="Helvetica,sans-Serif" font-size="10.00">qspi_set_config</text>
</a>
</g>
</g>
<!-- Node96&#45;&gt;Node97 -->
<g id="edge1" class="edge"><title>Node96&#45;&gt;Node97</title>
<path fill="none" stroke="midnightblue" d="M142.947,-38.8522C151.749,-40.0016 160.498,-41.1441 168.678,-42.2123"/>
<polygon fill="midnightblue" stroke="midnightblue" points="143.383,-35.3795 133.014,-37.5551 142.477,-42.3206 143.383,-35.3795"/>
</g>
<!-- Node99 -->
<g id="node3" class="node"><title>Node99</title>
<g id="a_node3"><a xlink:href="xtio__spi_8c.xhtml#a018ae31f2548c72ebc1eef81cdcb3cc5" target="_top" xlink:title="Initialize the SPI system. ">
<polygon fill="white" stroke="red" points="178,-0.5 178,-19.5 250,-19.5 250,-0.5 178,-0.5"/>
<text text-anchor="middle" x="214" y="-7.5" font-family="Helvetica,sans-Serif" font-size="10.00">xtio_spi_init</text>
</a>
</g>
</g>
<!-- Node96&#45;&gt;Node99 -->
<g id="edge2" class="edge"><title>Node96&#45;&gt;Node99</title>
<path fill="none" stroke="midnightblue" d="M143.145,-19.1219C155.212,-17.5462 167.171,-15.9845 177.694,-14.6104"/>
<polygon fill="midnightblue" stroke="midnightblue" points="142.477,-15.6794 133.014,-20.4449 143.383,-22.6205 142.477,-15.6794"/>
</g>
</g>
</svg>
