<?xml version="1.0" encoding="UTF-8" standalone="no"?>
<!DOCTYPE svg PUBLIC "-//W3C//DTD SVG 1.1//EN"
 "http://www.w3.org/Graphics/SVG/1.1/DTD/svg11.dtd">
<!-- Generated by graphviz version 2.38.0 (20140413.2041)
 -->
<!-- Title: qspi_set_chip_select_mode Pages: 1 -->
<svg width="282pt" height="66pt"
 viewBox="0.00 0.00 282.00 66.00" xmlns="http://www.w3.org/2000/svg" xmlns:xlink="http://www.w3.org/1999/xlink">
<g id="graph0" class="graph" transform="scale(1 1) rotate(0) translate(4 62)">
<title>qspi_set_chip_select_mode</title>
<polygon fill="white" stroke="none" points="-4,4 -4,-62 278,-62 278,4 -4,4"/>
<!-- Node75 -->
<g id="node1" class="node"><title>Node75</title>
<polygon fill="#bfbfbf" stroke="black" points="0,-19.5 0,-38.5 148,-38.5 148,-19.5 0,-19.5"/>
<text text-anchor="middle" x="74" y="-26.5" font-family="Helvetica,sans-Serif" font-size="10.00">qspi_set_chip_select_mode</text>
</g>
<!-- Node76 -->
<g id="node2" class="node"><title>Node76</title>
<g id="a_node2"><a xlink:href="group__sam__drivers__qspi__group.xhtml#gac9b7fe706ebdf86eafc4289eaa82476e" target="_top" xlink:title="Config qspi according the config struct. ">
<polygon fill="white" stroke="red" points="184,-38.5 184,-57.5 274,-57.5 274,-38.5 184,-38.5"/>
<text text-anchor="middle" x="229" y="-45.5" font-family="Helvetica,sans-Serif" font-size="10.00">qspi_set_config</text>
</a>
</g>
</g>
<!-- Node75&#45;&gt;Node76 -->
<g id="edge1" class="edge"><title>Node75&#45;&gt;Node76</title>
<path fill="none" stroke="midnightblue" d="M158.302,-39.3447C167.081,-40.4349 175.741,-41.5103 183.812,-42.5126"/>
<polygon fill="midnightblue" stroke="midnightblue" points="158.718,-35.8696 148.363,-38.1104 157.856,-42.8162 158.718,-35.8696"/>
</g>
<!-- Node78 -->
<g id="node3" class="node"><title>Node78</title>
<g id="a_node3"><a xlink:href="xtio__spi_8c.xhtml#a018ae31f2548c72ebc1eef81cdcb3cc5" target="_top" xlink:title="Initialize the SPI system. ">
<polygon fill="white" stroke="red" points="193,-0.5 193,-19.5 265,-19.5 265,-0.5 193,-0.5"/>
<text text-anchor="middle" x="229" y="-7.5" font-family="Helvetica,sans-Serif" font-size="10.00">xtio_spi_init</text>
</a>
</g>
</g>
<!-- Node75&#45;&gt;Node78 -->
<g id="edge2" class="edge"><title>Node75&#45;&gt;Node78</title>
<path fill="none" stroke="midnightblue" d="M158.528,-18.6273C170.594,-17.1288 182.426,-15.6596 192.807,-14.3703"/>
<polygon fill="midnightblue" stroke="midnightblue" points="157.856,-15.1838 148.363,-19.8896 158.718,-22.1304 157.856,-15.1838"/>
</g>
</g>
</svg>
