<?xml version="1.0" encoding="UTF-8" standalone="no"?>
<!DOCTYPE svg PUBLIC "-//W3C//DTD SVG 1.1//EN"
 "http://www.w3.org/Graphics/SVG/1.1/DTD/svg11.dtd">
<!-- Generated by graphviz version 2.38.0 (20140413.2041)
 -->
<!-- Title: qspi_flash_execute_command Pages: 1 -->
<svg width="263pt" height="116pt"
 viewBox="0.00 0.00 263.00 115.50" xmlns="http://www.w3.org/2000/svg" xmlns:xlink="http://www.w3.org/1999/xlink">
<g id="graph0" class="graph" transform="scale(1 1) rotate(0) translate(4 111.5)">
<title>qspi_flash_execute_command</title>
<polygon fill="white" stroke="none" points="-4,4 -4,-111.5 259,-111.5 259,4 -4,4"/>
<!-- Node33 -->
<g id="node1" class="node"><title>Node33</title>
<polygon fill="#bfbfbf" stroke="black" points="0,-33 0,-63 107,-63 107,-33 0,-33"/>
<text text-anchor="start" x="8" y="-51" font-family="Helvetica,sans-Serif" font-size="10.00">qspi_flash_execute</text>
<text text-anchor="middle" x="53.5" y="-40" font-family="Helvetica,sans-Serif" font-size="10.00">_command</text>
</g>
<!-- Node34 -->
<g id="node2" class="node"><title>Node34</title>
<g id="a_node2"><a xlink:href="group__sam__drivers__qspi__group.xhtml#gac539f14d0b3c4b2671b0dee85ae5c7b4" target="_top" xlink:title="Set qspi instruction frame. ">
<polygon fill="white" stroke="black" points="143,-77 143,-107 255,-107 255,-77 143,-77"/>
<text text-anchor="start" x="151" y="-95" font-family="Helvetica,sans-Serif" font-size="10.00">qspi_set_instruction</text>
<text text-anchor="middle" x="199" y="-84" font-family="Helvetica,sans-Serif" font-size="10.00">_frame</text>
</a>
</g>
</g>
<!-- Node33&#45;&gt;Node34 -->
<g id="edge1" class="edge"><title>Node33&#45;&gt;Node34</title>
<path fill="none" stroke="midnightblue" d="M103.483,-63.0192C114.901,-66.5202 127.177,-70.2842 138.978,-73.9027"/>
<polygon fill="midnightblue" stroke="midnightblue" points="138.164,-77.3137 148.75,-76.8991 140.216,-70.6213 138.164,-77.3137"/>
</g>
<!-- Node35 -->
<g id="node3" class="node"><title>Node35</title>
<g id="a_node3"><a xlink:href="group__sam__drivers__qspi__group.xhtml#gaa1e46687caeb3e1674c912bd0cbbed5c" target="_top" xlink:title="Memory copy function. ">
<polygon fill="white" stroke="black" points="154.5,-38.5 154.5,-57.5 243.5,-57.5 243.5,-38.5 154.5,-38.5"/>
<text text-anchor="middle" x="199" y="-45.5" font-family="Helvetica,sans-Serif" font-size="10.00">_qspi_memcpy</text>
</a>
</g>
</g>
<!-- Node33&#45;&gt;Node35 -->
<g id="edge2" class="edge"><title>Node33&#45;&gt;Node35</title>
<path fill="none" stroke="midnightblue" d="M107.119,-48C119.243,-48 132.152,-48 144.32,-48"/>
<polygon fill="midnightblue" stroke="midnightblue" points="144.333,-51.5001 154.333,-48 144.333,-44.5001 144.333,-51.5001"/>
</g>
<!-- Node36 -->
<g id="node4" class="node"><title>Node36</title>
<g id="a_node4"><a xlink:href="group__sam__drivers__qspi__group.xhtml#ga692ff2eb50eb23c638a2ca9f5e60bf19" target="_top" xlink:title="Ends ongoing transfer by releasing CS of QSPI peripheral. ">
<polygon fill="white" stroke="black" points="148,-0.5 148,-19.5 250,-19.5 250,-0.5 148,-0.5"/>
<text text-anchor="middle" x="199" y="-7.5" font-family="Helvetica,sans-Serif" font-size="10.00">qspi_end_transfer</text>
</a>
</g>
</g>
<!-- Node33&#45;&gt;Node36 -->
<g id="edge3" class="edge"><title>Node33&#45;&gt;Node36</title>
<path fill="none" stroke="midnightblue" d="M107.119,-34.066C121.795,-30.1797 137.623,-25.9885 151.892,-22.2098"/>
<polygon fill="midnightblue" stroke="midnightblue" points="153.197,-25.4848 161.968,-19.5415 151.406,-18.718 153.197,-25.4848"/>
</g>
</g>
</svg>
