<?xml version="1.0" encoding="UTF-8" standalone="no"?>
<!DOCTYPE svg PUBLIC "-//W3C//DTD SVG 1.1//EN"
 "http://www.w3.org/Graphics/SVG/1.1/DTD/svg11.dtd">
<!-- Generated by graphviz version 2.38.0 (20140413.2041)
 -->
<!-- Title: qspi_set_transfer_delay Pages: 1 -->
<svg width="264pt" height="66pt"
 viewBox="0.00 0.00 264.00 66.00" xmlns="http://www.w3.org/2000/svg" xmlns:xlink="http://www.w3.org/1999/xlink">
<g id="graph0" class="graph" transform="scale(1 1) rotate(0) translate(4 62)">
<title>qspi_set_transfer_delay</title>
<polygon fill="white" stroke="none" points="-4,4 -4,-62 260,-62 260,4 -4,4"/>
<!-- Node132 -->
<g id="node1" class="node"><title>Node132</title>
<polygon fill="#bfbfbf" stroke="black" points="0,-19.5 0,-38.5 130,-38.5 130,-19.5 0,-19.5"/>
<text text-anchor="middle" x="65" y="-26.5" font-family="Helvetica,sans-Serif" font-size="10.00">qspi_set_transfer_delay</text>
</g>
<!-- Node133 -->
<g id="node2" class="node"><title>Node133</title>
<g id="a_node2"><a xlink:href="group__sam__drivers__qspi__group.xhtml#gac9b7fe706ebdf86eafc4289eaa82476e" target="_top" xlink:title="Config qspi according the config struct. ">
<polygon fill="white" stroke="red" points="166,-38.5 166,-57.5 256,-57.5 256,-38.5 166,-38.5"/>
<text text-anchor="middle" x="211" y="-45.5" font-family="Helvetica,sans-Serif" font-size="10.00">qspi_set_config</text>
</a>
</g>
</g>
<!-- Node132&#45;&gt;Node133 -->
<g id="edge1" class="edge"><title>Node132&#45;&gt;Node133</title>
<path fill="none" stroke="midnightblue" d="M140.565,-38.8385C149.215,-39.9798 157.815,-41.1145 165.866,-42.1767"/>
<polygon fill="midnightblue" stroke="midnightblue" points="140.791,-35.338 130.419,-37.4997 139.875,-42.2778 140.791,-35.338"/>
</g>
<!-- Node135 -->
<g id="node3" class="node"><title>Node135</title>
<g id="a_node3"><a xlink:href="xtio__spi_8c.xhtml#a018ae31f2548c72ebc1eef81cdcb3cc5" target="_top" xlink:title="Initialize the SPI system. ">
<polygon fill="white" stroke="red" points="175,-0.5 175,-19.5 247,-19.5 247,-0.5 175,-0.5"/>
<text text-anchor="middle" x="211" y="-7.5" font-family="Helvetica,sans-Serif" font-size="10.00">xtio_spi_init</text>
</a>
</g>
</g>
<!-- Node132&#45;&gt;Node135 -->
<g id="edge2" class="edge"><title>Node132&#45;&gt;Node135</title>
<path fill="none" stroke="midnightblue" d="M140.481,-19.1727C152.468,-17.591 164.364,-16.0214 174.837,-14.6396"/>
<polygon fill="midnightblue" stroke="midnightblue" points="139.875,-15.7222 130.419,-20.5003 140.791,-22.662 139.875,-15.7222"/>
</g>
</g>
</svg>
