<?xml version="1.0" encoding="UTF-8" standalone="no"?>
<!DOCTYPE svg PUBLIC "-//W3C//DTD SVG 1.1//EN"
 "http://www.w3.org/Graphics/SVG/1.1/DTD/svg11.dtd">
<!-- Generated by graphviz version 2.38.0 (20140413.2041)
 -->
<!-- Title: udd_ctrl_out_received Pages: 1 -->
<svg width="290pt" height="142pt"
 viewBox="0.00 0.00 290.00 142.00" xmlns="http://www.w3.org/2000/svg" xmlns:xlink="http://www.w3.org/1999/xlink">
<g id="graph0" class="graph" transform="scale(1 1) rotate(0) translate(4 138)">
<title>udd_ctrl_out_received</title>
<polygon fill="white" stroke="none" points="-4,4 -4,-138 286,-138 286,4 -4,4"/>
<!-- Node64 -->
<g id="node1" class="node"><title>Node64</title>
<polygon fill="#bfbfbf" stroke="black" points="0,-57.5 0,-76.5 122,-76.5 122,-57.5 0,-57.5"/>
<text text-anchor="middle" x="61" y="-64.5" font-family="Helvetica,sans-Serif" font-size="10.00">udd_ctrl_out_received</text>
</g>
<!-- Node65 -->
<g id="node2" class="node"><title>Node65</title>
<g id="a_node2"><a xlink:href="group__udd__udphs__group.xhtml#ga173a32ad9cb33b2851ff381da157328e" target="_top" xlink:title="Call callback associated to setup request. ">
<polygon fill="white" stroke="black" points="158,-114.5 158,-133.5 282,-133.5 282,-114.5 158,-114.5"/>
<text text-anchor="middle" x="220" y="-121.5" font-family="Helvetica,sans-Serif" font-size="10.00">udd_ctrl_endofrequest</text>
</a>
</g>
</g>
<!-- Node64&#45;&gt;Node65 -->
<g id="edge1" class="edge"><title>Node64&#45;&gt;Node65</title>
<path fill="none" stroke="midnightblue" d="M84.7066,-76.5453C104.045,-84.5403 132.647,-96.0479 158,-105 164.109,-107.157 170.605,-109.319 176.995,-111.371"/>
<polygon fill="midnightblue" stroke="midnightblue" points="176.286,-114.817 186.876,-114.489 178.393,-108.142 176.286,-114.817"/>
</g>
<!-- Node66 -->
<g id="node3" class="node"><title>Node66</title>
<g id="a_node3"><a xlink:href="group__udd__udphs__group.xhtml#gabf919b71cee71a11e1ea4e64fb9891d1" target="_top" xlink:title="Managed stall event of IN/OUT packet on control endpoint. ">
<polygon fill="white" stroke="black" points="166.5,-76.5 166.5,-95.5 273.5,-95.5 273.5,-76.5 166.5,-76.5"/>
<text text-anchor="middle" x="220" y="-83.5" font-family="Helvetica,sans-Serif" font-size="10.00">udd_ctrl_stall_data</text>
</a>
</g>
</g>
<!-- Node64&#45;&gt;Node66 -->
<g id="edge2" class="edge"><title>Node64&#45;&gt;Node66</title>
<path fill="none" stroke="midnightblue" d="M122.251,-74.2916C133.374,-75.6376 145.014,-77.0463 156.21,-78.4012"/>
<polygon fill="midnightblue" stroke="midnightblue" points="155.991,-81.9002 166.339,-79.627 156.832,-74.9509 155.991,-81.9002"/>
</g>
<!-- Node67 -->
<g id="node4" class="node"><title>Node67</title>
<g id="a_node4"><a xlink:href="group__udd__udphs__group.xhtml#gab1a4a5ecb3cd996de2d94d5e78d9ea9e" target="_top" xlink:title="Reset control endpoint management. ">
<polygon fill="white" stroke="black" points="183,-38.5 183,-57.5 257,-57.5 257,-38.5 183,-38.5"/>
<text text-anchor="middle" x="220" y="-45.5" font-family="Helvetica,sans-Serif" font-size="10.00">udd_ctrl_init</text>
</a>
</g>
</g>
<!-- Node64&#45;&gt;Node67 -->
<g id="edge3" class="edge"><title>Node64&#45;&gt;Node67</title>
<path fill="none" stroke="midnightblue" d="M122.251,-59.7084C138.992,-57.6825 156.905,-55.5146 172.711,-53.6019"/>
<polygon fill="midnightblue" stroke="midnightblue" points="173.252,-57.062 182.759,-52.3858 172.411,-50.1127 173.252,-57.062"/>
</g>
<!-- Node68 -->
<g id="node5" class="node"><title>Node68</title>
<g id="a_node5"><a xlink:href="group__udd__udphs__group.xhtml#gab6a8abd5db8a94d6becc73b2b70dc748" target="_top" xlink:title="Send a ZLP IN on control endpoint. ">
<polygon fill="white" stroke="black" points="162,-0.5 162,-19.5 278,-19.5 278,-0.5 162,-0.5"/>
<text text-anchor="middle" x="220" y="-7.5" font-family="Helvetica,sans-Serif" font-size="10.00">udd_ctrl_send_zlp_in</text>
</a>
</g>
</g>
<!-- Node64&#45;&gt;Node68 -->
<g id="edge4" class="edge"><title>Node64&#45;&gt;Node68</title>
<path fill="none" stroke="midnightblue" d="M84.7066,-57.4547C104.045,-49.4597 132.647,-37.9521 158,-29 164.109,-26.843 170.605,-24.6812 176.995,-22.6292"/>
<polygon fill="midnightblue" stroke="midnightblue" points="178.393,-25.8583 186.876,-19.5112 176.286,-19.1827 178.393,-25.8583"/>
</g>
</g>
</svg>
