<?xml version="1.0" encoding="UTF-8" standalone="no"?>
<!DOCTYPE svg PUBLIC "-//W3C//DTD SVG 1.1//EN"
 "http://www.w3.org/Graphics/SVG/1.1/DTD/svg11.dtd">
<!-- Generated by graphviz version 2.38.0 (20140413.2041)
 -->
<!-- Title: udd_ctrl_interrupt Pages: 1 -->
<svg width="409pt" height="180pt"
 viewBox="0.00 0.00 409.00 180.00" xmlns="http://www.w3.org/2000/svg" xmlns:xlink="http://www.w3.org/1999/xlink">
<g id="graph0" class="graph" transform="scale(1 1) rotate(0) translate(4 176)">
<title>udd_ctrl_interrupt</title>
<polygon fill="white" stroke="none" points="-4,4 -4,-176 405,-176 405,4 -4,4"/>
<!-- Node52 -->
<g id="node1" class="node"><title>Node52</title>
<polygon fill="#bfbfbf" stroke="black" points="0,-76.5 0,-95.5 101,-95.5 101,-76.5 0,-76.5"/>
<text text-anchor="middle" x="50.5" y="-83.5" font-family="Helvetica,sans-Serif" font-size="10.00">udd_ctrl_interrupt</text>
</g>
<!-- Node53 -->
<g id="node2" class="node"><title>Node53</title>
<g id="a_node2"><a xlink:href="group__udd__udphs__group.xhtml#ga80494c67ce9cbd4ee8eb5e7fa5c19cd6" target="_top" xlink:title="Managed reception of SETUP packet on control endpoint. ">
<polygon fill="white" stroke="red" points="137,-152.5 137,-171.5 270,-171.5 270,-152.5 137,-152.5"/>
<text text-anchor="middle" x="203.5" y="-159.5" font-family="Helvetica,sans-Serif" font-size="10.00">udd_ctrl_setup_received</text>
</a>
</g>
</g>
<!-- Node52&#45;&gt;Node53 -->
<g id="edge1" class="edge"><title>Node52&#45;&gt;Node53</title>
<path fill="none" stroke="midnightblue" d="M65.2469,-95.5209C81.7586,-106.679 110.547,-125.26 137,-138 145.245,-141.971 154.329,-145.688 163.039,-148.956"/>
<polygon fill="midnightblue" stroke="midnightblue" points="162.055,-152.322 172.649,-152.445 164.443,-145.743 162.055,-152.322"/>
</g>
<!-- Node57 -->
<g id="node3" class="node"><title>Node57</title>
<g id="a_node3"><a xlink:href="group__udd__udphs__group.xhtml#ga181ffd0cddf5130f55df6df8ca3f916c" target="_top" xlink:title="Managed reception of IN packet on control endpoint. ">
<polygon fill="white" stroke="red" points="306,-133.5 306,-152.5 401,-152.5 401,-133.5 306,-133.5"/>
<text text-anchor="middle" x="353.5" y="-140.5" font-family="Helvetica,sans-Serif" font-size="10.00">udd_ctrl_in_sent</text>
</a>
</g>
</g>
<!-- Node52&#45;&gt;Node57 -->
<g id="edge3" class="edge"><title>Node52&#45;&gt;Node57</title>
<path fill="none" stroke="midnightblue" d="M92.7361,-95.5494C106.756,-98.6932 122.534,-102.119 137,-105 190.637,-115.683 252.096,-126.368 295.619,-133.674"/>
<polygon fill="midnightblue" stroke="midnightblue" points="295.287,-137.167 305.727,-135.364 296.441,-130.263 295.287,-137.167"/>
</g>
<!-- Node60 -->
<g id="node4" class="node"><title>Node60</title>
<g id="a_node4"><a xlink:href="group__udd__udphs__group.xhtml#ga0a56388130817f0cd070dba04842740f" target="_top" xlink:title="Managed reception of OUT packet on control endpoint. ">
<polygon fill="white" stroke="red" points="142.5,-76.5 142.5,-95.5 264.5,-95.5 264.5,-76.5 142.5,-76.5"/>
<text text-anchor="middle" x="203.5" y="-83.5" font-family="Helvetica,sans-Serif" font-size="10.00">udd_ctrl_out_received</text>
</a>
</g>
</g>
<!-- Node52&#45;&gt;Node60 -->
<g id="edge4" class="edge"><title>Node52&#45;&gt;Node60</title>
<path fill="none" stroke="midnightblue" d="M101.362,-86C111.219,-86 121.738,-86 132.127,-86"/>
<polygon fill="midnightblue" stroke="midnightblue" points="132.444,-89.5001 142.444,-86 132.444,-82.5001 132.444,-89.5001"/>
</g>
<!-- Node61 -->
<g id="node5" class="node"><title>Node61</title>
<g id="a_node5"><a xlink:href="group__udd__udphs__group.xhtml#ga909f5689181816c06868d6aca77f3550" target="_top" xlink:title="Managed overflow event of OUT packet on control endpoint. ">
<polygon fill="white" stroke="black" points="154,-38.5 154,-57.5 253,-57.5 253,-38.5 154,-38.5"/>
<text text-anchor="middle" x="203.5" y="-45.5" font-family="Helvetica,sans-Serif" font-size="10.00">udd_ctrl_overflow</text>
</a>
</g>
</g>
<!-- Node52&#45;&gt;Node61 -->
<g id="edge5" class="edge"><title>Node52&#45;&gt;Node61</title>
<path fill="none" stroke="midnightblue" d="M89.6037,-76.411C109.44,-71.4191 133.884,-65.2676 154.948,-59.9666"/>
<polygon fill="midnightblue" stroke="midnightblue" points="155.827,-63.3548 164.67,-57.5201 154.118,-56.5664 155.827,-63.3548"/>
</g>
<!-- Node62 -->
<g id="node6" class="node"><title>Node62</title>
<g id="a_node6"><a xlink:href="group__udd__udphs__group.xhtml#ga357a7fb2393f1995f9d6fb00ee6b166e" target="_top" xlink:title="Managed underflow event of IN packet on control endpoint. ">
<polygon fill="white" stroke="red" points="150.5,-0.5 150.5,-19.5 256.5,-19.5 256.5,-0.5 150.5,-0.5"/>
<text text-anchor="middle" x="203.5" y="-7.5" font-family="Helvetica,sans-Serif" font-size="10.00">udd_ctrl_underflow</text>
</a>
</g>
</g>
<!-- Node52&#45;&gt;Node62 -->
<g id="edge6" class="edge"><title>Node52&#45;&gt;Node62</title>
<path fill="none" stroke="midnightblue" d="M63.2596,-76.4446C79.1307,-63.9646 108.69,-42.1611 137,-29 141.966,-26.6915 147.275,-24.5969 152.642,-22.7144"/>
<polygon fill="midnightblue" stroke="midnightblue" points="153.886,-25.99 162.302,-19.5544 151.71,-19.3369 153.886,-25.99"/>
</g>
<!-- Node53&#45;&gt;Node57 -->
<g id="edge2" class="edge"><title>Node53&#45;&gt;Node57</title>
<path fill="none" stroke="midnightblue" d="M270.277,-153.556C278.839,-152.456 287.55,-151.338 295.943,-150.261"/>
<polygon fill="midnightblue" stroke="midnightblue" points="296.519,-153.716 305.992,-148.971 295.628,-146.772 296.519,-153.716"/>
</g>
</g>
</svg>
