<?xml version="1.0" encoding="UTF-8" standalone="no"?>
<!DOCTYPE svg PUBLIC "-//W3C//DTD SVG 1.1//EN"
 "http://www.w3.org/Graphics/SVG/1.1/DTD/svg11.dtd">
<!-- Generated by graphviz version 2.38.0 (20140413.2041)
 -->
<!-- Title: qspi_flash_access_memory Pages: 1 -->
<svg width="304pt" height="116pt"
 viewBox="0.00 0.00 304.00 115.50" xmlns="http://www.w3.org/2000/svg" xmlns:xlink="http://www.w3.org/1999/xlink">
<g id="graph0" class="graph" transform="scale(1 1) rotate(0) translate(4 111.5)">
<title>qspi_flash_access_memory</title>
<polygon fill="white" stroke="none" points="-4,4 -4,-111.5 300,-111.5 300,4 -4,4"/>
<!-- Node28 -->
<g id="node1" class="node"><title>Node28</title>
<polygon fill="#bfbfbf" stroke="black" points="0,-38.5 0,-57.5 148,-57.5 148,-38.5 0,-38.5"/>
<text text-anchor="middle" x="74" y="-45.5" font-family="Helvetica,sans-Serif" font-size="10.00">qspi_flash_access_memory</text>
</g>
<!-- Node29 -->
<g id="node2" class="node"><title>Node29</title>
<g id="a_node2"><a xlink:href="group__sam__drivers__qspi__group.xhtml#gac539f14d0b3c4b2671b0dee85ae5c7b4" target="_top" xlink:title="Set qspi instruction frame. ">
<polygon fill="white" stroke="black" points="184,-77 184,-107 296,-107 296,-77 184,-77"/>
<text text-anchor="start" x="192" y="-95" font-family="Helvetica,sans-Serif" font-size="10.00">qspi_set_instruction</text>
<text text-anchor="middle" x="240" y="-84" font-family="Helvetica,sans-Serif" font-size="10.00">_frame</text>
</a>
</g>
</g>
<!-- Node28&#45;&gt;Node29 -->
<g id="edge1" class="edge"><title>Node28&#45;&gt;Node29</title>
<path fill="none" stroke="midnightblue" d="M110.586,-57.5473C129.13,-62.5228 152.397,-68.7652 174.014,-74.5648"/>
<polygon fill="midnightblue" stroke="midnightblue" points="173.242,-77.9813 183.807,-77.1922 175.056,-71.2204 173.242,-77.9813"/>
</g>
<!-- Node30 -->
<g id="node3" class="node"><title>Node30</title>
<g id="a_node3"><a xlink:href="group__sam__drivers__qspi__group.xhtml#gaa1e46687caeb3e1674c912bd0cbbed5c" target="_top" xlink:title="Memory copy function. ">
<polygon fill="white" stroke="black" points="195.5,-38.5 195.5,-57.5 284.5,-57.5 284.5,-38.5 195.5,-38.5"/>
<text text-anchor="middle" x="240" y="-45.5" font-family="Helvetica,sans-Serif" font-size="10.00">_qspi_memcpy</text>
</a>
</g>
</g>
<!-- Node28&#45;&gt;Node30 -->
<g id="edge2" class="edge"><title>Node28&#45;&gt;Node30</title>
<path fill="none" stroke="midnightblue" d="M148.366,-48C160.767,-48 173.434,-48 185.216,-48"/>
<polygon fill="midnightblue" stroke="midnightblue" points="185.314,-51.5001 195.314,-48 185.313,-44.5001 185.314,-51.5001"/>
</g>
<!-- Node31 -->
<g id="node4" class="node"><title>Node31</title>
<g id="a_node4"><a xlink:href="group__sam__drivers__qspi__group.xhtml#ga692ff2eb50eb23c638a2ca9f5e60bf19" target="_top" xlink:title="Ends ongoing transfer by releasing CS of QSPI peripheral. ">
<polygon fill="white" stroke="black" points="189,-0.5 189,-19.5 291,-19.5 291,-0.5 189,-0.5"/>
<text text-anchor="middle" x="240" y="-7.5" font-family="Helvetica,sans-Serif" font-size="10.00">qspi_end_transfer</text>
</a>
</g>
</g>
<!-- Node28&#45;&gt;Node31 -->
<g id="edge3" class="edge"><title>Node28&#45;&gt;Node31</title>
<path fill="none" stroke="midnightblue" d="M116.384,-38.411C138.123,-33.3739 164.957,-27.1562 187.975,-21.8229"/>
<polygon fill="midnightblue" stroke="midnightblue" points="188.962,-25.1871 197.913,-19.5201 187.381,-18.3677 188.962,-25.1871"/>
</g>
</g>
</svg>
