<?xml version="1.0" encoding="UTF-8" standalone="no"?>
<!DOCTYPE svg PUBLIC "-//W3C//DTD SVG 1.1//EN"
 "http://www.w3.org/Graphics/SVG/1.1/DTD/svg11.dtd">
<!-- Generated by graphviz version 2.38.0 (20140413.2041)
 -->
<!-- Title: qspi_set_memory_mode Pages: 1 -->
<svg width="269pt" height="66pt"
 viewBox="0.00 0.00 269.00 66.00" xmlns="http://www.w3.org/2000/svg" xmlns:xlink="http://www.w3.org/1999/xlink">
<g id="graph0" class="graph" transform="scale(1 1) rotate(0) translate(4 62)">
<title>qspi_set_memory_mode</title>
<polygon fill="white" stroke="none" points="-4,4 -4,-62 265,-62 265,4 -4,4"/>
<!-- Node115 -->
<g id="node1" class="node"><title>Node115</title>
<polygon fill="#bfbfbf" stroke="black" points="0,-19.5 0,-38.5 135,-38.5 135,-19.5 0,-19.5"/>
<text text-anchor="middle" x="67.5" y="-26.5" font-family="Helvetica,sans-Serif" font-size="10.00">qspi_set_memory_mode</text>
</g>
<!-- Node116 -->
<g id="node2" class="node"><title>Node116</title>
<g id="a_node2"><a xlink:href="group__sam__drivers__qspi__group.xhtml#gac9b7fe706ebdf86eafc4289eaa82476e" target="_top" xlink:title="Config qspi according the config struct. ">
<polygon fill="white" stroke="red" points="171,-38.5 171,-57.5 261,-57.5 261,-38.5 171,-38.5"/>
<text text-anchor="middle" x="216" y="-45.5" font-family="Helvetica,sans-Serif" font-size="10.00">qspi_set_config</text>
</a>
</g>
</g>
<!-- Node115&#45;&gt;Node116 -->
<g id="edge1" class="edge"><title>Node115&#45;&gt;Node116</title>
<path fill="none" stroke="midnightblue" d="M145.25,-38.9539C154.044,-40.0944 162.77,-41.2262 170.921,-42.2833"/>
<polygon fill="midnightblue" stroke="midnightblue" points="145.687,-35.4813 135.319,-37.666 144.786,-42.4232 145.687,-35.4813"/>
</g>
<!-- Node118 -->
<g id="node3" class="node"><title>Node118</title>
<g id="a_node3"><a xlink:href="xtio__spi_8c.xhtml#a018ae31f2548c72ebc1eef81cdcb3cc5" target="_top" xlink:title="Initialize the SPI system. ">
<polygon fill="white" stroke="red" points="180,-0.5 180,-19.5 252,-19.5 252,-0.5 180,-0.5"/>
<text text-anchor="middle" x="216" y="-7.5" font-family="Helvetica,sans-Serif" font-size="10.00">xtio_spi_init</text>
</a>
</g>
</g>
<!-- Node115&#45;&gt;Node118 -->
<g id="edge2" class="edge"><title>Node115&#45;&gt;Node118</title>
<path fill="none" stroke="midnightblue" d="M145.448,-19.0204C157.503,-17.4569 169.424,-15.9109 179.901,-14.5521"/>
<polygon fill="midnightblue" stroke="midnightblue" points="144.786,-15.5768 135.319,-20.334 145.687,-22.5187 144.786,-15.5768"/>
</g>
</g>
</svg>
