<?xml version="1.0" encoding="UTF-8" standalone="no"?>
<!DOCTYPE svg PUBLIC "-//W3C//DTD SVG 1.1//EN"
 "http://www.w3.org/Graphics/SVG/1.1/DTD/svg11.dtd">
<!-- Generated by graphviz version 2.38.0 (20140413.2041)
 -->
<!-- Title: udd_ctrl_setup_received Pages: 1 -->
<svg width="453pt" height="162pt"
 viewBox="0.00 0.00 453.00 162.23" xmlns="http://www.w3.org/2000/svg" xmlns:xlink="http://www.w3.org/1999/xlink">
<g id="graph0" class="graph" transform="scale(1 1) rotate(0) translate(4 158.234)">
<title>udd_ctrl_setup_received</title>
<polygon fill="white" stroke="none" points="-4,4 -4,-158.234 449,-158.234 449,4 -4,4"/>
<!-- Node85 -->
<g id="node1" class="node"><title>Node85</title>
<polygon fill="#bfbfbf" stroke="black" points="0,-76.5 0,-95.5 133,-95.5 133,-76.5 0,-76.5"/>
<text text-anchor="middle" x="66.5" y="-83.5" font-family="Helvetica,sans-Serif" font-size="10.00">udd_ctrl_setup_received</text>
</g>
<!-- Node86 -->
<g id="node2" class="node"><title>Node86</title>
<g id="a_node2"><a xlink:href="group__udd__udphs__group.xhtml#ga173a32ad9cb33b2851ff381da157328e" target="_top" xlink:title="Call callback associated to setup request. ">
<polygon fill="white" stroke="black" points="321,-133.5 321,-152.5 445,-152.5 445,-133.5 321,-133.5"/>
<text text-anchor="middle" x="383" y="-140.5" font-family="Helvetica,sans-Serif" font-size="10.00">udd_ctrl_endofrequest</text>
</a>
</g>
</g>
<!-- Node85&#45;&gt;Node86 -->
<g id="edge1" class="edge"><title>Node85&#45;&gt;Node86</title>
<path fill="none" stroke="midnightblue" d="M79.7201,-95.6542C97.9235,-109.354 133.806,-133.794 169,-143 215.105,-155.06 268.77,-154.978 310.699,-151.922"/>
<polygon fill="midnightblue" stroke="midnightblue" points="311.132,-155.399 320.82,-151.111 310.573,-148.421 311.132,-155.399"/>
</g>
<!-- Node87 -->
<g id="node3" class="node"><title>Node87</title>
<g id="a_node3"><a xlink:href="group__udd__udphs__group.xhtml#gab1a4a5ecb3cd996de2d94d5e78d9ea9e" target="_top" xlink:title="Reset control endpoint management. ">
<polygon fill="white" stroke="black" points="346,-76.5 346,-95.5 420,-95.5 420,-76.5 346,-76.5"/>
<text text-anchor="middle" x="383" y="-83.5" font-family="Helvetica,sans-Serif" font-size="10.00">udd_ctrl_init</text>
</a>
</g>
</g>
<!-- Node85&#45;&gt;Node87 -->
<g id="edge2" class="edge"><title>Node85&#45;&gt;Node87</title>
<path fill="none" stroke="midnightblue" d="M108.738,-76.489C127.08,-72.7238 149.007,-68.8552 169,-67 220.335,-62.2366 233.685,-62.0216 285,-67 301.673,-68.6176 319.735,-71.7642 335.702,-75.0385"/>
<polygon fill="midnightblue" stroke="midnightblue" points="335.347,-78.5412 345.856,-77.1939 336.801,-71.6938 335.347,-78.5412"/>
</g>
<!-- Node88 -->
<g id="node4" class="node"><title>Node88</title>
<g id="a_node4"><a xlink:href="group__udd__udphs__group.xhtml#gabf919b71cee71a11e1ea4e64fb9891d1" target="_top" xlink:title="Managed stall event of IN/OUT packet on control endpoint. ">
<polygon fill="white" stroke="black" points="173.5,-76.5 173.5,-95.5 280.5,-95.5 280.5,-76.5 173.5,-76.5"/>
<text text-anchor="middle" x="227" y="-83.5" font-family="Helvetica,sans-Serif" font-size="10.00">udd_ctrl_stall_data</text>
</a>
</g>
</g>
<!-- Node85&#45;&gt;Node88 -->
<g id="edge3" class="edge"><title>Node85&#45;&gt;Node88</title>
<path fill="none" stroke="midnightblue" d="M133.341,-86C143.189,-86 153.321,-86 163.106,-86"/>
<polygon fill="midnightblue" stroke="midnightblue" points="163.15,-89.5001 173.15,-86 163.149,-82.5001 163.15,-89.5001"/>
</g>
<!-- Node89 -->
<g id="node5" class="node"><title>Node89</title>
<g id="a_node5"><a xlink:href="group__udd__udphs__group.xhtml#ga181ffd0cddf5130f55df6df8ca3f916c" target="_top" xlink:title="Managed reception of IN packet on control endpoint. ">
<polygon fill="white" stroke="red" points="179.5,-114.5 179.5,-133.5 274.5,-133.5 274.5,-114.5 179.5,-114.5"/>
<text text-anchor="middle" x="227" y="-121.5" font-family="Helvetica,sans-Serif" font-size="10.00">udd_ctrl_in_sent</text>
</a>
</g>
</g>
<!-- Node85&#45;&gt;Node89 -->
<g id="edge4" class="edge"><title>Node85&#45;&gt;Node89</title>
<path fill="none" stroke="midnightblue" d="M107.496,-95.589C128.412,-100.604 154.208,-106.788 176.386,-112.105"/>
<polygon fill="midnightblue" stroke="midnightblue" points="175.751,-115.552 186.291,-114.48 177.383,-108.745 175.751,-115.552"/>
</g>
<!-- Node91 -->
<g id="node6" class="node"><title>Node91</title>
<g id="a_node6"><a xlink:href="group__udd__udphs__group.xhtml#gab6a8abd5db8a94d6becc73b2b70dc748" target="_top" xlink:title="Send a ZLP IN on control endpoint. ">
<polygon fill="white" stroke="black" points="169,-0.5 169,-19.5 285,-19.5 285,-0.5 169,-0.5"/>
<text text-anchor="middle" x="227" y="-7.5" font-family="Helvetica,sans-Serif" font-size="10.00">udd_ctrl_send_zlp_in</text>
</a>
</g>
</g>
<!-- Node85&#45;&gt;Node91 -->
<g id="edge7" class="edge"><title>Node85&#45;&gt;Node91</title>
<path fill="none" stroke="midnightblue" d="M85.2676,-76.3845C105.374,-65.6238 139.207,-47.88 169,-34 176.681,-30.4217 185.042,-26.769 192.935,-23.4276"/>
<polygon fill="midnightblue" stroke="midnightblue" points="194.377,-26.6185 202.253,-19.5324 191.677,-20.1601 194.377,-26.6185"/>
</g>
<!-- Node89&#45;&gt;Node86 -->
<g id="edge5" class="edge"><title>Node89&#45;&gt;Node86</title>
<path fill="none" stroke="midnightblue" d="M274.623,-129.752C285.966,-131.152 298.356,-132.68 310.558,-134.186"/>
<polygon fill="midnightblue" stroke="midnightblue" points="310.384,-137.691 320.738,-135.442 311.241,-130.743 310.384,-137.691"/>
</g>
<!-- Node89&#45;&gt;Node87 -->
<g id="edge6" class="edge"><title>Node89&#45;&gt;Node87</title>
<path fill="none" stroke="midnightblue" d="M266.861,-114.411C287.878,-109.225 313.967,-102.787 335.995,-97.352"/>
<polygon fill="midnightblue" stroke="midnightblue" points="336.926,-100.727 345.797,-94.9333 335.249,-93.931 336.926,-100.727"/>
</g>
</g>
</svg>
