<?xml version="1.0" encoding="UTF-8" standalone="no"?>
<!DOCTYPE svg PUBLIC "-//W3C//DTD SVG 1.1//EN"
 "http://www.w3.org/Graphics/SVG/1.1/DTD/svg11.dtd">
<!-- Generated by graphviz version 2.38.0 (20140413.2041)
 -->
<!-- Title: src/hal/x4m0x_s70/hal_board_init.h Pages: 1 -->
<svg width="292pt" height="106pt"
 viewBox="0.00 0.00 292.00 106.00" xmlns="http://www.w3.org/2000/svg" xmlns:xlink="http://www.w3.org/1999/xlink">
<g id="graph0" class="graph" transform="scale(1 1) rotate(0) translate(4 102)">
<title>src/hal/x4m0x_s70/hal_board_init.h</title>
<polygon fill="white" stroke="none" points="-4,4 -4,-102 288,-102 288,4 -4,4"/>
<!-- Node1 -->
<g id="node1" class="node"><title>Node1</title>
<polygon fill="#bfbfbf" stroke="black" points="75,-67.5 75,-97.5 198,-97.5 198,-67.5 75,-67.5"/>
<text text-anchor="start" x="83" y="-85.5" font-family="Helvetica,sans-Serif" font-size="10.00">src/hal/x4m0x_s70/hal</text>
<text text-anchor="middle" x="136.5" y="-74.5" font-family="Helvetica,sans-Serif" font-size="10.00">_board_init.h</text>
</g>
<!-- Node2 -->
<g id="node2" class="node"><title>Node2</title>
<g id="a_node2"><a xlink:href="hal__board__init_8c.xhtml" target="_top" xlink:title="User board initialization template. ">
<polygon fill="white" stroke="black" points="0,-0.5 0,-30.5 123,-30.5 123,-0.5 0,-0.5"/>
<text text-anchor="start" x="8" y="-18.5" font-family="Helvetica,sans-Serif" font-size="10.00">src/hal/x4m0x_s70/hal</text>
<text text-anchor="middle" x="61.5" y="-7.5" font-family="Helvetica,sans-Serif" font-size="10.00">_board_init.c</text>
</a>
</g>
</g>
<!-- Node1&#45;&gt;Node2 -->
<g id="edge1" class="edge"><title>Node1&#45;&gt;Node2</title>
<path fill="none" stroke="midnightblue" d="M112.382,-60.5978C101.057,-50.7831 87.8587,-39.3442 77.7421,-30.5765"/>
<polygon fill="midnightblue" stroke="midnightblue" points="110.377,-63.4915 120.226,-67.396 114.961,-58.2017 110.377,-63.4915"/>
</g>
<!-- Node3 -->
<g id="node3" class="node"><title>Node3</title>
<g id="a_node3"><a xlink:href="startup__sams70_8c.xhtml" target="_top" xlink:title="Interrupt handler definitions and start up code. ">
<polygon fill="white" stroke="black" points="141,-0.5 141,-30.5 284,-30.5 284,-0.5 141,-0.5"/>
<text text-anchor="start" x="149" y="-18.5" font-family="Helvetica,sans-Serif" font-size="10.00">src/hal/x4m0x_s70/startup</text>
<text text-anchor="middle" x="212.5" y="-7.5" font-family="Helvetica,sans-Serif" font-size="10.00">_sams70.c</text>
</a>
</g>
</g>
<!-- Node1&#45;&gt;Node3 -->
<g id="edge2" class="edge"><title>Node1&#45;&gt;Node3</title>
<path fill="none" stroke="midnightblue" d="M160.606,-60.8832C172.155,-51.0054 185.69,-39.4293 196.041,-30.5765"/>
<polygon fill="midnightblue" stroke="midnightblue" points="158.316,-58.2364 152.991,-67.396 162.865,-63.5561 158.316,-58.2364"/>
</g>
</g>
</svg>
