<?xml version="1.0" encoding="UTF-8" standalone="no"?>
<!DOCTYPE svg PUBLIC "-//W3C//DTD SVG 1.1//EN"
 "http://www.w3.org/Graphics/SVG/1.1/DTD/svg11.dtd">
<!-- Generated by graphviz version 2.38.0 (20140413.2041)
 -->
<!-- Title: xt_board_init Pages: 1 -->
<svg width="253pt" height="318pt"
 viewBox="0.00 0.00 253.00 318.00" xmlns="http://www.w3.org/2000/svg" xmlns:xlink="http://www.w3.org/1999/xlink">
<g id="graph0" class="graph" transform="scale(1 1) rotate(0) translate(4 314)">
<title>xt_board_init</title>
<polygon fill="white" stroke="none" points="-4,4 -4,-314 249,-314 249,4 -4,4"/>
<!-- Node4 -->
<g id="node1" class="node"><title>Node4</title>
<polygon fill="#bfbfbf" stroke="black" points="0,-154.5 0,-173.5 78,-173.5 78,-154.5 0,-154.5"/>
<text text-anchor="middle" x="39" y="-161.5" font-family="Helvetica,sans-Serif" font-size="10.00">xt_board_init</text>
</g>
<!-- Node5 -->
<g id="node2" class="node"><title>Node5</title>
<g id="a_node2"><a xlink:href="hal__board__init_8c.xhtml#a9744d00e2d0a1292c99875113204bcfc" target="_top" xlink:title="Setup a memory region. ">
<polygon fill="white" stroke="black" points="119,-290.5 119,-309.5 240,-309.5 240,-290.5 119,-290.5"/>
<text text-anchor="middle" x="179.5" y="-297.5" font-family="Helvetica,sans-Serif" font-size="10.00">_SetupMemoryRegion</text>
</a>
</g>
</g>
<!-- Node4&#45;&gt;Node5 -->
<g id="edge1" class="edge"><title>Node4&#45;&gt;Node5</title>
<path fill="none" stroke="midnightblue" d="M43.3166,-173.517C51.5796,-195.813 75.2526,-251.748 114,-281 116.482,-282.874 119.146,-284.563 121.927,-286.087"/>
<polygon fill="midnightblue" stroke="midnightblue" points="120.59,-289.325 131.129,-290.409 123.566,-282.989 120.59,-289.325"/>
</g>
<!-- Node6 -->
<g id="node3" class="node"><title>Node6</title>
<g id="a_node3"><a xlink:href="xep__hal_8h.xhtml#a02d431b74bbdd1cc5d4ff79903f7ebd6" target="_top" xlink:title="Initiate LED. ">
<polygon fill="white" stroke="red" points="143,-252.5 143,-271.5 216,-271.5 216,-252.5 143,-252.5"/>
<text text-anchor="middle" x="179.5" y="-259.5" font-family="Helvetica,sans-Serif" font-size="10.00">xtio_led_init</text>
</a>
</g>
</g>
<!-- Node4&#45;&gt;Node6 -->
<g id="edge2" class="edge"><title>Node4&#45;&gt;Node6</title>
<path fill="none" stroke="midnightblue" d="M46.3395,-173.572C57.8381,-190.187 83.7623,-224.367 114,-243 119.876,-246.621 126.478,-249.583 133.158,-251.997"/>
<polygon fill="midnightblue" stroke="midnightblue" points="132.332,-255.408 142.924,-255.155 134.486,-248.748 132.332,-255.408"/>
</g>
<!-- Node8 -->
<g id="node4" class="node"><title>Node8</title>
<g id="a_node4"><a xlink:href="xep__hal_8h.xhtml#a9c169f60838175920c2f9ab467d020c1" target="_top" xlink:title="Set mode for specified IO pin. ">
<polygon fill="white" stroke="red" points="126,-214.5 126,-233.5 233,-233.5 233,-214.5 126,-214.5"/>
<text text-anchor="middle" x="179.5" y="-221.5" font-family="Helvetica,sans-Serif" font-size="10.00">xtio_set_pin_mode</text>
</a>
</g>
</g>
<!-- Node4&#45;&gt;Node8 -->
<g id="edge3" class="edge"><title>Node4&#45;&gt;Node8</title>
<path fill="none" stroke="midnightblue" d="M55.0968,-173.66C69.7144,-182.696 92.7273,-196.101 114,-205 119.45,-207.28 125.266,-209.401 131.091,-211.337"/>
<polygon fill="midnightblue" stroke="midnightblue" points="130.247,-214.741 140.837,-214.416 132.356,-208.066 130.247,-214.741"/>
</g>
<!-- Node10 -->
<g id="node5" class="node"><title>Node10</title>
<g id="a_node5"><a xlink:href="xep__hal_8h.xhtml#af1f57228b9448df87a3f5f30968b3fa8" target="_top" xlink:title="Gets the operation mode of the module. ">
<polygon fill="white" stroke="black" points="114,-176.5 114,-195.5 245,-195.5 245,-176.5 114,-176.5"/>
<text text-anchor="middle" x="179.5" y="-183.5" font-family="Helvetica,sans-Serif" font-size="10.00">xt_get_operation_mode</text>
</a>
</g>
</g>
<!-- Node4&#45;&gt;Node10 -->
<g id="edge4" class="edge"><title>Node4&#45;&gt;Node10</title>
<path fill="none" stroke="midnightblue" d="M78.2124,-170.07C87.678,-171.573 98.1191,-173.232 108.581,-174.894"/>
<polygon fill="midnightblue" stroke="midnightblue" points="108.16,-178.371 118.586,-176.483 109.259,-171.457 108.16,-178.371"/>
</g>
<!-- Node11 -->
<g id="node6" class="node"><title>Node11</title>
<g id="a_node6"><a xlink:href="xt__selftest_8c.xhtml#abc3c1300afe15432d14d378d288dbed5" target="_top" xlink:title="xt_selftest_ext_ram\l_shorts">
<polygon fill="white" stroke="red" points="124,-127 124,-157 235,-157 235,-127 124,-127"/>
<text text-anchor="start" x="132" y="-145" font-family="Helvetica,sans-Serif" font-size="10.00">xt_selftest_ext_ram</text>
<text text-anchor="middle" x="179.5" y="-134" font-family="Helvetica,sans-Serif" font-size="10.00">_shorts</text>
</a>
</g>
</g>
<!-- Node4&#45;&gt;Node11 -->
<g id="edge5" class="edge"><title>Node4&#45;&gt;Node11</title>
<path fill="none" stroke="midnightblue" d="M78.2124,-157.93C89.2218,-156.181 101.551,-154.223 113.697,-152.294"/>
<polygon fill="midnightblue" stroke="midnightblue" points="114.496,-155.711 123.823,-150.685 113.398,-148.797 114.496,-155.711"/>
</g>
<!-- Node14 -->
<g id="node7" class="node"><title>Node14</title>
<g id="a_node7"><a xlink:href="xep__hal_8h.xhtml#aa3e424512de2e10133b2ffe41f6577ea" target="_top" xlink:title="Initialize external RAM if available. ">
<polygon fill="white" stroke="black" points="133,-88.5 133,-107.5 226,-107.5 226,-88.5 133,-88.5"/>
<text text-anchor="middle" x="179.5" y="-95.5" font-family="Helvetica,sans-Serif" font-size="10.00">xtio_extram_init</text>
</a>
</g>
</g>
<!-- Node4&#45;&gt;Node14 -->
<g id="edge6" class="edge"><title>Node4&#45;&gt;Node14</title>
<path fill="none" stroke="midnightblue" d="M53.0589,-154.44C67.4108,-144.286 91.4337,-128.306 114,-118 119.809,-115.347 126.066,-112.918 132.317,-110.737"/>
<polygon fill="midnightblue" stroke="midnightblue" points="133.671,-113.976 142.071,-107.518 131.477,-107.328 133.671,-113.976"/>
</g>
<!-- Node15 -->
<g id="node8" class="node"><title>Node15</title>
<g id="a_node8"><a xlink:href="xt__selftest_8c.xhtml#a0d0c415bbb59ac93d3d4bd7dd75934a0" target="_top" xlink:title="xt_selftest_ext_ram\l_functionality">
<polygon fill="white" stroke="red" points="124,-39 124,-69 235,-69 235,-39 124,-39"/>
<text text-anchor="start" x="132" y="-57" font-family="Helvetica,sans-Serif" font-size="10.00">xt_selftest_ext_ram</text>
<text text-anchor="middle" x="179.5" y="-46" font-family="Helvetica,sans-Serif" font-size="10.00">_functionality</text>
</a>
</g>
</g>
<!-- Node4&#45;&gt;Node15 -->
<g id="edge7" class="edge"><title>Node4&#45;&gt;Node15</title>
<path fill="none" stroke="midnightblue" d="M45.974,-154.496C57.2759,-137.22 83.4147,-100.473 114,-79 116.703,-77.1023 119.57,-75.3238 122.533,-73.6608"/>
<polygon fill="midnightblue" stroke="midnightblue" points="124.33,-76.6737 131.65,-69.0147 121.151,-70.4369 124.33,-76.6737"/>
</g>
<!-- Node16 -->
<g id="node9" class="node"><title>Node16</title>
<g id="a_node9"><a xlink:href="x4m0x__s70_2xtio__gpio_8c.xhtml#a1566a8e0975122b9e8f51bdbe5a70582" target="_top" xlink:title="xtio_irq_init">
<polygon fill="white" stroke="red" points="144,-0.5 144,-19.5 215,-19.5 215,-0.5 144,-0.5"/>
<text text-anchor="middle" x="179.5" y="-7.5" font-family="Helvetica,sans-Serif" font-size="10.00">xtio_irq_init</text>
</a>
</g>
</g>
<!-- Node4&#45;&gt;Node16 -->
<g id="edge8" class="edge"><title>Node4&#45;&gt;Node16</title>
<path fill="none" stroke="midnightblue" d="M42.6109,-154.26C49.7161,-129.635 71.7566,-64.4028 114,-30 119.875,-25.2156 126.894,-21.5722 134.105,-18.7987"/>
<polygon fill="midnightblue" stroke="midnightblue" points="135.577,-21.9982 143.968,-15.5302 133.375,-15.3535 135.577,-21.9982"/>
</g>
</g>
</svg>
