<?xml version="1.0" encoding="UTF-8" standalone="no"?>
<!DOCTYPE svg PUBLIC "-//W3C//DTD SVG 1.1//EN"
 "http://www.w3.org/Graphics/SVG/1.1/DTD/svg11.dtd">
<!-- Generated by graphviz version 2.38.0 (20140413.2041)
 -->
<!-- Title: src/hal/x4m0x_s70/hal_board_init.c Pages: 1 -->
<svg width="930pt" height="207pt"
 viewBox="0.00 0.00 930.01 207.00" xmlns="http://www.w3.org/2000/svg" xmlns:xlink="http://www.w3.org/1999/xlink">
<g id="graph0" class="graph" transform="scale(1 1) rotate(0) translate(4 203)">
<title>src/hal/x4m0x_s70/hal_board_init.c</title>
<polygon fill="white" stroke="none" points="-4,4 -4,-203 926.011,-203 926.011,4 -4,4"/>
<!-- Node0 -->
<g id="node1" class="node"><title>Node0</title>
<polygon fill="#bfbfbf" stroke="black" points="321.011,-168.5 321.011,-198.5 444.011,-198.5 444.011,-168.5 321.011,-168.5"/>
<text text-anchor="start" x="329.011" y="-186.5" font-family="Helvetica,sans-Serif" font-size="10.00">src/hal/x4m0x_s70/hal</text>
<text text-anchor="middle" x="382.511" y="-175.5" font-family="Helvetica,sans-Serif" font-size="10.00">_board_init.c</text>
</g>
<!-- Node1 -->
<g id="node2" class="node"><title>Node1</title>
<g id="a_node2"><a xlink:href="asf_8h.xhtml" target="_top" xlink:title="Autogenerated API include file for the Atmel Software Framework (ASF) ">
<polygon fill="white" stroke="red" points="170.011,-112.5 170.011,-131.5 209.011,-131.5 209.011,-112.5 170.011,-112.5"/>
<text text-anchor="middle" x="189.511" y="-119.5" font-family="Helvetica,sans-Serif" font-size="10.00">asf.h</text>
</a>
</g>
</g>
<!-- Node0&#45;&gt;Node1 -->
<g id="edge1" class="edge"><title>Node0&#45;&gt;Node1</title>
<path fill="none" stroke="midnightblue" d="M336.772,-168.399C300.318,-157.161 250.353,-141.757 219.01,-132.094"/>
<polygon fill="midnightblue" stroke="midnightblue" points="219.728,-128.653 209.14,-129.052 217.665,-135.342 219.728,-128.653"/>
</g>
<!-- Node2 -->
<g id="node3" class="node"><title>Node2</title>
<polygon fill="white" stroke="#bfbfbf" points="14.5107,-56.5 14.5107,-75.5 80.5107,-75.5 80.5107,-56.5 14.5107,-56.5"/>
<text text-anchor="middle" x="47.5107" y="-63.5" font-family="Helvetica,sans-Serif" font-size="10.00">compiler.h</text>
</g>
<!-- Node0&#45;&gt;Node2 -->
<g id="edge14" class="edge"><title>Node0&#45;&gt;Node2</title>
<path fill="none" stroke="midnightblue" d="M320.994,-176.757C270.563,-170.413 198.195,-157.506 139.511,-132 110.842,-119.54 82.1065,-97.2985 64.5649,-82.3484"/>
<polygon fill="midnightblue" stroke="midnightblue" points="66.7403,-79.6016 56.902,-75.6697 62.141,-84.8786 66.7403,-79.6016"/>
</g>
<!-- Node4 -->
<g id="node4" class="node"><title>Node4</title>
<g id="a_node4"><a xlink:href="board_8h.xhtml" target="_top" xlink:title="User board definition template. ">
<polygon fill="white" stroke="red" points="268.011,-56.5 268.011,-75.5 321.011,-75.5 321.011,-56.5 268.011,-56.5"/>
<text text-anchor="middle" x="294.511" y="-63.5" font-family="Helvetica,sans-Serif" font-size="10.00">board.h</text>
</a>
</g>
</g>
<!-- Node0&#45;&gt;Node4 -->
<g id="edge10" class="edge"><title>Node0&#45;&gt;Node4</title>
<path fill="none" stroke="midnightblue" d="M365.317,-168.15C354.522,-158.603 340.755,-145.395 330.511,-132 319.27,-117.302 309.324,-98.669 302.75,-85.1244"/>
<polygon fill="midnightblue" stroke="midnightblue" points="305.839,-83.4675 298.416,-75.9082 299.505,-86.4469 305.839,-83.4675"/>
</g>
<!-- Node5 -->
<g id="node5" class="node"><title>Node5</title>
<g id="a_node5"><a xlink:href="conf__board_8h.xhtml" target="_top" xlink:title="User board configuration template. ">
<polygon fill="white" stroke="black" points="282.011,-0.5 282.011,-19.5 361.011,-19.5 361.011,-0.5 282.011,-0.5"/>
<text text-anchor="middle" x="321.511" y="-7.5" font-family="Helvetica,sans-Serif" font-size="10.00">conf_board.h</text>
</a>
</g>
</g>
<!-- Node0&#45;&gt;Node5 -->
<g id="edge11" class="edge"><title>Node0&#45;&gt;Node5</title>
<path fill="none" stroke="midnightblue" d="M377.519,-168.465C366.53,-137.57 340.252,-63.6899 328.002,-29.2509"/>
<polygon fill="midnightblue" stroke="midnightblue" points="331.204,-27.8085 324.555,-19.5597 324.609,-30.1544 331.204,-27.8085"/>
</g>
<!-- Node7 -->
<g id="node6" class="node"><title>Node7</title>
<polygon fill="white" stroke="#bfbfbf" points="160.511,-0.5 160.511,-19.5 200.511,-19.5 200.511,-0.5 160.511,-0.5"/>
<text text-anchor="middle" x="180.511" y="-7.5" font-family="Helvetica,sans-Serif" font-size="10.00">pio.h</text>
</g>
<!-- Node0&#45;&gt;Node7 -->
<g id="edge13" class="edge"><title>Node0&#45;&gt;Node7</title>
<path fill="none" stroke="midnightblue" d="M320.902,-177.803C262.637,-171.9 173.498,-159.05 100.511,-132 54.5535,-114.968 29.8245,-118.556 5.51071,-76 -25.8961,-21.0291 92.5212,-12.1034 150.402,-10.9598"/>
<polygon fill="midnightblue" stroke="midnightblue" points="150.502,-14.4589 160.455,-10.8275 150.41,-7.45951 150.502,-14.4589"/>
</g>
<!-- Node8 -->
<g id="node7" class="node"><title>Node8</title>
<g id="a_node7"><a xlink:href="xep__hal_8h.xhtml" target="_top" xlink:title="Brief description. ">
<polygon fill="white" stroke="red" points="423.511,-0.5 423.511,-19.5 485.511,-19.5 485.511,-0.5 423.511,-0.5"/>
<text text-anchor="middle" x="454.511" y="-7.5" font-family="Helvetica,sans-Serif" font-size="10.00">xep_hal.h</text>
</a>
</g>
</g>
<!-- Node0&#45;&gt;Node8 -->
<g id="edge17" class="edge"><title>Node0&#45;&gt;Node8</title>
<path fill="none" stroke="midnightblue" d="M385.344,-168.431C388.472,-153.989 394.069,-131.004 401.511,-112 413.494,-81.3987 432.215,-48.0265 443.901,-28.337"/>
<polygon fill="midnightblue" stroke="midnightblue" points="446.997,-29.981 449.155,-19.6084 440.999,-26.3708 446.997,-29.981"/>
</g>
<!-- Node26 -->
<g id="node8" class="node"><title>Node26</title>
<polygon fill="white" stroke="#bfbfbf" points="99.0107,-56.5 99.0107,-75.5 152.011,-75.5 152.011,-56.5 99.0107,-56.5"/>
<text text-anchor="middle" x="125.511" y="-63.5" font-family="Helvetica,sans-Serif" font-size="10.00">ioport.h</text>
</g>
<!-- Node0&#45;&gt;Node26 -->
<g id="edge12" class="edge"><title>Node0&#45;&gt;Node26</title>
<path fill="none" stroke="midnightblue" d="M320.704,-181.927C272.641,-178.527 206.6,-167.056 160.511,-132 145.243,-120.387 135.864,-100.135 130.707,-85.3147"/>
<polygon fill="midnightblue" stroke="midnightblue" points="134.017,-84.1717 127.674,-75.6848 127.34,-86.2744 134.017,-84.1717"/>
</g>
<!-- Node33 -->
<g id="node9" class="node"><title>Node33</title>
<polygon fill="white" stroke="#bfbfbf" points="209.011,-56.5 209.011,-75.5 250.011,-75.5 250.011,-56.5 209.011,-56.5"/>
<text text-anchor="middle" x="229.511" y="-63.5" font-family="Helvetica,sans-Serif" font-size="10.00">fpu.h</text>
</g>
<!-- Node0&#45;&gt;Node33 -->
<g id="edge25" class="edge"><title>Node0&#45;&gt;Node33</title>
<path fill="none" stroke="midnightblue" d="M363.405,-168.422C349.747,-158.332 330.952,-144.39 314.511,-132 291.896,-114.957 266.077,-95.1653 248.887,-81.9402"/>
<polygon fill="midnightblue" stroke="midnightblue" points="250.805,-79.0001 240.747,-75.6722 246.535,-84.5464 250.805,-79.0001"/>
</g>
<!-- Node51 -->
<g id="node10" class="node"><title>Node51</title>
<polygon fill="white" stroke="#bfbfbf" points="411.011,-112.5 411.011,-131.5 506.011,-131.5 506.011,-112.5 411.011,-112.5"/>
<text text-anchor="middle" x="458.511" y="-119.5" font-family="Helvetica,sans-Serif" font-size="10.00">freertos_xdma.h</text>
</g>
<!-- Node0&#45;&gt;Node51 -->
<g id="edge15" class="edge"><title>Node0&#45;&gt;Node51</title>
<path fill="none" stroke="midnightblue" d="M400.522,-168.399C412.248,-159.218 427.526,-147.258 439.456,-137.918"/>
<polygon fill="midnightblue" stroke="midnightblue" points="441.736,-140.578 447.452,-131.658 437.42,-135.066 441.736,-140.578"/>
</g>
<!-- Node52 -->
<g id="node11" class="node"><title>Node52</title>
<g id="a_node11"><a xlink:href="hal__board__init_8h.xhtml" target="_top" xlink:title="Local header file for xtio functions. ">
<polygon fill="white" stroke="black" points="524.511,-112.5 524.511,-131.5 616.511,-131.5 616.511,-112.5 524.511,-112.5"/>
<text text-anchor="middle" x="570.511" y="-119.5" font-family="Helvetica,sans-Serif" font-size="10.00">hal_board_init.h</text>
</a>
</g>
</g>
<!-- Node0&#45;&gt;Node52 -->
<g id="edge16" class="edge"><title>Node0&#45;&gt;Node52</title>
<path fill="none" stroke="midnightblue" d="M427.064,-168.399C459.55,-158.118 503.05,-144.351 533.6,-134.682"/>
<polygon fill="midnightblue" stroke="midnightblue" points="534.952,-137.925 543.429,-131.571 532.839,-131.252 534.952,-137.925"/>
</g>
<!-- Node53 -->
<g id="node12" class="node"><title>Node53</title>
<g id="a_node12"><a xlink:href="xtio__extram_8h.xhtml" target="_top" xlink:title="Local header file for xtio functions. ">
<polygon fill="white" stroke="red" points="481.011,-56.5 481.011,-75.5 564.011,-75.5 564.011,-56.5 481.011,-56.5"/>
<text text-anchor="middle" x="522.511" y="-63.5" font-family="Helvetica,sans-Serif" font-size="10.00">xtio_extram.h</text>
</a>
</g>
</g>
<!-- Node0&#45;&gt;Node53 -->
<g id="edge18" class="edge"><title>Node0&#45;&gt;Node53</title>
<path fill="none" stroke="midnightblue" d="M444.292,-178.346C508.614,-172.583 603.077,-159.575 625.511,-132 645.636,-107.262 606.298,-89.1114 570.576,-78.373"/>
<polygon fill="midnightblue" stroke="midnightblue" points="571.226,-74.9186 560.649,-75.5414 569.305,-81.6502 571.226,-74.9186"/>
</g>
<!-- Node55 -->
<g id="node13" class="node"><title>Node55</title>
<g id="a_node13"><a xlink:href="x4m0x__s70_2xtio__gpio_8h.xhtml" target="_top" xlink:title="Local header file for xtio functions. ">
<polygon fill="white" stroke="black" points="615.511,-56.5 615.511,-75.5 683.511,-75.5 683.511,-56.5 615.511,-56.5"/>
<text text-anchor="middle" x="649.511" y="-63.5" font-family="Helvetica,sans-Serif" font-size="10.00">xtio_gpio.h</text>
</a>
</g>
</g>
<!-- Node0&#45;&gt;Node55 -->
<g id="edge20" class="edge"><title>Node0&#45;&gt;Node55</title>
<path fill="none" stroke="midnightblue" d="M444.285,-178.654C512.236,-173.062 615.309,-160.106 641.511,-132 652.767,-119.925 653.829,-100.64 652.639,-86.2061"/>
<polygon fill="midnightblue" stroke="midnightblue" points="656.064,-85.3912 651.354,-75.9013 649.118,-86.2577 656.064,-85.3912"/>
</g>
<!-- Node56 -->
<g id="node14" class="node"><title>Node56</title>
<g id="a_node14"><a xlink:href="xt__selftest_8h.xhtml" target="_top" xlink:title="xt_selftest.h">
<polygon fill="white" stroke="black" points="711.011,-112.5 711.011,-131.5 786.011,-131.5 786.011,-112.5 711.011,-112.5"/>
<text text-anchor="middle" x="748.511" y="-119.5" font-family="Helvetica,sans-Serif" font-size="10.00">xt_selftest.h</text>
</a>
</g>
</g>
<!-- Node0&#45;&gt;Node56 -->
<g id="edge22" class="edge"><title>Node0&#45;&gt;Node56</title>
<path fill="none" stroke="midnightblue" d="M444.212,-172.799C507.556,-162.788 608.965,-146.615 696.511,-132 697.807,-131.784 699.121,-131.563 700.447,-131.34"/>
<polygon fill="midnightblue" stroke="midnightblue" points="701.473,-134.716 710.746,-129.591 700.301,-127.815 701.473,-134.716"/>
</g>
<!-- Node57 -->
<g id="node15" class="node"><title>Node57</title>
<polygon fill="white" stroke="#bfbfbf" points="804.011,-112.5 804.011,-131.5 857.011,-131.5 857.011,-112.5 804.011,-112.5"/>
<text text-anchor="middle" x="830.511" y="-119.5" font-family="Helvetica,sans-Serif" font-size="10.00">string.h</text>
</g>
<!-- Node0&#45;&gt;Node57 -->
<g id="edge23" class="edge"><title>Node0&#45;&gt;Node57</title>
<path fill="none" stroke="midnightblue" d="M444.122,-177.487C523.115,-170.499 664.422,-156.116 793.755,-132.134"/>
<polygon fill="midnightblue" stroke="midnightblue" points="794.656,-135.526 803.838,-130.24 793.364,-128.646 794.656,-135.526"/>
</g>
<!-- Node58 -->
<g id="node16" class="node"><title>Node58</title>
<polygon fill="white" stroke="#bfbfbf" points="875.011,-112.5 875.011,-131.5 922.011,-131.5 922.011,-112.5 875.011,-112.5"/>
<text text-anchor="middle" x="898.511" y="-119.5" font-family="Helvetica,sans-Serif" font-size="10.00">mpu.h</text>
</g>
<!-- Node0&#45;&gt;Node58 -->
<g id="edge24" class="edge"><title>Node0&#45;&gt;Node58</title>
<path fill="none" stroke="midnightblue" d="M444.123,-179.436C534.574,-174.199 708.636,-161.309 864.606,-132.087"/>
<polygon fill="midnightblue" stroke="midnightblue" points="865.682,-135.445 874.852,-130.138 864.374,-128.568 865.682,-135.445"/>
</g>
<!-- Node1&#45;&gt;Node2 -->
<g id="edge2" class="edge"><title>Node1&#45;&gt;Node2</title>
<path fill="none" stroke="midnightblue" d="M169.766,-113.492C146.418,-104.613 107.237,-89.7128 79.5311,-79.1768"/>
<polygon fill="midnightblue" stroke="midnightblue" points="80.4846,-75.7949 69.8935,-75.5118 77.9964,-82.3378 80.4846,-75.7949"/>
</g>
<!-- Node1&#45;&gt;Node4 -->
<g id="edge3" class="edge"><title>Node1&#45;&gt;Node4</title>
<path fill="none" stroke="midnightblue" d="M206.381,-112.324C223.219,-103.664 249.317,-90.2424 268.749,-80.249"/>
<polygon fill="midnightblue" stroke="midnightblue" points="270.39,-83.3405 277.683,-75.6545 267.189,-77.1155 270.39,-83.3405"/>
</g>
<!-- Node1&#45;&gt;Node7 -->
<g id="edge8" class="edge"><title>Node1&#45;&gt;Node7</title>
<path fill="none" stroke="midnightblue" d="M188.804,-112.368C187.352,-94.617 184.002,-53.6664 182.032,-29.5974"/>
<polygon fill="midnightblue" stroke="midnightblue" points="185.518,-29.2727 181.214,-19.5914 178.541,-29.8436 185.518,-29.2727"/>
</g>
<!-- Node1&#45;&gt;Node26 -->
<g id="edge7" class="edge"><title>Node1&#45;&gt;Node26</title>
<path fill="none" stroke="midnightblue" d="M179.228,-112.324C169.674,-104.263 155.231,-92.0765 143.726,-82.3695"/>
<polygon fill="midnightblue" stroke="midnightblue" points="145.881,-79.6076 135.981,-75.8339 141.366,-84.9577 145.881,-79.6076"/>
</g>
<!-- Node1&#45;&gt;Node33 -->
<g id="edge9" class="edge"><title>Node1&#45;&gt;Node33</title>
<path fill="none" stroke="midnightblue" d="M196.116,-112.083C201.766,-104.455 210.056,-93.2645 216.962,-83.9408"/>
<polygon fill="midnightblue" stroke="midnightblue" points="219.889,-85.87 223.028,-75.7511 214.264,-81.7034 219.889,-85.87"/>
</g>
<!-- Node4&#45;&gt;Node5 -->
<g id="edge4" class="edge"><title>Node4&#45;&gt;Node5</title>
<path fill="none" stroke="midnightblue" d="M298.969,-56.083C302.665,-48.6913 308.034,-37.9533 312.605,-28.8111"/>
<polygon fill="midnightblue" stroke="midnightblue" points="315.793,-30.2606 317.135,-19.7511 309.532,-27.1301 315.793,-30.2606"/>
</g>
<!-- Node4&#45;&gt;Node7 -->
<g id="edge5" class="edge"><title>Node4&#45;&gt;Node7</title>
<path fill="none" stroke="midnightblue" d="M276.447,-56.4435C257.936,-47.6751 228.93,-33.9355 207.655,-23.8579"/>
<polygon fill="midnightblue" stroke="midnightblue" points="209.026,-20.6343 198.49,-19.5164 206.029,-26.9604 209.026,-20.6343"/>
</g>
<!-- Node4&#45;&gt;Node8 -->
<g id="edge6" class="edge"><title>Node4&#45;&gt;Node8</title>
<path fill="none" stroke="midnightblue" d="M319.863,-56.4435C346.78,-47.3591 389.507,-32.9388 419.598,-22.7831"/>
<polygon fill="midnightblue" stroke="midnightblue" points="420.921,-26.0305 429.277,-19.5164 418.683,-19.3981 420.921,-26.0305"/>
</g>
<!-- Node53&#45;&gt;Node8 -->
<g id="edge19" class="edge"><title>Node53&#45;&gt;Node8</title>
<path fill="none" stroke="midnightblue" d="M511.585,-56.324C501.336,-48.1849 485.79,-35.8395 473.51,-26.0874"/>
<polygon fill="midnightblue" stroke="midnightblue" points="475.643,-23.3119 465.635,-19.8339 471.289,-28.7937 475.643,-23.3119"/>
</g>
<!-- Node55&#45;&gt;Node8 -->
<g id="edge21" class="edge"><title>Node55&#45;&gt;Node8</title>
<path fill="none" stroke="midnightblue" d="M618.612,-56.4435C585.237,-47.2011 531.917,-32.4356 495.162,-22.2572"/>
<polygon fill="midnightblue" stroke="midnightblue" points="495.836,-18.8122 485.264,-19.5164 493.968,-25.5583 495.836,-18.8122"/>
</g>
</g>
</svg>
