<?xml version="1.0" encoding="UTF-8" standalone="no"?>
<!DOCTYPE svg PUBLIC "-//W3C//DTD SVG 1.1//EN"
 "http://www.w3.org/Graphics/SVG/1.1/DTD/svg11.dtd">
<!-- Generated by graphviz version 2.38.0 (20140413.2041)
 -->
<!-- Title: pvPortMalloc Pages: 1 -->
<svg width="262pt" height="104pt"
 viewBox="0.00 0.00 262.00 104.00" xmlns="http://www.w3.org/2000/svg" xmlns:xlink="http://www.w3.org/1999/xlink">
<g id="graph0" class="graph" transform="scale(1 1) rotate(0) translate(4 100)">
<title>pvPortMalloc</title>
<polygon fill="white" stroke="none" points="-4,4 -4,-100 258,-100 258,4 -4,4"/>
<!-- Node60 -->
<g id="node1" class="node"><title>Node60</title>
<polygon fill="#bfbfbf" stroke="black" points="0,-38.5 0,-57.5 77,-57.5 77,-38.5 0,-38.5"/>
<text text-anchor="middle" x="38.5" y="-45.5" font-family="Helvetica,sans-Serif" font-size="10.00">pvPortMalloc</text>
</g>
<!-- Node61 -->
<g id="node2" class="node"><title>Node61</title>
<g id="a_node2"><a xlink:href="xt__new__delete_8cpp.xhtml#a205ed048fdf5259c2e8e0cb60ee8f719" target="_top" xlink:title="operator new">
<polygon fill="white" stroke="black" points="143.5,-76.5 143.5,-95.5 223.5,-95.5 223.5,-76.5 143.5,-76.5"/>
<text text-anchor="middle" x="183.5" y="-83.5" font-family="Helvetica,sans-Serif" font-size="10.00">operator new</text>
</a>
</g>
</g>
<!-- Node60&#45;&gt;Node61 -->
<g id="edge1" class="edge"><title>Node60&#45;&gt;Node61</title>
<path fill="none" stroke="midnightblue" d="M85.3133,-60.1742C105.087,-65.4287 127.884,-71.4866 146.427,-76.4141"/>
<polygon fill="midnightblue" stroke="midnightblue" points="86.1484,-56.7747 75.5849,-57.589 84.3506,-63.5399 86.1484,-56.7747"/>
</g>
<!-- Node62 -->
<g id="node3" class="node"><title>Node62</title>
<g id="a_node3"><a xlink:href="xt__new__delete_8cpp.xhtml#a63ce4f64887b9307317aee5baae6b18f" target="_top" xlink:title="operator new[]">
<polygon fill="white" stroke="black" points="140,-38.5 140,-57.5 227,-57.5 227,-38.5 140,-38.5"/>
<text text-anchor="middle" x="183.5" y="-45.5" font-family="Helvetica,sans-Serif" font-size="10.00">operator new[]</text>
</a>
</g>
</g>
<!-- Node60&#45;&gt;Node62 -->
<g id="edge2" class="edge"><title>Node60&#45;&gt;Node62</title>
<path fill="none" stroke="midnightblue" d="M87.353,-48C104.347,-48 123.349,-48 139.877,-48"/>
<polygon fill="midnightblue" stroke="midnightblue" points="87.0716,-44.5001 77.0716,-48 87.0715,-51.5001 87.0716,-44.5001"/>
</g>
<!-- Node63 -->
<g id="node4" class="node"><title>Node63</title>
<g id="a_node4"><a xlink:href="xtmemory__xep_8c.xhtml#ac094f55ba76fe2ae6e6b584f62ede7e0" target="_top" xlink:title="Allocate memory from default location. ">
<polygon fill="white" stroke="red" points="113,-0.5 113,-19.5 254,-19.5 254,-0.5 113,-0.5"/>
<text text-anchor="middle" x="183.5" y="-7.5" font-family="Helvetica,sans-Serif" font-size="10.00">xtmemory_malloc_default</text>
</a>
</g>
</g>
<!-- Node60&#45;&gt;Node63 -->
<g id="edge3" class="edge"><title>Node60&#45;&gt;Node63</title>
<path fill="none" stroke="midnightblue" d="M85.3133,-35.8258C105.087,-30.5713 127.884,-24.5134 146.427,-19.5859"/>
<polygon fill="midnightblue" stroke="midnightblue" points="84.3506,-32.4601 75.5849,-38.411 86.1484,-39.2253 84.3506,-32.4601"/>
</g>
</g>
</svg>
