<?xml version="1.0" encoding="UTF-8" standalone="no"?>
<!DOCTYPE svg PUBLIC "-//W3C//DTD SVG 1.1//EN"
 "http://www.w3.org/Graphics/SVG/1.1/DTD/svg11.dtd">
<!-- Generated by graphviz version 2.38.0 (20140413.2041)
 -->
<!-- Title: vPortFree Pages: 1 -->
<svg width="234pt" height="104pt"
 viewBox="0.00 0.00 234.00 104.00" xmlns="http://www.w3.org/2000/svg" xmlns:xlink="http://www.w3.org/1999/xlink">
<g id="graph0" class="graph" transform="scale(1 1) rotate(0) translate(4 100)">
<title>vPortFree</title>
<polygon fill="white" stroke="none" points="-4,4 -4,-100 230,-100 230,4 -4,4"/>
<!-- Node85 -->
<g id="node1" class="node"><title>Node85</title>
<polygon fill="#bfbfbf" stroke="black" points="0,-38.5 0,-57.5 62,-57.5 62,-38.5 0,-38.5"/>
<text text-anchor="middle" x="31" y="-45.5" font-family="Helvetica,sans-Serif" font-size="10.00">vPortFree</text>
</g>
<!-- Node86 -->
<g id="node2" class="node"><title>Node86</title>
<g id="a_node2"><a xlink:href="xt__new__delete_8cpp.xhtml#a86107594327f3a001230df9802cd4422" target="_top" xlink:title="operator delete">
<polygon fill="white" stroke="black" points="116.5,-76.5 116.5,-95.5 207.5,-95.5 207.5,-76.5 116.5,-76.5"/>
<text text-anchor="middle" x="162" y="-83.5" font-family="Helvetica,sans-Serif" font-size="10.00">operator delete</text>
</a>
</g>
</g>
<!-- Node85&#45;&gt;Node86 -->
<g id="edge1" class="edge"><title>Node85&#45;&gt;Node86</title>
<path fill="none" stroke="midnightblue" d="M72.006,-59.7847C90.2253,-65.1516 111.507,-71.4206 128.69,-76.4822"/>
<polygon fill="midnightblue" stroke="midnightblue" points="72.8263,-56.3777 62.2448,-56.9093 70.8482,-63.0924 72.8263,-56.3777"/>
</g>
<!-- Node87 -->
<g id="node3" class="node"><title>Node87</title>
<g id="a_node3"><a xlink:href="xt__new__delete_8cpp.xhtml#aaa8d8403dca7d813a59dd1f07728349d" target="_top" xlink:title="operator delete[]">
<polygon fill="white" stroke="black" points="113,-38.5 113,-57.5 211,-57.5 211,-38.5 113,-38.5"/>
<text text-anchor="middle" x="162" y="-45.5" font-family="Helvetica,sans-Serif" font-size="10.00">operator delete[]</text>
</a>
</g>
</g>
<!-- Node85&#45;&gt;Node87 -->
<g id="edge2" class="edge"><title>Node85&#45;&gt;Node87</title>
<path fill="none" stroke="midnightblue" d="M72.566,-48C85.3243,-48 99.5386,-48 112.775,-48"/>
<polygon fill="midnightblue" stroke="midnightblue" points="72.2448,-44.5001 62.2448,-48 72.2447,-51.5001 72.2448,-44.5001"/>
</g>
<!-- Node88 -->
<g id="node4" class="node"><title>Node88</title>
<g id="a_node4"><a xlink:href="xtmemory__xep_8c.xhtml#a7e516b79f5a147905446ff71d1fc98fb" target="_top" xlink:title="Free memory allocated by xtmemory_malloc_default. ">
<polygon fill="white" stroke="red" points="98,-0.5 98,-19.5 226,-19.5 226,-0.5 98,-0.5"/>
<text text-anchor="middle" x="162" y="-7.5" font-family="Helvetica,sans-Serif" font-size="10.00">xtmemory_free_default</text>
</a>
</g>
</g>
<!-- Node85&#45;&gt;Node88 -->
<g id="edge3" class="edge"><title>Node85&#45;&gt;Node88</title>
<path fill="none" stroke="midnightblue" d="M72.006,-36.2153C90.2253,-30.8484 111.507,-24.5794 128.69,-19.5178"/>
<polygon fill="midnightblue" stroke="midnightblue" points="70.8482,-32.9076 62.2448,-39.0907 72.8263,-39.6223 70.8482,-32.9076"/>
</g>
</g>
</svg>
