<?xml version="1.0" encoding="UTF-8" standalone="no"?>
<!DOCTYPE svg PUBLIC "-//W3C//DTD SVG 1.1//EN"
 "http://www.w3.org/Graphics/SVG/1.1/DTD/svg11.dtd">
<!-- Generated by graphviz version 2.38.0 (20140413.2041)
 -->
<!-- Title: main Pages: 1 -->
<svg width="198pt" height="256pt"
 viewBox="0.00 0.00 198.00 256.00" xmlns="http://www.w3.org/2000/svg" xmlns:xlink="http://www.w3.org/1999/xlink">
<g id="graph0" class="graph" transform="scale(1 1) rotate(0) translate(4 252)">
<title>main</title>
<polygon fill="white" stroke="none" points="-4,4 -4,-252 194,-252 194,4 -4,4"/>
<!-- Node10 -->
<g id="node1" class="node"><title>Node10</title>
<polygon fill="#bfbfbf" stroke="black" points="0,-114.5 0,-133.5 41,-133.5 41,-114.5 0,-114.5"/>
<text text-anchor="middle" x="20.5" y="-121.5" font-family="Helvetica,sans-Serif" font-size="10.00">main</text>
</g>
<!-- Node11 -->
<g id="node2" class="node"><title>Node11</title>
<g id="a_node2"><a xlink:href="main_8c.xhtml#a11f8bcc8dcadf7a290c3e20e6d402321" target="_top" xlink:title="_getpid">
<polygon fill="white" stroke="black" points="107.5,-228.5 107.5,-247.5 159.5,-247.5 159.5,-228.5 107.5,-228.5"/>
<text text-anchor="middle" x="133.5" y="-235.5" font-family="Helvetica,sans-Serif" font-size="10.00">_getpid</text>
</a>
</g>
</g>
<!-- Node10&#45;&gt;Node11 -->
<g id="edge1" class="edge"><title>Node10&#45;&gt;Node11</title>
<path fill="none" stroke="midnightblue" d="M24.5423,-133.592C31.0622,-152.636 48.1772,-195.407 77,-219 82.9599,-223.878 90.2419,-227.533 97.5448,-230.26"/>
<polygon fill="midnightblue" stroke="midnightblue" points="96.8024,-233.698 107.394,-233.433 98.949,-227.036 96.8024,-233.698"/>
</g>
<!-- Node12 -->
<g id="node3" class="node"><title>Node12</title>
<g id="a_node3"><a xlink:href="xep__hal_8h.xhtml#afed868f7f00e42b1e2ad4914f557d5b4" target="_top" xlink:title="Initiate extended HW functionality on HW board and MCU. ">
<polygon fill="white" stroke="red" points="84.5,-190.5 84.5,-209.5 182.5,-209.5 182.5,-190.5 84.5,-190.5"/>
<text text-anchor="middle" x="133.5" y="-197.5" font-family="Helvetica,sans-Serif" font-size="10.00">xt_board_init_ext</text>
</a>
</g>
</g>
<!-- Node10&#45;&gt;Node12 -->
<g id="edge2" class="edge"><title>Node10&#45;&gt;Node12</title>
<path fill="none" stroke="midnightblue" d="M28.6845,-133.842C38.3512,-146.433 56.693,-168.147 77,-181 80.1545,-182.997 83.5435,-184.811 87.0352,-186.454"/>
<polygon fill="midnightblue" stroke="midnightblue" points="85.8529,-189.754 96.4273,-190.413 88.5717,-183.304 85.8529,-189.754"/>
</g>
<!-- Node15 -->
<g id="node4" class="node"><title>Node15</title>
<g id="a_node4"><a xlink:href="xep__hal_8h.xhtml#aea9d8137a0fddb8ed22f14f318dfec4f" target="_top" xlink:title="Set LED state. ">
<polygon fill="white" stroke="red" points="81.5,-152.5 81.5,-171.5 185.5,-171.5 185.5,-152.5 81.5,-152.5"/>
<text text-anchor="middle" x="133.5" y="-159.5" font-family="Helvetica,sans-Serif" font-size="10.00">xtio_led_set_state</text>
</a>
</g>
</g>
<!-- Node10&#45;&gt;Node15 -->
<g id="edge3" class="edge"><title>Node10&#45;&gt;Node15</title>
<path fill="none" stroke="midnightblue" d="M41.0891,-130.706C55.8978,-135.776 76.6844,-142.892 94.6945,-149.058"/>
<polygon fill="midnightblue" stroke="midnightblue" points="93.7643,-152.438 104.359,-152.366 96.0315,-145.816 93.7643,-152.438"/>
</g>
<!-- Node17 -->
<g id="node5" class="node"><title>Node17</title>
<g id="a_node5"><a xlink:href="xep__application_8c.xhtml#a5bb46ff10029dcede1e47eefdaa5732f" target="_top" xlink:title="Initialize module application instance. ">
<polygon fill="white" stroke="red" points="107,-114.5 107,-133.5 160,-133.5 160,-114.5 107,-114.5"/>
<text text-anchor="middle" x="133.5" y="-121.5" font-family="Helvetica,sans-Serif" font-size="10.00">xep_init</text>
</a>
</g>
</g>
<!-- Node10&#45;&gt;Node17 -->
<g id="edge4" class="edge"><title>Node10&#45;&gt;Node17</title>
<path fill="none" stroke="midnightblue" d="M41.0891,-124C56.4565,-124 78.2613,-124 96.7205,-124"/>
<polygon fill="midnightblue" stroke="midnightblue" points="96.8481,-127.5 106.848,-124 96.8481,-120.5 96.8481,-127.5"/>
</g>
<!-- Node30 -->
<g id="node6" class="node"><title>Node30</title>
<g id="a_node6"><a xlink:href="task__radar_8c.xhtml#a8e1bd6586c853a5ad3fd6df6c3b930bf" target="_top" xlink:title="Initialize Radar task. ">
<polygon fill="white" stroke="red" points="90,-76.5 90,-95.5 177,-95.5 177,-76.5 90,-76.5"/>
<text text-anchor="middle" x="133.5" y="-83.5" font-family="Helvetica,sans-Serif" font-size="10.00">task_radar_init</text>
</a>
</g>
</g>
<!-- Node10&#45;&gt;Node30 -->
<g id="edge5" class="edge"><title>Node10&#45;&gt;Node30</title>
<path fill="none" stroke="midnightblue" d="M41.0891,-117.294C55.8978,-112.224 76.6844,-105.108 94.6945,-98.9424"/>
<polygon fill="midnightblue" stroke="midnightblue" points="96.0315,-102.184 104.359,-95.6339 93.7643,-95.5615 96.0315,-102.184"/>
</g>
<!-- Node157 -->
<g id="node7" class="node"><title>Node157</title>
<g id="a_node7"><a xlink:href="task__hostcom_8c.xhtml#a6c9b12d865c55daa244e191b2efb7ca1" target="_top" xlink:title="task_hostcom_init">
<polygon fill="white" stroke="red" points="81.5,-38.5 81.5,-57.5 185.5,-57.5 185.5,-38.5 81.5,-38.5"/>
<text text-anchor="middle" x="133.5" y="-45.5" font-family="Helvetica,sans-Serif" font-size="10.00">task_hostcom_init</text>
</a>
</g>
</g>
<!-- Node10&#45;&gt;Node157 -->
<g id="edge6" class="edge"><title>Node10&#45;&gt;Node157</title>
<path fill="none" stroke="midnightblue" d="M28.6845,-114.158C38.3512,-101.567 56.693,-79.853 77,-67 80.1545,-65.0034 83.5435,-63.1891 87.0352,-61.5457"/>
<polygon fill="midnightblue" stroke="midnightblue" points="88.5717,-64.6963 96.4273,-57.5872 85.8529,-58.2459 88.5717,-64.6963"/>
</g>
<!-- Node180 -->
<g id="node8" class="node"><title>Node180</title>
<g id="a_node8"><a xlink:href="xep__application_8c.xhtml#a6b62d4598b48167a0a9ca6e6896b2fff" target="_top" xlink:title="Initialize Application task. ">
<polygon fill="white" stroke="red" points="77,-0.5 77,-19.5 190,-19.5 190,-0.5 77,-0.5"/>
<text text-anchor="middle" x="133.5" y="-7.5" font-family="Helvetica,sans-Serif" font-size="10.00">task_application_init</text>
</a>
</g>
</g>
<!-- Node10&#45;&gt;Node180 -->
<g id="edge7" class="edge"><title>Node10&#45;&gt;Node180</title>
<path fill="none" stroke="midnightblue" d="M24.5423,-114.408C31.0622,-95.364 48.1772,-52.593 77,-29 79.1426,-27.2462 81.4561,-25.6505 83.88,-24.1993"/>
<polygon fill="midnightblue" stroke="midnightblue" points="85.7009,-27.2001 93.0323,-19.5516 82.5314,-20.9588 85.7009,-27.2001"/>
</g>
</g>
</svg>
