<?xml version="1.0" encoding="UTF-8" standalone="no"?>
<!DOCTYPE svg PUBLIC "-//W3C//DTD SVG 1.1//EN"
 "http://www.w3.org/Graphics/SVG/1.1/DTD/svg11.dtd">
<!-- Generated by graphviz version 2.38.0 (20140413.2041)
 -->
<!-- Title: src/main.c Pages: 1 -->
<svg width="746pt" height="84pt"
 viewBox="0.00 0.00 746.00 84.00" xmlns="http://www.w3.org/2000/svg" xmlns:xlink="http://www.w3.org/1999/xlink">
<g id="graph0" class="graph" transform="scale(1 1) rotate(0) translate(4 80)">
<title>src/main.c</title>
<polygon fill="white" stroke="none" points="-4,4 -4,-80 742,-80 742,4 -4,4"/>
<!-- Node0 -->
<g id="node1" class="node"><title>Node0</title>
<polygon fill="#bfbfbf" stroke="black" points="306.5,-56.5 306.5,-75.5 372.5,-75.5 372.5,-56.5 306.5,-56.5"/>
<text text-anchor="middle" x="339.5" y="-63.5" font-family="Helvetica,sans-Serif" font-size="10.00">src/main.c</text>
</g>
<!-- Node1 -->
<g id="node2" class="node"><title>Node1</title>
<polygon fill="white" stroke="#bfbfbf" points="0,-0.5 0,-19.5 71,-19.5 71,-0.5 0,-0.5"/>
<text text-anchor="middle" x="35.5" y="-7.5" font-family="Helvetica,sans-Serif" font-size="10.00">FreeRTOS.h</text>
</g>
<!-- Node0&#45;&gt;Node1 -->
<g id="edge1" class="edge"><title>Node0&#45;&gt;Node1</title>
<path fill="none" stroke="midnightblue" d="M306.335,-59.5145C258.852,-51.6003 168.504,-36.3187 81.3994,-20.1297"/>
<polygon fill="midnightblue" stroke="midnightblue" points="81.8178,-16.6475 71.3455,-18.2543 80.5341,-23.5288 81.8178,-16.6475"/>
</g>
<!-- Node2 -->
<g id="node3" class="node"><title>Node2</title>
<polygon fill="white" stroke="#bfbfbf" points="89.5,-0.5 89.5,-19.5 135.5,-19.5 135.5,-0.5 89.5,-0.5"/>
<text text-anchor="middle" x="112.5" y="-7.5" font-family="Helvetica,sans-Serif" font-size="10.00">task.h</text>
</g>
<!-- Node0&#45;&gt;Node2 -->
<g id="edge2" class="edge"><title>Node0&#45;&gt;Node2</title>
<path fill="none" stroke="midnightblue" d="M306.261,-57.8324C269.332,-49.7587 207.712,-35.9609 145.52,-20.1706"/>
<polygon fill="midnightblue" stroke="midnightblue" points="146.092,-16.7045 135.537,-17.6198 144.359,-23.4866 146.092,-16.7045"/>
</g>
<!-- Node3 -->
<g id="node4" class="node"><title>Node3</title>
<g id="a_node4"><a xlink:href="xep__hal_8h.xhtml" target="_top" xlink:title="Brief description. ">
<polygon fill="white" stroke="red" points="153.5,-0.5 153.5,-19.5 215.5,-19.5 215.5,-0.5 153.5,-0.5"/>
<text text-anchor="middle" x="184.5" y="-7.5" font-family="Helvetica,sans-Serif" font-size="10.00">xep_hal.h</text>
</a>
</g>
</g>
<!-- Node0&#45;&gt;Node3 -->
<g id="edge3" class="edge"><title>Node0&#45;&gt;Node3</title>
<path fill="none" stroke="midnightblue" d="M314.94,-56.4435C288.977,-47.3986 247.832,-33.064 218.703,-22.9158"/>
<polygon fill="midnightblue" stroke="midnightblue" points="219.54,-19.5013 208.945,-19.5164 217.237,-26.1116 219.54,-19.5013"/>
</g>
<!-- Node6 -->
<g id="node5" class="node"><title>Node6</title>
<g id="a_node5"><a xlink:href="xep__application_8h.xhtml" target="_top" xlink:title="XEP Module application interface. ">
<polygon fill="white" stroke="red" points="233.5,-0.5 233.5,-19.5 333.5,-19.5 333.5,-0.5 233.5,-0.5"/>
<text text-anchor="middle" x="283.5" y="-7.5" font-family="Helvetica,sans-Serif" font-size="10.00">xep_application.h</text>
</a>
</g>
</g>
<!-- Node0&#45;&gt;Node6 -->
<g id="edge4" class="edge"><title>Node0&#45;&gt;Node6</title>
<path fill="none" stroke="midnightblue" d="M330.503,-56.324C322.306,-48.4196 309.994,-36.5482 300.028,-26.9377"/>
<polygon fill="midnightblue" stroke="midnightblue" points="302.289,-24.2558 292.661,-19.8339 297.43,-29.2947 302.289,-24.2558"/>
</g>
<!-- Node11 -->
<g id="node6" class="node"><title>Node11</title>
<g id="a_node6"><a xlink:href="task__monitor_8h.xhtml" target="_top" xlink:title="System monitor task. ">
<polygon fill="white" stroke="red" points="351.5,-0.5 351.5,-19.5 439.5,-19.5 439.5,-0.5 351.5,-0.5"/>
<text text-anchor="middle" x="395.5" y="-7.5" font-family="Helvetica,sans-Serif" font-size="10.00">task_monitor.h</text>
</a>
</g>
</g>
<!-- Node0&#45;&gt;Node11 -->
<g id="edge5" class="edge"><title>Node0&#45;&gt;Node11</title>
<path fill="none" stroke="midnightblue" d="M348.497,-56.324C356.694,-48.4196 369.006,-36.5482 378.972,-26.9377"/>
<polygon fill="midnightblue" stroke="midnightblue" points="381.57,-29.2947 386.339,-19.8339 376.711,-24.2558 381.57,-29.2947"/>
</g>
<!-- Node12 -->
<g id="node7" class="node"><title>Node12</title>
<g id="a_node7"><a xlink:href="task__hostcom_8h.xhtml" target="_top" xlink:title="task_hostcom.h">
<polygon fill="white" stroke="red" points="457,-0.5 457,-19.5 550,-19.5 550,-0.5 457,-0.5"/>
<text text-anchor="middle" x="503.5" y="-7.5" font-family="Helvetica,sans-Serif" font-size="10.00">task_hostcom.h</text>
</a>
</g>
</g>
<!-- Node0&#45;&gt;Node12 -->
<g id="edge6" class="edge"><title>Node0&#45;&gt;Node12</title>
<path fill="none" stroke="midnightblue" d="M365.486,-56.4435C393.196,-47.3196 437.252,-32.8133 468.116,-22.6509"/>
<polygon fill="midnightblue" stroke="midnightblue" points="469.232,-25.9684 477.635,-19.5164 467.042,-19.3196 469.232,-25.9684"/>
</g>
<!-- Node13 -->
<g id="node8" class="node"><title>Node13</title>
<g id="a_node8"><a xlink:href="task__radar_8h.xhtml" target="_top" xlink:title="Radar event task. ">
<polygon fill="white" stroke="red" points="568.5,-0.5 568.5,-19.5 644.5,-19.5 644.5,-0.5 568.5,-0.5"/>
<text text-anchor="middle" x="606.5" y="-7.5" font-family="Helvetica,sans-Serif" font-size="10.00">task_radar.h</text>
</a>
</g>
</g>
<!-- Node0&#45;&gt;Node13 -->
<g id="edge7" class="edge"><title>Node0&#45;&gt;Node13</title>
<path fill="none" stroke="midnightblue" d="M372.507,-58.3244C419.17,-48.8869 504.713,-31.5861 558.432,-20.7216"/>
<polygon fill="midnightblue" stroke="midnightblue" points="559.295,-24.118 568.403,-18.7051 557.907,-17.2569 559.295,-24.118"/>
</g>
<!-- Node14 -->
<g id="node9" class="node"><title>Node14</title>
<g id="a_node9"><a xlink:href="xtcompiler_8h.xhtml" target="_top" xlink:title="xtcompiler.h">
<polygon fill="white" stroke="black" points="663,-0.5 663,-19.5 738,-19.5 738,-0.5 663,-0.5"/>
<text text-anchor="middle" x="700.5" y="-7.5" font-family="Helvetica,sans-Serif" font-size="10.00">xtcompiler.h</text>
</a>
</g>
</g>
<!-- Node0&#45;&gt;Node14 -->
<g id="edge8" class="edge"><title>Node0&#45;&gt;Node14</title>
<path fill="none" stroke="midnightblue" d="M372.58,-60.7778C428.174,-53.5699 544.09,-38.0607 652.672,-20.0688"/>
<polygon fill="midnightblue" stroke="midnightblue" points="653.53,-23.4742 662.818,-18.3767 652.378,-16.5695 653.53,-23.4742"/>
</g>
</g>
</svg>
