<?xml version="1.0" encoding="UTF-8" standalone="no"?>
<!DOCTYPE svg PUBLIC "-//W3C//DTD SVG 1.1//EN"
 "http://www.w3.org/Graphics/SVG/1.1/DTD/svg11.dtd">
<!-- Generated by graphviz version 2.38.0 (20140413.2041)
 -->
<!-- Title: include/memorypool.h Pages: 1 -->
<svg width="312pt" height="84pt"
 viewBox="0.00 0.00 312.00 84.00" xmlns="http://www.w3.org/2000/svg" xmlns:xlink="http://www.w3.org/1999/xlink">
<g id="graph0" class="graph" transform="scale(1 1) rotate(0) translate(4 80)">
<title>include/memorypool.h</title>
<polygon fill="white" stroke="none" points="-4,4 -4,-80 308,-80 308,4 -4,4"/>
<!-- Node2 -->
<g id="node1" class="node"><title>Node2</title>
<polygon fill="#bfbfbf" stroke="black" points="87.5,-56.5 87.5,-75.5 210.5,-75.5 210.5,-56.5 87.5,-56.5"/>
<text text-anchor="middle" x="149" y="-63.5" font-family="Helvetica,sans-Serif" font-size="10.00">include/memorypool.h</text>
</g>
<!-- Node3 -->
<g id="node2" class="node"><title>Node3</title>
<g id="a_node2"><a xlink:href="memorypoolset_8h.xhtml" target="_top" xlink:title="Set of memory pools. ">
<polygon fill="white" stroke="red" points="0,-0.5 0,-19.5 138,-19.5 138,-0.5 0,-0.5"/>
<text text-anchor="middle" x="69" y="-7.5" font-family="Helvetica,sans-Serif" font-size="10.00">include/memorypoolset.h</text>
</a>
</g>
</g>
<!-- Node2&#45;&gt;Node3 -->
<g id="edge1" class="edge"><title>Node2&#45;&gt;Node3</title>
<path fill="none" stroke="midnightblue" d="M127.699,-50.6221C113.085,-40.7574 94.1732,-27.9919 81.8215,-19.6545"/>
<polygon fill="midnightblue" stroke="midnightblue" points="125.9,-53.6302 136.147,-56.324 129.816,-47.8282 125.9,-53.6302"/>
</g>
<!-- Node21 -->
<g id="node3" class="node"><title>Node21</title>
<g id="a_node3"><a xlink:href="memorypool_8c.xhtml" target="_top" xlink:title="src/Dispatch/memorypool.c">
<polygon fill="white" stroke="black" points="156,-0.5 156,-19.5 304,-19.5 304,-0.5 156,-0.5"/>
<text text-anchor="middle" x="230" y="-7.5" font-family="Helvetica,sans-Serif" font-size="10.00">src/Dispatch/memorypool.c</text>
</a>
</g>
</g>
<!-- Node2&#45;&gt;Node21 -->
<g id="edge2" class="edge"><title>Node2&#45;&gt;Node21</title>
<path fill="none" stroke="midnightblue" d="M170.567,-50.6221C185.364,-40.7574 204.512,-27.9919 217.018,-19.6545"/>
<polygon fill="midnightblue" stroke="midnightblue" points="168.393,-47.8647 162.014,-56.324 172.276,-53.6891 168.393,-47.8647"/>
</g>
</g>
</svg>
