<?xml version="1.0" encoding="UTF-8" standalone="no"?>
<!DOCTYPE svg PUBLIC "-//W3C//DTD SVG 1.1//EN"
 "http://www.w3.org/Graphics/SVG/1.1/DTD/svg11.dtd">
<!-- Generated by graphviz version 2.38.0 (20140413.2041)
 -->
<!-- Title: memorypoolset_take_auto Pages: 1 -->
<svg width="382pt" height="942pt"
 viewBox="0.00 0.00 382.00 942.00" xmlns="http://www.w3.org/2000/svg" xmlns:xlink="http://www.w3.org/1999/xlink">
<g id="graph0" class="graph" transform="scale(1 1) rotate(0) translate(4 938)">
<title>memorypoolset_take_auto</title>
<polygon fill="white" stroke="none" points="-4,4 -4,-938 378,-938 378,4 -4,4"/>
<!-- Node88 -->
<g id="node1" class="node"><title>Node88</title>
<polygon fill="#bfbfbf" stroke="black" points="0,-447 0,-466 146,-466 146,-447 0,-447"/>
<text text-anchor="middle" x="73" y="-454" font-family="Helvetica,sans-Serif" font-size="10.00">memorypoolset_take_auto</text>
</g>
<!-- Node89 -->
<g id="node2" class="node"><title>Node89</title>
<g id="a_node2"><a xlink:href="xep__dispatch_8c.xhtml#a715a18422cf4fa2c4d58b951770d25c7" target="_top" xlink:title="Request a memoryblock from the dispatch memory poolset. ">
<polygon fill="white" stroke="red" points="214,-903.5 214,-933.5 342,-933.5 342,-903.5 214,-903.5"/>
<text text-anchor="start" x="222" y="-921.5" font-family="Helvetica,sans-Serif" font-size="10.00">dispatch_get_message</text>
<text text-anchor="middle" x="278" y="-910.5" font-family="Helvetica,sans-Serif" font-size="10.00">_memoryblock</text>
</a>
</g>
</g>
<!-- Node88&#45;&gt;Node89 -->
<g id="edge1" class="edge"><title>Node88&#45;&gt;Node89</title>
<path fill="none" stroke="midnightblue" d="M76.1789,-476.218C85.0906,-553.345 121.202,-833.354 182,-894.5 190.636,-903.185 201.929,-908.884 213.701,-912.588"/>
<polygon fill="midnightblue" stroke="midnightblue" points="79.625,-475.543 75.0219,-466.001 72.6695,-476.331 79.625,-475.543"/>
</g>
<!-- Node99 -->
<g id="node3" class="node"><title>Node99</title>
<g id="a_node3"><a xlink:href="xep__dispatch__messages_8c.xhtml#a9b90f44cd5a4308e041a205a84fe4360" target="_top" xlink:title="Dispatch message to hostcom asking to send ack to host. ">
<polygon fill="white" stroke="red" points="201,-854.5 201,-884.5 355,-884.5 355,-854.5 201,-854.5"/>
<text text-anchor="start" x="209" y="-872.5" font-family="Helvetica,sans-Serif" font-size="10.00">dispatch_message_hostcom</text>
<text text-anchor="middle" x="278" y="-861.5" font-family="Helvetica,sans-Serif" font-size="10.00">_send_ack</text>
</a>
</g>
</g>
<!-- Node88&#45;&gt;Node99 -->
<g id="edge2" class="edge"><title>Node88&#45;&gt;Node99</title>
<path fill="none" stroke="midnightblue" d="M76.8428,-476.292C87.5156,-547.91 127.39,-792.151 182,-845.5 187.476,-850.849 193.962,-855.06 200.934,-858.366"/>
<polygon fill="midnightblue" stroke="midnightblue" points="80.2967,-475.722 75.3828,-466.335 73.3708,-476.737 80.2967,-475.722"/>
</g>
<!-- Node122 -->
<g id="node4" class="node"><title>Node122</title>
<g id="a_node4"><a xlink:href="xep__dispatch__messages_8c.xhtml#a441f9b844c9ffb78cfee8edbdb16717a" target="_top" xlink:title="Dispatch message to hostcom asking to send error to host. ">
<polygon fill="white" stroke="red" points="201,-805.5 201,-835.5 355,-835.5 355,-805.5 201,-805.5"/>
<text text-anchor="start" x="209" y="-823.5" font-family="Helvetica,sans-Serif" font-size="10.00">dispatch_message_hostcom</text>
<text text-anchor="middle" x="278" y="-812.5" font-family="Helvetica,sans-Serif" font-size="10.00">_send_error</text>
</a>
</g>
</g>
<!-- Node88&#45;&gt;Node122 -->
<g id="edge3" class="edge"><title>Node88&#45;&gt;Node122</title>
<path fill="none" stroke="midnightblue" d="M74.0199,-476.071C75.1907,-534.133 86.8875,-706.94 182,-796.5 187.449,-801.631 193.832,-805.708 200.666,-808.94"/>
<polygon fill="midnightblue" stroke="midnightblue" points="77.5194,-476.006 73.9044,-466.047 70.5199,-476.087 77.5194,-476.006"/>
</g>
<!-- Node134 -->
<g id="node5" class="node"><title>Node134</title>
<g id="a_node5"><a xlink:href="xep__dispatch__messages_8c.xhtml#afa0ac1843a7d040677a0c8a1b8f427e2" target="_top" xlink:title="Dispatch message to hostcom asking to send pong to host. ">
<polygon fill="white" stroke="red" points="201,-756.5 201,-786.5 355,-786.5 355,-756.5 201,-756.5"/>
<text text-anchor="start" x="209" y="-774.5" font-family="Helvetica,sans-Serif" font-size="10.00">dispatch_message_hostcom</text>
<text text-anchor="middle" x="278" y="-763.5" font-family="Helvetica,sans-Serif" font-size="10.00">_send_pong</text>
</a>
</g>
</g>
<!-- Node88&#45;&gt;Node134 -->
<g id="edge4" class="edge"><title>Node88&#45;&gt;Node134</title>
<path fill="none" stroke="midnightblue" d="M75.2405,-476.323C79.6346,-528.916 99.0421,-673.045 182,-747.5 187.57,-752.499 194.032,-756.489 200.915,-759.669"/>
<polygon fill="midnightblue" stroke="midnightblue" points="78.7075,-475.746 74.4801,-466.031 71.7265,-476.262 78.7075,-475.746"/>
</g>
<!-- Node136 -->
<g id="node6" class="node"><title>Node136</title>
<g id="a_node6"><a xlink:href="xep__dispatch__messages_8c.xhtml#a78bc3683d59a32cf768de5fe9603f162" target="_top" xlink:title="Dispatch message to hostcom asking to send profile data sleep to host. ">
<polygon fill="white" stroke="black" points="201,-707.5 201,-737.5 355,-737.5 355,-707.5 201,-707.5"/>
<text text-anchor="start" x="209" y="-725.5" font-family="Helvetica,sans-Serif" font-size="10.00">dispatch_message_hostcom</text>
<text text-anchor="middle" x="278" y="-714.5" font-family="Helvetica,sans-Serif" font-size="10.00">_send_appdata_sleep</text>
</a>
</g>
</g>
<!-- Node88&#45;&gt;Node136 -->
<g id="edge5" class="edge"><title>Node88&#45;&gt;Node136</title>
<path fill="none" stroke="midnightblue" d="M76.8577,-476.057C84.6684,-522.224 110.761,-638.588 182,-698.5 187.598,-703.208 193.996,-707.012 200.767,-710.082"/>
<polygon fill="midnightblue" stroke="midnightblue" points="80.3081,-475.468 75.2835,-466.14 73.3946,-476.565 80.3081,-475.468"/>
</g>
<!-- Node137 -->
<g id="node7" class="node"><title>Node137</title>
<g id="a_node7"><a xlink:href="xep__dispatch__messages_8c.xhtml#a9cb07cdec7df91dd4a8ede59b01a9fc0" target="_top" xlink:title="Dispatch message to hostcom asking to send profile data respiration to host. ">
<polygon fill="white" stroke="black" points="201,-658.5 201,-688.5 355,-688.5 355,-658.5 201,-658.5"/>
<text text-anchor="start" x="209" y="-676.5" font-family="Helvetica,sans-Serif" font-size="10.00">dispatch_message_hostcom</text>
<text text-anchor="middle" x="278" y="-665.5" font-family="Helvetica,sans-Serif" font-size="10.00">_send_appdata_respiration</text>
</a>
</g>
</g>
<!-- Node88&#45;&gt;Node137 -->
<g id="edge6" class="edge"><title>Node88&#45;&gt;Node137</title>
<path fill="none" stroke="midnightblue" d="M79.2435,-476.025C90.8217,-515.259 122.393,-603.805 182,-649.5 187.67,-653.847 194.037,-657.413 200.719,-660.339"/>
<polygon fill="midnightblue" stroke="midnightblue" points="82.5941,-475.011 76.5013,-466.343 75.859,-476.919 82.5941,-475.011"/>
</g>
<!-- Node138 -->
<g id="node8" class="node"><title>Node138</title>
<g id="a_node8"><a xlink:href="xep__dispatch__messages_8c.xhtml#ab8706adfce1195b9e971672df23f3bc2" target="_top" xlink:title="Dispatch message to hostcom asking to send profile data truepresence single to host. ">
<polygon fill="white" stroke="black" points="182,-609.5 182,-639.5 374,-639.5 374,-609.5 182,-609.5"/>
<text text-anchor="start" x="190" y="-627.5" font-family="Helvetica,sans-Serif" font-size="10.00">dispatch_message_hostcom</text>
<text text-anchor="middle" x="278" y="-616.5" font-family="Helvetica,sans-Serif" font-size="10.00">_send_appdata_truepresence_single</text>
</a>
</g>
</g>
<!-- Node88&#45;&gt;Node138 -->
<g id="edge7" class="edge"><title>Node88&#45;&gt;Node138</title>
<path fill="none" stroke="midnightblue" d="M82.9622,-475.698C98.5368,-506.883 133.623,-568.292 182,-600.5 187.098,-603.894 192.64,-606.808 198.402,-609.31"/>
<polygon fill="midnightblue" stroke="midnightblue" points="85.9499,-473.838 78.4374,-466.367 79.6514,-476.892 85.9499,-473.838"/>
</g>
<!-- Node139 -->
<g id="node9" class="node"><title>Node139</title>
<g id="a_node9"><a xlink:href="xep__dispatch__messages_8c.xhtml#ad390b40a9f75a7e6a381b0ae9ce60e7e" target="_top" xlink:title="Dispatch message to hostcom asking to send profile data truepresence movinglist to host...">
<polygon fill="white" stroke="black" points="198.5,-550 198.5,-591 357.5,-591 357.5,-550 198.5,-550"/>
<text text-anchor="start" x="206.5" y="-579" font-family="Helvetica,sans-Serif" font-size="10.00">dispatch_message_hostcom</text>
<text text-anchor="start" x="206.5" y="-568" font-family="Helvetica,sans-Serif" font-size="10.00">_send_appdata_truepresence</text>
<text text-anchor="middle" x="278" y="-557" font-family="Helvetica,sans-Serif" font-size="10.00">_movinglist</text>
</a>
</g>
</g>
<!-- Node88&#45;&gt;Node139 -->
<g id="edge8" class="edge"><title>Node88&#45;&gt;Node139</title>
<path fill="none" stroke="midnightblue" d="M91.3517,-473.215C111.623,-491.935 146.879,-522.061 182,-540.5 188.585,-543.957 195.638,-547.099 202.816,-549.935"/>
<polygon fill="midnightblue" stroke="midnightblue" points="93.5523,-470.48 83.866,-466.188 88.7611,-475.584 93.5523,-470.48"/>
</g>
<!-- Node140 -->
<g id="node10" class="node"><title>Node140</title>
<g id="a_node10"><a xlink:href="xep__dispatch__messages_8c.xhtml#aaacc4af55a7d7664ede806347d1aa55b" target="_top" xlink:title="Dispatch message to hostcom asking to send profile data baseband amplitude/phase to host...">
<polygon fill="white" stroke="black" points="201,-490 201,-531 355,-531 355,-490 201,-490"/>
<text text-anchor="start" x="209" y="-519" font-family="Helvetica,sans-Serif" font-size="10.00">dispatch_message_hostcom</text>
<text text-anchor="start" x="209" y="-508" font-family="Helvetica,sans-Serif" font-size="10.00">_send_appdata_baseband</text>
<text text-anchor="middle" x="278" y="-497" font-family="Helvetica,sans-Serif" font-size="10.00">_amplitude_phase</text>
</a>
</g>
</g>
<!-- Node88&#45;&gt;Node140 -->
<g id="edge9" class="edge"><title>Node88&#45;&gt;Node140</title>
<path fill="none" stroke="midnightblue" d="M119.675,-468.65C143.573,-475.007 173.465,-482.959 200.755,-490.218"/>
<polygon fill="midnightblue" stroke="midnightblue" points="120.389,-465.218 109.825,-466.03 118.589,-471.983 120.389,-465.218"/>
</g>
<!-- Node141 -->
<g id="node11" class="node"><title>Node141</title>
<g id="a_node11"><a xlink:href="xep__dispatch__messages_8c.xhtml#a790d7b75fba79015f8058ce2bef16077" target="_top" xlink:title="Dispatch message to hostcom asking to send profile data baseband IQ to host. ">
<polygon fill="white" stroke="black" points="200,-441.5 200,-471.5 356,-471.5 356,-441.5 200,-441.5"/>
<text text-anchor="start" x="208" y="-459.5" font-family="Helvetica,sans-Serif" font-size="10.00">dispatch_message_hostcom</text>
<text text-anchor="middle" x="278" y="-448.5" font-family="Helvetica,sans-Serif" font-size="10.00">_send_appdata_baseband_iq</text>
</a>
</g>
</g>
<!-- Node88&#45;&gt;Node141 -->
<g id="edge10" class="edge"><title>Node88&#45;&gt;Node141</title>
<path fill="none" stroke="midnightblue" d="M156.486,-456.5C170.843,-456.5 185.726,-456.5 199.931,-456.5"/>
<polygon fill="midnightblue" stroke="midnightblue" points="156.142,-453 146.142,-456.5 156.142,-460 156.142,-453"/>
</g>
<!-- Node142 -->
<g id="node12" class="node"><title>Node142</title>
<g id="a_node12"><a xlink:href="xep__dispatch__messages_8c.xhtml#a3fc50ea4a1f6588025cdee7a61eba2cc" target="_top" xlink:title="Dispatch message to hostcom asking to send profile parameter file to host. ">
<polygon fill="white" stroke="black" points="183.5,-392.5 183.5,-422.5 372.5,-422.5 372.5,-392.5 183.5,-392.5"/>
<text text-anchor="start" x="191.5" y="-410.5" font-family="Helvetica,sans-Serif" font-size="10.00">dispatch_message_hostcom</text>
<text text-anchor="middle" x="278" y="-399.5" font-family="Helvetica,sans-Serif" font-size="10.00">_send_appdata_profileparameterfile</text>
</a>
</g>
</g>
<!-- Node88&#45;&gt;Node142 -->
<g id="edge11" class="edge"><title>Node88&#45;&gt;Node142</title>
<path fill="none" stroke="midnightblue" d="M123.411,-444.573C150.9,-437.938 185.381,-429.615 214.704,-422.537"/>
<polygon fill="midnightblue" stroke="midnightblue" points="122.522,-441.187 113.622,-446.936 124.164,-447.992 122.522,-441.187"/>
</g>
<!-- Node143 -->
<g id="node13" class="node"><title>Node143</title>
<g id="a_node13"><a xlink:href="xep__dispatch__messages_8c.xhtml#ad41a44756422ad7d000194262a394292" target="_top" xlink:title="Dispatch message to hostcom asking to send system message to host. ">
<polygon fill="white" stroke="red" points="201,-343.5 201,-373.5 355,-373.5 355,-343.5 201,-343.5"/>
<text text-anchor="start" x="209" y="-361.5" font-family="Helvetica,sans-Serif" font-size="10.00">dispatch_message_hostcom</text>
<text text-anchor="middle" x="278" y="-350.5" font-family="Helvetica,sans-Serif" font-size="10.00">_send_system</text>
</a>
</g>
</g>
<!-- Node88&#45;&gt;Node143 -->
<g id="edge12" class="edge"><title>Node88&#45;&gt;Node143</title>
<path fill="none" stroke="midnightblue" d="M93.5335,-440.289C114.285,-423.817 148.637,-398.634 182,-383.5 190.387,-379.696 199.463,-376.384 208.563,-373.526"/>
<polygon fill="midnightblue" stroke="midnightblue" points="91.0988,-437.756 85.5154,-446.76 95.4953,-443.203 91.0988,-437.756"/>
</g>
<!-- Node145 -->
<g id="node14" class="node"><title>Node145</title>
<g id="a_node14"><a xlink:href="xep__dispatch__messages_8c.xhtml#a1d85432e0504e5196dc02922c8ed3c30" target="_top" xlink:title="Dispatch message to hostcom asking to send string to host. ">
<polygon fill="white" stroke="red" points="201,-294.5 201,-324.5 355,-324.5 355,-294.5 201,-294.5"/>
<text text-anchor="start" x="209" y="-312.5" font-family="Helvetica,sans-Serif" font-size="10.00">dispatch_message_hostcom</text>
<text text-anchor="middle" x="278" y="-301.5" font-family="Helvetica,sans-Serif" font-size="10.00">_send_data_stringn</text>
</a>
</g>
</g>
<!-- Node88&#45;&gt;Node145 -->
<g id="edge13" class="edge"><title>Node88&#45;&gt;Node145</title>
<path fill="none" stroke="midnightblue" d="M85.2088,-438.041C102.544,-411.101 138.447,-361.308 182,-334.5 188.245,-330.656 195.073,-327.398 202.111,-324.637"/>
<polygon fill="midnightblue" stroke="midnightblue" points="82.0331,-436.517 79.6824,-446.848 87.9624,-440.238 82.0331,-436.517"/>
</g>
<!-- Node147 -->
<g id="node15" class="node"><title>Node147</title>
<g id="a_node15"><a xlink:href="xep__dispatch__messages_8c.xhtml#a66e62c413e7dd74946d0d8c0542ffd82" target="_top" xlink:title="Dispatch message to hostcom asking to send byte array to host. ">
<polygon fill="white" stroke="red" points="201,-245.5 201,-275.5 355,-275.5 355,-245.5 201,-245.5"/>
<text text-anchor="start" x="209" y="-263.5" font-family="Helvetica,sans-Serif" font-size="10.00">dispatch_message_hostcom</text>
<text text-anchor="middle" x="278" y="-252.5" font-family="Helvetica,sans-Serif" font-size="10.00">_send_data_byte</text>
</a>
</g>
</g>
<!-- Node88&#45;&gt;Node147 -->
<g id="edge14" class="edge"><title>Node88&#45;&gt;Node147</title>
<path fill="none" stroke="midnightblue" d="M80.6528,-437.322C94.0168,-401.711 127.586,-325.375 182,-285.5 187.778,-281.266 194.217,-277.749 200.944,-274.826"/>
<polygon fill="midnightblue" stroke="midnightblue" points="77.2691,-436.387 77.1534,-446.981 83.8505,-438.772 77.2691,-436.387"/>
</g>
<!-- Node148 -->
<g id="node16" class="node"><title>Node148</title>
<g id="a_node16"><a xlink:href="xep__dispatch__messages_8c.xhtml#a51120146f30f1c984ed9bb4a5dbe16ed" target="_top" xlink:title="Dispatch message to hostcom asking to send float array to host. ">
<polygon fill="white" stroke="black" points="201,-196.5 201,-226.5 355,-226.5 355,-196.5 201,-196.5"/>
<text text-anchor="start" x="209" y="-214.5" font-family="Helvetica,sans-Serif" font-size="10.00">dispatch_message_hostcom</text>
<text text-anchor="middle" x="278" y="-203.5" font-family="Helvetica,sans-Serif" font-size="10.00">_send_data_float</text>
</a>
</g>
</g>
<!-- Node88&#45;&gt;Node148 -->
<g id="edge15" class="edge"><title>Node88&#45;&gt;Node148</title>
<path fill="none" stroke="midnightblue" d="M77.8432,-437.018C87.3803,-393.966 116.271,-290.295 182,-236.5 187.675,-231.855 194.124,-228.066 200.927,-224.975"/>
<polygon fill="midnightblue" stroke="midnightblue" points="74.417,-436.303 75.7811,-446.81 81.2668,-437.746 74.417,-436.303"/>
</g>
<!-- Node149 -->
<g id="node17" class="node"><title>Node149</title>
<g id="a_node17"><a xlink:href="xep__dispatch__messages_8c.xhtml#a71071a04cadcf7ee0fe06a39995aff63" target="_top" xlink:title="Dispatch message to hostcom asking to reply with int array to host. ">
<polygon fill="white" stroke="red" points="201,-147.5 201,-177.5 355,-177.5 355,-147.5 201,-147.5"/>
<text text-anchor="start" x="209" y="-165.5" font-family="Helvetica,sans-Serif" font-size="10.00">dispatch_message_hostcom</text>
<text text-anchor="middle" x="278" y="-154.5" font-family="Helvetica,sans-Serif" font-size="10.00">_send_reply_int</text>
</a>
</g>
</g>
<!-- Node88&#45;&gt;Node149 -->
<g id="edge16" class="edge"><title>Node88&#45;&gt;Node149</title>
<path fill="none" stroke="midnightblue" d="M75.9395,-436.875C81.9214,-387.236 104.644,-255.781 182,-187.5 187.498,-182.647 193.829,-178.719 200.559,-175.542"/>
<polygon fill="midnightblue" stroke="midnightblue" points="72.4495,-436.593 74.8285,-446.918 79.407,-437.363 72.4495,-436.593"/>
</g>
<!-- Node150 -->
<g id="node18" class="node"><title>Node150</title>
<g id="a_node18"><a xlink:href="xep__dispatch__messages_8c.xhtml#a6415cc8037bda323e26a986575e0ccd3" target="_top" xlink:title="Dispatch message to hostcom asking to reply with byte array to host. ">
<polygon fill="white" stroke="red" points="201,-98.5 201,-128.5 355,-128.5 355,-98.5 201,-98.5"/>
<text text-anchor="start" x="209" y="-116.5" font-family="Helvetica,sans-Serif" font-size="10.00">dispatch_message_hostcom</text>
<text text-anchor="middle" x="278" y="-105.5" font-family="Helvetica,sans-Serif" font-size="10.00">_send_reply_byte</text>
</a>
</g>
</g>
<!-- Node88&#45;&gt;Node150 -->
<g id="edge17" class="edge"><title>Node88&#45;&gt;Node150</title>
<path fill="none" stroke="midnightblue" d="M74.5846,-436.408C77.3388,-380.444 93.0133,-221.46 182,-138.5 187.489,-133.383 193.897,-129.286 200.747,-126.011"/>
<polygon fill="midnightblue" stroke="midnightblue" points="71.0746,-436.59 74.1713,-446.722 78.069,-436.87 71.0746,-436.59"/>
</g>
<!-- Node151 -->
<g id="node19" class="node"><title>Node151</title>
<g id="a_node19"><a xlink:href="xep__dispatch__messages_8c.xhtml#ad1b2c1285e7258ddf4624af93c5e50b3" target="_top" xlink:title="Dispatch message to hostcom asking to reply with string to host. ">
<polygon fill="white" stroke="red" points="201,-49.5 201,-79.5 355,-79.5 355,-49.5 201,-49.5"/>
<text text-anchor="start" x="209" y="-67.5" font-family="Helvetica,sans-Serif" font-size="10.00">dispatch_message_hostcom</text>
<text text-anchor="middle" x="278" y="-56.5" font-family="Helvetica,sans-Serif" font-size="10.00">_send_reply_stringn</text>
</a>
</g>
</g>
<!-- Node88&#45;&gt;Node151 -->
<g id="edge18" class="edge"><title>Node88&#45;&gt;Node151</title>
<path fill="none" stroke="midnightblue" d="M73.5259,-436.672C73.1961,-375.472 80.859,-187.762 182,-89.5 187.505,-84.1522 194.009,-79.912 200.993,-76.5552"/>
<polygon fill="midnightblue" stroke="midnightblue" points="70.0289,-436.92 73.6664,-446.87 77.0283,-436.823 70.0289,-436.92"/>
</g>
<!-- Node153 -->
<g id="node20" class="node"><title>Node153</title>
<g id="a_node20"><a xlink:href="xep__dispatch__messages_8c.xhtml#a150240f872f2c85621c9d01b8934cef8" target="_top" xlink:title="Dispatch message to hostcom asking to reply with float to host. ">
<polygon fill="white" stroke="red" points="201,-0.5 201,-30.5 355,-30.5 355,-0.5 201,-0.5"/>
<text text-anchor="start" x="209" y="-18.5" font-family="Helvetica,sans-Serif" font-size="10.00">dispatch_message_hostcom</text>
<text text-anchor="middle" x="278" y="-7.5" font-family="Helvetica,sans-Serif" font-size="10.00">_send_reply_float</text>
</a>
</g>
</g>
<!-- Node88&#45;&gt;Node153 -->
<g id="edge19" class="edge"><title>Node88&#45;&gt;Node153</title>
<path fill="none" stroke="midnightblue" d="M76.4687,-436.819C86.205,-362.258 124.257,-98.4346 182,-40.5 187.418,-35.0643 193.866,-30.7671 200.816,-27.3761"/>
<polygon fill="midnightblue" stroke="midnightblue" points="72.9953,-436.388 75.1942,-446.753 79.9384,-437.279 72.9953,-436.388"/>
</g>
</g>
</svg>
