<?xml version="1.0" encoding="UTF-8" standalone="no"?>
<!DOCTYPE svg PUBLIC "-//W3C//DTD SVG 1.1//EN"
 "http://www.w3.org/Graphics/SVG/1.1/DTD/svg11.dtd">
<!-- Generated by graphviz version 2.38.0 (20140413.2041)
 -->
<!-- Title: memorypool_free Pages: 1 -->
<svg width="292pt" height="78pt"
 viewBox="0.00 0.00 292.00 77.50" xmlns="http://www.w3.org/2000/svg" xmlns:xlink="http://www.w3.org/1999/xlink">
<g id="graph0" class="graph" transform="scale(1 1) rotate(0) translate(4 73.5)">
<title>memorypool_free</title>
<polygon fill="white" stroke="none" points="-4,4 -4,-73.5 288,-73.5 288,4 -4,4"/>
<!-- Node8 -->
<g id="node1" class="node"><title>Node8</title>
<polygon fill="#bfbfbf" stroke="black" points="0,-28 0,-47 101,-47 101,-28 0,-28"/>
<text text-anchor="middle" x="50.5" y="-35" font-family="Helvetica,sans-Serif" font-size="10.00">memorypool_free</text>
</g>
<!-- Node9 -->
<g id="node2" class="node"><title>Node9</title>
<g id="a_node2"><a xlink:href="xep__dispatch_8c.xhtml#af230fbcbf78ff22c13ca92625a50216d" target="_top" xlink:title="Release message. ">
<polygon fill="white" stroke="red" points="137,-50 137,-69 284,-69 284,-50 137,-50"/>
<text text-anchor="middle" x="210.5" y="-57" font-family="Helvetica,sans-Serif" font-size="10.00">dispatch_release_message</text>
</a>
</g>
</g>
<!-- Node8&#45;&gt;Node9 -->
<g id="edge1" class="edge"><title>Node8&#45;&gt;Node9</title>
<path fill="none" stroke="midnightblue" d="M111.066,-45.794C120.842,-47.1552 131.042,-48.5754 141.014,-49.9639"/>
<polygon fill="midnightblue" stroke="midnightblue" points="111.446,-42.3132 101.059,-44.4006 110.48,-49.2463 111.446,-42.3132"/>
</g>
<!-- Node71 -->
<g id="node3" class="node"><title>Node71</title>
<g id="a_node3"><a xlink:href="task__radar_8c.xhtml#a1f0b2f52d809a8141147add6eaa0279a" target="_top" xlink:title="read_and_send_radar\l_frame">
<polygon fill="white" stroke="red" points="150,-0.5 150,-30.5 271,-30.5 271,-0.5 150,-0.5"/>
<text text-anchor="start" x="158" y="-18.5" font-family="Helvetica,sans-Serif" font-size="10.00">read_and_send_radar</text>
<text text-anchor="middle" x="210.5" y="-7.5" font-family="Helvetica,sans-Serif" font-size="10.00">_frame</text>
</a>
</g>
</g>
<!-- Node8&#45;&gt;Node71 -->
<g id="edge2" class="edge"><title>Node8&#45;&gt;Node71</title>
<path fill="none" stroke="midnightblue" d="M111.059,-29.2069C123.754,-27.4393 137.163,-25.5722 149.861,-23.8042"/>
<polygon fill="midnightblue" stroke="midnightblue" points="110.48,-25.7537 101.059,-30.5994 111.446,-32.6868 110.48,-25.7537"/>
</g>
</g>
</svg>
