<?xml version="1.0" encoding="UTF-8" standalone="no"?>
<!DOCTYPE svg PUBLIC "-//W3C//DTD SVG 1.1//EN"
 "http://www.w3.org/Graphics/SVG/1.1/DTD/svg11.dtd">
<!-- Generated by graphviz version 2.38.0 (20140413.2041)
 -->
<!-- Title: include/memorypoolset.h Pages: 1 -->
<svg width="156pt" height="140pt"
 viewBox="0.00 0.00 156.00 140.00" xmlns="http://www.w3.org/2000/svg" xmlns:xlink="http://www.w3.org/1999/xlink">
<g id="graph0" class="graph" transform="scale(1 1) rotate(0) translate(4 136)">
<title>include/memorypoolset.h</title>
<polygon fill="white" stroke="none" points="-4,4 -4,-136 152,-136 152,4 -4,4"/>
<!-- Node0 -->
<g id="node1" class="node"><title>Node0</title>
<polygon fill="#bfbfbf" stroke="black" points="0,-112.5 0,-131.5 138,-131.5 138,-112.5 0,-112.5"/>
<text text-anchor="middle" x="69" y="-119.5" font-family="Helvetica,sans-Serif" font-size="10.00">include/memorypoolset.h</text>
</g>
<!-- Node1 -->
<g id="node2" class="node"><title>Node1</title>
<polygon fill="white" stroke="#bfbfbf" points="42.5,-0.5 42.5,-19.5 95.5,-19.5 95.5,-0.5 42.5,-0.5"/>
<text text-anchor="middle" x="69" y="-7.5" font-family="Helvetica,sans-Serif" font-size="10.00">stdint.h</text>
</g>
<!-- Node0&#45;&gt;Node1 -->
<g id="edge1" class="edge"><title>Node0&#45;&gt;Node1</title>
<path fill="none" stroke="midnightblue" d="M64.4698,-112.252C58.5926,-99.8472 49.4838,-76.3854 53,-56 54.568,-46.9098 57.7948,-37.2219 60.9425,-29.1726"/>
<polygon fill="midnightblue" stroke="midnightblue" points="64.2649,-30.2993 64.8888,-19.7229 57.8055,-27.6018 64.2649,-30.2993"/>
</g>
<!-- Node2 -->
<g id="node3" class="node"><title>Node2</title>
<g id="a_node3"><a xlink:href="memorypool_8h.xhtml" target="_top" xlink:title="Memory pool implementation. ">
<polygon fill="white" stroke="black" points="62,-56.5 62,-75.5 148,-75.5 148,-56.5 62,-56.5"/>
<text text-anchor="middle" x="105" y="-63.5" font-family="Helvetica,sans-Serif" font-size="10.00">memorypool.h</text>
</a>
</g>
</g>
<!-- Node0&#45;&gt;Node2 -->
<g id="edge2" class="edge"><title>Node0&#45;&gt;Node2</title>
<path fill="none" stroke="midnightblue" d="M74.9447,-112.083C79.9773,-104.534 87.3368,-93.4948 93.5135,-84.2298"/>
<polygon fill="midnightblue" stroke="midnightblue" points="96.5311,-86.0131 99.1659,-75.7511 90.7067,-82.1301 96.5311,-86.0131"/>
</g>
<!-- Node2&#45;&gt;Node1 -->
<g id="edge3" class="edge"><title>Node2&#45;&gt;Node1</title>
<path fill="none" stroke="midnightblue" d="M99.0553,-56.083C94.0227,-48.5341 86.6632,-37.4948 80.4865,-28.2298"/>
<polygon fill="midnightblue" stroke="midnightblue" points="83.2933,-26.1301 74.8341,-19.7511 77.4689,-30.0131 83.2933,-26.1301"/>
</g>
</g>
</svg>
