<?xml version="1.0" encoding="UTF-8" standalone="no"?>
<!DOCTYPE svg PUBLIC "-//W3C//DTD SVG 1.1//EN"
 "http://www.w3.org/Graphics/SVG/1.1/DTD/svg11.dtd">
<!-- Generated by graphviz version 2.38.0 (20140413.2041)
 -->
<!-- Title: src/Dispatch/memorypoolset.c Pages: 1 -->
<svg width="188pt" height="84pt"
 viewBox="0.00 0.00 188.00 84.00" xmlns="http://www.w3.org/2000/svg" xmlns:xlink="http://www.w3.org/1999/xlink">
<g id="graph0" class="graph" transform="scale(1 1) rotate(0) translate(4 80)">
<title>src/Dispatch/memorypoolset.c</title>
<polygon fill="white" stroke="none" points="-4,4 -4,-80 184,-80 184,4 -4,4"/>
<!-- Node0 -->
<g id="node1" class="node"><title>Node0</title>
<polygon fill="#bfbfbf" stroke="black" points="17,-56.5 17,-75.5 180,-75.5 180,-56.5 17,-56.5"/>
<text text-anchor="middle" x="98.5" y="-63.5" font-family="Helvetica,sans-Serif" font-size="10.00">src/Dispatch/memorypoolset.c</text>
</g>
<!-- Node1 -->
<g id="node2" class="node"><title>Node1</title>
<g id="a_node2"><a xlink:href="memorypoolset_8h.xhtml" target="_top" xlink:title="Set of memory pools. ">
<polygon fill="white" stroke="red" points="0,-0.5 0,-19.5 101,-19.5 101,-0.5 0,-0.5"/>
<text text-anchor="middle" x="50.5" y="-7.5" font-family="Helvetica,sans-Serif" font-size="10.00">memorypoolset.h</text>
</a>
</g>
</g>
<!-- Node0&#45;&gt;Node1 -->
<g id="edge1" class="edge"><title>Node0&#45;&gt;Node1</title>
<path fill="none" stroke="midnightblue" d="M90.5738,-56.083C83.6539,-48.2982 73.4346,-36.8015 65.048,-27.3665"/>
<polygon fill="midnightblue" stroke="midnightblue" points="67.5383,-24.8999 58.2787,-19.7511 62.3065,-29.5505 67.5383,-24.8999"/>
</g>
<!-- Node4 -->
<g id="node3" class="node"><title>Node4</title>
<polygon fill="white" stroke="#bfbfbf" points="119,-0.5 119,-19.5 174,-19.5 174,-0.5 119,-0.5"/>
<text text-anchor="middle" x="146.5" y="-7.5" font-family="Helvetica,sans-Serif" font-size="10.00">stddef.h</text>
</g>
<!-- Node0&#45;&gt;Node4 -->
<g id="edge2" class="edge"><title>Node0&#45;&gt;Node4</title>
<path fill="none" stroke="midnightblue" d="M106.426,-56.083C113.346,-48.2982 123.565,-36.8015 131.952,-27.3665"/>
<polygon fill="midnightblue" stroke="midnightblue" points="134.694,-29.5505 138.721,-19.7511 129.462,-24.8999 134.694,-29.5505"/>
</g>
</g>
</svg>
