<?xml version="1.0" encoding="UTF-8" standalone="no"?>
<!DOCTYPE svg PUBLIC "-//W3C//DTD SVG 1.1//EN"
 "http://www.w3.org/Graphics/SVG/1.1/DTD/svg11.dtd">
<!-- Generated by graphviz version 2.38.0 (20140413.2041)
 -->
<!-- Title: include/module_ui.h Pages: 1 -->
<svg width="288pt" height="84pt"
 viewBox="0.00 0.00 288.00 84.00" xmlns="http://www.w3.org/2000/svg" xmlns:xlink="http://www.w3.org/1999/xlink">
<g id="graph0" class="graph" transform="scale(1 1) rotate(0) translate(4 80)">
<title>include/module_ui.h</title>
<polygon fill="white" stroke="none" points="-4,4 -4,-80 284,-80 284,4 -4,4"/>
<!-- Node2 -->
<g id="node1" class="node"><title>Node2</title>
<polygon fill="#bfbfbf" stroke="black" points="77.5,-56.5 77.5,-75.5 189.5,-75.5 189.5,-56.5 77.5,-56.5"/>
<text text-anchor="middle" x="133.5" y="-63.5" font-family="Helvetica,sans-Serif" font-size="10.00">include/module_ui.h</text>
</g>
<!-- Node3 -->
<g id="node2" class="node"><title>Node3</title>
<g id="a_node2"><a xlink:href="module__ui_8c.xhtml" target="_top" xlink:title="src/XEPA/module_ui.c">
<polygon fill="white" stroke="black" points="0,-0.5 0,-19.5 119,-19.5 119,-0.5 0,-0.5"/>
<text text-anchor="middle" x="59.5" y="-7.5" font-family="Helvetica,sans-Serif" font-size="10.00">src/XEPA/module_ui.c</text>
</a>
</g>
</g>
<!-- Node2&#45;&gt;Node3 -->
<g id="edge1" class="edge"><title>Node2&#45;&gt;Node3</title>
<path fill="none" stroke="midnightblue" d="M113.466,-50.3804C100.091,-40.6204 82.9412,-28.1057 71.6057,-19.8339"/>
<polygon fill="midnightblue" stroke="midnightblue" points="111.47,-53.2565 121.611,-56.324 115.596,-47.602 111.47,-53.2565"/>
</g>
<!-- Node4 -->
<g id="node3" class="node"><title>Node4</title>
<g id="a_node3"><a xlink:href="xep__application_8c.xhtml" target="_top" xlink:title="src/XEPA/xep_application.c">
<polygon fill="white" stroke="black" points="137,-0.5 137,-19.5 280,-19.5 280,-0.5 137,-0.5"/>
<text text-anchor="middle" x="208.5" y="-7.5" font-family="Helvetica,sans-Serif" font-size="10.00">src/XEPA/xep_application.c</text>
</a>
</g>
</g>
<!-- Node2&#45;&gt;Node4 -->
<g id="edge2" class="edge"><title>Node2&#45;&gt;Node4</title>
<path fill="none" stroke="midnightblue" d="M153.805,-50.3804C167.361,-40.6204 184.742,-28.1057 196.231,-19.8339"/>
<polygon fill="midnightblue" stroke="midnightblue" points="151.62,-47.6405 145.55,-56.324 155.71,-53.3213 151.62,-47.6405"/>
</g>
</g>
</svg>
