<?xml version="1.0" encoding="UTF-8" standalone="no"?>
<!DOCTYPE svg PUBLIC "-//W3C//DTD SVG 1.1//EN"
 "http://www.w3.org/Graphics/SVG/1.1/DTD/svg11.dtd">
<!-- Generated by graphviz version 2.38.0 (20140413.2041)
 -->
<!-- Title: src/hal/radar_hal.h Pages: 1 -->
<svg width="122pt" height="140pt"
 viewBox="0.00 0.00 121.50 140.00" xmlns="http://www.w3.org/2000/svg" xmlns:xlink="http://www.w3.org/1999/xlink">
<g id="graph0" class="graph" transform="scale(1 1) rotate(0) translate(4 136)">
<title>src/hal/radar_hal.h</title>
<polygon fill="white" stroke="none" points="-4,4 -4,-136 117.5,-136 117.5,4 -4,4"/>
<!-- Node0 -->
<g id="node1" class="node"><title>Node0</title>
<polygon fill="#bfbfbf" stroke="black" points="0,-112.5 0,-131.5 105,-131.5 105,-112.5 0,-112.5"/>
<text text-anchor="middle" x="52.5" y="-119.5" font-family="Helvetica,sans-Serif" font-size="10.00">src/hal/radar_hal.h</text>
</g>
<!-- Node1 -->
<g id="node2" class="node"><title>Node1</title>
<polygon fill="white" stroke="#bfbfbf" points="26,-0.5 26,-19.5 79,-19.5 79,-0.5 26,-0.5"/>
<text text-anchor="middle" x="52.5" y="-7.5" font-family="Helvetica,sans-Serif" font-size="10.00">stdint.h</text>
</g>
<!-- Node0&#45;&gt;Node1 -->
<g id="edge1" class="edge"><title>Node0&#45;&gt;Node1</title>
<path fill="none" stroke="midnightblue" d="M49.6631,-112.201C45.9832,-99.7353 40.2824,-76.2018 42.5,-56 43.4726,-47.1398 45.4917,-37.4716 47.4626,-29.3755"/>
<polygon fill="midnightblue" stroke="midnightblue" points="50.8926,-30.0919 50.0176,-19.5332 44.1171,-28.333 50.8926,-30.0919"/>
</g>
<!-- Node2 -->
<g id="node3" class="node"><title>Node2</title>
<g id="a_node3"><a xlink:href="xep__hal_8h.xhtml" target="_top" xlink:title="Brief description. ">
<polygon fill="white" stroke="red" points="51.5,-56.5 51.5,-75.5 113.5,-75.5 113.5,-56.5 51.5,-56.5"/>
<text text-anchor="middle" x="82.5" y="-63.5" font-family="Helvetica,sans-Serif" font-size="10.00">xep_hal.h</text>
</a>
</g>
</g>
<!-- Node0&#45;&gt;Node2 -->
<g id="edge2" class="edge"><title>Node0&#45;&gt;Node2</title>
<path fill="none" stroke="midnightblue" d="M57.4539,-112.083C61.6041,-104.613 67.6531,-93.7244 72.7667,-84.5199"/>
<polygon fill="midnightblue" stroke="midnightblue" points="75.8414,-86.1924 77.6383,-75.7511 69.7223,-82.7929 75.8414,-86.1924"/>
</g>
<!-- Node2&#45;&gt;Node1 -->
<g id="edge3" class="edge"><title>Node2&#45;&gt;Node1</title>
<path fill="none" stroke="midnightblue" d="M77.5461,-56.083C73.3959,-48.6127 67.3469,-37.7244 62.2333,-28.5199"/>
<polygon fill="midnightblue" stroke="midnightblue" points="65.2777,-26.7929 57.3617,-19.7511 59.1586,-30.1924 65.2777,-26.7929"/>
</g>
</g>
</svg>
