<?xml version="1.0" encoding="UTF-8" standalone="no"?>
<!DOCTYPE svg PUBLIC "-//W3C//DTD SVG 1.1//EN"
 "http://www.w3.org/Graphics/SVG/1.1/DTD/svg11.dtd">
<!-- Generated by graphviz version 2.38.0 (20140413.2041)
 -->
<!-- Title: src/hal/x4m0x_s70/startup_sams70.c Pages: 1 -->
<svg width="548pt" height="151pt"
 viewBox="0.00 0.00 548.00 151.00" xmlns="http://www.w3.org/2000/svg" xmlns:xlink="http://www.w3.org/1999/xlink">
<g id="graph0" class="graph" transform="scale(1 1) rotate(0) translate(4 147)">
<title>src/hal/x4m0x_s70/startup_sams70.c</title>
<polygon fill="white" stroke="none" points="-4,4 -4,-147 544,-147 544,4 -4,4"/>
<!-- Node0 -->
<g id="node1" class="node"><title>Node0</title>
<polygon fill="#bfbfbf" stroke="black" points="177.5,-112.5 177.5,-142.5 320.5,-142.5 320.5,-112.5 177.5,-112.5"/>
<text text-anchor="start" x="185.5" y="-130.5" font-family="Helvetica,sans-Serif" font-size="10.00">src/hal/x4m0x_s70/startup</text>
<text text-anchor="middle" x="249" y="-119.5" font-family="Helvetica,sans-Serif" font-size="10.00">_sams70.c</text>
</g>
<!-- Node1 -->
<g id="node2" class="node"><title>Node1</title>
<polygon fill="white" stroke="#bfbfbf" points="0,-56.5 0,-75.5 64,-75.5 64,-56.5 0,-56.5"/>
<text text-anchor="middle" x="32" y="-63.5" font-family="Helvetica,sans-Serif" font-size="10.00">sams70.h</text>
</g>
<!-- Node0&#45;&gt;Node1 -->
<g id="edge1" class="edge"><title>Node0&#45;&gt;Node1</title>
<path fill="none" stroke="midnightblue" d="M197.849,-112.475C159.758,-102.03 108.434,-87.9576 73.018,-78.2469"/>
<polygon fill="midnightblue" stroke="midnightblue" points="73.5928,-74.7754 63.0232,-75.5064 71.7417,-81.5262 73.5928,-74.7754"/>
</g>
<!-- Node2 -->
<g id="node3" class="node"><title>Node2</title>
<g id="a_node3"><a xlink:href="xtio__extram_8h.xhtml" target="_top" xlink:title="Local header file for xtio functions. ">
<polygon fill="white" stroke="red" points="82.5,-56.5 82.5,-75.5 165.5,-75.5 165.5,-56.5 82.5,-56.5"/>
<text text-anchor="middle" x="124" y="-63.5" font-family="Helvetica,sans-Serif" font-size="10.00">xtio_extram.h</text>
</a>
</g>
</g>
<!-- Node0&#45;&gt;Node2 -->
<g id="edge2" class="edge"><title>Node0&#45;&gt;Node2</title>
<path fill="none" stroke="midnightblue" d="M219.377,-112.399C198.778,-102.595 171.52,-89.6194 151.42,-80.052"/>
<polygon fill="midnightblue" stroke="midnightblue" points="152.722,-76.7955 142.189,-75.6578 149.714,-83.116 152.722,-76.7955"/>
</g>
<!-- Node4 -->
<g id="node4" class="node"><title>Node4</title>
<g id="a_node4"><a xlink:href="xep__hal_8h.xhtml" target="_top" xlink:title="Brief description. ">
<polygon fill="white" stroke="red" points="128,-0.5 128,-19.5 190,-19.5 190,-0.5 128,-0.5"/>
<text text-anchor="middle" x="159" y="-7.5" font-family="Helvetica,sans-Serif" font-size="10.00">xep_hal.h</text>
</a>
</g>
</g>
<!-- Node0&#45;&gt;Node4 -->
<g id="edge8" class="edge"><title>Node0&#45;&gt;Node4</title>
<path fill="none" stroke="midnightblue" d="M237.964,-112.337C221.306,-90.9596 189.803,-50.53 172.037,-27.7309"/>
<polygon fill="midnightblue" stroke="midnightblue" points="174.663,-25.4062 165.755,-19.6695 169.141,-29.7088 174.663,-25.4062"/>
</g>
<!-- Node7 -->
<g id="node5" class="node"><title>Node7</title>
<polygon fill="white" stroke="#bfbfbf" points="222,-56.5 222,-75.5 276,-75.5 276,-56.5 222,-56.5"/>
<text text-anchor="middle" x="249" y="-63.5" font-family="Helvetica,sans-Serif" font-size="10.00">sysclk.h</text>
</g>
<!-- Node0&#45;&gt;Node7 -->
<g id="edge4" class="edge"><title>Node0&#45;&gt;Node7</title>
<path fill="none" stroke="midnightblue" d="M249,-112.399C249,-104.466 249,-94.458 249,-85.8583"/>
<polygon fill="midnightblue" stroke="midnightblue" points="252.5,-85.6577 249,-75.6578 245.5,-85.6578 252.5,-85.6577"/>
</g>
<!-- Node8 -->
<g id="node6" class="node"><title>Node8</title>
<g id="a_node6"><a xlink:href="hal__board__init_8h.xhtml" target="_top" xlink:title="Local header file for xtio functions. ">
<polygon fill="white" stroke="black" points="294,-56.5 294,-75.5 386,-75.5 386,-56.5 294,-56.5"/>
<text text-anchor="middle" x="340" y="-63.5" font-family="Helvetica,sans-Serif" font-size="10.00">hal_board_init.h</text>
</a>
</g>
</g>
<!-- Node0&#45;&gt;Node8 -->
<g id="edge5" class="edge"><title>Node0&#45;&gt;Node8</title>
<path fill="none" stroke="midnightblue" d="M270.566,-112.399C284.88,-103.04 303.612,-90.7924 318.011,-81.3771"/>
<polygon fill="midnightblue" stroke="midnightblue" points="320.304,-84.0597 326.759,-75.6578 316.474,-78.2009 320.304,-84.0597"/>
</g>
<!-- Node9 -->
<g id="node7" class="node"><title>Node9</title>
<polygon fill="white" stroke="#bfbfbf" points="404.5,-56.5 404.5,-75.5 475.5,-75.5 475.5,-56.5 404.5,-56.5"/>
<text text-anchor="middle" x="440" y="-63.5" font-family="Helvetica,sans-Serif" font-size="10.00">FreeRTOS.h</text>
</g>
<!-- Node0&#45;&gt;Node9 -->
<g id="edge6" class="edge"><title>Node0&#45;&gt;Node9</title>
<path fill="none" stroke="midnightblue" d="M294.264,-112.399C327.412,-102.073 371.847,-88.2309 402.904,-78.5559"/>
<polygon fill="midnightblue" stroke="midnightblue" points="403.98,-81.8868 412.487,-75.5709 401.898,-75.2036 403.98,-81.8868"/>
</g>
<!-- Node10 -->
<g id="node8" class="node"><title>Node10</title>
<polygon fill="white" stroke="#bfbfbf" points="494,-56.5 494,-75.5 540,-75.5 540,-56.5 494,-56.5"/>
<text text-anchor="middle" x="517" y="-63.5" font-family="Helvetica,sans-Serif" font-size="10.00">task.h</text>
</g>
<!-- Node0&#45;&gt;Node10 -->
<g id="edge7" class="edge"><title>Node0&#45;&gt;Node10</title>
<path fill="none" stroke="midnightblue" d="M320.268,-112.475C364.847,-103.417 423.655,-90.9508 484.238,-76.0725"/>
<polygon fill="midnightblue" stroke="midnightblue" points="485.107,-79.463 493.974,-73.6641 483.426,-72.6678 485.107,-79.463"/>
</g>
<!-- Node2&#45;&gt;Node4 -->
<g id="edge3" class="edge"><title>Node2&#45;&gt;Node4</title>
<path fill="none" stroke="midnightblue" d="M129.78,-56.083C134.672,-48.5341 141.827,-37.4948 147.833,-28.2298"/>
<polygon fill="midnightblue" stroke="midnightblue" points="150.826,-30.0463 153.328,-19.7511 144.952,-26.239 150.826,-30.0463"/>
</g>
</g>
</svg>
