<?xml version="1.0" encoding="UTF-8" standalone="no"?>
<!DOCTYPE svg PUBLIC "-//W3C//DTD SVG 1.1//EN"
 "http://www.w3.org/Graphics/SVG/1.1/DTD/svg11.dtd">
<!-- Generated by graphviz version 2.38.0 (20140413.2041)
 -->
<!-- Title: Reset_Handler Pages: 1 -->
<svg width="273pt" height="142pt"
 viewBox="0.00 0.00 273.00 142.00" xmlns="http://www.w3.org/2000/svg" xmlns:xlink="http://www.w3.org/1999/xlink">
<g id="graph0" class="graph" transform="scale(1 1) rotate(0) translate(4 138)">
<title>Reset_Handler</title>
<polygon fill="white" stroke="none" points="-4,4 -4,-138 269,-138 269,4 -4,4"/>
<!-- Node70 -->
<g id="node1" class="node"><title>Node70</title>
<polygon fill="#bfbfbf" stroke="black" points="0,-57.5 0,-76.5 86,-76.5 86,-57.5 0,-57.5"/>
<text text-anchor="middle" x="43" y="-64.5" font-family="Helvetica,sans-Serif" font-size="10.00">Reset_Handler</text>
</g>
<!-- Node71 -->
<g id="node2" class="node"><title>Node71</title>
<g id="a_node2"><a xlink:href="xep__hal_8h.xhtml#ab9b8be01cc5338f2a5b10e5c79b86910" target="_top" xlink:title="Initiate basic HW functionality on HW board and MCU. ">
<polygon fill="white" stroke="red" points="154.5,-114.5 154.5,-133.5 232.5,-133.5 232.5,-114.5 154.5,-114.5"/>
<text text-anchor="middle" x="193.5" y="-121.5" font-family="Helvetica,sans-Serif" font-size="10.00">xt_board_init</text>
</a>
</g>
</g>
<!-- Node70&#45;&gt;Node71 -->
<g id="edge1" class="edge"><title>Node70&#45;&gt;Node71</title>
<path fill="none" stroke="midnightblue" d="M61.2378,-76.5794C76.7713,-84.9232 100.417,-96.9181 122,-105 129.181,-107.689 136.905,-110.168 144.514,-112.386"/>
<polygon fill="midnightblue" stroke="midnightblue" points="143.823,-115.827 154.396,-115.148 145.707,-109.086 143.823,-115.827"/>
</g>
<!-- Node87 -->
<g id="node3" class="node"><title>Node87</title>
<g id="a_node3"><a xlink:href="startup__sams70_8c.xhtml#a5f388c8556f7cb6a84b5692db6b6ad80" target="_top" xlink:title="__libc_init_array">
<polygon fill="white" stroke="black" points="147.5,-76.5 147.5,-95.5 239.5,-95.5 239.5,-76.5 147.5,-76.5"/>
<text text-anchor="middle" x="193.5" y="-83.5" font-family="Helvetica,sans-Serif" font-size="10.00">__libc_init_array</text>
</a>
</g>
</g>
<!-- Node70&#45;&gt;Node87 -->
<g id="edge2" class="edge"><title>Node70&#45;&gt;Node87</title>
<path fill="none" stroke="midnightblue" d="M86.1569,-72.3938C101.992,-74.4199 120.239,-76.7545 137.098,-78.9115"/>
<polygon fill="midnightblue" stroke="midnightblue" points="137.018,-82.4297 147.381,-80.2272 137.906,-75.4863 137.018,-82.4297"/>
</g>
<!-- Node88 -->
<g id="node4" class="node"><title>Node88</title>
<g id="a_node4"><a xlink:href="main_8c.xhtml#a840291bc02cba5474a4cb46a9b9566fe" target="_top" xlink:title="main">
<polygon fill="white" stroke="red" points="173,-38.5 173,-57.5 214,-57.5 214,-38.5 173,-38.5"/>
<text text-anchor="middle" x="193.5" y="-45.5" font-family="Helvetica,sans-Serif" font-size="10.00">main</text>
</a>
</g>
</g>
<!-- Node70&#45;&gt;Node88 -->
<g id="edge3" class="edge"><title>Node70&#45;&gt;Node88</title>
<path fill="none" stroke="midnightblue" d="M86.1569,-61.6062C110.622,-58.476 140.843,-54.6093 162.808,-51.7989"/>
<polygon fill="midnightblue" stroke="midnightblue" points="163.392,-55.2529 172.867,-50.512 162.503,-48.3095 163.392,-55.2529"/>
</g>
<!-- Node331 -->
<g id="node5" class="node"><title>Node331</title>
<g id="a_node5"><a xlink:href="startup__sams70_8c.xhtml#a0af7232f7a8c719d4eb2f14796141a00" target="_top" xlink:title="Default interrupt handler for unused IRQs. ">
<polygon fill="white" stroke="black" points="122,-0.5 122,-19.5 265,-19.5 265,-0.5 122,-0.5"/>
<text text-anchor="middle" x="193.5" y="-7.5" font-family="Helvetica,sans-Serif" font-size="10.00">prvGetRegistersFromStack</text>
</a>
</g>
</g>
<!-- Node70&#45;&gt;Node331 -->
<g id="edge4" class="edge"><title>Node70&#45;&gt;Node331</title>
<path fill="none" stroke="midnightblue" d="M61.2378,-57.4206C76.7713,-49.0768 100.417,-37.0819 122,-29 128.381,-26.6107 135.19,-24.3871 141.967,-22.365"/>
<polygon fill="midnightblue" stroke="midnightblue" points="143.164,-25.663 151.818,-19.5506 141.241,-18.9323 143.164,-25.663"/>
</g>
</g>
</svg>
