<?xml version="1.0" encoding="UTF-8" standalone="no"?>
<!DOCTYPE svg PUBLIC "-//W3C//DTD SVG 1.1//EN"
 "http://www.w3.org/Graphics/SVG/1.1/DTD/svg11.dtd">
<!-- Generated by graphviz version 2.38.0 (20140413.2041)
 -->
<!-- Title: XepDispatchMessageContentHostcomAppdataTruePresenceSingle_t Pages: 1 -->
<svg width="211pt" height="117pt"
 viewBox="0.00 0.00 211.00 117.00" xmlns="http://www.w3.org/2000/svg" xmlns:xlink="http://www.w3.org/1999/xlink">
<g id="graph0" class="graph" transform="scale(1 1) rotate(0) translate(4 113)">
<title>XepDispatchMessageContentHostcomAppdataTruePresenceSingle_t</title>
<polygon fill="white" stroke="none" points="-4,4 -4,-113 207,-113 207,4 -4,4"/>
<!-- Node1 -->
<g id="node1" class="node"><title>Node1</title>
<polygon fill="#bfbfbf" stroke="black" points="-1.42109e-14,-0.5 -1.42109e-14,-30.5 203,-30.5 203,-0.5 -1.42109e-14,-0.5"/>
<text text-anchor="start" x="8" y="-18.5" font-family="Helvetica,sans-Serif" font-size="10.00">XepDispatchMessageContent</text>
<text text-anchor="middle" x="101.5" y="-7.5" font-family="Helvetica,sans-Serif" font-size="10.00">HostcomAppdataTruePresenceSingle_t</text>
</g>
<!-- Node2 -->
<g id="node2" class="node"><title>Node2</title>
<g id="a_node2"><a xlink:href="struct_xep_dispatch_message_content_common__t.xhtml" target="_top" xlink:title="XepDispatchMessageContent\lCommon_t">
<polygon fill="white" stroke="black" points="23,-78.5 23,-108.5 180,-108.5 180,-78.5 23,-78.5"/>
<text text-anchor="start" x="31" y="-96.5" font-family="Helvetica,sans-Serif" font-size="10.00">XepDispatchMessageContent</text>
<text text-anchor="middle" x="101.5" y="-85.5" font-family="Helvetica,sans-Serif" font-size="10.00">Common_t</text>
</a>
</g>
</g>
<!-- Node2&#45;&gt;Node1 -->
<g id="edge1" class="edge"><title>Node2&#45;&gt;Node1</title>
<path fill="none" stroke="#9a32cd" stroke-dasharray="5,2" d="M101.5,-68.0898C101.5,-55.7565 101.5,-41.2237 101.5,-30.7309"/>
<polygon fill="#9a32cd" stroke="#9a32cd" points="98.0001,-68.2049 101.5,-78.205 105,-68.205 98.0001,-68.2049"/>
<text text-anchor="middle" x="124.5" y="-52" font-family="Helvetica,sans-Serif" font-size="10.00"> common</text>
</g>
</g>
</svg>
