<?xml version="1.0" encoding="UTF-8" standalone="no"?>
<!DOCTYPE svg PUBLIC "-//W3C//DTD SVG 1.1//EN"
 "http://www.w3.org/Graphics/SVG/1.1/DTD/svg11.dtd">
<!-- Generated by graphviz version 2.38.0 (20140413.2041)
 -->
<!-- Title: src/hal/x4m0x_s70/syscalls.c Pages: 1 -->
<svg width="302pt" height="84pt"
 viewBox="0.00 0.00 302.00 84.00" xmlns="http://www.w3.org/2000/svg" xmlns:xlink="http://www.w3.org/1999/xlink">
<g id="graph0" class="graph" transform="scale(1 1) rotate(0) translate(4 80)">
<title>src/hal/x4m0x_s70/syscalls.c</title>
<polygon fill="white" stroke="none" points="-4,4 -4,-80 298,-80 298,4 -4,4"/>
<!-- Node0 -->
<g id="node1" class="node"><title>Node0</title>
<polygon fill="#bfbfbf" stroke="black" points="59.5,-56.5 59.5,-75.5 213.5,-75.5 213.5,-56.5 59.5,-56.5"/>
<text text-anchor="middle" x="136.5" y="-63.5" font-family="Helvetica,sans-Serif" font-size="10.00">src/hal/x4m0x_s70/syscalls.c</text>
</g>
<!-- Node1 -->
<g id="node2" class="node"><title>Node1</title>
<polygon fill="white" stroke="#bfbfbf" points="0,-0.5 0,-19.5 49,-19.5 49,-0.5 0,-0.5"/>
<text text-anchor="middle" x="24.5" y="-7.5" font-family="Helvetica,sans-Serif" font-size="10.00">stdio.h</text>
</g>
<!-- Node0&#45;&gt;Node1 -->
<g id="edge1" class="edge"><title>Node0&#45;&gt;Node1</title>
<path fill="none" stroke="midnightblue" d="M118.505,-56.324C100.462,-47.6247 72.4531,-34.1202 51.6973,-24.113"/>
<polygon fill="midnightblue" stroke="midnightblue" points="52.9778,-20.8449 42.4501,-19.6545 49.9377,-27.1502 52.9778,-20.8449"/>
</g>
<!-- Node2 -->
<g id="node3" class="node"><title>Node2</title>
<polygon fill="white" stroke="#bfbfbf" points="67.5,-0.5 67.5,-19.5 123.5,-19.5 123.5,-0.5 67.5,-0.5"/>
<text text-anchor="middle" x="95.5" y="-7.5" font-family="Helvetica,sans-Serif" font-size="10.00">stdarg.h</text>
</g>
<!-- Node0&#45;&gt;Node2 -->
<g id="edge2" class="edge"><title>Node0&#45;&gt;Node2</title>
<path fill="none" stroke="midnightblue" d="M129.73,-56.083C123.938,-48.4554 115.442,-37.2645 108.362,-27.9408"/>
<polygon fill="midnightblue" stroke="midnightblue" points="110.979,-25.5991 102.144,-19.7511 105.404,-29.8321 110.979,-25.5991"/>
</g>
<!-- Node3 -->
<g id="node4" class="node"><title>Node3</title>
<polygon fill="white" stroke="#bfbfbf" points="142,-0.5 142,-19.5 213,-19.5 213,-0.5 142,-0.5"/>
<text text-anchor="middle" x="177.5" y="-7.5" font-family="Helvetica,sans-Serif" font-size="10.00">sys/types.h</text>
</g>
<!-- Node0&#45;&gt;Node3 -->
<g id="edge3" class="edge"><title>Node0&#45;&gt;Node3</title>
<path fill="none" stroke="midnightblue" d="M143.27,-56.083C149.062,-48.4554 157.558,-37.2645 164.638,-27.9408"/>
<polygon fill="midnightblue" stroke="midnightblue" points="167.596,-29.8321 170.856,-19.7511 162.021,-25.5991 167.596,-29.8321"/>
</g>
<!-- Node4 -->
<g id="node5" class="node"><title>Node4</title>
<polygon fill="white" stroke="#bfbfbf" points="231,-0.5 231,-19.5 294,-19.5 294,-0.5 231,-0.5"/>
<text text-anchor="middle" x="262.5" y="-7.5" font-family="Helvetica,sans-Serif" font-size="10.00">sys/stat.h</text>
</g>
<!-- Node0&#45;&gt;Node4 -->
<g id="edge4" class="edge"><title>Node0&#45;&gt;Node4</title>
<path fill="none" stroke="midnightblue" d="M156.465,-56.4435C177.109,-47.5961 209.563,-33.6875 233.132,-23.5865"/>
<polygon fill="midnightblue" stroke="midnightblue" points="234.816,-26.6727 242.628,-19.5164 232.058,-20.2387 234.816,-26.6727"/>
</g>
</g>
</svg>
