<?xml version="1.0" encoding="UTF-8" standalone="no"?>
<!DOCTYPE svg PUBLIC "-//W3C//DTD SVG 1.1//EN"
 "http://www.w3.org/Graphics/SVG/1.1/DTD/svg11.dtd">
<!-- Generated by graphviz version 2.38.0 (20140413.2041)
 -->
<!-- Title: task_radar Pages: 1 -->
<svg width="267pt" height="406pt"
 viewBox="0.00 0.00 267.00 405.50" xmlns="http://www.w3.org/2000/svg" xmlns:xlink="http://www.w3.org/1999/xlink">
<g id="graph0" class="graph" transform="scale(1 1) rotate(0) translate(4 401.5)">
<title>task_radar</title>
<polygon fill="white" stroke="none" points="-4,4 -4,-401.5 263,-401.5 263,4 -4,4"/>
<!-- Node37 -->
<g id="node1" class="node"><title>Node37</title>
<polygon fill="#bfbfbf" stroke="black" points="0,-204 0,-223 68,-223 68,-204 0,-204"/>
<text text-anchor="middle" x="34" y="-211" font-family="Helvetica,sans-Serif" font-size="10.00">task_radar</text>
</g>
<!-- Node38 -->
<g id="node2" class="node"><title>Node38</title>
<g id="a_node2"><a xlink:href="xtmemory_8h.xhtml#a7e516b79f5a147905446ff71d1fc98fb" target="_top" xlink:title="Free memory allocated by xtmemory_malloc_default. ">
<polygon fill="white" stroke="red" points="117.5,-378 117.5,-397 245.5,-397 245.5,-378 117.5,-378"/>
<text text-anchor="middle" x="181.5" y="-385" font-family="Helvetica,sans-Serif" font-size="10.00">xtmemory_free_default</text>
</a>
</g>
</g>
<!-- Node37&#45;&gt;Node38 -->
<g id="edge1" class="edge"><title>Node37&#45;&gt;Node38</title>
<path fill="none" stroke="midnightblue" d="M36.3528,-223.256C40.6877,-250.667 56.8238,-328.949 104,-368.5 106.019,-370.192 108.166,-371.738 110.412,-373.149"/>
<polygon fill="midnightblue" stroke="midnightblue" points="109.019,-376.371 119.496,-377.95 112.29,-370.182 109.019,-376.371"/>
</g>
<!-- Node41 -->
<g id="node3" class="node"><title>Node41</title>
<g id="a_node3"><a xlink:href="task__monitor_8c.xhtml#a481565877c5eb69c47c0f998a5a3244d" target="_top" xlink:title="Register task to monitor. ">
<polygon fill="white" stroke="red" points="120.5,-340 120.5,-359 242.5,-359 242.5,-340 120.5,-340"/>
<text text-anchor="middle" x="181.5" y="-347" font-family="Helvetica,sans-Serif" font-size="10.00">monitor_task_register</text>
</a>
</g>
</g>
<!-- Node37&#45;&gt;Node41 -->
<g id="edge2" class="edge"><title>Node37&#45;&gt;Node41</title>
<path fill="none" stroke="midnightblue" d="M37.8177,-223.121C44.9286,-245.641 65.8119,-302.026 104,-330.5 106.498,-332.362 109.156,-334.044 111.927,-335.561"/>
<polygon fill="midnightblue" stroke="midnightblue" points="110.56,-338.786 121.099,-339.874 113.539,-332.452 110.56,-338.786"/>
</g>
<!-- Node48 -->
<g id="node4" class="node"><title>Node48</title>
<g id="a_node4"><a xlink:href="x4driver_8h.xhtml#a56631da6259f3784165d78d00e5b0f80" target="_top" xlink:title="Set enable for X4. ">
<polygon fill="white" stroke="red" points="125,-302 125,-321 238,-321 238,-302 125,-302"/>
<text text-anchor="middle" x="181.5" y="-309" font-family="Helvetica,sans-Serif" font-size="10.00">x4driver_set_enable</text>
</a>
</g>
</g>
<!-- Node37&#45;&gt;Node48 -->
<g id="edge3" class="edge"><title>Node37&#45;&gt;Node48</title>
<path fill="none" stroke="midnightblue" d="M40.6687,-223.216C51.0151,-240.052 74.6253,-274.565 104,-292.5 107.613,-294.706 111.471,-296.657 115.46,-298.381"/>
<polygon fill="midnightblue" stroke="midnightblue" points="114.366,-301.71 124.956,-302.008 116.863,-295.17 114.366,-301.71"/>
</g>
<!-- Node51 -->
<g id="node5" class="node"><title>Node51</title>
<g id="a_node5"><a xlink:href="x4driver_8h.xhtml#a86dbadcb2e415d23600ef1bb31c9dbde" target="_top" xlink:title="Initiates x4driver. ">
<polygon fill="white" stroke="red" points="144.5,-264 144.5,-283 218.5,-283 218.5,-264 144.5,-264"/>
<text text-anchor="middle" x="181.5" y="-271" font-family="Helvetica,sans-Serif" font-size="10.00">x4driver_init</text>
</a>
</g>
</g>
<!-- Node37&#45;&gt;Node51 -->
<g id="edge4" class="edge"><title>Node37&#45;&gt;Node51</title>
<path fill="none" stroke="midnightblue" d="M48.385,-223.072C61.8523,-232.304 83.5063,-246.081 104,-254.5 113.589,-258.439 124.201,-261.711 134.391,-264.365"/>
<polygon fill="midnightblue" stroke="midnightblue" points="133.842,-267.834 144.387,-266.815 135.508,-261.035 133.842,-267.834"/>
</g>
<!-- Node88 -->
<g id="node6" class="node"><title>Node88</title>
<g id="a_node6"><a xlink:href="x4driver_8h.xhtml#a8bc96b0db173f49cfe59027d9e95f600" target="_top" xlink:title="x4driver_check_configuration">
<polygon fill="white" stroke="red" points="104,-226 104,-245 259,-245 259,-226 104,-226"/>
<text text-anchor="middle" x="181.5" y="-233" font-family="Helvetica,sans-Serif" font-size="10.00">x4driver_check_configuration</text>
</a>
</g>
</g>
<!-- Node37&#45;&gt;Node88 -->
<g id="edge5" class="edge"><title>Node37&#45;&gt;Node88</title>
<path fill="none" stroke="midnightblue" d="M68.0162,-218.492C79.8233,-220.277 93.6446,-222.367 107.479,-224.459"/>
<polygon fill="midnightblue" stroke="midnightblue" points="107.115,-227.944 117.526,-225.978 108.162,-221.022 107.115,-227.944"/>
</g>
<!-- Node92 -->
<g id="node7" class="node"><title>Node92</title>
<g id="a_node7"><a xlink:href="x4driver_8h.xhtml#a3d4fbcf15fcf3736ef68613007caca8e" target="_top" xlink:title="x4driver_set_sweep\l_trigger_control">
<polygon fill="white" stroke="red" points="126.5,-176.5 126.5,-206.5 236.5,-206.5 236.5,-176.5 126.5,-176.5"/>
<text text-anchor="start" x="134.5" y="-194.5" font-family="Helvetica,sans-Serif" font-size="10.00">x4driver_set_sweep</text>
<text text-anchor="middle" x="181.5" y="-183.5" font-family="Helvetica,sans-Serif" font-size="10.00">_trigger_control</text>
</a>
</g>
</g>
<!-- Node37&#45;&gt;Node92 -->
<g id="edge6" class="edge"><title>Node37&#45;&gt;Node92</title>
<path fill="none" stroke="midnightblue" d="M68.0162,-208.508C82.3196,-206.345 99.579,-203.735 116.237,-201.217"/>
<polygon fill="midnightblue" stroke="midnightblue" points="117.135,-204.621 126.499,-199.665 116.088,-197.7 117.135,-204.621"/>
</g>
<!-- Node97 -->
<g id="node8" class="node"><title>Node97</title>
<g id="a_node8"><a xlink:href="task__monitor_8c.xhtml#a0c7f7f8017a34d24de6b5c6fd90fbfe3" target="_top" xlink:title="Reset counter to indicate that task is alive. ">
<polygon fill="white" stroke="black" points="128,-138 128,-157 235,-157 235,-138 128,-138"/>
<text text-anchor="middle" x="181.5" y="-145" font-family="Helvetica,sans-Serif" font-size="10.00">monitor_task_alive</text>
</a>
</g>
</g>
<!-- Node37&#45;&gt;Node97 -->
<g id="edge7" class="edge"><title>Node37&#45;&gt;Node97</title>
<path fill="none" stroke="midnightblue" d="M46.9829,-203.693C60.1995,-193.327 82.4587,-177.168 104,-167.5 110.311,-164.668 117.102,-162.175 123.938,-159.999"/>
<polygon fill="midnightblue" stroke="midnightblue" points="125.345,-163.233 133.937,-157.034 123.355,-156.521 125.345,-163.233"/>
</g>
<!-- Node98 -->
<g id="node9" class="node"><title>Node98</title>
<g id="a_node9"><a xlink:href="task__radar_8c.xhtml#a1f0b2f52d809a8141147add6eaa0279a" target="_top" xlink:title="read_and_send_radar\l_frame">
<polygon fill="white" stroke="red" points="121,-88.5 121,-118.5 242,-118.5 242,-88.5 121,-88.5"/>
<text text-anchor="start" x="129" y="-106.5" font-family="Helvetica,sans-Serif" font-size="10.00">read_and_send_radar</text>
<text text-anchor="middle" x="181.5" y="-95.5" font-family="Helvetica,sans-Serif" font-size="10.00">_frame</text>
</a>
</g>
</g>
<!-- Node37&#45;&gt;Node98 -->
<g id="edge8" class="edge"><title>Node37&#45;&gt;Node98</title>
<path fill="none" stroke="midnightblue" d="M40.3006,-203.822C50.4003,-186.261 74.0865,-149.07 104,-128.5 106.849,-126.541 109.863,-124.726 112.982,-123.047"/>
<polygon fill="midnightblue" stroke="midnightblue" points="114.538,-126.183 122.004,-118.667 111.48,-119.886 114.538,-126.183"/>
</g>
<!-- Node118 -->
<g id="node10" class="node"><title>Node118</title>
<g id="a_node10"><a xlink:href="x4driver_8h.xhtml#a03652f4897873d46d0534336df7f29fe" target="_top" xlink:title="Will trigger a radar sweep. ">
<polygon fill="white" stroke="red" points="122.5,-50 122.5,-69 240.5,-69 240.5,-50 122.5,-50"/>
<text text-anchor="middle" x="181.5" y="-57" font-family="Helvetica,sans-Serif" font-size="10.00">x4driver_start_sweep</text>
</a>
</g>
</g>
<!-- Node37&#45;&gt;Node118 -->
<g id="edge9" class="edge"><title>Node37&#45;&gt;Node118</title>
<path fill="none" stroke="midnightblue" d="M37.14,-203.658C43.0742,-178.792 62.1378,-113.042 104,-79.5 106.903,-77.1744 110.048,-75.117 113.351,-73.2971"/>
<polygon fill="midnightblue" stroke="midnightblue" points="114.866,-76.4527 122.409,-69.0134 111.873,-70.1246 114.866,-76.4527"/>
</g>
<!-- Node120 -->
<g id="node11" class="node"><title>Node120</title>
<g id="a_node11"><a xlink:href="x4driver_8h.xhtml#af07f7d2f1758a60257ab9df3426c9a37" target="_top" xlink:title="Action timer callback. ">
<polygon fill="white" stroke="red" points="128,-0.5 128,-30.5 235,-30.5 235,-0.5 128,-0.5"/>
<text text-anchor="start" x="136" y="-18.5" font-family="Helvetica,sans-Serif" font-size="10.00">x4driver_on_action</text>
<text text-anchor="middle" x="181.5" y="-7.5" font-family="Helvetica,sans-Serif" font-size="10.00">_event</text>
</a>
</g>
</g>
<!-- Node37&#45;&gt;Node120 -->
<g id="edge10" class="edge"><title>Node37&#45;&gt;Node120</title>
<path fill="none" stroke="midnightblue" d="M36.0344,-203.67C39.6337,-174.438 54.2448,-87.1848 104,-40.5 108.308,-36.4576 113.28,-33.0686 118.579,-30.2274"/>
<polygon fill="midnightblue" stroke="midnightblue" points="120.167,-33.3484 127.746,-25.9443 117.204,-27.0065 120.167,-33.3484"/>
</g>
</g>
</svg>
