<?xml version="1.0" encoding="UTF-8" standalone="no"?>
<!DOCTYPE svg PUBLIC "-//W3C//DTD SVG 1.1//EN"
 "http://www.w3.org/Graphics/SVG/1.1/DTD/svg11.dtd">
<!-- Generated by graphviz version 2.38.0 (20140413.2041)
 -->
<!-- Title: src/Radar/task_radar.h Pages: 1 -->
<svg width="216pt" height="84pt"
 viewBox="0.00 0.00 215.50 84.00" xmlns="http://www.w3.org/2000/svg" xmlns:xlink="http://www.w3.org/1999/xlink">
<g id="graph0" class="graph" transform="scale(1 1) rotate(0) translate(4 80)">
<title>src/Radar/task_radar.h</title>
<polygon fill="white" stroke="none" points="-4,4 -4,-80 211.5,-80 211.5,4 -4,4"/>
<!-- Node6 -->
<g id="node1" class="node"><title>Node6</title>
<polygon fill="#bfbfbf" stroke="black" points="27,-56.5 27,-75.5 151,-75.5 151,-56.5 27,-56.5"/>
<text text-anchor="middle" x="89" y="-63.5" font-family="Helvetica,sans-Serif" font-size="10.00">src/Radar/task_radar.h</text>
</g>
<!-- Node7 -->
<g id="node2" class="node"><title>Node7</title>
<g id="a_node2"><a xlink:href="main_8c.xhtml" target="_top" xlink:title="main() function for Radar Application ">
<polygon fill="white" stroke="black" points="0,-0.5 0,-19.5 66,-19.5 66,-0.5 0,-0.5"/>
<text text-anchor="middle" x="33" y="-7.5" font-family="Helvetica,sans-Serif" font-size="10.00">src/main.c</text>
</a>
</g>
</g>
<!-- Node6&#45;&gt;Node7 -->
<g id="edge1" class="edge"><title>Node6&#45;&gt;Node7</title>
<path fill="none" stroke="midnightblue" d="M72.6701,-49.2533C62.735,-39.6731 50.4125,-27.7906 42.1611,-19.8339"/>
<polygon fill="midnightblue" stroke="midnightblue" points="70.3747,-51.902 80.0026,-56.324 75.2336,-46.8631 70.3747,-51.902"/>
</g>
<!-- Node8 -->
<g id="node3" class="node"><title>Node8</title>
<g id="a_node3"><a xlink:href="task__radar_8c.xhtml" target="_top" xlink:title="src/Radar/task_radar.c">
<polygon fill="white" stroke="black" points="84.5,-0.5 84.5,-19.5 207.5,-19.5 207.5,-0.5 84.5,-0.5"/>
<text text-anchor="middle" x="146" y="-7.5" font-family="Helvetica,sans-Serif" font-size="10.00">src/Radar/task_radar.c</text>
</a>
</g>
</g>
<!-- Node6&#45;&gt;Node8 -->
<g id="edge2" class="edge"><title>Node6&#45;&gt;Node8</title>
<path fill="none" stroke="midnightblue" d="M105.621,-49.2533C115.734,-39.6731 128.277,-27.7906 136.675,-19.8339"/>
<polygon fill="midnightblue" stroke="midnightblue" points="103.01,-46.9056 98.158,-56.324 107.825,-51.9873 103.01,-46.9056"/>
</g>
</g>
</svg>
