<?xml version="1.0" encoding="UTF-8" standalone="no"?>
<!DOCTYPE svg PUBLIC "-//W3C//DTD SVG 1.1//EN"
 "http://www.w3.org/Graphics/SVG/1.1/DTD/svg11.dtd">
<!-- Generated by graphviz version 2.38.0 (20140413.2041)
 -->
<!-- Title: task_hostcom Pages: 1 -->
<svg width="277pt" height="253pt"
 viewBox="0.00 0.00 277.00 252.50" xmlns="http://www.w3.org/2000/svg" xmlns:xlink="http://www.w3.org/1999/xlink">
<g id="graph0" class="graph" transform="scale(1 1) rotate(0) translate(4 248.5)">
<title>task_hostcom</title>
<polygon fill="white" stroke="none" points="-4,4 -4,-248.5 273,-248.5 273,4 -4,4"/>
<!-- Node41 -->
<g id="node1" class="node"><title>Node41</title>
<polygon fill="#bfbfbf" stroke="black" points="0,-118 0,-137 84,-137 84,-118 0,-118"/>
<text text-anchor="middle" x="42" y="-125" font-family="Helvetica,sans-Serif" font-size="10.00">task_hostcom</text>
</g>
<!-- Node42 -->
<g id="node2" class="node"><title>Node42</title>
<g id="a_node2"><a xlink:href="xep__dispatch_8h.xhtml#aec7d22fb1b8b57f521ec0dce927dcf72" target="_top" xlink:title="Register to dispatcher, returning the queue used for dispatch messages. ">
<polygon fill="white" stroke="black" points="145,-225 145,-244 244,-244 244,-225 145,-225"/>
<text text-anchor="middle" x="194.5" y="-232" font-family="Helvetica,sans-Serif" font-size="10.00">dispatch_register</text>
</a>
</g>
</g>
<!-- Node41&#45;&gt;Node42 -->
<g id="edge1" class="edge"><title>Node41&#45;&gt;Node42</title>
<path fill="none" stroke="midnightblue" d="M48.6351,-137.13C59.82,-155.363 86.6485,-194.939 120,-215.5 124.698,-218.396 129.826,-220.854 135.117,-222.938"/>
<polygon fill="midnightblue" stroke="midnightblue" points="134.165,-226.312 144.76,-226.301 136.47,-219.703 134.165,-226.312"/>
</g>
<!-- Node43 -->
<g id="node3" class="node"><title>Node43</title>
<g id="a_node3"><a xlink:href="xep__dispatch_8h.xhtml#a2b3ec25f62ed5589d9eb774c3d059d8b" target="_top" xlink:title="Subscribe to message tag. ">
<polygon fill="white" stroke="black" points="140.5,-187 140.5,-206 248.5,-206 248.5,-187 140.5,-187"/>
<text text-anchor="middle" x="194.5" y="-194" font-family="Helvetica,sans-Serif" font-size="10.00">dispatch_subscribe</text>
</a>
</g>
</g>
<!-- Node41&#45;&gt;Node43 -->
<g id="edge2" class="edge"><title>Node41&#45;&gt;Node43</title>
<path fill="none" stroke="midnightblue" d="M55.0915,-137.141C69.6841,-148.337 95.3433,-166.653 120,-177.5 125.487,-179.914 131.345,-182.07 137.268,-183.983"/>
<polygon fill="midnightblue" stroke="midnightblue" points="136.66,-187.455 147.244,-186.977 138.672,-180.751 136.66,-187.455"/>
</g>
<!-- Node44 -->
<g id="node4" class="node"><title>Node44</title>
<g id="a_node4"><a xlink:href="task__hostcom_8c.xhtml#a2107f903297b89d9863455c76cdcd97d" target="_top" xlink:title="mcp_handle_protocol\l_packet">
<polygon fill="white" stroke="red" points="135,-137.5 135,-167.5 254,-167.5 254,-137.5 135,-137.5"/>
<text text-anchor="start" x="143" y="-155.5" font-family="Helvetica,sans-Serif" font-size="10.00">mcp_handle_protocol</text>
<text text-anchor="middle" x="194.5" y="-144.5" font-family="Helvetica,sans-Serif" font-size="10.00">_packet</text>
</a>
</g>
</g>
<!-- Node41&#45;&gt;Node44 -->
<g id="edge3" class="edge"><title>Node41&#45;&gt;Node44</title>
<path fill="none" stroke="midnightblue" d="M84.1248,-134.331C96.7308,-136.425 110.958,-138.789 124.88,-141.101"/>
<polygon fill="midnightblue" stroke="midnightblue" points="124.497,-144.586 134.936,-142.772 125.644,-137.68 124.497,-144.586"/>
</g>
<!-- Node54 -->
<g id="node5" class="node"><title>Node54</title>
<g id="a_node5"><a xlink:href="task__hostcom_8c.xhtml#a712c0905d53d8aba5669e222b0f7d144" target="_top" xlink:title="mcp_handle_protocol\l_error">
<polygon fill="white" stroke="black" points="135,-88.5 135,-118.5 254,-118.5 254,-88.5 135,-88.5"/>
<text text-anchor="start" x="143" y="-106.5" font-family="Helvetica,sans-Serif" font-size="10.00">mcp_handle_protocol</text>
<text text-anchor="middle" x="194.5" y="-95.5" font-family="Helvetica,sans-Serif" font-size="10.00">_error</text>
</a>
</g>
</g>
<!-- Node41&#45;&gt;Node54 -->
<g id="edge4" class="edge"><title>Node41&#45;&gt;Node54</title>
<path fill="none" stroke="midnightblue" d="M84.1248,-120.942C96.7308,-118.932 110.958,-116.663 124.88,-114.443"/>
<polygon fill="midnightblue" stroke="midnightblue" points="125.612,-117.87 134.936,-112.839 124.509,-110.958 125.612,-117.87"/>
</g>
<!-- Node55 -->
<g id="node6" class="node"><title>Node55</title>
<g id="a_node6"><a xlink:href="xep__hal_8h.xhtml#a143e7abdc640864b988cc34a2d53fd81" target="_top" xlink:title="Initiate serial communication &#45; USB if available, otherwise UART. ">
<polygon fill="white" stroke="red" points="139.5,-50 139.5,-69 249.5,-69 249.5,-50 139.5,-50"/>
<text text-anchor="middle" x="194.5" y="-57" font-family="Helvetica,sans-Serif" font-size="10.00">xtio_serial_com_init</text>
</a>
</g>
</g>
<!-- Node41&#45;&gt;Node55 -->
<g id="edge5" class="edge"><title>Node41&#45;&gt;Node55</title>
<path fill="none" stroke="midnightblue" d="M55.7065,-117.945C70.4682,-107.244 95.8895,-90.0237 120,-79.5 126.352,-76.7276 133.183,-74.2522 140.031,-72.0683"/>
<polygon fill="midnightblue" stroke="midnightblue" points="141.448,-75.2978 150.024,-69.0766 139.44,-68.592 141.448,-75.2978"/>
</g>
<!-- Node77 -->
<g id="node7" class="node"><title>Node77</title>
<g id="a_node7"><a xlink:href="task__hostcom_8c.xhtml#a3ac02c1c3bd0b84c4488bce13f8fc1d9" target="_top" xlink:title="process_dispatch_message\l_hostcom_send">
<polygon fill="white" stroke="red" points="120,-0.5 120,-30.5 269,-30.5 269,-0.5 120,-0.5"/>
<text text-anchor="start" x="128" y="-18.5" font-family="Helvetica,sans-Serif" font-size="10.00">process_dispatch_message</text>
<text text-anchor="middle" x="194.5" y="-7.5" font-family="Helvetica,sans-Serif" font-size="10.00">_hostcom_send</text>
</a>
</g>
</g>
<!-- Node41&#45;&gt;Node77 -->
<g id="edge6" class="edge"><title>Node41&#45;&gt;Node77</title>
<path fill="none" stroke="midnightblue" d="M48.9858,-117.929C60.5662,-100.164 87.7574,-61.9521 120,-40.5 122.951,-38.5367 126.071,-36.7129 129.295,-35.0207"/>
<polygon fill="midnightblue" stroke="midnightblue" points="131.073,-38.0508 138.599,-30.5936 128.065,-31.7299 131.073,-38.0508"/>
</g>
</g>
</svg>
