<?xml version="1.0" encoding="UTF-8" standalone="no"?>
<!DOCTYPE svg PUBLIC "-//W3C//DTD SVG 1.1//EN"
 "http://www.w3.org/Graphics/SVG/1.1/DTD/svg11.dtd">
<!-- Generated by graphviz version 2.38.0 (20140413.2041)
 -->
<!-- Title: read_and_send_radar_frame Pages: 1 -->
<svg width="324pt" height="253pt"
 viewBox="0.00 0.00 324.00 252.50" xmlns="http://www.w3.org/2000/svg" xmlns:xlink="http://www.w3.org/1999/xlink">
<g id="graph0" class="graph" transform="scale(1 1) rotate(0) translate(4 248.5)">
<title>read_and_send_radar_frame</title>
<polygon fill="white" stroke="none" points="-4,4 -4,-248.5 320,-248.5 320,4 -4,4"/>
<!-- Node0 -->
<g id="node1" class="node"><title>Node0</title>
<polygon fill="#bfbfbf" stroke="black" points="0,-101 0,-131 121,-131 121,-101 0,-101"/>
<text text-anchor="start" x="8" y="-119" font-family="Helvetica,sans-Serif" font-size="10.00">read_and_send_radar</text>
<text text-anchor="middle" x="60.5" y="-108" font-family="Helvetica,sans-Serif" font-size="10.00">_frame</text>
</g>
<!-- Node1 -->
<g id="node2" class="node"><title>Node1</title>
<g id="a_node2"><a xlink:href="x4driver_8h.xhtml#a195e6ef022545ebaba1dbc492cac6244" target="_top" xlink:title="x4driver_get_frame\l_bin_count">
<polygon fill="white" stroke="black" points="181.5,-214 181.5,-244 291.5,-244 291.5,-214 181.5,-214"/>
<text text-anchor="start" x="189.5" y="-232" font-family="Helvetica,sans-Serif" font-size="10.00">x4driver_get_frame</text>
<text text-anchor="middle" x="236.5" y="-221" font-family="Helvetica,sans-Serif" font-size="10.00">_bin_count</text>
</a>
</g>
</g>
<!-- Node0&#45;&gt;Node1 -->
<g id="edge1" class="edge"><title>Node0&#45;&gt;Node1</title>
<path fill="none" stroke="midnightblue" d="M74.178,-131.235C91.1528,-150.719 123.082,-184.289 157,-204 161.715,-206.74 166.766,-209.218 171.949,-211.452"/>
<polygon fill="midnightblue" stroke="midnightblue" points="170.793,-214.759 181.378,-215.213 173.386,-208.257 170.793,-214.759"/>
</g>
<!-- Node2 -->
<g id="node3" class="node"><title>Node2</title>
<g id="a_node3"><a xlink:href="x4driver_8h.xhtml#a31570a426896f2815180a25679c3b144" target="_top" xlink:title="x4driver_get_downconvertion">
<polygon fill="white" stroke="black" points="158.5,-175.5 158.5,-194.5 314.5,-194.5 314.5,-175.5 158.5,-175.5"/>
<text text-anchor="middle" x="236.5" y="-182.5" font-family="Helvetica,sans-Serif" font-size="10.00">x4driver_get_downconvertion</text>
</a>
</g>
</g>
<!-- Node0&#45;&gt;Node2 -->
<g id="edge2" class="edge"><title>Node0&#45;&gt;Node2</title>
<path fill="none" stroke="midnightblue" d="M86.2541,-131.117C105.089,-142.078 131.952,-156.575 157,-166 163.767,-168.546 170.992,-170.838 178.217,-172.873"/>
<polygon fill="midnightblue" stroke="midnightblue" points="177.462,-176.294 188.026,-175.491 179.267,-169.531 177.462,-176.294"/>
</g>
<!-- Node3 -->
<g id="node4" class="node"><title>Node3</title>
<g id="a_node4"><a xlink:href="xep__dispatch__messages_8h.xhtml#a6a21a4cf0441c4ef5a99170ec48b2c78" target="_top" xlink:title="Prepare for sending radardata frame. ">
<polygon fill="white" stroke="red" points="157,-126 157,-156 316,-156 316,-126 157,-126"/>
<text text-anchor="start" x="165" y="-144" font-family="Helvetica,sans-Serif" font-size="10.00">dispatch_message_radardata</text>
<text text-anchor="middle" x="236.5" y="-133" font-family="Helvetica,sans-Serif" font-size="10.00">_prepare_frame</text>
</a>
</g>
</g>
<!-- Node0&#45;&gt;Node3 -->
<g id="edge3" class="edge"><title>Node0&#45;&gt;Node3</title>
<path fill="none" stroke="midnightblue" d="M121.381,-124.604C129.577,-125.781 138.13,-127.01 146.706,-128.242"/>
<polygon fill="midnightblue" stroke="midnightblue" points="146.368,-131.73 156.765,-129.687 147.364,-124.801 146.368,-131.73"/>
</g>
<!-- Node10 -->
<g id="node5" class="node"><title>Node10</title>
<g id="a_node5"><a xlink:href="x4driver_8h.xhtml#a3d75a7209fa2ea65ab2acc5297751c99" target="_top" xlink:title="Reads frame and normalizes that frame. ">
<polygon fill="white" stroke="red" points="178.5,-77 178.5,-107 294.5,-107 294.5,-77 178.5,-77"/>
<text text-anchor="start" x="186.5" y="-95" font-family="Helvetica,sans-Serif" font-size="10.00">x4driver_read_frame</text>
<text text-anchor="middle" x="236.5" y="-84" font-family="Helvetica,sans-Serif" font-size="10.00">_normalized</text>
</a>
</g>
</g>
<!-- Node0&#45;&gt;Node10 -->
<g id="edge4" class="edge"><title>Node0&#45;&gt;Node10</title>
<path fill="none" stroke="midnightblue" d="M121.381,-107.741C136.541,-105.649 152.923,-103.39 168.414,-101.253"/>
<polygon fill="midnightblue" stroke="midnightblue" points="169.015,-104.704 178.443,-99.8699 168.059,-97.7692 169.015,-104.704"/>
</g>
<!-- Node29 -->
<g id="node6" class="node"><title>Node29</title>
<g id="a_node6"><a xlink:href="memorypool_8h.xhtml#a8afae8a96a7f4198bb89ace143868223" target="_top" xlink:title="Free memory block. ">
<polygon fill="white" stroke="red" points="186,-38.5 186,-57.5 287,-57.5 287,-38.5 186,-38.5"/>
<text text-anchor="middle" x="236.5" y="-45.5" font-family="Helvetica,sans-Serif" font-size="10.00">memorypool_free</text>
</a>
</g>
</g>
<!-- Node0&#45;&gt;Node29 -->
<g id="edge5" class="edge"><title>Node0&#45;&gt;Node29</title>
<path fill="none" stroke="midnightblue" d="M87.5651,-100.966C106.385,-90.5964 132.665,-77.0934 157,-68 164.68,-65.1302 172.933,-62.5302 181.1,-60.2261"/>
<polygon fill="midnightblue" stroke="midnightblue" points="182.23,-63.5464 190.975,-57.564 180.408,-56.7877 182.23,-63.5464"/>
</g>
<!-- Node30 -->
<g id="node7" class="node"><title>Node30</title>
<g id="a_node7"><a xlink:href="xep__dispatch_8h.xhtml#a7bad5694c10b470cac80025bd27f6fa9" target="_top" xlink:title="Send message on dispatcher. ">
<polygon fill="white" stroke="red" points="169,-0.5 169,-19.5 304,-19.5 304,-0.5 169,-0.5"/>
<text text-anchor="middle" x="236.5" y="-7.5" font-family="Helvetica,sans-Serif" font-size="10.00">dispatch_send_message</text>
</a>
</g>
</g>
<!-- Node0&#45;&gt;Node30 -->
<g id="edge6" class="edge"><title>Node0&#45;&gt;Node30</title>
<path fill="none" stroke="midnightblue" d="M73.7209,-100.911C90.4364,-81.3041 122.335,-47.4082 157,-29 161.452,-26.6356 166.203,-24.5605 171.079,-22.7402"/>
<polygon fill="midnightblue" stroke="midnightblue" points="172.208,-26.0534 180.567,-19.5445 169.973,-19.4195 172.208,-26.0534"/>
</g>
</g>
</svg>
