<?xml version="1.0" encoding="UTF-8" standalone="no"?>
<!DOCTYPE svg PUBLIC "-//W3C//DTD SVG 1.1//EN"
 "http://www.w3.org/Graphics/SVG/1.1/DTD/svg11.dtd">
<!-- Generated by graphviz version 2.38.0 (20140413.2041)
 -->
<!-- Title: src/HostCom/task_hostcom.h Pages: 1 -->
<svg width="250pt" height="84pt"
 viewBox="0.00 0.00 250.00 84.00" xmlns="http://www.w3.org/2000/svg" xmlns:xlink="http://www.w3.org/1999/xlink">
<g id="graph0" class="graph" transform="scale(1 1) rotate(0) translate(4 80)">
<title>src/HostCom/task_hostcom.h</title>
<polygon fill="white" stroke="none" points="-4,4 -4,-80 246,-80 246,4 -4,4"/>
<!-- Node5 -->
<g id="node1" class="node"><title>Node5</title>
<polygon fill="#bfbfbf" stroke="black" points="65,-56.5 65,-75.5 223,-75.5 223,-56.5 65,-56.5"/>
<text text-anchor="middle" x="144" y="-63.5" font-family="Helvetica,sans-Serif" font-size="10.00">src/HostCom/task_hostcom.h</text>
</g>
<!-- Node6 -->
<g id="node2" class="node"><title>Node6</title>
<g id="a_node2"><a xlink:href="task__hostcom_8c.xhtml" target="_top" xlink:title="src/HostCom/task_hostcom.c">
<polygon fill="white" stroke="black" points="0,-0.5 0,-19.5 158,-19.5 158,-0.5 0,-0.5"/>
<text text-anchor="middle" x="79" y="-7.5" font-family="Helvetica,sans-Serif" font-size="10.00">src/HostCom/task_hostcom.c</text>
</a>
</g>
</g>
<!-- Node5&#45;&gt;Node6 -->
<g id="edge1" class="edge"><title>Node5&#45;&gt;Node6</title>
<path fill="none" stroke="midnightblue" d="M125.727,-49.8197C114.082,-40.1452 99.4005,-27.9481 89.6334,-19.8339"/>
<polygon fill="midnightblue" stroke="midnightblue" points="123.628,-52.6259 133.557,-56.324 128.101,-47.2416 123.628,-52.6259"/>
</g>
<!-- Node7 -->
<g id="node3" class="node"><title>Node7</title>
<g id="a_node3"><a xlink:href="main_8c.xhtml" target="_top" xlink:title="main() function for Radar Application ">
<polygon fill="white" stroke="black" points="176,-0.5 176,-19.5 242,-19.5 242,-0.5 176,-0.5"/>
<text text-anchor="middle" x="209" y="-7.5" font-family="Helvetica,sans-Serif" font-size="10.00">src/main.c</text>
</a>
</g>
</g>
<!-- Node5&#45;&gt;Node7 -->
<g id="edge2" class="edge"><title>Node5&#45;&gt;Node7</title>
<path fill="none" stroke="midnightblue" d="M162.273,-49.8197C173.918,-40.1452 188.599,-27.9481 198.367,-19.8339"/>
<polygon fill="midnightblue" stroke="midnightblue" points="159.899,-47.2416 154.443,-56.324 164.372,-52.6259 159.899,-47.2416"/>
</g>
</g>
</svg>
