<?xml version="1.0" encoding="UTF-8" standalone="no"?>
<!DOCTYPE svg PUBLIC "-//W3C//DTD SVG 1.1//EN"
 "http://www.w3.org/Graphics/SVG/1.1/DTD/svg11.dtd">
<!-- Generated by graphviz version 2.38.0 (20140413.2041)
 -->
<!-- Title: src/HostCom/task_hostcom.c Pages: 1 -->
<svg width="1038pt" height="84pt"
 viewBox="0.00 0.00 1037.50 84.00" xmlns="http://www.w3.org/2000/svg" xmlns:xlink="http://www.w3.org/1999/xlink">
<g id="graph0" class="graph" transform="scale(1 1) rotate(0) translate(4 80)">
<title>src/HostCom/task_hostcom.c</title>
<polygon fill="white" stroke="none" points="-4,4 -4,-80 1033.5,-80 1033.5,4 -4,4"/>
<!-- Node0 -->
<g id="node1" class="node"><title>Node0</title>
<polygon fill="#bfbfbf" stroke="black" points="401.5,-56.5 401.5,-75.5 559.5,-75.5 559.5,-56.5 401.5,-56.5"/>
<text text-anchor="middle" x="480.5" y="-63.5" font-family="Helvetica,sans-Serif" font-size="10.00">src/HostCom/task_hostcom.c</text>
</g>
<!-- Node1 -->
<g id="node2" class="node"><title>Node1</title>
<g id="a_node2"><a xlink:href="task__hostcom_8h.xhtml" target="_top" xlink:title="task_hostcom.h">
<polygon fill="white" stroke="red" points="0,-0.5 0,-19.5 93,-19.5 93,-0.5 0,-0.5"/>
<text text-anchor="middle" x="46.5" y="-7.5" font-family="Helvetica,sans-Serif" font-size="10.00">task_hostcom.h</text>
</a>
</g>
</g>
<!-- Node0&#45;&gt;Node1 -->
<g id="edge1" class="edge"><title>Node0&#45;&gt;Node1</title>
<path fill="none" stroke="midnightblue" d="M401.246,-56.6171C326.802,-48.5079 212.041,-35.4054 103.438,-20.2272"/>
<polygon fill="midnightblue" stroke="midnightblue" points="103.676,-16.7264 93.2865,-18.7997 102.702,-23.6582 103.676,-16.7264"/>
</g>
<!-- Node6 -->
<g id="node3" class="node"><title>Node6</title>
<polygon fill="white" stroke="#bfbfbf" points="111,-0.5 111,-19.5 182,-19.5 182,-0.5 111,-0.5"/>
<text text-anchor="middle" x="146.5" y="-7.5" font-family="Helvetica,sans-Serif" font-size="10.00">FreeRTOS.h</text>
</g>
<!-- Node0&#45;&gt;Node6 -->
<g id="edge2" class="edge"><title>Node0&#45;&gt;Node6</title>
<path fill="none" stroke="midnightblue" d="M420.876,-56.4793C364.582,-48.2617 277.556,-35.1134 192.435,-20.1027"/>
<polygon fill="midnightblue" stroke="midnightblue" points="192.793,-16.6116 182.335,-18.3112 191.57,-23.5041 192.793,-16.6116"/>
</g>
<!-- Node7 -->
<g id="node4" class="node"><title>Node7</title>
<polygon fill="white" stroke="#bfbfbf" points="200.5,-0.5 200.5,-19.5 246.5,-19.5 246.5,-0.5 200.5,-0.5"/>
<text text-anchor="middle" x="223.5" y="-7.5" font-family="Helvetica,sans-Serif" font-size="10.00">task.h</text>
</g>
<!-- Node0&#45;&gt;Node7 -->
<g id="edge3" class="edge"><title>Node0&#45;&gt;Node7</title>
<path fill="none" stroke="midnightblue" d="M432.425,-56.4907C388.852,-48.5299 322.682,-35.8248 256.308,-20.0507"/>
<polygon fill="midnightblue" stroke="midnightblue" points="257.057,-16.6312 246.517,-17.7013 255.424,-23.438 257.057,-16.6312"/>
</g>
<!-- Node8 -->
<g id="node5" class="node"><title>Node8</title>
<polygon fill="white" stroke="#bfbfbf" points="264.5,-0.5 264.5,-19.5 320.5,-19.5 320.5,-0.5 264.5,-0.5"/>
<text text-anchor="middle" x="292.5" y="-7.5" font-family="Helvetica,sans-Serif" font-size="10.00">queue.h</text>
</g>
<!-- Node0&#45;&gt;Node8 -->
<g id="edge4" class="edge"><title>Node0&#45;&gt;Node8</title>
<path fill="none" stroke="midnightblue" d="M450.711,-56.4435C418.2,-47.1053 366.059,-32.1287 330.595,-21.9421"/>
<polygon fill="midnightblue" stroke="midnightblue" points="331.192,-18.4723 320.615,-19.0755 329.26,-25.2002 331.192,-18.4723"/>
</g>
<!-- Node9 -->
<g id="node6" class="node"><title>Node9</title>
<g id="a_node6"><a xlink:href="xtcompiler_8h.xhtml" target="_top" xlink:title="xtcompiler.h">
<polygon fill="white" stroke="black" points="338,-0.5 338,-19.5 413,-19.5 413,-0.5 338,-0.5"/>
<text text-anchor="middle" x="375.5" y="-7.5" font-family="Helvetica,sans-Serif" font-size="10.00">xtcompiler.h</text>
</a>
</g>
</g>
<!-- Node0&#45;&gt;Node9 -->
<g id="edge5" class="edge"><title>Node0&#45;&gt;Node9</title>
<path fill="none" stroke="midnightblue" d="M463.63,-56.324C446.791,-47.6641 420.693,-34.2424 401.262,-24.249"/>
<polygon fill="midnightblue" stroke="midnightblue" points="402.822,-21.1155 392.328,-19.6545 399.62,-27.3405 402.822,-21.1155"/>
</g>
<!-- Node10 -->
<g id="node7" class="node"><title>Node10</title>
<polygon fill="white" stroke="#bfbfbf" points="431,-0.5 431,-19.5 530,-19.5 530,-0.5 431,-0.5"/>
<text text-anchor="middle" x="480.5" y="-7.5" font-family="Helvetica,sans-Serif" font-size="10.00">protocol_target.h</text>
</g>
<!-- Node0&#45;&gt;Node10 -->
<g id="edge6" class="edge"><title>Node0&#45;&gt;Node10</title>
<path fill="none" stroke="midnightblue" d="M480.5,-56.083C480.5,-49.0059 480.5,-38.8611 480.5,-29.9865"/>
<polygon fill="midnightblue" stroke="midnightblue" points="484,-29.751 480.5,-19.7511 477,-29.7511 484,-29.751"/>
</g>
<!-- Node11 -->
<g id="node8" class="node"><title>Node11</title>
<polygon fill="white" stroke="#bfbfbf" points="548,-0.5 548,-19.5 601,-19.5 601,-0.5 548,-0.5"/>
<text text-anchor="middle" x="574.5" y="-7.5" font-family="Helvetica,sans-Serif" font-size="10.00">string.h</text>
</g>
<!-- Node0&#45;&gt;Node11 -->
<g id="edge7" class="edge"><title>Node0&#45;&gt;Node11</title>
<path fill="none" stroke="midnightblue" d="M495.603,-56.324C510.403,-47.8215 533.194,-34.7288 550.482,-24.7975"/>
<polygon fill="midnightblue" stroke="midnightblue" points="552.507,-27.6707 559.435,-19.6545 549.02,-21.6009 552.507,-27.6707"/>
</g>
<!-- Node12 -->
<g id="node9" class="node"><title>Node12</title>
<polygon fill="white" stroke="#bfbfbf" points="619.5,-0.5 619.5,-19.5 695.5,-19.5 695.5,-0.5 619.5,-0.5"/>
<text text-anchor="middle" x="657.5" y="-7.5" font-family="Helvetica,sans-Serif" font-size="10.00">arm_math.h</text>
</g>
<!-- Node0&#45;&gt;Node12 -->
<g id="edge8" class="edge"><title>Node0&#45;&gt;Node12</title>
<path fill="none" stroke="midnightblue" d="M508.546,-56.4435C538.582,-47.2801 586.413,-32.6876 619.743,-22.5192"/>
<polygon fill="midnightblue" stroke="midnightblue" points="621.042,-25.7822 629.585,-19.5164 618.999,-19.0869 621.042,-25.7822"/>
</g>
<!-- Node13 -->
<g id="node10" class="node"><title>Node13</title>
<g id="a_node10"><a xlink:href="xep__dispatch__messages_8h.xhtml" target="_top" xlink:title="xep_dispatch_messages.h">
<polygon fill="white" stroke="red" points="714,-0.5 714,-19.5 857,-19.5 857,-0.5 714,-0.5"/>
<text text-anchor="middle" x="785.5" y="-7.5" font-family="Helvetica,sans-Serif" font-size="10.00">xep_dispatch_messages.h</text>
</a>
</g>
</g>
<!-- Node0&#45;&gt;Node13 -->
<g id="edge9" class="edge"><title>Node0&#45;&gt;Node13</title>
<path fill="none" stroke="midnightblue" d="M528.828,-56.4435C582.704,-46.9049 669.807,-31.4834 727.364,-21.293"/>
<polygon fill="midnightblue" stroke="midnightblue" points="728.161,-24.7063 737.398,-19.5164 726.941,-17.8135 728.161,-24.7063"/>
</g>
<!-- Node14 -->
<g id="node11" class="node"><title>Node14</title>
<g id="a_node11"><a xlink:href="xep__hal_8h.xhtml" target="_top" xlink:title="Brief description. ">
<polygon fill="white" stroke="red" points="875.5,-0.5 875.5,-19.5 937.5,-19.5 937.5,-0.5 875.5,-0.5"/>
<text text-anchor="middle" x="906.5" y="-7.5" font-family="Helvetica,sans-Serif" font-size="10.00">xep_hal.h</text>
</a>
</g>
</g>
<!-- Node0&#45;&gt;Node14 -->
<g id="edge10" class="edge"><title>Node0&#45;&gt;Node14</title>
<path fill="none" stroke="midnightblue" d="M559.579,-58.2367C635.553,-51.1793 753.743,-38.7374 865.06,-20.0936"/>
<polygon fill="midnightblue" stroke="midnightblue" points="865.845,-23.5106 875.119,-18.3886 864.675,-16.6091 865.845,-23.5106"/>
</g>
<!-- Node16 -->
<g id="node12" class="node"><title>Node16</title>
<g id="a_node12"><a xlink:href="xtmemory_8h.xhtml" target="_top" xlink:title="Platform independent mutex mechanism. ">
<polygon fill="white" stroke="red" points="955.5,-0.5 955.5,-19.5 1029.5,-19.5 1029.5,-0.5 955.5,-0.5"/>
<text text-anchor="middle" x="992.5" y="-7.5" font-family="Helvetica,sans-Serif" font-size="10.00">xtmemory.h</text>
</a>
</g>
</g>
<!-- Node0&#45;&gt;Node16 -->
<g id="edge11" class="edge"><title>Node0&#45;&gt;Node16</title>
<path fill="none" stroke="midnightblue" d="M559.523,-59.7155C650.265,-53.118 803.773,-40.3413 945.233,-20.0537"/>
<polygon fill="midnightblue" stroke="midnightblue" points="946.002,-23.4788 955.396,-18.58 944.997,-16.5513 946.002,-23.4788"/>
</g>
</g>
</svg>
