<?xml version="1.0" encoding="UTF-8" standalone="no"?>
<!DOCTYPE svg PUBLIC "-//W3C//DTD SVG 1.1//EN"
 "http://www.w3.org/Graphics/SVG/1.1/DTD/svg11.dtd">
<!-- Generated by graphviz version 2.38.0 (20140413.2041)
 -->
<!-- Title: src/System/task_monitor.h Pages: 1 -->
<svg width="684pt" height="95pt"
 viewBox="0.00 0.00 683.50 95.00" xmlns="http://www.w3.org/2000/svg" xmlns:xlink="http://www.w3.org/1999/xlink">
<g id="graph0" class="graph" transform="scale(1 1) rotate(0) translate(4 91)">
<title>src/System/task_monitor.h</title>
<polygon fill="white" stroke="none" points="-4,4 -4,-91 679.5,-91 679.5,4 -4,4"/>
<!-- Node5 -->
<g id="node1" class="node"><title>Node5</title>
<polygon fill="#bfbfbf" stroke="black" points="217.5,-67.5 217.5,-86.5 362.5,-86.5 362.5,-67.5 217.5,-67.5"/>
<text text-anchor="middle" x="290" y="-74.5" font-family="Helvetica,sans-Serif" font-size="10.00">src/System/task_monitor.h</text>
</g>
<!-- Node6 -->
<g id="node2" class="node"><title>Node6</title>
<g id="a_node2"><a xlink:href="xtio__serial__com_8c.xhtml" target="_top" xlink:title="Implement USB serial communication. ">
<polygon fill="white" stroke="black" points="0,-0.5 0,-30.5 126,-30.5 126,-0.5 0,-0.5"/>
<text text-anchor="start" x="8" y="-18.5" font-family="Helvetica,sans-Serif" font-size="10.00">src/hal/x4m0x_s70/xtio</text>
<text text-anchor="middle" x="63" y="-7.5" font-family="Helvetica,sans-Serif" font-size="10.00">_serial_com.c</text>
</a>
</g>
</g>
<!-- Node5&#45;&gt;Node6 -->
<g id="edge1" class="edge"><title>Node5&#45;&gt;Node6</title>
<path fill="none" stroke="midnightblue" d="M247.496,-64.859C210.433,-55.1442 156.492,-41.0055 116.499,-30.523"/>
<polygon fill="midnightblue" stroke="midnightblue" points="246.916,-68.3252 257.476,-67.4751 248.691,-61.5539 246.916,-68.3252"/>
</g>
<!-- Node7 -->
<g id="node3" class="node"><title>Node7</title>
<g id="a_node3"><a xlink:href="main_8c.xhtml" target="_top" xlink:title="main() function for Radar Application ">
<polygon fill="white" stroke="black" points="144,-6 144,-25 210,-25 210,-6 144,-6"/>
<text text-anchor="middle" x="177" y="-13" font-family="Helvetica,sans-Serif" font-size="10.00">src/main.c</text>
</a>
</g>
</g>
<!-- Node5&#45;&gt;Node7 -->
<g id="edge2" class="edge"><title>Node5&#45;&gt;Node7</title>
<path fill="none" stroke="midnightblue" d="M264.764,-62.7118C242.878,-51.1881 211.859,-34.855 193.16,-25.0091"/>
<polygon fill="midnightblue" stroke="midnightblue" points="263.331,-65.9129 273.81,-67.4751 266.592,-59.7191 263.331,-65.9129"/>
</g>
<!-- Node8 -->
<g id="node4" class="node"><title>Node8</title>
<g id="a_node4"><a xlink:href="task__radar_8c.xhtml" target="_top" xlink:title="src/Radar/task_radar.c">
<polygon fill="white" stroke="black" points="228.5,-6 228.5,-25 351.5,-25 351.5,-6 228.5,-6"/>
<text text-anchor="middle" x="290" y="-13" font-family="Helvetica,sans-Serif" font-size="10.00">src/Radar/task_radar.c</text>
</a>
</g>
</g>
<!-- Node5&#45;&gt;Node8 -->
<g id="edge3" class="edge"><title>Node5&#45;&gt;Node8</title>
<path fill="none" stroke="midnightblue" d="M290,-57.3165C290,-46.4962 290,-33.398 290,-25.0091"/>
<polygon fill="midnightblue" stroke="midnightblue" points="286.5,-57.4751 290,-67.4751 293.5,-57.4751 286.5,-57.4751"/>
</g>
<!-- Node9 -->
<g id="node5" class="node"><title>Node9</title>
<g id="a_node5"><a xlink:href="task__monitor_8c.xhtml" target="_top" xlink:title="src/System/task_monitor.c">
<polygon fill="white" stroke="black" points="370,-6 370,-25 514,-25 514,-6 370,-6"/>
<text text-anchor="middle" x="442" y="-13" font-family="Helvetica,sans-Serif" font-size="10.00">src/System/task_monitor.c</text>
</a>
</g>
</g>
<!-- Node5&#45;&gt;Node9 -->
<g id="edge4" class="edge"><title>Node5&#45;&gt;Node9</title>
<path fill="none" stroke="midnightblue" d="M321.211,-63.7824C350.749,-52.2199 394.32,-35.1641 420.263,-25.0091"/>
<polygon fill="midnightblue" stroke="midnightblue" points="319.814,-60.5707 311.778,-67.4751 322.366,-67.0891 319.814,-60.5707"/>
</g>
<!-- Node10 -->
<g id="node6" class="node"><title>Node10</title>
<g id="a_node6"><a xlink:href="xep__application_8c.xhtml" target="_top" xlink:title="src/XEPA/xep_application.c">
<polygon fill="white" stroke="black" points="532.5,-6 532.5,-25 675.5,-25 675.5,-6 532.5,-6"/>
<text text-anchor="middle" x="604" y="-13" font-family="Helvetica,sans-Serif" font-size="10.00">src/XEPA/xep_application.c</text>
</a>
</g>
</g>
<!-- Node5&#45;&gt;Node10 -->
<g id="edge5" class="edge"><title>Node5&#45;&gt;Node10</title>
<path fill="none" stroke="midnightblue" d="M345.171,-65.5456C406.004,-54.0184 502.708,-35.6939 559.095,-25.0091"/>
<polygon fill="midnightblue" stroke="midnightblue" points="344.162,-62.1744 334.989,-67.4751 345.465,-69.0521 344.162,-62.1744"/>
</g>
</g>
</svg>
