<?xml version="1.0" encoding="UTF-8" standalone="no"?>
<!DOCTYPE svg PUBLIC "-//W3C//DTD SVG 1.1//EN"
 "http://www.w3.org/Graphics/SVG/1.1/DTD/svg11.dtd">
<!-- Generated by graphviz version 2.38.0 (20140413.2041)
 -->
<!-- Title: monitor_task_alive Pages: 1 -->
<svg width="245pt" height="218pt"
 viewBox="0.00 0.00 245.00 218.00" xmlns="http://www.w3.org/2000/svg" xmlns:xlink="http://www.w3.org/1999/xlink">
<g id="graph0" class="graph" transform="scale(1 1) rotate(0) translate(4 214)">
<title>monitor_task_alive</title>
<polygon fill="white" stroke="none" points="-4,4 -4,-214 241,-214 241,4 -4,4"/>
<!-- Node1 -->
<g id="node1" class="node"><title>Node1</title>
<polygon fill="#bfbfbf" stroke="black" points="0,-95.5 0,-114.5 107,-114.5 107,-95.5 0,-95.5"/>
<text text-anchor="middle" x="53.5" y="-102.5" font-family="Helvetica,sans-Serif" font-size="10.00">monitor_task_alive</text>
</g>
<!-- Node2 -->
<g id="node2" class="node"><title>Node2</title>
<g id="a_node2"><a xlink:href="xtio__serial__com_8c.xhtml#a18a89b2e10b293c135602a32bb07cbba" target="_top" xlink:title="_usb_task_tx">
<polygon fill="white" stroke="red" points="150.5,-190.5 150.5,-209.5 229.5,-209.5 229.5,-190.5 150.5,-190.5"/>
<text text-anchor="middle" x="190" y="-197.5" font-family="Helvetica,sans-Serif" font-size="10.00">_usb_task_tx</text>
</a>
</g>
</g>
<!-- Node1&#45;&gt;Node2 -->
<g id="edge1" class="edge"><title>Node1&#45;&gt;Node2</title>
<path fill="none" stroke="midnightblue" d="M70.9015,-121.943C87.7728,-138.646 115.412,-164.062 143,-181 148.743,-184.526 155.257,-187.668 161.539,-190.331"/>
<polygon fill="midnightblue" stroke="midnightblue" points="73.0606,-119.15 63.5317,-114.519 68.0926,-124.082 73.0606,-119.15"/>
</g>
<!-- Node9 -->
<g id="node3" class="node"><title>Node9</title>
<g id="a_node3"><a xlink:href="xtio__serial__com_8c.xhtml#afdbe66e3a8423057af6855132b1965ee" target="_top" xlink:title="_usb_task_rx">
<polygon fill="white" stroke="red" points="150.5,-152.5 150.5,-171.5 229.5,-171.5 229.5,-152.5 150.5,-152.5"/>
<text text-anchor="middle" x="190" y="-159.5" font-family="Helvetica,sans-Serif" font-size="10.00">_usb_task_rx</text>
</a>
</g>
</g>
<!-- Node1&#45;&gt;Node9 -->
<g id="edge2" class="edge"><title>Node1&#45;&gt;Node9</title>
<path fill="none" stroke="midnightblue" d="M86.0417,-118.669C102.915,-125.95 124.064,-135.024 143,-143 150.326,-146.086 158.327,-149.407 165.572,-152.397"/>
<polygon fill="midnightblue" stroke="midnightblue" points="87.2178,-115.365 76.6497,-114.612 84.4415,-121.791 87.2178,-115.365"/>
</g>
<!-- Node10 -->
<g id="node4" class="node"><title>Node10</title>
<g id="a_node4"><a xlink:href="xtio__serial__com_8c.xhtml#a0870cbcfb33018b8eb1ce5679d543119" target="_top" xlink:title="_uart_task_tx">
<polygon fill="white" stroke="red" points="149.5,-114.5 149.5,-133.5 230.5,-133.5 230.5,-114.5 149.5,-114.5"/>
<text text-anchor="middle" x="190" y="-121.5" font-family="Helvetica,sans-Serif" font-size="10.00">_uart_task_tx</text>
</a>
</g>
</g>
<!-- Node1&#45;&gt;Node10 -->
<g id="edge3" class="edge"><title>Node1&#45;&gt;Node10</title>
<path fill="none" stroke="midnightblue" d="M117.215,-113.859C128.127,-115.401 139.199,-116.965 149.275,-118.388"/>
<polygon fill="midnightblue" stroke="midnightblue" points="117.663,-110.388 107.272,-112.455 116.684,-117.319 117.663,-110.388"/>
</g>
<!-- Node12 -->
<g id="node5" class="node"><title>Node12</title>
<g id="a_node5"><a xlink:href="xtio__serial__com_8c.xhtml#a5e9056b9bb65d42367ec290aea738768" target="_top" xlink:title="_uart_task_rx">
<polygon fill="white" stroke="red" points="149.5,-76.5 149.5,-95.5 230.5,-95.5 230.5,-76.5 149.5,-76.5"/>
<text text-anchor="middle" x="190" y="-83.5" font-family="Helvetica,sans-Serif" font-size="10.00">_uart_task_rx</text>
</a>
</g>
</g>
<!-- Node1&#45;&gt;Node12 -->
<g id="edge4" class="edge"><title>Node1&#45;&gt;Node12</title>
<path fill="none" stroke="midnightblue" d="M117.215,-96.1406C128.127,-94.5991 139.199,-93.035 149.275,-91.6117"/>
<polygon fill="midnightblue" stroke="midnightblue" points="116.684,-92.6808 107.272,-97.5452 117.663,-99.612 116.684,-92.6808"/>
</g>
<!-- Node13 -->
<g id="node6" class="node"><title>Node13</title>
<g id="a_node6"><a xlink:href="task__radar_8c.xhtml#ab45564b4bfe2b9814424a084ab9a9859" target="_top" xlink:title="task_radar">
<polygon fill="white" stroke="red" points="156,-38.5 156,-57.5 224,-57.5 224,-38.5 156,-38.5"/>
<text text-anchor="middle" x="190" y="-45.5" font-family="Helvetica,sans-Serif" font-size="10.00">task_radar</text>
</a>
</g>
</g>
<!-- Node1&#45;&gt;Node13 -->
<g id="edge5" class="edge"><title>Node1&#45;&gt;Node13</title>
<path fill="none" stroke="midnightblue" d="M86.0417,-91.3308C102.915,-84.0501 124.064,-74.9757 143,-67 150.326,-63.9144 158.327,-60.5927 165.572,-57.6031"/>
<polygon fill="midnightblue" stroke="midnightblue" points="84.4415,-88.2094 76.6497,-95.3885 87.2178,-94.6354 84.4415,-88.2094"/>
</g>
<!-- Node15 -->
<g id="node7" class="node"><title>Node15</title>
<g id="a_node7"><a xlink:href="xep__application_8c.xhtml#a0ba95989f534a0adaa0e258fce6d3a0a" target="_top" xlink:title="task_application">
<polygon fill="white" stroke="red" points="143,-0.5 143,-19.5 237,-19.5 237,-0.5 143,-0.5"/>
<text text-anchor="middle" x="190" y="-7.5" font-family="Helvetica,sans-Serif" font-size="10.00">task_application</text>
</a>
</g>
</g>
<!-- Node1&#45;&gt;Node15 -->
<g id="edge6" class="edge"><title>Node1&#45;&gt;Node15</title>
<path fill="none" stroke="midnightblue" d="M70.9015,-88.0568C87.7728,-71.3537 115.412,-45.9379 143,-29 148.743,-25.4737 155.257,-22.3324 161.539,-19.6688"/>
<polygon fill="midnightblue" stroke="midnightblue" points="68.0926,-85.9185 63.5317,-95.4814 73.0606,-90.8499 68.0926,-85.9185"/>
</g>
</g>
</svg>
