<?xml version="1.0" encoding="UTF-8" standalone="no"?>
<!DOCTYPE svg PUBLIC "-//W3C//DTD SVG 1.1//EN"
 "http://www.w3.org/Graphics/SVG/1.1/DTD/svg11.dtd">
<!-- Generated by graphviz version 2.38.0 (20140413.2041)
 -->
<!-- Title: process_dispatch_message_hostcom_send Pages: 1 -->
<svg width="347pt" height="154pt"
 viewBox="0.00 0.00 347.00 154.00" xmlns="http://www.w3.org/2000/svg" xmlns:xlink="http://www.w3.org/1999/xlink">
<g id="graph0" class="graph" transform="scale(1 1) rotate(0) translate(4 150)">
<title>process_dispatch_message_hostcom_send</title>
<polygon fill="white" stroke="none" points="-4,4 -4,-150 343,-150 343,4 -4,4"/>
<!-- Node28 -->
<g id="node1" class="node"><title>Node28</title>
<polygon fill="#bfbfbf" stroke="black" points="0,-55 0,-85 149,-85 149,-55 0,-55"/>
<text text-anchor="start" x="8" y="-73" font-family="Helvetica,sans-Serif" font-size="10.00">process_dispatch_message</text>
<text text-anchor="middle" x="74.5" y="-62" font-family="Helvetica,sans-Serif" font-size="10.00">_hostcom_send</text>
</g>
<!-- Node29 -->
<g id="node2" class="node"><title>Node29</title>
<g id="a_node2"><a xlink:href="group__udd__udphs__group.xhtml#gae90f972fe3687ee01b803027939cdb47" target="_top" xlink:title="if">
<polygon fill="white" stroke="black" points="247.5,-126.5 247.5,-145.5 276.5,-145.5 276.5,-126.5 247.5,-126.5"/>
<text text-anchor="middle" x="262" y="-133.5" font-family="Helvetica,sans-Serif" font-size="10.00">if</text>
</a>
</g>
</g>
<!-- Node28&#45;&gt;Node29 -->
<g id="edge1" class="edge"><title>Node28&#45;&gt;Node29</title>
<path fill="none" stroke="midnightblue" d="M107.076,-85.1554C128.672,-95.1208 158.144,-107.944 185,-117 202.215,-122.805 222.157,-127.725 237.293,-131.103"/>
<polygon fill="midnightblue" stroke="midnightblue" points="236.843,-134.587 247.357,-133.281 238.324,-127.745 236.843,-134.587"/>
</g>
<!-- Node30 -->
<g id="node3" class="node"><title>Node30</title>
<g id="a_node3"><a xlink:href="task__hostcom_8c.xhtml#a45145b193d3a80b8fc5902a948790a39" target="_top" xlink:title="mcp_protocol_messagebuild\l_callback">
<polygon fill="white" stroke="black" points="185,-77 185,-107 339,-107 339,-77 185,-77"/>
<text text-anchor="start" x="193" y="-95" font-family="Helvetica,sans-Serif" font-size="10.00">mcp_protocol_messagebuild</text>
<text text-anchor="middle" x="262" y="-84" font-family="Helvetica,sans-Serif" font-size="10.00">_callback</text>
</a>
</g>
</g>
<!-- Node28&#45;&gt;Node30 -->
<g id="edge2" class="edge"><title>Node28&#45;&gt;Node30</title>
<path fill="none" stroke="midnightblue" d="M149.081,-78.7266C157.515,-79.7268 166.169,-80.7532 174.75,-81.7708"/>
<polygon fill="midnightblue" stroke="midnightblue" points="174.427,-85.2571 184.77,-82.9592 175.252,-78.3058 174.427,-85.2571"/>
</g>
<!-- Node31 -->
<g id="node4" class="node"><title>Node31</title>
<g id="a_node4"><a xlink:href="xep__hal_8h.xhtml#a9e643456f3adfe39a574aa2cc8caa49e" target="_top" xlink:title="Send a data buffer to host through a serial port &#45; USB or UART. ">
<polygon fill="white" stroke="black" points="217.5,-38.5 217.5,-57.5 306.5,-57.5 306.5,-38.5 217.5,-38.5"/>
<text text-anchor="middle" x="262" y="-45.5" font-family="Helvetica,sans-Serif" font-size="10.00">xtio_host_send</text>
</a>
</g>
</g>
<!-- Node28&#45;&gt;Node31 -->
<g id="edge3" class="edge"><title>Node28&#45;&gt;Node31</title>
<path fill="none" stroke="midnightblue" d="M149.081,-61.2734C168.535,-58.9662 189.166,-56.5194 207.344,-54.3635"/>
<polygon fill="midnightblue" stroke="midnightblue" points="207.933,-57.8183 217.451,-53.1648 207.109,-50.867 207.933,-57.8183"/>
</g>
<!-- Node32 -->
<g id="node5" class="node"><title>Node32</title>
<g id="a_node5"><a xlink:href="xep__dispatch_8h.xhtml#af230fbcbf78ff22c13ca92625a50216d" target="_top" xlink:title="Release message. ">
<polygon fill="white" stroke="red" points="188.5,-0.5 188.5,-19.5 335.5,-19.5 335.5,-0.5 188.5,-0.5"/>
<text text-anchor="middle" x="262" y="-7.5" font-family="Helvetica,sans-Serif" font-size="10.00">dispatch_release_message</text>
</a>
</g>
</g>
<!-- Node28&#45;&gt;Node32 -->
<g id="edge4" class="edge"><title>Node28&#45;&gt;Node32</title>
<path fill="none" stroke="midnightblue" d="M112.639,-54.8977C133.67,-46.6492 160.578,-36.5982 185,-29 192.848,-26.5584 201.225,-24.2109 209.445,-22.0489"/>
<polygon fill="midnightblue" stroke="midnightblue" points="210.53,-25.3841 219.348,-19.5101 208.792,-18.6034 210.53,-25.3841"/>
</g>
</g>
</svg>
