<?xml version="1.0" encoding="UTF-8" standalone="no"?>
<!DOCTYPE svg PUBLIC "-//W3C//DTD SVG 1.1//EN"
 "http://www.w3.org/Graphics/SVG/1.1/DTD/svg11.dtd">
<!-- Generated by graphviz version 2.38.0 (20140413.2041)
 -->
<!-- Title: src/System/task_monitor.c Pages: 1 -->
<svg width="496pt" height="84pt"
 viewBox="0.00 0.00 496.00 84.00" xmlns="http://www.w3.org/2000/svg" xmlns:xlink="http://www.w3.org/1999/xlink">
<g id="graph0" class="graph" transform="scale(1 1) rotate(0) translate(4 80)">
<title>src/System/task_monitor.c</title>
<polygon fill="white" stroke="none" points="-4,4 -4,-80 492,-80 492,4 -4,4"/>
<!-- Node0 -->
<g id="node1" class="node"><title>Node0</title>
<polygon fill="#bfbfbf" stroke="black" points="181,-56.5 181,-75.5 325,-75.5 325,-56.5 181,-56.5"/>
<text text-anchor="middle" x="253" y="-63.5" font-family="Helvetica,sans-Serif" font-size="10.00">src/System/task_monitor.c</text>
</g>
<!-- Node1 -->
<g id="node2" class="node"><title>Node1</title>
<g id="a_node2"><a xlink:href="task__monitor_8h.xhtml" target="_top" xlink:title="System monitor task. ">
<polygon fill="white" stroke="red" points="0,-0.5 0,-19.5 88,-19.5 88,-0.5 0,-0.5"/>
<text text-anchor="middle" x="44" y="-7.5" font-family="Helvetica,sans-Serif" font-size="10.00">task_monitor.h</text>
</a>
</g>
</g>
<!-- Node0&#45;&gt;Node1 -->
<g id="edge1" class="edge"><title>Node0&#45;&gt;Node1</title>
<path fill="none" stroke="midnightblue" d="M219.883,-56.4435C183.882,-47.1419 126.23,-32.246 86.8142,-22.062"/>
<polygon fill="midnightblue" stroke="midnightblue" points="87.5194,-18.6294 76.9617,-19.5164 85.7682,-25.4068 87.5194,-18.6294"/>
</g>
<!-- Node6 -->
<g id="node3" class="node"><title>Node6</title>
<polygon fill="white" stroke="#bfbfbf" points="106.5,-0.5 106.5,-19.5 177.5,-19.5 177.5,-0.5 106.5,-0.5"/>
<text text-anchor="middle" x="142" y="-7.5" font-family="Helvetica,sans-Serif" font-size="10.00">FreeRTOS.h</text>
</g>
<!-- Node0&#45;&gt;Node6 -->
<g id="edge2" class="edge"><title>Node0&#45;&gt;Node6</title>
<path fill="none" stroke="midnightblue" d="M235.166,-56.324C217.284,-47.6247 189.525,-34.1202 168.954,-24.113"/>
<polygon fill="midnightblue" stroke="midnightblue" points="170.313,-20.8819 159.79,-19.6545 167.251,-27.1765 170.313,-20.8819"/>
</g>
<!-- Node7 -->
<g id="node4" class="node"><title>Node7</title>
<polygon fill="white" stroke="#bfbfbf" points="196,-0.5 196,-19.5 242,-19.5 242,-0.5 196,-0.5"/>
<text text-anchor="middle" x="219" y="-7.5" font-family="Helvetica,sans-Serif" font-size="10.00">task.h</text>
</g>
<!-- Node0&#45;&gt;Node7 -->
<g id="edge3" class="edge"><title>Node0&#45;&gt;Node7</title>
<path fill="none" stroke="midnightblue" d="M247.386,-56.083C242.633,-48.5341 235.682,-37.4948 229.848,-28.2298"/>
<polygon fill="midnightblue" stroke="midnightblue" points="232.8,-26.3486 224.51,-19.7511 226.876,-30.0783 232.8,-26.3486"/>
</g>
<!-- Node8 -->
<g id="node5" class="node"><title>Node8</title>
<polygon fill="white" stroke="#bfbfbf" points="260,-0.5 260,-19.5 316,-19.5 316,-0.5 260,-0.5"/>
<text text-anchor="middle" x="288" y="-7.5" font-family="Helvetica,sans-Serif" font-size="10.00">queue.h</text>
</g>
<!-- Node0&#45;&gt;Node8 -->
<g id="edge4" class="edge"><title>Node0&#45;&gt;Node8</title>
<path fill="none" stroke="midnightblue" d="M258.78,-56.083C263.672,-48.5341 270.827,-37.4948 276.833,-28.2298"/>
<polygon fill="midnightblue" stroke="midnightblue" points="279.826,-30.0463 282.328,-19.7511 273.952,-26.239 279.826,-30.0463"/>
</g>
<!-- Node9 -->
<g id="node6" class="node"><title>Node9</title>
<g id="a_node6"><a xlink:href="xtmemory_8h.xhtml" target="_top" xlink:title="Platform independent mutex mechanism. ">
<polygon fill="white" stroke="red" points="334,-0.5 334,-19.5 408,-19.5 408,-0.5 334,-0.5"/>
<text text-anchor="middle" x="371" y="-7.5" font-family="Helvetica,sans-Serif" font-size="10.00">xtmemory.h</text>
</a>
</g>
</g>
<!-- Node0&#45;&gt;Node9 -->
<g id="edge5" class="edge"><title>Node0&#45;&gt;Node9</title>
<path fill="none" stroke="midnightblue" d="M271.697,-56.4435C290.944,-47.6356 321.152,-33.8116 343.2,-23.722"/>
<polygon fill="midnightblue" stroke="midnightblue" points="344.753,-26.8603 352.39,-19.5164 341.84,-20.4951 344.753,-26.8603"/>
</g>
<!-- Node10 -->
<g id="node7" class="node"><title>Node10</title>
<g id="a_node7"><a xlink:href="xep__hal_8h.xhtml" target="_top" xlink:title="Brief description. ">
<polygon fill="white" stroke="red" points="426,-0.5 426,-19.5 488,-19.5 488,-0.5 426,-0.5"/>
<text text-anchor="middle" x="457" y="-7.5" font-family="Helvetica,sans-Serif" font-size="10.00">xep_hal.h</text>
</a>
</g>
</g>
<!-- Node0&#45;&gt;Node10 -->
<g id="edge6" class="edge"><title>Node0&#45;&gt;Node10</title>
<path fill="none" stroke="midnightblue" d="M285.324,-56.4435C320.699,-47.0797 377.49,-32.0467 415.979,-21.8585"/>
<polygon fill="midnightblue" stroke="midnightblue" points="417.059,-25.1933 425.83,-19.2508 415.268,-18.4263 417.059,-25.1933"/>
</g>
</g>
</svg>
