<?xml version="1.0" encoding="UTF-8" standalone="no"?>
<!DOCTYPE svg PUBLIC "-//W3C//DTD SVG 1.1//EN"
 "http://www.w3.org/Graphics/SVG/1.1/DTD/svg11.dtd">
<!-- Generated by graphviz version 2.38.0 (20140413.2041)
 -->
<!-- Title: monitor_task_register Pages: 1 -->
<svg width="260pt" height="218pt"
 viewBox="0.00 0.00 260.00 218.00" xmlns="http://www.w3.org/2000/svg" xmlns:xlink="http://www.w3.org/1999/xlink">
<g id="graph0" class="graph" transform="scale(1 1) rotate(0) translate(4 214)">
<title>monitor_task_register</title>
<polygon fill="white" stroke="none" points="-4,4 -4,-214 256,-214 256,4 -4,4"/>
<!-- Node25 -->
<g id="node1" class="node"><title>Node25</title>
<polygon fill="#bfbfbf" stroke="black" points="0,-95.5 0,-114.5 122,-114.5 122,-95.5 0,-95.5"/>
<text text-anchor="middle" x="61" y="-102.5" font-family="Helvetica,sans-Serif" font-size="10.00">monitor_task_register</text>
</g>
<!-- Node26 -->
<g id="node2" class="node"><title>Node26</title>
<g id="a_node2"><a xlink:href="xtio__serial__com_8c.xhtml#a18a89b2e10b293c135602a32bb07cbba" target="_top" xlink:title="_usb_task_tx">
<polygon fill="white" stroke="red" points="165.5,-190.5 165.5,-209.5 244.5,-209.5 244.5,-190.5 165.5,-190.5"/>
<text text-anchor="middle" x="205" y="-197.5" font-family="Helvetica,sans-Serif" font-size="10.00">_usb_task_tx</text>
</a>
</g>
</g>
<!-- Node25&#45;&gt;Node26 -->
<g id="edge1" class="edge"><title>Node25&#45;&gt;Node26</title>
<path fill="none" stroke="midnightblue" d="M79.8509,-121.651C98.3375,-138.266 128.587,-163.74 158,-181 163.962,-184.498 170.69,-187.666 177.123,-190.367"/>
<polygon fill="midnightblue" stroke="midnightblue" points="81.9777,-118.854 72.2301,-114.702 77.2612,-124.026 81.9777,-118.854"/>
</g>
<!-- Node33 -->
<g id="node3" class="node"><title>Node33</title>
<g id="a_node3"><a xlink:href="xtio__serial__com_8c.xhtml#afdbe66e3a8423057af6855132b1965ee" target="_top" xlink:title="_usb_task_rx">
<polygon fill="white" stroke="red" points="165.5,-152.5 165.5,-171.5 244.5,-171.5 244.5,-152.5 165.5,-152.5"/>
<text text-anchor="middle" x="205" y="-159.5" font-family="Helvetica,sans-Serif" font-size="10.00">_usb_task_rx</text>
</a>
</g>
</g>
<!-- Node25&#45;&gt;Node33 -->
<g id="edge2" class="edge"><title>Node25&#45;&gt;Node33</title>
<path fill="none" stroke="midnightblue" d="M95.2352,-118.341C121.279,-128.795 156.884,-143.087 180.155,-152.428"/>
<polygon fill="midnightblue" stroke="midnightblue" points="96.3517,-115.018 85.7676,-114.541 93.744,-121.514 96.3517,-115.018"/>
</g>
<!-- Node34 -->
<g id="node4" class="node"><title>Node34</title>
<g id="a_node4"><a xlink:href="xtio__serial__com_8c.xhtml#a0870cbcfb33018b8eb1ce5679d543119" target="_top" xlink:title="_uart_task_tx">
<polygon fill="white" stroke="red" points="164.5,-114.5 164.5,-133.5 245.5,-133.5 245.5,-114.5 164.5,-114.5"/>
<text text-anchor="middle" x="205" y="-121.5" font-family="Helvetica,sans-Serif" font-size="10.00">_uart_task_tx</text>
</a>
</g>
</g>
<!-- Node25&#45;&gt;Node34 -->
<g id="edge3" class="edge"><title>Node25&#45;&gt;Node34</title>
<path fill="none" stroke="midnightblue" d="M132.28,-114.404C143.273,-115.875 154.289,-117.349 164.274,-118.685"/>
<polygon fill="midnightblue" stroke="midnightblue" points="132.597,-110.915 122.221,-113.058 131.668,-117.853 132.597,-110.915"/>
</g>
<!-- Node36 -->
<g id="node5" class="node"><title>Node36</title>
<g id="a_node5"><a xlink:href="xtio__serial__com_8c.xhtml#a5e9056b9bb65d42367ec290aea738768" target="_top" xlink:title="_uart_task_rx">
<polygon fill="white" stroke="red" points="164.5,-76.5 164.5,-95.5 245.5,-95.5 245.5,-76.5 164.5,-76.5"/>
<text text-anchor="middle" x="205" y="-83.5" font-family="Helvetica,sans-Serif" font-size="10.00">_uart_task_rx</text>
</a>
</g>
</g>
<!-- Node25&#45;&gt;Node36 -->
<g id="edge4" class="edge"><title>Node25&#45;&gt;Node36</title>
<path fill="none" stroke="midnightblue" d="M132.28,-95.5964C143.273,-94.1255 154.289,-92.6515 164.274,-91.3155"/>
<polygon fill="midnightblue" stroke="midnightblue" points="131.668,-92.1469 122.221,-96.9423 132.597,-99.0851 131.668,-92.1469"/>
</g>
<!-- Node37 -->
<g id="node6" class="node"><title>Node37</title>
<g id="a_node6"><a xlink:href="task__radar_8c.xhtml#ab45564b4bfe2b9814424a084ab9a9859" target="_top" xlink:title="task_radar">
<polygon fill="white" stroke="red" points="171,-38.5 171,-57.5 239,-57.5 239,-38.5 171,-38.5"/>
<text text-anchor="middle" x="205" y="-45.5" font-family="Helvetica,sans-Serif" font-size="10.00">task_radar</text>
</a>
</g>
</g>
<!-- Node25&#45;&gt;Node37 -->
<g id="edge5" class="edge"><title>Node25&#45;&gt;Node37</title>
<path fill="none" stroke="midnightblue" d="M95.2352,-91.6591C121.279,-81.205 156.884,-66.9126 180.155,-57.5716"/>
<polygon fill="midnightblue" stroke="midnightblue" points="93.744,-88.4862 85.7676,-95.4595 96.3517,-94.9823 93.744,-88.4862"/>
</g>
<!-- Node39 -->
<g id="node7" class="node"><title>Node39</title>
<g id="a_node7"><a xlink:href="xep__application_8c.xhtml#a0ba95989f534a0adaa0e258fce6d3a0a" target="_top" xlink:title="task_application">
<polygon fill="white" stroke="red" points="158,-0.5 158,-19.5 252,-19.5 252,-0.5 158,-0.5"/>
<text text-anchor="middle" x="205" y="-7.5" font-family="Helvetica,sans-Serif" font-size="10.00">task_application</text>
</a>
</g>
</g>
<!-- Node25&#45;&gt;Node39 -->
<g id="edge6" class="edge"><title>Node25&#45;&gt;Node39</title>
<path fill="none" stroke="midnightblue" d="M79.8509,-88.3488C98.3375,-71.7341 128.587,-46.2599 158,-29 163.962,-25.5015 170.69,-22.3342 177.123,-19.6326"/>
<polygon fill="midnightblue" stroke="midnightblue" points="77.2612,-85.9737 72.2301,-95.2978 81.9777,-91.1462 77.2612,-85.9737"/>
</g>
</g>
</svg>
