<?xml version="1.0" encoding="UTF-8" standalone="no"?>
<!DOCTYPE svg PUBLIC "-//W3C//DTD SVG 1.1//EN"
 "http://www.w3.org/Graphics/SVG/1.1/DTD/svg11.dtd">
<!-- Generated by graphviz version 2.38.0 (20140413.2041)
 -->
<!-- Title: src/Radar/task_radar.c Pages: 1 -->
<svg width="1139pt" height="140pt"
 viewBox="0.00 0.00 1139.00 140.00" xmlns="http://www.w3.org/2000/svg" xmlns:xlink="http://www.w3.org/1999/xlink">
<g id="graph0" class="graph" transform="scale(1 1) rotate(0) translate(4 136)">
<title>src/Radar/task_radar.c</title>
<polygon fill="white" stroke="none" points="-4,4 -4,-136 1135,-136 1135,4 -4,4"/>
<!-- Node0 -->
<g id="node1" class="node"><title>Node0</title>
<polygon fill="#bfbfbf" stroke="black" points="406.5,-112.5 406.5,-131.5 529.5,-131.5 529.5,-112.5 406.5,-112.5"/>
<text text-anchor="middle" x="468" y="-119.5" font-family="Helvetica,sans-Serif" font-size="10.00">src/Radar/task_radar.c</text>
</g>
<!-- Node1 -->
<g id="node2" class="node"><title>Node1</title>
<g id="a_node2"><a xlink:href="task__radar_8h.xhtml" target="_top" xlink:title="Radar event task. ">
<polygon fill="white" stroke="red" points="0,-56.5 0,-75.5 76,-75.5 76,-56.5 0,-56.5"/>
<text text-anchor="middle" x="38" y="-63.5" font-family="Helvetica,sans-Serif" font-size="10.00">task_radar.h</text>
</a>
</g>
</g>
<!-- Node0&#45;&gt;Node1 -->
<g id="edge1" class="edge"><title>Node0&#45;&gt;Node1</title>
<path fill="none" stroke="midnightblue" d="M406.324,-114.67C331.384,-106.746 201.172,-92.2265 90,-76 88.7251,-75.8139 87.4334,-75.6211 86.1305,-75.4229"/>
<polygon fill="midnightblue" stroke="midnightblue" points="86.4432,-71.9288 76.0183,-73.8189 85.3465,-78.8424 86.4432,-71.9288"/>
</g>
<!-- Node6 -->
<g id="node3" class="node"><title>Node6</title>
<g id="a_node3"><a xlink:href="x4driver_8h.xhtml" target="_top" xlink:title="Platform independent driver to interface with x4 radar. ">
<polygon fill="white" stroke="red" points="39.5,-0.5 39.5,-19.5 102.5,-19.5 102.5,-0.5 39.5,-0.5"/>
<text text-anchor="middle" x="71" y="-7.5" font-family="Helvetica,sans-Serif" font-size="10.00">x4driver.h</text>
</a>
</g>
</g>
<!-- Node0&#45;&gt;Node6 -->
<g id="edge8" class="edge"><title>Node0&#45;&gt;Node6</title>
<path fill="none" stroke="midnightblue" d="M406.496,-118.377C320.928,-113.819 171.154,-102.278 124,-76 104.385,-65.0691 89.1688,-43.7192 80.17,-28.4704"/>
<polygon fill="midnightblue" stroke="midnightblue" points="83.0966,-26.5321 75.1705,-19.5016 76.9823,-29.9403 83.0966,-26.5321"/>
</g>
<!-- Node7 -->
<g id="node4" class="node"><title>Node7</title>
<polygon fill="white" stroke="#bfbfbf" points="132.5,-56.5 132.5,-75.5 203.5,-75.5 203.5,-56.5 132.5,-56.5"/>
<text text-anchor="middle" x="168" y="-63.5" font-family="Helvetica,sans-Serif" font-size="10.00">FreeRTOS.h</text>
</g>
<!-- Node0&#45;&gt;Node7 -->
<g id="edge3" class="edge"><title>Node0&#45;&gt;Node7</title>
<path fill="none" stroke="midnightblue" d="M417.619,-112.457C368.248,-104.007 290.601,-90.5093 213.707,-76.0994"/>
<polygon fill="midnightblue" stroke="midnightblue" points="214.322,-72.6537 203.847,-74.2457 213.028,-79.5332 214.322,-72.6537"/>
</g>
<!-- Node8 -->
<g id="node5" class="node"><title>Node8</title>
<polygon fill="white" stroke="#bfbfbf" points="222,-56.5 222,-75.5 284,-75.5 284,-56.5 222,-56.5"/>
<text text-anchor="middle" x="253" y="-63.5" font-family="Helvetica,sans-Serif" font-size="10.00">semphr.h</text>
</g>
<!-- Node0&#45;&gt;Node8 -->
<g id="edge4" class="edge"><title>Node0&#45;&gt;Node8</title>
<path fill="none" stroke="midnightblue" d="M433.933,-112.444C395.946,-102.903 334.527,-87.4766 293.955,-77.2863"/>
<polygon fill="midnightblue" stroke="midnightblue" points="294.667,-73.8566 284.116,-74.8151 292.962,-80.6457 294.667,-73.8566"/>
</g>
<!-- Node9 -->
<g id="node6" class="node"><title>Node9</title>
<polygon fill="white" stroke="#bfbfbf" points="302,-56.5 302,-75.5 348,-75.5 348,-56.5 302,-56.5"/>
<text text-anchor="middle" x="325" y="-63.5" font-family="Helvetica,sans-Serif" font-size="10.00">task.h</text>
</g>
<!-- Node0&#45;&gt;Node9 -->
<g id="edge5" class="edge"><title>Node0&#45;&gt;Node9</title>
<path fill="none" stroke="midnightblue" d="M445.341,-112.444C421.598,-103.478 384.091,-89.314 357.262,-79.1827"/>
<polygon fill="midnightblue" stroke="midnightblue" points="358.144,-75.7749 347.553,-75.5164 355.671,-82.3235 358.144,-75.7749"/>
</g>
<!-- Node10 -->
<g id="node7" class="node"><title>Node10</title>
<polygon fill="white" stroke="#bfbfbf" points="366,-56.5 366,-75.5 422,-75.5 422,-56.5 366,-56.5"/>
<text text-anchor="middle" x="394" y="-63.5" font-family="Helvetica,sans-Serif" font-size="10.00">queue.h</text>
</g>
<!-- Node0&#45;&gt;Node10 -->
<g id="edge6" class="edge"><title>Node0&#45;&gt;Node10</title>
<path fill="none" stroke="midnightblue" d="M456.111,-112.324C444.85,-104.107 427.713,-91.6017 414.291,-81.8069"/>
<polygon fill="midnightblue" stroke="midnightblue" points="416.247,-78.9014 406.106,-75.8339 412.12,-84.5559 416.247,-78.9014"/>
</g>
<!-- Node11 -->
<g id="node8" class="node"><title>Node11</title>
<polygon fill="white" stroke="#bfbfbf" points="440,-56.5 440,-75.5 496,-75.5 496,-56.5 440,-56.5"/>
<text text-anchor="middle" x="468" y="-63.5" font-family="Helvetica,sans-Serif" font-size="10.00">timers.h</text>
</g>
<!-- Node0&#45;&gt;Node11 -->
<g id="edge7" class="edge"><title>Node0&#45;&gt;Node11</title>
<path fill="none" stroke="midnightblue" d="M468,-112.083C468,-105.006 468,-94.8611 468,-85.9865"/>
<polygon fill="midnightblue" stroke="midnightblue" points="471.5,-85.751 468,-75.7511 464.5,-85.7511 471.5,-85.751"/>
</g>
<!-- Node12 -->
<g id="node9" class="node"><title>Node12</title>
<g id="a_node9"><a xlink:href="xtcompiler_8h.xhtml" target="_top" xlink:title="xtcompiler.h">
<polygon fill="white" stroke="black" points="513.5,-56.5 513.5,-75.5 588.5,-75.5 588.5,-56.5 513.5,-56.5"/>
<text text-anchor="middle" x="551" y="-63.5" font-family="Helvetica,sans-Serif" font-size="10.00">xtcompiler.h</text>
</a>
</g>
</g>
<!-- Node0&#45;&gt;Node12 -->
<g id="edge9" class="edge"><title>Node0&#45;&gt;Node12</title>
<path fill="none" stroke="midnightblue" d="M481.335,-112.324C494.162,-103.979 513.785,-91.2122 528.94,-81.3524"/>
<polygon fill="midnightblue" stroke="midnightblue" points="531.224,-84.0417 537.698,-75.6545 527.407,-78.1742 531.224,-84.0417"/>
</g>
<!-- Node13 -->
<g id="node10" class="node"><title>Node13</title>
<g id="a_node10"><a xlink:href="radar__hal_8h.xhtml" target="_top" xlink:title="Local header file for Radar HAL. ">
<polygon fill="white" stroke="red" points="606.5,-56.5 606.5,-75.5 677.5,-75.5 677.5,-56.5 606.5,-56.5"/>
<text text-anchor="middle" x="642" y="-63.5" font-family="Helvetica,sans-Serif" font-size="10.00">radar_hal.h</text>
</a>
</g>
</g>
<!-- Node0&#45;&gt;Node13 -->
<g id="edge10" class="edge"><title>Node0&#45;&gt;Node13</title>
<path fill="none" stroke="midnightblue" d="M495.571,-112.444C525.097,-103.28 572.118,-88.6876 604.883,-78.5192"/>
<polygon fill="midnightblue" stroke="midnightblue" points="606.045,-81.8232 614.558,-75.5164 603.97,-75.1378 606.045,-81.8232"/>
</g>
<!-- Node16 -->
<g id="node11" class="node"><title>Node16</title>
<g id="a_node11"><a xlink:href="xep__dispatch__messages_8h.xhtml" target="_top" xlink:title="xep_dispatch_messages.h">
<polygon fill="white" stroke="red" points="695.5,-56.5 695.5,-75.5 838.5,-75.5 838.5,-56.5 695.5,-56.5"/>
<text text-anchor="middle" x="767" y="-63.5" font-family="Helvetica,sans-Serif" font-size="10.00">xep_dispatch_messages.h</text>
</a>
</g>
</g>
<!-- Node0&#45;&gt;Node16 -->
<g id="edge11" class="edge"><title>Node0&#45;&gt;Node16</title>
<path fill="none" stroke="midnightblue" d="M515.377,-112.444C568.084,-102.925 653.229,-87.5472 709.657,-77.3563"/>
<polygon fill="midnightblue" stroke="midnightblue" points="710.625,-80.7381 719.844,-75.5164 709.381,-73.8495 710.625,-80.7381"/>
</g>
<!-- Node17 -->
<g id="node12" class="node"><title>Node17</title>
<polygon fill="white" stroke="#bfbfbf" points="857,-56.5 857,-75.5 933,-75.5 933,-56.5 857,-56.5"/>
<text text-anchor="middle" x="895" y="-63.5" font-family="Helvetica,sans-Serif" font-size="10.00">arm_math.h</text>
</g>
<!-- Node0&#45;&gt;Node17 -->
<g id="edge12" class="edge"><title>Node0&#45;&gt;Node17</title>
<path fill="none" stroke="midnightblue" d="M529.722,-115.058C602.996,-107.697 729.096,-94.0683 846.905,-76.0749"/>
<polygon fill="midnightblue" stroke="midnightblue" points="847.47,-79.5293 856.82,-74.5471 846.404,-72.611 847.47,-79.5293"/>
</g>
<!-- Node18 -->
<g id="node13" class="node"><title>Node18</title>
<g id="a_node13"><a xlink:href="xtmemory_8h.xhtml" target="_top" xlink:title="Platform independent mutex mechanism. ">
<polygon fill="white" stroke="red" points="951,-56.5 951,-75.5 1025,-75.5 1025,-56.5 951,-56.5"/>
<text text-anchor="middle" x="988" y="-63.5" font-family="Helvetica,sans-Serif" font-size="10.00">xtmemory.h</text>
</a>
</g>
</g>
<!-- Node0&#45;&gt;Node18 -->
<g id="edge13" class="edge"><title>Node0&#45;&gt;Node18</title>
<path fill="none" stroke="midnightblue" d="M529.589,-117.1C618.283,-111.052 787.287,-97.9219 940.808,-76.0392"/>
<polygon fill="midnightblue" stroke="midnightblue" points="941.498,-79.476 950.897,-74.5851 940.5,-72.5475 941.498,-79.476"/>
</g>
<!-- Node19 -->
<g id="node14" class="node"><title>Node19</title>
<g id="a_node14"><a xlink:href="task__monitor_8h.xhtml" target="_top" xlink:title="System monitor task. ">
<polygon fill="white" stroke="red" points="1043,-56.5 1043,-75.5 1131,-75.5 1131,-56.5 1043,-56.5"/>
<text text-anchor="middle" x="1087" y="-63.5" font-family="Helvetica,sans-Serif" font-size="10.00">task_monitor.h</text>
</a>
</g>
</g>
<!-- Node0&#45;&gt;Node19 -->
<g id="edge14" class="edge"><title>Node0&#45;&gt;Node19</title>
<path fill="none" stroke="midnightblue" d="M529.741,-117.892C632.134,-112.342 843.715,-99.1995 1032.68,-76.06"/>
<polygon fill="midnightblue" stroke="midnightblue" points="1033.3,-79.5093 1042.8,-74.8083 1032.44,-72.5623 1033.3,-79.5093"/>
</g>
<!-- Node1&#45;&gt;Node6 -->
<g id="edge2" class="edge"><title>Node1&#45;&gt;Node6</title>
<path fill="none" stroke="midnightblue" d="M43.4493,-56.083C48.0145,-48.6127 54.6684,-37.7244 60.2934,-28.5199"/>
<polygon fill="midnightblue" stroke="midnightblue" points="63.4241,-30.109 65.6521,-19.7511 57.4511,-26.4588 63.4241,-30.109"/>
</g>
</g>
</svg>
