<?xml version="1.0" encoding="UTF-8" standalone="no"?>
<!DOCTYPE svg PUBLIC "-//W3C//DTD SVG 1.1//EN"
 "http://www.w3.org/Graphics/SVG/1.1/DTD/svg11.dtd">
<!-- Generated by graphviz version 2.38.0 (20140413.2041)
 -->
<!-- Title: task_monitor Pages: 1 -->
<svg width="228pt" height="104pt"
 viewBox="0.00 0.00 228.00 104.00" xmlns="http://www.w3.org/2000/svg" xmlns:xlink="http://www.w3.org/1999/xlink">
<g id="graph0" class="graph" transform="scale(1 1) rotate(0) translate(4 100)">
<title>task_monitor</title>
<polygon fill="white" stroke="none" points="-4,4 -4,-100 224,-100 224,4 -4,4"/>
<!-- Node41 -->
<g id="node1" class="node"><title>Node41</title>
<polygon fill="#bfbfbf" stroke="black" points="0,-38.5 0,-57.5 80,-57.5 80,-38.5 0,-38.5"/>
<text text-anchor="middle" x="40" y="-45.5" font-family="Helvetica,sans-Serif" font-size="10.00">task_monitor</text>
</g>
<!-- Node42 -->
<g id="node2" class="node"><title>Node42</title>
<g id="a_node2"><a xlink:href="xep__hal_8h.xhtml#aea9d8137a0fddb8ed22f14f318dfec4f" target="_top" xlink:title="Set LED state. ">
<polygon fill="white" stroke="red" points="116,-76.5 116,-95.5 220,-95.5 220,-76.5 116,-76.5"/>
<text text-anchor="middle" x="168" y="-83.5" font-family="Helvetica,sans-Serif" font-size="10.00">xtio_led_set_state</text>
</a>
</g>
</g>
<!-- Node41&#45;&gt;Node42 -->
<g id="edge1" class="edge"><title>Node41&#45;&gt;Node42</title>
<path fill="none" stroke="midnightblue" d="M72.7951,-57.589C88.7621,-62.4044 108.307,-68.2988 125.447,-73.468"/>
<polygon fill="midnightblue" stroke="midnightblue" points="124.63,-76.8775 135.215,-76.4141 126.652,-70.1756 124.63,-76.8775"/>
</g>
<!-- Node44 -->
<g id="node3" class="node"><title>Node44</title>
<g id="a_node3"><a xlink:href="xep__hal_8h.xhtml#ace2af126089abe1d676edfc1400d0bf7" target="_top" xlink:title="Triggers a software reset of MCU. ">
<polygon fill="white" stroke="red" points="117.5,-38.5 117.5,-57.5 218.5,-57.5 218.5,-38.5 117.5,-38.5"/>
<text text-anchor="middle" x="168" y="-45.5" font-family="Helvetica,sans-Serif" font-size="10.00">xt_software_reset</text>
</a>
</g>
</g>
<!-- Node41&#45;&gt;Node44 -->
<g id="edge2" class="edge"><title>Node41&#45;&gt;Node44</title>
<path fill="none" stroke="midnightblue" d="M80.1765,-48C88.6795,-48 97.8616,-48 106.961,-48"/>
<polygon fill="midnightblue" stroke="midnightblue" points="107.159,-51.5001 117.159,-48 107.159,-44.5001 107.159,-51.5001"/>
</g>
<!-- Node46 -->
<g id="node4" class="node"><title>Node46</title>
<g id="a_node4"><a xlink:href="xep__hal_8h.xhtml#aba84ec695575730f2fd3b4f75eefe28a" target="_top" xlink:title="Reset the watchdog timer. ">
<polygon fill="white" stroke="black" points="116.5,-0.5 116.5,-19.5 219.5,-19.5 219.5,-0.5 116.5,-0.5"/>
<text text-anchor="middle" x="168" y="-7.5" font-family="Helvetica,sans-Serif" font-size="10.00">xt_feed_watchdog</text>
</a>
</g>
</g>
<!-- Node41&#45;&gt;Node46 -->
<g id="edge3" class="edge"><title>Node41&#45;&gt;Node46</title>
<path fill="none" stroke="midnightblue" d="M72.7951,-38.411C88.7621,-33.5956 108.307,-27.7012 125.447,-22.532"/>
<polygon fill="midnightblue" stroke="midnightblue" points="126.652,-25.8244 135.215,-19.5859 124.63,-19.1225 126.652,-25.8244"/>
</g>
</g>
</svg>
