<?xml version="1.0" encoding="UTF-8" standalone="no"?>
<!DOCTYPE svg PUBLIC "-//W3C//DTD SVG 1.1//EN"
 "http://www.w3.org/Graphics/SVG/1.1/DTD/svg11.dtd">
<!-- Generated by graphviz version 2.38.0 (20140413.2041)
 -->
<!-- Title: x4driver_get_pulses_per_step Pages: 1 -->
<svg width="311pt" height="116pt"
 viewBox="0.00 0.00 311.00 115.50" xmlns="http://www.w3.org/2000/svg" xmlns:xlink="http://www.w3.org/1999/xlink">
<g id="graph0" class="graph" transform="scale(1 1) rotate(0) translate(4 111.5)">
<title>x4driver_get_pulses_per_step</title>
<polygon fill="white" stroke="none" points="-4,4 -4,-111.5 307,-111.5 307,4 -4,4"/>
<!-- Node1081 -->
<g id="node1" class="node"><title>Node1081</title>
<polygon fill="#bfbfbf" stroke="black" points="0,-33 0,-63 112,-63 112,-33 0,-33"/>
<text text-anchor="start" x="8" y="-51" font-family="Helvetica,sans-Serif" font-size="10.00">x4driver_get_pulses</text>
<text text-anchor="middle" x="56" y="-40" font-family="Helvetica,sans-Serif" font-size="10.00">_per_step</text>
</g>
<!-- Node1082 -->
<g id="node2" class="node"><title>Node1082</title>
<g id="a_node2"><a xlink:href="x4driver_8c.xhtml#a3493035f2d30f78e30586a7a4eccb481" target="_top" xlink:title="Updates normalization variables and calculates new constants. ">
<polygon fill="white" stroke="red" points="162.5,-77 162.5,-107 288.5,-107 288.5,-77 162.5,-77"/>
<text text-anchor="start" x="170.5" y="-95" font-family="Helvetica,sans-Serif" font-size="10.00">_update_normalization</text>
<text text-anchor="middle" x="225.5" y="-84" font-family="Helvetica,sans-Serif" font-size="10.00">_variables</text>
</a>
</g>
</g>
<!-- Node1081&#45;&gt;Node1082 -->
<g id="edge1" class="edge"><title>Node1081&#45;&gt;Node1082</title>
<path fill="none" stroke="midnightblue" d="M122.403,-65.1805C137.203,-69.0682 152.806,-73.167 167.239,-76.9584"/>
<polygon fill="midnightblue" stroke="midnightblue" points="122.871,-61.6848 112.31,-62.5292 121.093,-68.4551 122.871,-61.6848"/>
</g>
<!-- Node1091 -->
<g id="node3" class="node"><title>Node1091</title>
<g id="a_node3"><a xlink:href="x4driver_8c.xhtml#ad4eae703d43b3d9800fd5174ce8ff222" target="_top" xlink:title="x4driver_get_sweep_time">
<polygon fill="white" stroke="black" points="156.5,-38.5 156.5,-57.5 294.5,-57.5 294.5,-38.5 156.5,-38.5"/>
<text text-anchor="middle" x="225.5" y="-45.5" font-family="Helvetica,sans-Serif" font-size="10.00">x4driver_get_sweep_time</text>
</a>
</g>
</g>
<!-- Node1081&#45;&gt;Node1091 -->
<g id="edge2" class="edge"><title>Node1081&#45;&gt;Node1091</title>
<path fill="none" stroke="midnightblue" d="M122.403,-48C133.56,-48 145.173,-48 156.398,-48"/>
<polygon fill="midnightblue" stroke="midnightblue" points="122.31,-44.5001 112.31,-48 122.31,-51.5001 122.31,-44.5001"/>
</g>
<!-- Node1092 -->
<g id="node4" class="node"><title>Node1092</title>
<g id="a_node4"><a xlink:href="x4driver_8c.xhtml#a8bc96b0db173f49cfe59027d9e95f600" target="_top" xlink:title="x4driver_check_configuration">
<polygon fill="white" stroke="red" points="148,-0.5 148,-19.5 303,-19.5 303,-0.5 148,-0.5"/>
<text text-anchor="middle" x="225.5" y="-7.5" font-family="Helvetica,sans-Serif" font-size="10.00">x4driver_check_configuration</text>
</a>
</g>
</g>
<!-- Node1081&#45;&gt;Node1092 -->
<g id="edge3" class="edge"><title>Node1081&#45;&gt;Node1092</title>
<path fill="none" stroke="midnightblue" d="M122.126,-33.2251C142.42,-28.6212 164.249,-23.6688 182.516,-19.5246"/>
<polygon fill="midnightblue" stroke="midnightblue" points="121.288,-29.8263 112.31,-35.4521 122.837,-36.6528 121.288,-29.8263"/>
</g>
</g>
</svg>
