<?xml version="1.0" encoding="UTF-8" standalone="no"?>
<!DOCTYPE svg PUBLIC "-//W3C//DTD SVG 1.1//EN"
 "http://www.w3.org/Graphics/SVG/1.1/DTD/svg11.dtd">
<!-- Generated by graphviz version 2.38.0 (20140413.2041)
 -->
<!-- Title: x4driver_get_pif_register Pages: 1 -->
<svg width="526pt" height="983pt"
 viewBox="0.00 0.00 526.00 983.14" xmlns="http://www.w3.org/2000/svg" xmlns:xlink="http://www.w3.org/1999/xlink">
<g id="graph0" class="graph" transform="scale(1 1) rotate(0) translate(4 979.143)">
<title>x4driver_get_pif_register</title>
<polygon fill="white" stroke="none" points="-4,4 -4,-979.143 522,-979.143 522,4 -4,4"/>
<!-- Node976 -->
<g id="node1" class="node"><title>Node976</title>
<polygon fill="#bfbfbf" stroke="black" points="0,-468.5 0,-487.5 134,-487.5 134,-468.5 0,-468.5"/>
<text text-anchor="middle" x="67" y="-475.5" font-family="Helvetica,sans-Serif" font-size="10.00">x4driver_get_pif_register</text>
</g>
<!-- Node977 -->
<g id="node2" class="node"><title>Node977</title>
<g id="a_node2"><a xlink:href="x4driver_8c.xhtml#a3493035f2d30f78e30586a7a4eccb481" target="_top" xlink:title="Updates normalization variables and calculates new constants. ">
<polygon fill="white" stroke="red" points="376.5,-879 376.5,-909 502.5,-909 502.5,-879 376.5,-879"/>
<text text-anchor="start" x="384.5" y="-897" font-family="Helvetica,sans-Serif" font-size="10.00">_update_normalization</text>
<text text-anchor="middle" x="439.5" y="-886" font-family="Helvetica,sans-Serif" font-size="10.00">_variables</text>
</a>
</g>
</g>
<!-- Node976&#45;&gt;Node977 -->
<g id="edge1" class="edge"><title>Node976&#45;&gt;Node977</title>
<path fill="none" stroke="midnightblue" d="M69.1072,-498.158C74.107,-580.86 97.5776,-892.53 170,-951 244.527,-1011.17 367.545,-941.715 416.965,-909.094"/>
<polygon fill="midnightblue" stroke="midnightblue" points="72.5724,-497.456 68.4999,-487.675 65.5842,-497.861 72.5724,-497.456"/>
</g>
<!-- Node986 -->
<g id="node3" class="node"><title>Node986</title>
<g id="a_node3"><a xlink:href="x4driver_8c.xhtml#a02de1339e43f6681abc757225552a0bb" target="_top" xlink:title="Will check if frame is ready from X4 and return when the frame is ready. ">
<polygon fill="white" stroke="red" points="180.5,-644.5 180.5,-663.5 314.5,-663.5 314.5,-644.5 180.5,-644.5"/>
<text text-anchor="middle" x="247.5" y="-651.5" font-family="Helvetica,sans-Serif" font-size="10.00">x4driver_is_frame_ready</text>
</a>
</g>
</g>
<!-- Node976&#45;&gt;Node986 -->
<g id="edge2" class="edge"><title>Node976&#45;&gt;Node986</title>
<path fill="none" stroke="midnightblue" d="M74.9189,-497.047C88.0495,-530.409 119.837,-599.26 170,-635 175.461,-638.891 181.634,-641.988 188.047,-644.454"/>
<polygon fill="midnightblue" stroke="midnightblue" points="78.1342,-495.655 71.3116,-487.549 71.5902,-498.14 78.1342,-495.655"/>
</g>
<!-- Node988 -->
<g id="node4" class="node"><title>Node988</title>
<g id="a_node4"><a xlink:href="x4driver_8c.xhtml#a041e81b6d75f97dbf29f1e9a29353425" target="_top" xlink:title="Will setup x4 in default configuration. ">
<polygon fill="white" stroke="red" points="377,-578.5 377,-597.5 502,-597.5 502,-578.5 377,-578.5"/>
<text text-anchor="middle" x="439.5" y="-585.5" font-family="Helvetica,sans-Serif" font-size="10.00">x4driver_setup_default</text>
</a>
</g>
</g>
<!-- Node976&#45;&gt;Node988 -->
<g id="edge3" class="edge"><title>Node976&#45;&gt;Node988</title>
<path fill="none" stroke="midnightblue" d="M86.4174,-494.224C105.807,-510.35 137.917,-534.44 170,-547 237.621,-573.473 321.05,-582.932 376.797,-586.268"/>
<polygon fill="midnightblue" stroke="midnightblue" points="88.5722,-491.462 78.6865,-487.651 84.038,-496.795 88.5722,-491.462"/>
</g>
<!-- Node989 -->
<g id="node5" class="node"><title>Node989</title>
<g id="a_node5"><a xlink:href="x4driver_8c.xhtml#ab008a9d8a7ab0744ceb00fb2116ad850" target="_top" xlink:title="Reads raw bytes from x4. ">
<polygon fill="white" stroke="red" points="189.5,-507 189.5,-537 305.5,-537 305.5,-507 189.5,-507"/>
<text text-anchor="start" x="197.5" y="-525" font-family="Helvetica,sans-Serif" font-size="10.00">x4driver_read_frame</text>
<text text-anchor="middle" x="247.5" y="-514" font-family="Helvetica,sans-Serif" font-size="10.00">_bytes</text>
</a>
</g>
</g>
<!-- Node976&#45;&gt;Node989 -->
<g id="edge4" class="edge"><title>Node976&#45;&gt;Node989</title>
<path fill="none" stroke="midnightblue" d="M116.693,-490.003C139.095,-495.525 165.828,-502.114 189.195,-507.874"/>
<polygon fill="midnightblue" stroke="midnightblue" points="117.279,-486.542 106.732,-487.547 115.604,-493.339 117.279,-486.542"/>
</g>
<!-- Node993 -->
<g id="node6" class="node"><title>Node993</title>
<g id="a_node6"><a xlink:href="x4driver_8c.xhtml#aad4194e43df4304e629fc595d582d408" target="_top" xlink:title="Setup external osc on X4. ">
<polygon fill="white" stroke="red" points="195.5,-468.5 195.5,-487.5 299.5,-487.5 299.5,-468.5 195.5,-468.5"/>
<text text-anchor="middle" x="247.5" y="-475.5" font-family="Helvetica,sans-Serif" font-size="10.00">x4driver_init_clock</text>
</a>
</g>
</g>
<!-- Node976&#45;&gt;Node993 -->
<g id="edge5" class="edge"><title>Node976&#45;&gt;Node993</title>
<path fill="none" stroke="midnightblue" d="M144.292,-478C161.574,-478 179.519,-478 195.459,-478"/>
<polygon fill="midnightblue" stroke="midnightblue" points="144.213,-474.5 134.213,-478 144.213,-481.5 144.213,-474.5"/>
</g>
<!-- Node994 -->
<g id="node7" class="node"><title>Node994</title>
<g id="a_node7"><a xlink:href="x4driver_8c.xhtml#abde766e0d1366c610923ac6df6aff591" target="_top" xlink:title="Enable dvdd ldo on X4 NOTE: Implements workaround to kick start LDO. ">
<polygon fill="white" stroke="red" points="177.5,-430.5 177.5,-449.5 317.5,-449.5 317.5,-430.5 177.5,-430.5"/>
<text text-anchor="middle" x="247.5" y="-437.5" font-family="Helvetica,sans-Serif" font-size="10.00">_x4driver_enable_dvdd_tx</text>
</a>
</g>
</g>
<!-- Node976&#45;&gt;Node994 -->
<g id="edge6" class="edge"><title>Node976&#45;&gt;Node994</title>
<path fill="none" stroke="midnightblue" d="M122.87,-466.319C148.184,-460.93 177.853,-454.614 201.781,-449.52"/>
<polygon fill="midnightblue" stroke="midnightblue" points="122.095,-462.905 113.043,-468.411 123.553,-469.752 122.095,-462.905"/>
</g>
<!-- Node997 -->
<g id="node8" class="node"><title>Node997</title>
<g id="a_node8"><a xlink:href="x4driver_8c.xhtml#a2ed5d880184cddb6899a3ee5789ae282" target="_top" xlink:title="Enable dvdd ldo on X4 NOTE: Implements workaround to kick start LDO. ">
<polygon fill="white" stroke="red" points="177.5,-392.5 177.5,-411.5 317.5,-411.5 317.5,-392.5 177.5,-392.5"/>
<text text-anchor="middle" x="247.5" y="-399.5" font-family="Helvetica,sans-Serif" font-size="10.00">_x4driver_enable_dvdd_rx</text>
</a>
</g>
</g>
<!-- Node976&#45;&gt;Node997 -->
<g id="edge7" class="edge"><title>Node976&#45;&gt;Node997</title>
<path fill="none" stroke="midnightblue" d="M90.7234,-462.974C110.84,-450.249 141.371,-432.319 170,-421 179.417,-417.277 189.782,-414.118 199.76,-411.509"/>
<polygon fill="midnightblue" stroke="midnightblue" points="88.7796,-460.063 82.2574,-468.412 92.5628,-465.952 88.7796,-460.063"/>
</g>
<!-- Node998 -->
<g id="node9" class="node"><title>Node998</title>
<g id="a_node9"><a xlink:href="x4driver_8c.xhtml#ac1bde9631df9f305637fd490f6d6034e" target="_top" xlink:title="Enable avdd ldo on X4 NOTE: Implements workaround to kick start LDO. ">
<polygon fill="white" stroke="red" points="177.5,-354.5 177.5,-373.5 317.5,-373.5 317.5,-354.5 177.5,-354.5"/>
<text text-anchor="middle" x="247.5" y="-361.5" font-family="Helvetica,sans-Serif" font-size="10.00">_x4driver_enable_avdd_tx</text>
</a>
</g>
</g>
<!-- Node976&#45;&gt;Node998 -->
<g id="edge8" class="edge"><title>Node976&#45;&gt;Node998</title>
<path fill="none" stroke="midnightblue" d="M82.1125,-460.203C100.18,-438.643 133.537,-402.762 170,-383 177.098,-379.153 184.988,-376.07 192.928,-373.603"/>
<polygon fill="midnightblue" stroke="midnightblue" points="79.1757,-458.265 75.5474,-468.219 84.5913,-462.7 79.1757,-458.265"/>
</g>
<!-- Node999 -->
<g id="node10" class="node"><title>Node999</title>
<g id="a_node10"><a xlink:href="x4driver_8c.xhtml#a6cf76ee14b0f9d6d942771a01b4bc6ab" target="_top" xlink:title="Enable avdd ldo on X4 NOTE: Implements workaround to kick start LDO. ">
<polygon fill="white" stroke="red" points="177.5,-316.5 177.5,-335.5 317.5,-335.5 317.5,-316.5 177.5,-316.5"/>
<text text-anchor="middle" x="247.5" y="-323.5" font-family="Helvetica,sans-Serif" font-size="10.00">_x4driver_enable_avdd_rx</text>
</a>
</g>
</g>
<!-- Node976&#45;&gt;Node999 -->
<g id="edge9" class="edge"><title>Node976&#45;&gt;Node999</title>
<path fill="none" stroke="midnightblue" d="M77.192,-459.024C92.3381,-429.836 125.365,-374.243 170,-345 175.952,-341.1 182.643,-338.001 189.526,-335.538"/>
<polygon fill="midnightblue" stroke="midnightblue" points="73.9628,-457.654 72.5906,-468.16 80.2147,-460.803 73.9628,-457.654"/>
</g>
<!-- Node1000 -->
<g id="node11" class="node"><title>Node1000</title>
<g id="a_node11"><a xlink:href="x4driver_8c.xhtml#a5db8c4a69efec11c5d537c13e4a94f6f" target="_top" xlink:title="Set frame length in cycles. ">
<polygon fill="white" stroke="black" points="193,-595 193,-625 302,-625 302,-595 193,-595"/>
<text text-anchor="start" x="201" y="-613" font-family="Helvetica,sans-Serif" font-size="10.00">x4driver_set_frame</text>
<text text-anchor="middle" x="247.5" y="-602" font-family="Helvetica,sans-Serif" font-size="10.00">_length</text>
</a>
</g>
</g>
<!-- Node976&#45;&gt;Node1000 -->
<g id="edge10" class="edge"><title>Node976&#45;&gt;Node1000</title>
<path fill="none" stroke="midnightblue" d="M81.7721,-495.719C99.9004,-518.019 133.743,-556.268 170,-580 178.833,-585.782 188.951,-590.727 198.874,-594.837"/>
<polygon fill="midnightblue" stroke="midnightblue" points="84.3879,-493.386 75.4146,-487.753 78.9166,-497.752 84.3879,-493.386"/>
</g>
<!-- Node1001 -->
<g id="node12" class="node"><title>Node1001</title>
<g id="a_node12"><a xlink:href="x4driver_8c.xhtml#a3340bd88f713c61192fed4ba6be4789d" target="_top" xlink:title="Gets Iterations. ">
<polygon fill="white" stroke="red" points="184.5,-884.5 184.5,-903.5 310.5,-903.5 310.5,-884.5 184.5,-884.5"/>
<text text-anchor="middle" x="247.5" y="-891.5" font-family="Helvetica,sans-Serif" font-size="10.00">x4driver_get_iterations</text>
</a>
</g>
</g>
<!-- Node976&#45;&gt;Node1001 -->
<g id="edge12" class="edge"><title>Node976&#45;&gt;Node1001</title>
<path fill="none" stroke="midnightblue" d="M70.3944,-497.714C79.5819,-570.161 114.851,-820.293 170,-875 174.178,-879.144 179.11,-882.432 184.426,-885.035"/>
<polygon fill="midnightblue" stroke="midnightblue" points="73.8527,-497.161 69.1448,-487.67 66.9062,-498.025 73.8527,-497.161"/>
</g>
<!-- Node1003 -->
<g id="node13" class="node"><title>Node1003</title>
<g id="a_node13"><a xlink:href="x4driver_8c.xhtml#a8bc96b0db173f49cfe59027d9e95f600" target="_top" xlink:title="x4driver_check_configuration">
<polygon fill="white" stroke="red" points="362,-796.5 362,-815.5 517,-815.5 517,-796.5 362,-796.5"/>
<text text-anchor="middle" x="439.5" y="-803.5" font-family="Helvetica,sans-Serif" font-size="10.00">x4driver_check_configuration</text>
</a>
</g>
</g>
<!-- Node976&#45;&gt;Node1003 -->
<g id="edge34" class="edge"><title>Node976&#45;&gt;Node1003</title>
<path fill="none" stroke="midnightblue" d="M69.2245,-497.961C73.448,-548.418 91.8356,-681.816 170,-749 178.267,-756.105 311.919,-782.179 387.47,-796.472"/>
<polygon fill="midnightblue" stroke="midnightblue" points="72.6977,-497.467 68.4739,-487.751 65.7166,-497.98 72.6977,-497.467"/>
</g>
<!-- Node1004 -->
<g id="node14" class="node"><title>Node1004</title>
<g id="a_node14"><a xlink:href="x4driver_8c.xhtml#a4d5fed456eb330474905ef190733f3a6" target="_top" xlink:title="Gets pulses per step. ">
<polygon fill="white" stroke="red" points="191.5,-835 191.5,-865 303.5,-865 303.5,-835 191.5,-835"/>
<text text-anchor="start" x="199.5" y="-853" font-family="Helvetica,sans-Serif" font-size="10.00">x4driver_get_pulses</text>
<text text-anchor="middle" x="247.5" y="-842" font-family="Helvetica,sans-Serif" font-size="10.00">_per_step</text>
</a>
</g>
</g>
<!-- Node976&#45;&gt;Node1004 -->
<g id="edge15" class="edge"><title>Node976&#45;&gt;Node1004</title>
<path fill="none" stroke="midnightblue" d="M67.7942,-497.635C68.2742,-555.947 77.7562,-729.95 170,-825 175.936,-831.116 183.386,-835.737 191.293,-839.228"/>
<polygon fill="midnightblue" stroke="midnightblue" points="71.2942,-497.573 67.7964,-487.572 64.2942,-497.572 71.2942,-497.573"/>
</g>
<!-- Node1005 -->
<g id="node15" class="node"><title>Node1005</title>
<g id="a_node15"><a xlink:href="x4driver_8c.xhtml#a14e3623f55953194c1660b4fcc5814cf" target="_top" xlink:title="Sets a register segment. ">
<polygon fill="white" stroke="red" points="177.5,-278.5 177.5,-297.5 317.5,-297.5 317.5,-278.5 177.5,-278.5"/>
<text text-anchor="middle" x="247.5" y="-285.5" font-family="Helvetica,sans-Serif" font-size="10.00">x4driver_set_pif_segment</text>
</a>
</g>
</g>
<!-- Node976&#45;&gt;Node1005 -->
<g id="edge18" class="edge"><title>Node976&#45;&gt;Node1005</title>
<path fill="none" stroke="midnightblue" d="M73.9191,-458.765C85.9318,-423.057 116.659,-346.566 170,-307 175.166,-303.168 181.013,-300.103 187.118,-297.652"/>
<polygon fill="midnightblue" stroke="midnightblue" points="70.5335,-457.859 70.7875,-468.451 77.1941,-460.013 70.5335,-457.859"/>
</g>
<!-- Node1012 -->
<g id="node16" class="node"><title>Node1012</title>
<g id="a_node16"><a xlink:href="x4driver_8c.xhtml#aca2f2487a46b5debe6656dd21a816e97" target="_top" xlink:title="x4driver_set_downconversion">
<polygon fill="white" stroke="red" points="361,-259.5 361,-278.5 518,-278.5 518,-259.5 361,-259.5"/>
<text text-anchor="middle" x="439.5" y="-266.5" font-family="Helvetica,sans-Serif" font-size="10.00">x4driver_set_downconversion</text>
</a>
</g>
</g>
<!-- Node976&#45;&gt;Node1012 -->
<g id="edge29" class="edge"><title>Node976&#45;&gt;Node1012</title>
<path fill="none" stroke="midnightblue" d="M70.7161,-458.269C77.8713,-414.891 101.643,-311.702 170,-269 244.72,-222.323 355.46,-244.567 408.307,-259.408"/>
<polygon fill="midnightblue" stroke="midnightblue" points="67.2557,-457.744 69.2069,-468.158 74.1756,-458.801 67.2557,-457.744"/>
</g>
<!-- Node1020 -->
<g id="node17" class="node"><title>Node1020</title>
<g id="a_node17"><a xlink:href="x4driver_8c.xhtml#a7e06b27153667442dbc559ce2cf3d21e" target="_top" xlink:title="Gets a register segment. ">
<polygon fill="white" stroke="red" points="177.5,-720.5 177.5,-739.5 317.5,-739.5 317.5,-720.5 177.5,-720.5"/>
<text text-anchor="middle" x="247.5" y="-727.5" font-family="Helvetica,sans-Serif" font-size="10.00">x4driver_get_pif_segment</text>
</a>
</g>
</g>
<!-- Node976&#45;&gt;Node1020 -->
<g id="edge20" class="edge"><title>Node976&#45;&gt;Node1020</title>
<path fill="none" stroke="midnightblue" d="M70.7107,-497.739C77.9779,-542.805 102.171,-653.776 170,-711 174.602,-714.883 179.882,-717.992 185.471,-720.479"/>
<polygon fill="midnightblue" stroke="midnightblue" points="74.1605,-497.142 69.2116,-487.774 67.2384,-498.184 74.1605,-497.142"/>
</g>
<!-- Node1025 -->
<g id="node18" class="node"><title>Node1025</title>
<g id="a_node18"><a xlink:href="x4driver_8c.xhtml#a032203e8f9460b3b693a5b81fbf1f633" target="_top" xlink:title="x4driver_get_dac_min">
<polygon fill="white" stroke="red" points="186.5,-796.5 186.5,-815.5 308.5,-815.5 308.5,-796.5 186.5,-796.5"/>
<text text-anchor="middle" x="247.5" y="-803.5" font-family="Helvetica,sans-Serif" font-size="10.00">x4driver_get_dac_min</text>
</a>
</g>
</g>
<!-- Node976&#45;&gt;Node1025 -->
<g id="edge22" class="edge"><title>Node976&#45;&gt;Node1025</title>
<path fill="none" stroke="midnightblue" d="M68.7033,-497.693C71.6956,-551.265 87.4161,-701.029 170,-782 176.46,-788.334 184.572,-792.999 193.08,-796.434"/>
<polygon fill="midnightblue" stroke="midnightblue" points="72.191,-497.346 68.2289,-487.52 65.1986,-497.672 72.191,-497.346"/>
</g>
<!-- Node1026 -->
<g id="node19" class="node"><title>Node1026</title>
<g id="a_node19"><a xlink:href="x4driver_8c.xhtml#ad622f2683a8e728043a68fe0b09c2f07" target="_top" xlink:title="x4driver_get_dac_max">
<polygon fill="white" stroke="red" points="185,-922.5 185,-941.5 310,-941.5 310,-922.5 185,-922.5"/>
<text text-anchor="middle" x="247.5" y="-929.5" font-family="Helvetica,sans-Serif" font-size="10.00">x4driver_get_dac_max</text>
</a>
</g>
</g>
<!-- Node976&#45;&gt;Node1026 -->
<g id="edge25" class="edge"><title>Node976&#45;&gt;Node1026</title>
<path fill="none" stroke="midnightblue" d="M69.9582,-498.078C77.8949,-575.366 110.138,-852.348 170,-913 174.23,-917.286 179.265,-920.659 184.705,-923.308"/>
<polygon fill="midnightblue" stroke="midnightblue" points="73.409,-497.411 68.9277,-487.811 66.444,-498.11 73.409,-497.411"/>
</g>
<!-- Node1027 -->
<g id="node20" class="node"><title>Node1027</title>
<g id="a_node20"><a xlink:href="x4driver_8c.xhtml#a2b1b3fe4dd7b5d5b5a8d3517cc696169" target="_top" xlink:title="x4driver_get_rx_wait">
<polygon fill="white" stroke="black" points="190.5,-202.5 190.5,-221.5 304.5,-221.5 304.5,-202.5 190.5,-202.5"/>
<text text-anchor="middle" x="247.5" y="-209.5" font-family="Helvetica,sans-Serif" font-size="10.00">x4driver_get_rx_wait</text>
</a>
</g>
</g>
<!-- Node976&#45;&gt;Node1027 -->
<g id="edge28" class="edge"><title>Node976&#45;&gt;Node1027</title>
<path fill="none" stroke="midnightblue" d="M70.6699,-458.098C77.8917,-412.126 102.065,-297.776 170,-236 177.003,-229.632 185.683,-224.954 194.655,-221.517"/>
<polygon fill="midnightblue" stroke="midnightblue" points="67.2049,-457.604 69.2143,-468.007 74.1306,-458.622 67.2049,-457.604"/>
</g>
<!-- Node1028 -->
<g id="node21" class="node"><title>Node1028</title>
<g id="a_node21"><a xlink:href="x4driver_8c.xhtml#a7e9fbe4e6bb6059b98b2f57efb92f34b" target="_top" xlink:title="x4driver_get_prf_div">
<polygon fill="white" stroke="red" points="191,-682.5 191,-701.5 304,-701.5 304,-682.5 191,-682.5"/>
<text text-anchor="middle" x="247.5" y="-689.5" font-family="Helvetica,sans-Serif" font-size="10.00">x4driver_get_prf_div</text>
</a>
</g>
</g>
<!-- Node976&#45;&gt;Node1028 -->
<g id="edge30" class="edge"><title>Node976&#45;&gt;Node1028</title>
<path fill="none" stroke="midnightblue" d="M72.5413,-497.725C82.7261,-537.361 111.243,-626.817 170,-673 176.133,-677.82 183.327,-681.436 190.806,-684.145"/>
<polygon fill="midnightblue" stroke="midnightblue" points="75.9242,-496.824 70.1449,-487.944 69.1253,-498.49 75.9242,-496.824"/>
</g>
<!-- Node1030 -->
<g id="node22" class="node"><title>Node1030</title>
<g id="a_node22"><a xlink:href="x4driver_8c.xhtml#ae7c3785d7b727134740f350df73ac1c6" target="_top" xlink:title="x4driver_get_tx_center\l_frequency">
<polygon fill="white" stroke="black" points="184.5,-153 184.5,-183 310.5,-183 310.5,-153 184.5,-153"/>
<text text-anchor="start" x="192.5" y="-171" font-family="Helvetica,sans-Serif" font-size="10.00">x4driver_get_tx_center</text>
<text text-anchor="middle" x="247.5" y="-160" font-family="Helvetica,sans-Serif" font-size="10.00">_frequency</text>
</a>
</g>
</g>
<!-- Node976&#45;&gt;Node1030 -->
<g id="edge32" class="edge"><title>Node976&#45;&gt;Node1030</title>
<path fill="none" stroke="midnightblue" d="M69.2762,-458.213C73.6506,-406.927 92.4199,-268.45 170,-193 174.207,-188.909 179.093,-185.487 184.321,-182.625"/>
<polygon fill="midnightblue" stroke="midnightblue" points="65.7785,-458.052 68.5115,-468.289 72.7584,-458.582 65.7785,-458.052"/>
</g>
<!-- Node1031 -->
<g id="node23" class="node"><title>Node1031</title>
<g id="a_node23"><a xlink:href="x4driver_8c.xhtml#ad9c4d8a8f564eb3e21c97376e1dc4d6b" target="_top" xlink:title="x4driver_get_tx_power">
<polygon fill="white" stroke="black" points="185.5,-114.5 185.5,-133.5 309.5,-133.5 309.5,-114.5 185.5,-114.5"/>
<text text-anchor="middle" x="247.5" y="-121.5" font-family="Helvetica,sans-Serif" font-size="10.00">x4driver_get_tx_power</text>
</a>
</g>
</g>
<!-- Node976&#45;&gt;Node1031 -->
<g id="edge33" class="edge"><title>Node976&#45;&gt;Node1031</title>
<path fill="none" stroke="midnightblue" d="M67.8,-458.09C68.354,-400.491 78.1436,-232.194 170,-144 174.456,-139.722 179.709,-136.329 185.342,-133.644"/>
<polygon fill="midnightblue" stroke="midnightblue" points="64.3,-458.353 67.7932,-468.356 71.3,-458.358 64.3,-458.353"/>
</g>
<!-- Node992 -->
<g id="node24" class="node"><title>Node992</title>
<g id="a_node24"><a xlink:href="x4driver_8c.xhtml#a6d30c9bc074d42ab983535463b8a7a28" target="_top" xlink:title="x4driver_set_dac_auto">
<polygon fill="white" stroke="black" points="185,-76.5 185,-95.5 310,-95.5 310,-76.5 185,-76.5"/>
<text text-anchor="middle" x="247.5" y="-83.5" font-family="Helvetica,sans-Serif" font-size="10.00">x4driver_set_dac_auto</text>
</a>
</g>
</g>
<!-- Node976&#45;&gt;Node992 -->
<g id="edge35" class="edge"><title>Node976&#45;&gt;Node992</title>
<path fill="none" stroke="midnightblue" d="M70.7631,-458.138C80.8603,-388.353 117.911,-155.88 170,-105 174.307,-100.793 179.394,-97.4702 184.865,-94.8529"/>
<polygon fill="midnightblue" stroke="midnightblue" points="67.2721,-457.827 69.3295,-468.22 74.2024,-458.813 67.2721,-457.827"/>
</g>
<!-- Node1032 -->
<g id="node25" class="node"><title>Node1032</title>
<g id="a_node25"><a xlink:href="x4driver__unittest_8cpp.xhtml#a10059f1dd033fae04d9ab3832f498c04" target="_top" xlink:title="TEST_F">
<polygon fill="white" stroke="black" points="222.5,-38.5 222.5,-57.5 272.5,-57.5 272.5,-38.5 222.5,-38.5"/>
<text text-anchor="middle" x="247.5" y="-45.5" font-family="Helvetica,sans-Serif" font-size="10.00">TEST_F</text>
</a>
</g>
</g>
<!-- Node976&#45;&gt;Node1032 -->
<g id="edge36" class="edge"><title>Node976&#45;&gt;Node1032</title>
<path fill="none" stroke="midnightblue" d="M70.2337,-458.084C78.9645,-383.75 113.134,-123.876 170,-67 183.643,-53.3548 205.464,-48.9768 222.316,-47.797"/>
<polygon fill="midnightblue" stroke="midnightblue" points="66.7172,-458.028 69.0513,-468.362 73.6714,-458.828 66.7172,-458.028"/>
</g>
<!-- Node1033 -->
<g id="node26" class="node"><title>Node1033</title>
<g id="a_node26"><a xlink:href="xep__application__mcp__callbacks_8h.xhtml#a269b9593eb2635b8c5b600e8d69a331f" target="_top" xlink:title="onMcpX4DriverGetPifRegister">
<polygon fill="white" stroke="red" points="170,-0.5 170,-19.5 325,-19.5 325,-0.5 170,-0.5"/>
<text text-anchor="middle" x="247.5" y="-7.5" font-family="Helvetica,sans-Serif" font-size="10.00">onMcpX4DriverGetPifRegister</text>
</a>
</g>
</g>
<!-- Node976&#45;&gt;Node1033 -->
<g id="edge37" class="edge"><title>Node976&#45;&gt;Node1033</title>
<path fill="none" stroke="midnightblue" d="M69.7665,-458.281C77.1765,-379.95 108.269,-91.9824 170,-29 173.736,-25.1885 178.109,-22.0973 182.838,-19.5955"/>
<polygon fill="midnightblue" stroke="midnightblue" points="66.279,-457.986 68.8442,-468.266 73.2493,-458.63 66.279,-457.986"/>
</g>
<!-- Node1000&#45;&gt;Node988 -->
<g id="edge11" class="edge"><title>Node1000&#45;&gt;Node988</title>
<path fill="none" stroke="midnightblue" d="M312.222,-602.622C333.081,-600.206 356.205,-597.529 376.905,-595.132"/>
<polygon fill="midnightblue" stroke="midnightblue" points="311.716,-599.157 302.185,-603.784 312.521,-606.11 311.716,-599.157"/>
</g>
<!-- Node1001&#45;&gt;Node977 -->
<g id="edge13" class="edge"><title>Node1001&#45;&gt;Node977</title>
<path fill="none" stroke="midnightblue" d="M320.767,-894C339.121,-894 358.677,-894 376.472,-894"/>
<polygon fill="midnightblue" stroke="midnightblue" points="320.713,-890.5 310.713,-894 320.713,-897.5 320.713,-890.5"/>
</g>
<!-- Node1001&#45;&gt;Node1003 -->
<g id="edge14" class="edge"><title>Node1001&#45;&gt;Node1003</title>
<path fill="none" stroke="midnightblue" d="M306.505,-881.582C312.837,-879.642 319.114,-877.453 325,-875 363.954,-858.767 405.214,-830.483 425.578,-815.672"/>
<polygon fill="midnightblue" stroke="midnightblue" points="305.211,-878.312 296.56,-884.429 307.137,-885.042 305.211,-878.312"/>
</g>
<!-- Node1004&#45;&gt;Node977 -->
<g id="edge16" class="edge"><title>Node1004&#45;&gt;Node977</title>
<path fill="none" stroke="midnightblue" d="M313.528,-865.059C333.899,-869.777 356.318,-874.968 376.476,-879.637"/>
<polygon fill="midnightblue" stroke="midnightblue" points="314.243,-861.632 303.711,-862.786 312.664,-868.452 314.243,-861.632"/>
</g>
<!-- Node1004&#45;&gt;Node1003 -->
<g id="edge17" class="edge"><title>Node1004&#45;&gt;Node1003</title>
<path fill="none" stroke="midnightblue" d="M313.736,-834.893C341.464,-828.471 372.955,-821.179 397.362,-815.527"/>
<polygon fill="midnightblue" stroke="midnightblue" points="312.664,-831.548 303.711,-837.214 314.243,-838.368 312.664,-831.548"/>
</g>
<!-- Node1005&#45;&gt;Node1012 -->
<g id="edge19" class="edge"><title>Node1005&#45;&gt;Node1012</title>
<path fill="none" stroke="midnightblue" d="M327.596,-280.09C338.554,-278.995 349.802,-277.87 360.736,-276.776"/>
<polygon fill="midnightblue" stroke="midnightblue" points="327.234,-276.609 317.632,-281.087 327.931,-283.574 327.234,-276.609"/>
</g>
<!-- Node1020&#45;&gt;Node1003 -->
<g id="edge21" class="edge"><title>Node1020&#45;&gt;Node1003</title>
<path fill="none" stroke="midnightblue" d="M292.053,-742.624C302.908,-746.054 314.455,-749.949 325,-754 358.991,-767.059 397.249,-785.373 419.535,-796.42"/>
<polygon fill="midnightblue" stroke="midnightblue" points="292.916,-739.227 282.328,-739.613 290.846,-745.914 292.916,-739.227"/>
</g>
<!-- Node1025&#45;&gt;Node977 -->
<g id="edge23" class="edge"><title>Node1025&#45;&gt;Node977</title>
<path fill="none" stroke="midnightblue" d="M303.612,-818.389C310.913,-820.614 318.213,-823.149 325,-826 359.096,-840.325 395.197,-863.527 417.296,-878.775"/>
<polygon fill="midnightblue" stroke="midnightblue" points="304.282,-814.94 293.704,-815.546 302.351,-821.669 304.282,-814.94"/>
</g>
<!-- Node1025&#45;&gt;Node1003 -->
<g id="edge24" class="edge"><title>Node1025&#45;&gt;Node1003</title>
<path fill="none" stroke="midnightblue" d="M318.666,-806C332.682,-806 347.473,-806 361.699,-806"/>
<polygon fill="midnightblue" stroke="midnightblue" points="318.617,-802.5 308.617,-806 318.617,-809.5 318.617,-802.5"/>
</g>
<!-- Node1026&#45;&gt;Node977 -->
<g id="edge26" class="edge"><title>Node1026&#45;&gt;Node977</title>
<path fill="none" stroke="midnightblue" d="M306.348,-920.43C328.435,-916.013 353.703,-910.959 376.188,-906.462"/>
<polygon fill="midnightblue" stroke="midnightblue" points="305.564,-917.018 296.445,-922.411 306.937,-923.882 305.564,-917.018"/>
</g>
<!-- Node1026&#45;&gt;Node1003 -->
<g id="edge27" class="edge"><title>Node1026&#45;&gt;Node1003</title>
<path fill="none" stroke="midnightblue" d="M314.135,-918.729C317.919,-917.042 321.573,-915.142 325,-913 346.136,-899.79 343.316,-887.565 361,-870 382.17,-848.972 409.638,-827.48 425.544,-815.527"/>
<polygon fill="midnightblue" stroke="midnightblue" points="312.554,-915.589 304.52,-922.495 315.107,-922.107 312.554,-915.589"/>
</g>
<!-- Node1028&#45;&gt;Node1003 -->
<g id="edge31" class="edge"><title>Node1028&#45;&gt;Node1003</title>
<path fill="none" stroke="midnightblue" d="M310.446,-704.775C315.476,-706.593 320.391,-708.658 325,-711 369.671,-733.701 412.143,-776.939 429.847,-796.256"/>
<polygon fill="midnightblue" stroke="midnightblue" points="311.274,-701.363 300.681,-701.574 309.093,-708.015 311.274,-701.363"/>
</g>
</g>
</svg>
