<?xml version="1.0" encoding="UTF-8" standalone="no"?>
<!DOCTYPE svg PUBLIC "-//W3C//DTD SVG 1.1//EN"
 "http://www.w3.org/Graphics/SVG/1.1/DTD/svg11.dtd">
<!-- Generated by graphviz version 2.38.0 (20140413.2041)
 -->
<!-- Title: x4driver_get_dac_max Pages: 1 -->
<svg width="324pt" height="116pt"
 viewBox="0.00 0.00 324.00 115.50" xmlns="http://www.w3.org/2000/svg" xmlns:xlink="http://www.w3.org/1999/xlink">
<g id="graph0" class="graph" transform="scale(1 1) rotate(0) translate(4 111.5)">
<title>x4driver_get_dac_max</title>
<polygon fill="white" stroke="none" points="-4,4 -4,-111.5 320,-111.5 320,4 -4,4"/>
<!-- Node40 -->
<g id="node1" class="node"><title>Node40</title>
<polygon fill="#bfbfbf" stroke="black" points="0,-38.5 0,-57.5 125,-57.5 125,-38.5 0,-38.5"/>
<text text-anchor="middle" x="62.5" y="-45.5" font-family="Helvetica,sans-Serif" font-size="10.00">x4driver_get_dac_max</text>
</g>
<!-- Node41 -->
<g id="node2" class="node"><title>Node41</title>
<g id="a_node2"><a xlink:href="x4driver_8c.xhtml#a3493035f2d30f78e30586a7a4eccb481" target="_top" xlink:title="Updates normalization variables and calculates new constants. ">
<polygon fill="white" stroke="red" points="175.5,-77 175.5,-107 301.5,-107 301.5,-77 175.5,-77"/>
<text text-anchor="start" x="183.5" y="-95" font-family="Helvetica,sans-Serif" font-size="10.00">_update_normalization</text>
<text text-anchor="middle" x="238.5" y="-84" font-family="Helvetica,sans-Serif" font-size="10.00">_variables</text>
</a>
</g>
</g>
<!-- Node40&#45;&gt;Node41 -->
<g id="edge1" class="edge"><title>Node40&#45;&gt;Node41</title>
<path fill="none" stroke="midnightblue" d="M111.058,-60.0261C131.697,-65.2453 156.093,-71.4144 177.923,-76.9346"/>
<polygon fill="midnightblue" stroke="midnightblue" points="111.808,-56.6058 101.255,-57.5473 110.092,-63.3922 111.808,-56.6058"/>
</g>
<!-- Node50 -->
<g id="node3" class="node"><title>Node50</title>
<g id="a_node3"><a xlink:href="x4driver_8c.xhtml#ad4eae703d43b3d9800fd5174ce8ff222" target="_top" xlink:title="x4driver_get_sweep_time">
<polygon fill="white" stroke="black" points="169.5,-38.5 169.5,-57.5 307.5,-57.5 307.5,-38.5 169.5,-38.5"/>
<text text-anchor="middle" x="238.5" y="-45.5" font-family="Helvetica,sans-Serif" font-size="10.00">x4driver_get_sweep_time</text>
</a>
</g>
</g>
<!-- Node40&#45;&gt;Node50 -->
<g id="edge2" class="edge"><title>Node40&#45;&gt;Node50</title>
<path fill="none" stroke="midnightblue" d="M135.504,-48C146.705,-48 158.247,-48 169.359,-48"/>
<polygon fill="midnightblue" stroke="midnightblue" points="135.336,-44.5001 125.336,-48 135.336,-51.5001 135.336,-44.5001"/>
</g>
<!-- Node51 -->
<g id="node4" class="node"><title>Node51</title>
<g id="a_node4"><a xlink:href="x4driver_8c.xhtml#a8bc96b0db173f49cfe59027d9e95f600" target="_top" xlink:title="x4driver_check_configuration">
<polygon fill="white" stroke="red" points="161,-0.5 161,-19.5 316,-19.5 316,-0.5 161,-0.5"/>
<text text-anchor="middle" x="238.5" y="-7.5" font-family="Helvetica,sans-Serif" font-size="10.00">x4driver_check_configuration</text>
</a>
</g>
</g>
<!-- Node40&#45;&gt;Node51 -->
<g id="edge3" class="edge"><title>Node40&#45;&gt;Node51</title>
<path fill="none" stroke="midnightblue" d="M117.314,-36.2474C141.918,-30.8742 170.687,-24.5914 193.908,-19.5201"/>
<polygon fill="midnightblue" stroke="midnightblue" points="116.43,-32.8579 107.408,-38.411 117.924,-39.6967 116.43,-32.8579"/>
</g>
</g>
</svg>
