<?xml version="1.0" encoding="UTF-8" standalone="no"?>
<!DOCTYPE svg PUBLIC "-//W3C//DTD SVG 1.1//EN"
 "http://www.w3.org/Graphics/SVG/1.1/DTD/svg11.dtd">
<!-- Generated by graphviz version 2.38.0 (20140413.2041)
 -->
<!-- Title: _update_normalization_variables Pages: 1 -->
<svg width="466pt" height="303pt"
 viewBox="0.00 0.00 466.00 302.79" xmlns="http://www.w3.org/2000/svg" xmlns:xlink="http://www.w3.org/1999/xlink">
<g id="graph0" class="graph" transform="scale(1 1) rotate(0) translate(4 298.786)">
<title>_update_normalization_variables</title>
<polygon fill="white" stroke="none" points="-4,4 -4,-298.786 462,-298.786 462,4 -4,4"/>
<!-- Node65 -->
<g id="node1" class="node"><title>Node65</title>
<polygon fill="#bfbfbf" stroke="black" points="0,-142.5 0,-172.5 126,-172.5 126,-142.5 0,-142.5"/>
<text text-anchor="start" x="8" y="-160.5" font-family="Helvetica,sans-Serif" font-size="10.00">_update_normalization</text>
<text text-anchor="middle" x="63" y="-149.5" font-family="Helvetica,sans-Serif" font-size="10.00">_variables</text>
</g>
<!-- Node66 -->
<g id="node2" class="node"><title>Node66</title>
<g id="a_node2"><a xlink:href="x4driver_8c.xhtml#acee55fcb62077a150f421c3bbf2c2947" target="_top" xlink:title="Utility function to take mutex. ">
<polygon fill="white" stroke="black" points="354,-241 354,-260 428,-260 428,-241 354,-241"/>
<text text-anchor="middle" x="391" y="-248" font-family="Helvetica,sans-Serif" font-size="10.00">mutex_take</text>
</a>
</g>
</g>
<!-- Node65&#45;&gt;Node66 -->
<g id="edge1" class="edge"><title>Node65&#45;&gt;Node66</title>
<path fill="none" stroke="midnightblue" d="M70.6592,-172.884C83.5907,-200.536 115.02,-257.863 162,-280.5 227.844,-312.227 316.111,-283.236 361.06,-264.143"/>
<polygon fill="midnightblue" stroke="midnightblue" points="362.473,-267.345 370.229,-260.127 359.665,-260.933 362.473,-267.345"/>
</g>
<!-- Node67 -->
<g id="node3" class="node"><title>Node67</title>
<g id="a_node3"><a xlink:href="x4driver_8c.xhtml#a3340bd88f713c61192fed4ba6be4789d" target="_top" xlink:title="Gets Iterations. ">
<polygon fill="white" stroke="black" points="162,-50 162,-69 288,-69 288,-50 162,-50"/>
<text text-anchor="middle" x="225" y="-57" font-family="Helvetica,sans-Serif" font-size="10.00">x4driver_get_iterations</text>
</a>
</g>
</g>
<!-- Node65&#45;&gt;Node67 -->
<g id="edge2" class="edge"><title>Node65&#45;&gt;Node67</title>
<path fill="none" stroke="midnightblue" d="M81.0373,-142.288C99.8244,-126.095 131.452,-100.509 162,-83.5 169.241,-79.4682 177.298,-75.81 185.143,-72.633"/>
<polygon fill="midnightblue" stroke="midnightblue" points="186.471,-75.872 194.538,-69.0036 183.949,-69.3422 186.471,-75.872"/>
</g>
<!-- Node68 -->
<g id="node4" class="node"><title>Node68</title>
<g id="a_node4"><a xlink:href="x4driver_8c.xhtml#a983024655a1dcd0ad2aa0ec6cb8eb3cb" target="_top" xlink:title="Gets PIF register value. ">
<polygon fill="white" stroke="red" points="324,-126 324,-145 458,-145 458,-126 324,-126"/>
<text text-anchor="middle" x="391" y="-133" font-family="Helvetica,sans-Serif" font-size="10.00">x4driver_get_pif_register</text>
</a>
</g>
</g>
<!-- Node65&#45;&gt;Node68 -->
<g id="edge16" class="edge"><title>Node65&#45;&gt;Node68</title>
<path fill="none" stroke="midnightblue" d="M91.7821,-142.382C110.903,-132.866 137.228,-121.473 162,-116.5 223.497,-104.154 295.88,-114.269 342.319,-123.832"/>
<polygon fill="midnightblue" stroke="midnightblue" points="341.598,-127.257 352.108,-125.919 343.057,-120.411 341.598,-127.257"/>
</g>
<!-- Node74 -->
<g id="node5" class="node"><title>Node74</title>
<g id="a_node5"><a xlink:href="x4driver_8c.xhtml#a4d5fed456eb330474905ef190733f3a6" target="_top" xlink:title="Gets pulses per step. ">
<polygon fill="white" stroke="black" points="169,-164.5 169,-194.5 281,-194.5 281,-164.5 169,-164.5"/>
<text text-anchor="start" x="177" y="-182.5" font-family="Helvetica,sans-Serif" font-size="10.00">x4driver_get_pulses</text>
<text text-anchor="middle" x="225" y="-171.5" font-family="Helvetica,sans-Serif" font-size="10.00">_per_step</text>
</a>
</g>
</g>
<!-- Node65&#45;&gt;Node74 -->
<g id="edge4" class="edge"><title>Node65&#45;&gt;Node74</title>
<path fill="none" stroke="midnightblue" d="M126.318,-166.069C136.957,-167.532 148.036,-169.055 158.748,-170.528"/>
<polygon fill="midnightblue" stroke="midnightblue" points="158.498,-174.026 168.881,-171.921 159.451,-167.092 158.498,-174.026"/>
</g>
<!-- Node71 -->
<g id="node6" class="node"><title>Node71</title>
<g id="a_node6"><a xlink:href="x4driver_8c.xhtml#afb50fddff34b3e2ea353077619cb139e" target="_top" xlink:title="Utility function to give mutex. ">
<polygon fill="white" stroke="black" points="355,-181 355,-200 427,-200 427,-181 355,-181"/>
<text text-anchor="middle" x="391" y="-188" font-family="Helvetica,sans-Serif" font-size="10.00">mutex_give</text>
</a>
</g>
</g>
<!-- Node65&#45;&gt;Node71 -->
<g id="edge18" class="edge"><title>Node65&#45;&gt;Node71</title>
<path fill="none" stroke="midnightblue" d="M87.8527,-172.692C107.039,-183.963 135.136,-198.391 162,-204.5 224.196,-218.643 298.237,-209.489 344.689,-200.729"/>
<polygon fill="midnightblue" stroke="midnightblue" points="345.598,-204.117 354.738,-198.758 344.251,-197.248 345.598,-204.117"/>
</g>
<!-- Node75 -->
<g id="node7" class="node"><title>Node75</title>
<g id="a_node7"><a xlink:href="x4driver_8c.xhtml#a032203e8f9460b3b693a5b81fbf1f633" target="_top" xlink:title="x4driver_get_dac_min">
<polygon fill="white" stroke="black" points="164,-126 164,-145 286,-145 286,-126 164,-126"/>
<text text-anchor="middle" x="225" y="-133" font-family="Helvetica,sans-Serif" font-size="10.00">x4driver_get_dac_min</text>
</a>
</g>
</g>
<!-- Node65&#45;&gt;Node75 -->
<g id="edge8" class="edge"><title>Node65&#45;&gt;Node75</title>
<path fill="none" stroke="midnightblue" d="M126.318,-148.931C135.404,-147.682 144.81,-146.389 154.035,-145.12"/>
<polygon fill="midnightblue" stroke="midnightblue" points="154.521,-148.586 163.951,-143.757 153.567,-141.652 154.521,-148.586"/>
</g>
<!-- Node76 -->
<g id="node8" class="node"><title>Node76</title>
<g id="a_node8"><a xlink:href="x4driver_8c.xhtml#ad622f2683a8e728043a68fe0b09c2f07" target="_top" xlink:title="x4driver_get_dac_max">
<polygon fill="white" stroke="black" points="162.5,-252 162.5,-271 287.5,-271 287.5,-252 162.5,-252"/>
<text text-anchor="middle" x="225" y="-259" font-family="Helvetica,sans-Serif" font-size="10.00">x4driver_get_dac_max</text>
</a>
</g>
</g>
<!-- Node65&#45;&gt;Node76 -->
<g id="edge12" class="edge"><title>Node65&#45;&gt;Node76</title>
<path fill="none" stroke="midnightblue" d="M79.4735,-172.782C97.8692,-190.289 130.108,-218.943 162,-237.5 168.944,-241.541 176.696,-245.158 184.303,-248.284"/>
<polygon fill="midnightblue" stroke="midnightblue" points="183.201,-251.611 193.789,-251.976 185.739,-245.088 183.201,-251.611"/>
</g>
<!-- Node77 -->
<g id="node9" class="node"><title>Node77</title>
<g id="a_node9"><a xlink:href="x4driver_8c.xhtml#ad7f3588e190c41229a0664b479d8368f" target="_top" xlink:title="Updates normalization constants. ">
<polygon fill="white" stroke="black" points="162,-0.5 162,-30.5 288,-30.5 288,-0.5 162,-0.5"/>
<text text-anchor="start" x="170" y="-18.5" font-family="Helvetica,sans-Serif" font-size="10.00">_update_normalization</text>
<text text-anchor="middle" x="225" y="-7.5" font-family="Helvetica,sans-Serif" font-size="10.00">_constansts</text>
</a>
</g>
</g>
<!-- Node65&#45;&gt;Node77 -->
<g id="edge17" class="edge"><title>Node65&#45;&gt;Node77</title>
<path fill="none" stroke="midnightblue" d="M73.2825,-142.143C88.8255,-117.585 122.346,-69.3162 162,-40.5 164.501,-38.6824 167.153,-36.9723 169.898,-35.3671"/>
<polygon fill="midnightblue" stroke="midnightblue" points="171.708,-38.3688 178.906,-30.5941 168.431,-32.1835 171.708,-38.3688"/>
</g>
<!-- Node67&#45;&gt;Node68 -->
<g id="edge3" class="edge"><title>Node67&#45;&gt;Node68</title>
<path fill="none" stroke="midnightblue" d="M252.49,-69.0732C263.57,-73.2523 276.514,-78.3654 288,-83.5 314.161,-95.1951 343.205,-110.209 363.588,-121.095"/>
<polygon fill="midnightblue" stroke="midnightblue" points="362.11,-124.274 372.575,-125.927 365.425,-118.109 362.11,-124.274"/>
</g>
<!-- Node74&#45;&gt;Node66 -->
<g id="edge5" class="edge"><title>Node74&#45;&gt;Node66</title>
<path fill="none" stroke="midnightblue" d="M260.78,-194.557C289.713,-207.083 330.544,-224.76 358.521,-236.872"/>
<polygon fill="midnightblue" stroke="midnightblue" points="357.272,-240.145 367.84,-240.906 360.053,-233.721 357.272,-240.145"/>
</g>
<!-- Node74&#45;&gt;Node68 -->
<g id="edge6" class="edge"><title>Node74&#45;&gt;Node68</title>
<path fill="none" stroke="midnightblue" d="M281.066,-164.726C301.669,-159.199 324.823,-152.986 344.47,-147.715"/>
<polygon fill="midnightblue" stroke="midnightblue" points="345.641,-151.025 354.392,-145.053 343.827,-144.264 345.641,-151.025"/>
</g>
<!-- Node74&#45;&gt;Node71 -->
<g id="edge7" class="edge"><title>Node74&#45;&gt;Node71</title>
<path fill="none" stroke="midnightblue" d="M281.066,-183.193C301.732,-184.58 324.966,-186.138 344.651,-187.458"/>
<polygon fill="midnightblue" stroke="midnightblue" points="344.674,-190.968 354.886,-188.145 345.142,-183.983 344.674,-190.968"/>
</g>
<!-- Node75&#45;&gt;Node66 -->
<g id="edge9" class="edge"><title>Node75&#45;&gt;Node66</title>
<path fill="none" stroke="midnightblue" d="M268.569,-145.008C275.464,-147.701 282.226,-151.134 288,-155.5 311.008,-172.897 303.279,-189.434 324,-209.5 334.811,-219.969 348.733,-229.1 361.003,-236.071"/>
<polygon fill="midnightblue" stroke="midnightblue" points="359.528,-239.253 369.984,-240.967 362.879,-233.107 359.528,-239.253"/>
</g>
<!-- Node75&#45;&gt;Node68 -->
<g id="edge10" class="edge"><title>Node75&#45;&gt;Node68</title>
<path fill="none" stroke="midnightblue" d="M286.136,-135.5C295.132,-135.5 304.507,-135.5 313.783,-135.5"/>
<polygon fill="midnightblue" stroke="midnightblue" points="313.786,-139 323.786,-135.5 313.786,-132 313.786,-139"/>
</g>
<!-- Node75&#45;&gt;Node71 -->
<g id="edge11" class="edge"><title>Node75&#45;&gt;Node71</title>
<path fill="none" stroke="midnightblue" d="M255.995,-145.052C266.168,-148.325 277.591,-152.035 288,-155.5 309.48,-162.649 333.426,-170.854 352.715,-177.521"/>
<polygon fill="midnightblue" stroke="midnightblue" points="351.745,-180.889 362.34,-180.854 354.036,-174.275 351.745,-180.889"/>
</g>
<!-- Node76&#45;&gt;Node66 -->
<g id="edge13" class="edge"><title>Node76&#45;&gt;Node66</title>
<path fill="none" stroke="midnightblue" d="M287.534,-257.373C306.05,-256.131 326.053,-254.789 343.429,-253.624"/>
<polygon fill="midnightblue" stroke="midnightblue" points="344.128,-257.085 353.872,-252.923 343.66,-250.1 344.128,-257.085"/>
</g>
<!-- Node76&#45;&gt;Node68 -->
<g id="edge14" class="edge"><title>Node76&#45;&gt;Node68</title>
<path fill="none" stroke="midnightblue" d="M236.414,-251.921C261.526,-228.825 323.401,-171.928 324,-171.5 335.391,-163.349 348.829,-155.706 360.597,-149.577"/>
<polygon fill="midnightblue" stroke="midnightblue" points="362.272,-152.652 369.605,-145.005 359.104,-146.41 362.272,-152.652"/>
</g>
<!-- Node76&#45;&gt;Node71 -->
<g id="edge15" class="edge"><title>Node76&#45;&gt;Node71</title>
<path fill="none" stroke="midnightblue" d="M251.785,-251.932C262.979,-247.671 276.202,-242.496 288,-237.5 312.955,-226.933 340.878,-213.986 361.192,-204.358"/>
<polygon fill="midnightblue" stroke="midnightblue" points="362.703,-207.515 370.228,-200.056 359.694,-201.195 362.703,-207.515"/>
</g>
</g>
</svg>
