<?xml version="1.0" encoding="UTF-8" standalone="no"?>
<!DOCTYPE svg PUBLIC "-//W3C//DTD SVG 1.1//EN"
 "http://www.w3.org/Graphics/SVG/1.1/DTD/svg11.dtd">
<!-- Generated by graphviz version 2.38.0 (20140413.2041)
 -->
<!-- Title: _x4driver_set_x4_sw_action Pages: 1 -->
<svg width="310pt" height="154pt"
 viewBox="0.00 0.00 310.00 153.50" xmlns="http://www.w3.org/2000/svg" xmlns:xlink="http://www.w3.org/1999/xlink">
<g id="graph0" class="graph" transform="scale(1 1) rotate(0) translate(4 149.5)">
<title>_x4driver_set_x4_sw_action</title>
<polygon fill="white" stroke="none" points="-4,4 -4,-149.5 306,-149.5 306,4 -4,4"/>
<!-- Node439 -->
<g id="node1" class="node"><title>Node439</title>
<polygon fill="#bfbfbf" stroke="black" points="0,-63.5 0,-93.5 114,-93.5 114,-63.5 0,-63.5"/>
<text text-anchor="start" x="8" y="-81.5" font-family="Helvetica,sans-Serif" font-size="10.00">_x4driver_set_x4_sw</text>
<text text-anchor="middle" x="57" y="-70.5" font-family="Helvetica,sans-Serif" font-size="10.00">_action</text>
</g>
<!-- Node440 -->
<g id="node2" class="node"><title>Node440</title>
<g id="a_node2"><a xlink:href="x4driver_8c.xhtml#a03652f4897873d46d0534336df7f29fe" target="_top" xlink:title="Will trigger a radar sweep. ">
<polygon fill="white" stroke="red" points="167,-126 167,-145 285,-145 285,-126 167,-126"/>
<text text-anchor="middle" x="226" y="-133" font-family="Helvetica,sans-Serif" font-size="10.00">x4driver_start_sweep</text>
</a>
</g>
</g>
<!-- Node439&#45;&gt;Node440 -->
<g id="edge1" class="edge"><title>Node439&#45;&gt;Node440</title>
<path fill="none" stroke="midnightblue" d="M100.485,-97.5412C115.898,-104.05 133.562,-111.054 150,-116.5 160.456,-119.964 171.908,-123.158 182.646,-125.9"/>
<polygon fill="midnightblue" stroke="midnightblue" points="101.78,-94.2888 91.21,-93.5711 99.0258,-100.724 101.78,-94.2888"/>
</g>
<!-- Node446 -->
<g id="node3" class="node"><title>Node446</title>
<g id="a_node3"><a xlink:href="x4driver_8c.xhtml#a33cc21cd8eeda4680c7ee2c47cf6e09b" target="_top" xlink:title="Gets reads frame counter from 8051 mailbox requires enable to be set and 8051 SRAM to be program...">
<polygon fill="white" stroke="red" points="150,-88 150,-107 302,-107 302,-88 150,-88"/>
<text text-anchor="middle" x="226" y="-95" font-family="Helvetica,sans-Serif" font-size="10.00">_x4driver_get_framecounter</text>
</a>
</g>
</g>
<!-- Node439&#45;&gt;Node446 -->
<g id="edge2" class="edge"><title>Node439&#45;&gt;Node446</title>
<path fill="none" stroke="midnightblue" d="M124.186,-86.0302C132.597,-86.987 141.252,-87.9718 149.791,-88.9433"/>
<polygon fill="midnightblue" stroke="midnightblue" points="124.405,-82.5325 114.073,-84.8796 123.613,-89.4877 124.405,-82.5325"/>
</g>
<!-- Node450 -->
<g id="node4" class="node"><title>Node450</title>
<g id="a_node4"><a xlink:href="x4driver_8c.xhtml#a579272c1f275037a5540eee223563168" target="_top" xlink:title="Sets frame rate for frame streaming. ">
<polygon fill="white" stroke="red" points="178.5,-50 178.5,-69 273.5,-69 273.5,-50 178.5,-50"/>
<text text-anchor="middle" x="226" y="-57" font-family="Helvetica,sans-Serif" font-size="10.00">x4driver_set_fps</text>
</a>
</g>
</g>
<!-- Node439&#45;&gt;Node450 -->
<g id="edge3" class="edge"><title>Node439&#45;&gt;Node450</title>
<path fill="none" stroke="midnightblue" d="M124.01,-70.9899C142.151,-68.926 161.445,-66.7308 178.256,-64.8182"/>
<polygon fill="midnightblue" stroke="midnightblue" points="123.613,-67.5123 114.073,-72.1204 124.405,-74.4675 123.613,-67.5123"/>
</g>
<!-- Node454 -->
<g id="node5" class="node"><title>Node454</title>
<g id="a_node5"><a xlink:href="x4driver_8c.xhtml#a67278d41c995150400eb611c28a135d0" target="_top" xlink:title="x4driver_set_frame\l_trigger_period">
<polygon fill="white" stroke="black" points="171.5,-0.5 171.5,-30.5 280.5,-30.5 280.5,-0.5 171.5,-0.5"/>
<text text-anchor="start" x="179.5" y="-18.5" font-family="Helvetica,sans-Serif" font-size="10.00">x4driver_set_frame</text>
<text text-anchor="middle" x="226" y="-7.5" font-family="Helvetica,sans-Serif" font-size="10.00">_trigger_period</text>
</a>
</g>
</g>
<!-- Node439&#45;&gt;Node454 -->
<g id="edge4" class="edge"><title>Node439&#45;&gt;Node454</title>
<path fill="none" stroke="midnightblue" d="M102.301,-59.4674C117.351,-53.1982 134.326,-46.3414 150,-40.5 159.003,-37.1449 168.69,-33.7555 178.014,-30.6013"/>
<polygon fill="midnightblue" stroke="midnightblue" points="100.59,-56.3899 92.722,-63.4857 103.297,-62.8449 100.59,-56.3899"/>
</g>
</g>
</svg>
