<?xml version="1.0" encoding="UTF-8" standalone="no"?>
<!DOCTYPE svg PUBLIC "-//W3C//DTD SVG 1.1//EN"
 "http://www.w3.org/Graphics/SVG/1.1/DTD/svg11.dtd">
<!-- Generated by graphviz version 2.38.0 (20140413.2041)
 -->
<!-- Title: x4driver_set_frame_area Pages: 1 -->
<svg width="469pt" height="181pt"
 viewBox="0.00 0.00 469.00 181.17" xmlns="http://www.w3.org/2000/svg" xmlns:xlink="http://www.w3.org/1999/xlink">
<g id="graph0" class="graph" transform="scale(1 1) rotate(0) translate(4 177.169)">
<title>x4driver_set_frame_area</title>
<polygon fill="white" stroke="none" points="-4,4 -4,-177.169 465,-177.169 465,4 -4,4"/>
<!-- Node1574 -->
<g id="node1" class="node"><title>Node1574</title>
<polygon fill="#bfbfbf" stroke="black" points="0,-64.0573 0,-83.0573 136,-83.0573 136,-64.0573 0,-64.0573"/>
<text text-anchor="middle" x="68" y="-71.0573" font-family="Helvetica,sans-Serif" font-size="10.00">x4driver_set_frame_area</text>
</g>
<!-- Node1575 -->
<g id="node2" class="node"><title>Node1575</title>
<g id="a_node2"><a xlink:href="x4driver_8c.xhtml#acee55fcb62077a150f421c3bbf2c2947" target="_top" xlink:title="Utility function to take mutex. ">
<polygon fill="white" stroke="black" points="357,-130.057 357,-149.057 431,-149.057 431,-130.057 357,-130.057"/>
<text text-anchor="middle" x="394" y="-137.057" font-family="Helvetica,sans-Serif" font-size="10.00">mutex_take</text>
</a>
</g>
</g>
<!-- Node1574&#45;&gt;Node1575 -->
<g id="edge1" class="edge"><title>Node1574&#45;&gt;Node1575</title>
<path fill="none" stroke="midnightblue" d="M76.1947,-83.1633C91.3508,-102.492 128.752,-145.598 172,-161.557 234.552,-184.64 313.434,-166.501 358.045,-152.297"/>
<polygon fill="midnightblue" stroke="midnightblue" points="359.156,-155.616 367.557,-149.161 356.964,-148.968 359.156,-155.616"/>
</g>
<!-- Node1576 -->
<g id="node3" class="node"><title>Node1576</title>
<g id="a_node3"><a xlink:href="x4driver_8c.xhtml#ac9237ca48bd407ee0efdd38db91a9b4e" target="_top" xlink:title="x4driver_set_rx_wait">
<polygon fill="white" stroke="black" points="175,-133.057 175,-152.057 288,-152.057 288,-133.057 175,-133.057"/>
<text text-anchor="middle" x="231.5" y="-140.057" font-family="Helvetica,sans-Serif" font-size="10.00">x4driver_set_rx_wait</text>
</a>
</g>
</g>
<!-- Node1574&#45;&gt;Node1576 -->
<g id="edge2" class="edge"><title>Node1574&#45;&gt;Node1576</title>
<path fill="none" stroke="midnightblue" d="M86.8917,-83.1795C107.171,-93.8638 141.394,-111.227 172,-123.557 177.394,-125.73 183.139,-127.838 188.844,-129.811"/>
<polygon fill="midnightblue" stroke="midnightblue" points="187.741,-133.133 198.335,-132.99 189.964,-126.495 187.741,-133.133"/>
</g>
<!-- Node1577 -->
<g id="node4" class="node"><title>Node1577</title>
<g id="a_node4"><a xlink:href="x4driver_8c.xhtml#a382b6e4ffa3658d409dfe855707dc16d" target="_top" xlink:title="Sets PIF register value. ">
<polygon fill="white" stroke="red" points="327,-42.0573 327,-61.0573 461,-61.0573 461,-42.0573 327,-42.0573"/>
<text text-anchor="middle" x="394" y="-49.0573" font-family="Helvetica,sans-Serif" font-size="10.00">x4driver_set_pif_register</text>
</a>
</g>
</g>
<!-- Node1574&#45;&gt;Node1577 -->
<g id="edge6" class="edge"><title>Node1574&#45;&gt;Node1577</title>
<path fill="none" stroke="midnightblue" d="M79.731,-63.9857C97.4357,-48.9087 134.548,-20.2454 172,-9.55727 222.858,4.9566 239.117,0.706576 291,-9.55727 317.8,-14.8591 346.406,-27.2942 366.482,-37.2662"/>
<polygon fill="midnightblue" stroke="midnightblue" points="365.109,-40.4948 375.607,-41.9216 368.29,-34.2594 365.109,-40.4948"/>
</g>
<!-- Node1580 -->
<g id="node5" class="node"><title>Node1580</title>
<g id="a_node5"><a xlink:href="x4driver_8c.xhtml#afb50fddff34b3e2ea353077619cb139e" target="_top" xlink:title="Utility function to give mutex. ">
<polygon fill="white" stroke="black" points="358,-84.0573 358,-103.057 430,-103.057 430,-84.0573 358,-84.0573"/>
<text text-anchor="middle" x="394" y="-91.0573" font-family="Helvetica,sans-Serif" font-size="10.00">mutex_give</text>
</a>
</g>
</g>
<!-- Node1574&#45;&gt;Node1580 -->
<g id="edge15" class="edge"><title>Node1574&#45;&gt;Node1580</title>
<path fill="none" stroke="midnightblue" d="M83.7984,-63.9481C120.622,-41.3456 218.617,10.7095 291,-24.5573 314.338,-35.9283 305.887,-55.4511 327,-70.5573 333.453,-75.1742 340.916,-78.9332 348.451,-81.9713"/>
<polygon fill="midnightblue" stroke="midnightblue" points="347.37,-85.3027 357.964,-85.4443 349.771,-78.7271 347.37,-85.3027"/>
</g>
<!-- Node1583 -->
<g id="node6" class="node"><title>Node1583</title>
<g id="a_node6"><a xlink:href="x4driver_8c.xhtml#afdda0b27e8cfa0aa286f1cca02524b1a" target="_top" xlink:title="_x4driver_set_rx_ram\l_first_line">
<polygon fill="white" stroke="red" points="172,-83.5573 172,-113.557 291,-113.557 291,-83.5573 172,-83.5573"/>
<text text-anchor="start" x="180" y="-101.557" font-family="Helvetica,sans-Serif" font-size="10.00">_x4driver_set_rx_ram</text>
<text text-anchor="middle" x="231.5" y="-90.5573" font-family="Helvetica,sans-Serif" font-size="10.00">_first_line</text>
</a>
</g>
</g>
<!-- Node1574&#45;&gt;Node1583 -->
<g id="edge7" class="edge"><title>Node1574&#45;&gt;Node1583</title>
<path fill="none" stroke="midnightblue" d="M130.517,-83.08C140.785,-84.6695 151.493,-86.3271 161.924,-87.9418"/>
<polygon fill="midnightblue" stroke="midnightblue" points="161.399,-91.4021 171.817,-89.4731 162.47,-84.4845 161.399,-91.4021"/>
</g>
<!-- Node1587 -->
<g id="node7" class="node"><title>Node1587</title>
<g id="a_node7"><a xlink:href="x4driver_8c.xhtml#ac12013d8875e5974fd3b4703aeeee12f" target="_top" xlink:title="_x4driver_set_rx_ram\l_last_line">
<polygon fill="white" stroke="red" points="172,-34.5573 172,-64.5573 291,-64.5573 291,-34.5573 172,-34.5573"/>
<text text-anchor="start" x="180" y="-52.5573" font-family="Helvetica,sans-Serif" font-size="10.00">_x4driver_set_rx_ram</text>
<text text-anchor="middle" x="231.5" y="-41.5573" font-family="Helvetica,sans-Serif" font-size="10.00">_last_line</text>
</a>
</g>
</g>
<!-- Node1574&#45;&gt;Node1587 -->
<g id="edge11" class="edge"><title>Node1574&#45;&gt;Node1587</title>
<path fill="none" stroke="midnightblue" d="M133.293,-64.0029C142.66,-62.6109 152.335,-61.1731 161.785,-59.7687"/>
<polygon fill="midnightblue" stroke="midnightblue" points="162.549,-63.1937 171.926,-58.2617 161.52,-56.2697 162.549,-63.1937"/>
</g>
<!-- Node1576&#45;&gt;Node1575 -->
<g id="edge3" class="edge"><title>Node1576&#45;&gt;Node1575</title>
<path fill="none" stroke="midnightblue" d="M288.185,-141.516C307.194,-141.161 328.239,-140.768 346.454,-140.427"/>
<polygon fill="midnightblue" stroke="midnightblue" points="346.599,-143.925 356.531,-140.239 346.468,-136.927 346.599,-143.925"/>
</g>
<!-- Node1576&#45;&gt;Node1577 -->
<g id="edge4" class="edge"><title>Node1576&#45;&gt;Node1577</title>
<path fill="none" stroke="midnightblue" d="M273.122,-133.04C279.435,-130.548 285.633,-127.434 291,-123.557 312.906,-107.733 305.264,-90.6141 327,-74.5573 332.06,-70.8194 337.777,-67.6522 343.678,-64.9778"/>
<polygon fill="midnightblue" stroke="midnightblue" points="345.091,-68.1815 353.034,-61.1697 342.452,-61.698 345.091,-68.1815"/>
</g>
<!-- Node1576&#45;&gt;Node1580 -->
<g id="edge5" class="edge"><title>Node1576&#45;&gt;Node1580</title>
<path fill="none" stroke="midnightblue" d="M263.827,-132.993C289.014,-125.304 324.599,-114.44 352.043,-106.061"/>
<polygon fill="midnightblue" stroke="midnightblue" points="353.21,-109.365 361.752,-103.097 351.166,-102.67 353.21,-109.365"/>
</g>
<!-- Node1583&#45;&gt;Node1575 -->
<g id="edge8" class="edge"><title>Node1583&#45;&gt;Node1575</title>
<path fill="none" stroke="midnightblue" d="M291.353,-113.591C309.601,-118.253 329.442,-123.321 346.71,-127.732"/>
<polygon fill="midnightblue" stroke="midnightblue" points="345.994,-131.162 356.549,-130.246 347.726,-124.38 345.994,-131.162"/>
</g>
<!-- Node1583&#45;&gt;Node1577 -->
<g id="edge9" class="edge"><title>Node1583&#45;&gt;Node1577</title>
<path fill="none" stroke="midnightblue" d="M283.724,-83.557C305.327,-77.2311 330.172,-69.9556 350.708,-63.9419"/>
<polygon fill="midnightblue" stroke="midnightblue" points="351.797,-67.2701 360.41,-61.1007 349.83,-60.5522 351.797,-67.2701"/>
</g>
<!-- Node1583&#45;&gt;Node1580 -->
<g id="edge10" class="edge"><title>Node1583&#45;&gt;Node1580</title>
<path fill="none" stroke="midnightblue" d="M291.353,-96.7238C309.875,-96.1468 330.038,-95.5187 347.486,-94.9751"/>
<polygon fill="midnightblue" stroke="midnightblue" points="348.074,-98.4586 357.96,-94.6488 347.856,-91.462 348.074,-98.4586"/>
</g>
<!-- Node1587&#45;&gt;Node1575 -->
<g id="edge12" class="edge"><title>Node1587&#45;&gt;Node1575</title>
<path fill="none" stroke="midnightblue" d="M273.609,-64.5714C279.662,-67.4993 285.652,-70.8342 291,-74.5573 310.093,-87.8492 307.804,-99.4141 327,-112.557 334.802,-117.899 343.823,-122.457 352.641,-126.223"/>
<polygon fill="midnightblue" stroke="midnightblue" points="351.479,-129.527 362.063,-129.998 354.083,-123.029 351.479,-129.527"/>
</g>
<!-- Node1587&#45;&gt;Node1577 -->
<g id="edge13" class="edge"><title>Node1587&#45;&gt;Node1577</title>
<path fill="none" stroke="midnightblue" d="M291.353,-50.2906C299.558,-50.3929 308.085,-50.4991 316.555,-50.6047"/>
<polygon fill="midnightblue" stroke="midnightblue" points="316.791,-54.1078 326.834,-50.7328 316.878,-47.1083 316.791,-54.1078"/>
</g>
<!-- Node1587&#45;&gt;Node1580 -->
<g id="edge14" class="edge"><title>Node1587&#45;&gt;Node1580</title>
<path fill="none" stroke="midnightblue" d="M287.286,-64.5765C307.146,-70.021 329.328,-76.1019 348.224,-81.2821"/>
<polygon fill="midnightblue" stroke="midnightblue" points="347.491,-84.7105 358.061,-83.979 349.342,-77.9596 347.491,-84.7105"/>
</g>
</g>
</svg>
