<?xml version="1.0" encoding="UTF-8" standalone="no"?>
<!DOCTYPE svg PUBLIC "-//W3C//DTD SVG 1.1//EN"
 "http://www.w3.org/Graphics/SVG/1.1/DTD/svg11.dtd">
<!-- Generated by graphviz version 2.38.0 (20140413.2041)
 -->
<!-- Title: x4driver_set_dac_step Pages: 1 -->
<svg width="418pt" height="75pt"
 viewBox="0.00 0.00 418.00 75.00" xmlns="http://www.w3.org/2000/svg" xmlns:xlink="http://www.w3.org/1999/xlink">
<g id="graph0" class="graph" transform="scale(1 1) rotate(0) translate(4 71)">
<title>x4driver_set_dac_step</title>
<polygon fill="white" stroke="none" points="-4,4 -4,-71 414,-71 414,4 -4,4"/>
<!-- Node1496 -->
<g id="node1" class="node"><title>Node1496</title>
<polygon fill="#bfbfbf" stroke="black" points="0,-28.5 0,-47.5 124,-47.5 124,-28.5 0,-28.5"/>
<text text-anchor="middle" x="62" y="-35.5" font-family="Helvetica,sans-Serif" font-size="10.00">x4driver_set_dac_step</text>
</g>
<!-- Node1497 -->
<g id="node2" class="node"><title>Node1497</title>
<g id="a_node2"><a xlink:href="x4driver_8c.xhtml#acee55fcb62077a150f421c3bbf2c2947" target="_top" xlink:title="Utility function to take mutex. ">
<polygon fill="white" stroke="black" points="336,-47.5 336,-66.5 410,-66.5 410,-47.5 336,-47.5"/>
<text text-anchor="middle" x="373" y="-54.5" font-family="Helvetica,sans-Serif" font-size="10.00">mutex_take</text>
</a>
</g>
</g>
<!-- Node1496&#45;&gt;Node1497 -->
<g id="edge1" class="edge"><title>Node1496&#45;&gt;Node1497</title>
<path fill="none" stroke="midnightblue" d="M102.388,-47.5103C119.913,-51.2754 140.87,-55.1441 160,-57 216.856,-62.516 282.694,-61.3437 325.726,-59.5654"/>
<polygon fill="midnightblue" stroke="midnightblue" points="326.051,-63.0546 335.887,-59.1166 325.742,-56.0614 326.051,-63.0546"/>
</g>
<!-- Node1498 -->
<g id="node3" class="node"><title>Node1498</title>
<g id="a_node3"><a xlink:href="x4driver_8c.xhtml#afb50fddff34b3e2ea353077619cb139e" target="_top" xlink:title="Utility function to give mutex. ">
<polygon fill="white" stroke="black" points="337,-0.5 337,-19.5 409,-19.5 409,-0.5 337,-0.5"/>
<text text-anchor="middle" x="373" y="-7.5" font-family="Helvetica,sans-Serif" font-size="10.00">mutex_give</text>
</a>
</g>
</g>
<!-- Node1496&#45;&gt;Node1498 -->
<g id="edge2" class="edge"><title>Node1496&#45;&gt;Node1498</title>
<path fill="none" stroke="midnightblue" d="M104.321,-28.4779C121.456,-24.9028 141.596,-21.1805 160,-19 217.285,-12.2131 283.809,-10.3616 326.837,-9.94713"/>
<polygon fill="midnightblue" stroke="midnightblue" points="327.009,-13.4461 336.983,-9.87195 326.957,-6.44624 327.009,-13.4461"/>
</g>
<!-- Node1499 -->
<g id="node4" class="node"><title>Node1499</title>
<g id="a_node4"><a xlink:href="x4driver_8c.xhtml#a14e3623f55953194c1660b4fcc5814cf" target="_top" xlink:title="Sets a register segment. ">
<polygon fill="white" stroke="red" points="160,-28.5 160,-47.5 300,-47.5 300,-28.5 160,-28.5"/>
<text text-anchor="middle" x="230" y="-35.5" font-family="Helvetica,sans-Serif" font-size="10.00">x4driver_set_pif_segment</text>
</a>
</g>
</g>
<!-- Node1496&#45;&gt;Node1499 -->
<g id="edge3" class="edge"><title>Node1496&#45;&gt;Node1499</title>
<path fill="none" stroke="midnightblue" d="M124.341,-38C132.548,-38 141.06,-38 149.522,-38"/>
<polygon fill="midnightblue" stroke="midnightblue" points="149.797,-41.5001 159.797,-38 149.796,-34.5001 149.797,-41.5001"/>
</g>
<!-- Node1499&#45;&gt;Node1497 -->
<g id="edge4" class="edge"><title>Node1499&#45;&gt;Node1497</title>
<path fill="none" stroke="midnightblue" d="M300.261,-47.333C308.879,-48.4944 317.523,-49.6591 325.675,-50.7576"/>
<polygon fill="midnightblue" stroke="midnightblue" points="325.323,-54.2417 335.7,-52.1086 326.257,-47.3044 325.323,-54.2417"/>
</g>
<!-- Node1499&#45;&gt;Node1498 -->
<g id="edge5" class="edge"><title>Node1499&#45;&gt;Node1498</title>
<path fill="none" stroke="midnightblue" d="M279.13,-28.4423C294.557,-25.3787 311.579,-21.9986 326.789,-18.978"/>
<polygon fill="midnightblue" stroke="midnightblue" points="327.862,-22.3334 336.989,-16.9525 326.499,-15.4674 327.862,-22.3334"/>
</g>
</g>
</svg>
