<?xml version="1.0" encoding="UTF-8" standalone="no"?>
<!DOCTYPE svg PUBLIC "-//W3C//DTD SVG 1.1//EN"
 "http://www.w3.org/Graphics/SVG/1.1/DTD/svg11.dtd">
<!-- Generated by graphviz version 2.38.0 (20140413.2041)
 -->
<!-- Title: x4driver_get_iterations Pages: 1 -->
<svg width="325pt" height="116pt"
 viewBox="0.00 0.00 325.00 115.50" xmlns="http://www.w3.org/2000/svg" xmlns:xlink="http://www.w3.org/1999/xlink">
<g id="graph0" class="graph" transform="scale(1 1) rotate(0) translate(4 111.5)">
<title>x4driver_get_iterations</title>
<polygon fill="white" stroke="none" points="-4,4 -4,-111.5 321,-111.5 321,4 -4,4"/>
<!-- Node150 -->
<g id="node1" class="node"><title>Node150</title>
<polygon fill="#bfbfbf" stroke="black" points="0,-38.5 0,-57.5 126,-57.5 126,-38.5 0,-38.5"/>
<text text-anchor="middle" x="63" y="-45.5" font-family="Helvetica,sans-Serif" font-size="10.00">x4driver_get_iterations</text>
</g>
<!-- Node151 -->
<g id="node2" class="node"><title>Node151</title>
<g id="a_node2"><a xlink:href="x4driver_8c.xhtml#a3493035f2d30f78e30586a7a4eccb481" target="_top" xlink:title="Updates normalization variables and calculates new constants. ">
<polygon fill="white" stroke="red" points="176.5,-77 176.5,-107 302.5,-107 302.5,-77 176.5,-77"/>
<text text-anchor="start" x="184.5" y="-95" font-family="Helvetica,sans-Serif" font-size="10.00">_update_normalization</text>
<text text-anchor="middle" x="239.5" y="-84" font-family="Helvetica,sans-Serif" font-size="10.00">_variables</text>
</a>
</g>
</g>
<!-- Node150&#45;&gt;Node151 -->
<g id="edge1" class="edge"><title>Node150&#45;&gt;Node151</title>
<path fill="none" stroke="midnightblue" d="M111.695,-60.0261C132.393,-65.2453 156.859,-71.4144 178.752,-76.9346"/>
<polygon fill="midnightblue" stroke="midnightblue" points="112.416,-56.5986 101.864,-57.5473 110.705,-63.3862 112.416,-56.5986"/>
</g>
<!-- Node160 -->
<g id="node3" class="node"><title>Node160</title>
<g id="a_node3"><a xlink:href="x4driver_8c.xhtml#ad4eae703d43b3d9800fd5174ce8ff222" target="_top" xlink:title="x4driver_get_sweep_time">
<polygon fill="white" stroke="black" points="170.5,-38.5 170.5,-57.5 308.5,-57.5 308.5,-38.5 170.5,-38.5"/>
<text text-anchor="middle" x="239.5" y="-45.5" font-family="Helvetica,sans-Serif" font-size="10.00">x4driver_get_sweep_time</text>
</a>
</g>
</g>
<!-- Node150&#45;&gt;Node160 -->
<g id="edge2" class="edge"><title>Node150&#45;&gt;Node160</title>
<path fill="none" stroke="midnightblue" d="M136.281,-48C147.593,-48 159.25,-48 170.462,-48"/>
<polygon fill="midnightblue" stroke="midnightblue" points="136.014,-44.5001 126.014,-48 136.013,-51.5001 136.014,-44.5001"/>
</g>
<!-- Node161 -->
<g id="node4" class="node"><title>Node161</title>
<g id="a_node4"><a xlink:href="x4driver_8c.xhtml#a8bc96b0db173f49cfe59027d9e95f600" target="_top" xlink:title="x4driver_check_configuration">
<polygon fill="white" stroke="red" points="162,-0.5 162,-19.5 317,-19.5 317,-0.5 162,-0.5"/>
<text text-anchor="middle" x="239.5" y="-7.5" font-family="Helvetica,sans-Serif" font-size="10.00">x4driver_check_configuration</text>
</a>
</g>
</g>
<!-- Node150&#45;&gt;Node161 -->
<g id="edge3" class="edge"><title>Node150&#45;&gt;Node161</title>
<path fill="none" stroke="midnightblue" d="M117.969,-36.2474C142.643,-30.8742 171.495,-24.5914 194.783,-19.5201"/>
<polygon fill="midnightblue" stroke="midnightblue" points="117.06,-32.8633 108.034,-38.411 118.549,-39.703 117.06,-32.8633"/>
</g>
</g>
</svg>
