<?xml version="1.0" encoding="UTF-8" standalone="no"?>
<!DOCTYPE svg PUBLIC "-//W3C//DTD SVG 1.1//EN"
 "http://www.w3.org/Graphics/SVG/1.1/DTD/svg11.dtd">
<!-- Generated by graphviz version 2.38.0 (20140413.2041)
 -->
<!-- Title: x4driver_set_sweep_trigger_control Pages: 1 -->
<svg width="279pt" height="66pt"
 viewBox="0.00 0.00 279.00 66.00" xmlns="http://www.w3.org/2000/svg" xmlns:xlink="http://www.w3.org/1999/xlink">
<g id="graph0" class="graph" transform="scale(1 1) rotate(0) translate(4 62)">
<title>x4driver_set_sweep_trigger_control</title>
<polygon fill="white" stroke="none" points="-4,4 -4,-62 275,-62 275,4 -4,4"/>
<!-- Node1106 -->
<g id="node1" class="node"><title>Node1106</title>
<polygon fill="#bfbfbf" stroke="black" points="0,-14 0,-44 110,-44 110,-14 0,-14"/>
<text text-anchor="start" x="8" y="-32" font-family="Helvetica,sans-Serif" font-size="10.00">x4driver_set_sweep</text>
<text text-anchor="middle" x="55" y="-21" font-family="Helvetica,sans-Serif" font-size="10.00">_trigger_control</text>
</g>
<!-- Node1107 -->
<g id="node2" class="node"><title>Node1107</title>
<g id="a_node2"><a xlink:href="task__radar_8c.xhtml#ab45564b4bfe2b9814424a084ab9a9859" target="_top" xlink:title="task_radar">
<polygon fill="white" stroke="red" points="174.5,-38.5 174.5,-57.5 242.5,-57.5 242.5,-38.5 174.5,-38.5"/>
<text text-anchor="middle" x="208.5" y="-45.5" font-family="Helvetica,sans-Serif" font-size="10.00">task_radar</text>
</a>
</g>
</g>
<!-- Node1106&#45;&gt;Node1107 -->
<g id="edge1" class="edge"><title>Node1106&#45;&gt;Node1107</title>
<path fill="none" stroke="midnightblue" d="M120.192,-37.0505C138.822,-39.387 158.408,-41.8432 174.297,-43.8359"/>
<polygon fill="midnightblue" stroke="midnightblue" points="120.625,-33.5774 110.267,-35.8058 119.754,-40.523 120.625,-33.5774"/>
</g>
<!-- Node1111 -->
<g id="node3" class="node"><title>Node1111</title>
<g id="a_node3"><a xlink:href="x4driver_8c.xhtml#a6d30c9bc074d42ab983535463b8a7a28" target="_top" xlink:title="x4driver_set_dac_auto">
<polygon fill="white" stroke="black" points="146,-0.5 146,-19.5 271,-19.5 271,-0.5 146,-0.5"/>
<text text-anchor="middle" x="208.5" y="-7.5" font-family="Helvetica,sans-Serif" font-size="10.00">x4driver_set_dac_auto</text>
</a>
</g>
</g>
<!-- Node1106&#45;&gt;Node1111 -->
<g id="edge2" class="edge"><title>Node1106&#45;&gt;Node1111</title>
<path fill="none" stroke="midnightblue" d="M120.434,-20.9192C128.87,-19.8612 137.498,-18.7792 145.886,-17.7272"/>
<polygon fill="midnightblue" stroke="midnightblue" points="119.754,-17.477 110.267,-22.1942 120.625,-24.4226 119.754,-17.477"/>
</g>
</g>
</svg>
