<?xml version="1.0" encoding="UTF-8" standalone="no"?>
<!DOCTYPE svg PUBLIC "-//W3C//DTD SVG 1.1//EN"
 "http://www.w3.org/Graphics/SVG/1.1/DTD/svg11.dtd">
<!-- Generated by graphviz version 2.38.0 (20140413.2041)
 -->
<!-- Title: x4driver_get_frame_bin_count Pages: 1 -->
<svg width="279pt" height="78pt"
 viewBox="0.00 0.00 279.00 77.50" xmlns="http://www.w3.org/2000/svg" xmlns:xlink="http://www.w3.org/1999/xlink">
<g id="graph0" class="graph" transform="scale(1 1) rotate(0) translate(4 73.5)">
<title>x4driver_get_frame_bin_count</title>
<polygon fill="white" stroke="none" points="-4,4 -4,-73.5 275,-73.5 275,4 -4,4"/>
<!-- Node935 -->
<g id="node1" class="node"><title>Node935</title>
<polygon fill="#bfbfbf" stroke="black" points="0,-17 0,-47 110,-47 110,-17 0,-17"/>
<text text-anchor="start" x="8" y="-35" font-family="Helvetica,sans-Serif" font-size="10.00">x4driver_get_frame</text>
<text text-anchor="middle" x="55" y="-24" font-family="Helvetica,sans-Serif" font-size="10.00">_bin_count</text>
</g>
<!-- Node936 -->
<g id="node2" class="node"><title>Node936</title>
<g id="a_node2"><a xlink:href="task__radar_8c.xhtml#a1f0b2f52d809a8141147add6eaa0279a" target="_top" xlink:title="read_and_send_radar\l_frame">
<polygon fill="white" stroke="red" points="148,-39 148,-69 269,-69 269,-39 148,-39"/>
<text text-anchor="start" x="156" y="-57" font-family="Helvetica,sans-Serif" font-size="10.00">read_and_send_radar</text>
<text text-anchor="middle" x="208.5" y="-46" font-family="Helvetica,sans-Serif" font-size="10.00">_frame</text>
</a>
</g>
</g>
<!-- Node935&#45;&gt;Node936 -->
<g id="edge1" class="edge"><title>Node935&#45;&gt;Node936</title>
<path fill="none" stroke="midnightblue" d="M120.45,-41.3591C129.579,-42.6848 138.932,-44.043 147.963,-45.3544"/>
<polygon fill="midnightblue" stroke="midnightblue" points="120.666,-37.8538 110.267,-39.8804 119.66,-44.7812 120.666,-37.8538"/>
</g>
<!-- Node941 -->
<g id="node3" class="node"><title>Node941</title>
<g id="a_node3"><a xlink:href="x4driver_8c.xhtml#a6d30c9bc074d42ab983535463b8a7a28" target="_top" xlink:title="x4driver_set_dac_auto">
<polygon fill="white" stroke="black" points="146,-0.5 146,-19.5 271,-19.5 271,-0.5 146,-0.5"/>
<text text-anchor="middle" x="208.5" y="-7.5" font-family="Helvetica,sans-Serif" font-size="10.00">x4driver_set_dac_auto</text>
</a>
</g>
</g>
<!-- Node935&#45;&gt;Node941 -->
<g id="edge2" class="edge"><title>Node935&#45;&gt;Node941</title>
<path fill="none" stroke="midnightblue" d="M120.434,-22.6433C128.87,-21.4182 137.498,-20.1653 145.886,-18.9473"/>
<polygon fill="midnightblue" stroke="midnightblue" points="119.66,-19.2188 110.267,-24.1196 120.666,-26.1462 119.66,-19.2188"/>
</g>
</g>
</svg>
