<?xml version="1.0" encoding="UTF-8" standalone="no"?>
<!DOCTYPE svg PUBLIC "-//W3C//DTD SVG 1.1//EN"
 "http://www.w3.org/Graphics/SVG/1.1/DTD/svg11.dtd">
<!-- Generated by graphviz version 2.38.0 (20140413.2041)
 -->
<!-- Title: _update_normalization_constansts Pages: 1 -->
<svg width="296pt" height="204pt"
 viewBox="0.00 0.00 296.00 203.50" xmlns="http://www.w3.org/2000/svg" xmlns:xlink="http://www.w3.org/1999/xlink">
<g id="graph0" class="graph" transform="scale(1 1) rotate(0) translate(4 199.5)">
<title>_update_normalization_constansts</title>
<polygon fill="white" stroke="none" points="-4,4 -4,-199.5 292,-199.5 292,4 -4,4"/>
<!-- Node46 -->
<g id="node1" class="node"><title>Node46</title>
<polygon fill="#bfbfbf" stroke="black" points="0,-77 0,-107 126,-107 126,-77 0,-77"/>
<text text-anchor="start" x="8" y="-95" font-family="Helvetica,sans-Serif" font-size="10.00">_update_normalization</text>
<text text-anchor="middle" x="63" y="-84" font-family="Helvetica,sans-Serif" font-size="10.00">_constansts</text>
</g>
<!-- Node47 -->
<g id="node2" class="node"><title>Node47</title>
<g id="a_node2"><a xlink:href="x4driver_8c.xhtml#a3493035f2d30f78e30586a7a4eccb481" target="_top" xlink:title="Updates normalization variables and calculates new constants. ">
<polygon fill="white" stroke="red" points="162,-165 162,-195 288,-195 288,-165 162,-165"/>
<text text-anchor="start" x="170" y="-183" font-family="Helvetica,sans-Serif" font-size="10.00">_update_normalization</text>
<text text-anchor="middle" x="225" y="-172" font-family="Helvetica,sans-Serif" font-size="10.00">_variables</text>
</a>
</g>
</g>
<!-- Node46&#45;&gt;Node47 -->
<g id="edge1" class="edge"><title>Node46&#45;&gt;Node47</title>
<path fill="none" stroke="midnightblue" d="M93.3482,-112.936C112.378,-125.984 138.007,-142.591 162,-155 168.804,-158.519 176.22,-161.885 183.482,-164.943"/>
<polygon fill="midnightblue" stroke="midnightblue" points="95.3119,-110.039 85.099,-107.219 91.3247,-115.792 95.3119,-110.039"/>
</g>
<!-- Node56 -->
<g id="node3" class="node"><title>Node56</title>
<g id="a_node3"><a xlink:href="x4driver_8c.xhtml#a62754f21c23479836bc83d5e96514602" target="_top" xlink:title="Sets Iterations. ">
<polygon fill="white" stroke="red" points="162.5,-126.5 162.5,-145.5 287.5,-145.5 287.5,-126.5 162.5,-126.5"/>
<text text-anchor="middle" x="225" y="-133.5" font-family="Helvetica,sans-Serif" font-size="10.00">x4driver_set_iterations</text>
</a>
</g>
</g>
<!-- Node46&#45;&gt;Node56 -->
<g id="edge2" class="edge"><title>Node46&#45;&gt;Node56</title>
<path fill="none" stroke="midnightblue" d="M128.352,-109.697C149.128,-115.41 171.368,-121.526 189.17,-126.422"/>
<polygon fill="midnightblue" stroke="midnightblue" points="129.186,-106.296 118.615,-107.019 127.329,-113.046 129.186,-106.296"/>
</g>
<!-- Node58 -->
<g id="node4" class="node"><title>Node58</title>
<g id="a_node4"><a xlink:href="x4driver_8c.xhtml#a7ac1a5f45b02284571e297c672ca61de" target="_top" xlink:title="Sets pulses per step. ">
<polygon fill="white" stroke="red" points="169.5,-77 169.5,-107 280.5,-107 280.5,-77 169.5,-77"/>
<text text-anchor="start" x="177.5" y="-95" font-family="Helvetica,sans-Serif" font-size="10.00">x4driver_set_pulses</text>
<text text-anchor="middle" x="225" y="-84" font-family="Helvetica,sans-Serif" font-size="10.00">_per_step</text>
</a>
</g>
</g>
<!-- Node46&#45;&gt;Node58 -->
<g id="edge3" class="edge"><title>Node46&#45;&gt;Node58</title>
<path fill="none" stroke="midnightblue" d="M136.417,-92C147.501,-92 158.781,-92 169.395,-92"/>
<polygon fill="midnightblue" stroke="midnightblue" points="136.318,-88.5001 126.318,-92 136.318,-95.5001 136.318,-88.5001"/>
</g>
<!-- Node60 -->
<g id="node5" class="node"><title>Node60</title>
<g id="a_node5"><a xlink:href="x4driver_8c.xhtml#a5b607d8c62783dfffb46c688ec90781e" target="_top" xlink:title="x4driver_set_dac_min">
<polygon fill="white" stroke="red" points="164.5,-38.5 164.5,-57.5 285.5,-57.5 285.5,-38.5 164.5,-38.5"/>
<text text-anchor="middle" x="225" y="-45.5" font-family="Helvetica,sans-Serif" font-size="10.00">x4driver_set_dac_min</text>
</a>
</g>
</g>
<!-- Node46&#45;&gt;Node60 -->
<g id="edge4" class="edge"><title>Node46&#45;&gt;Node60</title>
<path fill="none" stroke="midnightblue" d="M128.352,-74.3031C149.128,-68.5899 171.368,-62.4738 189.17,-57.5783"/>
<polygon fill="midnightblue" stroke="midnightblue" points="127.329,-70.9544 118.615,-76.9808 129.186,-77.7038 127.329,-70.9544"/>
</g>
<!-- Node63 -->
<g id="node6" class="node"><title>Node63</title>
<g id="a_node6"><a xlink:href="x4driver_8c.xhtml#aef1600f41584063c096ca246aafdee40" target="_top" xlink:title="x4driver_set_dac_max">
<polygon fill="white" stroke="red" points="163,-0.5 163,-19.5 287,-19.5 287,-0.5 163,-0.5"/>
<text text-anchor="middle" x="225" y="-7.5" font-family="Helvetica,sans-Serif" font-size="10.00">x4driver_set_dac_max</text>
</a>
</g>
</g>
<!-- Node46&#45;&gt;Node63 -->
<g id="edge5" class="edge"><title>Node46&#45;&gt;Node63</title>
<path fill="none" stroke="midnightblue" d="M92.265,-70.8663C111.224,-57.4525 137.178,-40.5147 162,-29 169.864,-25.352 178.606,-22.1796 186.987,-19.5267"/>
<polygon fill="midnightblue" stroke="midnightblue" points="90.1553,-68.0724 84.0757,-76.7493 94.2394,-73.7575 90.1553,-68.0724"/>
</g>
</g>
</svg>
