<?xml version="1.0" encoding="UTF-8" standalone="no"?>
<!DOCTYPE svg PUBLIC "-//W3C//DTD SVG 1.1//EN"
 "http://www.w3.org/Graphics/SVG/1.1/DTD/svg11.dtd">
<!-- Generated by graphviz version 2.38.0 (20140413.2041)
 -->
<!-- Title: include/x4driver.h Pages: 1 -->
<svg width="694pt" height="151pt"
 viewBox="0.00 0.00 694.00 151.00" xmlns="http://www.w3.org/2000/svg" xmlns:xlink="http://www.w3.org/1999/xlink">
<g id="graph0" class="graph" transform="scale(1 1) rotate(0) translate(4 147)">
<title>include/x4driver.h</title>
<polygon fill="white" stroke="none" points="-4,4 -4,-147 690,-147 690,4 -4,4"/>
<!-- Node2 -->
<g id="node1" class="node"><title>Node2</title>
<polygon fill="#bfbfbf" stroke="black" points="243,-123.5 243,-142.5 343,-142.5 343,-123.5 243,-123.5"/>
<text text-anchor="middle" x="293" y="-130.5" font-family="Helvetica,sans-Serif" font-size="10.00">include/x4driver.h</text>
</g>
<!-- Node3 -->
<g id="node2" class="node"><title>Node3</title>
<g id="a_node2"><a xlink:href="xep_8h.xhtml" target="_top" xlink:title="XEP interface. ">
<polygon fill="white" stroke="red" points="0,-62 0,-81 80,-81 80,-62 0,-62"/>
<text text-anchor="middle" x="40" y="-69" font-family="Helvetica,sans-Serif" font-size="10.00">include/xep.h</text>
</a>
</g>
</g>
<!-- Node2&#45;&gt;Node3 -->
<g id="edge1" class="edge"><title>Node2&#45;&gt;Node3</title>
<path fill="none" stroke="midnightblue" d="M240.351,-121.452C199.013,-112.914 140.099,-100.179 89,-87 82.0417,-85.2054 74.5812,-83.0948 67.6328,-81.0478"/>
<polygon fill="midnightblue" stroke="midnightblue" points="239.704,-124.892 250.203,-123.476 241.112,-118.035 239.704,-124.892"/>
</g>
<!-- Node6 -->
<g id="node3" class="node"><title>Node6</title>
<g id="a_node3"><a xlink:href="task__radar_8h.xhtml" target="_top" xlink:title="Radar event task. ">
<polygon fill="white" stroke="red" points="98,-62 98,-81 222,-81 222,-62 98,-62"/>
<text text-anchor="middle" x="160" y="-69" font-family="Helvetica,sans-Serif" font-size="10.00">src/Radar/task_radar.h</text>
</a>
</g>
</g>
<!-- Node2&#45;&gt;Node6 -->
<g id="edge2" class="edge"><title>Node2&#45;&gt;Node6</title>
<path fill="none" stroke="midnightblue" d="M264.673,-119.327C238.853,-107.776 201.424,-91.0316 179.02,-81.0091"/>
<polygon fill="midnightblue" stroke="midnightblue" points="263.387,-122.586 273.944,-123.475 266.245,-116.197 263.387,-122.586"/>
</g>
<!-- Node8 -->
<g id="node4" class="node"><title>Node8</title>
<g id="a_node4"><a xlink:href="task__radar_8c.xhtml" target="_top" xlink:title="src/Radar/task_radar.c">
<polygon fill="white" stroke="black" points="143.5,-0.5 143.5,-19.5 266.5,-19.5 266.5,-0.5 143.5,-0.5"/>
<text text-anchor="middle" x="205" y="-7.5" font-family="Helvetica,sans-Serif" font-size="10.00">src/Radar/task_radar.c</text>
</a>
</g>
</g>
<!-- Node2&#45;&gt;Node8 -->
<g id="edge4" class="edge"><title>Node2&#45;&gt;Node8</title>
<path fill="none" stroke="midnightblue" d="M280.704,-115.093C261.665,-88.914 225.739,-39.5162 211.271,-19.6232"/>
<polygon fill="midnightblue" stroke="midnightblue" points="277.959,-117.269 286.671,-123.298 283.62,-113.152 277.959,-117.269"/>
</g>
<!-- Node9 -->
<g id="node5" class="node"><title>Node9</title>
<g id="a_node5"><a xlink:href="x4driver_8c.xhtml" target="_top" xlink:title="Platform independent driver to interface with Xx radar. ">
<polygon fill="white" stroke="black" points="278.5,-62 278.5,-81 395.5,-81 395.5,-62 278.5,-62"/>
<text text-anchor="middle" x="337" y="-69" font-family="Helvetica,sans-Serif" font-size="10.00">src/XDriver/x4driver.c</text>
</a>
</g>
</g>
<!-- Node2&#45;&gt;Node9 -->
<g id="edge5" class="edge"><title>Node2&#45;&gt;Node9</title>
<path fill="none" stroke="midnightblue" d="M305.322,-115.338C313.581,-104.169 324.112,-89.9278 330.708,-81.0091"/>
<polygon fill="midnightblue" stroke="midnightblue" points="302.436,-113.354 299.304,-123.475 308.064,-117.516 302.436,-113.354"/>
</g>
<!-- Node10 -->
<g id="node6" class="node"><title>Node10</title>
<g id="a_node6"><a xlink:href="x4driver__unittest_8cpp.xhtml" target="_top" xlink:title="src/XDriver/x4driver\l_unittest.cpp">
<polygon fill="white" stroke="black" points="414,-56.5 414,-86.5 524,-86.5 524,-56.5 414,-56.5"/>
<text text-anchor="start" x="422" y="-74.5" font-family="Helvetica,sans-Serif" font-size="10.00">src/XDriver/x4driver</text>
<text text-anchor="middle" x="469" y="-63.5" font-family="Helvetica,sans-Serif" font-size="10.00">_unittest.cpp</text>
</a>
</g>
</g>
<!-- Node2&#45;&gt;Node10 -->
<g id="edge6" class="edge"><title>Node2&#45;&gt;Node10</title>
<path fill="none" stroke="midnightblue" d="M327.815,-120.23C356.473,-110.542 397.176,-96.7815 427.52,-86.523"/>
<polygon fill="midnightblue" stroke="midnightblue" points="326.569,-116.957 318.217,-123.475 328.811,-123.588 326.569,-116.957"/>
</g>
<!-- Node11 -->
<g id="node7" class="node"><title>Node11</title>
<g id="a_node7"><a xlink:href="xep__application_8h.xhtml" target="_top" xlink:title="XEP Module application interface. ">
<polygon fill="white" stroke="red" points="542,-62 542,-81 686,-81 686,-62 542,-62"/>
<text text-anchor="middle" x="614" y="-69" font-family="Helvetica,sans-Serif" font-size="10.00">src/XEPA/xep_application.h</text>
</a>
</g>
</g>
<!-- Node2&#45;&gt;Node11 -->
<g id="edge7" class="edge"><title>Node2&#45;&gt;Node11</title>
<path fill="none" stroke="midnightblue" d="M349.016,-121.617C411.181,-110.094 510.33,-91.716 568.094,-81.0091"/>
<polygon fill="midnightblue" stroke="midnightblue" points="348.186,-118.211 338.991,-123.475 349.462,-125.094 348.186,-118.211"/>
</g>
<!-- Node6&#45;&gt;Node8 -->
<g id="edge3" class="edge"><title>Node6&#45;&gt;Node8</title>
<path fill="none" stroke="midnightblue" d="M172.602,-53.8377C181.048,-42.6694 191.819,-28.4278 198.565,-19.5091"/>
<polygon fill="midnightblue" stroke="midnightblue" points="169.688,-51.888 166.447,-61.9751 175.271,-56.1105 169.688,-51.888"/>
</g>
</g>
</svg>
