<?xml version="1.0" encoding="UTF-8" standalone="no"?>
<!DOCTYPE svg PUBLIC "-//W3C//DTD SVG 1.1//EN"
 "http://www.w3.org/Graphics/SVG/1.1/DTD/svg11.dtd">
<!-- Generated by graphviz version 2.38.0 (20140413.2041)
 -->
<!-- Title: _x4driver_unpack_and_normalize_frame Pages: 1 -->
<svg width="236pt" height="66pt"
 viewBox="0.00 0.00 236.00 66.00" xmlns="http://www.w3.org/2000/svg" xmlns:xlink="http://www.w3.org/1999/xlink">
<g id="graph0" class="graph" transform="scale(1 1) rotate(0) translate(4 62)">
<title>_x4driver_unpack_and_normalize_frame</title>
<polygon fill="white" stroke="none" points="-4,4 -4,-62 232,-62 232,4 -4,4"/>
<!-- Node492 -->
<g id="node1" class="node"><title>Node492</title>
<polygon fill="#bfbfbf" stroke="black" points="0,-14 0,-44 123,-44 123,-14 0,-14"/>
<text text-anchor="start" x="8" y="-32" font-family="Helvetica,sans-Serif" font-size="10.00">_x4driver_unpack_and</text>
<text text-anchor="middle" x="61.5" y="-21" font-family="Helvetica,sans-Serif" font-size="10.00">_normalize_frame</text>
</g>
<!-- Node493 -->
<g id="node2" class="node"><title>Node493</title>
<g id="a_node2"><a xlink:href="x4driver_8c.xhtml#adda0795b6acd980a0519f42451bafe84" target="_top" xlink:title="Gets mask for reading bins from buffer. ">
<polygon fill="white" stroke="black" points="159,-38.5 159,-57.5 228,-57.5 228,-38.5 159,-38.5"/>
<text text-anchor="middle" x="193.5" y="-45.5" font-family="Helvetica,sans-Serif" font-size="10.00">_get_mask</text>
</a>
</g>
</g>
<!-- Node492&#45;&gt;Node493 -->
<g id="edge1" class="edge"><title>Node492&#45;&gt;Node493</title>
<path fill="none" stroke="midnightblue" d="M123.313,-37.8881C131.862,-39.1376 140.509,-40.4013 148.657,-41.5922"/>
<polygon fill="midnightblue" stroke="midnightblue" points="148.266,-45.0722 158.668,-43.0553 149.279,-38.1458 148.266,-45.0722"/>
</g>
<!-- Node494 -->
<g id="node3" class="node"><title>Node494</title>
<g id="a_node3"><a xlink:href="x4driver_8c.xhtml#a980b02b3894a1c8a22a47210bdce97c1" target="_top" xlink:title="gets DAC range based on DAC min, max and dacstep. ">
<polygon fill="white" stroke="red" points="167,-0.5 167,-19.5 220,-19.5 220,-0.5 167,-0.5"/>
<text text-anchor="middle" x="193.5" y="-7.5" font-family="Helvetica,sans-Serif" font-size="10.00">_get_dr</text>
</a>
</g>
</g>
<!-- Node492&#45;&gt;Node494 -->
<g id="edge2" class="edge"><title>Node492&#45;&gt;Node494</title>
<path fill="none" stroke="midnightblue" d="M123.313,-20.1119C134.811,-18.4314 146.485,-16.7253 156.887,-15.205"/>
<polygon fill="midnightblue" stroke="midnightblue" points="157.423,-18.664 166.811,-13.7545 156.41,-11.7376 157.423,-18.664"/>
</g>
</g>
</svg>
