<?xml version="1.0" encoding="UTF-8" standalone="no"?>
<!DOCTYPE svg PUBLIC "-//W3C//DTD SVG 1.1//EN"
 "http://www.w3.org/Graphics/SVG/1.1/DTD/svg11.dtd">
<!-- Generated by graphviz version 2.38.0 (20140413.2041)
 -->
<!-- Title: _get_dr Pages: 1 -->
<svg width="278pt" height="88pt"
 viewBox="0.00 0.00 278.00 88.00" xmlns="http://www.w3.org/2000/svg" xmlns:xlink="http://www.w3.org/1999/xlink">
<g id="graph0" class="graph" transform="scale(1 1) rotate(0) translate(4 84)">
<title>_get_dr</title>
<polygon fill="white" stroke="none" points="-4,4 -4,-84 274,-84 274,4 -4,4"/>
<!-- Node10 -->
<g id="node1" class="node"><title>Node10</title>
<polygon fill="#bfbfbf" stroke="black" points="0,-30 0,-49 53,-49 53,-30 0,-30"/>
<text text-anchor="middle" x="26.5" y="-37" font-family="Helvetica,sans-Serif" font-size="10.00">_get_dr</text>
</g>
<!-- Node11 -->
<g id="node2" class="node"><title>Node11</title>
<g id="a_node2"><a xlink:href="x4driver_8c.xhtml#ad61271bd450a57e7bd4c6883ec8ccca1" target="_top" xlink:title="Unpacks and normalizes down converted frame. ">
<polygon fill="white" stroke="red" points="89,-49.5 89,-79.5 270,-79.5 270,-49.5 89,-49.5"/>
<text text-anchor="start" x="97" y="-67.5" font-family="Helvetica,sans-Serif" font-size="10.00">_x4driver_unpack_and</text>
<text text-anchor="middle" x="179.5" y="-56.5" font-family="Helvetica,sans-Serif" font-size="10.00">_normalize_downconverted_frame</text>
</a>
</g>
</g>
<!-- Node10&#45;&gt;Node11 -->
<g id="edge1" class="edge"><title>Node10&#45;&gt;Node11</title>
<path fill="none" stroke="midnightblue" d="M63.072,-45.3894C71.0471,-46.7098 79.8567,-48.1683 88.9481,-49.6735"/>
<polygon fill="midnightblue" stroke="midnightblue" points="63.5525,-41.9214 53.1151,-43.7409 62.4091,-48.8274 63.5525,-41.9214"/>
</g>
<!-- Node19 -->
<g id="node3" class="node"><title>Node19</title>
<g id="a_node3"><a xlink:href="x4driver_8c.xhtml#a2c00d0525578a4ce31dbd42282e2460d" target="_top" xlink:title="Unpacks and normalizes frame. ">
<polygon fill="white" stroke="red" points="118,-0.5 118,-30.5 241,-30.5 241,-0.5 118,-0.5"/>
<text text-anchor="start" x="126" y="-18.5" font-family="Helvetica,sans-Serif" font-size="10.00">_x4driver_unpack_and</text>
<text text-anchor="middle" x="179.5" y="-7.5" font-family="Helvetica,sans-Serif" font-size="10.00">_normalize_frame</text>
</a>
</g>
</g>
<!-- Node10&#45;&gt;Node19 -->
<g id="edge2" class="edge"><title>Node10&#45;&gt;Node19</title>
<path fill="none" stroke="midnightblue" d="M63.2815,-33.8129C79.5839,-31.2218 99.3404,-28.0817 117.856,-25.1388"/>
<polygon fill="midnightblue" stroke="midnightblue" points="62.4417,-30.4023 53.1151,-35.4287 63.5406,-37.3156 62.4417,-30.4023"/>
</g>
</g>
</svg>
