<?xml version="1.0" encoding="UTF-8" standalone="no"?>
<!DOCTYPE svg PUBLIC "-//W3C//DTD SVG 1.1//EN"
 "http://www.w3.org/Graphics/SVG/1.1/DTD/svg11.dtd">
<!-- Generated by graphviz version 2.38.0 (20140413.2041)
 -->
<!-- Title: x4driver_set_frame_area_offset Pages: 1 -->
<svg width="311pt" height="39pt"
 viewBox="0.00 0.00 311.00 39.00" xmlns="http://www.w3.org/2000/svg" xmlns:xlink="http://www.w3.org/1999/xlink">
<g id="graph0" class="graph" transform="scale(1 1) rotate(0) translate(4 35)">
<title>x4driver_set_frame_area_offset</title>
<polygon fill="white" stroke="none" points="-4,4 -4,-35 307,-35 307,4 -4,4"/>
<!-- Node810 -->
<g id="node1" class="node"><title>Node810</title>
<polygon fill="#bfbfbf" stroke="black" points="0,-0.5 0,-30.5 109,-30.5 109,-0.5 0,-0.5"/>
<text text-anchor="start" x="8" y="-18.5" font-family="Helvetica,sans-Serif" font-size="10.00">x4driver_set_frame</text>
<text text-anchor="middle" x="54.5" y="-7.5" font-family="Helvetica,sans-Serif" font-size="10.00">_area_offset</text>
</g>
<!-- Node811 -->
<g id="node2" class="node"><title>Node811</title>
<g id="a_node2"><a xlink:href="xep__application__mcp__callbacks_8h.xhtml#a89eff3efd6433f476df4c66dea370ad1" target="_top" xlink:title="onMcpX4DriverSetFrameArea\lOffset">
<polygon fill="white" stroke="red" points="145,-0.5 145,-30.5 303,-30.5 303,-0.5 145,-0.5"/>
<text text-anchor="start" x="153" y="-18.5" font-family="Helvetica,sans-Serif" font-size="10.00">onMcpX4DriverSetFrameArea</text>
<text text-anchor="middle" x="224" y="-7.5" font-family="Helvetica,sans-Serif" font-size="10.00">Offset</text>
</a>
</g>
</g>
<!-- Node810&#45;&gt;Node811 -->
<g id="edge1" class="edge"><title>Node810&#45;&gt;Node811</title>
<path fill="none" stroke="midnightblue" d="M119.665,-15.5C127.886,-15.5 136.373,-15.5 144.786,-15.5"/>
<polygon fill="midnightblue" stroke="midnightblue" points="119.42,-12.0001 109.42,-15.5 119.42,-19.0001 119.42,-12.0001"/>
</g>
</g>
</svg>
