<?xml version="1.0" encoding="UTF-8" standalone="no"?>
<!DOCTYPE svg PUBLIC "-//W3C//DTD SVG 1.1//EN"
 "http://www.w3.org/Graphics/SVG/1.1/DTD/svg11.dtd">
<!-- Generated by graphviz version 2.38.0 (20140413.2041)
 -->
<!-- Title: src/XDriver/x4driver.c Pages: 1 -->
<svg width="326pt" height="84pt"
 viewBox="0.00 0.00 326.00 84.00" xmlns="http://www.w3.org/2000/svg" xmlns:xlink="http://www.w3.org/1999/xlink">
<g id="graph0" class="graph" transform="scale(1 1) rotate(0) translate(4 80)">
<title>src/XDriver/x4driver.c</title>
<polygon fill="white" stroke="none" points="-4,4 -4,-80 322,-80 322,4 -4,4"/>
<!-- Node0 -->
<g id="node1" class="node"><title>Node0</title>
<polygon fill="#bfbfbf" stroke="black" points="95,-56.5 95,-75.5 212,-75.5 212,-56.5 95,-56.5"/>
<text text-anchor="middle" x="153.5" y="-63.5" font-family="Helvetica,sans-Serif" font-size="10.00">src/XDriver/x4driver.c</text>
</g>
<!-- Node1 -->
<g id="node2" class="node"><title>Node1</title>
<g id="a_node2"><a xlink:href="x4driver_8h.xhtml" target="_top" xlink:title="Platform independent driver to interface with x4 radar. ">
<polygon fill="white" stroke="red" points="0,-0.5 0,-19.5 63,-19.5 63,-0.5 0,-0.5"/>
<text text-anchor="middle" x="31.5" y="-7.5" font-family="Helvetica,sans-Serif" font-size="10.00">x4driver.h</text>
</a>
</g>
</g>
<!-- Node0&#45;&gt;Node1 -->
<g id="edge1" class="edge"><title>Node0&#45;&gt;Node1</title>
<path fill="none" stroke="midnightblue" d="M134.169,-56.4435C114.18,-47.5961 82.7569,-33.6875 59.9361,-23.5865"/>
<polygon fill="midnightblue" stroke="midnightblue" points="61.3018,-20.3635 50.7408,-19.5164 58.4685,-26.7645 61.3018,-20.3635"/>
</g>
<!-- Node3 -->
<g id="node3" class="node"><title>Node3</title>
<polygon fill="white" stroke="#bfbfbf" points="81,-0.5 81,-19.5 134,-19.5 134,-0.5 81,-0.5"/>
<text text-anchor="middle" x="107.5" y="-7.5" font-family="Helvetica,sans-Serif" font-size="10.00">string.h</text>
</g>
<!-- Node0&#45;&gt;Node3 -->
<g id="edge2" class="edge"><title>Node0&#45;&gt;Node3</title>
<path fill="none" stroke="midnightblue" d="M145.904,-56.083C139.273,-48.2982 129.479,-36.8015 121.442,-27.3665"/>
<polygon fill="midnightblue" stroke="midnightblue" points="124.104,-25.0939 114.955,-19.7511 118.775,-29.6332 124.104,-25.0939"/>
</g>
<!-- Node4 -->
<g id="node4" class="node"><title>Node4</title>
<g id="a_node4"><a xlink:href="8051__firmware_8h.xhtml" target="_top" xlink:title="8051_firmware.h">
<polygon fill="white" stroke="black" points="152.5,-0.5 152.5,-19.5 248.5,-19.5 248.5,-0.5 152.5,-0.5"/>
<text text-anchor="middle" x="200.5" y="-7.5" font-family="Helvetica,sans-Serif" font-size="10.00">8051_firmware.h</text>
</a>
</g>
</g>
<!-- Node0&#45;&gt;Node4 -->
<g id="edge3" class="edge"><title>Node0&#45;&gt;Node4</title>
<path fill="none" stroke="midnightblue" d="M161.261,-56.083C168.037,-48.2982 178.043,-36.8015 186.255,-27.3665"/>
<polygon fill="midnightblue" stroke="midnightblue" points="188.958,-29.592 192.883,-19.7511 183.678,-24.9963 188.958,-29.592"/>
</g>
<!-- Node5 -->
<g id="node5" class="node"><title>Node5</title>
<polygon fill="white" stroke="#bfbfbf" points="267,-0.5 267,-19.5 318,-19.5 318,-0.5 267,-0.5"/>
<text text-anchor="middle" x="292.5" y="-7.5" font-family="Helvetica,sans-Serif" font-size="10.00">math.h</text>
</g>
<!-- Node0&#45;&gt;Node5 -->
<g id="edge4" class="edge"><title>Node0&#45;&gt;Node5</title>
<path fill="none" stroke="midnightblue" d="M175.525,-56.4435C198.604,-47.4776 235.062,-33.314 261.141,-23.1827"/>
<polygon fill="midnightblue" stroke="midnightblue" points="262.524,-26.4002 270.578,-19.5164 259.989,-19.8753 262.524,-26.4002"/>
</g>
</g>
</svg>
