<?xml version="1.0" encoding="UTF-8" standalone="no"?>
<!DOCTYPE svg PUBLIC "-//W3C//DTD SVG 1.1//EN"
 "http://www.w3.org/Graphics/SVG/1.1/DTD/svg11.dtd">
<!-- Generated by graphviz version 2.38.0 (20140413.2041)
 -->
<!-- Title: x4driver_set_pif_register Pages: 1 -->
<svg width="859pt" height="861pt"
 viewBox="0.00 0.00 859.00 861.00" xmlns="http://www.w3.org/2000/svg" xmlns:xlink="http://www.w3.org/1999/xlink">
<g id="graph0" class="graph" transform="scale(1 1) rotate(0) translate(4 857)">
<title>x4driver_set_pif_register</title>
<polygon fill="white" stroke="none" points="-4,4 -4,-857 855,-857 855,4 -4,4"/>
<!-- Node1673 -->
<g id="node1" class="node"><title>Node1673</title>
<polygon fill="#bfbfbf" stroke="black" points="0,-411.5 0,-430.5 134,-430.5 134,-411.5 0,-411.5"/>
<text text-anchor="middle" x="67" y="-418.5" font-family="Helvetica,sans-Serif" font-size="10.00">x4driver_set_pif_register</text>
</g>
<!-- Node1674 -->
<g id="node2" class="node"><title>Node1674</title>
<g id="a_node2"><a xlink:href="x4driver_8c.xhtml#a03652f4897873d46d0534336df7f29fe" target="_top" xlink:title="Will trigger a radar sweep. ">
<polygon fill="white" stroke="red" points="188.5,-833.5 188.5,-852.5 306.5,-852.5 306.5,-833.5 188.5,-833.5"/>
<text text-anchor="middle" x="247.5" y="-840.5" font-family="Helvetica,sans-Serif" font-size="10.00">x4driver_start_sweep</text>
</a>
</g>
</g>
<!-- Node1673&#45;&gt;Node1674 -->
<g id="edge1" class="edge"><title>Node1673&#45;&gt;Node1674</title>
<path fill="none" stroke="midnightblue" d="M70.4966,-440.656C80.0448,-512.906 116.423,-762.499 170,-819 176.034,-825.363 183.731,-830.048 191.907,-833.495"/>
<polygon fill="midnightblue" stroke="midnightblue" points="73.9547,-440.106 69.196,-430.64 67.0129,-441.008 73.9547,-440.106"/>
</g>
<!-- Node1680 -->
<g id="node3" class="node"><title>Node1680</title>
<g id="a_node3"><a xlink:href="x4driver_8c.xhtml#a041e81b6d75f97dbf29f1e9a29353425" target="_top" xlink:title="Will setup x4 in default configuration. ">
<polygon fill="white" stroke="red" points="361,-735.5 361,-754.5 486,-754.5 486,-735.5 361,-735.5"/>
<text text-anchor="middle" x="423.5" y="-742.5" font-family="Helvetica,sans-Serif" font-size="10.00">x4driver_setup_default</text>
</a>
</g>
</g>
<!-- Node1673&#45;&gt;Node1680 -->
<g id="edge2" class="edge"><title>Node1673&#45;&gt;Node1680</title>
<path fill="none" stroke="midnightblue" d="M71.105,-440.91C81.6931,-505.956 118.596,-710.187 170,-748 238.157,-798.136 347.061,-770.971 396.534,-754.565"/>
<polygon fill="midnightblue" stroke="midnightblue" points="74.5182,-440.089 69.485,-430.766 67.6058,-441.193 74.5182,-440.089"/>
</g>
<!-- Node1685 -->
<g id="node4" class="node"><title>Node1685</title>
<g id="a_node4"><a xlink:href="x4driver_8c.xhtml#a59bb6ec7d08888223c01bffa2aedcf50" target="_top" xlink:title="Set frame area start and end in meters. ">
<polygon fill="white" stroke="red" points="522,-272.5 522,-291.5 658,-291.5 658,-272.5 522,-272.5"/>
<text text-anchor="middle" x="590" y="-279.5" font-family="Helvetica,sans-Serif" font-size="10.00">x4driver_set_frame_area</text>
</a>
</g>
</g>
<!-- Node1673&#45;&gt;Node1685 -->
<g id="edge3" class="edge"><title>Node1673&#45;&gt;Node1685</title>
<path fill="none" stroke="midnightblue" d="M74.8866,-401.731C87.7928,-368.796 119.012,-302.388 170,-273 299.702,-198.243 491.572,-249.466 561.898,-272.455"/>
<polygon fill="midnightblue" stroke="midnightblue" points="71.5851,-400.567 71.338,-411.159 78.1364,-403.033 71.5851,-400.567"/>
</g>
<!-- Node1688 -->
<g id="node5" class="node"><title>Node1688</title>
<g id="a_node5"><a xlink:href="x4driver_8c.xhtml#aca2f2487a46b5debe6656dd21a816e97" target="_top" xlink:title="x4driver_set_downconversion">
<polygon fill="white" stroke="red" points="694,-430.5 694,-449.5 851,-449.5 851,-430.5 694,-430.5"/>
<text text-anchor="middle" x="772.5" y="-437.5" font-family="Helvetica,sans-Serif" font-size="10.00">x4driver_set_downconversion</text>
</a>
</g>
</g>
<!-- Node1673&#45;&gt;Node1688 -->
<g id="edge27" class="edge"><title>Node1673&#45;&gt;Node1688</title>
<path fill="none" stroke="midnightblue" d="M70.5784,-440.786C79.9444,-509.261 114.557,-734.244 170,-776 226.134,-818.276 423.077,-795.288 486,-764 637.045,-688.894 743.123,-495.528 766.599,-449.798"/>
<polygon fill="midnightblue" stroke="midnightblue" points="74.0028,-439.987 69.2073,-430.54 67.0646,-440.916 74.0028,-439.987"/>
</g>
<!-- Node1691 -->
<g id="node6" class="node"><title>Node1691</title>
<g id="a_node6"><a xlink:href="x4driver_8c.xhtml#ab008a9d8a7ab0744ceb00fb2116ad850" target="_top" xlink:title="Reads raw bytes from x4. ">
<polygon fill="white" stroke="red" points="189.5,-659 189.5,-689 305.5,-689 305.5,-659 189.5,-659"/>
<text text-anchor="start" x="197.5" y="-677" font-family="Helvetica,sans-Serif" font-size="10.00">x4driver_read_frame</text>
<text text-anchor="middle" x="247.5" y="-666" font-family="Helvetica,sans-Serif" font-size="10.00">_bytes</text>
</a>
</g>
</g>
<!-- Node1673&#45;&gt;Node1691 -->
<g id="edge5" class="edge"><title>Node1673&#45;&gt;Node1691</title>
<path fill="none" stroke="midnightblue" d="M71.3016,-440.875C79.6438,-484.853 105.668,-591.08 170,-649 175.607,-654.048 182.253,-658.079 189.249,-661.298"/>
<polygon fill="midnightblue" stroke="midnightblue" points="74.7195,-440.105 69.5115,-430.879 67.8291,-441.339 74.7195,-440.105"/>
</g>
<!-- Node1694 -->
<g id="node7" class="node"><title>Node1694</title>
<g id="a_node7"><a xlink:href="x4driver_8c.xhtml#aad4194e43df4304e629fc595d582d408" target="_top" xlink:title="Setup external osc on X4. ">
<polygon fill="white" stroke="red" points="195.5,-620.5 195.5,-639.5 299.5,-639.5 299.5,-620.5 195.5,-620.5"/>
<text text-anchor="middle" x="247.5" y="-627.5" font-family="Helvetica,sans-Serif" font-size="10.00">x4driver_init_clock</text>
</a>
</g>
</g>
<!-- Node1673&#45;&gt;Node1694 -->
<g id="edge6" class="edge"><title>Node1673&#45;&gt;Node1694</title>
<path fill="none" stroke="midnightblue" d="M72.8331,-440.726C83.4168,-479.608 112.428,-566.246 170,-611 177.347,-616.711 186.188,-620.729 195.212,-623.55"/>
<polygon fill="midnightblue" stroke="midnightblue" points="76.129,-439.493 70.2277,-430.694 69.3538,-441.252 76.129,-439.493"/>
</g>
<!-- Node1695 -->
<g id="node8" class="node"><title>Node1695</title>
<g id="a_node8"><a xlink:href="x4driver_8c.xhtml#abde766e0d1366c610923ac6df6aff591" target="_top" xlink:title="Enable dvdd ldo on X4 NOTE: Implements workaround to kick start LDO. ">
<polygon fill="white" stroke="red" points="177.5,-582.5 177.5,-601.5 317.5,-601.5 317.5,-582.5 177.5,-582.5"/>
<text text-anchor="middle" x="247.5" y="-589.5" font-family="Helvetica,sans-Serif" font-size="10.00">_x4driver_enable_dvdd_tx</text>
</a>
</g>
</g>
<!-- Node1673&#45;&gt;Node1695 -->
<g id="edge7" class="edge"><title>Node1673&#45;&gt;Node1695</title>
<path fill="none" stroke="midnightblue" d="M75.4622,-440.333C89.0815,-472.96 121.143,-538.736 170,-573 175.49,-576.85 181.681,-579.923 188.104,-582.374"/>
<polygon fill="midnightblue" stroke="midnightblue" points="78.5372,-438.599 71.5529,-430.633 72.0446,-441.216 78.5372,-438.599"/>
</g>
<!-- Node1698 -->
<g id="node9" class="node"><title>Node1698</title>
<g id="a_node9"><a xlink:href="x4driver_8c.xhtml#a2ed5d880184cddb6899a3ee5789ae282" target="_top" xlink:title="Enable dvdd ldo on X4 NOTE: Implements workaround to kick start LDO. ">
<polygon fill="white" stroke="red" points="177.5,-544.5 177.5,-563.5 317.5,-563.5 317.5,-544.5 177.5,-544.5"/>
<text text-anchor="middle" x="247.5" y="-551.5" font-family="Helvetica,sans-Serif" font-size="10.00">_x4driver_enable_dvdd_rx</text>
</a>
</g>
</g>
<!-- Node1673&#45;&gt;Node1698 -->
<g id="edge8" class="edge"><title>Node1673&#45;&gt;Node1698</title>
<path fill="none" stroke="midnightblue" d="M79.2951,-439.408C95.925,-464.904 129.455,-510.576 170,-535 176.447,-538.884 183.655,-541.976 191,-544.437"/>
<polygon fill="midnightblue" stroke="midnightblue" points="82.0863,-437.275 73.7696,-430.711 76.1779,-441.028 82.0863,-437.275"/>
</g>
<!-- Node1699 -->
<g id="node10" class="node"><title>Node1699</title>
<g id="a_node10"><a xlink:href="x4driver_8c.xhtml#ac1bde9631df9f305637fd490f6d6034e" target="_top" xlink:title="Enable avdd ldo on X4 NOTE: Implements workaround to kick start LDO. ">
<polygon fill="white" stroke="red" points="177.5,-506.5 177.5,-525.5 317.5,-525.5 317.5,-506.5 177.5,-506.5"/>
<text text-anchor="middle" x="247.5" y="-513.5" font-family="Helvetica,sans-Serif" font-size="10.00">_x4driver_enable_avdd_tx</text>
</a>
</g>
</g>
<!-- Node1673&#45;&gt;Node1699 -->
<g id="edge9" class="edge"><title>Node1673&#45;&gt;Node1699</title>
<path fill="none" stroke="midnightblue" d="M85.4995,-437.509C104.758,-454.8 137.337,-481.547 170,-497 178.041,-500.804 186.93,-503.901 195.719,-506.405"/>
<polygon fill="midnightblue" stroke="midnightblue" points="87.8403,-434.907 78.1,-430.738 83.1148,-440.071 87.8403,-434.907"/>
</g>
<!-- Node1700 -->
<g id="node11" class="node"><title>Node1700</title>
<g id="a_node11"><a xlink:href="x4driver_8c.xhtml#a6cf76ee14b0f9d6d942771a01b4bc6ab" target="_top" xlink:title="Enable avdd ldo on X4 NOTE: Implements workaround to kick start LDO. ">
<polygon fill="white" stroke="red" points="177.5,-468.5 177.5,-487.5 317.5,-487.5 317.5,-468.5 177.5,-468.5"/>
<text text-anchor="middle" x="247.5" y="-475.5" font-family="Helvetica,sans-Serif" font-size="10.00">_x4driver_enable_avdd_rx</text>
</a>
</g>
</g>
<!-- Node1673&#45;&gt;Node1700 -->
<g id="edge10" class="edge"><title>Node1673&#45;&gt;Node1700</title>
<path fill="none" stroke="midnightblue" d="M100.734,-434.273C120.582,-442.049 146.525,-451.738 170,-459 181.112,-462.438 193.279,-465.687 204.575,-468.495"/>
<polygon fill="midnightblue" stroke="midnightblue" points="101.824,-430.94 91.238,-430.516 99.2492,-437.449 101.824,-430.94"/>
</g>
<!-- Node1701 -->
<g id="node12" class="node"><title>Node1701</title>
<g id="a_node12"><a xlink:href="x4driver_8c.xhtml#a5db8c4a69efec11c5d537c13e4a94f6f" target="_top" xlink:title="Set frame length in cycles. ">
<polygon fill="white" stroke="black" points="193,-708 193,-738 302,-738 302,-708 193,-708"/>
<text text-anchor="start" x="201" y="-726" font-family="Helvetica,sans-Serif" font-size="10.00">x4driver_set_frame</text>
<text text-anchor="middle" x="247.5" y="-715" font-family="Helvetica,sans-Serif" font-size="10.00">_length</text>
</a>
</g>
</g>
<!-- Node1673&#45;&gt;Node1701 -->
<g id="edge11" class="edge"><title>Node1673&#45;&gt;Node1701</title>
<path fill="none" stroke="midnightblue" d="M69.4157,-440.68C74.1073,-491.108 93.5398,-626.099 170,-699 176.448,-705.147 184.453,-709.721 192.833,-713.124"/>
<polygon fill="midnightblue" stroke="midnightblue" points="72.8862,-440.179 68.5677,-430.505 65.9104,-440.761 72.8862,-440.179"/>
</g>
<!-- Node1702 -->
<g id="node13" class="node"><title>Node1702</title>
<g id="a_node13"><a xlink:href="x4driver_8c.xhtml#a62754f21c23479836bc83d5e96514602" target="_top" xlink:title="Sets Iterations. ">
<polygon fill="white" stroke="red" points="185,-392.5 185,-411.5 310,-411.5 310,-392.5 185,-392.5"/>
<text text-anchor="middle" x="247.5" y="-399.5" font-family="Helvetica,sans-Serif" font-size="10.00">x4driver_set_iterations</text>
</a>
</g>
</g>
<!-- Node1673&#45;&gt;Node1702 -->
<g id="edge13" class="edge"><title>Node1673&#45;&gt;Node1702</title>
<path fill="none" stroke="midnightblue" d="M144.43,-412.865C157.919,-411.429 171.808,-409.95 184.828,-408.565"/>
<polygon fill="midnightblue" stroke="midnightblue" points="143.786,-409.413 134.213,-413.952 144.527,-416.374 143.786,-409.413"/>
</g>
<!-- Node1704 -->
<g id="node14" class="node"><title>Node1704</title>
<g id="a_node14"><a xlink:href="x4driver_8c.xhtml#a7ac1a5f45b02284571e297c672ca61de" target="_top" xlink:title="Sets pulses per step. ">
<polygon fill="white" stroke="red" points="192,-343 192,-373 303,-373 303,-343 192,-343"/>
<text text-anchor="start" x="200" y="-361" font-family="Helvetica,sans-Serif" font-size="10.00">x4driver_set_pulses</text>
<text text-anchor="middle" x="247.5" y="-350" font-family="Helvetica,sans-Serif" font-size="10.00">_per_step</text>
</a>
</g>
</g>
<!-- Node1673&#45;&gt;Node1704 -->
<g id="edge14" class="edge"><title>Node1673&#45;&gt;Node1704</title>
<path fill="none" stroke="midnightblue" d="M102.522,-407.74C122.22,-400.274 147.414,-390.894 170,-383 179.497,-379.681 189.703,-376.251 199.468,-373.036"/>
<polygon fill="midnightblue" stroke="midnightblue" points="101.15,-404.517 93.0472,-411.344 103.638,-411.06 101.15,-404.517"/>
</g>
<!-- Node1706 -->
<g id="node15" class="node"><title>Node1706</title>
<g id="a_node15"><a xlink:href="x4driver_8c.xhtml#a14e3623f55953194c1660b4fcc5814cf" target="_top" xlink:title="Sets a register segment. ">
<polygon fill="white" stroke="red" points="177.5,-430.5 177.5,-449.5 317.5,-449.5 317.5,-430.5 177.5,-430.5"/>
<text text-anchor="middle" x="247.5" y="-437.5" font-family="Helvetica,sans-Serif" font-size="10.00">x4driver_set_pif_segment</text>
</a>
</g>
</g>
<!-- Node1673&#45;&gt;Node1706 -->
<g id="edge15" class="edge"><title>Node1673&#45;&gt;Node1706</title>
<path fill="none" stroke="midnightblue" d="M144.235,-429.115C155.252,-430.287 166.54,-431.489 177.406,-432.646"/>
<polygon fill="midnightblue" stroke="midnightblue" points="144.527,-425.626 134.213,-428.048 143.786,-432.587 144.527,-425.626"/>
</g>
<!-- Node1709 -->
<g id="node16" class="node"><title>Node1709</title>
<g id="a_node16"><a xlink:href="x4driver_8c.xhtml#afdda0b27e8cfa0aa286f1cca02524b1a" target="_top" xlink:title="_x4driver_set_rx_ram\l_first_line">
<polygon fill="white" stroke="black" points="364,-316 364,-346 483,-346 483,-316 364,-316"/>
<text text-anchor="start" x="372" y="-334" font-family="Helvetica,sans-Serif" font-size="10.00">_x4driver_set_rx_ram</text>
<text text-anchor="middle" x="423.5" y="-323" font-family="Helvetica,sans-Serif" font-size="10.00">_first_line</text>
</a>
</g>
</g>
<!-- Node1673&#45;&gt;Node1709 -->
<g id="edge25" class="edge"><title>Node1673&#45;&gt;Node1709</title>
<path fill="none" stroke="midnightblue" d="M81.8231,-403.364C99.5958,-382.259 132.654,-348.016 170,-334 233.003,-310.354 311.233,-313.986 363.779,-320.686"/>
<polygon fill="midnightblue" stroke="midnightblue" points="78.9947,-401.294 75.3763,-411.251 84.4147,-405.723 78.9947,-401.294"/>
</g>
<!-- Node1710 -->
<g id="node17" class="node"><title>Node1710</title>
<g id="a_node17"><a xlink:href="x4driver_8c.xhtml#ac12013d8875e5974fd3b4703aeeee12f" target="_top" xlink:title="_x4driver_set_rx_ram\l_last_line">
<polygon fill="white" stroke="black" points="364,-267 364,-297 483,-297 483,-267 364,-267"/>
<text text-anchor="start" x="372" y="-285" font-family="Helvetica,sans-Serif" font-size="10.00">_x4driver_set_rx_ram</text>
<text text-anchor="middle" x="423.5" y="-274" font-family="Helvetica,sans-Serif" font-size="10.00">_last_line</text>
</a>
</g>
</g>
<!-- Node1673&#45;&gt;Node1710 -->
<g id="edge26" class="edge"><title>Node1673&#45;&gt;Node1710</title>
<path fill="none" stroke="midnightblue" d="M79.0552,-402.519C95.3987,-377.059 128.588,-331.97 170,-311 230.918,-280.153 310.454,-276.002 363.838,-277.545"/>
<polygon fill="midnightblue" stroke="midnightblue" points="75.9493,-400.885 73.6343,-411.224 81.8914,-404.586 75.9493,-400.885"/>
</g>
<!-- Node1715 -->
<g id="node18" class="node"><title>Node1715</title>
<g id="a_node18"><a xlink:href="x4driver_8c.xhtml#a5b607d8c62783dfffb46c688ec90781e" target="_top" xlink:title="x4driver_set_dac_min">
<polygon fill="white" stroke="red" points="187,-190.5 187,-209.5 308,-209.5 308,-190.5 187,-190.5"/>
<text text-anchor="middle" x="247.5" y="-197.5" font-family="Helvetica,sans-Serif" font-size="10.00">x4driver_set_dac_min</text>
</a>
</g>
</g>
<!-- Node1673&#45;&gt;Node1715 -->
<g id="edge21" class="edge"><title>Node1673&#45;&gt;Node1715</title>
<path fill="none" stroke="midnightblue" d="M72.719,-401.372C83.2281,-361.876 112.307,-272.448 170,-224 177.568,-217.644 186.823,-212.968 196.246,-209.529"/>
<polygon fill="midnightblue" stroke="midnightblue" points="69.3147,-400.558 70.2389,-411.112 76.0982,-402.285 69.3147,-400.558"/>
</g>
<!-- Node1717 -->
<g id="node19" class="node"><title>Node1717</title>
<g id="a_node19"><a xlink:href="x4driver_8c.xhtml#aef1600f41584063c096ca246aafdee40" target="_top" xlink:title="x4driver_set_dac_max">
<polygon fill="white" stroke="red" points="185.5,-152.5 185.5,-171.5 309.5,-171.5 309.5,-152.5 185.5,-152.5"/>
<text text-anchor="middle" x="247.5" y="-159.5" font-family="Helvetica,sans-Serif" font-size="10.00">x4driver_set_dac_max</text>
</a>
</g>
</g>
<!-- Node1673&#45;&gt;Node1717 -->
<g id="edge22" class="edge"><title>Node1673&#45;&gt;Node1717</title>
<path fill="none" stroke="midnightblue" d="M70.4237,-401.316C77.1634,-355.341 100.456,-240.315 170,-181 174.581,-177.093 179.848,-173.967 185.428,-171.47"/>
<polygon fill="midnightblue" stroke="midnightblue" points="66.9263,-401.061 69.0487,-411.441 73.8626,-402.003 66.9263,-401.061"/>
</g>
<!-- Node1719 -->
<g id="node20" class="node"><title>Node1719</title>
<g id="a_node20"><a xlink:href="x4driver_8c.xhtml#ac9237ca48bd407ee0efdd38db91a9b4e" target="_top" xlink:title="x4driver_set_rx_wait">
<polygon fill="white" stroke="black" points="367,-152.5 367,-171.5 480,-171.5 480,-152.5 367,-152.5"/>
<text text-anchor="middle" x="423.5" y="-159.5" font-family="Helvetica,sans-Serif" font-size="10.00">x4driver_set_rx_wait</text>
</a>
</g>
</g>
<!-- Node1673&#45;&gt;Node1719 -->
<g id="edge23" class="edge"><title>Node1673&#45;&gt;Node1719</title>
<path fill="none" stroke="midnightblue" d="M68.1832,-401.263C69.8729,-348.491 82.6257,-204.012 170,-143 242.086,-92.6636 355.652,-132.575 401.887,-152.444"/>
<polygon fill="midnightblue" stroke="midnightblue" points="64.6827,-401.255 67.9649,-411.329 71.681,-401.407 64.6827,-401.255"/>
</g>
<!-- Node1720 -->
<g id="node21" class="node"><title>Node1720</title>
<g id="a_node21"><a xlink:href="x4driver_8c.xhtml#ab5eb8602c52123f84b4dfee408ef2cc7" target="_top" xlink:title="x4driver_set_prf_div">
<polygon fill="white" stroke="red" points="191.5,-76.5 191.5,-95.5 303.5,-95.5 303.5,-76.5 191.5,-76.5"/>
<text text-anchor="middle" x="247.5" y="-83.5" font-family="Helvetica,sans-Serif" font-size="10.00">x4driver_set_prf_div</text>
</a>
</g>
</g>
<!-- Node1673&#45;&gt;Node1720 -->
<g id="edge28" class="edge"><title>Node1673&#45;&gt;Node1720</title>
<path fill="none" stroke="midnightblue" d="M68.5348,-401.207C71.0949,-346.728 85.8105,-193.109 170,-110 176.439,-103.644 184.54,-98.9681 193.044,-95.5293"/>
<polygon fill="midnightblue" stroke="midnightblue" points="65.0349,-401.141 68.1524,-411.267 72.0298,-401.407 65.0349,-401.141"/>
</g>
<!-- Node1722 -->
<g id="node22" class="node"><title>Node1722</title>
<g id="a_node22"><a xlink:href="x4driver__unittest_8cpp.xhtml#a10059f1dd033fae04d9ab3832f498c04" target="_top" xlink:title="TEST_F">
<polygon fill="white" stroke="black" points="222.5,-38.5 222.5,-57.5 272.5,-57.5 272.5,-38.5 222.5,-38.5"/>
<text text-anchor="middle" x="247.5" y="-45.5" font-family="Helvetica,sans-Serif" font-size="10.00">TEST_F</text>
</a>
</g>
</g>
<!-- Node1673&#45;&gt;Node1722 -->
<g id="edge29" class="edge"><title>Node1673&#45;&gt;Node1722</title>
<path fill="none" stroke="midnightblue" d="M67.3435,-401.058C66.5192,-341.098 72.6334,-160.82 170,-67 183.895,-53.6114 205.691,-49.2074 222.469,-47.9524"/>
<polygon fill="midnightblue" stroke="midnightblue" points="63.8517,-401.466 67.5759,-411.384 70.8499,-401.308 63.8517,-401.466"/>
</g>
<!-- Node1723 -->
<g id="node23" class="node"><title>Node1723</title>
<g id="a_node23"><a xlink:href="xep__application__mcp__callbacks_8h.xhtml#a4b8b3538059764feac39d03c54e37e81" target="_top" xlink:title="onMcpX4DriverSetPifRegister">
<polygon fill="white" stroke="red" points="170,-0.5 170,-19.5 325,-19.5 325,-0.5 170,-0.5"/>
<text text-anchor="middle" x="247.5" y="-7.5" font-family="Helvetica,sans-Serif" font-size="10.00">onMcpX4DriverSetPifRegister</text>
</a>
</g>
</g>
<!-- Node1673&#45;&gt;Node1723 -->
<g id="edge30" class="edge"><title>Node1673&#45;&gt;Node1723</title>
<path fill="none" stroke="midnightblue" d="M70.4314,-401.531C79.7492,-329.988 115.419,-82.9772 170,-29 173.892,-25.1509 178.436,-22.0409 183.332,-19.5328"/>
<polygon fill="midnightblue" stroke="midnightblue" points="66.9597,-401.088 69.1633,-411.451 73.9032,-401.975 66.9597,-401.088"/>
</g>
<!-- Node1685&#45;&gt;Node1688 -->
<g id="edge4" class="edge"><title>Node1685&#45;&gt;Node1688</title>
<path fill="none" stroke="midnightblue" d="M609.708,-298.376C647.258,-331.246 730.768,-404.345 760.625,-430.48"/>
<polygon fill="midnightblue" stroke="midnightblue" points="611.849,-295.599 602.019,-291.646 607.239,-300.866 611.849,-295.599"/>
</g>
<!-- Node1701&#45;&gt;Node1680 -->
<g id="edge12" class="edge"><title>Node1701&#45;&gt;Node1680</title>
<path fill="none" stroke="midnightblue" d="M312.345,-731.072C328.175,-733.074 345.107,-735.215 360.831,-737.203"/>
<polygon fill="midnightblue" stroke="midnightblue" points="312.486,-727.562 302.126,-729.78 311.607,-734.507 312.486,-727.562"/>
</g>
<!-- Node1706&#45;&gt;Node1688 -->
<g id="edge20" class="edge"><title>Node1706&#45;&gt;Node1688</title>
<path fill="none" stroke="midnightblue" d="M327.93,-440C426.982,-440 595.224,-440 693.57,-440"/>
<polygon fill="midnightblue" stroke="midnightblue" points="327.68,-436.5 317.68,-440 327.68,-443.5 327.68,-436.5"/>
</g>
<!-- Node1706&#45;&gt;Node1709 -->
<g id="edge16" class="edge"><title>Node1706&#45;&gt;Node1709</title>
<path fill="none" stroke="midnightblue" d="M311.428,-427.144C316.13,-425.351 320.709,-423.313 325,-421 360.688,-401.761 393.389,-366.436 410.342,-346.238"/>
<polygon fill="midnightblue" stroke="midnightblue" points="309.979,-423.941 301.653,-430.494 312.248,-430.563 309.979,-423.941"/>
</g>
<!-- Node1706&#45;&gt;Node1710 -->
<g id="edge18" class="edge"><title>Node1706&#45;&gt;Node1710</title>
<path fill="none" stroke="midnightblue" d="M319.714,-425.323C321.57,-423.999 323.339,-422.561 325,-421 363.725,-384.62 324.966,-346.047 361,-307 364.596,-303.104 368.885,-299.801 373.502,-297.003"/>
<polygon fill="midnightblue" stroke="midnightblue" points="317.907,-422.326 311.089,-430.435 321.476,-428.348 317.907,-422.326"/>
</g>
<!-- Node1709&#45;&gt;Node1685 -->
<g id="edge17" class="edge"><title>Node1709&#45;&gt;Node1685</title>
<path fill="none" stroke="midnightblue" d="M485.073,-312.957C509.399,-305.711 536.45,-297.653 556.854,-291.575"/>
<polygon fill="midnightblue" stroke="midnightblue" points="483.782,-309.689 475.198,-315.899 485.781,-316.398 483.782,-309.689"/>
</g>
<!-- Node1710&#45;&gt;Node1685 -->
<g id="edge19" class="edge"><title>Node1710&#45;&gt;Node1685</title>
<path fill="none" stroke="midnightblue" d="M493.482,-282C502.859,-282 512.472,-282 521.816,-282"/>
<polygon fill="midnightblue" stroke="midnightblue" points="493.424,-278.5 483.424,-282 493.424,-285.5 493.424,-278.5"/>
</g>
<!-- Node1719&#45;&gt;Node1685 -->
<g id="edge24" class="edge"><title>Node1719&#45;&gt;Node1685</title>
<path fill="none" stroke="midnightblue" d="M446.134,-177.782C480.714,-203.007 547.422,-251.67 575.754,-272.337"/>
<polygon fill="midnightblue" stroke="midnightblue" points="447.825,-174.683 437.684,-171.617 443.7,-180.338 447.825,-174.683"/>
</g>
</g>
</svg>
