<?xml version="1.0" encoding="UTF-8" standalone="no"?>
<!DOCTYPE svg PUBLIC "-//W3C//DTD SVG 1.1//EN"
 "http://www.w3.org/Graphics/SVG/1.1/DTD/svg11.dtd">
<!-- Generated by graphviz version 2.38.0 (20140413.2041)
 -->
<!-- Title: x4driver_set_xif_register Pages: 1 -->
<svg width="332pt" height="66pt"
 viewBox="0.00 0.00 332.00 66.00" xmlns="http://www.w3.org/2000/svg" xmlns:xlink="http://www.w3.org/1999/xlink">
<g id="graph0" class="graph" transform="scale(1 1) rotate(0) translate(4 62)">
<title>x4driver_set_xif_register</title>
<polygon fill="white" stroke="none" points="-4,4 -4,-62 328,-62 328,4 -4,4"/>
<!-- Node1151 -->
<g id="node1" class="node"><title>Node1151</title>
<polygon fill="#bfbfbf" stroke="black" points="0,-19.5 0,-38.5 133,-38.5 133,-19.5 0,-19.5"/>
<text text-anchor="middle" x="66.5" y="-26.5" font-family="Helvetica,sans-Serif" font-size="10.00">x4driver_set_xif_register</text>
</g>
<!-- Node1152 -->
<g id="node2" class="node"><title>Node1152</title>
<g id="a_node2"><a xlink:href="x4driver_8c.xhtml#a041e81b6d75f97dbf29f1e9a29353425" target="_top" xlink:title="Will setup x4 in default configuration. ">
<polygon fill="white" stroke="red" points="184,-38.5 184,-57.5 309,-57.5 309,-38.5 184,-38.5"/>
<text text-anchor="middle" x="246.5" y="-45.5" font-family="Helvetica,sans-Serif" font-size="10.00">x4driver_setup_default</text>
</a>
</g>
</g>
<!-- Node1151&#45;&gt;Node1152 -->
<g id="edge1" class="edge"><title>Node1151&#45;&gt;Node1152</title>
<path fill="none" stroke="midnightblue" d="M143.295,-37.0905C156.864,-38.5388 170.851,-40.0319 183.958,-41.4309"/>
<polygon fill="midnightblue" stroke="midnightblue" points="143.337,-33.5752 133.022,-35.994 142.594,-40.5357 143.337,-33.5752"/>
</g>
<!-- Node1161 -->
<g id="node3" class="node"><title>Node1161</title>
<g id="a_node3"><a xlink:href="xep__application__mcp__callbacks_8h.xhtml#ab7cec7458dba6ab3ced50a3ecdc9377d" target="_top" xlink:title="onMcpX4DriverSetXifRegister">
<polygon fill="white" stroke="red" points="169,-0.5 169,-19.5 324,-19.5 324,-0.5 169,-0.5"/>
<text text-anchor="middle" x="246.5" y="-7.5" font-family="Helvetica,sans-Serif" font-size="10.00">onMcpX4DriverSetXifRegister</text>
</a>
</g>
</g>
<!-- Node1151&#45;&gt;Node1161 -->
<g id="edge2" class="edge"><title>Node1151&#45;&gt;Node1161</title>
<path fill="none" stroke="midnightblue" d="M143.01,-20.9399C151.603,-20.0228 160.367,-19.0873 168.972,-18.1687"/>
<polygon fill="midnightblue" stroke="midnightblue" points="142.594,-17.4643 133.022,-22.006 143.337,-24.4248 142.594,-17.4643"/>
</g>
</g>
</svg>
