<?xml version="1.0" encoding="UTF-8" standalone="no"?>
<!DOCTYPE svg PUBLIC "-//W3C//DTD SVG 1.1//EN"
 "http://www.w3.org/Graphics/SVG/1.1/DTD/svg11.dtd">
<!-- Generated by graphviz version 2.38.0 (20140413.2041)
 -->
<!-- Title: x4driver_set_tx_center_frequency Pages: 1 -->
<svg width="317pt" height="39pt"
 viewBox="0.00 0.00 317.00 39.00" xmlns="http://www.w3.org/2000/svg" xmlns:xlink="http://www.w3.org/1999/xlink">
<g id="graph0" class="graph" transform="scale(1 1) rotate(0) translate(4 35)">
<title>x4driver_set_tx_center_frequency</title>
<polygon fill="white" stroke="none" points="-4,4 -4,-35 313,-35 313,4 -4,4"/>
<!-- Node1930 -->
<g id="node1" class="node"><title>Node1930</title>
<polygon fill="#bfbfbf" stroke="black" points="0,-0.5 0,-30.5 125,-30.5 125,-0.5 0,-0.5"/>
<text text-anchor="start" x="8" y="-18.5" font-family="Helvetica,sans-Serif" font-size="10.00">x4driver_set_tx_center</text>
<text text-anchor="middle" x="62.5" y="-7.5" font-family="Helvetica,sans-Serif" font-size="10.00">_frequency</text>
</g>
<!-- Node1931 -->
<g id="node2" class="node"><title>Node1931</title>
<g id="a_node2"><a xlink:href="xep__application__mcp__callbacks_8h.xhtml#a74bcd9d4245e20e4dceecd414bc3bf2d" target="_top" xlink:title="onMcpX4DriverSetTxCenter\lFrequency">
<polygon fill="white" stroke="red" points="161,-0.5 161,-30.5 309,-30.5 309,-0.5 161,-0.5"/>
<text text-anchor="start" x="169" y="-18.5" font-family="Helvetica,sans-Serif" font-size="10.00">onMcpX4DriverSetTxCenter</text>
<text text-anchor="middle" x="235" y="-7.5" font-family="Helvetica,sans-Serif" font-size="10.00">Frequency</text>
</a>
</g>
</g>
<!-- Node1930&#45;&gt;Node1931 -->
<g id="edge1" class="edge"><title>Node1930&#45;&gt;Node1931</title>
<path fill="none" stroke="midnightblue" d="M135.283,-15.5C143.762,-15.5 152.423,-15.5 160.92,-15.5"/>
<polygon fill="midnightblue" stroke="midnightblue" points="135.054,-12.0001 125.054,-15.5 135.054,-19.0001 135.054,-12.0001"/>
</g>
</g>
</svg>
