<?xml version="1.0" encoding="UTF-8" standalone="no"?>
<!DOCTYPE svg PUBLIC "-//W3C//DTD SVG 1.1//EN"
 "http://www.w3.org/Graphics/SVG/1.1/DTD/svg11.dtd">
<!-- Generated by graphviz version 2.38.0 (20140413.2041)
 -->
<!-- Title: x4driver_get_dac_step Pages: 1 -->
<svg width="324pt" height="104pt"
 viewBox="0.00 0.00 324.00 104.00" xmlns="http://www.w3.org/2000/svg" xmlns:xlink="http://www.w3.org/1999/xlink">
<g id="graph0" class="graph" transform="scale(1 1) rotate(0) translate(4 100)">
<title>x4driver_get_dac_step</title>
<polygon fill="white" stroke="none" points="-4,4 -4,-100 320,-100 320,4 -4,4"/>
<!-- Node81 -->
<g id="node1" class="node"><title>Node81</title>
<polygon fill="#bfbfbf" stroke="black" points="0,-38.5 0,-57.5 125,-57.5 125,-38.5 0,-38.5"/>
<text text-anchor="middle" x="62.5" y="-45.5" font-family="Helvetica,sans-Serif" font-size="10.00">x4driver_get_dac_step</text>
</g>
<!-- Node82 -->
<g id="node2" class="node"><title>Node82</title>
<g id="a_node2"><a xlink:href="x4driver_8c.xhtml#a980b02b3894a1c8a22a47210bdce97c1" target="_top" xlink:title="gets DAC range based on DAC min, max and dacstep. ">
<polygon fill="white" stroke="red" points="212,-76.5 212,-95.5 265,-95.5 265,-76.5 212,-76.5"/>
<text text-anchor="middle" x="238.5" y="-83.5" font-family="Helvetica,sans-Serif" font-size="10.00">_get_dr</text>
</a>
</g>
</g>
<!-- Node81&#45;&gt;Node82 -->
<g id="edge1" class="edge"><title>Node81&#45;&gt;Node82</title>
<path fill="none" stroke="midnightblue" d="M117.373,-59.7654C148.884,-66.6471 187.211,-75.0173 211.966,-80.4236"/>
<polygon fill="midnightblue" stroke="midnightblue" points="117.924,-56.3033 107.408,-57.589 116.43,-63.1421 117.924,-56.3033"/>
</g>
<!-- Node92 -->
<g id="node3" class="node"><title>Node92</title>
<g id="a_node3"><a xlink:href="x4driver_8c.xhtml#ad4eae703d43b3d9800fd5174ce8ff222" target="_top" xlink:title="x4driver_get_sweep_time">
<polygon fill="white" stroke="black" points="169.5,-38.5 169.5,-57.5 307.5,-57.5 307.5,-38.5 169.5,-38.5"/>
<text text-anchor="middle" x="238.5" y="-45.5" font-family="Helvetica,sans-Serif" font-size="10.00">x4driver_get_sweep_time</text>
</a>
</g>
</g>
<!-- Node81&#45;&gt;Node92 -->
<g id="edge2" class="edge"><title>Node81&#45;&gt;Node92</title>
<path fill="none" stroke="midnightblue" d="M135.504,-48C146.705,-48 158.247,-48 169.359,-48"/>
<polygon fill="midnightblue" stroke="midnightblue" points="135.336,-44.5001 125.336,-48 135.336,-51.5001 135.336,-44.5001"/>
</g>
<!-- Node93 -->
<g id="node4" class="node"><title>Node93</title>
<g id="a_node4"><a xlink:href="x4driver_8c.xhtml#a8bc96b0db173f49cfe59027d9e95f600" target="_top" xlink:title="x4driver_check_configuration">
<polygon fill="white" stroke="red" points="161,-0.5 161,-19.5 316,-19.5 316,-0.5 161,-0.5"/>
<text text-anchor="middle" x="238.5" y="-7.5" font-family="Helvetica,sans-Serif" font-size="10.00">x4driver_check_configuration</text>
</a>
</g>
</g>
<!-- Node81&#45;&gt;Node93 -->
<g id="edge3" class="edge"><title>Node81&#45;&gt;Node93</title>
<path fill="none" stroke="midnightblue" d="M117.314,-36.2474C141.918,-30.8742 170.687,-24.5914 193.908,-19.5201"/>
<polygon fill="midnightblue" stroke="midnightblue" points="116.43,-32.8579 107.408,-38.411 117.924,-39.6967 116.43,-32.8579"/>
</g>
</g>
</svg>
