<?xml version="1.0" encoding="UTF-8" standalone="no"?>
<!DOCTYPE svg PUBLIC "-//W3C//DTD SVG 1.1//EN"
 "http://www.w3.org/Graphics/SVG/1.1/DTD/svg11.dtd">
<!-- Generated by graphviz version 2.38.0 (20140413.2041)
 -->
<!-- Title: x4driver_read_frame_bytes Pages: 1 -->
<svg width="422pt" height="163pt"
 viewBox="0.00 0.00 422.00 163.16" xmlns="http://www.w3.org/2000/svg" xmlns:xlink="http://www.w3.org/1999/xlink">
<g id="graph0" class="graph" transform="scale(1 1) rotate(0) translate(4 159.163)">
<title>x4driver_read_frame_bytes</title>
<polygon fill="white" stroke="none" points="-4,4 -4,-159.163 418,-159.163 418,4 -4,4"/>
<!-- Node582 -->
<g id="node1" class="node"><title>Node582</title>
<polygon fill="#bfbfbf" stroke="black" points="0,-71 0,-101 116,-101 116,-71 0,-71"/>
<text text-anchor="start" x="8" y="-89" font-family="Helvetica,sans-Serif" font-size="10.00">x4driver_read_frame</text>
<text text-anchor="middle" x="58" y="-78" font-family="Helvetica,sans-Serif" font-size="10.00">_bytes</text>
</g>
<!-- Node583 -->
<g id="node2" class="node"><title>Node583</title>
<g id="a_node2"><a xlink:href="x4driver_8c.xhtml#a33cc21cd8eeda4680c7ee2c47cf6e09b" target="_top" xlink:title="Gets reads frame counter from 8051 mailbox requires enable to be set and 8051 SRAM to be program...">
<polygon fill="white" stroke="red" points="152,-114.5 152,-133.5 304,-133.5 304,-114.5 152,-114.5"/>
<text text-anchor="middle" x="228" y="-121.5" font-family="Helvetica,sans-Serif" font-size="10.00">_x4driver_get_framecounter</text>
</a>
</g>
</g>
<!-- Node582&#45;&gt;Node583 -->
<g id="edge1" class="edge"><title>Node582&#45;&gt;Node583</title>
<path fill="none" stroke="midnightblue" d="M116.346,-98.9712C135.362,-103.272 156.41,-108.033 175,-112.238"/>
<polygon fill="midnightblue" stroke="midnightblue" points="174.233,-115.653 184.759,-114.445 175.778,-108.825 174.233,-115.653"/>
</g>
<!-- Node584 -->
<g id="node3" class="node"><title>Node584</title>
<g id="a_node3"><a xlink:href="x4driver_8c.xhtml#acee55fcb62077a150f421c3bbf2c2947" target="_top" xlink:title="Utility function to take mutex. ">
<polygon fill="white" stroke="black" points="340,-133.5 340,-152.5 414,-152.5 414,-133.5 340,-133.5"/>
<text text-anchor="middle" x="377" y="-140.5" font-family="Helvetica,sans-Serif" font-size="10.00">mutex_take</text>
</a>
</g>
</g>
<!-- Node582&#45;&gt;Node584 -->
<g id="edge4" class="edge"><title>Node582&#45;&gt;Node584</title>
<path fill="none" stroke="midnightblue" d="M76.7915,-101.093C94.5267,-115.069 123.203,-134.877 152,-143 211.676,-159.833 283.908,-155.698 329.907,-150.184"/>
<polygon fill="midnightblue" stroke="midnightblue" points="330.397,-153.65 339.876,-148.918 329.515,-146.706 330.397,-153.65"/>
</g>
<!-- Node586 -->
<g id="node4" class="node"><title>Node586</title>
<g id="a_node4"><a xlink:href="x4driver_8c.xhtml#afb50fddff34b3e2ea353077619cb139e" target="_top" xlink:title="Utility function to give mutex. ">
<polygon fill="white" stroke="black" points="341,-86.5 341,-105.5 413,-105.5 413,-86.5 341,-86.5"/>
<text text-anchor="middle" x="377" y="-93.5" font-family="Helvetica,sans-Serif" font-size="10.00">mutex_give</text>
</a>
</g>
</g>
<!-- Node582&#45;&gt;Node586 -->
<g id="edge6" class="edge"><title>Node582&#45;&gt;Node586</title>
<path fill="none" stroke="midnightblue" d="M116.039,-87.7993C177.458,-89.7368 273.941,-92.7805 330.48,-94.5641"/>
<polygon fill="midnightblue" stroke="midnightblue" points="330.45,-98.0647 340.555,-94.8819 330.671,-91.0682 330.45,-98.0647"/>
</g>
<!-- Node591 -->
<g id="node5" class="node"><title>Node591</title>
<g id="a_node5"><a xlink:href="x4driver_8c.xhtml#a983024655a1dcd0ad2aa0ec6cb8eb3cb" target="_top" xlink:title="Gets PIF register value. ">
<polygon fill="white" stroke="red" points="161,-38.5 161,-57.5 295,-57.5 295,-38.5 161,-38.5"/>
<text text-anchor="middle" x="228" y="-45.5" font-family="Helvetica,sans-Serif" font-size="10.00">x4driver_get_pif_register</text>
</a>
</g>
</g>
<!-- Node582&#45;&gt;Node591 -->
<g id="edge5" class="edge"><title>Node582&#45;&gt;Node591</title>
<path fill="none" stroke="midnightblue" d="M116.346,-73.0288C135.362,-68.7277 156.41,-63.9667 175,-59.7619"/>
<polygon fill="midnightblue" stroke="midnightblue" points="175.778,-63.1745 184.759,-57.5545 174.233,-56.347 175.778,-63.1745"/>
</g>
<!-- Node593 -->
<g id="node6" class="node"><title>Node593</title>
<g id="a_node6"><a xlink:href="x4driver_8c.xhtml#a382b6e4ffa3658d409dfe855707dc16d" target="_top" xlink:title="Sets PIF register value. ">
<polygon fill="white" stroke="red" points="161,-0.5 161,-19.5 295,-19.5 295,-0.5 161,-0.5"/>
<text text-anchor="middle" x="228" y="-7.5" font-family="Helvetica,sans-Serif" font-size="10.00">x4driver_set_pif_register</text>
</a>
</g>
</g>
<!-- Node582&#45;&gt;Node593 -->
<g id="edge7" class="edge"><title>Node582&#45;&gt;Node593</title>
<path fill="none" stroke="midnightblue" d="M79.4428,-70.9582C97.6634,-58.1803 125.476,-40.1822 152,-29 157.848,-26.5344 164.093,-24.3317 170.388,-22.3789"/>
<polygon fill="midnightblue" stroke="midnightblue" points="171.642,-25.6595 180.272,-19.5139 169.693,-18.9363 171.642,-25.6595"/>
</g>
<!-- Node583&#45;&gt;Node584 -->
<g id="edge2" class="edge"><title>Node583&#45;&gt;Node584</title>
<path fill="none" stroke="midnightblue" d="M302.931,-133.556C312.08,-134.738 321.22,-135.92 329.785,-137.027"/>
<polygon fill="midnightblue" stroke="midnightblue" points="329.541,-140.524 339.907,-138.335 330.439,-133.582 329.541,-140.524"/>
</g>
<!-- Node583&#45;&gt;Node586 -->
<g id="edge3" class="edge"><title>Node583&#45;&gt;Node586</title>
<path fill="none" stroke="midnightblue" d="M279.178,-114.442C295.984,-111.241 314.605,-107.694 330.991,-104.573"/>
<polygon fill="midnightblue" stroke="midnightblue" points="331.7,-108.001 340.869,-102.692 330.39,-101.125 331.7,-108.001"/>
</g>
</g>
</svg>
