<?xml version="1.0" encoding="UTF-8" standalone="no"?>
<!DOCTYPE svg PUBLIC "-//W3C//DTD SVG 1.1//EN"
 "http://www.w3.org/Graphics/SVG/1.1/DTD/svg11.dtd">
<!-- Generated by graphviz version 2.38.0 (20140413.2041)
 -->
<!-- Title: x4driver_set_downconversion Pages: 1 -->
<svg width="532pt" height="336pt"
 viewBox="0.00 0.00 532.00 336.00" xmlns="http://www.w3.org/2000/svg" xmlns:xlink="http://www.w3.org/1999/xlink">
<g id="graph0" class="graph" transform="scale(1 1) rotate(0) translate(4 332)">
<title>x4driver_set_downconversion</title>
<polygon fill="white" stroke="none" points="-4,4 -4,-332 528,-332 528,4 -4,4"/>
<!-- Node1512 -->
<g id="node1" class="node"><title>Node1512</title>
<polygon fill="#bfbfbf" stroke="black" points="0,-175.5 0,-194.5 157,-194.5 157,-175.5 0,-175.5"/>
<text text-anchor="middle" x="78.5" y="-182.5" font-family="Helvetica,sans-Serif" font-size="10.00">x4driver_set_downconversion</text>
</g>
<!-- Node1513 -->
<g id="node2" class="node"><title>Node1513</title>
<g id="a_node2"><a xlink:href="x4driver_8c.xhtml#acee55fcb62077a150f421c3bbf2c2947" target="_top" xlink:title="Utility function to take mutex. ">
<polygon fill="white" stroke="black" points="420,-251.5 420,-270.5 494,-270.5 494,-251.5 420,-251.5"/>
<text text-anchor="middle" x="457" y="-258.5" font-family="Helvetica,sans-Serif" font-size="10.00">mutex_take</text>
</a>
</g>
</g>
<!-- Node1512&#45;&gt;Node1513 -->
<g id="edge1" class="edge"><title>Node1512&#45;&gt;Node1513</title>
<path fill="none" stroke="midnightblue" d="M86.9741,-194.744C103.435,-215.299 145.179,-262.628 193,-280 268.836,-307.549 364.911,-288.158 417.411,-273.404"/>
<polygon fill="midnightblue" stroke="midnightblue" points="418.683,-276.679 427.311,-270.53 416.732,-269.956 418.683,-276.679"/>
</g>
<!-- Node1514 -->
<g id="node3" class="node"><title>Node1514</title>
<g id="a_node3"><a xlink:href="x4driver_8c.xhtml#a14e3623f55953194c1660b4fcc5814cf" target="_top" xlink:title="Sets a register segment. ">
<polygon fill="white" stroke="black" points="203.5,-251.5 203.5,-270.5 343.5,-270.5 343.5,-251.5 203.5,-251.5"/>
<text text-anchor="middle" x="273.5" y="-258.5" font-family="Helvetica,sans-Serif" font-size="10.00">x4driver_set_pif_segment</text>
</a>
</g>
</g>
<!-- Node1512&#45;&gt;Node1514 -->
<g id="edge2" class="edge"><title>Node1512&#45;&gt;Node1514</title>
<path fill="none" stroke="midnightblue" d="M98.44,-194.645C120.703,-205.754 158.939,-224.125 193,-237 203.952,-241.14 215.956,-245.068 227.242,-248.503"/>
<polygon fill="midnightblue" stroke="midnightblue" points="226.348,-251.889 236.931,-251.387 228.345,-245.18 226.348,-251.889"/>
</g>
<!-- Node1515 -->
<g id="node4" class="node"><title>Node1515</title>
<g id="a_node4"><a xlink:href="x4driver_8c.xhtml#a983024655a1dcd0ad2aa0ec6cb8eb3cb" target="_top" xlink:title="Gets PIF register value. ">
<polygon fill="white" stroke="red" points="390,-308.5 390,-327.5 524,-327.5 524,-308.5 390,-308.5"/>
<text text-anchor="middle" x="457" y="-315.5" font-family="Helvetica,sans-Serif" font-size="10.00">x4driver_get_pif_register</text>
</a>
</g>
</g>
<!-- Node1512&#45;&gt;Node1515 -->
<g id="edge9" class="edge"><title>Node1512&#45;&gt;Node1515</title>
<path fill="none" stroke="midnightblue" d="M85.4249,-194.693C100.2,-217.856 141.243,-276.254 193,-300 251.52,-326.849 325.147,-329.625 379.604,-326.677"/>
<polygon fill="midnightblue" stroke="midnightblue" points="380.121,-330.152 389.885,-326.041 379.688,-323.166 380.121,-330.152"/>
</g>
<!-- Node1521 -->
<g id="node5" class="node"><title>Node1521</title>
<g id="a_node5"><a xlink:href="x4driver_8c.xhtml#a382b6e4ffa3658d409dfe855707dc16d" target="_top" xlink:title="Sets PIF register value. ">
<polygon fill="white" stroke="red" points="390,-213.5 390,-232.5 524,-232.5 524,-213.5 390,-213.5"/>
<text text-anchor="middle" x="457" y="-220.5" font-family="Helvetica,sans-Serif" font-size="10.00">x4driver_set_pif_register</text>
</a>
</g>
</g>
<!-- Node1512&#45;&gt;Node1521 -->
<g id="edge11" class="edge"><title>Node1512&#45;&gt;Node1521</title>
<path fill="none" stroke="midnightblue" d="M130.204,-194.532C149.768,-197.935 172.369,-201.533 193,-204 255.643,-211.489 327.058,-216.421 379.646,-219.379"/>
<polygon fill="midnightblue" stroke="midnightblue" points="379.727,-222.889 389.905,-219.944 380.113,-215.899 379.727,-222.889"/>
</g>
<!-- Node1518 -->
<g id="node6" class="node"><title>Node1518</title>
<g id="a_node6"><a xlink:href="x4driver_8c.xhtml#afb50fddff34b3e2ea353077619cb139e" target="_top" xlink:title="Utility function to give mutex. ">
<polygon fill="white" stroke="black" points="421,-175.5 421,-194.5 493,-194.5 493,-175.5 421,-175.5"/>
<text text-anchor="middle" x="457" y="-182.5" font-family="Helvetica,sans-Serif" font-size="10.00">mutex_give</text>
</a>
</g>
</g>
<!-- Node1512&#45;&gt;Node1518 -->
<g id="edge16" class="edge"><title>Node1512&#45;&gt;Node1518</title>
<path fill="none" stroke="midnightblue" d="M125.668,-175.487C146.188,-171.722 170.7,-167.854 193,-166 264.31,-160.073 282.748,-159.42 354,-166 372.742,-167.731 393.178,-171.214 410.802,-174.731"/>
<polygon fill="midnightblue" stroke="midnightblue" points="410.32,-178.205 420.82,-176.793 411.731,-171.349 410.32,-178.205"/>
</g>
<!-- Node1523 -->
<g id="node7" class="node"><title>Node1523</title>
<g id="a_node7"><a xlink:href="x4driver_8c.xhtml#a2bf65e31ceeb67aa1fc7833862ecfbd0" target="_top" xlink:title="Gets the size of i down conversion coefficients. ">
<polygon fill="white" stroke="black" points="193,-88 193,-118 354,-118 354,-88 193,-88"/>
<text text-anchor="start" x="201" y="-106" font-family="Helvetica,sans-Serif" font-size="10.00">_x4driver_get_downconvertion</text>
<text text-anchor="middle" x="273.5" y="-95" font-family="Helvetica,sans-Serif" font-size="10.00">_coef_c1_i_length</text>
</a>
</g>
</g>
<!-- Node1512&#45;&gt;Node1523 -->
<g id="edge7" class="edge"><title>Node1512&#45;&gt;Node1523</title>
<path fill="none" stroke="midnightblue" d="M99.4086,-175.374C121.929,-164.605 159.794,-146.853 193,-133 202.19,-129.166 212.061,-125.268 221.614,-121.607"/>
<polygon fill="midnightblue" stroke="midnightblue" points="222.918,-124.856 231.025,-118.035 220.434,-118.311 222.918,-124.856"/>
</g>
<!-- Node1524 -->
<g id="node8" class="node"><title>Node1524</title>
<g id="a_node8"><a xlink:href="x4driver_8c.xhtml#a17961a61ffdee93eaf8f02a3cb75771e" target="_top" xlink:title="Gets the size of q down conversion coefficients. ">
<polygon fill="white" stroke="black" points="193,-39 193,-69 354,-69 354,-39 193,-39"/>
<text text-anchor="start" x="201" y="-57" font-family="Helvetica,sans-Serif" font-size="10.00">_x4driver_get_downconvertion</text>
<text text-anchor="middle" x="273.5" y="-46" font-family="Helvetica,sans-Serif" font-size="10.00">_coef_c1_q_length</text>
</a>
</g>
</g>
<!-- Node1512&#45;&gt;Node1524 -->
<g id="edge8" class="edge"><title>Node1512&#45;&gt;Node1524</title>
<path fill="none" stroke="midnightblue" d="M87.2367,-175.284C104.208,-154.596 146.884,-105.894 193,-79 196.656,-76.868 200.514,-74.8969 204.481,-73.0776"/>
<polygon fill="midnightblue" stroke="midnightblue" points="206.039,-76.2191 213.889,-69.1042 203.315,-69.7706 206.039,-76.2191"/>
</g>
<!-- Node1525 -->
<g id="node9" class="node"><title>Node1525</title>
<g id="a_node9"><a xlink:href="x4driver_8c.xhtml#a36b00768edcc13ff61797b0e8a6bf09f" target="_top" xlink:title="_invert">
<polygon fill="white" stroke="black" points="249,-0.5 249,-19.5 298,-19.5 298,-0.5 249,-0.5"/>
<text text-anchor="middle" x="273.5" y="-7.5" font-family="Helvetica,sans-Serif" font-size="10.00">_invert</text>
</a>
</g>
</g>
<!-- Node1512&#45;&gt;Node1525 -->
<g id="edge10" class="edge"><title>Node1512&#45;&gt;Node1525</title>
<path fill="none" stroke="midnightblue" d="M83.509,-175.48C95.5956,-148 134.485,-68.0268 193,-29 206.525,-19.9794 223.866,-15.2274 238.899,-12.73"/>
<polygon fill="midnightblue" stroke="midnightblue" points="239.444,-16.1879 248.862,-11.3365 238.474,-9.25542 239.444,-16.1879"/>
</g>
<!-- Node1526 -->
<g id="node10" class="node"><title>Node1526</title>
<g id="a_node10"><a xlink:href="x4driver_8c.xhtml#a59bb6ec7d08888223c01bffa2aedcf50" target="_top" xlink:title="Set frame area start and end in meters. ">
<polygon fill="white" stroke="red" points="205.5,-175.5 205.5,-194.5 341.5,-194.5 341.5,-175.5 205.5,-175.5"/>
<text text-anchor="middle" x="273.5" y="-182.5" font-family="Helvetica,sans-Serif" font-size="10.00">x4driver_set_frame_area</text>
</a>
</g>
</g>
<!-- Node1512&#45;&gt;Node1526 -->
<g id="edge12" class="edge"><title>Node1512&#45;&gt;Node1526</title>
<path fill="none" stroke="midnightblue" d="M157.166,-185C169.605,-185 182.478,-185 194.914,-185"/>
<polygon fill="midnightblue" stroke="midnightblue" points="195.239,-188.5 205.239,-185 195.239,-181.5 195.239,-188.5"/>
</g>
<!-- Node1514&#45;&gt;Node1513 -->
<g id="edge3" class="edge"><title>Node1514&#45;&gt;Node1513</title>
<path fill="none" stroke="midnightblue" d="M343.635,-261C365.73,-261 389.64,-261 409.702,-261"/>
<polygon fill="midnightblue" stroke="midnightblue" points="409.812,-264.5 419.812,-261 409.811,-257.5 409.812,-264.5"/>
</g>
<!-- Node1514&#45;&gt;Node1515 -->
<g id="edge4" class="edge"><title>Node1514&#45;&gt;Node1515</title>
<path fill="none" stroke="midnightblue" d="M304.879,-270.541C335.242,-280.076 382.106,-294.794 415.592,-305.31"/>
<polygon fill="midnightblue" stroke="midnightblue" points="414.933,-308.771 425.522,-308.428 417.03,-302.093 414.933,-308.771"/>
</g>
<!-- Node1514&#45;&gt;Node1521 -->
<g id="edge5" class="edge"><title>Node1514&#45;&gt;Node1521</title>
<path fill="none" stroke="midnightblue" d="M320.3,-251.411C344.683,-246.306 374.857,-239.989 400.556,-234.608"/>
<polygon fill="midnightblue" stroke="midnightblue" points="401.459,-237.995 410.529,-232.52 400.024,-231.144 401.459,-237.995"/>
</g>
<!-- Node1514&#45;&gt;Node1518 -->
<g id="edge6" class="edge"><title>Node1514&#45;&gt;Node1518</title>
<path fill="none" stroke="midnightblue" d="M291.674,-251.314C313.861,-239.087 353.925,-217.966 390,-204 396.727,-201.396 403.961,-198.961 411.086,-196.761"/>
<polygon fill="midnightblue" stroke="midnightblue" points="412.087,-200.115 420.677,-193.914 410.095,-193.405 412.087,-200.115"/>
</g>
<!-- Node1526&#45;&gt;Node1513 -->
<g id="edge13" class="edge"><title>Node1526&#45;&gt;Node1513</title>
<path fill="none" stroke="midnightblue" d="M291.674,-194.686C313.861,-206.913 353.925,-228.034 390,-242 396.425,-244.487 403.312,-246.82 410.125,-248.941"/>
<polygon fill="midnightblue" stroke="midnightblue" points="409.408,-252.379 419.992,-251.89 411.413,-245.672 409.408,-252.379"/>
</g>
<!-- Node1526&#45;&gt;Node1521 -->
<g id="edge14" class="edge"><title>Node1526&#45;&gt;Node1521</title>
<path fill="none" stroke="midnightblue" d="M320.3,-194.589C344.683,-199.694 374.857,-206.011 400.556,-211.392"/>
<polygon fill="midnightblue" stroke="midnightblue" points="400.024,-214.856 410.529,-213.48 401.459,-208.005 400.024,-214.856"/>
</g>
<!-- Node1526&#45;&gt;Node1518 -->
<g id="edge15" class="edge"><title>Node1526&#45;&gt;Node1518</title>
<path fill="none" stroke="midnightblue" d="M341.568,-185C364.633,-185 389.893,-185 410.799,-185"/>
<polygon fill="midnightblue" stroke="midnightblue" points="410.991,-188.5 420.991,-185 410.991,-181.5 410.991,-188.5"/>
</g>
</g>
</svg>
