<?xml version="1.0" encoding="UTF-8" standalone="no"?>
<!DOCTYPE svg PUBLIC "-//W3C//DTD SVG 1.1//EN"
 "http://www.w3.org/Graphics/SVG/1.1/DTD/svg11.dtd">
<!-- Generated by graphviz version 2.38.0 (20140413.2041)
 -->
<!-- Title: x4driver_init Pages: 1 -->
<svg width="447pt" height="356pt"
 viewBox="0.00 0.00 447.00 356.00" xmlns="http://www.w3.org/2000/svg" xmlns:xlink="http://www.w3.org/1999/xlink">
<g id="graph0" class="graph" transform="scale(1 1) rotate(0) translate(4 352)">
<title>x4driver_init</title>
<polygon fill="white" stroke="none" points="-4,4 -4,-352 443,-352 443,4 -4,4"/>
<!-- Node439 -->
<g id="node1" class="node"><title>Node439</title>
<polygon fill="#bfbfbf" stroke="black" points="0,-164.5 0,-183.5 74,-183.5 74,-164.5 0,-164.5"/>
<text text-anchor="middle" x="37" y="-171.5" font-family="Helvetica,sans-Serif" font-size="10.00">x4driver_init</text>
</g>
<!-- Node440 -->
<g id="node2" class="node"><title>Node440</title>
<g id="a_node2"><a xlink:href="x4driver_8c.xhtml#a56631da6259f3784165d78d00e5b0f80" target="_top" xlink:title="Set enable for X4. ">
<polygon fill="white" stroke="red" points="132,-328.5 132,-347.5 245,-347.5 245,-328.5 132,-328.5"/>
<text text-anchor="middle" x="188.5" y="-335.5" font-family="Helvetica,sans-Serif" font-size="10.00">x4driver_set_enable</text>
</a>
</g>
</g>
<!-- Node439&#45;&gt;Node440 -->
<g id="edge1" class="edge"><title>Node439&#45;&gt;Node440</title>
<path fill="none" stroke="midnightblue" d="M39.8315,-183.528C45.3557,-209.575 64.3651,-282.46 110,-319 113.788,-322.033 117.991,-324.592 122.424,-326.75"/>
<polygon fill="midnightblue" stroke="midnightblue" points="121.209,-330.035 131.787,-330.638 123.894,-323.57 121.209,-330.035"/>
</g>
<!-- Node443 -->
<g id="node3" class="node"><title>Node443</title>
<g id="a_node3"><a xlink:href="x4driver_8c.xhtml#a696a63c5fe7e11fab1b8864faf6e296c" target="_top" xlink:title="Get SPI register on radar chip. ">
<polygon fill="white" stroke="red" points="120,-290.5 120,-309.5 257,-309.5 257,-290.5 120,-290.5"/>
<text text-anchor="middle" x="188.5" y="-297.5" font-family="Helvetica,sans-Serif" font-size="10.00">x4driver_get_spi_register</text>
</a>
</g>
</g>
<!-- Node439&#45;&gt;Node443 -->
<g id="edge2" class="edge"><title>Node439&#45;&gt;Node443</title>
<path fill="none" stroke="midnightblue" d="M41.6851,-183.758C50.2236,-204.986 73.4651,-255.495 110,-281 112.87,-283.004 115.928,-284.797 119.11,-286.401"/>
<polygon fill="midnightblue" stroke="midnightblue" points="117.784,-289.642 128.349,-290.443 120.59,-283.229 117.784,-289.642"/>
</g>
<!-- Node444 -->
<g id="node4" class="node"><title>Node444</title>
<g id="a_node4"><a xlink:href="x4driver_8c.xhtml#a421ecb2b885441b8d565301fbd81993d" target="_top" xlink:title="Upload default 8051 firmware to X4. ">
<polygon fill="white" stroke="red" points="119,-241 119,-271 258,-271 258,-241 119,-241"/>
<text text-anchor="start" x="127" y="-259" font-family="Helvetica,sans-Serif" font-size="10.00">x4driver_upload_firmware</text>
<text text-anchor="middle" x="188.5" y="-248" font-family="Helvetica,sans-Serif" font-size="10.00">_default</text>
</a>
</g>
</g>
<!-- Node439&#45;&gt;Node444 -->
<g id="edge3" class="edge"><title>Node439&#45;&gt;Node444</title>
<path fill="none" stroke="midnightblue" d="M47.8987,-183.773C61.0645,-196.291 85.5344,-217.924 110,-231 114.146,-233.216 118.522,-235.278 122.999,-237.188"/>
<polygon fill="midnightblue" stroke="midnightblue" points="121.703,-240.44 132.288,-240.899 124.3,-233.939 121.703,-240.44"/>
</g>
<!-- Node448 -->
<g id="node5" class="node"><title>Node448</title>
<g id="a_node5"><a xlink:href="x4driver_8c.xhtml#ae675d60c2a35b5313b71c319744a11f0" target="_top" xlink:title="Enables dvdd_tx,dvdd_rx, avdd_tx dvdd_rx ldos on X4 . ">
<polygon fill="white" stroke="red" points="124.5,-202.5 124.5,-221.5 252.5,-221.5 252.5,-202.5 124.5,-202.5"/>
<text text-anchor="middle" x="188.5" y="-209.5" font-family="Helvetica,sans-Serif" font-size="10.00">x4driver_ldo_enable_all</text>
</a>
</g>
</g>
<!-- Node439&#45;&gt;Node448 -->
<g id="edge4" class="edge"><title>Node439&#45;&gt;Node448</title>
<path fill="none" stroke="midnightblue" d="M73.8583,-183.595C85.3875,-186.645 98.2232,-190.003 110,-193 119.07,-195.308 128.751,-197.722 138.088,-200.024"/>
<polygon fill="midnightblue" stroke="midnightblue" points="137.494,-203.482 148.04,-202.468 139.164,-196.684 137.494,-203.482"/>
</g>
<!-- Node459 -->
<g id="node6" class="node"><title>Node459</title>
<g id="a_node6"><a xlink:href="x4driver_8c.xhtml#aad4194e43df4304e629fc595d582d408" target="_top" xlink:title="Setup external osc on X4. ">
<polygon fill="white" stroke="red" points="136.5,-164.5 136.5,-183.5 240.5,-183.5 240.5,-164.5 136.5,-164.5"/>
<text text-anchor="middle" x="188.5" y="-171.5" font-family="Helvetica,sans-Serif" font-size="10.00">x4driver_init_clock</text>
</a>
</g>
</g>
<!-- Node439&#45;&gt;Node459 -->
<g id="edge5" class="edge"><title>Node439&#45;&gt;Node459</title>
<path fill="none" stroke="midnightblue" d="M74.1898,-174C89.7933,-174 108.484,-174 126.143,-174"/>
<polygon fill="midnightblue" stroke="midnightblue" points="126.39,-177.5 136.39,-174 126.39,-170.5 126.39,-177.5"/>
</g>
<!-- Node460 -->
<g id="node7" class="node"><title>Node460</title>
<g id="a_node7"><a xlink:href="x4driver_8c.xhtml#a041e81b6d75f97dbf29f1e9a29353425" target="_top" xlink:title="Will setup x4 in default configuration. ">
<polygon fill="white" stroke="red" points="126,-126.5 126,-145.5 251,-145.5 251,-126.5 126,-126.5"/>
<text text-anchor="middle" x="188.5" y="-133.5" font-family="Helvetica,sans-Serif" font-size="10.00">x4driver_setup_default</text>
</a>
</g>
</g>
<!-- Node439&#45;&gt;Node460 -->
<g id="edge6" class="edge"><title>Node439&#45;&gt;Node460</title>
<path fill="none" stroke="midnightblue" d="M73.8583,-164.405C85.3875,-161.355 98.2232,-157.997 110,-155 119.07,-152.692 128.751,-150.278 138.088,-147.976"/>
<polygon fill="midnightblue" stroke="midnightblue" points="139.164,-151.316 148.04,-145.532 137.494,-144.518 139.164,-151.316"/>
</g>
<!-- Node463 -->
<g id="node8" class="node"><title>Node463</title>
<g id="a_node8"><a xlink:href="x4driver_8c.xhtml#a3493035f2d30f78e30586a7a4eccb481" target="_top" xlink:title="Updates normalization variables and calculates new constants. ">
<polygon fill="white" stroke="red" points="125.5,-77 125.5,-107 251.5,-107 251.5,-77 125.5,-77"/>
<text text-anchor="start" x="133.5" y="-95" font-family="Helvetica,sans-Serif" font-size="10.00">_update_normalization</text>
<text text-anchor="middle" x="188.5" y="-84" font-family="Helvetica,sans-Serif" font-size="10.00">_variables</text>
</a>
</g>
</g>
<!-- Node439&#45;&gt;Node463 -->
<g id="edge7" class="edge"><title>Node439&#45;&gt;Node463</title>
<path fill="none" stroke="midnightblue" d="M47.8987,-164.227C61.0645,-151.709 85.5344,-130.076 110,-117 114.146,-114.784 118.522,-112.722 122.999,-110.812"/>
<polygon fill="midnightblue" stroke="midnightblue" points="124.3,-114.061 132.288,-107.101 121.703,-107.56 124.3,-114.061"/>
</g>
<!-- Node469 -->
<g id="node9" class="node"><title>Node469</title>
<g id="a_node9"><a xlink:href="x4driver_8c.xhtml#a59bb6ec7d08888223c01bffa2aedcf50" target="_top" xlink:title="Set frame area start and end in meters. ">
<polygon fill="white" stroke="red" points="303,-19.5 303,-38.5 439,-38.5 439,-19.5 303,-19.5"/>
<text text-anchor="middle" x="371" y="-26.5" font-family="Helvetica,sans-Serif" font-size="10.00">x4driver_set_frame_area</text>
</a>
</g>
</g>
<!-- Node439&#45;&gt;Node469 -->
<g id="edge8" class="edge"><title>Node439&#45;&gt;Node469</title>
<path fill="none" stroke="midnightblue" d="M41.4222,-164.403C49.5779,-143.062 72.3387,-91.6912 110,-68 139.66,-49.3424 227.265,-39.0363 292.641,-33.7752"/>
<polygon fill="midnightblue" stroke="midnightblue" points="293.232,-37.2398 302.93,-32.9736 292.689,-30.2609 293.232,-37.2398"/>
</g>
<!-- Node474 -->
<g id="node10" class="node"><title>Node474</title>
<g id="a_node10"><a xlink:href="x4driver_8c.xhtml#aca2f2487a46b5debe6656dd21a816e97" target="_top" xlink:title="x4driver_set_downconversion">
<polygon fill="white" stroke="red" points="110,-0.5 110,-19.5 267,-19.5 267,-0.5 110,-0.5"/>
<text text-anchor="middle" x="188.5" y="-7.5" font-family="Helvetica,sans-Serif" font-size="10.00">x4driver_set_downconversion</text>
</a>
</g>
</g>
<!-- Node439&#45;&gt;Node474 -->
<g id="edge9" class="edge"><title>Node439&#45;&gt;Node474</title>
<path fill="none" stroke="midnightblue" d="M40.2306,-164.206C46.5294,-138.789 66.8665,-70.1872 110,-34 114.957,-29.8413 120.63,-26.4023 126.604,-23.5587"/>
<polygon fill="midnightblue" stroke="midnightblue" points="128.297,-26.6445 136.177,-19.5622 125.6,-20.1848 128.297,-26.6445"/>
</g>
<!-- Node474&#45;&gt;Node469 -->
<g id="edge10" class="edge"><title>Node474&#45;&gt;Node469</title>
<path fill="none" stroke="midnightblue" d="M267.096,-18.168C275.68,-19.0716 284.421,-19.9917 292.998,-20.8945"/>
<polygon fill="midnightblue" stroke="midnightblue" points="292.661,-24.3783 302.973,-21.9445 293.394,-17.4168 292.661,-24.3783"/>
</g>
</g>
</svg>
