<?xml version="1.0" encoding="UTF-8" standalone="no"?>
<!DOCTYPE svg PUBLIC "-//W3C//DTD SVG 1.1//EN"
 "http://www.w3.org/Graphics/SVG/1.1/DTD/svg11.dtd">
<!-- Generated by graphviz version 2.38.0 (20140413.2041)
 -->
<!-- Title: x4driver_get_dac_min Pages: 1 -->
<svg width="321pt" height="116pt"
 viewBox="0.00 0.00 321.00 115.50" xmlns="http://www.w3.org/2000/svg" xmlns:xlink="http://www.w3.org/1999/xlink">
<g id="graph0" class="graph" transform="scale(1 1) rotate(0) translate(4 111.5)">
<title>x4driver_get_dac_min</title>
<polygon fill="white" stroke="none" points="-4,4 -4,-111.5 317,-111.5 317,4 -4,4"/>
<!-- Node60 -->
<g id="node1" class="node"><title>Node60</title>
<polygon fill="#bfbfbf" stroke="black" points="0,-38.5 0,-57.5 122,-57.5 122,-38.5 0,-38.5"/>
<text text-anchor="middle" x="61" y="-45.5" font-family="Helvetica,sans-Serif" font-size="10.00">x4driver_get_dac_min</text>
</g>
<!-- Node61 -->
<g id="node2" class="node"><title>Node61</title>
<g id="a_node2"><a xlink:href="x4driver_8c.xhtml#a3493035f2d30f78e30586a7a4eccb481" target="_top" xlink:title="Updates normalization variables and calculates new constants. ">
<polygon fill="white" stroke="red" points="172.5,-77 172.5,-107 298.5,-107 298.5,-77 172.5,-77"/>
<text text-anchor="start" x="180.5" y="-95" font-family="Helvetica,sans-Serif" font-size="10.00">_update_normalization</text>
<text text-anchor="middle" x="235.5" y="-84" font-family="Helvetica,sans-Serif" font-size="10.00">_variables</text>
</a>
</g>
</g>
<!-- Node60&#45;&gt;Node61 -->
<g id="edge1" class="edge"><title>Node60&#45;&gt;Node61</title>
<path fill="none" stroke="midnightblue" d="M109.148,-60.0261C129.609,-65.2453 153.795,-71.4144 175.437,-76.9346"/>
<polygon fill="midnightblue" stroke="midnightblue" points="109.985,-56.6276 99.4299,-57.5473 108.255,-63.4104 109.985,-56.6276"/>
</g>
<!-- Node70 -->
<g id="node3" class="node"><title>Node70</title>
<g id="a_node3"><a xlink:href="x4driver_8c.xhtml#ad4eae703d43b3d9800fd5174ce8ff222" target="_top" xlink:title="x4driver_get_sweep_time">
<polygon fill="white" stroke="black" points="166.5,-38.5 166.5,-57.5 304.5,-57.5 304.5,-38.5 166.5,-38.5"/>
<text text-anchor="middle" x="235.5" y="-45.5" font-family="Helvetica,sans-Serif" font-size="10.00">x4driver_get_sweep_time</text>
</a>
</g>
</g>
<!-- Node60&#45;&gt;Node70 -->
<g id="edge2" class="edge"><title>Node60&#45;&gt;Node70</title>
<path fill="none" stroke="midnightblue" d="M132.453,-48C143.61,-48 155.133,-48 166.238,-48"/>
<polygon fill="midnightblue" stroke="midnightblue" points="132.332,-44.5001 122.332,-48 132.332,-51.5001 132.332,-44.5001"/>
</g>
<!-- Node71 -->
<g id="node4" class="node"><title>Node71</title>
<g id="a_node4"><a xlink:href="x4driver_8c.xhtml#a8bc96b0db173f49cfe59027d9e95f600" target="_top" xlink:title="x4driver_check_configuration">
<polygon fill="white" stroke="red" points="158,-0.5 158,-19.5 313,-19.5 313,-0.5 158,-0.5"/>
<text text-anchor="middle" x="235.5" y="-7.5" font-family="Helvetica,sans-Serif" font-size="10.00">x4driver_check_configuration</text>
</a>
</g>
</g>
<!-- Node60&#45;&gt;Node71 -->
<g id="edge3" class="edge"><title>Node60&#45;&gt;Node71</title>
<path fill="none" stroke="midnightblue" d="M115.351,-36.2474C139.742,-30.8742 168.263,-24.5914 191.284,-19.5201"/>
<polygon fill="midnightblue" stroke="midnightblue" points="114.542,-32.8416 105.529,-38.411 116.048,-39.6776 114.542,-32.8416"/>
</g>
</g>
</svg>
