<?xml version="1.0" encoding="UTF-8" standalone="no"?>
<!DOCTYPE svg PUBLIC "-//W3C//DTD SVG 1.1//EN"
 "http://www.w3.org/Graphics/SVG/1.1/DTD/svg11.dtd">
<!-- Generated by graphviz version 2.38.0 (20140413.2041)
 -->
<!-- Title: xtio_get_level Pages: 1 -->
<svg width="242pt" height="66pt"
 viewBox="0.00 0.00 242.00 66.00" xmlns="http://www.w3.org/2000/svg" xmlns:xlink="http://www.w3.org/1999/xlink">
<g id="graph0" class="graph" transform="scale(1 1) rotate(0) translate(4 62)">
<title>xtio_get_level</title>
<polygon fill="white" stroke="none" points="-4,4 -4,-62 238,-62 238,4 -4,4"/>
<!-- Node57 -->
<g id="node1" class="node"><title>Node57</title>
<polygon fill="#bfbfbf" stroke="black" points="0,-19.5 0,-38.5 82,-38.5 82,-19.5 0,-19.5"/>
<text text-anchor="middle" x="41" y="-26.5" font-family="Helvetica,sans-Serif" font-size="10.00">xtio_get_level</text>
</g>
<!-- Node58 -->
<g id="node2" class="node"><title>Node58</title>
<g id="a_node2"><a xlink:href="xtio__serial__com_8c.xhtml#a44f44f30e6e6a45ec405e61d9bf66c34" target="_top" xlink:title="Check if USB is available and connected. ">
<polygon fill="white" stroke="red" points="124,-38.5 124,-57.5 228,-57.5 228,-38.5 124,-38.5"/>
<text text-anchor="middle" x="176" y="-45.5" font-family="Helvetica,sans-Serif" font-size="10.00">xtio_usb_available</text>
</a>
</g>
</g>
<!-- Node57&#45;&gt;Node58 -->
<g id="edge1" class="edge"><title>Node57&#45;&gt;Node58</title>
<path fill="none" stroke="midnightblue" d="M92.2731,-36.1819C102.502,-37.6431 113.276,-39.1822 123.545,-40.6492"/>
<polygon fill="midnightblue" stroke="midnightblue" points="92.6598,-32.7017 82.2653,-34.7522 91.6698,-39.6313 92.6598,-32.7017"/>
</g>
<!-- Node64 -->
<g id="node3" class="node"><title>Node64</title>
<g id="a_node3"><a xlink:href="xep__application__mcp__callbacks_8h.xhtml#ab45991b5af535952ce2020e56a1f23ca" target="_top" xlink:title="onMcpGetIOPinValue">
<polygon fill="white" stroke="red" points="118,-0.5 118,-19.5 234,-19.5 234,-0.5 118,-0.5"/>
<text text-anchor="middle" x="176" y="-7.5" font-family="Helvetica,sans-Serif" font-size="10.00">onMcpGetIOPinValue</text>
</a>
</g>
</g>
<!-- Node57&#45;&gt;Node64 -->
<g id="edge2" class="edge"><title>Node57&#45;&gt;Node64</title>
<path fill="none" stroke="midnightblue" d="M92.2016,-21.8283C100.527,-20.6391 109.215,-19.3979 117.699,-18.1859"/>
<polygon fill="midnightblue" stroke="midnightblue" points="91.6698,-18.3687 82.2653,-23.2478 92.6598,-25.2983 91.6698,-18.3687"/>
</g>
</g>
</svg>
