<?xml version="1.0" encoding="UTF-8" standalone="no"?>
<!DOCTYPE svg PUBLIC "-//W3C//DTD SVG 1.1//EN"
 "http://www.w3.org/Graphics/SVG/1.1/DTD/svg11.dtd">
<!-- Generated by graphviz version 2.38.0 (20140413.2041)
 -->
<!-- Title: xtio_set_direction Pages: 1 -->
<svg width="268pt" height="104pt"
 viewBox="0.00 0.00 268.00 104.00" xmlns="http://www.w3.org/2000/svg" xmlns:xlink="http://www.w3.org/1999/xlink">
<g id="graph0" class="graph" transform="scale(1 1) rotate(0) translate(4 100)">
<title>xtio_set_direction</title>
<polygon fill="white" stroke="none" points="-4,4 -4,-100 264,-100 264,4 -4,4"/>
<!-- Node105 -->
<g id="node1" class="node"><title>Node105</title>
<polygon fill="#bfbfbf" stroke="black" points="0,-38.5 0,-57.5 101,-57.5 101,-38.5 0,-38.5"/>
<text text-anchor="middle" x="50.5" y="-45.5" font-family="Helvetica,sans-Serif" font-size="10.00">xtio_set_direction</text>
</g>
<!-- Node106 -->
<g id="node2" class="node"><title>Node106</title>
<g id="a_node2"><a xlink:href="radar__hal_8h.xhtml#ad63d969948a6bec2a0c98d02c6296446" target="_top" xlink:title="Initiate Radar HAL. ">
<polygon fill="white" stroke="red" points="158,-76.5 158,-95.5 239,-95.5 239,-76.5 158,-76.5"/>
<text text-anchor="middle" x="198.5" y="-83.5" font-family="Helvetica,sans-Serif" font-size="10.00">radar_hal_init</text>
</a>
</g>
</g>
<!-- Node105&#45;&gt;Node106 -->
<g id="edge1" class="edge"><title>Node105&#45;&gt;Node106</title>
<path fill="none" stroke="midnightblue" d="M98.036,-60.1121C118.37,-65.4044 141.871,-71.5213 160.923,-76.4799"/>
<polygon fill="midnightblue" stroke="midnightblue" points="98.9012,-56.7207 88.342,-57.589 97.1379,-63.4951 98.9012,-56.7207"/>
</g>
<!-- Node110 -->
<g id="node3" class="node"><title>Node110</title>
<g id="a_node3"><a xlink:href="task__radar_8c.xhtml#a4fee3ee4025e6d4e8dc667598f8bc27f" target="_top" xlink:title="x4driver_enable_ISR">
<polygon fill="white" stroke="red" points="142,-38.5 142,-57.5 255,-57.5 255,-38.5 142,-38.5"/>
<text text-anchor="middle" x="198.5" y="-45.5" font-family="Helvetica,sans-Serif" font-size="10.00">x4driver_enable_ISR</text>
</a>
</g>
</g>
<!-- Node105&#45;&gt;Node110 -->
<g id="edge2" class="edge"><title>Node105&#45;&gt;Node110</title>
<path fill="none" stroke="midnightblue" d="M111.618,-48C121.632,-48 131.98,-48 141.876,-48"/>
<polygon fill="midnightblue" stroke="midnightblue" points="111.337,-44.5001 101.337,-48 111.337,-51.5001 111.337,-44.5001"/>
</g>
<!-- Node112 -->
<g id="node4" class="node"><title>Node112</title>
<g id="a_node4"><a xlink:href="xep__application__mcp__callbacks_8h.xhtml#a8850c282d398f5566ab9c2d486e96aeb" target="_top" xlink:title="onMcpSetIOPinControl">
<polygon fill="white" stroke="red" points="137,-0.5 137,-19.5 260,-19.5 260,-0.5 137,-0.5"/>
<text text-anchor="middle" x="198.5" y="-7.5" font-family="Helvetica,sans-Serif" font-size="10.00">onMcpSetIOPinControl</text>
</a>
</g>
</g>
<!-- Node105&#45;&gt;Node112 -->
<g id="edge3" class="edge"><title>Node105&#45;&gt;Node112</title>
<path fill="none" stroke="midnightblue" d="M98.036,-35.8879C118.37,-30.5956 141.871,-24.4787 160.923,-19.5201"/>
<polygon fill="midnightblue" stroke="midnightblue" points="97.1379,-32.5049 88.342,-38.411 98.9012,-39.2793 97.1379,-32.5049"/>
</g>
</g>
</svg>
