<?xml version="1.0" encoding="UTF-8" standalone="no"?>
<!DOCTYPE svg PUBLIC "-//W3C//DTD SVG 1.1//EN"
 "http://www.w3.org/Graphics/SVG/1.1/DTD/svg11.dtd">
<!-- Generated by graphviz version 2.38.0 (20140413.2041)
 -->
<!-- Title: src/hal/x4m0x_s70/xtio_gpio.h Pages: 1 -->
<svg width="276pt" height="106pt"
 viewBox="0.00 0.00 275.50 106.00" xmlns="http://www.w3.org/2000/svg" xmlns:xlink="http://www.w3.org/1999/xlink">
<g id="graph0" class="graph" transform="scale(1 1) rotate(0) translate(4 102)">
<title>src/hal/x4m0x_s70/xtio_gpio.h</title>
<polygon fill="white" stroke="none" points="-4,4 -4,-102 271.5,-102 271.5,4 -4,4"/>
<!-- Node4 -->
<g id="node1" class="node"><title>Node4</title>
<polygon fill="#bfbfbf" stroke="black" points="69.5,-67.5 69.5,-97.5 195.5,-97.5 195.5,-67.5 69.5,-67.5"/>
<text text-anchor="start" x="77.5" y="-85.5" font-family="Helvetica,sans-Serif" font-size="10.00">src/hal/x4m0x_s70/xtio</text>
<text text-anchor="middle" x="132.5" y="-74.5" font-family="Helvetica,sans-Serif" font-size="10.00">_gpio.h</text>
</g>
<!-- Node5 -->
<g id="node2" class="node"><title>Node5</title>
<g id="a_node2"><a xlink:href="hal__board__init_8c.xhtml" target="_top" xlink:title="User board initialization template. ">
<polygon fill="white" stroke="black" points="0,-0.5 0,-30.5 123,-30.5 123,-0.5 0,-0.5"/>
<text text-anchor="start" x="8" y="-18.5" font-family="Helvetica,sans-Serif" font-size="10.00">src/hal/x4m0x_s70/hal</text>
<text text-anchor="middle" x="61.5" y="-7.5" font-family="Helvetica,sans-Serif" font-size="10.00">_board_init.c</text>
</a>
</g>
</g>
<!-- Node4&#45;&gt;Node5 -->
<g id="edge1" class="edge"><title>Node4&#45;&gt;Node5</title>
<path fill="none" stroke="midnightblue" d="M109.668,-60.5978C98.9477,-50.7831 86.4529,-39.3442 76.8759,-30.5765"/>
<polygon fill="midnightblue" stroke="midnightblue" points="107.355,-63.225 117.094,-67.396 112.082,-58.0618 107.355,-63.225"/>
</g>
<!-- Node6 -->
<g id="node3" class="node"><title>Node6</title>
<g id="a_node3"><a xlink:href="x4m0x__s70_2xtio__gpio_8c.xhtml" target="_top" xlink:title="Implementation of GPIO functions for X4M0x boards with Atmel SAM S70 MCU. ">
<polygon fill="white" stroke="black" points="141.5,-0.5 141.5,-30.5 267.5,-30.5 267.5,-0.5 141.5,-0.5"/>
<text text-anchor="start" x="149.5" y="-18.5" font-family="Helvetica,sans-Serif" font-size="10.00">src/hal/x4m0x_s70/xtio</text>
<text text-anchor="middle" x="204.5" y="-7.5" font-family="Helvetica,sans-Serif" font-size="10.00">_gpio.c</text>
</a>
</g>
</g>
<!-- Node4&#45;&gt;Node6 -->
<g id="edge2" class="edge"><title>Node4&#45;&gt;Node6</title>
<path fill="none" stroke="midnightblue" d="M155.653,-60.5978C166.525,-50.7831 179.196,-39.3442 188.908,-30.5765"/>
<polygon fill="midnightblue" stroke="midnightblue" points="153.2,-58.097 148.123,-67.396 157.891,-63.2929 153.2,-58.097"/>
</g>
</g>
</svg>
