<?xml version="1.0" encoding="UTF-8" standalone="no"?>
<!DOCTYPE svg PUBLIC "-//W3C//DTD SVG 1.1//EN"
 "http://www.w3.org/Graphics/SVG/1.1/DTD/svg11.dtd">
<!-- Generated by graphviz version 2.38.0 (20140413.2041)
 -->
<!-- Title: xtio_decode_pin_id Pages: 1 -->
<svg width="288pt" height="268pt"
 viewBox="0.00 0.00 288.00 267.50" xmlns="http://www.w3.org/2000/svg" xmlns:xlink="http://www.w3.org/1999/xlink">
<g id="graph0" class="graph" transform="scale(1 1) rotate(0) translate(4 263.5)">
<title>xtio_decode_pin_id</title>
<polygon fill="white" stroke="none" points="-4,4 -4,-263.5 284,-263.5 284,4 -4,4"/>
<!-- Node29 -->
<g id="node1" class="node"><title>Node29</title>
<polygon fill="#bfbfbf" stroke="black" points="0,-126 0,-145 107,-145 107,-126 0,-126"/>
<text text-anchor="middle" x="53.5" y="-133" font-family="Helvetica,sans-Serif" font-size="10.00">xtio_decode_pin_id</text>
</g>
<!-- Node30 -->
<g id="node2" class="node"><title>Node30</title>
<g id="a_node2"><a xlink:href="x4m0x__s70_2xtio__gpio_8c.xhtml#a4f087fae5e8098b3b9c8f9df124b7f4e" target="_top" xlink:title="Set direction of specified IO pin. ">
<polygon fill="white" stroke="red" points="161,-240 161,-259 262,-259 262,-240 161,-240"/>
<text text-anchor="middle" x="211.5" y="-247" font-family="Helvetica,sans-Serif" font-size="10.00">xtio_set_direction</text>
</a>
</g>
</g>
<!-- Node29&#45;&gt;Node30 -->
<g id="edge1" class="edge"><title>Node29&#45;&gt;Node30</title>
<path fill="none" stroke="midnightblue" d="M66.5074,-153.469C81.7841,-174.943 110.163,-210.476 143,-230.5 149.34,-234.366 156.492,-237.469 163.707,-239.952"/>
<polygon fill="midnightblue" stroke="midnightblue" points="69.3596,-151.44 60.7877,-145.213 63.6056,-155.426 69.3596,-151.44"/>
</g>
<!-- Node39 -->
<g id="node3" class="node"><title>Node39</title>
<g id="a_node3"><a xlink:href="x4m0x__s70_2xtio__gpio_8c.xhtml#a387b000f6fb5128449611d9fe0e47369" target="_top" xlink:title="Set the level of specified IO pin. ">
<polygon fill="white" stroke="red" points="171,-202 171,-221 252,-221 252,-202 171,-202"/>
<text text-anchor="middle" x="211.5" y="-209" font-family="Helvetica,sans-Serif" font-size="10.00">xtio_set_level</text>
</a>
</g>
</g>
<!-- Node29&#45;&gt;Node39 -->
<g id="edge2" class="edge"><title>Node29&#45;&gt;Node39</title>
<path fill="none" stroke="midnightblue" d="M74.938,-151.181C92.2574,-163.835 118.169,-181.313 143,-192.5 151.769,-196.451 161.554,-199.772 170.892,-202.477"/>
<polygon fill="midnightblue" stroke="midnightblue" points="76.8275,-148.225 66.7155,-145.063 72.6487,-153.84 76.8275,-148.225"/>
</g>
<!-- Node43 -->
<g id="node4" class="node"><title>Node43</title>
<g id="a_node4"><a xlink:href="x4m0x__s70_2xtio__gpio_8c.xhtml#a28a34b2db420bacc2f465b1af3f7ca8a" target="_top" xlink:title="Get level of specified IO pin. ">
<polygon fill="white" stroke="red" points="170.5,-164 170.5,-183 252.5,-183 252.5,-164 170.5,-164"/>
<text text-anchor="middle" x="211.5" y="-171" font-family="Helvetica,sans-Serif" font-size="10.00">xtio_get_level</text>
</a>
</g>
</g>
<!-- Node29&#45;&gt;Node43 -->
<g id="edge3" class="edge"><title>Node29&#45;&gt;Node43</title>
<path fill="none" stroke="midnightblue" d="M103.632,-147.468C125.493,-152.793 150.876,-158.976 171.418,-163.98"/>
<polygon fill="midnightblue" stroke="midnightblue" points="104.41,-144.055 93.8654,-145.089 102.753,-150.856 104.41,-144.055"/>
</g>
<!-- Node49 -->
<g id="node5" class="node"><title>Node49</title>
<g id="a_node5"><a xlink:href="x4m0x__s70_2xtio__gpio_8c.xhtml#ab37c30dc5bf179f86b20907fb42e1e4d" target="_top" xlink:title="Toggle the level of specified IO pin. ">
<polygon fill="white" stroke="black" points="163.5,-126 163.5,-145 259.5,-145 259.5,-126 163.5,-126"/>
<text text-anchor="middle" x="211.5" y="-133" font-family="Helvetica,sans-Serif" font-size="10.00">xtio_toggle_level</text>
</a>
</g>
</g>
<!-- Node29&#45;&gt;Node49 -->
<g id="edge4" class="edge"><title>Node29&#45;&gt;Node49</title>
<path fill="none" stroke="midnightblue" d="M117.743,-135.5C133.031,-135.5 149.105,-135.5 163.497,-135.5"/>
<polygon fill="midnightblue" stroke="midnightblue" points="117.315,-132 107.314,-135.5 117.314,-139 117.315,-132"/>
</g>
<!-- Node50 -->
<g id="node6" class="node"><title>Node50</title>
<g id="a_node6"><a xlink:href="x4m0x__s70_2xtio__gpio_8c.xhtml#a9c169f60838175920c2f9ab467d020c1" target="_top" xlink:title="Set mode for specified IO pin. ">
<polygon fill="white" stroke="red" points="158,-88 158,-107 265,-107 265,-88 158,-88"/>
<text text-anchor="middle" x="211.5" y="-95" font-family="Helvetica,sans-Serif" font-size="10.00">xtio_set_pin_mode</text>
</a>
</g>
</g>
<!-- Node29&#45;&gt;Node50 -->
<g id="edge5" class="edge"><title>Node29&#45;&gt;Node50</title>
<path fill="none" stroke="midnightblue" d="M103.632,-123.532C125.493,-118.207 150.876,-112.024 171.418,-107.02"/>
<polygon fill="midnightblue" stroke="midnightblue" points="102.753,-120.144 93.8654,-125.911 104.41,-126.945 102.753,-120.144"/>
</g>
<!-- Node53 -->
<g id="node7" class="node"><title>Node53</title>
<g id="a_node7"><a xlink:href="x4m0x__s70_2xtio__gpio_8c.xhtml#a90b22ca935e03d989e5572a9aa8bf29c" target="_top" xlink:title="Register interrupt callback function. ">
<polygon fill="white" stroke="red" points="143,-50 143,-69 280,-69 280,-50 143,-50"/>
<text text-anchor="middle" x="211.5" y="-57" font-family="Helvetica,sans-Serif" font-size="10.00">xtio_irq_register_callback</text>
</a>
</g>
</g>
<!-- Node29&#45;&gt;Node53 -->
<g id="edge6" class="edge"><title>Node29&#45;&gt;Node53</title>
<path fill="none" stroke="midnightblue" d="M74.938,-119.819C92.2574,-107.165 118.169,-89.687 143,-78.5 151.214,-74.7995 160.319,-71.6508 169.114,-69.044"/>
<polygon fill="midnightblue" stroke="midnightblue" points="72.6487,-117.16 66.7155,-125.937 76.8275,-122.775 72.6487,-117.16"/>
</g>
<!-- Node54 -->
<g id="node8" class="node"><title>Node54</title>
<g id="a_node8"><a xlink:href="x4m0x__s70_2xtio__gpio_8c.xhtml#a8f8214e214e26de85a41a1b0af1fc6d7" target="_top" xlink:title="Unregister interrupt handler. ">
<polygon fill="white" stroke="red" points="159,-0.5 159,-30.5 264,-30.5 264,-0.5 159,-0.5"/>
<text text-anchor="start" x="167" y="-18.5" font-family="Helvetica,sans-Serif" font-size="10.00">xtio_irq_unregister</text>
<text text-anchor="middle" x="211.5" y="-7.5" font-family="Helvetica,sans-Serif" font-size="10.00">_callback</text>
</a>
</g>
</g>
<!-- Node29&#45;&gt;Node54 -->
<g id="edge7" class="edge"><title>Node29&#45;&gt;Node54</title>
<path fill="none" stroke="midnightblue" d="M67.0248,-117.641C82.632,-96.5663 111.158,-61.7167 143,-40.5 148.616,-36.7582 154.866,-33.4825 161.233,-30.6429"/>
<polygon fill="midnightblue" stroke="midnightblue" points="64.1838,-115.596 61.155,-125.749 69.854,-119.701 64.1838,-115.596"/>
</g>
</g>
</svg>
