<?xml version="1.0" encoding="UTF-8" standalone="no"?>
<!DOCTYPE svg PUBLIC "-//W3C//DTD SVG 1.1//EN"
 "http://www.w3.org/Graphics/SVG/1.1/DTD/svg11.dtd">
<!-- Generated by graphviz version 2.38.0 (20140413.2041)
 -->
<!-- Title: src/hal/x4m0x_s70/xtio_gpio.c Pages: 1 -->
<svg width="356pt" height="151pt"
 viewBox="0.00 0.00 356.00 151.00" xmlns="http://www.w3.org/2000/svg" xmlns:xlink="http://www.w3.org/1999/xlink">
<g id="graph0" class="graph" transform="scale(1 1) rotate(0) translate(4 147)">
<title>src/hal/x4m0x_s70/xtio_gpio.c</title>
<polygon fill="white" stroke="none" points="-4,4 -4,-147 352,-147 352,4 -4,4"/>
<!-- Node0 -->
<g id="node1" class="node"><title>Node0</title>
<polygon fill="#bfbfbf" stroke="black" points="105,-112.5 105,-142.5 231,-142.5 231,-112.5 105,-112.5"/>
<text text-anchor="start" x="113" y="-130.5" font-family="Helvetica,sans-Serif" font-size="10.00">src/hal/x4m0x_s70/xtio</text>
<text text-anchor="middle" x="168" y="-119.5" font-family="Helvetica,sans-Serif" font-size="10.00">_gpio.c</text>
</g>
<!-- Node1 -->
<g id="node2" class="node"><title>Node1</title>
<g id="a_node2"><a xlink:href="x4m0x__s70_2xtio__gpio_8h.xhtml" target="_top" xlink:title="Local header file for xtio functions. ">
<polygon fill="white" stroke="red" points="0,-56.5 0,-75.5 68,-75.5 68,-56.5 0,-56.5"/>
<text text-anchor="middle" x="34" y="-63.5" font-family="Helvetica,sans-Serif" font-size="10.00">xtio_gpio.h</text>
</a>
</g>
</g>
<!-- Node0&#45;&gt;Node1 -->
<g id="edge1" class="edge"><title>Node0&#45;&gt;Node1</title>
<path fill="none" stroke="midnightblue" d="M136.244,-112.399C113.962,-102.505 84.4093,-89.3832 62.8086,-79.7919"/>
<polygon fill="midnightblue" stroke="midnightblue" points="64.0581,-76.5172 53.4982,-75.6578 61.2173,-82.9149 64.0581,-76.5172"/>
</g>
<!-- Node5 -->
<g id="node3" class="node"><title>Node5</title>
<g id="a_node3"><a xlink:href="board_8h.xhtml" target="_top" xlink:title="User board definition template. ">
<polygon fill="white" stroke="red" points="86.5,-56.5 86.5,-75.5 139.5,-75.5 139.5,-56.5 86.5,-56.5"/>
<text text-anchor="middle" x="113" y="-63.5" font-family="Helvetica,sans-Serif" font-size="10.00">board.h</text>
</a>
</g>
</g>
<!-- Node0&#45;&gt;Node5 -->
<g id="edge2" class="edge"><title>Node0&#45;&gt;Node5</title>
<path fill="none" stroke="midnightblue" d="M154.966,-112.399C146.809,-103.575 136.278,-92.1827 127.806,-83.0178"/>
<polygon fill="midnightblue" stroke="midnightblue" points="130.361,-80.6253 121.003,-75.6578 125.221,-85.3769 130.361,-80.6253"/>
</g>
<!-- Node8 -->
<g id="node4" class="node"><title>Node8</title>
<polygon fill="white" stroke="#bfbfbf" points="120,-0.5 120,-19.5 160,-19.5 160,-0.5 120,-0.5"/>
<text text-anchor="middle" x="140" y="-7.5" font-family="Helvetica,sans-Serif" font-size="10.00">pio.h</text>
</g>
<!-- Node0&#45;&gt;Node8 -->
<g id="edge5" class="edge"><title>Node0&#45;&gt;Node8</title>
<path fill="none" stroke="midnightblue" d="M164.567,-112.337C159.522,-91.5271 150.1,-52.6632 144.505,-29.5834"/>
<polygon fill="midnightblue" stroke="midnightblue" points="147.859,-28.5633 142.102,-19.6695 141.056,-30.2126 147.859,-28.5633"/>
</g>
<!-- Node9 -->
<g id="node5" class="node"><title>Node9</title>
<polygon fill="white" stroke="#bfbfbf" points="196.5,-56.5 196.5,-75.5 249.5,-75.5 249.5,-56.5 196.5,-56.5"/>
<text text-anchor="middle" x="223" y="-63.5" font-family="Helvetica,sans-Serif" font-size="10.00">ioport.h</text>
</g>
<!-- Node0&#45;&gt;Node9 -->
<g id="edge4" class="edge"><title>Node0&#45;&gt;Node9</title>
<path fill="none" stroke="midnightblue" d="M181.034,-112.399C189.191,-103.575 199.722,-92.1827 208.194,-83.0178"/>
<polygon fill="midnightblue" stroke="midnightblue" points="210.779,-85.3769 214.997,-75.6578 205.639,-80.6253 210.779,-85.3769"/>
</g>
<!-- Node10 -->
<g id="node6" class="node"><title>Node10</title>
<polygon fill="white" stroke="#bfbfbf" points="268,-56.5 268,-75.5 348,-75.5 348,-56.5 268,-56.5"/>
<text text-anchor="middle" x="308" y="-63.5" font-family="Helvetica,sans-Serif" font-size="10.00">pio_handler.h</text>
</g>
<!-- Node0&#45;&gt;Node10 -->
<g id="edge6" class="edge"><title>Node0&#45;&gt;Node10</title>
<path fill="none" stroke="midnightblue" d="M201.178,-112.399C224.563,-102.461 255.612,-89.2649 278.206,-79.6625"/>
<polygon fill="midnightblue" stroke="midnightblue" points="279.794,-82.7904 287.629,-75.6578 277.056,-76.3481 279.794,-82.7904"/>
</g>
<!-- Node5&#45;&gt;Node8 -->
<g id="edge3" class="edge"><title>Node5&#45;&gt;Node8</title>
<path fill="none" stroke="midnightblue" d="M117.459,-56.083C121.154,-48.6913 126.523,-37.9533 131.094,-28.8111"/>
<polygon fill="midnightblue" stroke="midnightblue" points="134.283,-30.2606 135.624,-19.7511 128.022,-27.1301 134.283,-30.2606"/>
</g>
</g>
</svg>
