<?xml version="1.0" encoding="UTF-8" standalone="no"?>
<!DOCTYPE svg PUBLIC "-//W3C//DTD SVG 1.1//EN"
 "http://www.w3.org/Graphics/SVG/1.1/DTD/svg11.dtd">
<!-- Generated by graphviz version 2.38.0 (20140413.2041)
 -->
<!-- Title: xtio_spi_init Pages: 1 -->
<svg width="264pt" height="420pt"
 viewBox="0.00 0.00 264.00 420.00" xmlns="http://www.w3.org/2000/svg" xmlns:xlink="http://www.w3.org/1999/xlink">
<g id="graph0" class="graph" transform="scale(1 1) rotate(0) translate(4 416)">
<title>xtio_spi_init</title>
<polygon fill="white" stroke="none" points="-4,4 -4,-416 260,-416 260,4 -4,4"/>
<!-- Node275 -->
<g id="node1" class="node"><title>Node275</title>
<polygon fill="#bfbfbf" stroke="black" points="0,-202.5 0,-221.5 72,-221.5 72,-202.5 0,-202.5"/>
<text text-anchor="middle" x="36" y="-209.5" font-family="Helvetica,sans-Serif" font-size="10.00">xtio_spi_init</text>
</g>
<!-- Node276 -->
<g id="node2" class="node"><title>Node276</title>
<g id="a_node2"><a xlink:href="xtio__spi_8c.xhtml#a118933f1e12fede0c1fdb33224bfe867" target="_top" xlink:title="xtio_set_spi_mode">
<polygon fill="white" stroke="black" points="129,-392.5 129,-411.5 235,-411.5 235,-392.5 129,-392.5"/>
<text text-anchor="middle" x="182" y="-399.5" font-family="Helvetica,sans-Serif" font-size="10.00">xtio_set_spi_mode</text>
</a>
</g>
</g>
<!-- Node275&#45;&gt;Node276 -->
<g id="edge1" class="edge"><title>Node275&#45;&gt;Node276</title>
<path fill="none" stroke="midnightblue" d="M38.0667,-221.867C41.7767,-251.183 56.8272,-338.484 108,-383 111.484,-386.031 115.394,-388.588 119.546,-390.743"/>
<polygon fill="midnightblue" stroke="midnightblue" points="118.385,-394.055 128.95,-394.849 121.186,-387.64 118.385,-394.055"/>
</g>
<!-- Node277 -->
<g id="node3" class="node"><title>Node277</title>
<g id="a_node3"><a xlink:href="xtio__spi_8c.xhtml#ab79cff6b91bff8a6f4f249a0bcb639e8" target="_top" xlink:title="xtio_get_spi_mode">
<polygon fill="white" stroke="black" points="128.5,-354.5 128.5,-373.5 235.5,-373.5 235.5,-354.5 128.5,-354.5"/>
<text text-anchor="middle" x="182" y="-361.5" font-family="Helvetica,sans-Serif" font-size="10.00">xtio_get_spi_mode</text>
</a>
</g>
</g>
<!-- Node275&#45;&gt;Node277 -->
<g id="edge2" class="edge"><title>Node275&#45;&gt;Node277</title>
<path fill="none" stroke="midnightblue" d="M39.3135,-221.777C45.6811,-246.479 65.8601,-311.783 108,-345 111.355,-347.645 115.041,-349.924 118.919,-351.888"/>
<polygon fill="midnightblue" stroke="midnightblue" points="117.681,-355.166 128.249,-355.922 120.459,-348.741 117.681,-355.166"/>
</g>
<!-- Node278 -->
<g id="node4" class="node"><title>Node278</title>
<g id="a_node4"><a xlink:href="xtio__spi_8c.xhtml#a8713e3dadd876e844883fe44a657a4bb" target="_top" xlink:title="xtio_spi_write">
<polygon fill="white" stroke="black" points="142,-316.5 142,-335.5 222,-335.5 222,-316.5 142,-316.5"/>
<text text-anchor="middle" x="182" y="-323.5" font-family="Helvetica,sans-Serif" font-size="10.00">xtio_spi_write</text>
</a>
</g>
</g>
<!-- Node275&#45;&gt;Node278 -->
<g id="edge3" class="edge"><title>Node275&#45;&gt;Node278</title>
<path fill="none" stroke="midnightblue" d="M41.4966,-221.796C50.9243,-241.205 74.6772,-284.601 108,-307 115.187,-311.831 123.532,-315.434 131.956,-318.121"/>
<polygon fill="midnightblue" stroke="midnightblue" points="131.246,-321.556 141.819,-320.873 133.127,-314.814 131.246,-321.556"/>
</g>
<!-- Node279 -->
<g id="node5" class="node"><title>Node279</title>
<g id="a_node5"><a xlink:href="xtio__spi_8c.xhtml#ac34e9895f91b7cb2b828a0bf5fd6e957" target="_top" xlink:title="xtio_spi_read">
<polygon fill="white" stroke="black" points="142,-278.5 142,-297.5 222,-297.5 222,-278.5 142,-278.5"/>
<text text-anchor="middle" x="182" y="-285.5" font-family="Helvetica,sans-Serif" font-size="10.00">xtio_spi_read</text>
</a>
</g>
</g>
<!-- Node275&#45;&gt;Node279 -->
<g id="edge4" class="edge"><title>Node275&#45;&gt;Node279</title>
<path fill="none" stroke="midnightblue" d="M46.1841,-221.561C58.9039,-234.253 83.14,-256.511 108,-269 115.404,-272.72 123.608,-275.761 131.764,-278.233"/>
<polygon fill="midnightblue" stroke="midnightblue" points="131.059,-281.67 141.631,-280.972 132.932,-274.925 131.059,-281.67"/>
</g>
<!-- Node280 -->
<g id="node6" class="node"><title>Node280</title>
<g id="a_node6"><a xlink:href="xtio__spi_8c.xhtml#a64a60847a947e7e747f90424e2e7fff7" target="_top" xlink:title="xtio_spi_write_read">
<polygon fill="white" stroke="red" points="128.5,-240.5 128.5,-259.5 235.5,-259.5 235.5,-240.5 128.5,-240.5"/>
<text text-anchor="middle" x="182" y="-247.5" font-family="Helvetica,sans-Serif" font-size="10.00">xtio_spi_write_read</text>
</a>
</g>
</g>
<!-- Node275&#45;&gt;Node280 -->
<g id="edge5" class="edge"><title>Node275&#45;&gt;Node280</title>
<path fill="none" stroke="midnightblue" d="M72.0169,-221.422C83.4801,-224.492 96.2793,-227.906 108,-231 116.556,-233.258 125.681,-235.648 134.479,-237.943"/>
<polygon fill="midnightblue" stroke="midnightblue" points="133.665,-241.347 144.225,-240.481 135.43,-234.573 133.665,-241.347"/>
</g>
<!-- Node285 -->
<g id="node7" class="node"><title>Node285</title>
<g id="a_node7"><a xlink:href="group__sam__drivers__qspi__group.xhtml#ga0880ebeed18b648d870d195869d7bbcb" target="_top" xlink:title="Set the number of data bits transferred. ">
<polygon fill="white" stroke="black" points="110.5,-202.5 110.5,-221.5 253.5,-221.5 253.5,-202.5 110.5,-202.5"/>
<text text-anchor="middle" x="182" y="-209.5" font-family="Helvetica,sans-Serif" font-size="10.00">qspi_set_bits_per_transfer</text>
</a>
</g>
</g>
<!-- Node275&#45;&gt;Node285 -->
<g id="edge6" class="edge"><title>Node275&#45;&gt;Node285</title>
<path fill="none" stroke="midnightblue" d="M72.2264,-212C80.8162,-212 90.3606,-212 100.126,-212"/>
<polygon fill="midnightblue" stroke="midnightblue" points="100.352,-215.5 110.352,-212 100.352,-208.5 100.352,-215.5"/>
</g>
<!-- Node286 -->
<g id="node8" class="node"><title>Node286</title>
<g id="a_node8"><a xlink:href="group__sam__drivers__qspi__group.xhtml#gace03a90819597dacca37b4b78a40d382" target="_top" xlink:title="Set qspi clock transfer delay. ">
<polygon fill="white" stroke="black" points="117,-164.5 117,-183.5 247,-183.5 247,-164.5 117,-164.5"/>
<text text-anchor="middle" x="182" y="-171.5" font-family="Helvetica,sans-Serif" font-size="10.00">qspi_set_transfer_delay</text>
</a>
</g>
</g>
<!-- Node275&#45;&gt;Node286 -->
<g id="edge7" class="edge"><title>Node275&#45;&gt;Node286</title>
<path fill="none" stroke="midnightblue" d="M72.0169,-202.578C83.4801,-199.508 96.2793,-196.094 108,-193 116.556,-190.742 125.681,-188.352 134.479,-186.057"/>
<polygon fill="midnightblue" stroke="midnightblue" points="135.43,-189.427 144.225,-183.519 133.665,-182.653 135.43,-189.427"/>
</g>
<!-- Node287 -->
<g id="node9" class="node"><title>Node287</title>
<g id="a_node9"><a xlink:href="group__sam__drivers__qspi__group.xhtml#ga187cc59e7a64feb10cb09f7529ff7eea" target="_top" xlink:title="Set qspi delay between consecutive transfers. ">
<polygon fill="white" stroke="black" points="115.5,-115 115.5,-145 248.5,-145 248.5,-115 115.5,-115"/>
<text text-anchor="start" x="123.5" y="-133" font-family="Helvetica,sans-Serif" font-size="10.00">qspi_set_delay_between</text>
<text text-anchor="middle" x="182" y="-122" font-family="Helvetica,sans-Serif" font-size="10.00">_consecutive_transfers</text>
</a>
</g>
</g>
<!-- Node275&#45;&gt;Node287 -->
<g id="edge8" class="edge"><title>Node275&#45;&gt;Node287</title>
<path fill="none" stroke="midnightblue" d="M46.7706,-202.284C59.7638,-189.83 83.9049,-168.264 108,-155 111.935,-152.834 116.092,-150.806 120.344,-148.918"/>
<polygon fill="midnightblue" stroke="midnightblue" points="121.866,-152.076 129.759,-145.008 119.181,-145.611 121.866,-152.076"/>
</g>
<!-- Node288 -->
<g id="node10" class="node"><title>Node288</title>
<g id="a_node10"><a xlink:href="group__sam__drivers__qspi__group.xhtml#ga4606b52c80f4bba49dc435501a4c7f9b" target="_top" xlink:title="Set Chip Select Mode. ">
<polygon fill="white" stroke="black" points="108,-76.5 108,-95.5 256,-95.5 256,-76.5 108,-76.5"/>
<text text-anchor="middle" x="182" y="-83.5" font-family="Helvetica,sans-Serif" font-size="10.00">qspi_set_chip_select_mode</text>
</a>
</g>
</g>
<!-- Node275&#45;&gt;Node288 -->
<g id="edge9" class="edge"><title>Node275&#45;&gt;Node288</title>
<path fill="none" stroke="midnightblue" d="M40.6721,-202.405C49.1682,-181.521 72.2293,-131.754 108,-106 111.419,-103.538 115.127,-101.379 118.998,-99.4862"/>
<polygon fill="midnightblue" stroke="midnightblue" points="120.44,-102.676 128.265,-95.5333 117.693,-96.2374 120.44,-102.676"/>
</g>
<!-- Node289 -->
<g id="node11" class="node"><title>Node289</title>
<g id="a_node11"><a xlink:href="group__sam__drivers__qspi__group.xhtml#ga31cb74b30165e2846ceda94ed0dbf759" target="_top" xlink:title="Set QSPI to Memory mode. ">
<polygon fill="white" stroke="black" points="114.5,-38.5 114.5,-57.5 249.5,-57.5 249.5,-38.5 114.5,-38.5"/>
<text text-anchor="middle" x="182" y="-45.5" font-family="Helvetica,sans-Serif" font-size="10.00">qspi_set_memory_mode</text>
</a>
</g>
</g>
<!-- Node275&#45;&gt;Node289 -->
<g id="edge10" class="edge"><title>Node275&#45;&gt;Node289</title>
<path fill="none" stroke="midnightblue" d="M38.8695,-202.132C44.3784,-175.858 63.069,-103.71 108,-67 110.085,-65.2962 112.307,-63.7436 114.629,-62.3288"/>
<polygon fill="midnightblue" stroke="midnightblue" points="116.702,-65.1992 124.009,-57.5269 113.513,-58.9681 116.702,-65.1992"/>
</g>
<!-- Node290 -->
<g id="node12" class="node"><title>Node290</title>
<g id="a_node12"><a xlink:href="xtio__spi_8c.xhtml#a84d28ff65169bee4a4017e614e9bb331" target="_top" xlink:title="[set_pin_peripheral_mode description] ">
<polygon fill="white" stroke="black" points="113.5,-0.5 113.5,-19.5 250.5,-19.5 250.5,-0.5 113.5,-0.5"/>
<text text-anchor="middle" x="182" y="-7.5" font-family="Helvetica,sans-Serif" font-size="10.00">set_pin_peripheral_mode</text>
</a>
</g>
</g>
<!-- Node275&#45;&gt;Node290 -->
<g id="edge11" class="edge"><title>Node275&#45;&gt;Node290</title>
<path fill="none" stroke="midnightblue" d="M37.7488,-202.332C40.6397,-171.905 53.7972,-77.2791 108,-29 109.748,-27.443 111.608,-26.0108 113.555,-24.6936"/>
<polygon fill="midnightblue" stroke="midnightblue" points="115.576,-27.573 122.581,-19.6241 112.148,-21.4699 115.576,-27.573"/>
</g>
</g>
</svg>
