<?xml version="1.0" encoding="UTF-8" standalone="no"?>
<!DOCTYPE svg PUBLIC "-//W3C//DTD SVG 1.1//EN"
 "http://www.w3.org/Graphics/SVG/1.1/DTD/svg11.dtd">
<!-- Generated by graphviz version 2.38.0 (20140413.2041)
 -->
<!-- Title: xtio_set_pin_mode Pages: 1 -->
<svg width="264pt" height="142pt"
 viewBox="0.00 0.00 264.00 142.00" xmlns="http://www.w3.org/2000/svg" xmlns:xlink="http://www.w3.org/1999/xlink">
<g id="graph0" class="graph" transform="scale(1 1) rotate(0) translate(4 138)">
<title>xtio_set_pin_mode</title>
<polygon fill="white" stroke="none" points="-4,4 -4,-138 260,-138 260,4 -4,4"/>
<!-- Node260 -->
<g id="node1" class="node"><title>Node260</title>
<polygon fill="#bfbfbf" stroke="black" points="0,-57.5 0,-76.5 107,-76.5 107,-57.5 0,-57.5"/>
<text text-anchor="middle" x="53.5" y="-64.5" font-family="Helvetica,sans-Serif" font-size="10.00">xtio_set_pin_mode</text>
</g>
<!-- Node261 -->
<g id="node2" class="node"><title>Node261</title>
<g id="a_node2"><a xlink:href="radar__hal_8h.xhtml#ad63d969948a6bec2a0c98d02c6296446" target="_top" xlink:title="Initiate Radar HAL. ">
<polygon fill="white" stroke="red" points="159,-114.5 159,-133.5 240,-133.5 240,-114.5 159,-114.5"/>
<text text-anchor="middle" x="199.5" y="-121.5" font-family="Helvetica,sans-Serif" font-size="10.00">radar_hal_init</text>
</a>
</g>
</g>
<!-- Node260&#45;&gt;Node261 -->
<g id="edge1" class="edge"><title>Node260&#45;&gt;Node261</title>
<path fill="none" stroke="midnightblue" d="M84.8247,-80.6954C101.804,-88.1928 123.435,-97.463 143,-105 151.458,-108.258 160.743,-111.548 169.258,-114.452"/>
<polygon fill="midnightblue" stroke="midnightblue" points="85.9755,-77.3767 75.4159,-76.5124 83.1317,-83.7731 85.9755,-77.3767"/>
</g>
<!-- Node265 -->
<g id="node3" class="node"><title>Node265</title>
<g id="a_node3"><a xlink:href="hal__board__init_8c.xhtml#ab9b8be01cc5338f2a5b10e5c79b86910" target="_top" xlink:title="Initiate basic HW functionality on HW board and MCU. ">
<polygon fill="white" stroke="red" points="160.5,-76.5 160.5,-95.5 238.5,-95.5 238.5,-76.5 160.5,-76.5"/>
<text text-anchor="middle" x="199.5" y="-83.5" font-family="Helvetica,sans-Serif" font-size="10.00">xt_board_init</text>
</a>
</g>
</g>
<!-- Node260&#45;&gt;Node265 -->
<g id="edge2" class="edge"><title>Node260&#45;&gt;Node265</title>
<path fill="none" stroke="midnightblue" d="M117.288,-75.2845C131.872,-77.2088 146.969,-79.2008 160.132,-80.9376"/>
<polygon fill="midnightblue" stroke="midnightblue" points="117.675,-71.8053 107.303,-73.967 116.759,-78.7451 117.675,-71.8053"/>
</g>
<!-- Node266 -->
<g id="node4" class="node"><title>Node266</title>
<g id="a_node4"><a xlink:href="hal__board__init_8c.xhtml#afed868f7f00e42b1e2ad4914f557d5b4" target="_top" xlink:title="Initiate extended HW functionality on HW board and MCU. ">
<polygon fill="white" stroke="red" points="150.5,-38.5 150.5,-57.5 248.5,-57.5 248.5,-38.5 150.5,-38.5"/>
<text text-anchor="middle" x="199.5" y="-45.5" font-family="Helvetica,sans-Serif" font-size="10.00">xt_board_init_ext</text>
</a>
</g>
</g>
<!-- Node260&#45;&gt;Node266 -->
<g id="edge3" class="edge"><title>Node260&#45;&gt;Node266</title>
<path fill="none" stroke="midnightblue" d="M117.38,-58.7033C128.477,-57.2391 139.868,-55.7362 150.475,-54.3366"/>
<polygon fill="midnightblue" stroke="midnightblue" points="116.759,-55.2549 107.303,-60.033 117.675,-62.1947 116.759,-55.2549"/>
</g>
<!-- Node267 -->
<g id="node5" class="node"><title>Node267</title>
<g id="a_node5"><a xlink:href="task__radar_8c.xhtml#a4fee3ee4025e6d4e8dc667598f8bc27f" target="_top" xlink:title="x4driver_enable_ISR">
<polygon fill="white" stroke="red" points="143,-0.5 143,-19.5 256,-19.5 256,-0.5 143,-0.5"/>
<text text-anchor="middle" x="199.5" y="-7.5" font-family="Helvetica,sans-Serif" font-size="10.00">x4driver_enable_ISR</text>
</a>
</g>
</g>
<!-- Node260&#45;&gt;Node267 -->
<g id="edge4" class="edge"><title>Node260&#45;&gt;Node267</title>
<path fill="none" stroke="midnightblue" d="M84.8247,-53.3046C101.804,-45.8072 123.435,-36.537 143,-29 151.458,-25.7417 160.743,-22.4525 169.258,-19.5477"/>
<polygon fill="midnightblue" stroke="midnightblue" points="83.1317,-50.2269 75.4159,-57.4876 85.9755,-56.6233 83.1317,-50.2269"/>
</g>
</g>
</svg>
