<?xml version="1.0" encoding="UTF-8" standalone="no"?>
<!DOCTYPE svg PUBLIC "-//W3C//DTD SVG 1.1//EN"
 "http://www.w3.org/Graphics/SVG/1.1/DTD/svg11.dtd">
<!-- Generated by graphviz version 2.38.0 (20140413.2041)
 -->
<!-- Title: dispatch_message_hostcom_send_reply_int Pages: 1 -->
<svg width="320pt" height="66pt"
 viewBox="0.00 0.00 320.00 66.00" xmlns="http://www.w3.org/2000/svg" xmlns:xlink="http://www.w3.org/1999/xlink">
<g id="graph0" class="graph" transform="scale(1 1) rotate(0) translate(4 62)">
<title>dispatch_message_hostcom_send_reply_int</title>
<polygon fill="white" stroke="none" points="-4,4 -4,-62 316,-62 316,4 -4,4"/>
<!-- Node265 -->
<g id="node1" class="node"><title>Node265</title>
<polygon fill="#bfbfbf" stroke="black" points="0,-14 0,-44 154,-44 154,-14 0,-14"/>
<text text-anchor="start" x="8" y="-32" font-family="Helvetica,sans-Serif" font-size="10.00">dispatch_message_hostcom</text>
<text text-anchor="middle" x="77" y="-21" font-family="Helvetica,sans-Serif" font-size="10.00">_send_reply_int</text>
</g>
<!-- Node266 -->
<g id="node2" class="node"><title>Node266</title>
<g id="a_node2"><a xlink:href="xep__application__mcp__callbacks_8h.xhtml#a517a6a5e38e78fe052aee8b47822d6ed" target="_top" xlink:title="onMcpX4DriverGetFps">
<polygon fill="white" stroke="red" points="190,-38.5 190,-57.5 312,-57.5 312,-38.5 190,-38.5"/>
<text text-anchor="middle" x="251" y="-45.5" font-family="Helvetica,sans-Serif" font-size="10.00">onMcpX4DriverGetFps</text>
</a>
</g>
</g>
<!-- Node265&#45;&gt;Node266 -->
<g id="edge1" class="edge"><title>Node265&#45;&gt;Node266</title>
<path fill="none" stroke="midnightblue" d="M164.316,-38.5349C172.956,-39.4893 181.592,-40.4433 189.874,-41.3582"/>
<polygon fill="midnightblue" stroke="midnightblue" points="164.517,-35.0359 154.193,-37.4167 163.748,-41.9935 164.517,-35.0359"/>
</g>
<!-- Node270 -->
<g id="node3" class="node"><title>Node270</title>
<g id="a_node3"><a xlink:href="xep__application__mcp__callbacks_8h.xhtml#ab45991b5af535952ce2020e56a1f23ca" target="_top" xlink:title="onMcpGetIOPinValue">
<polygon fill="white" stroke="red" points="193,-0.5 193,-19.5 309,-19.5 309,-0.5 193,-0.5"/>
<text text-anchor="middle" x="251" y="-7.5" font-family="Helvetica,sans-Serif" font-size="10.00">onMcpGetIOPinValue</text>
</a>
</g>
</g>
<!-- Node265&#45;&gt;Node270 -->
<g id="edge2" class="edge"><title>Node265&#45;&gt;Node270</title>
<path fill="none" stroke="midnightblue" d="M164.31,-19.4658C174.037,-18.3913 183.758,-17.3175 192.976,-16.2991"/>
<polygon fill="midnightblue" stroke="midnightblue" points="163.748,-16.0065 154.193,-20.5833 164.517,-22.9641 163.748,-16.0065"/>
</g>
</g>
</svg>
