<?xml version="1.0" encoding="UTF-8" standalone="no"?>
<!DOCTYPE svg PUBLIC "-//W3C//DTD SVG 1.1//EN"
 "http://www.w3.org/Graphics/SVG/1.1/DTD/svg11.dtd">
<!-- Generated by graphviz version 2.38.0 (20140413.2041)
 -->
<!-- Title: dispatch_release_message Pages: 1 -->
<svg width="340pt" height="203pt"
 viewBox="0.00 0.00 340.00 202.50" xmlns="http://www.w3.org/2000/svg" xmlns:xlink="http://www.w3.org/1999/xlink">
<g id="graph0" class="graph" transform="scale(1 1) rotate(0) translate(4 198.5)">
<title>dispatch_release_message</title>
<polygon fill="white" stroke="none" points="-4,4 -4,-198.5 336,-198.5 336,4 -4,4"/>
<!-- Node46 -->
<g id="node1" class="node"><title>Node46</title>
<polygon fill="#bfbfbf" stroke="black" points="0,-99 0,-118 147,-118 147,-99 0,-99"/>
<text text-anchor="middle" x="73.5" y="-106" font-family="Helvetica,sans-Serif" font-size="10.00">dispatch_release_message</text>
</g>
<!-- Node47 -->
<g id="node2" class="node"><title>Node47</title>
<g id="a_node2"><a xlink:href="xep__dispatch_8c.xhtml#a7bad5694c10b470cac80025bd27f6fa9" target="_top" xlink:title="Send message on dispatcher. ">
<polygon fill="white" stroke="red" points="190,-175 190,-194 325,-194 325,-175 190,-175"/>
<text text-anchor="middle" x="257.5" y="-182" font-family="Helvetica,sans-Serif" font-size="10.00">dispatch_send_message</text>
</a>
</g>
</g>
<!-- Node46&#45;&gt;Node47 -->
<g id="edge1" class="edge"><title>Node46&#45;&gt;Node47</title>
<path fill="none" stroke="midnightblue" d="M98.9143,-123.42C120.418,-136.044 152.912,-153.887 183,-165.5 192.468,-169.154 202.89,-172.329 212.835,-174.982"/>
<polygon fill="midnightblue" stroke="midnightblue" points="100.517,-120.3 90.1333,-118.195 96.9374,-126.316 100.517,-120.3"/>
</g>
<!-- Node111 -->
<g id="node3" class="node"><title>Node111</title>
<g id="a_node3"><a xlink:href="xep__dispatch_8c.xhtml#ae2f44f0cec8ac73f19a6822c1273af28" target="_top" xlink:title="Forward message to a different message tag. ">
<polygon fill="white" stroke="red" points="184,-137 184,-156 331,-156 331,-137 184,-137"/>
<text text-anchor="middle" x="257.5" y="-144" font-family="Helvetica,sans-Serif" font-size="10.00">dispatch_forward_message</text>
</a>
</g>
</g>
<!-- Node46&#45;&gt;Node111 -->
<g id="edge2" class="edge"><title>Node46&#45;&gt;Node111</title>
<path fill="none" stroke="midnightblue" d="M130.446,-120.181C156.256,-125.57 186.507,-131.886 210.904,-136.98"/>
<polygon fill="midnightblue" stroke="midnightblue" points="130.931,-116.707 120.426,-118.089 129.5,-123.559 130.931,-116.707"/>
</g>
<!-- Node114 -->
<g id="node4" class="node"><title>Node114</title>
<g id="a_node4"><a xlink:href="xep__dispatch_8c.xhtml#a249dcc57bc281563931b44ce62e77bcb" target="_top" xlink:title="Reply to message. ">
<polygon fill="white" stroke="black" points="190,-99 190,-118 325,-118 325,-99 190,-99"/>
<text text-anchor="middle" x="257.5" y="-106" font-family="Helvetica,sans-Serif" font-size="10.00">dispatch_reply_message</text>
</a>
</g>
</g>
<!-- Node46&#45;&gt;Node114 -->
<g id="edge3" class="edge"><title>Node46&#45;&gt;Node114</title>
<path fill="none" stroke="midnightblue" d="M157.518,-108.5C168.332,-108.5 179.298,-108.5 189.799,-108.5"/>
<polygon fill="midnightblue" stroke="midnightblue" points="157.216,-105 147.216,-108.5 157.216,-112 157.216,-105"/>
</g>
<!-- Node115 -->
<g id="node5" class="node"><title>Node115</title>
<g id="a_node5"><a xlink:href="task__hostcom_8c.xhtml#a3ac02c1c3bd0b84c4488bce13f8fc1d9" target="_top" xlink:title="process_dispatch_message\l_hostcom_send">
<polygon fill="white" stroke="red" points="183,-49.5 183,-79.5 332,-79.5 332,-49.5 183,-49.5"/>
<text text-anchor="start" x="191" y="-67.5" font-family="Helvetica,sans-Serif" font-size="10.00">process_dispatch_message</text>
<text text-anchor="middle" x="257.5" y="-56.5" font-family="Helvetica,sans-Serif" font-size="10.00">_hostcom_send</text>
</a>
</g>
</g>
<!-- Node46&#45;&gt;Node115 -->
<g id="edge4" class="edge"><title>Node46&#45;&gt;Node115</title>
<path fill="none" stroke="midnightblue" d="M123.95,-96.545C145.601,-91.3108 171.247,-85.1107 194.184,-79.5654"/>
<polygon fill="midnightblue" stroke="midnightblue" points="122.889,-93.2007 113.991,-98.9527 124.534,-100.005 122.889,-93.2007"/>
</g>
<!-- Node113 -->
<g id="node6" class="node"><title>Node113</title>
<g id="a_node6"><a xlink:href="xep__application_8c.xhtml#a038116ea60c2b708d4ab52b0eff00379" target="_top" xlink:title="Process dispatch messages. ">
<polygon fill="white" stroke="black" points="196.5,-0.5 196.5,-30.5 318.5,-30.5 318.5,-0.5 196.5,-0.5"/>
<text text-anchor="start" x="204.5" y="-18.5" font-family="Helvetica,sans-Serif" font-size="10.00">xep_process_dispatch</text>
<text text-anchor="middle" x="257.5" y="-7.5" font-family="Helvetica,sans-Serif" font-size="10.00">_message_default</text>
</a>
</g>
</g>
<!-- Node46&#45;&gt;Node113 -->
<g id="edge5" class="edge"><title>Node46&#45;&gt;Node113</title>
<path fill="none" stroke="midnightblue" d="M95.9299,-92.9714C117.223,-78.0568 151.204,-55.6189 183,-40.5 190.547,-36.9115 198.749,-33.5948 206.847,-30.6288"/>
<polygon fill="midnightblue" stroke="midnightblue" points="93.7581,-90.2207 87.6244,-98.8595 97.8066,-95.9312 93.7581,-90.2207"/>
</g>
</g>
</svg>
