<?xml version="1.0" encoding="UTF-8" standalone="no"?>
<!DOCTYPE svg PUBLIC "-//W3C//DTD SVG 1.1//EN"
 "http://www.w3.org/Graphics/SVG/1.1/DTD/svg11.dtd">
<!-- Generated by graphviz version 2.38.0 (20140413.2041)
 -->
<!-- Title: dispatch_message_hostcom_send_reply_float Pages: 1 -->
<svg width="356pt" height="78pt"
 viewBox="0.00 0.00 356.00 77.50" xmlns="http://www.w3.org/2000/svg" xmlns:xlink="http://www.w3.org/1999/xlink">
<g id="graph0" class="graph" transform="scale(1 1) rotate(0) translate(4 73.5)">
<title>dispatch_message_hostcom_send_reply_float</title>
<polygon fill="white" stroke="none" points="-4,4 -4,-73.5 352,-73.5 352,4 -4,4"/>
<!-- Node250 -->
<g id="node1" class="node"><title>Node250</title>
<polygon fill="#bfbfbf" stroke="black" points="0,-22.5 0,-52.5 154,-52.5 154,-22.5 0,-22.5"/>
<text text-anchor="start" x="8" y="-40.5" font-family="Helvetica,sans-Serif" font-size="10.00">dispatch_message_hostcom</text>
<text text-anchor="middle" x="77" y="-29.5" font-family="Helvetica,sans-Serif" font-size="10.00">_send_reply_float</text>
</g>
<!-- Node251 -->
<g id="node2" class="node"><title>Node251</title>
<g id="a_node2"><a xlink:href="xep__application__mcp__callbacks_8h.xhtml#af51dbd5d964702e184cdde97fccc4f40" target="_top" xlink:title="onMcpX4DriverGetFrameArea">
<polygon fill="white" stroke="red" points="190,-50 190,-69 348,-69 348,-50 190,-50"/>
<text text-anchor="middle" x="269" y="-57" font-family="Helvetica,sans-Serif" font-size="10.00">onMcpX4DriverGetFrameArea</text>
</a>
</g>
</g>
<!-- Node250&#45;&gt;Node251 -->
<g id="edge1" class="edge"><title>Node250&#45;&gt;Node251</title>
<path fill="none" stroke="midnightblue" d="M164.194,-47.4804C172.773,-48.4737 181.447,-49.4781 189.936,-50.461"/>
<polygon fill="midnightblue" stroke="midnightblue" points="164.522,-43.995 154.185,-46.3215 163.717,-50.9485 164.522,-43.995"/>
</g>
<!-- Node255 -->
<g id="node3" class="node"><title>Node255</title>
<g id="a_node3"><a xlink:href="xep__application__mcp__callbacks_8h.xhtml#a47560a41123b4f6b65fed7233f6e8473" target="_top" xlink:title="onMcpX4DriverGetFrameArea\lOffset">
<polygon fill="white" stroke="red" points="190,-0.5 190,-30.5 348,-30.5 348,-0.5 190,-0.5"/>
<text text-anchor="start" x="198" y="-18.5" font-family="Helvetica,sans-Serif" font-size="10.00">onMcpX4DriverGetFrameArea</text>
<text text-anchor="middle" x="269" y="-7.5" font-family="Helvetica,sans-Serif" font-size="10.00">Offset</text>
</a>
</g>
</g>
<!-- Node250&#45;&gt;Node255 -->
<g id="edge2" class="edge"><title>Node250&#45;&gt;Node255</title>
<path fill="none" stroke="midnightblue" d="M164.194,-27.5196C172.773,-26.5263 181.447,-25.5219 189.936,-24.539"/>
<polygon fill="midnightblue" stroke="midnightblue" points="163.717,-24.0515 154.185,-28.6785 164.522,-31.005 163.717,-24.0515"/>
</g>
</g>
</svg>
