<?xml version="1.0" encoding="UTF-8" standalone="no"?>
<!DOCTYPE svg PUBLIC "-//W3C//DTD SVG 1.1//EN"
 "http://www.w3.org/Graphics/SVG/1.1/DTD/svg11.dtd">
<!-- Generated by graphviz version 2.38.0 (20140413.2041)
 -->
<!-- Title: task_application_init Pages: 1 -->
<svg width="340pt" height="1394pt"
 viewBox="0.00 0.00 340.00 1394.00" xmlns="http://www.w3.org/2000/svg" xmlns:xlink="http://www.w3.org/1999/xlink">
<g id="graph0" class="graph" transform="scale(1 1) rotate(0) translate(4 1390)">
<title>task_application_init</title>
<polygon fill="white" stroke="none" points="-4,4 -4,-1390 336,-1390 336,4 -4,4"/>
<!-- Node0 -->
<g id="node1" class="node"><title>Node0</title>
<polygon fill="#bfbfbf" stroke="black" points="0,-701.5 0,-720.5 113,-720.5 113,-701.5 0,-701.5"/>
<text text-anchor="middle" x="56.5" y="-708.5" font-family="Helvetica,sans-Serif" font-size="10.00">task_application_init</text>
</g>
<!-- Node1 -->
<g id="node2" class="node"><title>Node1</title>
<g id="a_node2"><a xlink:href="xtmemory_8h.xhtml#ac094f55ba76fe2ae6e6b584f62ede7e0" target="_top" xlink:title="Allocate memory from default location. ">
<polygon fill="white" stroke="red" points="170,-1366.5 170,-1385.5 311,-1385.5 311,-1366.5 170,-1366.5"/>
<text text-anchor="middle" x="240.5" y="-1373.5" font-family="Helvetica,sans-Serif" font-size="10.00">xtmemory_malloc_default</text>
</a>
</g>
</g>
<!-- Node0&#45;&gt;Node1 -->
<g id="edge1" class="edge"><title>Node0&#45;&gt;Node1</title>
<path fill="none" stroke="midnightblue" d="M57.413,-720.891C56.9712,-794.722 57.862,-1259.62 149,-1357 152.452,-1360.69 156.423,-1363.76 160.733,-1366.3"/>
<polygon fill="midnightblue" stroke="midnightblue" points="159.477,-1369.58 169.999,-1370.83 162.547,-1363.29 159.477,-1369.58"/>
</g>
<!-- Node8 -->
<g id="node3" class="node"><title>Node8</title>
<g id="a_node3"><a xlink:href="xep__application__mcp__callbacks_8c.xhtml#a657ff3cc1434f9d77e2a82d5765f7dd1" target="_top" xlink:title="onMcpPing">
<polygon fill="white" stroke="red" points="206.5,-1328.5 206.5,-1347.5 274.5,-1347.5 274.5,-1328.5 206.5,-1328.5"/>
<text text-anchor="middle" x="240.5" y="-1335.5" font-family="Helvetica,sans-Serif" font-size="10.00">onMcpPing</text>
</a>
</g>
</g>
<!-- Node0&#45;&gt;Node8 -->
<g id="edge2" class="edge"><title>Node0&#45;&gt;Node8</title>
<path fill="none" stroke="midnightblue" d="M57.508,-720.762C57.7703,-791.696 62.9007,-1227.8 149,-1319 160.956,-1331.66 179.03,-1337.01 195.891,-1338.96"/>
<polygon fill="midnightblue" stroke="midnightblue" points="195.922,-1342.47 206.167,-1339.77 196.474,-1335.49 195.922,-1342.47"/>
</g>
<!-- Node18 -->
<g id="node4" class="node"><title>Node18</title>
<g id="a_node4"><a xlink:href="xep__application__mcp__callbacks_8c.xhtml#ae7b3e06d0246123e0e1d0d9a7667ff4e" target="_top" xlink:title="onMcpUnknown">
<polygon fill="white" stroke="red" points="194.5,-1290.5 194.5,-1309.5 286.5,-1309.5 286.5,-1290.5 194.5,-1290.5"/>
<text text-anchor="middle" x="240.5" y="-1297.5" font-family="Helvetica,sans-Serif" font-size="10.00">onMcpUnknown</text>
</a>
</g>
</g>
<!-- Node0&#45;&gt;Node18 -->
<g id="edge3" class="edge"><title>Node0&#45;&gt;Node18</title>
<path fill="none" stroke="midnightblue" d="M57.6119,-720.586C58.6037,-788.435 67.9133,-1195.94 149,-1281 158.269,-1290.72 171.147,-1296.12 184.284,-1298.98"/>
<polygon fill="midnightblue" stroke="midnightblue" points="183.878,-1302.46 194.325,-1300.7 185.061,-1295.56 183.878,-1302.46"/>
</g>
<!-- Node20 -->
<g id="node5" class="node"><title>Node20</title>
<g id="a_node5"><a xlink:href="xep__application__mcp__callbacks_8c.xhtml#ade8de22b982f74c728af66c33bcf42e2" target="_top" xlink:title="onMcpSystemRunTest">
<polygon fill="white" stroke="red" points="180,-1252.5 180,-1271.5 301,-1271.5 301,-1252.5 180,-1252.5"/>
<text text-anchor="middle" x="240.5" y="-1259.5" font-family="Helvetica,sans-Serif" font-size="10.00">onMcpSystemRunTest</text>
</a>
</g>
</g>
<!-- Node0&#45;&gt;Node20 -->
<g id="edge4" class="edge"><title>Node0&#45;&gt;Node20</title>
<path fill="none" stroke="midnightblue" d="M57.7364,-720.781C59.5286,-786.56 73.0612,-1164.23 149,-1243 154.926,-1249.15 162.297,-1253.56 170.255,-1256.69"/>
<polygon fill="midnightblue" stroke="midnightblue" points="169.224,-1260.04 179.816,-1259.81 171.395,-1253.38 169.224,-1260.04"/>
</g>
<!-- Node26 -->
<g id="node6" class="node"><title>Node26</title>
<g id="a_node6"><a xlink:href="xep__application__mcp__callbacks_8c.xhtml#af7cff88ca2e2e7bf89b8616a868e2cda" target="_top" xlink:title="onMcpModuleReset">
<polygon fill="white" stroke="red" points="186,-1214.5 186,-1233.5 295,-1233.5 295,-1214.5 186,-1214.5"/>
<text text-anchor="middle" x="240.5" y="-1221.5" font-family="Helvetica,sans-Serif" font-size="10.00">onMcpModuleReset</text>
</a>
</g>
</g>
<!-- Node0&#45;&gt;Node26 -->
<g id="edge5" class="edge"><title>Node0&#45;&gt;Node26</title>
<path fill="none" stroke="midnightblue" d="M57.8807,-720.89C60.522,-784.214 78.1599,-1132.45 149,-1205 156.31,-1212.49 165.763,-1217.39 175.795,-1220.55"/>
<polygon fill="midnightblue" stroke="midnightblue" points="174.981,-1223.95 185.539,-1223.06 176.731,-1217.17 174.981,-1223.95"/>
</g>
<!-- Node29 -->
<g id="node7" class="node"><title>Node29</title>
<g id="a_node7"><a xlink:href="xep__application__mcp__callbacks_8c.xhtml#a8f52f6e72bd93b3a11b2c922730ee484" target="_top" xlink:title="onMcpStartBootloader">
<polygon fill="white" stroke="red" points="178,-1176.5 178,-1195.5 303,-1195.5 303,-1176.5 178,-1176.5"/>
<text text-anchor="middle" x="240.5" y="-1183.5" font-family="Helvetica,sans-Serif" font-size="10.00">onMcpStartBootloader</text>
</a>
</g>
</g>
<!-- Node0&#45;&gt;Node29 -->
<g id="edge6" class="edge"><title>Node0&#45;&gt;Node29</title>
<path fill="none" stroke="midnightblue" d="M58.0233,-720.518C61.4893,-780.019 83.0654,-1100.48 149,-1167 154.361,-1172.41 160.843,-1176.47 167.846,-1179.49"/>
<polygon fill="midnightblue" stroke="midnightblue" points="167.068,-1182.92 177.662,-1182.99 169.422,-1176.33 167.068,-1182.92"/>
</g>
<!-- Node32 -->
<g id="node8" class="node"><title>Node32</title>
<g id="a_node8"><a xlink:href="xep__application__mcp__callbacks_8c.xhtml#a6386ca62ddee009e2b423b72121ab4ef" target="_top" xlink:title="onMcpGetSystemInfo">
<polygon fill="white" stroke="red" points="181,-1138.5 181,-1157.5 300,-1157.5 300,-1138.5 181,-1138.5"/>
<text text-anchor="middle" x="240.5" y="-1145.5" font-family="Helvetica,sans-Serif" font-size="10.00">onMcpGetSystemInfo</text>
</a>
</g>
</g>
<!-- Node0&#45;&gt;Node32 -->
<g id="edge7" class="edge"><title>Node0&#45;&gt;Node32</title>
<path fill="none" stroke="midnightblue" d="M58.233,-720.822C62.7084,-778.117 88.2013,-1068.72 149,-1129 155.146,-1135.09 162.716,-1139.46 170.838,-1142.56"/>
<polygon fill="midnightblue" stroke="midnightblue" points="169.984,-1145.97 180.575,-1145.65 172.099,-1139.29 169.984,-1145.97"/>
</g>
<!-- Node36 -->
<g id="node9" class="node"><title>Node36</title>
<g id="a_node9"><a xlink:href="xep__application__mcp__callbacks_8c.xhtml#a8850c282d398f5566ab9c2d486e96aeb" target="_top" xlink:title="onMcpSetIOPinControl">
<polygon fill="white" stroke="red" points="179,-1100.5 179,-1119.5 302,-1119.5 302,-1100.5 179,-1100.5"/>
<text text-anchor="middle" x="240.5" y="-1107.5" font-family="Helvetica,sans-Serif" font-size="10.00">onMcpSetIOPinControl</text>
</a>
</g>
</g>
<!-- Node0&#45;&gt;Node36 -->
<g id="edge8" class="edge"><title>Node0&#45;&gt;Node36</title>
<path fill="none" stroke="midnightblue" d="M58.4426,-720.629C63.8977,-774.369 93.1377,-1036.75 149,-1091 154.75,-1096.58 161.699,-1100.71 169.16,-1103.74"/>
<polygon fill="midnightblue" stroke="midnightblue" points="168.24,-1107.12 178.834,-1107.01 170.484,-1100.49 168.24,-1107.12"/>
</g>
<!-- Node39 -->
<g id="node10" class="node"><title>Node39</title>
<g id="a_node10"><a xlink:href="xep__application__mcp__callbacks_8c.xhtml#a8e7d3bc0aacfe4f2fd3e8313afc11321" target="_top" xlink:title="onMcpSetIOPinValue">
<polygon fill="white" stroke="red" points="183,-1062.5 183,-1081.5 298,-1081.5 298,-1062.5 183,-1062.5"/>
<text text-anchor="middle" x="240.5" y="-1069.5" font-family="Helvetica,sans-Serif" font-size="10.00">onMcpSetIOPinValue</text>
</a>
</g>
</g>
<!-- Node0&#45;&gt;Node39 -->
<g id="edge9" class="edge"><title>Node0&#45;&gt;Node39</title>
<path fill="none" stroke="midnightblue" d="M58.7185,-720.65C65.2917,-771.182 98.1232,-1004.82 149,-1053 155.763,-1059.4 164.109,-1063.88 172.972,-1066.98"/>
<polygon fill="midnightblue" stroke="midnightblue" points="172.163,-1070.39 182.743,-1069.82 174.118,-1063.66 172.163,-1070.39"/>
</g>
<!-- Node41 -->
<g id="node11" class="node"><title>Node41</title>
<g id="a_node11"><a xlink:href="xep__application__mcp__callbacks_8c.xhtml#ab45991b5af535952ce2020e56a1f23ca" target="_top" xlink:title="onMcpGetIOPinValue">
<polygon fill="white" stroke="red" points="182.5,-1024.5 182.5,-1043.5 298.5,-1043.5 298.5,-1024.5 182.5,-1024.5"/>
<text text-anchor="middle" x="240.5" y="-1031.5" font-family="Helvetica,sans-Serif" font-size="10.00">onMcpGetIOPinValue</text>
</a>
</g>
</g>
<!-- Node0&#45;&gt;Node41 -->
<g id="edge10" class="edge"><title>Node0&#45;&gt;Node41</title>
<path fill="none" stroke="midnightblue" d="M57.1558,-720.709C56.2265,-762.894 58.4578,-931.88 149,-1015 155.774,-1021.22 164.048,-1025.61 172.811,-1028.67"/>
<polygon fill="midnightblue" stroke="midnightblue" points="171.883,-1032.05 182.464,-1031.5 173.852,-1025.33 171.883,-1032.05"/>
</g>
<!-- Node44 -->
<g id="node12" class="node"><title>Node44</title>
<g id="a_node12"><a xlink:href="xep__application__mcp__callbacks_8c.xhtml#af985c748b39a157f646e4f712fc3e077" target="_top" xlink:title="onMcpX4DriverSetFps">
<polygon fill="white" stroke="red" points="179.5,-986.5 179.5,-1005.5 301.5,-1005.5 301.5,-986.5 179.5,-986.5"/>
<text text-anchor="middle" x="240.5" y="-993.5" font-family="Helvetica,sans-Serif" font-size="10.00">onMcpX4DriverSetFps</text>
</a>
</g>
</g>
<!-- Node0&#45;&gt;Node44 -->
<g id="edge11" class="edge"><title>Node0&#45;&gt;Node44</title>
<path fill="none" stroke="midnightblue" d="M57.6261,-720.551C58.6848,-759.232 68.088,-905.573 149,-977 155.008,-982.304 162.115,-986.262 169.663,-989.197"/>
<polygon fill="midnightblue" stroke="midnightblue" points="168.818,-992.603 179.41,-992.392 170.998,-985.951 168.818,-992.603"/>
</g>
<!-- Node54 -->
<g id="node13" class="node"><title>Node54</title>
<g id="a_node13"><a xlink:href="xep__application__mcp__callbacks_8c.xhtml#a0a516b6779c63e36843ac4879145f84c" target="_top" xlink:title="onMcpX4DriverSetIterations">
<polygon fill="white" stroke="red" points="165.5,-948.5 165.5,-967.5 315.5,-967.5 315.5,-948.5 165.5,-948.5"/>
<text text-anchor="middle" x="240.5" y="-955.5" font-family="Helvetica,sans-Serif" font-size="10.00">onMcpX4DriverSetIterations</text>
</a>
</g>
</g>
<!-- Node0&#45;&gt;Node54 -->
<g id="edge12" class="edge"><title>Node0&#45;&gt;Node54</title>
<path fill="none" stroke="midnightblue" d="M58.2412,-720.629C61.5008,-755.922 77.7673,-879.239 149,-939 151.306,-940.935 153.76,-942.688 156.327,-944.276"/>
<polygon fill="midnightblue" stroke="midnightblue" points="154.964,-947.513 165.445,-949.062 158.217,-941.315 154.964,-947.513"/>
</g>
<!-- Node58 -->
<g id="node14" class="node"><title>Node58</title>
<g id="a_node14"><a xlink:href="xep__application__mcp__callbacks_8c.xhtml#aada0a8dac6ec032dd621832d85e7435d" target="_top" xlink:title="onMcpX4DriverSetPulsesPerStep">
<polygon fill="white" stroke="red" points="153.5,-910.5 153.5,-929.5 327.5,-929.5 327.5,-910.5 153.5,-910.5"/>
<text text-anchor="middle" x="240.5" y="-917.5" font-family="Helvetica,sans-Serif" font-size="10.00">onMcpX4DriverSetPulsesPerStep</text>
</a>
</g>
</g>
<!-- Node0&#45;&gt;Node58 -->
<g id="edge13" class="edge"><title>Node0&#45;&gt;Node58</title>
<path fill="none" stroke="midnightblue" d="M59.0998,-720.763C64.8217,-752.377 87.3197,-852.687 149,-901 151.101,-902.646 153.311,-904.158 155.607,-905.547"/>
<polygon fill="midnightblue" stroke="midnightblue" points="154.347,-908.836 164.838,-910.316 157.56,-902.616 154.347,-908.836"/>
</g>
<!-- Node60 -->
<g id="node15" class="node"><title>Node60</title>
<g id="a_node15"><a xlink:href="xep__application__mcp__callbacks_8c.xhtml#af5af6817c24ebd7291a8e14ae8e97e34" target="_top" xlink:title="onMcpX4DriverSetDownconversion">
<polygon fill="white" stroke="red" points="149,-872.5 149,-891.5 332,-891.5 332,-872.5 149,-872.5"/>
<text text-anchor="middle" x="240.5" y="-879.5" font-family="Helvetica,sans-Serif" font-size="10.00">onMcpX4DriverSetDownconversion</text>
</a>
</g>
</g>
<!-- Node0&#45;&gt;Node60 -->
<g id="edge14" class="edge"><title>Node0&#45;&gt;Node60</title>
<path fill="none" stroke="midnightblue" d="M60.3142,-720.718C68.747,-747.995 96.5296,-825.704 149,-863 151.683,-864.907 154.516,-866.63 157.458,-868.187"/>
<polygon fill="midnightblue" stroke="midnightblue" points="156.025,-871.38 166.573,-872.375 158.948,-865.019 156.025,-871.38"/>
</g>
<!-- Node72 -->
<g id="node16" class="node"><title>Node72</title>
<g id="a_node16"><a xlink:href="xep__application__mcp__callbacks_8c.xhtml#a6c985a2ef7e19c267f3e94a7bf908735" target="_top" xlink:title="onMcpX4DriverSetFrameArea">
<polygon fill="white" stroke="red" points="161.5,-834.5 161.5,-853.5 319.5,-853.5 319.5,-834.5 161.5,-834.5"/>
<text text-anchor="middle" x="240.5" y="-841.5" font-family="Helvetica,sans-Serif" font-size="10.00">onMcpX4DriverSetFrameArea</text>
</a>
</g>
</g>
<!-- Node0&#45;&gt;Node72 -->
<g id="edge15" class="edge"><title>Node0&#45;&gt;Node72</title>
<path fill="none" stroke="midnightblue" d="M62.3363,-720.829C73.9149,-743.253 105.531,-798.307 149,-825 152.442,-827.113 156.081,-828.995 159.845,-830.67"/>
<polygon fill="midnightblue" stroke="midnightblue" points="158.833,-834.032 169.42,-834.421 161.386,-827.514 158.833,-834.032"/>
</g>
<!-- Node74 -->
<g id="node17" class="node"><title>Node74</title>
<g id="a_node17"><a xlink:href="xep__application__mcp__callbacks_8c.xhtml#af880e9a568158fe0dbc01768eb02b721" target="_top" xlink:title="onMcpX4DriverInit">
<polygon fill="white" stroke="red" points="189,-796.5 189,-815.5 292,-815.5 292,-796.5 189,-796.5"/>
<text text-anchor="middle" x="240.5" y="-803.5" font-family="Helvetica,sans-Serif" font-size="10.00">onMcpX4DriverInit</text>
</a>
</g>
</g>
<!-- Node0&#45;&gt;Node74 -->
<g id="edge16" class="edge"><title>Node0&#45;&gt;Node74</title>
<path fill="none" stroke="midnightblue" d="M66.0387,-720.664C81.0824,-737.041 114.043,-770.112 149,-787 158.312,-791.498 168.667,-794.936 178.951,-797.562"/>
<polygon fill="midnightblue" stroke="midnightblue" points="178.221,-800.985 188.753,-799.839 179.805,-794.167 178.221,-800.985"/>
</g>
<!-- Node96 -->
<g id="node18" class="node"><title>Node96</title>
<g id="a_node18"><a xlink:href="xep__application__mcp__callbacks_8c.xhtml#a73702f3c3ef406ec1741300e7af01257" target="_top" xlink:title="onMcpX4DriverSetDacStep">
<polygon fill="white" stroke="red" points="167.5,-758.5 167.5,-777.5 313.5,-777.5 313.5,-758.5 167.5,-758.5"/>
<text text-anchor="middle" x="240.5" y="-765.5" font-family="Helvetica,sans-Serif" font-size="10.00">onMcpX4DriverSetDacStep</text>
</a>
</g>
</g>
<!-- Node0&#45;&gt;Node96 -->
<g id="edge17" class="edge"><title>Node0&#45;&gt;Node96</title>
<path fill="none" stroke="midnightblue" d="M77.451,-720.559C95.7241,-729.005 123.696,-741.165 149,-749 157.672,-751.685 166.929,-754.111 176.088,-756.262"/>
<polygon fill="midnightblue" stroke="midnightblue" points="175.432,-759.701 185.957,-758.486 176.971,-752.873 175.432,-759.701"/>
</g>
<!-- Node98 -->
<g id="node19" class="node"><title>Node98</title>
<g id="a_node19"><a xlink:href="xep__application__mcp__callbacks_8c.xhtml#abebd47020d9434b11d9e7987924bf4e6" target="_top" xlink:title="onMcpX4DriverSetDacMin">
<polygon fill="white" stroke="red" points="170.5,-720.5 170.5,-739.5 310.5,-739.5 310.5,-720.5 170.5,-720.5"/>
<text text-anchor="middle" x="240.5" y="-727.5" font-family="Helvetica,sans-Serif" font-size="10.00">onMcpX4DriverSetDacMin</text>
</a>
</g>
</g>
<!-- Node0&#45;&gt;Node98 -->
<g id="edge18" class="edge"><title>Node0&#45;&gt;Node98</title>
<path fill="none" stroke="midnightblue" d="M113.095,-716.804C127.93,-718.353 144.253,-720.057 160.098,-721.711"/>
<polygon fill="midnightblue" stroke="midnightblue" points="160.113,-725.231 170.422,-722.789 160.839,-718.269 160.113,-725.231"/>
</g>
<!-- Node100 -->
<g id="node20" class="node"><title>Node100</title>
<g id="a_node20"><a xlink:href="xep__application__mcp__callbacks_8c.xhtml#ad1495daac7c29451ea7c3c2ad398e997" target="_top" xlink:title="onMcpX4DriverSetDacMax">
<polygon fill="white" stroke="red" points="169,-682.5 169,-701.5 312,-701.5 312,-682.5 169,-682.5"/>
<text text-anchor="middle" x="240.5" y="-689.5" font-family="Helvetica,sans-Serif" font-size="10.00">onMcpX4DriverSetDacMax</text>
</a>
</g>
</g>
<!-- Node0&#45;&gt;Node100 -->
<g id="edge19" class="edge"><title>Node0&#45;&gt;Node100</title>
<path fill="none" stroke="midnightblue" d="M113.095,-705.196C127.501,-703.692 143.31,-702.042 158.723,-700.433"/>
<polygon fill="midnightblue" stroke="midnightblue" points="159.193,-703.903 168.776,-699.383 158.466,-696.941 159.193,-703.903"/>
</g>
<!-- Node102 -->
<g id="node21" class="node"><title>Node102</title>
<g id="a_node21"><a xlink:href="xep__application__mcp__callbacks_8c.xhtml#a89eff3efd6433f476df4c66dea370ad1" target="_top" xlink:title="onMcpX4DriverSetFrameArea\lOffset">
<polygon fill="white" stroke="red" points="161.5,-633 161.5,-663 319.5,-663 319.5,-633 161.5,-633"/>
<text text-anchor="start" x="169.5" y="-651" font-family="Helvetica,sans-Serif" font-size="10.00">onMcpX4DriverSetFrameArea</text>
<text text-anchor="middle" x="240.5" y="-640" font-family="Helvetica,sans-Serif" font-size="10.00">Offset</text>
</a>
</g>
</g>
<!-- Node0&#45;&gt;Node102 -->
<g id="edge20" class="edge"><title>Node0&#45;&gt;Node102</title>
<path fill="none" stroke="midnightblue" d="M78.2937,-701.495C96.6567,-693.312 124.279,-681.511 149,-673 156.073,-670.565 163.518,-668.2 170.975,-665.957"/>
<polygon fill="midnightblue" stroke="midnightblue" points="172.146,-669.261 180.754,-663.084 170.173,-662.545 172.146,-669.261"/>
</g>
<!-- Node104 -->
<g id="node22" class="node"><title>Node104</title>
<g id="a_node22"><a xlink:href="xep__application__mcp__callbacks_8c.xhtml#a2e1f3124a9f776f311f45b0828f9bb50" target="_top" xlink:title="onMcpX4DriverSetEnable">
<polygon fill="white" stroke="red" points="172,-594.5 172,-613.5 309,-613.5 309,-594.5 172,-594.5"/>
<text text-anchor="middle" x="240.5" y="-601.5" font-family="Helvetica,sans-Serif" font-size="10.00">onMcpX4DriverSetEnable</text>
</a>
</g>
</g>
<!-- Node0&#45;&gt;Node104 -->
<g id="edge21" class="edge"><title>Node0&#45;&gt;Node104</title>
<path fill="none" stroke="midnightblue" d="M64.6108,-701.396C78.6103,-683.227 111.65,-643.867 149,-624 154.279,-621.192 159.931,-618.778 165.738,-616.703"/>
<polygon fill="midnightblue" stroke="midnightblue" points="167.173,-619.918 175.618,-613.52 165.027,-613.255 167.173,-619.918"/>
</g>
<!-- Node106 -->
<g id="node23" class="node"><title>Node106</title>
<g id="a_node23"><a xlink:href="xep__application__mcp__callbacks_8c.xhtml#a74bcd9d4245e20e4dceecd414bc3bf2d" target="_top" xlink:title="onMcpX4DriverSetTxCenter\lFrequency">
<polygon fill="white" stroke="red" points="166.5,-545 166.5,-575 314.5,-575 314.5,-545 166.5,-545"/>
<text text-anchor="start" x="174.5" y="-563" font-family="Helvetica,sans-Serif" font-size="10.00">onMcpX4DriverSetTxCenter</text>
<text text-anchor="middle" x="240.5" y="-552" font-family="Helvetica,sans-Serif" font-size="10.00">Frequency</text>
</a>
</g>
</g>
<!-- Node0&#45;&gt;Node106 -->
<g id="edge22" class="edge"><title>Node0&#45;&gt;Node106</title>
<path fill="none" stroke="midnightblue" d="M61.6817,-701.405C72.4828,-677.775 103.674,-616.418 149,-585 151.901,-582.989 154.959,-581.139 158.127,-579.438"/>
<polygon fill="midnightblue" stroke="midnightblue" points="159.808,-582.513 167.304,-575.026 156.775,-576.205 159.808,-582.513"/>
</g>
<!-- Node108 -->
<g id="node24" class="node"><title>Node108</title>
<g id="a_node24"><a xlink:href="xep__application__mcp__callbacks_8c.xhtml#a2feea8db577f360255e5642a40a2278b" target="_top" xlink:title="onMcpX4DriverSetTxPower">
<polygon fill="white" stroke="red" points="168.5,-506.5 168.5,-525.5 312.5,-525.5 312.5,-506.5 168.5,-506.5"/>
<text text-anchor="middle" x="240.5" y="-513.5" font-family="Helvetica,sans-Serif" font-size="10.00">onMcpX4DriverSetTxPower</text>
</a>
</g>
</g>
<!-- Node0&#45;&gt;Node108 -->
<g id="edge23" class="edge"><title>Node0&#45;&gt;Node108</title>
<path fill="none" stroke="midnightblue" d="M59.5647,-701.183C66.4097,-671.199 91.2825,-580.175 149,-536 152.055,-533.662 155.328,-531.586 158.753,-529.744"/>
<polygon fill="midnightblue" stroke="midnightblue" points="160.528,-532.779 168.125,-525.394 157.58,-526.43 160.528,-532.779"/>
</g>
<!-- Node110 -->
<g id="node25" class="node"><title>Node110</title>
<g id="a_node25"><a xlink:href="xep__application__mcp__callbacks_8c.xhtml#a517a6a5e38e78fe052aee8b47822d6ed" target="_top" xlink:title="onMcpX4DriverGetFps">
<polygon fill="white" stroke="red" points="179.5,-468.5 179.5,-487.5 301.5,-487.5 301.5,-468.5 179.5,-468.5"/>
<text text-anchor="middle" x="240.5" y="-475.5" font-family="Helvetica,sans-Serif" font-size="10.00">onMcpX4DriverGetFps</text>
</a>
</g>
</g>
<!-- Node0&#45;&gt;Node110 -->
<g id="edge24" class="edge"><title>Node0&#45;&gt;Node110</title>
<path fill="none" stroke="midnightblue" d="M58.5031,-701.484C62.5975,-667.704 81.2,-552.599 149,-497 155.11,-491.989 162.216,-488.203 169.709,-485.356"/>
<polygon fill="midnightblue" stroke="midnightblue" points="170.926,-488.641 179.361,-482.23 168.769,-481.981 170.926,-488.641"/>
</g>
<!-- Node112 -->
<g id="node26" class="node"><title>Node112</title>
<g id="a_node26"><a xlink:href="xep__application__mcp__callbacks_8c.xhtml#afaff4cfa6c10aaeb1121a1bf362d81b5" target="_top" xlink:title="onMcpX4DriverSetSpiRegister">
<polygon fill="white" stroke="red" points="161.5,-430.5 161.5,-449.5 319.5,-449.5 319.5,-430.5 161.5,-430.5"/>
<text text-anchor="middle" x="240.5" y="-437.5" font-family="Helvetica,sans-Serif" font-size="10.00">onMcpX4DriverSetSpiRegister</text>
</a>
</g>
</g>
<!-- Node0&#45;&gt;Node112 -->
<g id="edge25" class="edge"><title>Node0&#45;&gt;Node112</title>
<path fill="none" stroke="midnightblue" d="M57.8312,-701.433C59.6733,-663.984 71.661,-526.113 149,-459 150.773,-457.461 152.639,-456.036 154.582,-454.717"/>
<polygon fill="midnightblue" stroke="midnightblue" points="156.6,-457.594 163.537,-449.586 153.12,-451.521 156.6,-457.594"/>
</g>
<!-- Node114 -->
<g id="node27" class="node"><title>Node114</title>
<g id="a_node27"><a xlink:href="xep__application__mcp__callbacks_8c.xhtml#ab1ee8219699e8ad5565777e7962bd09f" target="_top" xlink:title="onMcpX4DriverGetSpiRegister">
<polygon fill="white" stroke="red" points="161,-392.5 161,-411.5 320,-411.5 320,-392.5 161,-392.5"/>
<text text-anchor="middle" x="240.5" y="-399.5" font-family="Helvetica,sans-Serif" font-size="10.00">onMcpX4DriverGetSpiRegister</text>
</a>
</g>
</g>
<!-- Node0&#45;&gt;Node114 -->
<g id="edge26" class="edge"><title>Node0&#45;&gt;Node114</title>
<path fill="none" stroke="midnightblue" d="M57.3182,-701.453C57.0959,-660.708 61.9428,-499.863 149,-421 150.692,-419.467 152.475,-418.047 154.334,-416.73"/>
<polygon fill="midnightblue" stroke="midnightblue" points="156.134,-419.731 162.923,-411.597 152.543,-413.722 156.134,-419.731"/>
</g>
<!-- Node117 -->
<g id="node28" class="node"><title>Node117</title>
<g id="a_node28"><a xlink:href="xep__application__mcp__callbacks_8c.xhtml#a4b8b3538059764feac39d03c54e37e81" target="_top" xlink:title="onMcpX4DriverSetPifRegister">
<polygon fill="white" stroke="red" points="163,-354.5 163,-373.5 318,-373.5 318,-354.5 163,-354.5"/>
<text text-anchor="middle" x="240.5" y="-361.5" font-family="Helvetica,sans-Serif" font-size="10.00">onMcpX4DriverSetPifRegister</text>
</a>
</g>
</g>
<!-- Node0&#45;&gt;Node117 -->
<g id="edge27" class="edge"><title>Node0&#45;&gt;Node117</title>
<path fill="none" stroke="midnightblue" d="M58.825,-701.419C65.8124,-652.271 99.9263,-428.978 149,-383 150.538,-381.559 152.156,-380.216 153.841,-378.965"/>
<polygon fill="midnightblue" stroke="midnightblue" points="156.113,-381.676 162.78,-373.442 152.433,-375.721 156.113,-381.676"/>
</g>
<!-- Node119 -->
<g id="node29" class="node"><title>Node119</title>
<g id="a_node29"><a xlink:href="xep__application__mcp__callbacks_8c.xhtml#a269b9593eb2635b8c5b600e8d69a331f" target="_top" xlink:title="onMcpX4DriverGetPifRegister">
<polygon fill="white" stroke="red" points="163,-316.5 163,-335.5 318,-335.5 318,-316.5 163,-316.5"/>
<text text-anchor="middle" x="240.5" y="-323.5" font-family="Helvetica,sans-Serif" font-size="10.00">onMcpX4DriverGetPifRegister</text>
</a>
</g>
</g>
<!-- Node0&#45;&gt;Node119 -->
<g id="edge28" class="edge"><title>Node0&#45;&gt;Node119</title>
<path fill="none" stroke="midnightblue" d="M58.5358,-701.381C64.3864,-648.839 94.972,-397.011 149,-345 150.518,-343.539 152.118,-342.177 153.788,-340.909"/>
<polygon fill="midnightblue" stroke="midnightblue" points="156.067,-343.61 162.663,-335.319 152.336,-337.687 156.067,-343.61"/>
</g>
<!-- Node121 -->
<g id="node30" class="node"><title>Node121</title>
<g id="a_node30"><a xlink:href="xep__application__mcp__callbacks_8c.xhtml#ab7cec7458dba6ab3ced50a3ecdc9377d" target="_top" xlink:title="onMcpX4DriverSetXifRegister">
<polygon fill="white" stroke="red" points="163,-278.5 163,-297.5 318,-297.5 318,-278.5 163,-278.5"/>
<text text-anchor="middle" x="240.5" y="-285.5" font-family="Helvetica,sans-Serif" font-size="10.00">onMcpX4DriverSetXifRegister</text>
</a>
</g>
</g>
<!-- Node0&#45;&gt;Node121 -->
<g id="edge29" class="edge"><title>Node0&#45;&gt;Node121</title>
<path fill="none" stroke="midnightblue" d="M58.3159,-701.14C63.1701,-644.889 90.0606,-365.016 149,-307 150.673,-305.353 152.451,-303.832 154.315,-302.428"/>
<polygon fill="midnightblue" stroke="midnightblue" points="156.373,-305.269 162.991,-296.996 152.658,-299.336 156.373,-305.269"/>
</g>
<!-- Node123 -->
<g id="node31" class="node"><title>Node123</title>
<g id="a_node31"><a xlink:href="xep__application__mcp__callbacks_8c.xhtml#a6fc8f78920527c2d055ab44a74192789" target="_top" xlink:title="onMcpX4DriverGetXifRegister">
<polygon fill="white" stroke="red" points="163,-240.5 163,-259.5 318,-259.5 318,-240.5 163,-240.5"/>
<text text-anchor="middle" x="240.5" y="-247.5" font-family="Helvetica,sans-Serif" font-size="10.00">onMcpX4DriverGetXifRegister</text>
</a>
</g>
</g>
<!-- Node0&#45;&gt;Node123 -->
<g id="edge30" class="edge"><title>Node0&#45;&gt;Node123</title>
<path fill="none" stroke="midnightblue" d="M58.0939,-701.395C61.9164,-642.74 84.9518,-333.228 149,-269 150.658,-267.337 152.422,-265.803 154.274,-264.387"/>
<polygon fill="midnightblue" stroke="midnightblue" points="156.337,-267.223 162.907,-258.911 152.588,-261.312 156.337,-267.223"/>
</g>
<!-- Node125 -->
<g id="node32" class="node"><title>Node125</title>
<g id="a_node32"><a xlink:href="xep__application__mcp__callbacks_8c.xhtml#a799e2835d45b3fe3b1d2ae4c8a0fc910" target="_top" xlink:title="onMcpX4DriverSetPrfDiv">
<polygon fill="white" stroke="red" points="174,-202.5 174,-221.5 307,-221.5 307,-202.5 174,-202.5"/>
<text text-anchor="middle" x="240.5" y="-209.5" font-family="Helvetica,sans-Serif" font-size="10.00">onMcpX4DriverSetPrfDiv</text>
</a>
</g>
</g>
<!-- Node0&#45;&gt;Node125 -->
<g id="edge31" class="edge"><title>Node0&#45;&gt;Node125</title>
<path fill="none" stroke="midnightblue" d="M57.9251,-701.387C60.8444,-639.841 79.9162,-301.379 149,-231 153.502,-226.414 158.809,-222.797 164.559,-219.959"/>
<polygon fill="midnightblue" stroke="midnightblue" points="165.991,-223.154 173.908,-216.113 163.328,-216.681 165.991,-223.154"/>
</g>
<!-- Node127 -->
<g id="node33" class="node"><title>Node127</title>
<g id="a_node33"><a xlink:href="xep__application__mcp__callbacks_8c.xhtml#a4f984ea88bc111ee46e9a82d80534d78" target="_top" xlink:title="onMcpX4DriverGetPrfDiv">
<polygon fill="white" stroke="red" points="173.5,-164.5 173.5,-183.5 307.5,-183.5 307.5,-164.5 173.5,-164.5"/>
<text text-anchor="middle" x="240.5" y="-171.5" font-family="Helvetica,sans-Serif" font-size="10.00">onMcpX4DriverGetPrfDiv</text>
</a>
</g>
</g>
<!-- Node0&#45;&gt;Node127 -->
<g id="edge32" class="edge"><title>Node0&#45;&gt;Node127</title>
<path fill="none" stroke="midnightblue" d="M57.7773,-701.474C59.8392,-637.41 74.8285,-269.592 149,-193 153.293,-188.567 158.337,-185.037 163.81,-182.239"/>
<polygon fill="midnightblue" stroke="midnightblue" points="165.525,-185.313 173.368,-178.189 162.795,-178.867 165.525,-185.313"/>
</g>
<!-- Node129 -->
<g id="node34" class="node"><title>Node129</title>
<g id="a_node34"><a xlink:href="xep__application__mcp__callbacks_8c.xhtml#af51dbd5d964702e184cdde97fccc4f40" target="_top" xlink:title="onMcpX4DriverGetFrameArea">
<polygon fill="white" stroke="red" points="161.5,-126.5 161.5,-145.5 319.5,-145.5 319.5,-126.5 161.5,-126.5"/>
<text text-anchor="middle" x="240.5" y="-133.5" font-family="Helvetica,sans-Serif" font-size="10.00">onMcpX4DriverGetFrameArea</text>
</a>
</g>
</g>
<!-- Node0&#45;&gt;Node129 -->
<g id="edge33" class="edge"><title>Node0&#45;&gt;Node129</title>
<path fill="none" stroke="midnightblue" d="M57.6577,-701.219C58.9486,-633.756 69.86,-237.687 149,-155 150.259,-153.684 151.585,-152.448 152.968,-151.286"/>
<polygon fill="midnightblue" stroke="midnightblue" points="155.222,-153.983 161.463,-145.421 151.245,-148.223 155.222,-153.983"/>
</g>
<!-- Node132 -->
<g id="node35" class="node"><title>Node132</title>
<g id="a_node35"><a xlink:href="xep__application__mcp__callbacks_8c.xhtml#a47560a41123b4f6b65fed7233f6e8473" target="_top" xlink:title="onMcpX4DriverGetFrameArea\lOffset">
<polygon fill="white" stroke="red" points="161.5,-77 161.5,-107 319.5,-107 319.5,-77 161.5,-77"/>
<text text-anchor="start" x="169.5" y="-95" font-family="Helvetica,sans-Serif" font-size="10.00">onMcpX4DriverGetFrameArea</text>
<text text-anchor="middle" x="240.5" y="-84" font-family="Helvetica,sans-Serif" font-size="10.00">Offset</text>
</a>
</g>
</g>
<!-- Node0&#45;&gt;Node132 -->
<g id="edge34" class="edge"><title>Node0&#45;&gt;Node132</title>
<path fill="none" stroke="midnightblue" d="M57.6071,-701.069C58.5652,-630.769 67.6837,-208.405 149,-117 150.341,-115.493 151.763,-114.073 153.257,-112.736"/>
<polygon fill="midnightblue" stroke="midnightblue" points="155.376,-115.521 161.263,-106.712 151.168,-109.928 155.376,-115.521"/>
</g>
<!-- Node134 -->
<g id="node36" class="node"><title>Node134</title>
<g id="a_node36"><a xlink:href="xep__application_8c.xhtml#ac29b64c687db2156e936835bf073e988" target="_top" xlink:title="xep_init_memorypoolset">
<polygon fill="white" stroke="black" points="173.5,-38.5 173.5,-57.5 307.5,-57.5 307.5,-38.5 173.5,-38.5"/>
<text text-anchor="middle" x="240.5" y="-45.5" font-family="Helvetica,sans-Serif" font-size="10.00">xep_init_memorypoolset</text>
</a>
</g>
</g>
<!-- Node0&#45;&gt;Node134 -->
<g id="edge35" class="edge"><title>Node0&#45;&gt;Node134</title>
<path fill="none" stroke="midnightblue" d="M57.4302,-701.164C57.1148,-627.74 58.7584,-165.389 149,-68 153.204,-63.4633 158.185,-59.838 163.617,-56.9528"/>
<polygon fill="midnightblue" stroke="midnightblue" points="165.382,-59.9996 173.123,-52.7656 162.561,-53.5934 165.382,-59.9996"/>
</g>
<!-- Node135 -->
<g id="node37" class="node"><title>Node135</title>
<g id="a_node37"><a xlink:href="xep__application_8c.xhtml#a0ba95989f534a0adaa0e258fce6d3a0a" target="_top" xlink:title="task_application">
<polygon fill="white" stroke="red" points="193.5,-0.5 193.5,-19.5 287.5,-19.5 287.5,-0.5 193.5,-0.5"/>
<text text-anchor="middle" x="240.5" y="-7.5" font-family="Helvetica,sans-Serif" font-size="10.00">task_application</text>
</a>
</g>
</g>
<!-- Node0&#45;&gt;Node135 -->
<g id="edge36" class="edge"><title>Node0&#45;&gt;Node135</title>
<path fill="none" stroke="midnightblue" d="M57.3313,-701.054C56.2469,-624.737 53.0546,-132.277 149,-29 157.969,-19.346 170.489,-13.9294 183.362,-11.0254"/>
<polygon fill="midnightblue" stroke="midnightblue" points="183.993,-14.4683 193.222,-9.26584 182.763,-7.57714 183.993,-14.4683"/>
</g>
</g>
</svg>
