<?xml version="1.0" encoding="UTF-8" standalone="no"?>
<!DOCTYPE svg PUBLIC "-//W3C//DTD SVG 1.1//EN"
 "http://www.w3.org/Graphics/SVG/1.1/DTD/svg11.dtd">
<!-- Generated by graphviz version 2.38.0 (20140413.2041)
 -->
<!-- Title: dispatch_message_hostcom_send_ack Pages: 1 -->
<svg width="381pt" height="812pt"
 viewBox="0.00 0.00 381.00 812.00" xmlns="http://www.w3.org/2000/svg" xmlns:xlink="http://www.w3.org/1999/xlink">
<g id="graph0" class="graph" transform="scale(1 1) rotate(0) translate(4 808)">
<title>dispatch_message_hostcom_send_ack</title>
<polygon fill="white" stroke="none" points="-4,4 -4,-808 377,-808 377,4 -4,4"/>
<!-- Node17 -->
<g id="node1" class="node"><title>Node17</title>
<polygon fill="#bfbfbf" stroke="black" points="0,-399 0,-429 154,-429 154,-399 0,-399"/>
<text text-anchor="start" x="8" y="-417" font-family="Helvetica,sans-Serif" font-size="10.00">dispatch_message_hostcom</text>
<text text-anchor="middle" x="77" y="-406" font-family="Helvetica,sans-Serif" font-size="10.00">_send_ack</text>
</g>
<!-- Node18 -->
<g id="node2" class="node"><title>Node18</title>
<g id="a_node2"><a xlink:href="xep__application__mcp__callbacks_8h.xhtml#af7cff88ca2e2e7bf89b8616a868e2cda" target="_top" xlink:title="onMcpModuleReset">
<polygon fill="white" stroke="red" points="227,-784.5 227,-803.5 336,-803.5 336,-784.5 227,-784.5"/>
<text text-anchor="middle" x="281.5" y="-791.5" font-family="Helvetica,sans-Serif" font-size="10.00">onMcpModuleReset</text>
</a>
</g>
</g>
<!-- Node17&#45;&gt;Node18 -->
<g id="edge1" class="edge"><title>Node17&#45;&gt;Node18</title>
<path fill="none" stroke="midnightblue" d="M77.7074,-439.445C78.4195,-505.565 89.996,-683.971 190,-775 200.092,-784.186 213.459,-789.366 226.814,-792.189"/>
<polygon fill="midnightblue" stroke="midnightblue" points="81.2066,-439.126 77.6779,-429.136 74.2066,-439.146 81.2066,-439.126"/>
</g>
<!-- Node22 -->
<g id="node3" class="node"><title>Node22</title>
<g id="a_node3"><a xlink:href="xep__application__mcp__callbacks_8h.xhtml#a8f52f6e72bd93b3a11b2c922730ee484" target="_top" xlink:title="onMcpStartBootloader">
<polygon fill="white" stroke="red" points="219,-746.5 219,-765.5 344,-765.5 344,-746.5 219,-746.5"/>
<text text-anchor="middle" x="281.5" y="-753.5" font-family="Helvetica,sans-Serif" font-size="10.00">onMcpStartBootloader</text>
</a>
</g>
</g>
<!-- Node17&#45;&gt;Node22 -->
<g id="edge2" class="edge"><title>Node17&#45;&gt;Node22</title>
<path fill="none" stroke="midnightblue" d="M78.793,-439.677C82.1554,-501.124 99.6332,-657.425 190,-737 198.073,-744.109 208.119,-748.798 218.552,-751.847"/>
<polygon fill="midnightblue" stroke="midnightblue" points="82.2736,-439.175 78.3151,-429.348 75.2811,-439.499 82.2736,-439.175"/>
</g>
<!-- Node23 -->
<g id="node4" class="node"><title>Node23</title>
<g id="a_node4"><a xlink:href="xep__application__mcp__callbacks_8h.xhtml#af985c748b39a157f646e4f712fc3e077" target="_top" xlink:title="onMcpX4DriverSetFps">
<polygon fill="white" stroke="red" points="220.5,-708.5 220.5,-727.5 342.5,-727.5 342.5,-708.5 220.5,-708.5"/>
<text text-anchor="middle" x="281.5" y="-715.5" font-family="Helvetica,sans-Serif" font-size="10.00">onMcpX4DriverSetFps</text>
</a>
</g>
</g>
<!-- Node17&#45;&gt;Node23 -->
<g id="edge3" class="edge"><title>Node17&#45;&gt;Node23</title>
<path fill="none" stroke="midnightblue" d="M80.1038,-439.357C86.1826,-495.447 108.918,-630.477 190,-699 198.583,-706.254 209.239,-710.961 220.192,-713.973"/>
<polygon fill="midnightblue" stroke="midnightblue" points="83.5697,-438.84 79.0978,-429.235 76.6041,-439.532 83.5697,-438.84"/>
</g>
<!-- Node24 -->
<g id="node5" class="node"><title>Node24</title>
<g id="a_node5"><a xlink:href="xep__application__mcp__callbacks_8h.xhtml#a0a516b6779c63e36843ac4879145f84c" target="_top" xlink:title="onMcpX4DriverSetIterations">
<polygon fill="white" stroke="red" points="206.5,-670.5 206.5,-689.5 356.5,-689.5 356.5,-670.5 206.5,-670.5"/>
<text text-anchor="middle" x="281.5" y="-677.5" font-family="Helvetica,sans-Serif" font-size="10.00">onMcpX4DriverSetIterations</text>
</a>
</g>
</g>
<!-- Node17&#45;&gt;Node24 -->
<g id="edge4" class="edge"><title>Node17&#45;&gt;Node24</title>
<path fill="none" stroke="midnightblue" d="M81.7582,-439.103C90.7021,-489.56 118.141,-603.363 190,-661 194.884,-664.918 200.381,-668.082 206.189,-670.633"/>
<polygon fill="midnightblue" stroke="midnightblue" points="85.1811,-438.351 80.0779,-429.067 78.2772,-439.507 85.1811,-438.351"/>
</g>
<!-- Node25 -->
<g id="node6" class="node"><title>Node25</title>
<g id="a_node6"><a xlink:href="xep__application__mcp__callbacks_8h.xhtml#aada0a8dac6ec032dd621832d85e7435d" target="_top" xlink:title="onMcpX4DriverSetPulsesPerStep">
<polygon fill="white" stroke="red" points="194.5,-632.5 194.5,-651.5 368.5,-651.5 368.5,-632.5 194.5,-632.5"/>
<text text-anchor="middle" x="281.5" y="-639.5" font-family="Helvetica,sans-Serif" font-size="10.00">onMcpX4DriverSetPulsesPerStep</text>
</a>
</g>
</g>
<!-- Node17&#45;&gt;Node25 -->
<g id="edge5" class="edge"><title>Node17&#45;&gt;Node25</title>
<path fill="none" stroke="midnightblue" d="M83.9648,-438.988C95.9451,-483.454 127.317,-576.047 190,-623 195.14,-626.85 200.883,-629.961 206.915,-632.469"/>
<polygon fill="midnightblue" stroke="midnightblue" points="87.3438,-438.074 81.4512,-429.269 80.5668,-439.827 87.3438,-438.074"/>
</g>
<!-- Node26 -->
<g id="node7" class="node"><title>Node26</title>
<g id="a_node7"><a xlink:href="xep__application__mcp__callbacks_8h.xhtml#af5af6817c24ebd7291a8e14ae8e97e34" target="_top" xlink:title="onMcpX4DriverSetDownconversion">
<polygon fill="white" stroke="red" points="190,-594.5 190,-613.5 373,-613.5 373,-594.5 190,-594.5"/>
<text text-anchor="middle" x="281.5" y="-601.5" font-family="Helvetica,sans-Serif" font-size="10.00">onMcpX4DriverSetDownconversion</text>
</a>
</g>
</g>
<!-- Node17&#45;&gt;Node26 -->
<g id="edge6" class="edge"><title>Node17&#45;&gt;Node26</title>
<path fill="none" stroke="midnightblue" d="M87.0892,-438.969C102.247,-476.885 136.415,-548.424 190,-585 195.569,-588.801 201.747,-591.867 208.184,-594.336"/>
<polygon fill="midnightblue" stroke="midnightblue" points="90.1911,-437.287 83.3179,-429.224 83.6629,-439.813 90.1911,-437.287"/>
</g>
<!-- Node27 -->
<g id="node8" class="node"><title>Node27</title>
<g id="a_node8"><a xlink:href="xep__application__mcp__callbacks_8h.xhtml#a6c985a2ef7e19c267f3e94a7bf908735" target="_top" xlink:title="onMcpX4DriverSetFrameArea">
<polygon fill="white" stroke="red" points="202.5,-556.5 202.5,-575.5 360.5,-575.5 360.5,-556.5 202.5,-556.5"/>
<text text-anchor="middle" x="281.5" y="-563.5" font-family="Helvetica,sans-Serif" font-size="10.00">onMcpX4DriverSetFrameArea</text>
</a>
</g>
</g>
<!-- Node17&#45;&gt;Node27 -->
<g id="edge7" class="edge"><title>Node17&#45;&gt;Node27</title>
<path fill="none" stroke="midnightblue" d="M91.2363,-437.898C109.379,-468.288 144.92,-520.044 190,-547 196.476,-550.872 203.625,-553.963 210.981,-556.429"/>
<polygon fill="midnightblue" stroke="midnightblue" points="94.2301,-436.084 86.173,-429.204 88.1811,-439.607 94.2301,-436.084"/>
</g>
<!-- Node28 -->
<g id="node9" class="node"><title>Node28</title>
<g id="a_node9"><a xlink:href="xep__application__mcp__callbacks_8h.xhtml#af880e9a568158fe0dbc01768eb02b721" target="_top" xlink:title="onMcpX4DriverInit">
<polygon fill="white" stroke="red" points="230,-518.5 230,-537.5 333,-537.5 333,-518.5 230,-518.5"/>
<text text-anchor="middle" x="281.5" y="-525.5" font-family="Helvetica,sans-Serif" font-size="10.00">onMcpX4DriverInit</text>
</a>
</g>
</g>
<!-- Node17&#45;&gt;Node28 -->
<g id="edge8" class="edge"><title>Node17&#45;&gt;Node28</title>
<path fill="none" stroke="midnightblue" d="M98.2053,-436.73C119.019,-458.675 153.491,-491.129 190,-509 202.257,-514.999 216.351,-519.109 229.712,-521.923"/>
<polygon fill="midnightblue" stroke="midnightblue" points="100.548,-434.11 91.1766,-429.168 95.4206,-438.875 100.548,-434.11"/>
</g>
<!-- Node29 -->
<g id="node10" class="node"><title>Node29</title>
<g id="a_node10"><a xlink:href="xep__application__mcp__callbacks_8h.xhtml#a73702f3c3ef406ec1741300e7af01257" target="_top" xlink:title="onMcpX4DriverSetDacStep">
<polygon fill="white" stroke="red" points="208.5,-480.5 208.5,-499.5 354.5,-499.5 354.5,-480.5 208.5,-480.5"/>
<text text-anchor="middle" x="281.5" y="-487.5" font-family="Helvetica,sans-Serif" font-size="10.00">onMcpX4DriverSetDacStep</text>
</a>
</g>
</g>
<!-- Node17&#45;&gt;Node29 -->
<g id="edge9" class="edge"><title>Node17&#45;&gt;Node29</title>
<path fill="none" stroke="midnightblue" d="M111.767,-434.151C133.471,-446.346 162.632,-461.354 190,-471 200.599,-474.736 212.168,-477.849 223.385,-480.401"/>
<polygon fill="midnightblue" stroke="midnightblue" points="113.369,-431.035 102.949,-429.12 109.9,-437.116 113.369,-431.035"/>
</g>
<!-- Node30 -->
<g id="node11" class="node"><title>Node30</title>
<g id="a_node11"><a xlink:href="xep__application__mcp__callbacks_8h.xhtml#abebd47020d9434b11d9e7987924bf4e6" target="_top" xlink:title="onMcpX4DriverSetDacMin">
<polygon fill="white" stroke="red" points="211.5,-442.5 211.5,-461.5 351.5,-461.5 351.5,-442.5 211.5,-442.5"/>
<text text-anchor="middle" x="281.5" y="-449.5" font-family="Helvetica,sans-Serif" font-size="10.00">onMcpX4DriverSetDacMin</text>
</a>
</g>
</g>
<!-- Node17&#45;&gt;Node30 -->
<g id="edge10" class="edge"><title>Node17&#45;&gt;Node30</title>
<path fill="none" stroke="midnightblue" d="M164.119,-430.161C186.49,-434.359 209.869,-438.746 229.754,-442.477"/>
<polygon fill="midnightblue" stroke="midnightblue" points="164.742,-426.716 154.268,-428.312 163.451,-433.596 164.742,-426.716"/>
</g>
<!-- Node31 -->
<g id="node12" class="node"><title>Node31</title>
<g id="a_node12"><a xlink:href="xep__application__mcp__callbacks_8h.xhtml#ad1495daac7c29451ea7c3c2ad398e997" target="_top" xlink:title="onMcpX4DriverSetDacMax">
<polygon fill="white" stroke="red" points="210,-404.5 210,-423.5 353,-423.5 353,-404.5 210,-404.5"/>
<text text-anchor="middle" x="281.5" y="-411.5" font-family="Helvetica,sans-Serif" font-size="10.00">onMcpX4DriverSetDacMax</text>
</a>
</g>
</g>
<!-- Node17&#45;&gt;Node31 -->
<g id="edge11" class="edge"><title>Node17&#45;&gt;Node31</title>
<path fill="none" stroke="midnightblue" d="M164.653,-414C179.78,-414 195.351,-414 209.977,-414"/>
<polygon fill="midnightblue" stroke="midnightblue" points="164.268,-410.5 154.268,-414 164.268,-417.5 164.268,-410.5"/>
</g>
<!-- Node32 -->
<g id="node13" class="node"><title>Node32</title>
<g id="a_node13"><a xlink:href="xep__application__mcp__callbacks_8h.xhtml#a89eff3efd6433f476df4c66dea370ad1" target="_top" xlink:title="onMcpX4DriverSetFrameArea\lOffset">
<polygon fill="white" stroke="red" points="202.5,-355 202.5,-385 360.5,-385 360.5,-355 202.5,-355"/>
<text text-anchor="start" x="210.5" y="-373" font-family="Helvetica,sans-Serif" font-size="10.00">onMcpX4DriverSetFrameArea</text>
<text text-anchor="middle" x="281.5" y="-362" font-family="Helvetica,sans-Serif" font-size="10.00">Offset</text>
</a>
</g>
</g>
<!-- Node17&#45;&gt;Node32 -->
<g id="edge12" class="edge"><title>Node17&#45;&gt;Node32</title>
<path fill="none" stroke="midnightblue" d="M156.975,-396.84C174.919,-392.941 193.846,-388.829 211.345,-385.026"/>
<polygon fill="midnightblue" stroke="midnightblue" points="156.151,-393.437 147.123,-398.981 157.638,-400.278 156.151,-393.437"/>
</g>
<!-- Node33 -->
<g id="node14" class="node"><title>Node33</title>
<g id="a_node14"><a xlink:href="xep__application__mcp__callbacks_8h.xhtml#a2e1f3124a9f776f311f45b0828f9bb50" target="_top" xlink:title="onMcpX4DriverSetEnable">
<polygon fill="white" stroke="red" points="213,-316.5 213,-335.5 350,-335.5 350,-316.5 213,-316.5"/>
<text text-anchor="middle" x="281.5" y="-323.5" font-family="Helvetica,sans-Serif" font-size="10.00">onMcpX4DriverSetEnable</text>
</a>
</g>
</g>
<!-- Node17&#45;&gt;Node33 -->
<g id="edge13" class="edge"><title>Node17&#45;&gt;Node33</title>
<path fill="none" stroke="midnightblue" d="M106.838,-392.834C128.672,-377.741 159.941,-358.061 190,-346 200.603,-341.746 212.286,-338.313 223.634,-335.573"/>
<polygon fill="midnightblue" stroke="midnightblue" points="104.548,-390.165 98.3787,-398.779 108.573,-395.893 104.548,-390.165"/>
</g>
<!-- Node34 -->
<g id="node15" class="node"><title>Node34</title>
<g id="a_node15"><a xlink:href="xep__application__mcp__callbacks_8h.xhtml#a74bcd9d4245e20e4dceecd414bc3bf2d" target="_top" xlink:title="onMcpX4DriverSetTxCenter\lFrequency">
<polygon fill="white" stroke="red" points="207.5,-267 207.5,-297 355.5,-297 355.5,-267 207.5,-267"/>
<text text-anchor="start" x="215.5" y="-285" font-family="Helvetica,sans-Serif" font-size="10.00">onMcpX4DriverSetTxCenter</text>
<text text-anchor="middle" x="281.5" y="-274" font-family="Helvetica,sans-Serif" font-size="10.00">Frequency</text>
</a>
</g>
</g>
<!-- Node17&#45;&gt;Node34 -->
<g id="edge14" class="edge"><title>Node17&#45;&gt;Node34</title>
<path fill="none" stroke="midnightblue" d="M96.2475,-390.773C116.593,-366.416 151.711,-328.722 190,-307 196.805,-303.139 204.24,-299.847 211.829,-297.047"/>
<polygon fill="midnightblue" stroke="midnightblue" points="93.3148,-388.83 89.686,-398.784 98.7302,-393.265 93.3148,-388.83"/>
</g>
<!-- Node35 -->
<g id="node16" class="node"><title>Node35</title>
<g id="a_node16"><a xlink:href="xep__application__mcp__callbacks_8h.xhtml#a2feea8db577f360255e5642a40a2278b" target="_top" xlink:title="onMcpX4DriverSetTxPower">
<polygon fill="white" stroke="red" points="209.5,-228.5 209.5,-247.5 353.5,-247.5 353.5,-228.5 209.5,-228.5"/>
<text text-anchor="middle" x="281.5" y="-235.5" font-family="Helvetica,sans-Serif" font-size="10.00">onMcpX4DriverSetTxPower</text>
</a>
</g>
</g>
<!-- Node17&#45;&gt;Node35 -->
<g id="edge15" class="edge"><title>Node17&#45;&gt;Node35</title>
<path fill="none" stroke="midnightblue" d="M88.6958,-389.241C105.151,-354.241 140.089,-290.901 190,-258 196.583,-253.661 203.961,-250.25 211.59,-247.571"/>
<polygon fill="midnightblue" stroke="midnightblue" points="85.3369,-388.171 84.3665,-398.721 91.7043,-391.079 85.3369,-388.171"/>
</g>
<!-- Node36 -->
<g id="node17" class="node"><title>Node36</title>
<g id="a_node17"><a xlink:href="xep__application__mcp__callbacks_8h.xhtml#afaff4cfa6c10aaeb1121a1bf362d81b5" target="_top" xlink:title="onMcpX4DriverSetSpiRegister">
<polygon fill="white" stroke="red" points="202.5,-190.5 202.5,-209.5 360.5,-209.5 360.5,-190.5 202.5,-190.5"/>
<text text-anchor="middle" x="281.5" y="-197.5" font-family="Helvetica,sans-Serif" font-size="10.00">onMcpX4DriverSetSpiRegister</text>
</a>
</g>
</g>
<!-- Node17&#45;&gt;Node36 -->
<g id="edge16" class="edge"><title>Node17&#45;&gt;Node36</title>
<path fill="none" stroke="midnightblue" d="M84.9259,-389.206C98.0278,-347.136 130.595,-262.148 190,-219 195.326,-215.132 201.267,-212.015 207.49,-209.509"/>
<polygon fill="midnightblue" stroke="midnightblue" points="81.5312,-388.341 82.0098,-398.925 88.236,-390.353 81.5312,-388.341"/>
</g>
<!-- Node37 -->
<g id="node18" class="node"><title>Node37</title>
<g id="a_node18"><a xlink:href="xep__application__mcp__callbacks_8h.xhtml#a4b8b3538059764feac39d03c54e37e81" target="_top" xlink:title="onMcpX4DriverSetPifRegister">
<polygon fill="white" stroke="red" points="204,-152.5 204,-171.5 359,-171.5 359,-152.5 204,-152.5"/>
<text text-anchor="middle" x="281.5" y="-159.5" font-family="Helvetica,sans-Serif" font-size="10.00">onMcpX4DriverSetPifRegister</text>
</a>
</g>
</g>
<!-- Node17&#45;&gt;Node37 -->
<g id="edge17" class="edge"><title>Node17&#45;&gt;Node37</title>
<path fill="none" stroke="midnightblue" d="M82.4925,-388.953C92.5358,-340.651 121.53,-234.672 190,-181 194.801,-177.236 200.171,-174.171 205.835,-171.681"/>
<polygon fill="midnightblue" stroke="midnightblue" points="79.037,-388.385 80.5301,-398.875 85.904,-389.744 79.037,-388.385"/>
</g>
<!-- Node38 -->
<g id="node19" class="node"><title>Node38</title>
<g id="a_node19"><a xlink:href="xep__application__mcp__callbacks_8h.xhtml#ab7cec7458dba6ab3ced50a3ecdc9377d" target="_top" xlink:title="onMcpX4DriverSetXifRegister">
<polygon fill="white" stroke="red" points="204,-114.5 204,-133.5 359,-133.5 359,-114.5 204,-114.5"/>
<text text-anchor="middle" x="281.5" y="-121.5" font-family="Helvetica,sans-Serif" font-size="10.00">onMcpX4DriverSetXifRegister</text>
</a>
</g>
</g>
<!-- Node17&#45;&gt;Node38 -->
<g id="edge18" class="edge"><title>Node17&#45;&gt;Node38</title>
<path fill="none" stroke="midnightblue" d="M80.6632,-388.762C87.7765,-334.72 112.315,-207.498 190,-143 194.57,-139.206 199.71,-136.111 205.159,-133.593"/>
<polygon fill="midnightblue" stroke="midnightblue" points="77.17,-388.494 79.4295,-398.845 84.1182,-389.344 77.17,-388.494"/>
</g>
<!-- Node39 -->
<g id="node20" class="node"><title>Node39</title>
<g id="a_node20"><a xlink:href="xep__application__mcp__callbacks_8h.xhtml#a799e2835d45b3fe3b1d2ae4c8a0fc910" target="_top" xlink:title="onMcpX4DriverSetPrfDiv">
<polygon fill="white" stroke="red" points="215,-76.5 215,-95.5 348,-95.5 348,-76.5 215,-76.5"/>
<text text-anchor="middle" x="281.5" y="-83.5" font-family="Helvetica,sans-Serif" font-size="10.00">onMcpX4DriverSetPrfDiv</text>
</a>
</g>
</g>
<!-- Node17&#45;&gt;Node39 -->
<g id="edge19" class="edge"><title>Node17&#45;&gt;Node39</title>
<path fill="none" stroke="midnightblue" d="M79.2313,-388.625C83.5524,-329.244 102.973,-180.562 190,-105 197.152,-98.7899 205.815,-94.4331 214.911,-91.4052"/>
<polygon fill="midnightblue" stroke="midnightblue" points="75.7164,-388.747 78.5699,-398.95 82.7021,-389.195 75.7164,-388.747"/>
</g>
<!-- Node40 -->
<g id="node21" class="node"><title>Node40</title>
<g id="a_node21"><a xlink:href="xep__application__mcp__callbacks_8h.xhtml#a8850c282d398f5566ab9c2d486e96aeb" target="_top" xlink:title="onMcpSetIOPinControl">
<polygon fill="white" stroke="red" points="220,-38.5 220,-57.5 343,-57.5 343,-38.5 220,-38.5"/>
<text text-anchor="middle" x="281.5" y="-45.5" font-family="Helvetica,sans-Serif" font-size="10.00">onMcpSetIOPinControl</text>
</a>
</g>
</g>
<!-- Node17&#45;&gt;Node40 -->
<g id="edge20" class="edge"><title>Node17&#45;&gt;Node40</title>
<path fill="none" stroke="midnightblue" d="M78.0756,-388.633C79.7275,-324.322 93.4743,-153.864 190,-67 198.354,-59.4826 208.905,-54.6557 219.828,-51.6099"/>
<polygon fill="midnightblue" stroke="midnightblue" points="74.5751,-388.631 77.8966,-398.691 81.574,-388.755 74.5751,-388.631"/>
</g>
<!-- Node41 -->
<g id="node22" class="node"><title>Node41</title>
<g id="a_node22"><a xlink:href="xep__application__mcp__callbacks_8h.xhtml#a8e7d3bc0aacfe4f2fd3e8313afc11321" target="_top" xlink:title="onMcpSetIOPinValue">
<polygon fill="white" stroke="red" points="224,-0.5 224,-19.5 339,-19.5 339,-0.5 224,-0.5"/>
<text text-anchor="middle" x="281.5" y="-7.5" font-family="Helvetica,sans-Serif" font-size="10.00">onMcpSetIOPinValue</text>
</a>
</g>
</g>
<!-- Node17&#45;&gt;Node41 -->
<g id="edge21" class="edge"><title>Node17&#45;&gt;Node41</title>
<path fill="none" stroke="midnightblue" d="M77.1276,-388.302C76.2757,-319.048 84.074,-127.151 190,-29 199.303,-20.3797 211.483,-15.2704 223.878,-12.326"/>
<polygon fill="midnightblue" stroke="midnightblue" points="73.636,-388.763 77.3348,-398.691 80.6346,-388.623 73.636,-388.763"/>
</g>
</g>
</svg>
