<?xml version="1.0" encoding="UTF-8" standalone="no"?>
<!DOCTYPE svg PUBLIC "-//W3C//DTD SVG 1.1//EN"
 "http://www.w3.org/Graphics/SVG/1.1/DTD/svg11.dtd">
<!-- Generated by graphviz version 2.38.0 (20140413.2041)
 -->
<!-- Title: dispatch_message_hostcom_send_appdata_truepresence_single Pages: 1 -->
<svg width="382pt" height="66pt"
 viewBox="0.00 0.00 382.00 66.00" xmlns="http://www.w3.org/2000/svg" xmlns:xlink="http://www.w3.org/1999/xlink">
<g id="graph0" class="graph" transform="scale(1 1) rotate(0) translate(4 62)">
<title>dispatch_message_hostcom_send_appdata_truepresence_single</title>
<polygon fill="white" stroke="none" points="-4,4 -4,-62 378,-62 378,4 -4,4"/>
<!-- Node102 -->
<g id="node1" class="node"><title>Node102</title>
<polygon fill="#bfbfbf" stroke="black" points="0,-14 0,-44 192,-44 192,-14 0,-14"/>
<text text-anchor="start" x="8" y="-32" font-family="Helvetica,sans-Serif" font-size="10.00">dispatch_message_hostcom</text>
<text text-anchor="middle" x="96" y="-21" font-family="Helvetica,sans-Serif" font-size="10.00">_send_appdata_truepresence_single</text>
</g>
<!-- Node103 -->
<g id="node2" class="node"><title>Node103</title>
<g id="a_node2"><a xlink:href="memorypoolset_8h.xhtml#ae218de91b58e51270035d6368667a291" target="_top" xlink:title="Take memory block from automatically chosen pool. ">
<polygon fill="white" stroke="red" points="228,-38.5 228,-57.5 374,-57.5 374,-38.5 228,-38.5"/>
<text text-anchor="middle" x="301" y="-45.5" font-family="Helvetica,sans-Serif" font-size="10.00">memorypoolset_take_auto</text>
</a>
</g>
</g>
<!-- Node102&#45;&gt;Node103 -->
<g id="edge1" class="edge"><title>Node102&#45;&gt;Node103</title>
<path fill="none" stroke="midnightblue" d="M192.259,-37.9159C200.754,-38.711 209.308,-39.5116 217.681,-40.2953"/>
<polygon fill="midnightblue" stroke="midnightblue" points="217.506,-43.7941 227.789,-41.2413 218.159,-36.8246 217.506,-43.7941"/>
</g>
<!-- Node108 -->
<g id="node3" class="node"><title>Node108</title>
<g id="a_node3"><a xlink:href="xep__dispatch_8h.xhtml#a7bad5694c10b470cac80025bd27f6fa9" target="_top" xlink:title="Send message on dispatcher. ">
<polygon fill="white" stroke="red" points="233.5,-0.5 233.5,-19.5 368.5,-19.5 368.5,-0.5 233.5,-0.5"/>
<text text-anchor="middle" x="301" y="-7.5" font-family="Helvetica,sans-Serif" font-size="10.00">dispatch_send_message</text>
</a>
</g>
</g>
<!-- Node102&#45;&gt;Node108 -->
<g id="edge2" class="edge"><title>Node102&#45;&gt;Node108</title>
<path fill="none" stroke="midnightblue" d="M192.259,-20.0841C202.689,-19.1079 213.207,-18.1235 223.371,-17.1722"/>
<polygon fill="midnightblue" stroke="midnightblue" points="223.77,-20.6502 233.4,-16.2335 223.117,-13.6807 223.77,-20.6502"/>
</g>
</g>
</svg>
