<?xml version="1.0" encoding="UTF-8" standalone="no"?>
<!DOCTYPE svg PUBLIC "-//W3C//DTD SVG 1.1//EN"
 "http://www.w3.org/Graphics/SVG/1.1/DTD/svg11.dtd">
<!-- Generated by graphviz version 2.38.0 (20140413.2041)
 -->
<!-- Title: xt_get_operation_mode Pages: 1 -->
<svg width="309pt" height="78pt"
 viewBox="0.00 0.00 309.00 77.50" xmlns="http://www.w3.org/2000/svg" xmlns:xlink="http://www.w3.org/1999/xlink">
<g id="graph0" class="graph" transform="scale(1 1) rotate(0) translate(4 73.5)">
<title>xt_get_operation_mode</title>
<polygon fill="white" stroke="none" points="-4,4 -4,-73.5 305,-73.5 305,4 -4,4"/>
<!-- Node29 -->
<g id="node1" class="node"><title>Node29</title>
<polygon fill="#bfbfbf" stroke="black" points="0,-28 0,-47 131,-47 131,-28 0,-28"/>
<text text-anchor="middle" x="65.5" y="-35" font-family="Helvetica,sans-Serif" font-size="10.00">xt_get_operation_mode</text>
</g>
<!-- Node30 -->
<g id="node2" class="node"><title>Node30</title>
<g id="a_node2"><a xlink:href="hal__board__init_8c.xhtml#ab9b8be01cc5338f2a5b10e5c79b86910" target="_top" xlink:title="Initiate basic HW functionality on HW board and MCU. ">
<polygon fill="white" stroke="red" points="195,-50 195,-69 273,-69 273,-50 195,-50"/>
<text text-anchor="middle" x="234" y="-57" font-family="Helvetica,sans-Serif" font-size="10.00">xt_board_init</text>
</a>
</g>
</g>
<!-- Node29&#45;&gt;Node30 -->
<g id="edge1" class="edge"><title>Node29&#45;&gt;Node30</title>
<path fill="none" stroke="midnightblue" d="M141.467,-47.4056C159.82,-49.8306 178.715,-52.3272 194.537,-54.4178"/>
<polygon fill="midnightblue" stroke="midnightblue" points="141.722,-43.9089 131.35,-46.0688 140.805,-50.8486 141.722,-43.9089"/>
</g>
<!-- Node32 -->
<g id="node3" class="node"><title>Node32</title>
<g id="a_node3"><a xlink:href="xep__application_8c.xhtml#a145c12b30c377de637fb330f545ba7cb" target="_top" xlink:title="xep_init_memorypoolset\l_default">
<polygon fill="white" stroke="black" points="167,-0.5 167,-30.5 301,-30.5 301,-0.5 167,-0.5"/>
<text text-anchor="start" x="175" y="-18.5" font-family="Helvetica,sans-Serif" font-size="10.00">xep_init_memorypoolset</text>
<text text-anchor="middle" x="234" y="-7.5" font-family="Helvetica,sans-Serif" font-size="10.00">_default</text>
</a>
</g>
</g>
<!-- Node29&#45;&gt;Node32 -->
<g id="edge2" class="edge"><title>Node29&#45;&gt;Node32</title>
<path fill="none" stroke="midnightblue" d="M141.31,-27.6151C149.861,-26.4854 158.531,-25.3397 166.956,-24.2266"/>
<polygon fill="midnightblue" stroke="midnightblue" points="140.805,-24.1514 131.35,-28.9312 141.722,-31.091 140.805,-24.1514"/>
</g>
</g>
</svg>
