<?xml version="1.0" encoding="UTF-8" standalone="no"?>
<!DOCTYPE svg PUBLIC "-//W3C//DTD SVG 1.1//EN"
 "http://www.w3.org/Graphics/SVG/1.1/DTD/svg11.dtd">
<!-- Generated by graphviz version 2.38.0 (20140413.2041)
 -->
<!-- Title: onMcpGetSystemInfo Pages: 1 -->
<svg width="317pt" height="137pt"
 viewBox="0.00 0.00 317.00 137.00" xmlns="http://www.w3.org/2000/svg" xmlns:xlink="http://www.w3.org/1999/xlink">
<g id="graph0" class="graph" transform="scale(1 1) rotate(0) translate(4 133)">
<title>onMcpGetSystemInfo</title>
<polygon fill="white" stroke="none" points="-4,4 -4,-133 313,-133 313,4 -4,4"/>
<!-- Node17 -->
<g id="node1" class="node"><title>Node17</title>
<polygon fill="#bfbfbf" stroke="black" points="0,-55 0,-74 119,-74 119,-55 0,-55"/>
<text text-anchor="middle" x="59.5" y="-62" font-family="Helvetica,sans-Serif" font-size="10.00">onMcpGetSystemInfo</text>
</g>
<!-- Node18 -->
<g id="node2" class="node"><title>Node18</title>
<g id="a_node2"><a xlink:href="xep__dispatch__messages_8h.xhtml#abca07c93e1afe77599a6530c100b15c1" target="_top" xlink:title="Dispatch message to hostcom asking to reply with string to host. ">
<polygon fill="white" stroke="red" points="155,-98.5 155,-128.5 309,-128.5 309,-98.5 155,-98.5"/>
<text text-anchor="start" x="163" y="-116.5" font-family="Helvetica,sans-Serif" font-size="10.00">dispatch_message_hostcom</text>
<text text-anchor="middle" x="232" y="-105.5" font-family="Helvetica,sans-Serif" font-size="10.00">_send_reply_string</text>
</a>
</g>
</g>
<!-- Node17&#45;&gt;Node18 -->
<g id="edge1" class="edge"><title>Node17&#45;&gt;Node18</title>
<path fill="none" stroke="midnightblue" d="M93.7789,-74.064C115.082,-80.1863 143.387,-88.3208 168.754,-95.6111"/>
<polygon fill="midnightblue" stroke="midnightblue" points="168.1,-99.0647 178.678,-98.463 170.033,-92.337 168.1,-99.0647"/>
</g>
<!-- Node28 -->
<g id="node3" class="node"><title>Node28</title>
<g id="a_node3"><a xlink:href="xep_8h.xhtml#a74b3579b46539191c66b915956c19b8c" target="_top" xlink:title="Append XEP components version list to destination. ">
<polygon fill="white" stroke="black" points="175.5,-49.5 175.5,-79.5 288.5,-79.5 288.5,-49.5 175.5,-49.5"/>
<text text-anchor="start" x="183.5" y="-67.5" font-family="Helvetica,sans-Serif" font-size="10.00">xep_get_systeminfo</text>
<text text-anchor="middle" x="232" y="-56.5" font-family="Helvetica,sans-Serif" font-size="10.00">_versionlist</text>
</a>
</g>
</g>
<!-- Node17&#45;&gt;Node28 -->
<g id="edge2" class="edge"><title>Node17&#45;&gt;Node28</title>
<path fill="none" stroke="midnightblue" d="M119.176,-64.5C133.969,-64.5 149.947,-64.5 165.069,-64.5"/>
<polygon fill="midnightblue" stroke="midnightblue" points="165.377,-68.0001 175.377,-64.5 165.376,-61.0001 165.377,-68.0001"/>
</g>
<!-- Node29 -->
<g id="node4" class="node"><title>Node29</title>
<g id="a_node4"><a xlink:href="xep__dispatch__messages_8h.xhtml#a441f9b844c9ffb78cfee8edbdb16717a" target="_top" xlink:title="Dispatch message to hostcom asking to send error to host. ">
<polygon fill="white" stroke="red" points="155,-0.5 155,-30.5 309,-30.5 309,-0.5 155,-0.5"/>
<text text-anchor="start" x="163" y="-18.5" font-family="Helvetica,sans-Serif" font-size="10.00">dispatch_message_hostcom</text>
<text text-anchor="middle" x="232" y="-7.5" font-family="Helvetica,sans-Serif" font-size="10.00">_send_error</text>
</a>
</g>
</g>
<!-- Node17&#45;&gt;Node29 -->
<g id="edge3" class="edge"><title>Node17&#45;&gt;Node29</title>
<path fill="none" stroke="midnightblue" d="M93.7789,-54.936C115.082,-48.8137 143.387,-40.6792 168.754,-33.3889"/>
<polygon fill="midnightblue" stroke="midnightblue" points="170.033,-36.663 178.678,-30.537 168.1,-29.9353 170.033,-36.663"/>
</g>
</g>
</svg>
