<?xml version="1.0" encoding="UTF-8" standalone="no"?>
<!DOCTYPE svg PUBLIC "-//W3C//DTD SVG 1.1//EN"
 "http://www.w3.org/Graphics/SVG/1.1/DTD/svg11.dtd">
<!-- Generated by graphviz version 2.38.0 (20140413.2041)
 -->
<!-- Title: xep_init_memorypoolset_default Pages: 1 -->
<svg width="360pt" height="180pt"
 viewBox="0.00 0.00 360.00 180.00" xmlns="http://www.w3.org/2000/svg" xmlns:xlink="http://www.w3.org/1999/xlink">
<g id="graph0" class="graph" transform="scale(1 1) rotate(0) translate(4 176)">
<title>xep_init_memorypoolset_default</title>
<polygon fill="white" stroke="none" points="-4,4 -4,-176 356,-176 356,4 -4,4"/>
<!-- Node220 -->
<g id="node1" class="node"><title>Node220</title>
<polygon fill="#bfbfbf" stroke="black" points="0,-71 0,-101 134,-101 134,-71 0,-71"/>
<text text-anchor="start" x="8" y="-89" font-family="Helvetica,sans-Serif" font-size="10.00">xep_init_memorypoolset</text>
<text text-anchor="middle" x="67" y="-78" font-family="Helvetica,sans-Serif" font-size="10.00">_default</text>
</g>
<!-- Node221 -->
<g id="node2" class="node"><title>Node221</title>
<g id="a_node2"><a xlink:href="xep__hal_8h.xhtml#af1f57228b9448df87a3f5f30968b3fa8" target="_top" xlink:title="Gets the operation mode of the module. ">
<polygon fill="white" stroke="black" points="195.5,-152.5 195.5,-171.5 326.5,-171.5 326.5,-152.5 195.5,-152.5"/>
<text text-anchor="middle" x="261" y="-159.5" font-family="Helvetica,sans-Serif" font-size="10.00">xt_get_operation_mode</text>
</a>
</g>
</g>
<!-- Node220&#45;&gt;Node221 -->
<g id="edge1" class="edge"><title>Node220&#45;&gt;Node221</title>
<path fill="none" stroke="midnightblue" d="M90.53,-101.217C110.584,-114.107 141.129,-132.172 170,-143 177.07,-145.652 184.598,-147.972 192.174,-149.993"/>
<polygon fill="midnightblue" stroke="midnightblue" points="191.577,-153.451 202.127,-152.479 193.274,-146.66 191.577,-153.451"/>
</g>
<!-- Node222 -->
<g id="node3" class="node"><title>Node222</title>
<g id="a_node3"><a xlink:href="memorypool_8h.xhtml#afaecaf877433c04746ddb6c114499190" target="_top" xlink:title="Get size needed for memory pool. ">
<polygon fill="white" stroke="black" points="177,-114.5 177,-133.5 345,-133.5 345,-114.5 177,-114.5"/>
<text text-anchor="middle" x="261" y="-121.5" font-family="Helvetica,sans-Serif" font-size="10.00">memorypool_get_instance_size</text>
</a>
</g>
</g>
<!-- Node220&#45;&gt;Node222 -->
<g id="edge2" class="edge"><title>Node220&#45;&gt;Node222</title>
<path fill="none" stroke="midnightblue" d="M134.076,-99.0774C156.175,-103.451 180.626,-108.291 202.058,-112.532"/>
<polygon fill="midnightblue" stroke="midnightblue" points="201.502,-115.99 211.991,-114.498 202.861,-109.123 201.502,-115.99"/>
</g>
<!-- Node223 -->
<g id="node4" class="node"><title>Node223</title>
<g id="a_node4"><a xlink:href="xtmemory_8h.xhtml#ac094f55ba76fe2ae6e6b584f62ede7e0" target="_top" xlink:title="Allocate memory from default location. ">
<polygon fill="white" stroke="red" points="190.5,-76.5 190.5,-95.5 331.5,-95.5 331.5,-76.5 190.5,-76.5"/>
<text text-anchor="middle" x="261" y="-83.5" font-family="Helvetica,sans-Serif" font-size="10.00">xtmemory_malloc_default</text>
</a>
</g>
</g>
<!-- Node220&#45;&gt;Node223 -->
<g id="edge3" class="edge"><title>Node220&#45;&gt;Node223</title>
<path fill="none" stroke="midnightblue" d="M134.076,-86C148.794,-86 164.555,-86 179.773,-86"/>
<polygon fill="midnightblue" stroke="midnightblue" points="180.202,-89.5001 190.202,-86 180.202,-82.5001 180.202,-89.5001"/>
</g>
<!-- Node230 -->
<g id="node5" class="node"><title>Node230</title>
<g id="a_node5"><a xlink:href="memorypoolset_8h.xhtml#a0286bc57cfca49a6b23417bfa6cd8501" target="_top" xlink:title="Add memory pool. ">
<polygon fill="white" stroke="red" points="170,-38.5 170,-57.5 352,-57.5 352,-38.5 170,-38.5"/>
<text text-anchor="middle" x="261" y="-45.5" font-family="Helvetica,sans-Serif" font-size="10.00">memorypoolset_add_memorypool</text>
</a>
</g>
</g>
<!-- Node220&#45;&gt;Node230 -->
<g id="edge4" class="edge"><title>Node220&#45;&gt;Node230</title>
<path fill="none" stroke="midnightblue" d="M134.076,-72.9226C156.175,-68.5486 180.626,-63.7094 202.058,-59.4678"/>
<polygon fill="midnightblue" stroke="midnightblue" points="202.861,-62.8767 211.991,-57.5017 201.502,-56.0099 202.861,-62.8767"/>
</g>
<!-- Node233 -->
<g id="node6" class="node"><title>Node233</title>
<g id="a_node6"><a xlink:href="xtmemory_8h.xhtml#a6865e14d8f1f60f5c34807e4c1a990a7" target="_top" xlink:title="Allocate memory from slow location. ">
<polygon fill="white" stroke="red" points="197,-0.5 197,-19.5 325,-19.5 325,-0.5 197,-0.5"/>
<text text-anchor="middle" x="261" y="-7.5" font-family="Helvetica,sans-Serif" font-size="10.00">xtmemory_malloc_slow</text>
</a>
</g>
</g>
<!-- Node220&#45;&gt;Node233 -->
<g id="edge5" class="edge"><title>Node220&#45;&gt;Node233</title>
<path fill="none" stroke="midnightblue" d="M90.53,-70.7829C110.584,-57.8927 141.129,-39.8282 170,-29 177.07,-26.3485 184.598,-24.0282 192.174,-22.0074"/>
<polygon fill="midnightblue" stroke="midnightblue" points="193.274,-25.3403 202.127,-19.5206 191.577,-18.5491 193.274,-25.3403"/>
</g>
</g>
</svg>
