<?xml version="1.0" encoding="UTF-8" standalone="no"?>
<!DOCTYPE svg PUBLIC "-//W3C//DTD SVG 1.1//EN"
 "http://www.w3.org/Graphics/SVG/1.1/DTD/svg11.dtd">
<!-- Generated by graphviz version 2.38.0 (20140413.2041)
 -->
<!-- Title: dispatch_send_message Pages: 1 -->
<svg width="371pt" height="991pt"
 viewBox="0.00 0.00 371.00 991.00" xmlns="http://www.w3.org/2000/svg" xmlns:xlink="http://www.w3.org/1999/xlink">
<g id="graph0" class="graph" transform="scale(1 1) rotate(0) translate(4 987)">
<title>dispatch_send_message</title>
<polygon fill="white" stroke="none" points="-4,4 -4,-987 367,-987 367,4 -4,4"/>
<!-- Node128 -->
<g id="node1" class="node"><title>Node128</title>
<polygon fill="#bfbfbf" stroke="black" points="0,-471 0,-490 135,-490 135,-471 0,-471"/>
<text text-anchor="middle" x="67.5" y="-478" font-family="Helvetica,sans-Serif" font-size="10.00">dispatch_send_message</text>
</g>
<!-- Node129 -->
<g id="node2" class="node"><title>Node129</title>
<g id="a_node2"><a xlink:href="xep__dispatch__messages_8c.xhtml#a9b90f44cd5a4308e041a205a84fe4360" target="_top" xlink:title="Dispatch message to hostcom asking to send ack to host. ">
<polygon fill="white" stroke="red" points="190,-952.5 190,-982.5 344,-982.5 344,-952.5 190,-952.5"/>
<text text-anchor="start" x="198" y="-970.5" font-family="Helvetica,sans-Serif" font-size="10.00">dispatch_message_hostcom</text>
<text text-anchor="middle" x="267" y="-959.5" font-family="Helvetica,sans-Serif" font-size="10.00">_send_ack</text>
</a>
</g>
</g>
<!-- Node128&#45;&gt;Node129 -->
<g id="edge1" class="edge"><title>Node128&#45;&gt;Node129</title>
<path fill="none" stroke="midnightblue" d="M70.1584,-500.301C77.2497,-580.263 107.595,-878.191 171,-943.5 176.332,-948.992 182.725,-953.295 189.641,-956.658"/>
<polygon fill="midnightblue" stroke="midnightblue" points="73.6282,-499.8 69.2797,-490.138 66.6542,-500.403 73.6282,-499.8"/>
</g>
<!-- Node154 -->
<g id="node3" class="node"><title>Node154</title>
<g id="a_node3"><a xlink:href="xep__dispatch__messages_8c.xhtml#a441f9b844c9ffb78cfee8edbdb16717a" target="_top" xlink:title="Dispatch message to hostcom asking to send error to host. ">
<polygon fill="white" stroke="red" points="190,-903.5 190,-933.5 344,-933.5 344,-903.5 190,-903.5"/>
<text text-anchor="start" x="198" y="-921.5" font-family="Helvetica,sans-Serif" font-size="10.00">dispatch_message_hostcom</text>
<text text-anchor="middle" x="267" y="-910.5" font-family="Helvetica,sans-Serif" font-size="10.00">_send_error</text>
</a>
</g>
</g>
<!-- Node128&#45;&gt;Node154 -->
<g id="edge2" class="edge"><title>Node128&#45;&gt;Node154</title>
<path fill="none" stroke="midnightblue" d="M70.7448,-500.553C79.519,-575.403 113.858,-837.086 171,-894.5 176.4,-899.926 182.837,-904.186 189.78,-907.522"/>
<polygon fill="midnightblue" stroke="midnightblue" points="74.1745,-499.74 69.5565,-490.204 67.2202,-500.538 74.1745,-499.74"/>
</g>
<!-- Node166 -->
<g id="node4" class="node"><title>Node166</title>
<g id="a_node4"><a xlink:href="xep__dispatch__messages_8c.xhtml#afa0ac1843a7d040677a0c8a1b8f427e2" target="_top" xlink:title="Dispatch message to hostcom asking to send pong to host. ">
<polygon fill="white" stroke="red" points="190,-854.5 190,-884.5 344,-884.5 344,-854.5 190,-854.5"/>
<text text-anchor="start" x="198" y="-872.5" font-family="Helvetica,sans-Serif" font-size="10.00">dispatch_message_hostcom</text>
<text text-anchor="middle" x="267" y="-861.5" font-family="Helvetica,sans-Serif" font-size="10.00">_send_pong</text>
</a>
</g>
</g>
<!-- Node128&#45;&gt;Node166 -->
<g id="edge3" class="edge"><title>Node128&#45;&gt;Node166</title>
<path fill="none" stroke="midnightblue" d="M67.6905,-500.239C66.3323,-561.162 70.8936,-747.994 171,-845.5 176.484,-850.841 182.975,-855.046 189.95,-858.35"/>
<polygon fill="midnightblue" stroke="midnightblue" points="71.1936,-500.19 68.0029,-490.087 64.1969,-499.974 71.1936,-500.19"/>
</g>
<!-- Node168 -->
<g id="node5" class="node"><title>Node168</title>
<g id="a_node5"><a xlink:href="xep__dispatch__messages_8c.xhtml#a78bc3683d59a32cf768de5fe9603f162" target="_top" xlink:title="Dispatch message to hostcom asking to send profile data sleep to host. ">
<polygon fill="white" stroke="black" points="190,-805.5 190,-835.5 344,-835.5 344,-805.5 190,-805.5"/>
<text text-anchor="start" x="198" y="-823.5" font-family="Helvetica,sans-Serif" font-size="10.00">dispatch_message_hostcom</text>
<text text-anchor="middle" x="267" y="-812.5" font-family="Helvetica,sans-Serif" font-size="10.00">_send_appdata_sleep</text>
</a>
</g>
</g>
<!-- Node128&#45;&gt;Node168 -->
<g id="edge4" class="edge"><title>Node128&#45;&gt;Node168</title>
<path fill="none" stroke="midnightblue" d="M68.7049,-500.487C70.4073,-556.154 83.1344,-714.267 171,-796.5 176.465,-801.615 182.858,-805.68 189.698,-808.906"/>
<polygon fill="midnightblue" stroke="midnightblue" points="72.1987,-500.15 68.486,-490.227 65.2002,-500.299 72.1987,-500.15"/>
</g>
<!-- Node169 -->
<g id="node6" class="node"><title>Node169</title>
<g id="a_node6"><a xlink:href="xep__dispatch__messages_8c.xhtml#a9cb07cdec7df91dd4a8ede59b01a9fc0" target="_top" xlink:title="Dispatch message to hostcom asking to send profile data respiration to host. ">
<polygon fill="white" stroke="black" points="190,-756.5 190,-786.5 344,-786.5 344,-756.5 190,-756.5"/>
<text text-anchor="start" x="198" y="-774.5" font-family="Helvetica,sans-Serif" font-size="10.00">dispatch_message_hostcom</text>
<text text-anchor="middle" x="267" y="-763.5" font-family="Helvetica,sans-Serif" font-size="10.00">_send_appdata_respiration</text>
</a>
</g>
</g>
<!-- Node128&#45;&gt;Node169 -->
<g id="edge5" class="edge"><title>Node128&#45;&gt;Node169</title>
<path fill="none" stroke="midnightblue" d="M70.0167,-500.002C74.9329,-549.329 94.8586,-679.926 171,-747.5 176.598,-752.468 183.078,-756.438 189.972,-759.605"/>
<polygon fill="midnightblue" stroke="midnightblue" points="73.5011,-499.671 69.1216,-490.023 66.5291,-500.296 73.5011,-499.671"/>
</g>
<!-- Node170 -->
<g id="node7" class="node"><title>Node170</title>
<g id="a_node7"><a xlink:href="xep__dispatch__messages_8c.xhtml#ab8706adfce1195b9e971672df23f3bc2" target="_top" xlink:title="Dispatch message to hostcom asking to send profile data truepresence single to host. ">
<polygon fill="white" stroke="black" points="171,-707.5 171,-737.5 363,-737.5 363,-707.5 171,-707.5"/>
<text text-anchor="start" x="179" y="-725.5" font-family="Helvetica,sans-Serif" font-size="10.00">dispatch_message_hostcom</text>
<text text-anchor="middle" x="267" y="-714.5" font-family="Helvetica,sans-Serif" font-size="10.00">_send_appdata_truepresence_single</text>
</a>
</g>
</g>
<!-- Node128&#45;&gt;Node170 -->
<g id="edge6" class="edge"><title>Node128&#45;&gt;Node170</title>
<path fill="none" stroke="midnightblue" d="M71.9047,-500.108C80.412,-542.993 106.715,-645.511 171,-698.5 175.201,-701.962 179.835,-704.934 184.73,-707.484"/>
<polygon fill="midnightblue" stroke="midnightblue" points="75.3151,-499.304 70.0359,-490.118 68.4344,-500.591 75.3151,-499.304"/>
</g>
<!-- Node171 -->
<g id="node8" class="node"><title>Node171</title>
<g id="a_node8"><a xlink:href="xep__dispatch__messages_8c.xhtml#ad390b40a9f75a7e6a381b0ae9ce60e7e" target="_top" xlink:title="Dispatch message to hostcom asking to send profile data truepresence movinglist to host...">
<polygon fill="white" stroke="black" points="187.5,-648 187.5,-689 346.5,-689 346.5,-648 187.5,-648"/>
<text text-anchor="start" x="195.5" y="-677" font-family="Helvetica,sans-Serif" font-size="10.00">dispatch_message_hostcom</text>
<text text-anchor="start" x="195.5" y="-666" font-family="Helvetica,sans-Serif" font-size="10.00">_send_appdata_truepresence</text>
<text text-anchor="middle" x="267" y="-655" font-family="Helvetica,sans-Serif" font-size="10.00">_movinglist</text>
</a>
</g>
</g>
<!-- Node128&#45;&gt;Node171 -->
<g id="edge7" class="edge"><title>Node128&#45;&gt;Node171</title>
<path fill="none" stroke="midnightblue" d="M75.8719,-499.828C89.5329,-533.085 121.933,-601.153 171,-638.5 175.955,-642.271 181.394,-645.575 187.085,-648.468"/>
<polygon fill="midnightblue" stroke="midnightblue" points="79.0449,-498.335 72.0976,-490.336 72.5403,-500.922 79.0449,-498.335"/>
</g>
<!-- Node172 -->
<g id="node9" class="node"><title>Node172</title>
<g id="a_node9"><a xlink:href="xep__dispatch__messages_8c.xhtml#aaacc4af55a7d7664ede806347d1aa55b" target="_top" xlink:title="Dispatch message to hostcom asking to send profile data baseband amplitude/phase to host...">
<polygon fill="white" stroke="black" points="190,-588 190,-629 344,-629 344,-588 190,-588"/>
<text text-anchor="start" x="198" y="-617" font-family="Helvetica,sans-Serif" font-size="10.00">dispatch_message_hostcom</text>
<text text-anchor="start" x="198" y="-606" font-family="Helvetica,sans-Serif" font-size="10.00">_send_appdata_baseband</text>
<text text-anchor="middle" x="267" y="-595" font-family="Helvetica,sans-Serif" font-size="10.00">_amplitude_phase</text>
</a>
</g>
</g>
<!-- Node128&#45;&gt;Node172 -->
<g id="edge8" class="edge"><title>Node128&#45;&gt;Node172</title>
<path fill="none" stroke="midnightblue" d="M82.1965,-498.112C100.262,-520.193 134.111,-557.779 171,-579.5 176.944,-583 183.35,-586.114 189.928,-588.878"/>
<polygon fill="midnightblue" stroke="midnightblue" points="84.8505,-495.826 75.8662,-490.211 79.3877,-500.203 84.8505,-495.826"/>
</g>
<!-- Node173 -->
<g id="node10" class="node"><title>Node173</title>
<g id="a_node10"><a xlink:href="xep__dispatch__messages_8c.xhtml#a790d7b75fba79015f8058ce2bef16077" target="_top" xlink:title="Dispatch message to hostcom asking to send profile data baseband IQ to host. ">
<polygon fill="white" stroke="black" points="189,-539.5 189,-569.5 345,-569.5 345,-539.5 189,-539.5"/>
<text text-anchor="start" x="197" y="-557.5" font-family="Helvetica,sans-Serif" font-size="10.00">dispatch_message_hostcom</text>
<text text-anchor="middle" x="267" y="-546.5" font-family="Helvetica,sans-Serif" font-size="10.00">_send_appdata_baseband_iq</text>
</a>
</g>
</g>
<!-- Node128&#45;&gt;Node173 -->
<g id="edge9" class="edge"><title>Node128&#45;&gt;Node173</title>
<path fill="none" stroke="midnightblue" d="M94.3799,-494.98C114.722,-505.901 144.032,-520.636 171,-530.5 179.947,-533.772 189.525,-536.761 199.031,-539.435"/>
<polygon fill="midnightblue" stroke="midnightblue" points="95.8913,-491.817 85.4346,-490.112 92.5456,-497.966 95.8913,-491.817"/>
</g>
<!-- Node174 -->
<g id="node11" class="node"><title>Node174</title>
<g id="a_node11"><a xlink:href="xep__dispatch__messages_8c.xhtml#a3fc50ea4a1f6588025cdee7a61eba2cc" target="_top" xlink:title="Dispatch message to hostcom asking to send profile parameter file to host. ">
<polygon fill="white" stroke="black" points="172.5,-490.5 172.5,-520.5 361.5,-520.5 361.5,-490.5 172.5,-490.5"/>
<text text-anchor="start" x="180.5" y="-508.5" font-family="Helvetica,sans-Serif" font-size="10.00">dispatch_message_hostcom</text>
<text text-anchor="middle" x="267" y="-497.5" font-family="Helvetica,sans-Serif" font-size="10.00">_send_appdata_profileparameterfile</text>
</a>
</g>
</g>
<!-- Node128&#45;&gt;Node174 -->
<g id="edge10" class="edge"><title>Node128&#45;&gt;Node174</title>
<path fill="none" stroke="midnightblue" d="M145.061,-490.191C154.004,-491.323 163.203,-492.488 172.344,-493.645"/>
<polygon fill="midnightblue" stroke="midnightblue" points="145.45,-486.713 135.089,-488.929 144.57,-493.657 145.45,-486.713"/>
</g>
<!-- Node175 -->
<g id="node12" class="node"><title>Node175</title>
<g id="a_node12"><a xlink:href="xep__dispatch__messages_8c.xhtml#ad41a44756422ad7d000194262a394292" target="_top" xlink:title="Dispatch message to hostcom asking to send system message to host. ">
<polygon fill="white" stroke="red" points="190,-441.5 190,-471.5 344,-471.5 344,-441.5 190,-441.5"/>
<text text-anchor="start" x="198" y="-459.5" font-family="Helvetica,sans-Serif" font-size="10.00">dispatch_message_hostcom</text>
<text text-anchor="middle" x="267" y="-448.5" font-family="Helvetica,sans-Serif" font-size="10.00">_send_system</text>
</a>
</g>
</g>
<!-- Node128&#45;&gt;Node175 -->
<g id="edge11" class="edge"><title>Node128&#45;&gt;Node175</title>
<path fill="none" stroke="midnightblue" d="M145.123,-471.189C159.799,-469.405 175.163,-467.538 189.825,-465.757"/>
<polygon fill="midnightblue" stroke="midnightblue" points="144.594,-467.727 135.089,-472.408 145.438,-474.676 144.594,-467.727"/>
</g>
<!-- Node177 -->
<g id="node13" class="node"><title>Node177</title>
<g id="a_node13"><a xlink:href="xep__dispatch__messages_8c.xhtml#a1d85432e0504e5196dc02922c8ed3c30" target="_top" xlink:title="Dispatch message to hostcom asking to send string to host. ">
<polygon fill="white" stroke="red" points="190,-392.5 190,-422.5 344,-422.5 344,-392.5 190,-392.5"/>
<text text-anchor="start" x="198" y="-410.5" font-family="Helvetica,sans-Serif" font-size="10.00">dispatch_message_hostcom</text>
<text text-anchor="middle" x="267" y="-399.5" font-family="Helvetica,sans-Serif" font-size="10.00">_send_data_stringn</text>
</a>
</g>
</g>
<!-- Node128&#45;&gt;Node177 -->
<g id="edge12" class="edge"><title>Node128&#45;&gt;Node177</title>
<path fill="none" stroke="midnightblue" d="M95.2106,-466.361C115.572,-455.987 144.526,-442.093 171,-432.5 181.021,-428.869 191.812,-425.52 202.399,-422.533"/>
<polygon fill="midnightblue" stroke="midnightblue" points="93.5107,-463.3 86.2272,-470.994 96.7191,-469.521 93.5107,-463.3"/>
</g>
<!-- Node179 -->
<g id="node14" class="node"><title>Node179</title>
<g id="a_node14"><a xlink:href="xep__dispatch__messages_8c.xhtml#a66e62c413e7dd74946d0d8c0542ffd82" target="_top" xlink:title="Dispatch message to hostcom asking to send byte array to host. ">
<polygon fill="white" stroke="red" points="190,-343.5 190,-373.5 344,-373.5 344,-343.5 190,-343.5"/>
<text text-anchor="start" x="198" y="-361.5" font-family="Helvetica,sans-Serif" font-size="10.00">dispatch_message_hostcom</text>
<text text-anchor="middle" x="267" y="-350.5" font-family="Helvetica,sans-Serif" font-size="10.00">_send_data_byte</text>
</a>
</g>
</g>
<!-- Node128&#45;&gt;Node179 -->
<g id="edge13" class="edge"><title>Node128&#45;&gt;Node179</title>
<path fill="none" stroke="midnightblue" d="M82.1461,-463.031C100.159,-441.17 133.952,-404.106 171,-383.5 177.856,-379.687 185.315,-376.437 192.94,-373.671"/>
<polygon fill="midnightblue" stroke="midnightblue" points="79.3872,-460.877 75.8364,-470.859 84.8371,-465.27 79.3872,-460.877"/>
</g>
<!-- Node180 -->
<g id="node15" class="node"><title>Node180</title>
<g id="a_node15"><a xlink:href="xep__dispatch__messages_8c.xhtml#a51120146f30f1c984ed9bb4a5dbe16ed" target="_top" xlink:title="Dispatch message to hostcom asking to send float array to host. ">
<polygon fill="white" stroke="black" points="190,-294.5 190,-324.5 344,-324.5 344,-294.5 190,-294.5"/>
<text text-anchor="start" x="198" y="-312.5" font-family="Helvetica,sans-Serif" font-size="10.00">dispatch_message_hostcom</text>
<text text-anchor="middle" x="267" y="-301.5" font-family="Helvetica,sans-Serif" font-size="10.00">_send_data_float</text>
</a>
</g>
</g>
<!-- Node128&#45;&gt;Node180 -->
<g id="edge14" class="edge"><title>Node128&#45;&gt;Node180</title>
<path fill="none" stroke="midnightblue" d="M76.4936,-461.545C90.727,-430.153 123.497,-367.56 171,-334.5 176.739,-330.506 183.077,-327.15 189.674,-324.33"/>
<polygon fill="midnightblue" stroke="midnightblue" points="73.1986,-460.344 72.3827,-470.907 79.6079,-463.158 73.1986,-460.344"/>
</g>
<!-- Node181 -->
<g id="node16" class="node"><title>Node181</title>
<g id="a_node16"><a xlink:href="xep__dispatch__messages_8c.xhtml#a71071a04cadcf7ee0fe06a39995aff63" target="_top" xlink:title="Dispatch message to hostcom asking to reply with int array to host. ">
<polygon fill="white" stroke="red" points="190,-245.5 190,-275.5 344,-275.5 344,-245.5 190,-245.5"/>
<text text-anchor="start" x="198" y="-263.5" font-family="Helvetica,sans-Serif" font-size="10.00">dispatch_message_hostcom</text>
<text text-anchor="middle" x="267" y="-252.5" font-family="Helvetica,sans-Serif" font-size="10.00">_send_reply_int</text>
</a>
</g>
</g>
<!-- Node128&#45;&gt;Node181 -->
<g id="edge15" class="edge"><title>Node128&#45;&gt;Node181</title>
<path fill="none" stroke="midnightblue" d="M73.1473,-460.841C83.5349,-421.327 112.457,-332.08 171,-285.5 176.605,-281.04 182.928,-277.371 189.583,-274.353"/>
<polygon fill="midnightblue" stroke="midnightblue" points="69.74,-460.04 70.6998,-470.591 76.5294,-461.744 69.74,-460.04"/>
</g>
<!-- Node182 -->
<g id="node17" class="node"><title>Node182</title>
<g id="a_node17"><a xlink:href="xep__dispatch__messages_8c.xhtml#a6415cc8037bda323e26a986575e0ccd3" target="_top" xlink:title="Dispatch message to hostcom asking to reply with byte array to host. ">
<polygon fill="white" stroke="red" points="190,-196.5 190,-226.5 344,-226.5 344,-196.5 190,-196.5"/>
<text text-anchor="start" x="198" y="-214.5" font-family="Helvetica,sans-Serif" font-size="10.00">dispatch_message_hostcom</text>
<text text-anchor="middle" x="267" y="-203.5" font-family="Helvetica,sans-Serif" font-size="10.00">_send_reply_byte</text>
</a>
</g>
</g>
<!-- Node128&#45;&gt;Node182 -->
<g id="edge16" class="edge"><title>Node128&#45;&gt;Node182</title>
<path fill="none" stroke="midnightblue" d="M70.8733,-460.854C77.5475,-414.465 100.82,-297.461 171,-236.5 176.536,-231.691 182.893,-227.792 189.639,-224.633"/>
<polygon fill="midnightblue" stroke="midnightblue" points="67.3972,-460.443 69.5439,-470.818 74.3357,-461.368 67.3972,-460.443"/>
</g>
<!-- Node183 -->
<g id="node18" class="node"><title>Node183</title>
<g id="a_node18"><a xlink:href="xep__dispatch__messages_8c.xhtml#ad1b2c1285e7258ddf4624af93c5e50b3" target="_top" xlink:title="Dispatch message to hostcom asking to reply with string to host. ">
<polygon fill="white" stroke="red" points="190,-147.5 190,-177.5 344,-177.5 344,-147.5 190,-147.5"/>
<text text-anchor="start" x="198" y="-165.5" font-family="Helvetica,sans-Serif" font-size="10.00">dispatch_message_hostcom</text>
<text text-anchor="middle" x="267" y="-154.5" font-family="Helvetica,sans-Serif" font-size="10.00">_send_reply_stringn</text>
</a>
</g>
</g>
<!-- Node128&#45;&gt;Node183 -->
<g id="edge17" class="edge"><title>Node128&#45;&gt;Node183</title>
<path fill="none" stroke="midnightblue" d="M69.3082,-460.946C72.5688,-408.454 88.9435,-263.302 171,-187.5 176.512,-182.408 182.936,-178.328 189.795,-175.062"/>
<polygon fill="midnightblue" stroke="midnightblue" points="65.8127,-460.771 68.7816,-470.941 72.803,-461.139 65.8127,-460.771"/>
</g>
<!-- Node185 -->
<g id="node19" class="node"><title>Node185</title>
<g id="a_node19"><a xlink:href="xep__dispatch__messages_8c.xhtml#a150240f872f2c85621c9d01b8934cef8" target="_top" xlink:title="Dispatch message to hostcom asking to reply with float to host. ">
<polygon fill="white" stroke="red" points="190,-98.5 190,-128.5 344,-128.5 344,-98.5 190,-98.5"/>
<text text-anchor="start" x="198" y="-116.5" font-family="Helvetica,sans-Serif" font-size="10.00">dispatch_message_hostcom</text>
<text text-anchor="middle" x="267" y="-105.5" font-family="Helvetica,sans-Serif" font-size="10.00">_send_reply_float</text>
</a>
</g>
</g>
<!-- Node128&#45;&gt;Node185 -->
<g id="edge18" class="edge"><title>Node128&#45;&gt;Node185</title>
<path fill="none" stroke="midnightblue" d="M68.1715,-460.887C68.3147,-402.688 76.9949,-229.374 171,-138.5 176.395,-133.284 182.742,-129.123 189.554,-125.808"/>
<polygon fill="midnightblue" stroke="midnightblue" points="64.6718,-460.956 68.234,-470.934 71.6717,-460.912 64.6718,-460.956"/>
</g>
<!-- Node186 -->
<g id="node20" class="node"><title>Node186</title>
<g id="a_node20"><a xlink:href="task__hostcom_8c.xhtml#a2107f903297b89d9863455c76cdcd97d" target="_top" xlink:title="mcp_handle_protocol\l_packet">
<polygon fill="white" stroke="red" points="207.5,-49.5 207.5,-79.5 326.5,-79.5 326.5,-49.5 207.5,-49.5"/>
<text text-anchor="start" x="215.5" y="-67.5" font-family="Helvetica,sans-Serif" font-size="10.00">mcp_handle_protocol</text>
<text text-anchor="middle" x="267" y="-56.5" font-family="Helvetica,sans-Serif" font-size="10.00">_packet</text>
</a>
</g>
</g>
<!-- Node128&#45;&gt;Node186 -->
<g id="edge19" class="edge"><title>Node128&#45;&gt;Node186</title>
<path fill="none" stroke="midnightblue" d="M71.0484,-460.662C80.6645,-388.812 116.97,-143.581 171,-89.5 180.764,-79.7273 193.859,-73.636 207.201,-69.8749"/>
<polygon fill="midnightblue" stroke="midnightblue" points="67.5244,-460.616 69.6921,-470.987 74.4648,-461.528 67.5244,-460.616"/>
</g>
<!-- Node189 -->
<g id="node21" class="node"><title>Node189</title>
<g id="a_node21"><a xlink:href="task__radar_8c.xhtml#a1f0b2f52d809a8141147add6eaa0279a" target="_top" xlink:title="read_and_send_radar\l_frame">
<polygon fill="white" stroke="red" points="206.5,-0.5 206.5,-30.5 327.5,-30.5 327.5,-0.5 206.5,-0.5"/>
<text text-anchor="start" x="214.5" y="-18.5" font-family="Helvetica,sans-Serif" font-size="10.00">read_and_send_radar</text>
<text text-anchor="middle" x="267" y="-7.5" font-family="Helvetica,sans-Serif" font-size="10.00">_frame</text>
</a>
</g>
</g>
<!-- Node128&#45;&gt;Node189 -->
<g id="edge20" class="edge"><title>Node128&#45;&gt;Node189</title>
<path fill="none" stroke="midnightblue" d="M70.4221,-460.722C78.3307,-383.353 110.813,-102.424 171,-40.5 180.39,-30.8385 193.032,-24.7592 206.024,-20.9713"/>
<polygon fill="midnightblue" stroke="midnightblue" points="66.9098,-460.672 69.3981,-470.97 73.8751,-461.368 66.9098,-460.672"/>
</g>
</g>
</svg>
