<?xml version="1.0" encoding="UTF-8" standalone="no"?>
<!DOCTYPE svg PUBLIC "-//W3C//DTD SVG 1.1//EN"
 "http://www.w3.org/Graphics/SVG/1.1/DTD/svg11.dtd">
<!-- Generated by graphviz version 2.38.0 (20140413.2041)
 -->
<!-- Title: include/xep_dispatch.h Pages: 1 -->
<svg width="1034pt" height="95pt"
 viewBox="0.00 0.00 1034.00 95.00" xmlns="http://www.w3.org/2000/svg" xmlns:xlink="http://www.w3.org/1999/xlink">
<g id="graph0" class="graph" transform="scale(1 1) rotate(0) translate(4 91)">
<title>include/xep_dispatch.h</title>
<polygon fill="white" stroke="none" points="-4,4 -4,-91 1030,-91 1030,4 -4,4"/>
<!-- Node4 -->
<g id="node1" class="node"><title>Node4</title>
<polygon fill="#bfbfbf" stroke="black" points="416.5,-67.5 416.5,-86.5 541.5,-86.5 541.5,-67.5 416.5,-67.5"/>
<text text-anchor="middle" x="479" y="-74.5" font-family="Helvetica,sans-Serif" font-size="10.00">include/xep_dispatch.h</text>
</g>
<!-- Node5 -->
<g id="node2" class="node"><title>Node5</title>
<g id="a_node2"><a xlink:href="xep_8h.xhtml" target="_top" xlink:title="XEP interface. ">
<polygon fill="white" stroke="red" points="0,-6 0,-25 80,-25 80,-6 0,-6"/>
<text text-anchor="middle" x="40" y="-13" font-family="Helvetica,sans-Serif" font-size="10.00">include/xep.h</text>
</a>
</g>
</g>
<!-- Node4&#45;&gt;Node5 -->
<g id="edge1" class="edge"><title>Node4&#45;&gt;Node5</title>
<path fill="none" stroke="midnightblue" d="M406.029,-71.3634C327.227,-65.4793 198.289,-53.3011 89,-31 81.3506,-29.4391 73.1702,-27.2379 65.7276,-25.0211"/>
<polygon fill="midnightblue" stroke="midnightblue" points="406.105,-74.8783 416.334,-72.1183 406.616,-67.897 406.105,-74.8783"/>
</g>
<!-- Node8 -->
<g id="node3" class="node"><title>Node8</title>
<g id="a_node3"><a xlink:href="xep__dispatch__messages_8h.xhtml" target="_top" xlink:title="include/xep_dispatch\l_messages.h">
<polygon fill="white" stroke="red" points="98,-0.5 98,-30.5 214,-30.5 214,-0.5 98,-0.5"/>
<text text-anchor="start" x="106" y="-18.5" font-family="Helvetica,sans-Serif" font-size="10.00">include/xep_dispatch</text>
<text text-anchor="middle" x="156" y="-7.5" font-family="Helvetica,sans-Serif" font-size="10.00">_messages.h</text>
</a>
</g>
</g>
<!-- Node4&#45;&gt;Node8 -->
<g id="edge2" class="edge"><title>Node4&#45;&gt;Node8</title>
<path fill="none" stroke="midnightblue" d="M416.863,-65.7769C364.943,-57.0671 289.01,-43.9393 223,-31 220.08,-30.4277 217.092,-29.8288 214.076,-29.2141"/>
<polygon fill="midnightblue" stroke="midnightblue" points="416.477,-69.2608 426.917,-67.4586 417.632,-62.3567 416.477,-69.2608"/>
</g>
<!-- Node12 -->
<g id="node4" class="node"><title>Node12</title>
<g id="a_node4"><a xlink:href="xep__dispatch_8c.xhtml" target="_top" xlink:title="src/Dispatch/xep_dispatch.c">
<polygon fill="white" stroke="black" points="232,-6 232,-25 382,-25 382,-6 232,-6"/>
<text text-anchor="middle" x="307" y="-13" font-family="Helvetica,sans-Serif" font-size="10.00">src/Dispatch/xep_dispatch.c</text>
</a>
</g>
</g>
<!-- Node4&#45;&gt;Node12 -->
<g id="edge3" class="edge"><title>Node4&#45;&gt;Node12</title>
<path fill="none" stroke="midnightblue" d="M444.55,-64.0828C411.116,-52.517 361.209,-35.2524 331.598,-25.0091"/>
<polygon fill="midnightblue" stroke="midnightblue" points="443.762,-67.5135 454.357,-67.4751 446.05,-60.8981 443.762,-67.5135"/>
</g>
<!-- Node13 -->
<g id="node5" class="node"><title>Node13</title>
<g id="a_node5"><a xlink:href="task__hostcom_8h.xhtml" target="_top" xlink:title="src/HostCom/task_hostcom.h">
<polygon fill="white" stroke="red" points="400,-6 400,-25 558,-25 558,-6 400,-6"/>
<text text-anchor="middle" x="479" y="-13" font-family="Helvetica,sans-Serif" font-size="10.00">src/HostCom/task_hostcom.h</text>
</a>
</g>
</g>
<!-- Node4&#45;&gt;Node13 -->
<g id="edge4" class="edge"><title>Node4&#45;&gt;Node13</title>
<path fill="none" stroke="midnightblue" d="M479,-57.3165C479,-46.4962 479,-33.398 479,-25.0091"/>
<polygon fill="midnightblue" stroke="midnightblue" points="475.5,-57.4751 479,-67.4751 482.5,-57.4751 475.5,-57.4751"/>
</g>
<!-- Node15 -->
<g id="node6" class="node"><title>Node15</title>
<g id="a_node6"><a xlink:href="task__radar_8h.xhtml" target="_top" xlink:title="Radar event task. ">
<polygon fill="white" stroke="red" points="576,-6 576,-25 700,-25 700,-6 576,-6"/>
<text text-anchor="middle" x="638" y="-13" font-family="Helvetica,sans-Serif" font-size="10.00">src/Radar/task_radar.h</text>
</a>
</g>
</g>
<!-- Node4&#45;&gt;Node15 -->
<g id="edge5" class="edge"><title>Node4&#45;&gt;Node15</title>
<path fill="none" stroke="midnightblue" d="M511.247,-63.9329C542.15,-52.3683 588.007,-35.2083 615.261,-25.0091"/>
<polygon fill="midnightblue" stroke="midnightblue" points="509.92,-60.6923 501.781,-67.4751 512.373,-67.2483 509.92,-60.6923"/>
</g>
<!-- Node16 -->
<g id="node7" class="node"><title>Node16</title>
<g id="a_node7"><a xlink:href="task__monitor_8h.xhtml" target="_top" xlink:title="System monitor task. ">
<polygon fill="white" stroke="red" points="718.5,-6 718.5,-25 863.5,-25 863.5,-6 718.5,-6"/>
<text text-anchor="middle" x="791" y="-13" font-family="Helvetica,sans-Serif" font-size="10.00">src/System/task_monitor.h</text>
</a>
</g>
</g>
<!-- Node4&#45;&gt;Node16 -->
<g id="edge6" class="edge"><title>Node4&#45;&gt;Node16</title>
<path fill="none" stroke="midnightblue" d="M533.82,-65.5456C594.265,-54.0184 690.353,-35.6939 746.381,-25.0091"/>
<polygon fill="midnightblue" stroke="midnightblue" points="532.869,-62.1637 523.702,-67.4751 534.181,-69.0398 532.869,-62.1637"/>
</g>
<!-- Node19 -->
<g id="node8" class="node"><title>Node19</title>
<g id="a_node8"><a xlink:href="xep__application_8h.xhtml" target="_top" xlink:title="XEP Module application interface. ">
<polygon fill="white" stroke="red" points="882,-6 882,-25 1026,-25 1026,-6 882,-6"/>
<text text-anchor="middle" x="954" y="-13" font-family="Helvetica,sans-Serif" font-size="10.00">src/XEPA/xep_application.h</text>
</a>
</g>
</g>
<!-- Node4&#45;&gt;Node19 -->
<g id="edge7" class="edge"><title>Node4&#45;&gt;Node19</title>
<path fill="none" stroke="midnightblue" d="M551.954,-69.066C631.177,-61.2102 761.356,-47.3517 873,-31 884.732,-29.2817 897.371,-27.1534 909.096,-25.0615"/>
<polygon fill="midnightblue" stroke="midnightblue" points="551.206,-65.6227 541.597,-70.0875 551.893,-72.5889 551.206,-65.6227"/>
</g>
</g>
</svg>
