<?xml version="1.0" encoding="UTF-8" standalone="no"?>
<!DOCTYPE svg PUBLIC "-//W3C//DTD SVG 1.1//EN"
 "http://www.w3.org/Graphics/SVG/1.1/DTD/svg11.dtd">
<!-- Generated by graphviz version 2.38.0 (20140413.2041)
 -->
<!-- Title: onMcpX4DriverInit Pages: 1 -->
<svg width="301pt" height="127pt"
 viewBox="0.00 0.00 301.00 126.50" xmlns="http://www.w3.org/2000/svg" xmlns:xlink="http://www.w3.org/1999/xlink">
<g id="graph0" class="graph" transform="scale(1 1) rotate(0) translate(4 122.5)">
<title>onMcpX4DriverInit</title>
<polygon fill="white" stroke="none" points="-4,4 -4,-122.5 297,-122.5 297,4 -4,4"/>
<!-- Node287 -->
<g id="node1" class="node"><title>Node287</title>
<polygon fill="#bfbfbf" stroke="black" points="0,-55 0,-74 103,-74 103,-55 0,-55"/>
<text text-anchor="middle" x="51.5" y="-62" font-family="Helvetica,sans-Serif" font-size="10.00">onMcpX4DriverInit</text>
</g>
<!-- Node288 -->
<g id="node2" class="node"><title>Node288</title>
<g id="a_node2"><a xlink:href="x4driver_8h.xhtml#a86dbadcb2e415d23600ef1bb31c9dbde" target="_top" xlink:title="Initiates x4driver. ">
<polygon fill="white" stroke="red" points="179,-99 179,-118 253,-118 253,-99 179,-99"/>
<text text-anchor="middle" x="216" y="-106" font-family="Helvetica,sans-Serif" font-size="10.00">x4driver_init</text>
</a>
</g>
</g>
<!-- Node287&#45;&gt;Node288 -->
<g id="edge1" class="edge"><title>Node287&#45;&gt;Node288</title>
<path fill="none" stroke="midnightblue" d="M84.4639,-74.0388C100.749,-78.8221 120.887,-84.6202 139,-89.5 148.751,-92.127 159.239,-94.8284 169.216,-97.3402"/>
<polygon fill="midnightblue" stroke="midnightblue" points="168.426,-100.75 178.976,-99.7789 170.123,-93.9592 168.426,-100.75"/>
</g>
<!-- Node327 -->
<g id="node3" class="node"><title>Node327</title>
<g id="a_node3"><a xlink:href="xep__dispatch__messages_8h.xhtml#a9b90f44cd5a4308e041a205a84fe4360" target="_top" xlink:title="Dispatch message to hostcom asking to send ack to host. ">
<polygon fill="white" stroke="red" points="139,-49.5 139,-79.5 293,-79.5 293,-49.5 139,-49.5"/>
<text text-anchor="start" x="147" y="-67.5" font-family="Helvetica,sans-Serif" font-size="10.00">dispatch_message_hostcom</text>
<text text-anchor="middle" x="216" y="-56.5" font-family="Helvetica,sans-Serif" font-size="10.00">_send_ack</text>
</a>
</g>
</g>
<!-- Node287&#45;&gt;Node327 -->
<g id="edge2" class="edge"><title>Node287&#45;&gt;Node327</title>
<path fill="none" stroke="midnightblue" d="M103.025,-64.5C111.195,-64.5 119.851,-64.5 128.586,-64.5"/>
<polygon fill="midnightblue" stroke="midnightblue" points="128.854,-68.0001 138.854,-64.5 128.854,-61.0001 128.854,-68.0001"/>
</g>
<!-- Node336 -->
<g id="node4" class="node"><title>Node336</title>
<g id="a_node4"><a xlink:href="xep__dispatch__messages_8h.xhtml#a441f9b844c9ffb78cfee8edbdb16717a" target="_top" xlink:title="Dispatch message to hostcom asking to send error to host. ">
<polygon fill="white" stroke="red" points="139,-0.5 139,-30.5 293,-30.5 293,-0.5 139,-0.5"/>
<text text-anchor="start" x="147" y="-18.5" font-family="Helvetica,sans-Serif" font-size="10.00">dispatch_message_hostcom</text>
<text text-anchor="middle" x="216" y="-7.5" font-family="Helvetica,sans-Serif" font-size="10.00">_send_error</text>
</a>
</g>
</g>
<!-- Node287&#45;&gt;Node336 -->
<g id="edge3" class="edge"><title>Node287&#45;&gt;Node336</title>
<path fill="none" stroke="midnightblue" d="M84.2174,-54.936C104.431,-48.8408 131.259,-40.7512 155.354,-33.4857"/>
<polygon fill="midnightblue" stroke="midnightblue" points="156.569,-36.775 165.133,-30.537 154.548,-30.0731 156.569,-36.775"/>
</g>
</g>
</svg>
