<?xml version="1.0" encoding="UTF-8" standalone="no"?>
<!DOCTYPE svg PUBLIC "-//W3C//DTD SVG 1.1//EN"
 "http://www.w3.org/Graphics/SVG/1.1/DTD/svg11.dtd">
<!-- Generated by graphviz version 2.38.0 (20140413.2041)
 -->
<!-- Title: src/XEPA/xep_application.c Pages: 1 -->
<svg width="1344pt" height="151pt"
 viewBox="0.00 0.00 1344.00 151.00" xmlns="http://www.w3.org/2000/svg" xmlns:xlink="http://www.w3.org/1999/xlink">
<g id="graph0" class="graph" transform="scale(1 1) rotate(0) translate(4 147)">
<title>src/XEPA/xep_application.c</title>
<polygon fill="white" stroke="none" points="-4,4 -4,-147 1340,-147 1340,4 -4,4"/>
<!-- Node0 -->
<g id="node1" class="node"><title>Node0</title>
<polygon fill="#bfbfbf" stroke="black" points="633.5,-123.5 633.5,-142.5 776.5,-142.5 776.5,-123.5 633.5,-123.5"/>
<text text-anchor="middle" x="705" y="-130.5" font-family="Helvetica,sans-Serif" font-size="10.00">src/XEPA/xep_application.c</text>
</g>
<!-- Node1 -->
<g id="node2" class="node"><title>Node1</title>
<g id="a_node2"><a xlink:href="xep__application_8h.xhtml" target="_top" xlink:title="XEP Module application interface. ">
<polygon fill="white" stroke="red" points="0,-62 0,-81 100,-81 100,-62 0,-62"/>
<text text-anchor="middle" x="50" y="-69" font-family="Helvetica,sans-Serif" font-size="10.00">xep_application.h</text>
</a>
</g>
</g>
<!-- Node0&#45;&gt;Node1 -->
<g id="edge1" class="edge"><title>Node0&#45;&gt;Node1</title>
<path fill="none" stroke="midnightblue" d="M633.129,-130.308C520.846,-126.826 297.265,-116.511 110,-87 103.817,-86.0257 97.3324,-84.7411 91.0054,-83.3387"/>
<polygon fill="midnightblue" stroke="midnightblue" points="91.7923,-79.9284 81.2587,-81.0655 90.2023,-86.7454 91.7923,-79.9284"/>
</g>
<!-- Node7 -->
<g id="node3" class="node"><title>Node7</title>
<polygon fill="white" stroke="#bfbfbf" points="118.5,-62 118.5,-81 189.5,-81 189.5,-62 118.5,-62"/>
<text text-anchor="middle" x="154" y="-69" font-family="Helvetica,sans-Serif" font-size="10.00">FreeRTOS.h</text>
</g>
<!-- Node0&#45;&gt;Node7 -->
<g id="edge2" class="edge"><title>Node0&#45;&gt;Node7</title>
<path fill="none" stroke="midnightblue" d="M633.469,-130.645C534.792,-127.645 351.769,-118.001 199,-87 195.041,-86.1966 190.941,-85.1661 186.9,-84.0256"/>
<polygon fill="midnightblue" stroke="midnightblue" points="187.679,-80.604 177.093,-81.0305 185.635,-87.2988 187.679,-80.604"/>
</g>
<!-- Node8 -->
<g id="node4" class="node"><title>Node8</title>
<polygon fill="white" stroke="#bfbfbf" points="208,-62 208,-81 254,-81 254,-62 208,-62"/>
<text text-anchor="middle" x="231" y="-69" font-family="Helvetica,sans-Serif" font-size="10.00">task.h</text>
</g>
<!-- Node0&#45;&gt;Node8 -->
<g id="edge3" class="edge"><title>Node0&#45;&gt;Node8</title>
<path fill="none" stroke="midnightblue" d="M633.292,-131.772C544.778,-129.888 390.346,-121.348 263,-87 260.847,-86.4193 258.656,-85.7086 256.482,-84.9171"/>
<polygon fill="midnightblue" stroke="midnightblue" points="257.808,-81.678 247.23,-81.0804 255.127,-88.1441 257.808,-81.678"/>
</g>
<!-- Node9 -->
<g id="node5" class="node"><title>Node9</title>
<polygon fill="white" stroke="#bfbfbf" points="272,-62 272,-81 328,-81 328,-62 272,-62"/>
<text text-anchor="middle" x="300" y="-69" font-family="Helvetica,sans-Serif" font-size="10.00">queue.h</text>
</g>
<!-- Node0&#45;&gt;Node9 -->
<g id="edge4" class="edge"><title>Node0&#45;&gt;Node9</title>
<path fill="none" stroke="midnightblue" d="M633.372,-128.363C558.715,-123.381 438.774,-112.01 338,-87 335.173,-86.2984 332.27,-85.4464 329.39,-84.5107"/>
<polygon fill="midnightblue" stroke="midnightblue" points="330.419,-81.162 319.824,-81.104 328.071,-87.7562 330.419,-81.162"/>
</g>
<!-- Node10 -->
<g id="node6" class="node"><title>Node10</title>
<polygon fill="white" stroke="#bfbfbf" points="346.5,-62 346.5,-81 411.5,-81 411.5,-62 346.5,-62"/>
<text text-anchor="middle" x="379" y="-69" font-family="Helvetica,sans-Serif" font-size="10.00">protocol.h</text>
</g>
<!-- Node0&#45;&gt;Node10 -->
<g id="edge5" class="edge"><title>Node0&#45;&gt;Node10</title>
<path fill="none" stroke="midnightblue" d="M633.401,-124.182C575.553,-117.024 492.317,-104.815 421,-87 417.782,-86.1961 414.46,-85.2532 411.16,-84.2406"/>
<polygon fill="midnightblue" stroke="midnightblue" points="412.043,-80.8471 401.45,-81.0634 409.866,-87.4999 412.043,-80.8471"/>
</g>
<!-- Node11 -->
<g id="node7" class="node"><title>Node11</title>
<g id="a_node7"><a xlink:href="xep__dispatch__messages_8h.xhtml" target="_top" xlink:title="xep_dispatch_messages.h">
<polygon fill="white" stroke="red" points="429.5,-62 429.5,-81 572.5,-81 572.5,-62 429.5,-62"/>
<text text-anchor="middle" x="501" y="-69" font-family="Helvetica,sans-Serif" font-size="10.00">xep_dispatch_messages.h</text>
</a>
</g>
</g>
<!-- Node0&#45;&gt;Node11 -->
<g id="edge6" class="edge"><title>Node0&#45;&gt;Node11</title>
<path fill="none" stroke="midnightblue" d="M675.772,-123.475C640.097,-113.07 579.64,-95.4367 540.018,-83.8801"/>
<polygon fill="midnightblue" stroke="midnightblue" points="540.754,-80.4492 530.174,-81.0091 538.794,-87.1692 540.754,-80.4492"/>
</g>
<!-- Node12 -->
<g id="node8" class="node"><title>Node12</title>
<g id="a_node8"><a xlink:href="module__ui_8h.xhtml" target="_top" xlink:title="module_ui.h">
<polygon fill="white" stroke="red" points="590.5,-62 590.5,-81 665.5,-81 665.5,-62 590.5,-62"/>
<text text-anchor="middle" x="628" y="-69" font-family="Helvetica,sans-Serif" font-size="10.00">module_ui.h</text>
</a>
</g>
</g>
<!-- Node0&#45;&gt;Node12 -->
<g id="edge7" class="edge"><title>Node0&#45;&gt;Node12</title>
<path fill="none" stroke="midnightblue" d="M693.968,-123.475C681.732,-114.02 661.771,-98.5961 647.007,-87.1871"/>
<polygon fill="midnightblue" stroke="midnightblue" points="649.065,-84.3541 639.012,-81.0091 644.785,-89.8931 649.065,-84.3541"/>
</g>
<!-- Node13 -->
<g id="node9" class="node"><title>Node13</title>
<g id="a_node9"><a xlink:href="xep_8h.xhtml" target="_top" xlink:title="XEP interface. ">
<polygon fill="white" stroke="red" points="683.5,-62 683.5,-81 726.5,-81 726.5,-62 683.5,-62"/>
<text text-anchor="middle" x="705" y="-69" font-family="Helvetica,sans-Serif" font-size="10.00">xep.h</text>
</a>
</g>
</g>
<!-- Node0&#45;&gt;Node13 -->
<g id="edge8" class="edge"><title>Node0&#45;&gt;Node13</title>
<path fill="none" stroke="midnightblue" d="M705,-123.475C705,-115.08 705,-101.981 705,-91.1631"/>
<polygon fill="midnightblue" stroke="midnightblue" points="708.5,-91.0091 705,-81.0091 701.5,-91.0091 708.5,-91.0091"/>
</g>
<!-- Node14 -->
<g id="node10" class="node"><title>Node14</title>
<polygon fill="white" stroke="#bfbfbf" points="680,-0.5 680,-19.5 780,-19.5 780,-0.5 680,-0.5"/>
<text text-anchor="middle" x="730" y="-7.5" font-family="Helvetica,sans-Serif" font-size="10.00">protocol_parser.h</text>
</g>
<!-- Node0&#45;&gt;Node14 -->
<g id="edge11" class="edge"><title>Node0&#45;&gt;Node14</title>
<path fill="none" stroke="midnightblue" d="M713.483,-123.234C721.054,-114.75 731.604,-101.131 736,-87 741.885,-68.0844 738.837,-45.3086 735.291,-29.652"/>
<polygon fill="midnightblue" stroke="midnightblue" points="738.607,-28.4898 732.741,-19.6669 731.824,-30.222 738.607,-28.4898"/>
</g>
<!-- Node15 -->
<g id="node11" class="node"><title>Node15</title>
<g id="a_node11"><a xlink:href="xtmemory_8h.xhtml" target="_top" xlink:title="Platform independent mutex mechanism. ">
<polygon fill="white" stroke="red" points="783,-62 783,-81 857,-81 857,-62 783,-62"/>
<text text-anchor="middle" x="820" y="-69" font-family="Helvetica,sans-Serif" font-size="10.00">xtmemory.h</text>
</a>
</g>
</g>
<!-- Node0&#45;&gt;Node15 -->
<g id="edge10" class="edge"><title>Node0&#45;&gt;Node15</title>
<path fill="none" stroke="midnightblue" d="M721.477,-123.475C740.605,-113.578 772.373,-97.1416 794.652,-85.6151"/>
<polygon fill="midnightblue" stroke="midnightblue" points="796.281,-88.713 803.554,-81.0091 793.064,-82.4958 796.281,-88.713"/>
</g>
<!-- Node16 -->
<g id="node12" class="node"><title>Node16</title>
<g id="a_node12"><a xlink:href="xep__application__mcp__callbacks_8h.xhtml" target="_top" xlink:title="XEP Module application interface. ">
<polygon fill="white" stroke="red" points="875.5,-56.5 875.5,-86.5 992.5,-86.5 992.5,-56.5 875.5,-56.5"/>
<text text-anchor="start" x="883.5" y="-74.5" font-family="Helvetica,sans-Serif" font-size="10.00">xep_application_mcp</text>
<text text-anchor="middle" x="934" y="-63.5" font-family="Helvetica,sans-Serif" font-size="10.00">_callbacks.h</text>
</a>
</g>
</g>
<!-- Node0&#45;&gt;Node16 -->
<g id="edge12" class="edge"><title>Node0&#45;&gt;Node16</title>
<path fill="none" stroke="midnightblue" d="M737.81,-123.475C772.231,-114.532 827.203,-100.249 870.212,-89.0738"/>
<polygon fill="midnightblue" stroke="midnightblue" points="871.231,-92.4253 880.029,-86.523 869.47,-85.6503 871.231,-92.4253"/>
</g>
<!-- Node17 -->
<g id="node13" class="node"><title>Node17</title>
<polygon fill="white" stroke="#bfbfbf" points="1010.5,-62 1010.5,-81 1063.5,-81 1063.5,-62 1010.5,-62"/>
<text text-anchor="middle" x="1037" y="-69" font-family="Helvetica,sans-Serif" font-size="10.00">string.h</text>
</g>
<!-- Node0&#45;&gt;Node17 -->
<g id="edge13" class="edge"><title>Node0&#45;&gt;Node17</title>
<path fill="none" stroke="midnightblue" d="M776.527,-126.067C837.329,-119.866 926.515,-108.018 1002,-87 1004.44,-86.3208 1006.94,-85.5179 1009.42,-84.6439"/>
<polygon fill="midnightblue" stroke="midnightblue" points="1010.7,-87.9008 1018.77,-81.0319 1008.18,-81.3712 1010.7,-87.9008"/>
</g>
<!-- Node18 -->
<g id="node14" class="node"><title>Node18</title>
<g id="a_node14"><a xlink:href="xttoolbox_8h.xhtml" target="_top" xlink:title="Misc tools. ">
<polygon fill="white" stroke="red" points="1082,-62 1082,-81 1152,-81 1152,-62 1082,-62"/>
<text text-anchor="middle" x="1117" y="-69" font-family="Helvetica,sans-Serif" font-size="10.00">xttoolbox.h</text>
</a>
</g>
</g>
<!-- Node0&#45;&gt;Node18 -->
<g id="edge14" class="edge"><title>Node0&#45;&gt;Node18</title>
<path fill="none" stroke="midnightblue" d="M776.599,-127.432C851.277,-121.695 971.399,-109.721 1073,-87 1076.67,-86.1794 1080.47,-85.175 1084.22,-84.0812"/>
<polygon fill="midnightblue" stroke="midnightblue" points="1085.45,-87.3653 1093.95,-81.0421 1083.36,-80.6839 1085.45,-87.3653"/>
</g>
<!-- Node19 -->
<g id="node15" class="node"><title>Node19</title>
<g id="a_node15"><a xlink:href="version_8h.xhtml" target="_top" xlink:title="version.h">
<polygon fill="white" stroke="red" points="1170,-62 1170,-81 1230,-81 1230,-62 1170,-62"/>
<text text-anchor="middle" x="1200" y="-69" font-family="Helvetica,sans-Serif" font-size="10.00">version.h</text>
</a>
</g>
</g>
<!-- Node0&#45;&gt;Node19 -->
<g id="edge15" class="edge"><title>Node0&#45;&gt;Node19</title>
<path fill="none" stroke="midnightblue" d="M776.613,-130.611C867.202,-127.565 1027.49,-117.86 1161,-87 1164.07,-86.2908 1167.22,-85.4026 1170.34,-84.4171"/>
<polygon fill="midnightblue" stroke="midnightblue" points="1171.77,-87.628 1180.06,-81.0367 1169.47,-81.0166 1171.77,-87.628"/>
</g>
<!-- Node21 -->
<g id="node16" class="node"><title>Node21</title>
<g id="a_node16"><a xlink:href="task__monitor_8h.xhtml" target="_top" xlink:title="System monitor task. ">
<polygon fill="white" stroke="red" points="1248,-62 1248,-81 1336,-81 1336,-62 1248,-62"/>
<text text-anchor="middle" x="1292" y="-69" font-family="Helvetica,sans-Serif" font-size="10.00">task_monitor.h</text>
</a>
</g>
</g>
<!-- Node0&#45;&gt;Node21 -->
<g id="edge16" class="edge"><title>Node0&#45;&gt;Node21</title>
<path fill="none" stroke="midnightblue" d="M776.797,-130.115C879.828,-126.469 1075.25,-116.047 1239,-87 1244.09,-86.0964 1249.41,-84.9248 1254.62,-83.6394"/>
<polygon fill="midnightblue" stroke="midnightblue" points="1255.65,-86.9883 1264.44,-81.0678 1253.88,-80.2169 1255.65,-86.9883"/>
</g>
<!-- Node13&#45;&gt;Node14 -->
<g id="edge9" class="edge"><title>Node13&#45;&gt;Node14</title>
<path fill="none" stroke="midnightblue" d="M708.582,-61.9751C712.183,-53.4035 717.846,-39.9269 722.444,-28.983"/>
<polygon fill="midnightblue" stroke="midnightblue" points="725.778,-30.0842 726.425,-19.5091 719.324,-27.3726 725.778,-30.0842"/>
</g>
</g>
</svg>
