<?xml version="1.0" encoding="UTF-8" standalone="no"?>
<!DOCTYPE svg PUBLIC "-//W3C//DTD SVG 1.1//EN"
 "http://www.w3.org/Graphics/SVG/1.1/DTD/svg11.dtd">
<!-- Generated by graphviz version 2.38.0 (20140413.2041)
 -->
<!-- Title: onMcpX4DriverSetPifRegister Pages: 1 -->
<svg width="353pt" height="127pt"
 viewBox="0.00 0.00 353.00 126.50" xmlns="http://www.w3.org/2000/svg" xmlns:xlink="http://www.w3.org/1999/xlink">
<g id="graph0" class="graph" transform="scale(1 1) rotate(0) translate(4 122.5)">
<title>onMcpX4DriverSetPifRegister</title>
<polygon fill="white" stroke="none" points="-4,4 -4,-122.5 349,-122.5 349,4 -4,4"/>
<!-- Node573 -->
<g id="node1" class="node"><title>Node573</title>
<polygon fill="#bfbfbf" stroke="black" points="0,-55 0,-74 155,-74 155,-55 0,-55"/>
<text text-anchor="middle" x="77.5" y="-62" font-family="Helvetica,sans-Serif" font-size="10.00">onMcpX4DriverSetPifRegister</text>
</g>
<!-- Node574 -->
<g id="node2" class="node"><title>Node574</title>
<g id="a_node2"><a xlink:href="x4driver_8h.xhtml#a382b6e4ffa3658d409dfe855707dc16d" target="_top" xlink:title="Sets PIF register value. ">
<polygon fill="white" stroke="red" points="201,-99 201,-118 335,-118 335,-99 201,-99"/>
<text text-anchor="middle" x="268" y="-106" font-family="Helvetica,sans-Serif" font-size="10.00">x4driver_set_pif_register</text>
</a>
</g>
</g>
<!-- Node573&#45;&gt;Node574 -->
<g id="edge1" class="edge"><title>Node573&#45;&gt;Node574</title>
<path fill="none" stroke="midnightblue" d="M119.402,-74.0473C147.808,-80.6781 185.855,-89.5591 216.206,-96.6435"/>
<polygon fill="midnightblue" stroke="midnightblue" points="215.644,-100.106 226.178,-98.9713 217.236,-93.2897 215.644,-100.106"/>
</g>
<!-- Node581 -->
<g id="node3" class="node"><title>Node581</title>
<g id="a_node3"><a xlink:href="xep__dispatch__messages_8h.xhtml#a9b90f44cd5a4308e041a205a84fe4360" target="_top" xlink:title="Dispatch message to hostcom asking to send ack to host. ">
<polygon fill="white" stroke="red" points="191,-49.5 191,-79.5 345,-79.5 345,-49.5 191,-49.5"/>
<text text-anchor="start" x="199" y="-67.5" font-family="Helvetica,sans-Serif" font-size="10.00">dispatch_message_hostcom</text>
<text text-anchor="middle" x="268" y="-56.5" font-family="Helvetica,sans-Serif" font-size="10.00">_send_ack</text>
</a>
</g>
</g>
<!-- Node573&#45;&gt;Node581 -->
<g id="edge2" class="edge"><title>Node573&#45;&gt;Node581</title>
<path fill="none" stroke="midnightblue" d="M155.17,-64.5C163.504,-64.5 172.027,-64.5 180.468,-64.5"/>
<polygon fill="midnightblue" stroke="midnightblue" points="180.703,-68.0001 190.703,-64.5 180.703,-61.0001 180.703,-68.0001"/>
</g>
<!-- Node590 -->
<g id="node4" class="node"><title>Node590</title>
<g id="a_node4"><a xlink:href="xep__dispatch__messages_8h.xhtml#a441f9b844c9ffb78cfee8edbdb16717a" target="_top" xlink:title="Dispatch message to hostcom asking to send error to host. ">
<polygon fill="white" stroke="red" points="191,-0.5 191,-30.5 345,-30.5 345,-0.5 191,-0.5"/>
<text text-anchor="start" x="199" y="-18.5" font-family="Helvetica,sans-Serif" font-size="10.00">dispatch_message_hostcom</text>
<text text-anchor="middle" x="268" y="-7.5" font-family="Helvetica,sans-Serif" font-size="10.00">_send_error</text>
</a>
</g>
</g>
<!-- Node573&#45;&gt;Node590 -->
<g id="edge3" class="edge"><title>Node573&#45;&gt;Node590</title>
<path fill="none" stroke="midnightblue" d="M115.292,-54.936C139.157,-48.7324 170.969,-40.4629 199.298,-33.099"/>
<polygon fill="midnightblue" stroke="midnightblue" points="200.356,-36.4403 209.154,-30.537 198.595,-29.6655 200.356,-36.4403"/>
</g>
</g>
</svg>
