<?xml version="1.0" encoding="UTF-8" standalone="no"?>
<!DOCTYPE svg PUBLIC "-//W3C//DTD SVG 1.1//EN"
 "http://www.w3.org/Graphics/SVG/1.1/DTD/svg11.dtd">
<!-- Generated by graphviz version 2.38.0 (20140413.2041)
 -->
<!-- Title: onMcpX4DriverSetPulsesPerStep Pages: 1 -->
<svg width="372pt" height="137pt"
 viewBox="0.00 0.00 372.00 137.00" xmlns="http://www.w3.org/2000/svg" xmlns:xlink="http://www.w3.org/1999/xlink">
<g id="graph0" class="graph" transform="scale(1 1) rotate(0) translate(4 133)">
<title>onMcpX4DriverSetPulsesPerStep</title>
<polygon fill="white" stroke="none" points="-4,4 -4,-133 368,-133 368,4 -4,4"/>
<!-- Node618 -->
<g id="node1" class="node"><title>Node618</title>
<polygon fill="#bfbfbf" stroke="black" points="0,-55 0,-74 174,-74 174,-55 0,-55"/>
<text text-anchor="middle" x="87" y="-62" font-family="Helvetica,sans-Serif" font-size="10.00">onMcpX4DriverSetPulsesPerStep</text>
</g>
<!-- Node619 -->
<g id="node2" class="node"><title>Node619</title>
<g id="a_node2"><a xlink:href="x4driver_8h.xhtml#a7ac1a5f45b02284571e297c672ca61de" target="_top" xlink:title="Sets pulses per step. ">
<polygon fill="white" stroke="red" points="231.5,-98.5 231.5,-128.5 342.5,-128.5 342.5,-98.5 231.5,-98.5"/>
<text text-anchor="start" x="239.5" y="-116.5" font-family="Helvetica,sans-Serif" font-size="10.00">x4driver_set_pulses</text>
<text text-anchor="middle" x="287" y="-105.5" font-family="Helvetica,sans-Serif" font-size="10.00">_per_step</text>
</a>
</g>
</g>
<!-- Node618&#45;&gt;Node619 -->
<g id="edge1" class="edge"><title>Node618&#45;&gt;Node619</title>
<path fill="none" stroke="midnightblue" d="M126.646,-74.064C153.558,-80.7239 190.09,-89.7648 221.387,-97.51"/>
<polygon fill="midnightblue" stroke="midnightblue" points="220.798,-100.97 231.346,-99.9745 222.48,-94.1746 220.798,-100.97"/>
</g>
<!-- Node628 -->
<g id="node3" class="node"><title>Node628</title>
<g id="a_node3"><a xlink:href="xep__dispatch__messages_8h.xhtml#a9b90f44cd5a4308e041a205a84fe4360" target="_top" xlink:title="Dispatch message to hostcom asking to send ack to host. ">
<polygon fill="white" stroke="red" points="210,-49.5 210,-79.5 364,-79.5 364,-49.5 210,-49.5"/>
<text text-anchor="start" x="218" y="-67.5" font-family="Helvetica,sans-Serif" font-size="10.00">dispatch_message_hostcom</text>
<text text-anchor="middle" x="287" y="-56.5" font-family="Helvetica,sans-Serif" font-size="10.00">_send_ack</text>
</a>
</g>
</g>
<!-- Node618&#45;&gt;Node628 -->
<g id="edge2" class="edge"><title>Node618&#45;&gt;Node628</title>
<path fill="none" stroke="midnightblue" d="M174.27,-64.5C182.716,-64.5 191.288,-64.5 199.734,-64.5"/>
<polygon fill="midnightblue" stroke="midnightblue" points="199.957,-68.0001 209.957,-64.5 199.957,-61.0001 199.957,-68.0001"/>
</g>
<!-- Node637 -->
<g id="node4" class="node"><title>Node637</title>
<g id="a_node4"><a xlink:href="xep__dispatch__messages_8h.xhtml#a441f9b844c9ffb78cfee8edbdb16717a" target="_top" xlink:title="Dispatch message to hostcom asking to send error to host. ">
<polygon fill="white" stroke="red" points="210,-0.5 210,-30.5 364,-30.5 364,-0.5 210,-0.5"/>
<text text-anchor="start" x="218" y="-18.5" font-family="Helvetica,sans-Serif" font-size="10.00">dispatch_message_hostcom</text>
<text text-anchor="middle" x="287" y="-7.5" font-family="Helvetica,sans-Serif" font-size="10.00">_send_error</text>
</a>
</g>
</g>
<!-- Node618&#45;&gt;Node637 -->
<g id="edge3" class="edge"><title>Node618&#45;&gt;Node637</title>
<path fill="none" stroke="midnightblue" d="M126.646,-54.936C151.823,-48.7053 185.421,-40.3906 215.275,-33.0026"/>
<polygon fill="midnightblue" stroke="midnightblue" points="216.372,-36.3368 225.238,-30.537 214.69,-29.5418 216.372,-36.3368"/>
</g>
</g>
</svg>
