<?xml version="1.0" encoding="UTF-8" standalone="no"?>
<!DOCTYPE svg PUBLIC "-//W3C//DTD SVG 1.1//EN"
 "http://www.w3.org/Graphics/SVG/1.1/DTD/svg11.dtd">
<!-- Generated by graphviz version 2.38.0 (20140413.2041)
 -->
<!-- Title: task_application Pages: 1 -->
<svg width="292pt" height="318pt"
 viewBox="0.00 0.00 292.00 318.00" xmlns="http://www.w3.org/2000/svg" xmlns:xlink="http://www.w3.org/1999/xlink">
<g id="graph0" class="graph" transform="scale(1 1) rotate(0) translate(4 314)">
<title>task_application</title>
<polygon fill="white" stroke="none" points="-4,4 -4,-314 288,-314 288,4 -4,4"/>
<!-- Node0 -->
<g id="node1" class="node"><title>Node0</title>
<polygon fill="#bfbfbf" stroke="black" points="0,-148.5 0,-167.5 94,-167.5 94,-148.5 0,-148.5"/>
<text text-anchor="middle" x="47" y="-155.5" font-family="Helvetica,sans-Serif" font-size="10.00">task_application</text>
</g>
<!-- Node1 -->
<g id="node2" class="node"><title>Node1</title>
<g id="a_node2"><a xlink:href="xep__dispatch_8h.xhtml#aec7d22fb1b8b57f521ec0dce927dcf72" target="_top" xlink:title="Register to dispatcher, returning the queue used for dispatch messages. ">
<polygon fill="white" stroke="black" points="157.5,-290.5 157.5,-309.5 256.5,-309.5 256.5,-290.5 157.5,-290.5"/>
<text text-anchor="middle" x="207" y="-297.5" font-family="Helvetica,sans-Serif" font-size="10.00">dispatch_register</text>
</a>
</g>
</g>
<!-- Node0&#45;&gt;Node1 -->
<g id="edge1" class="edge"><title>Node0&#45;&gt;Node1</title>
<path fill="none" stroke="midnightblue" d="M51.6127,-167.774C60.805,-191.231 87.4135,-250.988 130,-281 135.326,-284.753 141.32,-287.767 147.545,-290.187"/>
<polygon fill="midnightblue" stroke="midnightblue" points="146.862,-293.65 157.456,-293.521 149.095,-287.015 146.862,-293.65"/>
</g>
<!-- Node2 -->
<g id="node3" class="node"><title>Node2</title>
<g id="a_node3"><a xlink:href="xep__dispatch_8h.xhtml#a2b3ec25f62ed5589d9eb774c3d059d8b" target="_top" xlink:title="Subscribe to message tag. ">
<polygon fill="white" stroke="black" points="153,-252.5 153,-271.5 261,-271.5 261,-252.5 153,-252.5"/>
<text text-anchor="middle" x="207" y="-259.5" font-family="Helvetica,sans-Serif" font-size="10.00">dispatch_subscribe</text>
</a>
</g>
</g>
<!-- Node0&#45;&gt;Node2 -->
<g id="edge2" class="edge"><title>Node0&#45;&gt;Node2</title>
<path fill="none" stroke="midnightblue" d="M54.4219,-167.587C66.8335,-185.336 95.917,-223.296 130,-243 134.195,-245.425 138.694,-247.543 143.331,-249.393"/>
<polygon fill="midnightblue" stroke="midnightblue" points="142.396,-252.775 152.991,-252.824 144.74,-246.179 142.396,-252.775"/>
</g>
<!-- Node3 -->
<g id="node4" class="node"><title>Node3</title>
<g id="a_node4"><a xlink:href="task__monitor_8c.xhtml#a481565877c5eb69c47c0f998a5a3244d" target="_top" xlink:title="Register task to monitor. ">
<polygon fill="white" stroke="red" points="146,-214.5 146,-233.5 268,-233.5 268,-214.5 146,-214.5"/>
<text text-anchor="middle" x="207" y="-221.5" font-family="Helvetica,sans-Serif" font-size="10.00">monitor_task_register</text>
</a>
</g>
</g>
<!-- Node0&#45;&gt;Node3 -->
<g id="edge3" class="edge"><title>Node0&#45;&gt;Node3</title>
<path fill="none" stroke="midnightblue" d="M61.9095,-167.571C77.7548,-178.086 104.732,-194.828 130,-205 136.188,-207.491 142.795,-209.725 149.432,-211.709"/>
<polygon fill="midnightblue" stroke="midnightblue" points="148.56,-215.099 159.134,-214.438 150.455,-208.361 148.56,-215.099"/>
</g>
<!-- Node11 -->
<g id="node5" class="node"><title>Node11</title>
<g id="a_node5"><a xlink:href="xep__dispatch__messages_8h.xhtml#ad41a44756422ad7d000194262a394292" target="_top" xlink:title="Dispatch message to hostcom asking to send system message to host. ">
<polygon fill="white" stroke="red" points="130,-165 130,-195 284,-195 284,-165 130,-165"/>
<text text-anchor="start" x="138" y="-183" font-family="Helvetica,sans-Serif" font-size="10.00">dispatch_message_hostcom</text>
<text text-anchor="middle" x="207" y="-172" font-family="Helvetica,sans-Serif" font-size="10.00">_send_system</text>
</a>
</g>
</g>
<!-- Node0&#45;&gt;Node11 -->
<g id="edge4" class="edge"><title>Node0&#45;&gt;Node11</title>
<path fill="none" stroke="midnightblue" d="M94.1249,-164.422C102.265,-165.556 110.972,-166.768 119.8,-167.997"/>
<polygon fill="midnightblue" stroke="midnightblue" points="119.407,-171.476 129.794,-169.389 120.372,-164.543 119.407,-171.476"/>
</g>
<!-- Node20 -->
<g id="node6" class="node"><title>Node20</title>
<g id="a_node6"><a xlink:href="xep__application_8c.xhtml#a00c04155c64bcddc4b34f0103ecb9117" target="_top" xlink:title="xep_app_init">
<polygon fill="white" stroke="black" points="168.5,-126.5 168.5,-145.5 245.5,-145.5 245.5,-126.5 168.5,-126.5"/>
<text text-anchor="middle" x="207" y="-133.5" font-family="Helvetica,sans-Serif" font-size="10.00">xep_app_init</text>
</a>
</g>
</g>
<!-- Node0&#45;&gt;Node20 -->
<g id="edge5" class="edge"><title>Node0&#45;&gt;Node20</title>
<path fill="none" stroke="midnightblue" d="M94.1249,-151.578C114.306,-148.767 137.972,-145.472 158.326,-142.638"/>
<polygon fill="midnightblue" stroke="midnightblue" points="158.905,-146.091 168.327,-141.246 157.94,-139.158 158.905,-146.091"/>
</g>
<!-- Node21 -->
<g id="node7" class="node"><title>Node21</title>
<g id="a_node7"><a xlink:href="task__monitor_8c.xhtml#a0c7f7f8017a34d24de6b5c6fd90fbfe3" target="_top" xlink:title="Reset counter to indicate that task is alive. ">
<polygon fill="white" stroke="black" points="153.5,-88.5 153.5,-107.5 260.5,-107.5 260.5,-88.5 153.5,-88.5"/>
<text text-anchor="middle" x="207" y="-95.5" font-family="Helvetica,sans-Serif" font-size="10.00">monitor_task_alive</text>
</a>
</g>
</g>
<!-- Node0&#45;&gt;Node21 -->
<g id="edge6" class="edge"><title>Node0&#45;&gt;Node21</title>
<path fill="none" stroke="midnightblue" d="M64.4806,-148.411C80.7065,-139.298 106.414,-125.725 130,-117 136.753,-114.502 143.962,-112.225 151.151,-110.184"/>
<polygon fill="midnightblue" stroke="midnightblue" points="152.157,-113.537 160.897,-107.548 150.33,-106.78 152.157,-113.537"/>
</g>
<!-- Node22 -->
<g id="node8" class="node"><title>Node22</title>
<g id="a_node8"><a xlink:href="xep__application_8c.xhtml#a1a899c8752f1bdc297a19ab97098c79b" target="_top" xlink:title="xep_process_dispatch\l_message">
<polygon fill="white" stroke="black" points="146,-39 146,-69 268,-69 268,-39 146,-39"/>
<text text-anchor="start" x="154" y="-57" font-family="Helvetica,sans-Serif" font-size="10.00">xep_process_dispatch</text>
<text text-anchor="middle" x="207" y="-46" font-family="Helvetica,sans-Serif" font-size="10.00">_message</text>
</a>
</g>
</g>
<!-- Node0&#45;&gt;Node22 -->
<g id="edge7" class="edge"><title>Node0&#45;&gt;Node22</title>
<path fill="none" stroke="midnightblue" d="M55.5454,-148.299C68.866,-131.795 98.1679,-98.18 130,-79 133.448,-76.9223 137.09,-74.9945 140.837,-73.2095"/>
<polygon fill="midnightblue" stroke="midnightblue" points="142.559,-76.2764 150.318,-69.062 139.754,-69.8631 142.559,-76.2764"/>
</g>
<!-- Node23 -->
<g id="node9" class="node"><title>Node23</title>
<g id="a_node9"><a xlink:href="xep__application_8c.xhtml#abcf0abad70893f6683240d98dceb9ed0" target="_top" xlink:title="xep_app_iterate">
<polygon fill="white" stroke="black" points="160,-0.5 160,-19.5 254,-19.5 254,-0.5 160,-0.5"/>
<text text-anchor="middle" x="207" y="-7.5" font-family="Helvetica,sans-Serif" font-size="10.00">xep_app_iterate</text>
</a>
</g>
</g>
<!-- Node0&#45;&gt;Node23 -->
<g id="edge8" class="edge"><title>Node0&#45;&gt;Node23</title>
<path fill="none" stroke="midnightblue" d="M51.3875,-148.223C60.2457,-124.152 86.4715,-61.6828 130,-30 135.991,-25.6392 142.861,-22.2286 149.967,-19.5612"/>
<polygon fill="midnightblue" stroke="midnightblue" points="151.326,-22.7993 159.743,-16.3651 149.151,-16.1458 151.326,-22.7993"/>
</g>
</g>
</svg>
