<?xml version="1.0" encoding="UTF-8" standalone="no"?>
<!DOCTYPE svg PUBLIC "-//W3C//DTD SVG 1.1//EN"
 "http://www.w3.org/Graphics/SVG/1.1/DTD/svg11.dtd">
<!-- Generated by graphviz version 2.38.0 (20140413.2041)
 -->
<!-- Title: xt_set_reset_reason Pages: 1 -->
<svg width="325pt" height="104pt"
 viewBox="0.00 0.00 325.00 104.00" xmlns="http://www.w3.org/2000/svg" xmlns:xlink="http://www.w3.org/1999/xlink">
<g id="graph0" class="graph" transform="scale(1 1) rotate(0) translate(4 100)">
<title>xt_set_reset_reason</title>
<polygon fill="white" stroke="none" points="-4,4 -4,-100 321,-100 321,4 -4,4"/>
<!-- Node46 -->
<g id="node1" class="node"><title>Node46</title>
<polygon fill="#bfbfbf" stroke="black" points="0,-38.5 0,-57.5 114,-57.5 114,-38.5 0,-38.5"/>
<text text-anchor="middle" x="57" y="-45.5" font-family="Helvetica,sans-Serif" font-size="10.00">xt_set_reset_reason</text>
</g>
<!-- Node47 -->
<g id="node2" class="node"><title>Node47</title>
<g id="a_node2"><a xlink:href="_free_r_t_o_s__hooks_8h.xhtml#a95466c46b87dabee6ba956ad42d61fe3" target="_top" xlink:title="vApplicationStackOverflowHook">
<polygon fill="white" stroke="black" points="150,-76.5 150,-95.5 317,-95.5 317,-76.5 150,-76.5"/>
<text text-anchor="middle" x="233.5" y="-83.5" font-family="Helvetica,sans-Serif" font-size="10.00">vApplicationStackOverflowHook</text>
</a>
</g>
</g>
<!-- Node46&#45;&gt;Node47 -->
<g id="edge1" class="edge"><title>Node46&#45;&gt;Node47</title>
<path fill="none" stroke="midnightblue" d="M111.969,-59.7526C136.643,-65.1258 165.495,-71.4086 188.783,-76.4799"/>
<polygon fill="midnightblue" stroke="midnightblue" points="112.549,-56.297 102.034,-57.589 111.06,-63.1367 112.549,-56.297"/>
</g>
<!-- Node48 -->
<g id="node3" class="node"><title>Node48</title>
<g id="a_node3"><a xlink:href="xt__system_8c.xhtml#ace2af126089abe1d676edfc1400d0bf7" target="_top" xlink:title="Triggers a software reset of MCU. ">
<polygon fill="white" stroke="red" points="183,-38.5 183,-57.5 284,-57.5 284,-38.5 183,-38.5"/>
<text text-anchor="middle" x="233.5" y="-45.5" font-family="Helvetica,sans-Serif" font-size="10.00">xt_software_reset</text>
</a>
</g>
</g>
<!-- Node46&#45;&gt;Node48 -->
<g id="edge2" class="edge"><title>Node46&#45;&gt;Node48</title>
<path fill="none" stroke="midnightblue" d="M124.203,-48C143.686,-48 164.657,-48 182.907,-48"/>
<polygon fill="midnightblue" stroke="midnightblue" points="124.173,-44.5001 114.173,-48 124.173,-51.5001 124.173,-44.5001"/>
</g>
<!-- Node93 -->
<g id="node4" class="node"><title>Node93</title>
<g id="a_node4"><a xlink:href="xt__system_8c.xhtml#a5e62effeb5c5323c3d423225a6a3dbf3" target="_top" xlink:title="Gets the cause of the previous software reset. ">
<polygon fill="white" stroke="black" points="176,-0.5 176,-19.5 291,-19.5 291,-0.5 176,-0.5"/>
<text text-anchor="middle" x="233.5" y="-7.5" font-family="Helvetica,sans-Serif" font-size="10.00">xt_get_reset_reason</text>
</a>
</g>
</g>
<!-- Node46&#45;&gt;Node93 -->
<g id="edge3" class="edge"><title>Node46&#45;&gt;Node93</title>
<path fill="none" stroke="midnightblue" d="M111.969,-36.2474C136.643,-30.8742 165.495,-24.5914 188.783,-19.5201"/>
<polygon fill="midnightblue" stroke="midnightblue" points="111.06,-32.8633 102.034,-38.411 112.549,-39.703 111.06,-32.8633"/>
</g>
</g>
</svg>
