<?xml version="1.0" encoding="UTF-8" standalone="no"?>
<!DOCTYPE svg PUBLIC "-//W3C//DTD SVG 1.1//EN"
 "http://www.w3.org/Graphics/SVG/1.1/DTD/svg11.dtd">
<!-- Generated by graphviz version 2.38.0 (20140413.2041)
 -->
<!-- Title: xtio_irq_register_callback Pages: 1 -->
<svg width="293pt" height="104pt"
 viewBox="0.00 0.00 293.00 104.00" xmlns="http://www.w3.org/2000/svg" xmlns:xlink="http://www.w3.org/1999/xlink">
<g id="graph0" class="graph" transform="scale(1 1) rotate(0) translate(4 100)">
<title>xtio_irq_register_callback</title>
<polygon fill="white" stroke="none" points="-4,4 -4,-100 289,-100 289,4 -4,4"/>
<!-- Node170 -->
<g id="node1" class="node"><title>Node170</title>
<polygon fill="#bfbfbf" stroke="black" points="0,-38.5 0,-57.5 137,-57.5 137,-38.5 0,-38.5"/>
<text text-anchor="middle" x="68.5" y="-45.5" font-family="Helvetica,sans-Serif" font-size="10.00">xtio_irq_register_callback</text>
</g>
<!-- Node171 -->
<g id="node2" class="node"><title>Node171</title>
<g id="a_node2"><a xlink:href="x4m0x__s70_2xtio__gpio_8c.xhtml#a69cacba87020817e5c18fb912e0e2422" target="_top" xlink:title="xtio_decode_pin_id">
<polygon fill="white" stroke="black" points="175.5,-76.5 175.5,-95.5 282.5,-95.5 282.5,-76.5 175.5,-76.5"/>
<text text-anchor="middle" x="229" y="-83.5" font-family="Helvetica,sans-Serif" font-size="10.00">xtio_decode_pin_id</text>
</a>
</g>
</g>
<!-- Node170&#45;&gt;Node171 -->
<g id="edge1" class="edge"><title>Node170&#45;&gt;Node171</title>
<path fill="none" stroke="midnightblue" d="M109.496,-57.589C130.412,-62.6035 156.208,-68.7881 178.386,-74.1053"/>
<polygon fill="midnightblue" stroke="midnightblue" points="177.751,-77.552 188.291,-76.4799 179.383,-70.7449 177.751,-77.552"/>
</g>
<!-- Node172 -->
<g id="node3" class="node"><title>Node172</title>
<g id="a_node3"><a xlink:href="x4m0x__s70_2xtio__gpio_8c.xhtml#a425b9e90dbf3a4d1a20aa66cf75d2075" target="_top" xlink:title="enable_io_irq">
<polygon fill="white" stroke="black" points="189,-38.5 189,-57.5 269,-57.5 269,-38.5 189,-38.5"/>
<text text-anchor="middle" x="229" y="-45.5" font-family="Helvetica,sans-Serif" font-size="10.00">enable_io_irq</text>
</a>
</g>
</g>
<!-- Node170&#45;&gt;Node172 -->
<g id="edge2" class="edge"><title>Node170&#45;&gt;Node172</title>
<path fill="none" stroke="midnightblue" d="M137.178,-48C151.12,-48 165.551,-48 178.694,-48"/>
<polygon fill="midnightblue" stroke="midnightblue" points="178.924,-51.5001 188.924,-48 178.923,-44.5001 178.924,-51.5001"/>
</g>
<!-- Node173 -->
<g id="node4" class="node"><title>Node173</title>
<g id="a_node4"><a xlink:href="x4m0x__s70_2xtio__gpio_8c.xhtml#ad7a24acfad1912863e8d190a9853cc80" target="_top" xlink:title="xtio_pio_irq_handler">
<polygon fill="white" stroke="black" points="173,-0.5 173,-19.5 285,-19.5 285,-0.5 173,-0.5"/>
<text text-anchor="middle" x="229" y="-7.5" font-family="Helvetica,sans-Serif" font-size="10.00">xtio_pio_irq_handler</text>
</a>
</g>
</g>
<!-- Node170&#45;&gt;Node173 -->
<g id="edge3" class="edge"><title>Node170&#45;&gt;Node173</title>
<path fill="none" stroke="midnightblue" d="M109.496,-38.411C130.412,-33.3965 156.208,-27.2119 178.386,-21.8947"/>
<polygon fill="midnightblue" stroke="midnightblue" points="179.383,-25.2551 188.291,-19.5201 177.751,-18.448 179.383,-25.2551"/>
</g>
</g>
</svg>
