<?xml version="1.0" encoding="UTF-8" standalone="no"?>
<!DOCTYPE svg PUBLIC "-//W3C//DTD SVG 1.1//EN"
 "http://www.w3.org/Graphics/SVG/1.1/DTD/svg11.dtd">
<!-- Generated by graphviz version 2.38.0 (20140413.2041)
 -->
<!-- Title: dispatch_message_hostcom_send_error Pages: 1 -->
<svg width="381pt" height="1204pt"
 viewBox="0.00 0.00 381.00 1204.00" xmlns="http://www.w3.org/2000/svg" xmlns:xlink="http://www.w3.org/1999/xlink">
<g id="graph0" class="graph" transform="scale(1 1) rotate(0) translate(4 1200)">
<title>dispatch_message_hostcom_send_error</title>
<polygon fill="white" stroke="none" points="-4,4 -4,-1200 377,-1200 377,4 -4,4"/>
<!-- Node175 -->
<g id="node1" class="node"><title>Node175</title>
<polygon fill="#bfbfbf" stroke="black" points="0,-583 0,-613 154,-613 154,-583 0,-583"/>
<text text-anchor="start" x="8" y="-601" font-family="Helvetica,sans-Serif" font-size="10.00">dispatch_message_hostcom</text>
<text text-anchor="middle" x="77" y="-590" font-family="Helvetica,sans-Serif" font-size="10.00">_send_error</text>
</g>
<!-- Node176 -->
<g id="node2" class="node"><title>Node176</title>
<g id="a_node2"><a xlink:href="xep__application__mcp__callbacks_8h.xhtml#ae7b3e06d0246123e0e1d0d9a7667ff4e" target="_top" xlink:title="onMcpUnknown">
<polygon fill="white" stroke="red" points="235.5,-1176.5 235.5,-1195.5 327.5,-1195.5 327.5,-1176.5 235.5,-1176.5"/>
<text text-anchor="middle" x="281.5" y="-1183.5" font-family="Helvetica,sans-Serif" font-size="10.00">onMcpUnknown</text>
</a>
</g>
</g>
<!-- Node175&#45;&gt;Node176 -->
<g id="edge1" class="edge"><title>Node175&#45;&gt;Node176</title>
<path fill="none" stroke="midnightblue" d="M79.3657,-623.255C85.2815,-723.013 112.012,-1088.02 190,-1167 201.732,-1178.88 218.867,-1184.24 235.08,-1186.42"/>
<polygon fill="midnightblue" stroke="midnightblue" points="82.855,-622.966 78.7866,-613.184 75.8665,-623.368 82.855,-622.966"/>
</g>
<!-- Node180 -->
<g id="node3" class="node"><title>Node180</title>
<g id="a_node3"><a xlink:href="xep__application__mcp__callbacks_8h.xhtml#ade8de22b982f74c728af66c33bcf42e2" target="_top" xlink:title="onMcpSystemRunTest">
<polygon fill="white" stroke="red" points="221,-1138.5 221,-1157.5 342,-1157.5 342,-1138.5 221,-1138.5"/>
<text text-anchor="middle" x="281.5" y="-1145.5" font-family="Helvetica,sans-Serif" font-size="10.00">onMcpSystemRunTest</text>
</a>
</g>
</g>
<!-- Node175&#45;&gt;Node180 -->
<g id="edge2" class="edge"><title>Node175&#45;&gt;Node180</title>
<path fill="none" stroke="midnightblue" d="M79.7613,-623.401C86.9177,-719.089 116.991,-1056.06 190,-1129 198.291,-1137.28 209.212,-1142.39 220.59,-1145.45"/>
<polygon fill="midnightblue" stroke="midnightblue" points="83.2357,-622.92 79.0178,-613.201 76.2542,-623.429 83.2357,-622.92"/>
</g>
<!-- Node181 -->
<g id="node4" class="node"><title>Node181</title>
<g id="a_node4"><a xlink:href="xep__application__mcp__callbacks_8h.xhtml#a8f52f6e72bd93b3a11b2c922730ee484" target="_top" xlink:title="onMcpStartBootloader">
<polygon fill="white" stroke="red" points="219,-1100.5 219,-1119.5 344,-1119.5 344,-1100.5 219,-1100.5"/>
<text text-anchor="middle" x="281.5" y="-1107.5" font-family="Helvetica,sans-Serif" font-size="10.00">onMcpStartBootloader</text>
</a>
</g>
</g>
<!-- Node175&#45;&gt;Node181 -->
<g id="edge3" class="edge"><title>Node175&#45;&gt;Node181</title>
<path fill="none" stroke="midnightblue" d="M80.2026,-623.364C88.6405,-714.568 121.905,-1024.02 190,-1091 197.897,-1098.77 208.112,-1103.73 218.821,-1106.83"/>
<polygon fill="midnightblue" stroke="midnightblue" points="83.6839,-622.997 79.296,-613.354 76.7124,-623.629 83.6839,-622.997"/>
</g>
<!-- Node182 -->
<g id="node5" class="node"><title>Node182</title>
<g id="a_node5"><a xlink:href="xep__application__mcp__callbacks_8h.xhtml#a6386ca62ddee009e2b423b72121ab4ef" target="_top" xlink:title="onMcpGetSystemInfo">
<polygon fill="white" stroke="red" points="222,-1062.5 222,-1081.5 341,-1081.5 341,-1062.5 222,-1062.5"/>
<text text-anchor="middle" x="281.5" y="-1069.5" font-family="Helvetica,sans-Serif" font-size="10.00">onMcpGetSystemInfo</text>
</a>
</g>
</g>
<!-- Node175&#45;&gt;Node182 -->
<g id="edge4" class="edge"><title>Node175&#45;&gt;Node182</title>
<path fill="none" stroke="midnightblue" d="M80.6867,-623.081C90.4358,-709.346 126.741,-991.882 190,-1053 198.659,-1061.37 210.013,-1066.46 221.738,-1069.48"/>
<polygon fill="midnightblue" stroke="midnightblue" points="84.1633,-622.675 79.5815,-613.123 77.206,-623.448 84.1633,-622.675"/>
</g>
<!-- Node183 -->
<g id="node6" class="node"><title>Node183</title>
<g id="a_node6"><a xlink:href="xep__application__mcp__callbacks_8h.xhtml#af985c748b39a157f646e4f712fc3e077" target="_top" xlink:title="onMcpX4DriverSetFps">
<polygon fill="white" stroke="red" points="220.5,-1024.5 220.5,-1043.5 342.5,-1043.5 342.5,-1024.5 220.5,-1024.5"/>
<text text-anchor="middle" x="281.5" y="-1031.5" font-family="Helvetica,sans-Serif" font-size="10.00">onMcpX4DriverSetFps</text>
</a>
</g>
</g>
<!-- Node175&#45;&gt;Node183 -->
<g id="edge5" class="edge"><title>Node175&#45;&gt;Node183</title>
<path fill="none" stroke="midnightblue" d="M81.3251,-623.359C92.5594,-705.145 131.691,-959.838 190,-1015 198.397,-1022.94 209.229,-1027.92 220.463,-1030.97"/>
<polygon fill="midnightblue" stroke="midnightblue" points="84.7617,-622.654 79.9536,-613.213 77.8248,-623.592 84.7617,-622.654"/>
</g>
<!-- Node184 -->
<g id="node7" class="node"><title>Node184</title>
<g id="a_node7"><a xlink:href="xep__application__mcp__callbacks_8h.xhtml#a0a516b6779c63e36843ac4879145f84c" target="_top" xlink:title="onMcpX4DriverSetIterations">
<polygon fill="white" stroke="red" points="206.5,-986.5 206.5,-1005.5 356.5,-1005.5 356.5,-986.5 206.5,-986.5"/>
<text text-anchor="middle" x="281.5" y="-993.5" font-family="Helvetica,sans-Serif" font-size="10.00">onMcpX4DriverSetIterations</text>
</a>
</g>
</g>
<!-- Node175&#45;&gt;Node184 -->
<g id="edge6" class="edge"><title>Node175&#45;&gt;Node184</title>
<path fill="none" stroke="midnightblue" d="M77.2696,-623.308C76.775,-691.51 85.3902,-880.48 190,-977 194.838,-981.464 200.447,-984.985 206.457,-987.751"/>
<polygon fill="midnightblue" stroke="midnightblue" points="80.7725,-623.128 77.4219,-613.077 73.7733,-623.024 80.7725,-623.128"/>
</g>
<!-- Node185 -->
<g id="node8" class="node"><title>Node185</title>
<g id="a_node8"><a xlink:href="xep__application__mcp__callbacks_8h.xhtml#aada0a8dac6ec032dd621832d85e7435d" target="_top" xlink:title="onMcpX4DriverSetPulsesPerStep">
<polygon fill="white" stroke="red" points="194.5,-948.5 194.5,-967.5 368.5,-967.5 368.5,-948.5 194.5,-948.5"/>
<text text-anchor="middle" x="281.5" y="-955.5" font-family="Helvetica,sans-Serif" font-size="10.00">onMcpX4DriverSetPulsesPerStep</text>
</a>
</g>
</g>
<!-- Node175&#45;&gt;Node185 -->
<g id="edge7" class="edge"><title>Node175&#45;&gt;Node185</title>
<path fill="none" stroke="midnightblue" d="M78.2411,-623.334C80.301,-686.86 94.9622,-853.916 190,-939 194.186,-942.748 198.92,-945.826 203.972,-948.348"/>
<polygon fill="midnightblue" stroke="midnightblue" points="81.7333,-622.963 77.9917,-613.051 74.7353,-623.133 81.7333,-622.963"/>
</g>
<!-- Node186 -->
<g id="node9" class="node"><title>Node186</title>
<g id="a_node9"><a xlink:href="xep__application__mcp__callbacks_8h.xhtml#af5af6817c24ebd7291a8e14ae8e97e34" target="_top" xlink:title="onMcpX4DriverSetDownconversion">
<polygon fill="white" stroke="red" points="190,-910.5 190,-929.5 373,-929.5 373,-910.5 190,-910.5"/>
<text text-anchor="middle" x="281.5" y="-917.5" font-family="Helvetica,sans-Serif" font-size="10.00">onMcpX4DriverSetDownconversion</text>
</a>
</g>
</g>
<!-- Node175&#45;&gt;Node186 -->
<g id="edge8" class="edge"><title>Node175&#45;&gt;Node186</title>
<path fill="none" stroke="midnightblue" d="M79.4321,-623.303C84.177,-681.83 104.43,-827.176 190,-901 194.376,-904.775 199.311,-907.865 204.561,-910.386"/>
<polygon fill="midnightblue" stroke="midnightblue" points="82.9073,-622.832 78.6946,-613.111 75.9256,-623.338 82.9073,-622.832"/>
</g>
<!-- Node187 -->
<g id="node10" class="node"><title>Node187</title>
<g id="a_node10"><a xlink:href="xep__application__mcp__callbacks_8h.xhtml#a6c985a2ef7e19c267f3e94a7bf908735" target="_top" xlink:title="onMcpX4DriverSetFrameArea">
<polygon fill="white" stroke="red" points="202.5,-872.5 202.5,-891.5 360.5,-891.5 360.5,-872.5 202.5,-872.5"/>
<text text-anchor="middle" x="281.5" y="-879.5" font-family="Helvetica,sans-Serif" font-size="10.00">onMcpX4DriverSetFrameArea</text>
</a>
</g>
</g>
<!-- Node175&#45;&gt;Node187 -->
<g id="edge9" class="edge"><title>Node175&#45;&gt;Node187</title>
<path fill="none" stroke="midnightblue" d="M80.9014,-623.069C88.4431,-676.153 113.711,-800.173 190,-863 194.585,-866.776 199.736,-869.858 205.192,-872.367"/>
<polygon fill="midnightblue" stroke="midnightblue" points="84.3703,-622.603 79.5842,-613.151 77.4312,-623.524 84.3703,-622.603"/>
</g>
<!-- Node188 -->
<g id="node11" class="node"><title>Node188</title>
<g id="a_node11"><a xlink:href="xep__application__mcp__callbacks_8h.xhtml#af880e9a568158fe0dbc01768eb02b721" target="_top" xlink:title="onMcpX4DriverInit">
<polygon fill="white" stroke="red" points="230,-834.5 230,-853.5 333,-853.5 333,-834.5 230,-834.5"/>
<text text-anchor="middle" x="281.5" y="-841.5" font-family="Helvetica,sans-Serif" font-size="10.00">onMcpX4DriverInit</text>
</a>
</g>
</g>
<!-- Node175&#45;&gt;Node188 -->
<g id="edge10" class="edge"><title>Node175&#45;&gt;Node188</title>
<path fill="none" stroke="midnightblue" d="M82.8391,-623.055C93.3657,-670.428 122.992,-773.027 190,-825 201.29,-833.757 215.669,-838.722 229.623,-841.472"/>
<polygon fill="midnightblue" stroke="midnightblue" points="86.2141,-622.098 80.7182,-613.04 79.366,-623.548 86.2141,-622.098"/>
</g>
<!-- Node189 -->
<g id="node12" class="node"><title>Node189</title>
<g id="a_node12"><a xlink:href="xep__application__mcp__callbacks_8h.xhtml#a73702f3c3ef406ec1741300e7af01257" target="_top" xlink:title="onMcpX4DriverSetDacStep">
<polygon fill="white" stroke="red" points="208.5,-796.5 208.5,-815.5 354.5,-815.5 354.5,-796.5 208.5,-796.5"/>
<text text-anchor="middle" x="281.5" y="-803.5" font-family="Helvetica,sans-Serif" font-size="10.00">onMcpX4DriverSetDacStep</text>
</a>
</g>
</g>
<!-- Node175&#45;&gt;Node189 -->
<g id="edge11" class="edge"><title>Node175&#45;&gt;Node189</title>
<path fill="none" stroke="midnightblue" d="M85.4406,-622.909C99.068,-663.993 132.088,-745.534 190,-787 195.613,-791.019 201.894,-794.224 208.459,-796.775"/>
<polygon fill="midnightblue" stroke="midnightblue" points="88.7,-621.61 82.319,-613.152 82.0329,-623.743 88.7,-621.61"/>
</g>
<!-- Node190 -->
<g id="node13" class="node"><title>Node190</title>
<g id="a_node13"><a xlink:href="xep__application__mcp__callbacks_8h.xhtml#abebd47020d9434b11d9e7987924bf4e6" target="_top" xlink:title="onMcpX4DriverSetDacMin">
<polygon fill="white" stroke="red" points="211.5,-758.5 211.5,-777.5 351.5,-777.5 351.5,-758.5 211.5,-758.5"/>
<text text-anchor="middle" x="281.5" y="-765.5" font-family="Helvetica,sans-Serif" font-size="10.00">onMcpX4DriverSetDacMin</text>
</a>
</g>
</g>
<!-- Node175&#45;&gt;Node190 -->
<g id="edge12" class="edge"><title>Node175&#45;&gt;Node190</title>
<path fill="none" stroke="midnightblue" d="M89.1217,-622.559C105.888,-656.633 140.973,-717.591 190,-749 196.489,-753.157 203.726,-756.423 211.202,-758.986"/>
<polygon fill="midnightblue" stroke="midnightblue" points="92.1692,-620.819 84.6962,-613.309 85.8547,-623.84 92.1692,-620.819"/>
</g>
<!-- Node191 -->
<g id="node14" class="node"><title>Node191</title>
<g id="a_node14"><a xlink:href="xep__application__mcp__callbacks_8h.xhtml#ad1495daac7c29451ea7c3c2ad398e997" target="_top" xlink:title="onMcpX4DriverSetDacMax">
<polygon fill="white" stroke="red" points="210,-720.5 210,-739.5 353,-739.5 353,-720.5 210,-720.5"/>
<text text-anchor="middle" x="281.5" y="-727.5" font-family="Helvetica,sans-Serif" font-size="10.00">onMcpX4DriverSetDacMax</text>
</a>
</g>
</g>
<!-- Node175&#45;&gt;Node191 -->
<g id="edge13" class="edge"><title>Node175&#45;&gt;Node191</title>
<path fill="none" stroke="midnightblue" d="M94.4685,-621.43C114.12,-647.527 149.457,-688.936 190,-711 197.192,-714.914 205.11,-718.022 213.179,-720.491"/>
<polygon fill="midnightblue" stroke="midnightblue" points="97.1685,-619.194 88.4205,-613.217 91.5318,-623.345 97.1685,-619.194"/>
</g>
<!-- Node192 -->
<g id="node15" class="node"><title>Node192</title>
<g id="a_node15"><a xlink:href="xep__application__mcp__callbacks_8h.xhtml#a89eff3efd6433f476df4c66dea370ad1" target="_top" xlink:title="onMcpX4DriverSetFrameArea\lOffset">
<polygon fill="white" stroke="red" points="202.5,-671 202.5,-701 360.5,-701 360.5,-671 202.5,-671"/>
<text text-anchor="start" x="210.5" y="-689" font-family="Helvetica,sans-Serif" font-size="10.00">onMcpX4DriverSetFrameArea</text>
<text text-anchor="middle" x="281.5" y="-678" font-family="Helvetica,sans-Serif" font-size="10.00">Offset</text>
</a>
</g>
</g>
<!-- Node175&#45;&gt;Node192 -->
<g id="edge14" class="edge"><title>Node175&#45;&gt;Node192</title>
<path fill="none" stroke="midnightblue" d="M109.733,-618.601C131.605,-632.102 161.72,-649.344 190,-661 198.892,-664.665 208.492,-667.968 218.001,-670.882"/>
<polygon fill="midnightblue" stroke="midnightblue" points="111.523,-615.592 101.189,-613.258 107.812,-621.527 111.523,-615.592"/>
</g>
<!-- Node193 -->
<g id="node16" class="node"><title>Node193</title>
<g id="a_node16"><a xlink:href="xep__application__mcp__callbacks_8h.xhtml#a2e1f3124a9f776f311f45b0828f9bb50" target="_top" xlink:title="onMcpX4DriverSetEnable">
<polygon fill="white" stroke="red" points="213,-632.5 213,-651.5 350,-651.5 350,-632.5 213,-632.5"/>
<text text-anchor="middle" x="281.5" y="-639.5" font-family="Helvetica,sans-Serif" font-size="10.00">onMcpX4DriverSetEnable</text>
</a>
</g>
</g>
<!-- Node175&#45;&gt;Node193 -->
<g id="edge15" class="edge"><title>Node175&#45;&gt;Node193</title>
<path fill="none" stroke="midnightblue" d="M154.495,-615.21C166.376,-617.844 178.515,-620.513 190,-623 204.435,-626.126 220.183,-629.459 234.436,-632.447"/>
<polygon fill="midnightblue" stroke="midnightblue" points="155.117,-611.763 144.596,-613.011 153.599,-618.597 155.117,-611.763"/>
</g>
<!-- Node194 -->
<g id="node17" class="node"><title>Node194</title>
<g id="a_node17"><a xlink:href="xep__application__mcp__callbacks_8h.xhtml#a74bcd9d4245e20e4dceecd414bc3bf2d" target="_top" xlink:title="onMcpX4DriverSetTxCenter\lFrequency">
<polygon fill="white" stroke="red" points="207.5,-583 207.5,-613 355.5,-613 355.5,-583 207.5,-583"/>
<text text-anchor="start" x="215.5" y="-601" font-family="Helvetica,sans-Serif" font-size="10.00">onMcpX4DriverSetTxCenter</text>
<text text-anchor="middle" x="281.5" y="-590" font-family="Helvetica,sans-Serif" font-size="10.00">Frequency</text>
</a>
</g>
</g>
<!-- Node175&#45;&gt;Node194 -->
<g id="edge16" class="edge"><title>Node175&#45;&gt;Node194</title>
<path fill="none" stroke="midnightblue" d="M164.554,-598C178.798,-598 193.439,-598 207.316,-598"/>
<polygon fill="midnightblue" stroke="midnightblue" points="164.268,-594.5 154.268,-598 164.268,-601.5 164.268,-594.5"/>
</g>
<!-- Node195 -->
<g id="node18" class="node"><title>Node195</title>
<g id="a_node18"><a xlink:href="xep__application__mcp__callbacks_8h.xhtml#a2feea8db577f360255e5642a40a2278b" target="_top" xlink:title="onMcpX4DriverSetTxPower">
<polygon fill="white" stroke="red" points="209.5,-544.5 209.5,-563.5 353.5,-563.5 353.5,-544.5 209.5,-544.5"/>
<text text-anchor="middle" x="281.5" y="-551.5" font-family="Helvetica,sans-Serif" font-size="10.00">onMcpX4DriverSetTxPower</text>
</a>
</g>
</g>
<!-- Node175&#45;&gt;Node195 -->
<g id="edge17" class="edge"><title>Node175&#45;&gt;Node195</title>
<path fill="none" stroke="midnightblue" d="M156.992,-580.836C184.096,-574.947 213.44,-568.571 236.721,-563.512"/>
<polygon fill="midnightblue" stroke="midnightblue" points="156.151,-577.437 147.123,-582.981 157.638,-584.278 156.151,-577.437"/>
</g>
<!-- Node196 -->
<g id="node19" class="node"><title>Node196</title>
<g id="a_node19"><a xlink:href="xep__application__mcp__callbacks_8h.xhtml#a517a6a5e38e78fe052aee8b47822d6ed" target="_top" xlink:title="onMcpX4DriverGetFps">
<polygon fill="white" stroke="red" points="220.5,-506.5 220.5,-525.5 342.5,-525.5 342.5,-506.5 220.5,-506.5"/>
<text text-anchor="middle" x="281.5" y="-513.5" font-family="Helvetica,sans-Serif" font-size="10.00">onMcpX4DriverGetFps</text>
</a>
</g>
</g>
<!-- Node175&#45;&gt;Node196 -->
<g id="edge18" class="edge"><title>Node175&#45;&gt;Node196</title>
<path fill="none" stroke="midnightblue" d="M108.673,-577.35C130.507,-563.516 161.002,-545.904 190,-535 200.068,-531.214 211.065,-528.109 221.815,-525.586"/>
<polygon fill="midnightblue" stroke="midnightblue" points="106.681,-574.47 100.168,-582.826 110.471,-580.355 106.681,-574.47"/>
</g>
<!-- Node197 -->
<g id="node20" class="node"><title>Node197</title>
<g id="a_node20"><a xlink:href="xep__application__mcp__callbacks_8h.xhtml#afaff4cfa6c10aaeb1121a1bf362d81b5" target="_top" xlink:title="onMcpX4DriverSetSpiRegister">
<polygon fill="white" stroke="red" points="202.5,-468.5 202.5,-487.5 360.5,-487.5 360.5,-468.5 202.5,-468.5"/>
<text text-anchor="middle" x="281.5" y="-475.5" font-family="Helvetica,sans-Serif" font-size="10.00">onMcpX4DriverSetSpiRegister</text>
</a>
</g>
</g>
<!-- Node175&#45;&gt;Node197 -->
<g id="edge19" class="edge"><title>Node175&#45;&gt;Node197</title>
<path fill="none" stroke="midnightblue" d="M96.6149,-575.271C117.037,-551.915 152.002,-516.319 190,-497 197.585,-493.144 205.908,-490.07 214.339,-487.62"/>
<polygon fill="midnightblue" stroke="midnightblue" points="93.8633,-573.103 90.0168,-582.975 99.18,-577.656 93.8633,-573.103"/>
</g>
<!-- Node198 -->
<g id="node21" class="node"><title>Node198</title>
<g id="a_node21"><a xlink:href="xep__application__mcp__callbacks_8h.xhtml#ab1ee8219699e8ad5565777e7962bd09f" target="_top" xlink:title="onMcpX4DriverGetSpiRegister">
<polygon fill="white" stroke="red" points="202,-430.5 202,-449.5 361,-449.5 361,-430.5 202,-430.5"/>
<text text-anchor="middle" x="281.5" y="-437.5" font-family="Helvetica,sans-Serif" font-size="10.00">onMcpX4DriverGetSpiRegister</text>
</a>
</g>
</g>
<!-- Node175&#45;&gt;Node198 -->
<g id="edge20" class="edge"><title>Node175&#45;&gt;Node198</title>
<path fill="none" stroke="midnightblue" d="M90.6824,-573.518C108.437,-541.828 143.782,-487.321 190,-459 196.297,-455.142 203.253,-452.056 210.428,-449.591"/>
<polygon fill="midnightblue" stroke="midnightblue" points="87.4626,-572.112 85.7445,-582.567 93.6072,-575.465 87.4626,-572.112"/>
</g>
<!-- Node199 -->
<g id="node22" class="node"><title>Node199</title>
<g id="a_node22"><a xlink:href="xep__application__mcp__callbacks_8h.xhtml#a4b8b3538059764feac39d03c54e37e81" target="_top" xlink:title="onMcpX4DriverSetPifRegister">
<polygon fill="white" stroke="red" points="204,-392.5 204,-411.5 359,-411.5 359,-392.5 204,-392.5"/>
<text text-anchor="middle" x="281.5" y="-399.5" font-family="Helvetica,sans-Serif" font-size="10.00">onMcpX4DriverSetPifRegister</text>
</a>
</g>
</g>
<!-- Node175&#45;&gt;Node199 -->
<g id="edge21" class="edge"><title>Node175&#45;&gt;Node199</title>
<path fill="none" stroke="midnightblue" d="M86.4291,-573.252C101.034,-534.316 134.881,-459.26 190,-421 195.539,-417.155 201.697,-414.06 208.121,-411.573"/>
<polygon fill="midnightblue" stroke="midnightblue" points="83.0954,-572.178 82.9731,-582.772 89.6753,-574.567 83.0954,-572.178"/>
</g>
<!-- Node200 -->
<g id="node23" class="node"><title>Node200</title>
<g id="a_node23"><a xlink:href="xep__application__mcp__callbacks_8h.xhtml#a269b9593eb2635b8c5b600e8d69a331f" target="_top" xlink:title="onMcpX4DriverGetPifRegister">
<polygon fill="white" stroke="red" points="204,-354.5 204,-373.5 359,-373.5 359,-354.5 204,-354.5"/>
<text text-anchor="middle" x="281.5" y="-361.5" font-family="Helvetica,sans-Serif" font-size="10.00">onMcpX4DriverGetPifRegister</text>
</a>
</g>
</g>
<!-- Node175&#45;&gt;Node200 -->
<g id="edge22" class="edge"><title>Node175&#45;&gt;Node200</title>
<path fill="none" stroke="midnightblue" d="M83.5746,-572.974C95.0701,-527.519 125.886,-431.613 190,-383 194.989,-379.217 200.559,-376.146 206.416,-373.657"/>
<polygon fill="midnightblue" stroke="midnightblue" points="80.127,-572.34 81.1752,-582.883 86.9304,-573.988 80.127,-572.34"/>
</g>
<!-- Node201 -->
<g id="node24" class="node"><title>Node201</title>
<g id="a_node24"><a xlink:href="xep__application__mcp__callbacks_8h.xhtml#ab7cec7458dba6ab3ced50a3ecdc9377d" target="_top" xlink:title="onMcpX4DriverSetXifRegister">
<polygon fill="white" stroke="red" points="204,-316.5 204,-335.5 359,-335.5 359,-316.5 204,-316.5"/>
<text text-anchor="middle" x="281.5" y="-323.5" font-family="Helvetica,sans-Serif" font-size="10.00">onMcpX4DriverSetXifRegister</text>
</a>
</g>
</g>
<!-- Node175&#45;&gt;Node201 -->
<g id="edge23" class="edge"><title>Node175&#45;&gt;Node201</title>
<path fill="none" stroke="midnightblue" d="M81.446,-572.993C89.9031,-521.693 116.627,-404.394 190,-345 194.742,-341.162 200.07,-338.044 205.706,-335.518"/>
<polygon fill="midnightblue" stroke="midnightblue" points="77.9846,-572.475 79.9083,-582.894 84.9016,-573.549 77.9846,-572.475"/>
</g>
<!-- Node202 -->
<g id="node25" class="node"><title>Node202</title>
<g id="a_node25"><a xlink:href="xep__application__mcp__callbacks_8h.xhtml#a6fc8f78920527c2d055ab44a74192789" target="_top" xlink:title="onMcpX4DriverGetXifRegister">
<polygon fill="white" stroke="red" points="204,-278.5 204,-297.5 359,-297.5 359,-278.5 204,-278.5"/>
<text text-anchor="middle" x="281.5" y="-285.5" font-family="Helvetica,sans-Serif" font-size="10.00">onMcpX4DriverGetXifRegister</text>
</a>
</g>
</g>
<!-- Node175&#45;&gt;Node202 -->
<g id="edge24" class="edge"><title>Node175&#45;&gt;Node202</title>
<path fill="none" stroke="midnightblue" d="M79.8846,-572.525C85.5363,-515.529 107.49,-377.229 190,-307 194.401,-303.254 199.354,-300.186 204.617,-297.679"/>
<polygon fill="midnightblue" stroke="midnightblue" points="76.3708,-572.522 78.9586,-582.796 83.3425,-573.151 76.3708,-572.522"/>
</g>
<!-- Node203 -->
<g id="node26" class="node"><title>Node203</title>
<g id="a_node26"><a xlink:href="xep__application__mcp__callbacks_8h.xhtml#a799e2835d45b3fe3b1d2ae4c8a0fc910" target="_top" xlink:title="onMcpX4DriverSetPrfDiv">
<polygon fill="white" stroke="red" points="215,-240.5 215,-259.5 348,-259.5 348,-240.5 215,-240.5"/>
<text text-anchor="middle" x="281.5" y="-247.5" font-family="Helvetica,sans-Serif" font-size="10.00">onMcpX4DriverSetPrfDiv</text>
</a>
</g>
</g>
<!-- Node175&#45;&gt;Node203 -->
<g id="edge25" class="edge"><title>Node175&#45;&gt;Node203</title>
<path fill="none" stroke="midnightblue" d="M78.59,-572.679C81.4821,-510.702 97.9592,-350.512 190,-269 197.091,-262.72 205.721,-258.326 214.803,-255.281"/>
<polygon fill="midnightblue" stroke="midnightblue" points="75.09,-572.615 78.2026,-582.742 82.0848,-572.884 75.09,-572.615"/>
</g>
<!-- Node204 -->
<g id="node27" class="node"><title>Node204</title>
<g id="a_node27"><a xlink:href="xep__application__mcp__callbacks_8h.xhtml#a4f984ea88bc111ee46e9a82d80534d78" target="_top" xlink:title="onMcpX4DriverGetPrfDiv">
<polygon fill="white" stroke="red" points="214.5,-202.5 214.5,-221.5 348.5,-221.5 348.5,-202.5 214.5,-202.5"/>
<text text-anchor="middle" x="281.5" y="-209.5" font-family="Helvetica,sans-Serif" font-size="10.00">onMcpX4DriverGetPrfDiv</text>
</a>
</g>
</g>
<!-- Node175&#45;&gt;Node204 -->
<g id="edge26" class="edge"><title>Node175&#45;&gt;Node204</title>
<path fill="none" stroke="midnightblue" d="M77.5567,-572.559C77.8672,-505.703 88.4837,-323.836 190,-231 196.871,-224.716 205.275,-220.304 214.163,-217.239"/>
<polygon fill="midnightblue" stroke="midnightblue" points="74.0568,-572.63 77.5868,-582.62 81.0568,-572.609 74.0568,-572.63"/>
</g>
<!-- Node205 -->
<g id="node28" class="node"><title>Node205</title>
<g id="a_node28"><a xlink:href="xep__application__mcp__callbacks_8h.xhtml#af51dbd5d964702e184cdde97fccc4f40" target="_top" xlink:title="onMcpX4DriverGetFrameArea">
<polygon fill="white" stroke="red" points="202.5,-164.5 202.5,-183.5 360.5,-183.5 360.5,-164.5 202.5,-164.5"/>
<text text-anchor="middle" x="281.5" y="-171.5" font-family="Helvetica,sans-Serif" font-size="10.00">onMcpX4DriverGetFrameArea</text>
</a>
</g>
</g>
<!-- Node175&#45;&gt;Node205 -->
<g id="edge27" class="edge"><title>Node175&#45;&gt;Node205</title>
<path fill="none" stroke="midnightblue" d="M81.5483,-572.582C93.2663,-492.298 133.241,-246.299 190,-193 193.979,-189.263 198.498,-186.184 203.342,-183.654"/>
<polygon fill="midnightblue" stroke="midnightblue" points="78.0418,-572.377 80.0836,-582.773 84.9707,-573.373 78.0418,-572.377"/>
</g>
<!-- Node206 -->
<g id="node29" class="node"><title>Node206</title>
<g id="a_node29"><a xlink:href="xep__application__mcp__callbacks_8h.xhtml#a47560a41123b4f6b65fed7233f6e8473" target="_top" xlink:title="onMcpX4DriverGetFrameArea\lOffset">
<polygon fill="white" stroke="red" points="202.5,-115 202.5,-145 360.5,-145 360.5,-115 202.5,-115"/>
<text text-anchor="start" x="210.5" y="-133" font-family="Helvetica,sans-Serif" font-size="10.00">onMcpX4DriverGetFrameArea</text>
<text text-anchor="middle" x="281.5" y="-122" font-family="Helvetica,sans-Serif" font-size="10.00">Offset</text>
</a>
</g>
</g>
<!-- Node175&#45;&gt;Node206 -->
<g id="edge28" class="edge"><title>Node175&#45;&gt;Node206</title>
<path fill="none" stroke="midnightblue" d="M81.0265,-572.894C91.7021,-488.383 130.209,-216.114 190,-155 193.762,-151.155 198.057,-147.886 202.687,-145.108"/>
<polygon fill="midnightblue" stroke="midnightblue" points="77.5442,-572.536 79.7837,-582.892 84.4907,-573.4 77.5442,-572.536"/>
</g>
<!-- Node207 -->
<g id="node30" class="node"><title>Node207</title>
<g id="a_node30"><a xlink:href="xep__application__mcp__callbacks_8h.xhtml#a8850c282d398f5566ab9c2d486e96aeb" target="_top" xlink:title="onMcpSetIOPinControl">
<polygon fill="white" stroke="red" points="220,-76.5 220,-95.5 343,-95.5 343,-76.5 220,-76.5"/>
<text text-anchor="middle" x="281.5" y="-83.5" font-family="Helvetica,sans-Serif" font-size="10.00">onMcpSetIOPinControl</text>
</a>
</g>
</g>
<!-- Node175&#45;&gt;Node207 -->
<g id="edge29" class="edge"><title>Node175&#45;&gt;Node207</title>
<path fill="none" stroke="midnightblue" d="M80.2343,-572.711C88.7815,-481.773 122.376,-173.198 190,-106 198.104,-97.9472 208.674,-92.8228 219.719,-89.6219"/>
<polygon fill="midnightblue" stroke="midnightblue" points="76.7471,-572.413 79.3155,-582.692 83.7176,-573.055 76.7471,-572.413"/>
</g>
<!-- Node208 -->
<g id="node31" class="node"><title>Node208</title>
<g id="a_node31"><a xlink:href="xep__application__mcp__callbacks_8h.xhtml#a8e7d3bc0aacfe4f2fd3e8313afc11321" target="_top" xlink:title="onMcpSetIOPinValue">
<polygon fill="white" stroke="red" points="224,-38.5 224,-57.5 339,-57.5 339,-38.5 224,-38.5"/>
<text text-anchor="middle" x="281.5" y="-45.5" font-family="Helvetica,sans-Serif" font-size="10.00">onMcpSetIOPinValue</text>
</a>
</g>
</g>
<!-- Node175&#45;&gt;Node208 -->
<g id="edge30" class="edge"><title>Node175&#45;&gt;Node208</title>
<path fill="none" stroke="midnightblue" d="M79.7613,-572.599C86.9177,-476.911 116.991,-139.941 190,-67 199.086,-57.9226 211.331,-52.663 223.874,-49.7217"/>
<polygon fill="midnightblue" stroke="midnightblue" points="76.2542,-572.571 79.0178,-582.799 83.2357,-573.08 76.2542,-572.571"/>
</g>
<!-- Node209 -->
<g id="node32" class="node"><title>Node209</title>
<g id="a_node32"><a xlink:href="xep__application__mcp__callbacks_8h.xhtml#ab45991b5af535952ce2020e56a1f23ca" target="_top" xlink:title="onMcpGetIOPinValue">
<polygon fill="white" stroke="red" points="223.5,-0.5 223.5,-19.5 339.5,-19.5 339.5,-0.5 223.5,-0.5"/>
<text text-anchor="middle" x="281.5" y="-7.5" font-family="Helvetica,sans-Serif" font-size="10.00">onMcpGetIOPinValue</text>
</a>
</g>
</g>
<!-- Node175&#45;&gt;Node209 -->
<g id="edge31" class="edge"><title>Node175&#45;&gt;Node209</title>
<path fill="none" stroke="midnightblue" d="M79.3657,-572.745C85.2815,-472.987 112.012,-107.976 190,-29 198.912,-19.9756 210.941,-14.7115 223.316,-11.7464"/>
<polygon fill="midnightblue" stroke="midnightblue" points="75.8665,-572.632 78.7866,-582.816 82.855,-573.034 75.8665,-572.632"/>
</g>
</g>
</svg>
