<?xml version="1.0" encoding="UTF-8" standalone="no"?>
<!DOCTYPE svg PUBLIC "-//W3C//DTD SVG 1.1//EN"
 "http://www.w3.org/Graphics/SVG/1.1/DTD/svg11.dtd">
<!-- Generated by graphviz version 2.38.0 (20140413.2041)
 -->
<!-- Title: dispatch_message_hostcom_send_reply_byte Pages: 1 -->
<svg width="357pt" height="142pt"
 viewBox="0.00 0.00 357.00 142.00" xmlns="http://www.w3.org/2000/svg" xmlns:xlink="http://www.w3.org/1999/xlink">
<g id="graph0" class="graph" transform="scale(1 1) rotate(0) translate(4 138)">
<title>dispatch_message_hostcom_send_reply_byte</title>
<polygon fill="white" stroke="none" points="-4,4 -4,-138 353,-138 353,4 -4,4"/>
<!-- Node233 -->
<g id="node1" class="node"><title>Node233</title>
<polygon fill="#bfbfbf" stroke="black" points="0,-52 0,-82 154,-82 154,-52 0,-52"/>
<text text-anchor="start" x="8" y="-70" font-family="Helvetica,sans-Serif" font-size="10.00">dispatch_message_hostcom</text>
<text text-anchor="middle" x="77" y="-59" font-family="Helvetica,sans-Serif" font-size="10.00">_send_reply_byte</text>
</g>
<!-- Node234 -->
<g id="node2" class="node"><title>Node234</title>
<g id="a_node2"><a xlink:href="xep__application__mcp__callbacks_8h.xhtml#ab1ee8219699e8ad5565777e7962bd09f" target="_top" xlink:title="onMcpX4DriverGetSpiRegister">
<polygon fill="white" stroke="red" points="190,-114.5 190,-133.5 349,-133.5 349,-114.5 190,-114.5"/>
<text text-anchor="middle" x="269.5" y="-121.5" font-family="Helvetica,sans-Serif" font-size="10.00">onMcpX4DriverGetSpiRegister</text>
</a>
</g>
</g>
<!-- Node233&#45;&gt;Node234 -->
<g id="edge1" class="edge"><title>Node233&#45;&gt;Node234</title>
<path fill="none" stroke="midnightblue" d="M129.124,-85.422C148.121,-91.9822 169.932,-99.1797 190,-105 201.582,-108.359 214.241,-111.605 225.947,-114.436"/>
<polygon fill="midnightblue" stroke="midnightblue" points="130.065,-82.0437 119.47,-82.0603 127.763,-88.6543 130.065,-82.0437"/>
</g>
<!-- Node238 -->
<g id="node3" class="node"><title>Node238</title>
<g id="a_node3"><a xlink:href="xep__application__mcp__callbacks_8h.xhtml#a269b9593eb2635b8c5b600e8d69a331f" target="_top" xlink:title="onMcpX4DriverGetPifRegister">
<polygon fill="white" stroke="red" points="192,-76.5 192,-95.5 347,-95.5 347,-76.5 192,-76.5"/>
<text text-anchor="middle" x="269.5" y="-83.5" font-family="Helvetica,sans-Serif" font-size="10.00">onMcpX4DriverGetPifRegister</text>
</a>
</g>
</g>
<!-- Node233&#45;&gt;Node238 -->
<g id="edge2" class="edge"><title>Node233&#45;&gt;Node238</title>
<path fill="none" stroke="midnightblue" d="M164.101,-75.5875C173.365,-76.5115 182.745,-77.447 191.887,-78.3588"/>
<polygon fill="midnightblue" stroke="midnightblue" points="164.41,-72.101 154.112,-74.5912 163.715,-79.0665 164.41,-72.101"/>
</g>
<!-- Node239 -->
<g id="node4" class="node"><title>Node239</title>
<g id="a_node4"><a xlink:href="xep__application__mcp__callbacks_8h.xhtml#a6fc8f78920527c2d055ab44a74192789" target="_top" xlink:title="onMcpX4DriverGetXifRegister">
<polygon fill="white" stroke="red" points="192,-38.5 192,-57.5 347,-57.5 347,-38.5 192,-38.5"/>
<text text-anchor="middle" x="269.5" y="-45.5" font-family="Helvetica,sans-Serif" font-size="10.00">onMcpX4DriverGetXifRegister</text>
</a>
</g>
</g>
<!-- Node233&#45;&gt;Node239 -->
<g id="edge3" class="edge"><title>Node233&#45;&gt;Node239</title>
<path fill="none" stroke="midnightblue" d="M164.101,-58.4125C173.365,-57.4885 182.745,-56.553 191.887,-55.6412"/>
<polygon fill="midnightblue" stroke="midnightblue" points="163.715,-54.9335 154.112,-59.4088 164.41,-61.899 163.715,-54.9335"/>
</g>
<!-- Node240 -->
<g id="node5" class="node"><title>Node240</title>
<g id="a_node5"><a xlink:href="xep__application__mcp__callbacks_8h.xhtml#a4f984ea88bc111ee46e9a82d80534d78" target="_top" xlink:title="onMcpX4DriverGetPrfDiv">
<polygon fill="white" stroke="red" points="202.5,-0.5 202.5,-19.5 336.5,-19.5 336.5,-0.5 202.5,-0.5"/>
<text text-anchor="middle" x="269.5" y="-7.5" font-family="Helvetica,sans-Serif" font-size="10.00">onMcpX4DriverGetPrfDiv</text>
</a>
</g>
</g>
<!-- Node233&#45;&gt;Node240 -->
<g id="edge4" class="edge"><title>Node233&#45;&gt;Node240</title>
<path fill="none" stroke="midnightblue" d="M129.124,-48.578C148.121,-42.0178 169.932,-34.8203 190,-29 201.582,-25.641 214.241,-22.3946 225.947,-19.5642"/>
<polygon fill="midnightblue" stroke="midnightblue" points="127.763,-45.3457 119.47,-51.9397 130.065,-51.9563 127.763,-45.3457"/>
</g>
</g>
</svg>
