<?xml version="1.0" encoding="UTF-8" standalone="no"?>
<!DOCTYPE svg PUBLIC "-//W3C//DTD SVG 1.1//EN"
 "http://www.w3.org/Graphics/SVG/1.1/DTD/svg11.dtd">
<!-- Generated by graphviz version 2.38.0 (20140413.2041)
 -->
<!-- Title: src/XEPA/xep_application_mcp_callbacks.c Pages: 1 -->
<svg width="824pt" height="162pt"
 viewBox="0.00 0.00 823.50 162.00" xmlns="http://www.w3.org/2000/svg" xmlns:xlink="http://www.w3.org/1999/xlink">
<g id="graph0" class="graph" transform="scale(1 1) rotate(0) translate(4 158)">
<title>src/XEPA/xep_application_mcp_callbacks.c</title>
<polygon fill="white" stroke="none" points="-4,4 -4,-158 819.5,-158 819.5,4 -4,4"/>
<!-- Node0 -->
<g id="node1" class="node"><title>Node0</title>
<polygon fill="#bfbfbf" stroke="black" points="413,-123.5 413,-153.5 548,-153.5 548,-123.5 413,-123.5"/>
<text text-anchor="start" x="421" y="-141.5" font-family="Helvetica,sans-Serif" font-size="10.00">src/XEPA/xep_application</text>
<text text-anchor="middle" x="480.5" y="-130.5" font-family="Helvetica,sans-Serif" font-size="10.00">_mcp_callbacks.c</text>
</g>
<!-- Node1 -->
<g id="node2" class="node"><title>Node1</title>
<g id="a_node2"><a xlink:href="xep__application__mcp__callbacks_8h.xhtml" target="_top" xlink:title="XEP Module application interface. ">
<polygon fill="white" stroke="red" points="0,-56.5 0,-86.5 117,-86.5 117,-56.5 0,-56.5"/>
<text text-anchor="start" x="8" y="-74.5" font-family="Helvetica,sans-Serif" font-size="10.00">xep_application_mcp</text>
<text text-anchor="middle" x="58.5" y="-63.5" font-family="Helvetica,sans-Serif" font-size="10.00">_callbacks.h</text>
</a>
</g>
</g>
<!-- Node0&#45;&gt;Node1 -->
<g id="edge1" class="edge"><title>Node0&#45;&gt;Node1</title>
<path fill="none" stroke="midnightblue" d="M412.746,-129.234C343.495,-120.468 232.634,-105.563 126.938,-87.0008"/>
<polygon fill="midnightblue" stroke="midnightblue" points="127.512,-83.5481 117.056,-85.2518 126.293,-90.441 127.512,-83.5481"/>
</g>
<!-- Node3 -->
<g id="node3" class="node"><title>Node3</title>
<g id="a_node3"><a xlink:href="xep_8h.xhtml" target="_top" xlink:title="XEP interface. ">
<polygon fill="white" stroke="red" points="135,-62 135,-81 178,-81 178,-62 135,-62"/>
<text text-anchor="middle" x="156.5" y="-69" font-family="Helvetica,sans-Serif" font-size="10.00">xep.h</text>
</a>
</g>
</g>
<!-- Node0&#45;&gt;Node3 -->
<g id="edge2" class="edge"><title>Node0&#45;&gt;Node3</title>
<path fill="none" stroke="midnightblue" d="M412.968,-131.038C352.792,-124.067 262.852,-110.648 187.5,-87 185.629,-86.4129 183.726,-85.7362 181.829,-85.0028"/>
<polygon fill="midnightblue" stroke="midnightblue" points="183.152,-81.762 172.584,-81.0151 180.38,-88.1896 183.152,-81.762"/>
</g>
<!-- Node9 -->
<g id="node4" class="node"><title>Node9</title>
<g id="a_node4"><a xlink:href="xep__hal_8h.xhtml" target="_top" xlink:title="Brief description. ">
<polygon fill="white" stroke="red" points="196.5,-62 196.5,-81 258.5,-81 258.5,-62 196.5,-62"/>
<text text-anchor="middle" x="227.5" y="-69" font-family="Helvetica,sans-Serif" font-size="10.00">xep_hal.h</text>
</a>
</g>
</g>
<!-- Node0&#45;&gt;Node9 -->
<g id="edge3" class="edge"><title>Node0&#45;&gt;Node9</title>
<path fill="none" stroke="midnightblue" d="M412.823,-123.539C370.695,-114.336 315.567,-101.358 267.5,-87 264.87,-86.2144 262.161,-85.3515 259.451,-84.4501"/>
<polygon fill="midnightblue" stroke="midnightblue" points="260.369,-81.0636 249.774,-81.0873 258.071,-87.6757 260.369,-81.0636"/>
</g>
<!-- Node11 -->
<g id="node5" class="node"><title>Node11</title>
<polygon fill="white" stroke="#bfbfbf" points="276.5,-62 276.5,-81 390.5,-81 390.5,-62 276.5,-62"/>
<text text-anchor="middle" x="333.5" y="-69" font-family="Helvetica,sans-Serif" font-size="10.00">xtserial_definitions.h</text>
</g>
<!-- Node0&#45;&gt;Node11 -->
<g id="edge4" class="edge"><title>Node0&#45;&gt;Node11</title>
<path fill="none" stroke="midnightblue" d="M448.603,-123.396C422.81,-111.991 386.826,-96.0794 361.99,-85.0976"/>
<polygon fill="midnightblue" stroke="midnightblue" points="363.3,-81.8501 352.739,-81.007 360.469,-88.2522 363.3,-81.8501"/>
</g>
<!-- Node12 -->
<g id="node6" class="node"><title>Node12</title>
<g id="a_node6"><a xlink:href="xep__dispatch__messages_8h.xhtml" target="_top" xlink:title="xep_dispatch_messages.h">
<polygon fill="white" stroke="red" points="409,-62 409,-81 552,-81 552,-62 409,-62"/>
<text text-anchor="middle" x="480.5" y="-69" font-family="Helvetica,sans-Serif" font-size="10.00">xep_dispatch_messages.h</text>
</a>
</g>
</g>
<!-- Node0&#45;&gt;Node12 -->
<g id="edge5" class="edge"><title>Node0&#45;&gt;Node12</title>
<path fill="none" stroke="midnightblue" d="M480.5,-123.396C480.5,-114.064 480.5,-101.714 480.5,-91.5173"/>
<polygon fill="midnightblue" stroke="midnightblue" points="484,-91.1945 480.5,-81.1945 477,-91.1946 484,-91.1945"/>
</g>
<!-- Node13 -->
<g id="node7" class="node"><title>Node13</title>
<polygon fill="white" stroke="#bfbfbf" points="570,-62 570,-81 613,-81 613,-62 570,-62"/>
<text text-anchor="middle" x="591.5" y="-69" font-family="Helvetica,sans-Serif" font-size="10.00">xtid.h</text>
</g>
<!-- Node0&#45;&gt;Node13 -->
<g id="edge6" class="edge"><title>Node0&#45;&gt;Node13</title>
<path fill="none" stroke="midnightblue" d="M504.585,-123.396C523.458,-112.344 549.558,-97.0607 568.221,-86.1319"/>
<polygon fill="midnightblue" stroke="midnightblue" points="570.112,-89.0805 576.973,-81.007 566.575,-83.04 570.112,-89.0805"/>
</g>
<!-- Node14 -->
<g id="node8" class="node"><title>Node14</title>
<g id="a_node8"><a xlink:href="build_8h.xhtml" target="_top" xlink:title="build.h">
<polygon fill="white" stroke="black" points="646.5,-0.5 646.5,-19.5 694.5,-19.5 694.5,-0.5 646.5,-0.5"/>
<text text-anchor="middle" x="670.5" y="-7.5" font-family="Helvetica,sans-Serif" font-size="10.00">build.h</text>
</a>
</g>
</g>
<!-- Node0&#45;&gt;Node14 -->
<g id="edge7" class="edge"><title>Node0&#45;&gt;Node14</title>
<path fill="none" stroke="midnightblue" d="M548.036,-123.427C573.3,-115.738 601.044,-104.159 622.5,-87 641.777,-71.5832 655.557,-46.2042 663.274,-29.0589"/>
<polygon fill="midnightblue" stroke="midnightblue" points="666.599,-30.1825 667.29,-19.6102 660.157,-27.4442 666.599,-30.1825"/>
</g>
<!-- Node15 -->
<g id="node9" class="node"><title>Node15</title>
<g id="a_node9"><a xlink:href="version_8h.xhtml" target="_top" xlink:title="version.h">
<polygon fill="white" stroke="black" points="669.5,-62 669.5,-81 729.5,-81 729.5,-62 669.5,-62"/>
<text text-anchor="middle" x="699.5" y="-69" font-family="Helvetica,sans-Serif" font-size="10.00">version.h</text>
</a>
</g>
</g>
<!-- Node0&#45;&gt;Node15 -->
<g id="edge8" class="edge"><title>Node0&#45;&gt;Node15</title>
<path fill="none" stroke="midnightblue" d="M531.192,-123.413C566.211,-113.549 613.806,-99.8808 655.5,-87 658.403,-86.103 661.408,-85.155 664.421,-84.1905"/>
<polygon fill="midnightblue" stroke="midnightblue" points="665.527,-87.5114 673.959,-81.0962 663.367,-80.8531 665.527,-87.5114"/>
</g>
<!-- Node16 -->
<g id="node10" class="node"><title>Node16</title>
<g id="a_node10"><a xlink:href="conf__usb_8h.xhtml" target="_top" xlink:title="USB configuration file for CDC application. ">
<polygon fill="white" stroke="red" points="747.5,-62 747.5,-81 815.5,-81 815.5,-62 747.5,-62"/>
<text text-anchor="middle" x="781.5" y="-69" font-family="Helvetica,sans-Serif" font-size="10.00">conf_usb.h</text>
</a>
</g>
</g>
<!-- Node0&#45;&gt;Node16 -->
<g id="edge10" class="edge"><title>Node0&#45;&gt;Node16</title>
<path fill="none" stroke="midnightblue" d="M548.144,-126.774C600.513,-117.866 674.642,-103.937 738.5,-87 741.698,-86.1517 745.005,-85.1915 748.297,-84.1789"/>
<polygon fill="midnightblue" stroke="midnightblue" points="749.571,-87.4455 758.013,-81.0434 747.422,-80.7838 749.571,-87.4455"/>
</g>
<!-- Node15&#45;&gt;Node14 -->
<g id="edge9" class="edge"><title>Node15&#45;&gt;Node14</title>
<path fill="none" stroke="midnightblue" d="M695.345,-61.9751C691.124,-53.3152 684.463,-39.6486 679.1,-28.6453"/>
<polygon fill="midnightblue" stroke="midnightblue" points="682.175,-26.9648 674.647,-19.5091 675.882,-30.0317 682.175,-26.9648"/>
</g>
</g>
</svg>
