<?xml version="1.0" encoding="UTF-8" standalone="no"?>
<!DOCTYPE svg PUBLIC "-//W3C//DTD SVG 1.1//EN"
 "http://www.w3.org/Graphics/SVG/1.1/DTD/svg11.dtd">
<!-- Generated by graphviz version 2.38.0 (20140413.2041)
 -->
<!-- Title: include/xep_hal.h Pages: 1 -->
<svg width="2193pt" height="162pt"
 viewBox="0.00 0.00 2193.00 162.00" xmlns="http://www.w3.org/2000/svg" xmlns:xlink="http://www.w3.org/1999/xlink">
<g id="graph0" class="graph" transform="scale(1 1) rotate(0) translate(4 158)">
<title>include/xep_hal.h</title>
<polygon fill="white" stroke="none" points="-4,4 -4,-158 2189,-158 2189,4 -4,4"/>
<!-- Node3 -->
<g id="node1" class="node"><title>Node3</title>
<polygon fill="#bfbfbf" stroke="black" points="911,-134.5 911,-153.5 1010,-153.5 1010,-134.5 911,-134.5"/>
<text text-anchor="middle" x="960.5" y="-141.5" font-family="Helvetica,sans-Serif" font-size="10.00">include/xep_hal.h</text>
</g>
<!-- Node4 -->
<g id="node2" class="node"><title>Node4</title>
<g id="a_node2"><a xlink:href="_free_r_t_o_s__hooks_8c.xhtml" target="_top" xlink:title="Callback functions used by FreeRTOS. ">
<polygon fill="white" stroke="black" points="0,-73 0,-92 121,-92 121,-73 0,-73"/>
<text text-anchor="middle" x="60.5" y="-80" font-family="Helvetica,sans-Serif" font-size="10.00">src/FreeRTOS_hooks.c</text>
</a>
</g>
</g>
<!-- Node3&#45;&gt;Node4 -->
<g id="edge1" class="edge"><title>Node3&#45;&gt;Node4</title>
<path fill="none" stroke="midnightblue" d="M900.314,-142.889C763.024,-141.949 416.407,-135.689 129.5,-98 118.577,-96.5651 106.806,-94.347 96.1336,-92.0737"/>
<polygon fill="midnightblue" stroke="midnightblue" points="900.591,-146.391 910.613,-142.952 900.634,-139.391 900.591,-146.391"/>
</g>
<!-- Node5 -->
<g id="node3" class="node"><title>Node5</title>
<g id="a_node3"><a xlink:href="radar__hal_8h.xhtml" target="_top" xlink:title="Local header file for Radar HAL. ">
<polygon fill="white" stroke="red" points="139,-73 139,-92 244,-92 244,-73 139,-73"/>
<text text-anchor="middle" x="191.5" y="-80" font-family="Helvetica,sans-Serif" font-size="10.00">src/hal/radar_hal.h</text>
</a>
</g>
</g>
<!-- Node3&#45;&gt;Node5 -->
<g id="edge2" class="edge"><title>Node3&#45;&gt;Node5</title>
<path fill="none" stroke="midnightblue" d="M900.671,-142.167C779.11,-139.814 494.733,-130.947 258.5,-98 247.892,-96.5205 236.461,-94.2891 226.098,-92.0174"/>
<polygon fill="midnightblue" stroke="midnightblue" points="900.817,-145.67 910.88,-142.356 900.947,-138.671 900.817,-145.67"/>
</g>
<!-- Node6 -->
<g id="node4" class="node"><title>Node6</title>
<g id="a_node4"><a xlink:href="radar__hal_8c.xhtml" target="_top" xlink:title="src/hal/radar_hal.c">
<polygon fill="white" stroke="black" points="139.5,-6 139.5,-25 243.5,-25 243.5,-6 139.5,-6"/>
<text text-anchor="middle" x="191.5" y="-13" font-family="Helvetica,sans-Serif" font-size="10.00">src/hal/radar_hal.c</text>
</a>
</g>
</g>
<!-- Node3&#45;&gt;Node6 -->
<g id="edge4" class="edge"><title>Node3&#45;&gt;Node6</title>
<path fill="none" stroke="midnightblue" d="M900.358,-142.183C764.146,-139.772 435.76,-130.654 330.5,-98 278.133,-81.7545 224.474,-42.6111 202.197,-25.1551"/>
<polygon fill="midnightblue" stroke="midnightblue" points="900.547,-145.687 910.606,-142.358 900.667,-138.688 900.547,-145.687"/>
</g>
<!-- Node8 -->
<g id="node5" class="node"><title>Node8</title>
<g id="a_node5"><a xlink:href="board_8h.xhtml" target="_top" xlink:title="User board definition template. ">
<polygon fill="white" stroke="red" points="376.5,-73 376.5,-92 522.5,-92 522.5,-73 376.5,-73"/>
<text text-anchor="middle" x="449.5" y="-80" font-family="Helvetica,sans-Serif" font-size="10.00">src/hal/x4m0x_s70/board.h</text>
</a>
</g>
</g>
<!-- Node3&#45;&gt;Node8 -->
<g id="edge5" class="edge"><title>Node3&#45;&gt;Node8</title>
<path fill="none" stroke="midnightblue" d="M900.614,-137.774C818.37,-130.34 665.922,-115.637 536.5,-98 523.907,-96.2839 510.335,-94.1563 497.741,-92.0646"/>
<polygon fill="midnightblue" stroke="midnightblue" points="900.501,-141.278 910.775,-138.688 901.128,-134.306 900.501,-141.278"/>
</g>
<!-- Node10 -->
<g id="node6" class="node"><title>Node10</title>
<g id="a_node6"><a xlink:href="hal__board__init_8c.xhtml" target="_top" xlink:title="User board initialization template. ">
<polygon fill="white" stroke="black" points="545,-0.5 545,-30.5 668,-30.5 668,-0.5 545,-0.5"/>
<text text-anchor="start" x="553" y="-18.5" font-family="Helvetica,sans-Serif" font-size="10.00">src/hal/x4m0x_s70/hal</text>
<text text-anchor="middle" x="606.5" y="-7.5" font-family="Helvetica,sans-Serif" font-size="10.00">_board_init.c</text>
</a>
</g>
</g>
<!-- Node3&#45;&gt;Node10 -->
<g id="edge10" class="edge"><title>Node3&#45;&gt;Node10</title>
<path fill="none" stroke="midnightblue" d="M900.913,-140.433C796.9,-135.336 591.145,-122.279 569.5,-98 551.714,-78.0497 574.53,-48.1172 591.419,-30.622"/>
<polygon fill="midnightblue" stroke="midnightblue" points="900.799,-143.931 910.955,-140.916 901.135,-136.94 900.799,-143.931"/>
</g>
<!-- Node18 -->
<g id="node7" class="node"><title>Node18</title>
<g id="a_node7"><a xlink:href="xt__selftest_8c.xhtml" target="_top" xlink:title="src/hal/x4m0x_s70/xt\l_selftest.c">
<polygon fill="white" stroke="black" points="397.5,-0.5 397.5,-30.5 515.5,-30.5 515.5,-0.5 397.5,-0.5"/>
<text text-anchor="start" x="405.5" y="-18.5" font-family="Helvetica,sans-Serif" font-size="10.00">src/hal/x4m0x_s70/xt</text>
<text text-anchor="middle" x="456.5" y="-7.5" font-family="Helvetica,sans-Serif" font-size="10.00">_selftest.c</text>
</a>
</g>
</g>
<!-- Node3&#45;&gt;Node18 -->
<g id="edge21" class="edge"><title>Node3&#45;&gt;Node18</title>
<path fill="none" stroke="midnightblue" d="M900.224,-142.958C756.55,-142.23 403.194,-136.505 367.5,-98 344.07,-72.7247 387.5,-46.2802 421.539,-30.6055"/>
<polygon fill="midnightblue" stroke="midnightblue" points="900.593,-146.459 910.608,-143.004 900.624,-139.46 900.593,-146.459"/>
</g>
<!-- Node11 -->
<g id="node8" class="node"><title>Node11</title>
<g id="a_node8"><a xlink:href="xt__system_8c.xhtml" target="_top" xlink:title="System level hardware functionality. ">
<polygon fill="white" stroke="black" points="261.5,-0.5 261.5,-30.5 379.5,-30.5 379.5,-0.5 261.5,-0.5"/>
<text text-anchor="start" x="269.5" y="-18.5" font-family="Helvetica,sans-Serif" font-size="10.00">src/hal/x4m0x_s70/xt</text>
<text text-anchor="middle" x="320.5" y="-7.5" font-family="Helvetica,sans-Serif" font-size="10.00">_system.c</text>
</a>
</g>
</g>
<!-- Node3&#45;&gt;Node11 -->
<g id="edge22" class="edge"><title>Node3&#45;&gt;Node11</title>
<path fill="none" stroke="midnightblue" d="M900.154,-141.952C756.181,-138.967 401.27,-128.563 357.5,-98 335.077,-82.3426 325.997,-49.6926 322.512,-30.8154"/>
<polygon fill="midnightblue" stroke="midnightblue" points="900.489,-145.46 910.558,-142.163 900.631,-138.461 900.489,-145.46"/>
</g>
<!-- Node19 -->
<g id="node9" class="node"><title>Node19</title>
<g id="a_node9"><a xlink:href="xtio__extram_8c.xhtml" target="_top" xlink:title="Implementent support for external RAM on boards with Atmel SAM S70 MCU. ">
<polygon fill="white" stroke="black" points="698.5,-0.5 698.5,-30.5 824.5,-30.5 824.5,-0.5 698.5,-0.5"/>
<text text-anchor="start" x="706.5" y="-18.5" font-family="Helvetica,sans-Serif" font-size="10.00">src/hal/x4m0x_s70/xtio</text>
<text text-anchor="middle" x="761.5" y="-7.5" font-family="Helvetica,sans-Serif" font-size="10.00">_extram.c</text>
</a>
</g>
</g>
<!-- Node3&#45;&gt;Node19 -->
<g id="edge23" class="edge"><title>Node3&#45;&gt;Node19</title>
<path fill="none" stroke="midnightblue" d="M942.031,-128.04C921.87,-112.031 888.335,-86.331 857.5,-67 835.96,-53.4961 810.441,-40.1909 791.13,-30.6303"/>
<polygon fill="midnightblue" stroke="midnightblue" points="940.057,-130.943 950.051,-134.459 944.431,-125.478 940.057,-130.943"/>
</g>
<!-- Node22 -->
<g id="node10" class="node"><title>Node22</title>
<g id="a_node10"><a xlink:href="xtio__extram_8h.xhtml" target="_top" xlink:title="Local header file for xtio functions. ">
<polygon fill="white" stroke="black" points="722.5,-67.5 722.5,-97.5 848.5,-97.5 848.5,-67.5 722.5,-67.5"/>
<text text-anchor="start" x="730.5" y="-85.5" font-family="Helvetica,sans-Serif" font-size="10.00">src/hal/x4m0x_s70/xtio</text>
<text text-anchor="middle" x="785.5" y="-74.5" font-family="Helvetica,sans-Serif" font-size="10.00">_extram.h</text>
</a>
</g>
</g>
<!-- Node3&#45;&gt;Node22 -->
<g id="edge11" class="edge"><title>Node3&#45;&gt;Node22</title>
<path fill="none" stroke="midnightblue" d="M925.883,-131.23C897.387,-121.542 856.916,-107.782 826.744,-97.523"/>
<polygon fill="midnightblue" stroke="midnightblue" points="924.832,-134.57 935.427,-134.475 927.086,-127.942 924.832,-134.57"/>
</g>
<!-- Node23 -->
<g id="node11" class="node"><title>Node23</title>
<g id="a_node11"><a xlink:href="startup__sams70_8c.xhtml" target="_top" xlink:title="Interrupt handler definitions and start up code. ">
<polygon fill="white" stroke="black" points="843,-0.5 843,-30.5 986,-30.5 986,-0.5 843,-0.5"/>
<text text-anchor="start" x="851" y="-18.5" font-family="Helvetica,sans-Serif" font-size="10.00">src/hal/x4m0x_s70/startup</text>
<text text-anchor="middle" x="914.5" y="-7.5" font-family="Helvetica,sans-Serif" font-size="10.00">_sams70.c</text>
</a>
</g>
</g>
<!-- Node3&#45;&gt;Node23 -->
<g id="edge20" class="edge"><title>Node3&#45;&gt;Node23</title>
<path fill="none" stroke="midnightblue" d="M948.529,-125.922C943.28,-117.779 937.432,-107.712 933.5,-98 924.339,-75.376 919.019,-47.3469 916.444,-30.7502"/>
<polygon fill="midnightblue" stroke="midnightblue" points="945.784,-128.112 954.265,-134.462 951.595,-124.209 945.784,-128.112"/>
</g>
<!-- Node24 -->
<g id="node12" class="node"><title>Node24</title>
<g id="a_node12"><a xlink:href="x4m0x__s70_2xtio__gpio_8h.xhtml" target="_top" xlink:title="Local header file for xtio functions. ">
<polygon fill="white" stroke="red" points="578.5,-67.5 578.5,-97.5 704.5,-97.5 704.5,-67.5 578.5,-67.5"/>
<text text-anchor="start" x="586.5" y="-85.5" font-family="Helvetica,sans-Serif" font-size="10.00">src/hal/x4m0x_s70/xtio</text>
<text text-anchor="middle" x="641.5" y="-74.5" font-family="Helvetica,sans-Serif" font-size="10.00">_gpio.h</text>
</a>
</g>
</g>
<!-- Node3&#45;&gt;Node24 -->
<g id="edge16" class="edge"><title>Node3&#45;&gt;Node24</title>
<path fill="none" stroke="midnightblue" d="M902.176,-132.688C852.089,-123.758 777.978,-110.365 713.5,-98 710.62,-97.4477 707.676,-96.8775 704.703,-96.2972"/>
<polygon fill="midnightblue" stroke="midnightblue" points="901.716,-136.161 912.175,-134.469 902.943,-129.27 901.716,-136.161"/>
</g>
<!-- Node25 -->
<g id="node13" class="node"><title>Node25</title>
<g id="a_node13"><a xlink:href="qspi__private_8h.xhtml" target="_top" xlink:title="Local header file for xtio functions. ">
<polygon fill="white" stroke="black" points="942.5,-67.5 942.5,-97.5 1070.5,-97.5 1070.5,-67.5 942.5,-67.5"/>
<text text-anchor="start" x="950.5" y="-85.5" font-family="Helvetica,sans-Serif" font-size="10.00">src/hal/x4m0x_s70/qspi</text>
<text text-anchor="middle" x="1006.5" y="-74.5" font-family="Helvetica,sans-Serif" font-size="10.00">_private.h</text>
</a>
</g>
</g>
<!-- Node3&#45;&gt;Node25 -->
<g id="edge18" class="edge"><title>Node3&#45;&gt;Node25</title>
<path fill="none" stroke="midnightblue" d="M973.233,-126.53C980.278,-117.417 988.94,-106.214 995.659,-97.523"/>
<polygon fill="midnightblue" stroke="midnightblue" points="970.438,-124.423 967.091,-134.475 975.976,-128.704 970.438,-124.423"/>
</g>
<!-- Node26 -->
<g id="node14" class="node"><title>Node26</title>
<g id="a_node14"><a xlink:href="xtio__spi_8c.xhtml" target="_top" xlink:title="src/hal/x4m0x_s70/xtio\l_spi.c">
<polygon fill="white" stroke="black" points="1019.5,-0.5 1019.5,-30.5 1145.5,-30.5 1145.5,-0.5 1019.5,-0.5"/>
<text text-anchor="start" x="1027.5" y="-18.5" font-family="Helvetica,sans-Serif" font-size="10.00">src/hal/x4m0x_s70/xtio</text>
<text text-anchor="middle" x="1082.5" y="-7.5" font-family="Helvetica,sans-Serif" font-size="10.00">_spi.c</text>
</a>
</g>
</g>
<!-- Node3&#45;&gt;Node26 -->
<g id="edge29" class="edge"><title>Node3&#45;&gt;Node26</title>
<path fill="none" stroke="midnightblue" d="M1019.87,-134.697C1042.22,-128.412 1065.58,-117.375 1079.5,-98 1093.71,-78.2223 1090.18,-48.2305 1086.33,-30.6777"/>
<polygon fill="midnightblue" stroke="midnightblue" points="1018.88,-131.337 1010.04,-137.187 1020.59,-138.123 1018.88,-131.337"/>
</g>
<!-- Node27 -->
<g id="node15" class="node"><title>Node27</title>
<g id="a_node15"><a xlink:href="xtio__led_8h.xhtml" target="_top" xlink:title="Local header file for xtio LED functions. ">
<polygon fill="white" stroke="red" points="1126.5,-67.5 1126.5,-97.5 1252.5,-97.5 1252.5,-67.5 1126.5,-67.5"/>
<text text-anchor="start" x="1134.5" y="-85.5" font-family="Helvetica,sans-Serif" font-size="10.00">src/hal/x4m0x_s70/xtio</text>
<text text-anchor="middle" x="1189.5" y="-74.5" font-family="Helvetica,sans-Serif" font-size="10.00">_led.h</text>
</a>
</g>
</g>
<!-- Node3&#45;&gt;Node27 -->
<g id="edge24" class="edge"><title>Node3&#45;&gt;Node27</title>
<path fill="none" stroke="midnightblue" d="M1003.38,-131.859C1040.77,-122.144 1095.18,-108.006 1135.53,-97.523"/>
<polygon fill="midnightblue" stroke="midnightblue" points="1002.11,-128.573 993.31,-134.475 1003.87,-135.348 1002.11,-128.573"/>
</g>
<!-- Node28 -->
<g id="node16" class="node"><title>Node28</title>
<g id="a_node16"><a xlink:href="xtio__serial__com_8c.xhtml" target="_top" xlink:title="Implement USB serial communication. ">
<polygon fill="white" stroke="black" points="1226.5,-0.5 1226.5,-30.5 1352.5,-30.5 1352.5,-0.5 1226.5,-0.5"/>
<text text-anchor="start" x="1234.5" y="-18.5" font-family="Helvetica,sans-Serif" font-size="10.00">src/hal/x4m0x_s70/xtio</text>
<text text-anchor="middle" x="1289.5" y="-7.5" font-family="Helvetica,sans-Serif" font-size="10.00">_serial_com.c</text>
</a>
</g>
</g>
<!-- Node3&#45;&gt;Node28 -->
<g id="edge25" class="edge"><title>Node3&#45;&gt;Node28</title>
<path fill="none" stroke="midnightblue" d="M1020.35,-141.255C1097.46,-137.816 1225.84,-127.68 1261.5,-98 1281.62,-81.2509 1287.32,-49.316 1288.91,-30.784"/>
<polygon fill="midnightblue" stroke="midnightblue" points="1020.13,-137.761 1010.28,-141.679 1020.42,-144.755 1020.13,-137.761"/>
</g>
<!-- Node29 -->
<g id="node17" class="node"><title>Node29</title>
<g id="a_node17"><a xlink:href="xtio__uart_8h.xhtml" target="_top" xlink:title="Local header file for xtio UART functions. ">
<polygon fill="white" stroke="black" points="1308.5,-67.5 1308.5,-97.5 1434.5,-97.5 1434.5,-67.5 1308.5,-67.5"/>
<text text-anchor="start" x="1316.5" y="-85.5" font-family="Helvetica,sans-Serif" font-size="10.00">src/hal/x4m0x_s70/xtio</text>
<text text-anchor="middle" x="1371.5" y="-74.5" font-family="Helvetica,sans-Serif" font-size="10.00">_uart.h</text>
</a>
</g>
</g>
<!-- Node3&#45;&gt;Node29 -->
<g id="edge26" class="edge"><title>Node3&#45;&gt;Node29</title>
<path fill="none" stroke="midnightblue" d="M1020.08,-135.926C1086.99,-127.759 1198.76,-113.453 1294.5,-98 1298.93,-97.2847 1303.5,-96.5129 1308.1,-95.711"/>
<polygon fill="midnightblue" stroke="midnightblue" points="1019.64,-132.453 1010.13,-137.134 1020.48,-139.402 1019.64,-132.453"/>
</g>
<!-- Node30 -->
<g id="node18" class="node"><title>Node30</title>
<g id="a_node18"><a xlink:href="xtio__uart_8c.xhtml" target="_top" xlink:title="src/hal/x4m0x_s70/xtio\l_uart.c">
<polygon fill="white" stroke="black" points="1389.5,-0.5 1389.5,-30.5 1515.5,-30.5 1515.5,-0.5 1389.5,-0.5"/>
<text text-anchor="start" x="1397.5" y="-18.5" font-family="Helvetica,sans-Serif" font-size="10.00">src/hal/x4m0x_s70/xtio</text>
<text text-anchor="middle" x="1452.5" y="-7.5" font-family="Helvetica,sans-Serif" font-size="10.00">_uart.c</text>
</a>
</g>
</g>
<!-- Node3&#45;&gt;Node30 -->
<g id="edge30" class="edge"><title>Node3&#45;&gt;Node30</title>
<path fill="none" stroke="midnightblue" d="M1020.46,-141.578C1143.16,-138.079 1413.88,-127.114 1443.5,-98 1461.27,-80.5358 1458.95,-48.8635 1455.7,-30.5692"/>
<polygon fill="midnightblue" stroke="midnightblue" points="1020.01,-138.089 1010.12,-141.865 1020.21,-145.086 1020.01,-138.089"/>
</g>
<!-- Node31 -->
<g id="node19" class="node"><title>Node31</title>
<g id="a_node19"><a xlink:href="task__hostcom_8c.xhtml" target="_top" xlink:title="src/HostCom/task_hostcom.c">
<polygon fill="white" stroke="black" points="1490.5,-73 1490.5,-92 1648.5,-92 1648.5,-73 1490.5,-73"/>
<text text-anchor="middle" x="1569.5" y="-80" font-family="Helvetica,sans-Serif" font-size="10.00">src/HostCom/task_hostcom.c</text>
</a>
</g>
</g>
<!-- Node3&#45;&gt;Node31 -->
<g id="edge31" class="edge"><title>Node3&#45;&gt;Node31</title>
<path fill="none" stroke="midnightblue" d="M1020.19,-139.113C1116.43,-132.548 1311.78,-118.001 1476.5,-98 1490.29,-96.3258 1505.17,-94.1648 1518.91,-92.0249"/>
<polygon fill="midnightblue" stroke="midnightblue" points="1019.81,-135.63 1010.07,-139.798 1020.28,-142.614 1019.81,-135.63"/>
</g>
<!-- Node32 -->
<g id="node20" class="node"><title>Node32</title>
<g id="a_node20"><a xlink:href="main_8c.xhtml" target="_top" xlink:title="main() function for Radar Application ">
<polygon fill="white" stroke="black" points="1666.5,-73 1666.5,-92 1732.5,-92 1732.5,-73 1666.5,-73"/>
<text text-anchor="middle" x="1699.5" y="-80" font-family="Helvetica,sans-Serif" font-size="10.00">src/main.c</text>
</a>
</g>
</g>
<!-- Node3&#45;&gt;Node32 -->
<g id="edge32" class="edge"><title>Node3&#45;&gt;Node32</title>
<path fill="none" stroke="midnightblue" d="M1020.39,-141.193C1166.16,-136.462 1536.33,-122.367 1657.5,-98 1664.46,-96.6009 1671.84,-94.3347 1678.44,-92.0053"/>
<polygon fill="midnightblue" stroke="midnightblue" points="1020.17,-137.698 1010.29,-141.517 1020.39,-144.694 1020.17,-137.698"/>
</g>
<!-- Node33 -->
<g id="node21" class="node"><title>Node33</title>
<g id="a_node21"><a xlink:href="task__monitor_8c.xhtml" target="_top" xlink:title="src/System/task_monitor.c">
<polygon fill="white" stroke="black" points="1750.5,-73 1750.5,-92 1894.5,-92 1894.5,-73 1750.5,-73"/>
<text text-anchor="middle" x="1822.5" y="-80" font-family="Helvetica,sans-Serif" font-size="10.00">src/System/task_monitor.c</text>
</a>
</g>
</g>
<!-- Node3&#45;&gt;Node33 -->
<g id="edge33" class="edge"><title>Node3&#45;&gt;Node33</title>
<path fill="none" stroke="midnightblue" d="M1020.24,-141.991C1151.27,-139.246 1473.6,-129.582 1741.5,-98 1754.13,-96.5114 1767.76,-94.3053 1780.18,-92.0605"/>
<polygon fill="midnightblue" stroke="midnightblue" points="1019.95,-138.496 1010.02,-142.199 1020.09,-145.495 1019.95,-138.496"/>
</g>
<!-- Node34 -->
<g id="node22" class="node"><title>Node34</title>
<g id="a_node22"><a xlink:href="module__ui_8c.xhtml" target="_top" xlink:title="src/XEPA/module_ui.c">
<polygon fill="white" stroke="black" points="1913,-73 1913,-92 2032,-92 2032,-73 1913,-73"/>
<text text-anchor="middle" x="1972.5" y="-80" font-family="Helvetica,sans-Serif" font-size="10.00">src/XEPA/module_ui.c</text>
</a>
</g>
</g>
<!-- Node3&#45;&gt;Node34 -->
<g id="edge34" class="edge"><title>Node3&#45;&gt;Node34</title>
<path fill="none" stroke="midnightblue" d="M1020.41,-143.443C1170.03,-143.834 1571.88,-140.48 1903.5,-98 1914.55,-96.5846 1926.46,-94.3433 1937.23,-92.0421"/>
<polygon fill="midnightblue" stroke="midnightblue" points="1020.09,-139.942 1010.08,-143.409 1020.07,-146.942 1020.09,-139.942"/>
</g>
<!-- Node15 -->
<g id="node23" class="node"><title>Node15</title>
<g id="a_node23"><a xlink:href="xep__application__mcp__callbacks_8c.xhtml" target="_top" xlink:title="src/XEPA/xep_application\l_mcp_callbacks.c">
<polygon fill="white" stroke="black" points="2050,-67.5 2050,-97.5 2185,-97.5 2185,-67.5 2050,-67.5"/>
<text text-anchor="start" x="2058" y="-85.5" font-family="Helvetica,sans-Serif" font-size="10.00">src/XEPA/xep_application</text>
<text text-anchor="middle" x="2117.5" y="-74.5" font-family="Helvetica,sans-Serif" font-size="10.00">_mcp_callbacks.c</text>
</a>
</g>
</g>
<!-- Node3&#45;&gt;Node15 -->
<g id="edge35" class="edge"><title>Node3&#45;&gt;Node15</title>
<path fill="none" stroke="midnightblue" d="M1020.64,-143.586C1184.84,-144.519 1654.42,-142.737 2041.5,-98 2044.17,-97.6916 2046.88,-97.3428 2049.62,-96.9619"/>
<polygon fill="midnightblue" stroke="midnightblue" points="1020.29,-140.083 1010.27,-143.521 1020.24,-147.083 1020.29,-140.083"/>
</g>
<!-- Node5&#45;&gt;Node6 -->
<g id="edge3" class="edge"><title>Node5&#45;&gt;Node6</title>
<path fill="none" stroke="midnightblue" d="M191.5,-62.537C191.5,-50.1703 191.5,-34.6198 191.5,-25.1273"/>
<polygon fill="midnightblue" stroke="midnightblue" points="188,-62.7338 191.5,-72.7338 195,-62.7338 188,-62.7338"/>
</g>
<!-- Node8&#45;&gt;Node10 -->
<g id="edge6" class="edge"><title>Node8&#45;&gt;Node10</title>
<path fill="none" stroke="midnightblue" d="M479.903,-68.9127C506.488,-57.9062 545.048,-41.9418 572.617,-30.5281"/>
<polygon fill="midnightblue" stroke="midnightblue" points="478.249,-65.8094 470.348,-72.8685 480.927,-72.277 478.249,-65.8094"/>
</g>
<!-- Node8&#45;&gt;Node18 -->
<g id="edge7" class="edge"><title>Node8&#45;&gt;Node18</title>
<path fill="none" stroke="midnightblue" d="M451.52,-62.7386C452.624,-52.4873 453.969,-40.0011 454.983,-30.589"/>
<polygon fill="midnightblue" stroke="midnightblue" points="448.035,-62.4165 450.444,-72.7338 454.995,-63.1661 448.035,-62.4165"/>
</g>
<!-- Node8&#45;&gt;Node11 -->
<g id="edge8" class="edge"><title>Node8&#45;&gt;Node11</title>
<path fill="none" stroke="midnightblue" d="M423.386,-68.3419C401.671,-57.4 370.831,-41.8604 348.586,-30.6516"/>
<polygon fill="midnightblue" stroke="midnightblue" points="421.864,-71.4943 432.37,-72.8685 425.014,-65.243 421.864,-71.4943"/>
</g>
<!-- Node8&#45;&gt;Node19 -->
<g id="edge9" class="edge"><title>Node8&#45;&gt;Node19</title>
<path fill="none" stroke="midnightblue" d="M500.664,-70.8408C554.766,-59.5696 640.182,-41.7746 698.418,-29.6422"/>
<polygon fill="midnightblue" stroke="midnightblue" points="499.685,-67.4695 490.609,-72.9355 501.113,-74.3224 499.685,-67.4695"/>
</g>
<!-- Node22&#45;&gt;Node10 -->
<g id="edge12" class="edge"><title>Node22&#45;&gt;Node10</title>
<path fill="none" stroke="midnightblue" d="M737.184,-63.9553C708.35,-53.4847 672.222,-40.3656 645.265,-30.5765"/>
<polygon fill="midnightblue" stroke="midnightblue" points="736.066,-67.2725 746.66,-67.396 738.455,-60.6929 736.066,-67.2725"/>
</g>
<!-- Node22&#45;&gt;Node18 -->
<g id="edge14" class="edge"><title>Node22&#45;&gt;Node18</title>
<path fill="none" stroke="midnightblue" d="M712.411,-66.7881C639.066,-52.2109 565.581,-37.8019 515.72,-28.0546"/>
<polygon fill="midnightblue" stroke="midnightblue" points="711.797,-70.2344 722.287,-68.7522 713.162,-63.3688 711.797,-70.2344"/>
</g>
<!-- Node22&#45;&gt;Node19 -->
<g id="edge15" class="edge"><title>Node22&#45;&gt;Node19</title>
<path fill="none" stroke="midnightblue" d="M776.82,-57.9907C773.428,-48.8044 769.652,-38.5781 766.697,-30.5765"/>
<polygon fill="midnightblue" stroke="midnightblue" points="773.545,-59.2273 780.292,-67.396 780.112,-56.8027 773.545,-59.2273"/>
</g>
<!-- Node22&#45;&gt;Node23 -->
<g id="edge13" class="edge"><title>Node22&#45;&gt;Node23</title>
<path fill="none" stroke="midnightblue" d="M822.507,-62.8533C842.903,-52.5761 867.812,-40.0252 886.564,-30.5765"/>
<polygon fill="midnightblue" stroke="midnightblue" points="820.847,-59.7705 813.491,-67.396 823.996,-66.0217 820.847,-59.7705"/>
</g>
<!-- Node24&#45;&gt;Node10 -->
<g id="edge17" class="edge"><title>Node24&#45;&gt;Node10</title>
<path fill="none" stroke="midnightblue" d="M629.156,-58.5756C624.13,-49.2406 618.48,-38.7483 614.08,-30.5765"/>
<polygon fill="midnightblue" stroke="midnightblue" points="626.083,-60.2506 633.906,-67.396 632.246,-56.9319 626.083,-60.2506"/>
</g>
<!-- Node25&#45;&gt;Node26 -->
<g id="edge19" class="edge"><title>Node25&#45;&gt;Node26</title>
<path fill="none" stroke="midnightblue" d="M1030.61,-60.8832C1042.16,-51.0054 1055.69,-39.4293 1066.04,-30.5765"/>
<polygon fill="midnightblue" stroke="midnightblue" points="1028.32,-58.2364 1022.99,-67.396 1032.87,-63.5561 1028.32,-58.2364"/>
</g>
<!-- Node29&#45;&gt;Node28 -->
<g id="edge27" class="edge"><title>Node29&#45;&gt;Node28</title>
<path fill="none" stroke="midnightblue" d="M1345.85,-61.1677C1333.31,-51.2283 1318.53,-39.5144 1307.26,-30.5765"/>
<polygon fill="midnightblue" stroke="midnightblue" points="1343.7,-63.9268 1353.71,-67.396 1348.04,-58.4412 1343.7,-63.9268"/>
</g>
<!-- Node29&#45;&gt;Node30 -->
<g id="edge28" class="edge"><title>Node29&#45;&gt;Node30</title>
<path fill="none" stroke="midnightblue" d="M1397.19,-60.8832C1409.5,-51.0054 1423.93,-39.4293 1434.96,-30.5765"/>
<polygon fill="midnightblue" stroke="midnightblue" points="1394.68,-58.4075 1389.08,-67.396 1399.07,-63.867 1394.68,-58.4075"/>
</g>
</g>
</svg>
