<?xml version="1.0" encoding="UTF-8" standalone="no"?>
<!DOCTYPE svg PUBLIC "-//W3C//DTD SVG 1.1//EN"
 "http://www.w3.org/Graphics/SVG/1.1/DTD/svg11.dtd">
<!-- Generated by graphviz version 2.38.0 (20140413.2041)
 -->
<!-- Title: include/xep_dispatch_messages.h Pages: 1 -->
<svg width="782pt" height="106pt"
 viewBox="0.00 0.00 781.50 106.00" xmlns="http://www.w3.org/2000/svg" xmlns:xlink="http://www.w3.org/1999/xlink">
<g id="graph0" class="graph" transform="scale(1 1) rotate(0) translate(4 102)">
<title>include/xep_dispatch_messages.h</title>
<polygon fill="white" stroke="none" points="-4,4 -4,-102 777.5,-102 777.5,4 -4,4"/>
<!-- Node5 -->
<g id="node1" class="node"><title>Node5</title>
<polygon fill="#bfbfbf" stroke="black" points="340,-67.5 340,-97.5 456,-97.5 456,-67.5 340,-67.5"/>
<text text-anchor="start" x="348" y="-85.5" font-family="Helvetica,sans-Serif" font-size="10.00">include/xep_dispatch</text>
<text text-anchor="middle" x="398" y="-74.5" font-family="Helvetica,sans-Serif" font-size="10.00">_messages.h</text>
</g>
<!-- Node6 -->
<g id="node2" class="node"><title>Node6</title>
<g id="a_node2"><a xlink:href="xep__dispatch__messages_8c.xhtml" target="_top" xlink:title="src/Dispatch/xep_dispatch\l_messages.c">
<polygon fill="white" stroke="black" points="0,-0.5 0,-30.5 142,-30.5 142,-0.5 0,-0.5"/>
<text text-anchor="start" x="8" y="-18.5" font-family="Helvetica,sans-Serif" font-size="10.00">src/Dispatch/xep_dispatch</text>
<text text-anchor="middle" x="71" y="-7.5" font-family="Helvetica,sans-Serif" font-size="10.00">_messages.c</text>
</a>
</g>
</g>
<!-- Node5&#45;&gt;Node6 -->
<g id="edge1" class="edge"><title>Node5&#45;&gt;Node6</title>
<path fill="none" stroke="midnightblue" d="M329.893,-67.962C274.777,-57.0061 197.417,-41.6288 141.635,-30.5406"/>
<polygon fill="midnightblue" stroke="midnightblue" points="329.425,-71.4373 339.916,-69.9542 330.79,-64.5717 329.425,-71.4373"/>
</g>
<!-- Node7 -->
<g id="node3" class="node"><title>Node7</title>
<g id="a_node3"><a xlink:href="task__hostcom_8c.xhtml" target="_top" xlink:title="src/HostCom/task_hostcom.c">
<polygon fill="white" stroke="black" points="160,-6 160,-25 318,-25 318,-6 160,-6"/>
<text text-anchor="middle" x="239" y="-13" font-family="Helvetica,sans-Serif" font-size="10.00">src/HostCom/task_hostcom.c</text>
</a>
</g>
</g>
<!-- Node5&#45;&gt;Node7 -->
<g id="edge2" class="edge"><title>Node5&#45;&gt;Node7</title>
<path fill="none" stroke="midnightblue" d="M353.868,-63.4585C323.148,-50.9001 283.579,-34.724 259.809,-25.007"/>
<polygon fill="midnightblue" stroke="midnightblue" points="352.919,-66.8516 363.499,-67.396 355.567,-60.3721 352.919,-66.8516"/>
</g>
<!-- Node8 -->
<g id="node4" class="node"><title>Node8</title>
<g id="a_node4"><a xlink:href="task__radar_8c.xhtml" target="_top" xlink:title="src/Radar/task_radar.c">
<polygon fill="white" stroke="black" points="336.5,-6 336.5,-25 459.5,-25 459.5,-6 336.5,-6"/>
<text text-anchor="middle" x="398" y="-13" font-family="Helvetica,sans-Serif" font-size="10.00">src/Radar/task_radar.c</text>
</a>
</g>
</g>
<!-- Node5&#45;&gt;Node8 -->
<g id="edge3" class="edge"><title>Node5&#45;&gt;Node8</title>
<path fill="none" stroke="midnightblue" d="M398,-57.2495C398,-46.017 398,-33.3767 398,-25.1945"/>
<polygon fill="midnightblue" stroke="midnightblue" points="394.5,-57.3959 398,-67.396 401.5,-57.396 394.5,-57.3959"/>
</g>
<!-- Node9 -->
<g id="node5" class="node"><title>Node9</title>
<g id="a_node5"><a xlink:href="xep__application_8c.xhtml" target="_top" xlink:title="src/XEPA/xep_application.c">
<polygon fill="white" stroke="black" points="477.5,-6 477.5,-25 620.5,-25 620.5,-6 477.5,-6"/>
<text text-anchor="middle" x="549" y="-13" font-family="Helvetica,sans-Serif" font-size="10.00">src/XEPA/xep_application.c</text>
</a>
</g>
</g>
<!-- Node5&#45;&gt;Node9 -->
<g id="edge4" class="edge"><title>Node5&#45;&gt;Node9</title>
<path fill="none" stroke="midnightblue" d="M440.291,-63.2952C469.411,-50.7602 506.762,-34.682 529.238,-25.007"/>
<polygon fill="midnightblue" stroke="midnightblue" points="438.566,-60.2272 430.765,-67.396 441.334,-66.6568 438.566,-60.2272"/>
</g>
<!-- Node10 -->
<g id="node6" class="node"><title>Node10</title>
<g id="a_node6"><a xlink:href="xep__application__mcp__callbacks_8c.xhtml" target="_top" xlink:title="src/XEPA/xep_application\l_mcp_callbacks.c">
<polygon fill="white" stroke="black" points="638.5,-0.5 638.5,-30.5 773.5,-30.5 773.5,-0.5 638.5,-0.5"/>
<text text-anchor="start" x="646.5" y="-18.5" font-family="Helvetica,sans-Serif" font-size="10.00">src/XEPA/xep_application</text>
<text text-anchor="middle" x="706" y="-7.5" font-family="Helvetica,sans-Serif" font-size="10.00">_mcp_callbacks.c</text>
</a>
</g>
</g>
<!-- Node5&#45;&gt;Node10 -->
<g id="edge5" class="edge"><title>Node5&#45;&gt;Node10</title>
<path fill="none" stroke="midnightblue" d="M466.362,-67.073C518.012,-56.1727 588.506,-41.2959 639.656,-30.5011"/>
<polygon fill="midnightblue" stroke="midnightblue" points="465.356,-63.708 456.295,-69.1976 466.802,-70.5572 465.356,-63.708"/>
</g>
</g>
</svg>
