<?xml version="1.0" encoding="UTF-8" standalone="no"?>
<!DOCTYPE svg PUBLIC "-//W3C//DTD SVG 1.1//EN"
 "http://www.w3.org/Graphics/SVG/1.1/DTD/svg11.dtd">
<!-- Generated by graphviz version 2.38.0 (20140413.2041)
 -->
<!-- Title: src/Dispatch/xep_dispatch.c Pages: 1 -->
<svg width="397pt" height="84pt"
 viewBox="0.00 0.00 396.50 84.00" xmlns="http://www.w3.org/2000/svg" xmlns:xlink="http://www.w3.org/1999/xlink">
<g id="graph0" class="graph" transform="scale(1 1) rotate(0) translate(4 80)">
<title>src/Dispatch/xep_dispatch.c</title>
<polygon fill="white" stroke="none" points="-4,4 -4,-80 392.5,-80 392.5,4 -4,4"/>
<!-- Node0 -->
<g id="node1" class="node"><title>Node0</title>
<polygon fill="#bfbfbf" stroke="black" points="149.5,-56.5 149.5,-75.5 299.5,-75.5 299.5,-56.5 149.5,-56.5"/>
<text text-anchor="middle" x="224.5" y="-63.5" font-family="Helvetica,sans-Serif" font-size="10.00">src/Dispatch/xep_dispatch.c</text>
</g>
<!-- Node1 -->
<g id="node2" class="node"><title>Node1</title>
<g id="a_node2"><a xlink:href="xep__dispatch_8h.xhtml" target="_top" xlink:title="xep_dispatch.h">
<polygon fill="white" stroke="red" points="0,-0.5 0,-19.5 89,-19.5 89,-0.5 0,-0.5"/>
<text text-anchor="middle" x="44.5" y="-7.5" font-family="Helvetica,sans-Serif" font-size="10.00">xep_dispatch.h</text>
</a>
</g>
</g>
<!-- Node0&#45;&gt;Node1 -->
<g id="edge1" class="edge"><title>Node0&#45;&gt;Node1</title>
<path fill="none" stroke="midnightblue" d="M195.978,-56.4435C165.434,-47.2801 116.792,-32.6876 82.8973,-22.5192"/>
<polygon fill="midnightblue" stroke="midnightblue" points="83.4721,-19.0376 72.8881,-19.5164 81.4606,-25.7424 83.4721,-19.0376"/>
</g>
<!-- Node5 -->
<g id="node3" class="node"><title>Node5</title>
<polygon fill="white" stroke="#bfbfbf" points="107,-0.5 107,-19.5 178,-19.5 178,-0.5 107,-0.5"/>
<text text-anchor="middle" x="142.5" y="-7.5" font-family="Helvetica,sans-Serif" font-size="10.00">FreeRTOS.h</text>
</g>
<!-- Node0&#45;&gt;Node5 -->
<g id="edge2" class="edge"><title>Node0&#45;&gt;Node5</title>
<path fill="none" stroke="midnightblue" d="M211.325,-56.324C198.653,-47.979 179.267,-35.2122 164.294,-25.3524"/>
<polygon fill="midnightblue" stroke="midnightblue" points="165.919,-22.2313 155.642,-19.6545 162.069,-28.0776 165.919,-22.2313"/>
</g>
<!-- Node6 -->
<g id="node4" class="node"><title>Node6</title>
<polygon fill="white" stroke="#bfbfbf" points="196.5,-0.5 196.5,-19.5 252.5,-19.5 252.5,-0.5 196.5,-0.5"/>
<text text-anchor="middle" x="224.5" y="-7.5" font-family="Helvetica,sans-Serif" font-size="10.00">queue.h</text>
</g>
<!-- Node0&#45;&gt;Node6 -->
<g id="edge3" class="edge"><title>Node0&#45;&gt;Node6</title>
<path fill="none" stroke="midnightblue" d="M224.5,-56.083C224.5,-49.0059 224.5,-38.8611 224.5,-29.9865"/>
<polygon fill="midnightblue" stroke="midnightblue" points="228,-29.751 224.5,-19.7511 221,-29.7511 228,-29.751"/>
</g>
<!-- Node7 -->
<g id="node5" class="node"><title>Node7</title>
<polygon fill="white" stroke="#bfbfbf" points="271,-0.5 271,-19.5 324,-19.5 324,-0.5 271,-0.5"/>
<text text-anchor="middle" x="297.5" y="-7.5" font-family="Helvetica,sans-Serif" font-size="10.00">string.h</text>
</g>
<!-- Node0&#45;&gt;Node7 -->
<g id="edge4" class="edge"><title>Node0&#45;&gt;Node7</title>
<path fill="none" stroke="midnightblue" d="M236.229,-56.324C247.337,-48.1066 264.242,-35.6017 277.483,-25.8069"/>
<polygon fill="midnightblue" stroke="midnightblue" points="279.6,-28.5948 285.558,-19.8339 275.437,-22.9671 279.6,-28.5948"/>
</g>
<!-- Node8 -->
<g id="node6" class="node"><title>Node8</title>
<polygon fill="white" stroke="#bfbfbf" points="342.5,-0.5 342.5,-19.5 388.5,-19.5 388.5,-0.5 342.5,-0.5"/>
<text text-anchor="middle" x="365.5" y="-7.5" font-family="Helvetica,sans-Serif" font-size="10.00">task.h</text>
</g>
<!-- Node0&#45;&gt;Node8 -->
<g id="edge5" class="edge"><title>Node0&#45;&gt;Node8</title>
<path fill="none" stroke="midnightblue" d="M246.842,-56.4435C270.253,-47.4776 307.236,-33.314 333.69,-23.1827"/>
<polygon fill="midnightblue" stroke="midnightblue" points="335.176,-26.3615 343.263,-19.5164 332.672,-19.8245 335.176,-26.3615"/>
</g>
</g>
</svg>
