<?xml version="1.0" encoding="UTF-8" standalone="no"?>
<!DOCTYPE svg PUBLIC "-//W3C//DTD SVG 1.1//EN"
 "http://www.w3.org/Graphics/SVG/1.1/DTD/svg11.dtd">
<!-- Generated by graphviz version 2.38.0 (20140413.2041)
 -->
<!-- Title: onMcpSystemRunTest Pages: 1 -->
<svg width="319pt" height="127pt"
 viewBox="0.00 0.00 319.00 126.50" xmlns="http://www.w3.org/2000/svg" xmlns:xlink="http://www.w3.org/1999/xlink">
<g id="graph0" class="graph" transform="scale(1 1) rotate(0) translate(4 122.5)">
<title>onMcpSystemRunTest</title>
<polygon fill="white" stroke="none" points="-4,4 -4,-122.5 315,-122.5 315,4 -4,4"/>
<!-- Node119 -->
<g id="node1" class="node"><title>Node119</title>
<polygon fill="#bfbfbf" stroke="black" points="0,-55 0,-74 121,-74 121,-55 0,-55"/>
<text text-anchor="middle" x="60.5" y="-62" font-family="Helvetica,sans-Serif" font-size="10.00">onMcpSystemRunTest</text>
</g>
<!-- Node120 -->
<g id="node2" class="node"><title>Node120</title>
<g id="a_node2"><a xlink:href="xep__hal_8h.xhtml#a23a7563c734f3b439d1d26f0598fafe7" target="_top" xlink:title="Performs the specified selftest. ">
<polygon fill="white" stroke="red" points="190.5,-99 190.5,-118 277.5,-118 277.5,-99 190.5,-99"/>
<text text-anchor="middle" x="234" y="-106" font-family="Helvetica,sans-Serif" font-size="10.00">xt_run_selftest</text>
</a>
</g>
</g>
<!-- Node119&#45;&gt;Node120 -->
<g id="edge1" class="edge"><title>Node119&#45;&gt;Node120</title>
<path fill="none" stroke="midnightblue" d="M97.7545,-74.0914C115.587,-78.7835 137.408,-84.4867 157,-89.5 165.902,-91.7779 175.399,-94.1768 184.556,-96.4742"/>
<polygon fill="midnightblue" stroke="midnightblue" points="183.765,-99.8841 194.316,-98.9168 185.465,-93.0936 183.765,-99.8841"/>
</g>
<!-- Node124 -->
<g id="node3" class="node"><title>Node124</title>
<g id="a_node3"><a xlink:href="xep__dispatch__messages_8h.xhtml#a441f9b844c9ffb78cfee8edbdb16717a" target="_top" xlink:title="Dispatch message to hostcom asking to send error to host. ">
<polygon fill="white" stroke="red" points="157,-49.5 157,-79.5 311,-79.5 311,-49.5 157,-49.5"/>
<text text-anchor="start" x="165" y="-67.5" font-family="Helvetica,sans-Serif" font-size="10.00">dispatch_message_hostcom</text>
<text text-anchor="middle" x="234" y="-56.5" font-family="Helvetica,sans-Serif" font-size="10.00">_send_error</text>
</a>
</g>
</g>
<!-- Node119&#45;&gt;Node124 -->
<g id="edge2" class="edge"><title>Node119&#45;&gt;Node124</title>
<path fill="none" stroke="midnightblue" d="M121.001,-64.5C129.345,-64.5 138.057,-64.5 146.774,-64.5"/>
<polygon fill="midnightblue" stroke="midnightblue" points="146.99,-68.0001 156.99,-64.5 146.99,-61.0001 146.99,-68.0001"/>
</g>
<!-- Node133 -->
<g id="node4" class="node"><title>Node133</title>
<g id="a_node4"><a xlink:href="xep__dispatch__messages_8h.xhtml#a66e62c413e7dd74946d0d8c0542ffd82" target="_top" xlink:title="Dispatch message to hostcom asking to send byte array to host. ">
<polygon fill="white" stroke="red" points="157,-0.5 157,-30.5 311,-30.5 311,-0.5 157,-0.5"/>
<text text-anchor="start" x="165" y="-18.5" font-family="Helvetica,sans-Serif" font-size="10.00">dispatch_message_hostcom</text>
<text text-anchor="middle" x="234" y="-7.5" font-family="Helvetica,sans-Serif" font-size="10.00">_send_data_byte</text>
</a>
</g>
</g>
<!-- Node119&#45;&gt;Node133 -->
<g id="edge3" class="edge"><title>Node119&#45;&gt;Node133</title>
<path fill="none" stroke="midnightblue" d="M94.9741,-54.936C116.497,-48.7866 145.125,-40.6072 170.727,-33.2922"/>
<polygon fill="midnightblue" stroke="midnightblue" points="171.717,-36.6496 180.371,-30.537 169.794,-29.9189 171.717,-36.6496"/>
</g>
</g>
</svg>
