<?xml version="1.0" encoding="UTF-8" standalone="no"?>
<!DOCTYPE svg PUBLIC "-//W3C//DTD SVG 1.1//EN"
 "http://www.w3.org/Graphics/SVG/1.1/DTD/svg11.dtd">
<!-- Generated by graphviz version 2.38.0 (20140413.2041)
 -->
<!-- Title: dispatch_message_hostcom_send_appdata_truepresence_movinglist Pages: 1 -->
<svg width="349pt" height="66pt"
 viewBox="0.00 0.00 349.00 66.00" xmlns="http://www.w3.org/2000/svg" xmlns:xlink="http://www.w3.org/1999/xlink">
<g id="graph0" class="graph" transform="scale(1 1) rotate(0) translate(4 62)">
<title>dispatch_message_hostcom_send_appdata_truepresence_movinglist</title>
<polygon fill="white" stroke="none" points="-4,4 -4,-62 345,-62 345,4 -4,4"/>
<!-- Node92 -->
<g id="node1" class="node"><title>Node92</title>
<polygon fill="#bfbfbf" stroke="black" points="0,-8.5 0,-49.5 159,-49.5 159,-8.5 0,-8.5"/>
<text text-anchor="start" x="8" y="-37.5" font-family="Helvetica,sans-Serif" font-size="10.00">dispatch_message_hostcom</text>
<text text-anchor="start" x="8" y="-26.5" font-family="Helvetica,sans-Serif" font-size="10.00">_send_appdata_truepresence</text>
<text text-anchor="middle" x="79.5" y="-15.5" font-family="Helvetica,sans-Serif" font-size="10.00">_movinglist</text>
</g>
<!-- Node93 -->
<g id="node2" class="node"><title>Node93</title>
<g id="a_node2"><a xlink:href="memorypoolset_8h.xhtml#ae218de91b58e51270035d6368667a291" target="_top" xlink:title="Take memory block from automatically chosen pool. ">
<polygon fill="white" stroke="red" points="195,-38.5 195,-57.5 341,-57.5 341,-38.5 195,-38.5"/>
<text text-anchor="middle" x="268" y="-45.5" font-family="Helvetica,sans-Serif" font-size="10.00">memorypoolset_take_auto</text>
</a>
</g>
</g>
<!-- Node92&#45;&gt;Node93 -->
<g id="edge1" class="edge"><title>Node92&#45;&gt;Node93</title>
<path fill="none" stroke="midnightblue" d="M159.052,-37.0026C167.567,-37.8701 176.249,-38.7546 184.805,-39.6263"/>
<polygon fill="midnightblue" stroke="midnightblue" points="184.471,-43.1103 194.774,-40.6419 185.181,-36.1463 184.471,-43.1103"/>
</g>
<!-- Node98 -->
<g id="node3" class="node"><title>Node98</title>
<g id="a_node3"><a xlink:href="xep__dispatch_8h.xhtml#a7bad5694c10b470cac80025bd27f6fa9" target="_top" xlink:title="Send message on dispatcher. ">
<polygon fill="white" stroke="red" points="200.5,-0.5 200.5,-19.5 335.5,-19.5 335.5,-0.5 200.5,-0.5"/>
<text text-anchor="middle" x="268" y="-7.5" font-family="Helvetica,sans-Serif" font-size="10.00">dispatch_send_message</text>
</a>
</g>
</g>
<!-- Node92&#45;&gt;Node98 -->
<g id="edge2" class="edge"><title>Node92&#45;&gt;Node98</title>
<path fill="none" stroke="midnightblue" d="M159.052,-20.9974C169.356,-19.9477 179.904,-18.873 190.179,-17.8263"/>
<polygon fill="midnightblue" stroke="midnightblue" points="190.748,-21.2865 200.342,-16.7909 190.039,-14.3225 190.748,-21.2865"/>
</g>
</g>
</svg>
