<?xml version="1.0" encoding="UTF-8" standalone="no"?>
<!DOCTYPE svg PUBLIC "-//W3C//DTD SVG 1.1//EN"
 "http://www.w3.org/Graphics/SVG/1.1/DTD/svg11.dtd">
<!-- Generated by graphviz version 2.38.0 (20140413.2041)
 -->
<!-- Title: src/hal/x4m0x_s70/xt_selftest.h Pages: 1 -->
<svg width="268pt" height="106pt"
 viewBox="0.00 0.00 267.50 106.00" xmlns="http://www.w3.org/2000/svg" xmlns:xlink="http://www.w3.org/1999/xlink">
<g id="graph0" class="graph" transform="scale(1 1) rotate(0) translate(4 102)">
<title>src/hal/x4m0x_s70/xt_selftest.h</title>
<polygon fill="white" stroke="none" points="-4,4 -4,-102 263.5,-102 263.5,4 -4,4"/>
<!-- Node1 -->
<g id="node1" class="node"><title>Node1</title>
<polygon fill="#bfbfbf" stroke="black" points="71.5,-67.5 71.5,-97.5 189.5,-97.5 189.5,-67.5 71.5,-67.5"/>
<text text-anchor="start" x="79.5" y="-85.5" font-family="Helvetica,sans-Serif" font-size="10.00">src/hal/x4m0x_s70/xt</text>
<text text-anchor="middle" x="130.5" y="-74.5" font-family="Helvetica,sans-Serif" font-size="10.00">_selftest.h</text>
</g>
<!-- Node2 -->
<g id="node2" class="node"><title>Node2</title>
<g id="a_node2"><a xlink:href="hal__board__init_8c.xhtml" target="_top" xlink:title="User board initialization template. ">
<polygon fill="white" stroke="black" points="0,-0.5 0,-30.5 123,-30.5 123,-0.5 0,-0.5"/>
<text text-anchor="start" x="8" y="-18.5" font-family="Helvetica,sans-Serif" font-size="10.00">src/hal/x4m0x_s70/hal</text>
<text text-anchor="middle" x="61.5" y="-7.5" font-family="Helvetica,sans-Serif" font-size="10.00">_board_init.c</text>
</a>
</g>
</g>
<!-- Node1&#45;&gt;Node2 -->
<g id="edge1" class="edge"><title>Node1&#45;&gt;Node2</title>
<path fill="none" stroke="midnightblue" d="M108.008,-60.3115C97.6573,-50.5612 85.6596,-39.259 76.4428,-30.5765"/>
<polygon fill="midnightblue" stroke="midnightblue" points="105.849,-63.0866 115.528,-67.396 110.649,-57.9914 105.849,-63.0866"/>
</g>
<!-- Node3 -->
<g id="node3" class="node"><title>Node3</title>
<g id="a_node3"><a xlink:href="xt__selftest_8c.xhtml" target="_top" xlink:title="src/hal/x4m0x_s70/xt\l_selftest.c">
<polygon fill="white" stroke="black" points="141.5,-0.5 141.5,-30.5 259.5,-30.5 259.5,-0.5 141.5,-0.5"/>
<text text-anchor="start" x="149.5" y="-18.5" font-family="Helvetica,sans-Serif" font-size="10.00">src/hal/x4m0x_s70/xt</text>
<text text-anchor="middle" x="200.5" y="-7.5" font-family="Helvetica,sans-Serif" font-size="10.00">_selftest.c</text>
</a>
</g>
</g>
<!-- Node1&#45;&gt;Node3 -->
<g id="edge2" class="edge"><title>Node1&#45;&gt;Node3</title>
<path fill="none" stroke="midnightblue" d="M153.318,-60.3115C163.819,-50.5612 175.99,-39.259 185.341,-30.5765"/>
<polygon fill="midnightblue" stroke="midnightblue" points="150.635,-58.0266 145.689,-67.396 155.399,-63.1562 150.635,-58.0266"/>
</g>
</g>
</svg>
