<?xml version="1.0" encoding="UTF-8" standalone="no"?>
<!DOCTYPE svg PUBLIC "-//W3C//DTD SVG 1.1//EN"
 "http://www.w3.org/Graphics/SVG/1.1/DTD/svg11.dtd">
<!-- Generated by graphviz version 2.38.0 (20140413.2041)
 -->
<!-- Title: src/hal/x4m0x_s70/xt_system.c Pages: 1 -->
<svg width="135pt" height="207pt"
 viewBox="0.00 0.00 134.50 207.00" xmlns="http://www.w3.org/2000/svg" xmlns:xlink="http://www.w3.org/1999/xlink">
<g id="graph0" class="graph" transform="scale(1 1) rotate(0) translate(4 203)">
<title>src/hal/x4m0x_s70/xt_system.c</title>
<polygon fill="white" stroke="none" points="-4,4 -4,-203 130.5,-203 130.5,4 -4,4"/>
<!-- Node0 -->
<g id="node1" class="node"><title>Node0</title>
<polygon fill="#bfbfbf" stroke="black" points="8.5,-168.5 8.5,-198.5 126.5,-198.5 126.5,-168.5 8.5,-168.5"/>
<text text-anchor="start" x="16.5" y="-186.5" font-family="Helvetica,sans-Serif" font-size="10.00">src/hal/x4m0x_s70/xt</text>
<text text-anchor="middle" x="67.5" y="-175.5" font-family="Helvetica,sans-Serif" font-size="10.00">_system.c</text>
</g>
<!-- Node1 -->
<g id="node2" class="node"><title>Node1</title>
<g id="a_node2"><a xlink:href="asf_8h.xhtml" target="_top" xlink:title="Autogenerated API include file for the Atmel Software Framework (ASF) ">
<polygon fill="white" stroke="red" points="0,-112.5 0,-131.5 39,-131.5 39,-112.5 0,-112.5"/>
<text text-anchor="middle" x="19.5" y="-119.5" font-family="Helvetica,sans-Serif" font-size="10.00">asf.h</text>
</a>
</g>
</g>
<!-- Node0&#45;&gt;Node1 -->
<g id="edge1" class="edge"><title>Node0&#45;&gt;Node1</title>
<path fill="none" stroke="midnightblue" d="M56.1247,-168.399C49.1497,-159.753 40.186,-148.642 32.8722,-139.576"/>
<polygon fill="midnightblue" stroke="midnightblue" points="35.4874,-137.243 26.4844,-131.658 30.0392,-141.638 35.4874,-137.243"/>
</g>
<!-- Node4 -->
<g id="node3" class="node"><title>Node4</title>
<g id="a_node3"><a xlink:href="board_8h.xhtml" target="_top" xlink:title="User board definition template. ">
<polygon fill="white" stroke="red" points="24,-56.5 24,-75.5 77,-75.5 77,-56.5 24,-56.5"/>
<text text-anchor="middle" x="50.5" y="-63.5" font-family="Helvetica,sans-Serif" font-size="10.00">board.h</text>
</a>
</g>
</g>
<!-- Node0&#45;&gt;Node4 -->
<g id="edge4" class="edge"><title>Node0&#45;&gt;Node4</title>
<path fill="none" stroke="midnightblue" d="M65.4155,-168.337C62.3525,-147.527 56.6323,-108.663 53.2352,-85.5834"/>
<polygon fill="midnightblue" stroke="midnightblue" points="56.695,-85.0532 51.776,-75.6695 49.7696,-86.0726 56.695,-85.0532"/>
</g>
<!-- Node8 -->
<g id="node4" class="node"><title>Node8</title>
<g id="a_node4"><a xlink:href="xep__hal_8h.xhtml" target="_top" xlink:title="Brief description. ">
<polygon fill="white" stroke="red" points="46.5,-0.5 46.5,-19.5 108.5,-19.5 108.5,-0.5 46.5,-0.5"/>
<text text-anchor="middle" x="77.5" y="-7.5" font-family="Helvetica,sans-Serif" font-size="10.00">xep_hal.h</text>
</a>
</g>
</g>
<!-- Node0&#45;&gt;Node8 -->
<g id="edge5" class="edge"><title>Node0&#45;&gt;Node8</title>
<path fill="none" stroke="midnightblue" d="M71.7177,-168.14C78.0998,-144.738 89.1055,-96.8799 85.5,-56 84.7236,-47.1966 83.1085,-37.5357 81.5315,-29.4298"/>
<polygon fill="midnightblue" stroke="midnightblue" points="84.9439,-28.648 79.4869,-19.5666 78.0896,-30.0689 84.9439,-28.648"/>
</g>
<!-- Node1&#45;&gt;Node4 -->
<g id="edge2" class="edge"><title>Node1&#45;&gt;Node4</title>
<path fill="none" stroke="midnightblue" d="M24.619,-112.083C28.9075,-104.613 35.1582,-93.7244 40.4423,-84.5199"/>
<polygon fill="midnightblue" stroke="midnightblue" points="43.5329,-86.1662 45.4762,-75.7511 37.4621,-82.6811 43.5329,-86.1662"/>
</g>
<!-- Node4&#45;&gt;Node8 -->
<g id="edge3" class="edge"><title>Node4&#45;&gt;Node8</title>
<path fill="none" stroke="midnightblue" d="M54.9585,-56.083C58.6543,-48.6913 64.0234,-37.9533 68.5945,-28.8111"/>
<polygon fill="midnightblue" stroke="midnightblue" points="71.7828,-30.2606 73.1245,-19.7511 65.5218,-27.1301 71.7828,-30.2606"/>
</g>
</g>
</svg>
