<?xml version="1.0" encoding="UTF-8" standalone="no"?>
<!DOCTYPE svg PUBLIC "-//W3C//DTD SVG 1.1//EN"
 "http://www.w3.org/Graphics/SVG/1.1/DTD/svg11.dtd">
<!-- Generated by graphviz version 2.38.0 (20140413.2041)
 -->
<!-- Title: xt_wait Pages: 1 -->
<svg width="219pt" height="66pt"
 viewBox="0.00 0.00 219.00 66.00" xmlns="http://www.w3.org/2000/svg" xmlns:xlink="http://www.w3.org/1999/xlink">
<g id="graph0" class="graph" transform="scale(1 1) rotate(0) translate(4 62)">
<title>xt_wait</title>
<polygon fill="white" stroke="none" points="-4,4 -4,-62 215,-62 215,4 -4,4"/>
<!-- Node109 -->
<g id="node1" class="node"><title>Node109</title>
<polygon fill="#bfbfbf" stroke="black" points="0,-19.5 0,-38.5 50,-38.5 50,-19.5 0,-19.5"/>
<text text-anchor="middle" x="25" y="-26.5" font-family="Helvetica,sans-Serif" font-size="10.00">xt_wait</text>
</g>
<!-- Node110 -->
<g id="node2" class="node"><title>Node110</title>
<g id="a_node2"><a xlink:href="xep__application__mcp__callbacks_8h.xhtml#af7cff88ca2e2e7bf89b8616a868e2cda" target="_top" xlink:title="onMcpModuleReset">
<polygon fill="white" stroke="red" points="94,-38.5 94,-57.5 203,-57.5 203,-38.5 94,-38.5"/>
<text text-anchor="middle" x="148.5" y="-45.5" font-family="Helvetica,sans-Serif" font-size="10.00">onMcpModuleReset</text>
</a>
</g>
</g>
<!-- Node109&#45;&gt;Node110 -->
<g id="edge1" class="edge"><title>Node109&#45;&gt;Node110</title>
<path fill="none" stroke="midnightblue" d="M60.0143,-34.3191C70.5316,-35.9638 82.3843,-37.8173 93.8906,-39.6166"/>
<polygon fill="midnightblue" stroke="midnightblue" points="60.4252,-30.8409 50.0045,-32.7538 59.3436,-37.7569 60.4252,-30.8409"/>
</g>
<!-- Node114 -->
<g id="node3" class="node"><title>Node114</title>
<g id="a_node3"><a xlink:href="xep__application__mcp__callbacks_8h.xhtml#a8f52f6e72bd93b3a11b2c922730ee484" target="_top" xlink:title="onMcpStartBootloader">
<polygon fill="white" stroke="red" points="86,-0.5 86,-19.5 211,-19.5 211,-0.5 86,-0.5"/>
<text text-anchor="middle" x="148.5" y="-7.5" font-family="Helvetica,sans-Serif" font-size="10.00">onMcpStartBootloader</text>
</a>
</g>
</g>
<!-- Node109&#45;&gt;Node114 -->
<g id="edge2" class="edge"><title>Node109&#45;&gt;Node114</title>
<path fill="none" stroke="midnightblue" d="M59.9962,-23.6837C68.2839,-22.3877 77.4016,-20.9619 86.5261,-19.535"/>
<polygon fill="midnightblue" stroke="midnightblue" points="59.3436,-20.2431 50.0045,-25.2462 60.4252,-27.1591 59.3436,-20.2431"/>
</g>
</g>
</svg>
