<?xml version="1.0" encoding="UTF-8" standalone="no"?>
<!DOCTYPE svg PUBLIC "-//W3C//DTD SVG 1.1//EN"
 "http://www.w3.org/Graphics/SVG/1.1/DTD/svg11.dtd">
<!-- Generated by graphviz version 2.38.0 (20140413.2041)
 -->
<!-- Title: src/hal/x4m0x_s70/xt_selftest.c Pages: 1 -->
<svg width="268pt" height="151pt"
 viewBox="0.00 0.00 267.68 151.00" xmlns="http://www.w3.org/2000/svg" xmlns:xlink="http://www.w3.org/1999/xlink">
<g id="graph0" class="graph" transform="scale(1 1) rotate(0) translate(4 147)">
<title>src/hal/x4m0x_s70/xt_selftest.c</title>
<polygon fill="white" stroke="none" points="-4,4 -4,-147 263.68,-147 263.68,4 -4,4"/>
<!-- Node0 -->
<g id="node1" class="node"><title>Node0</title>
<polygon fill="#bfbfbf" stroke="black" points="23.1797,-112.5 23.1797,-142.5 141.18,-142.5 141.18,-112.5 23.1797,-112.5"/>
<text text-anchor="start" x="31.1797" y="-130.5" font-family="Helvetica,sans-Serif" font-size="10.00">src/hal/x4m0x_s70/xt</text>
<text text-anchor="middle" x="82.1797" y="-119.5" font-family="Helvetica,sans-Serif" font-size="10.00">_selftest.c</text>
</g>
<!-- Node1 -->
<g id="node2" class="node"><title>Node1</title>
<g id="a_node2"><a xlink:href="xep__hal_8h.xhtml" target="_top" xlink:title="Brief description. ">
<polygon fill="white" stroke="red" points="8.17975,-0.5 8.17975,-19.5 70.1797,-19.5 70.1797,-0.5 8.17975,-0.5"/>
<text text-anchor="middle" x="39.1797" y="-7.5" font-family="Helvetica,sans-Serif" font-size="10.00">xep_hal.h</text>
</a>
</g>
</g>
<!-- Node0&#45;&gt;Node1 -->
<g id="edge1" class="edge"><title>Node0&#45;&gt;Node1</title>
<path fill="none" stroke="midnightblue" d="M44.8657,-112.359C29.0263,-104.277 12.1711,-92.4191 3.17975,-76 -6.03969,-59.1644 7.62039,-39.9404 20.6778,-26.7921"/>
<polygon fill="midnightblue" stroke="midnightblue" points="23.2168,-29.2093 28.1186,-19.8166 18.4293,-24.1024 23.2168,-29.2093"/>
</g>
<!-- Node4 -->
<g id="node3" class="node"><title>Node4</title>
<g id="a_node3"><a xlink:href="board_8h.xhtml" target="_top" xlink:title="User board definition template. ">
<polygon fill="white" stroke="red" points="12.6797,-56.5 12.6797,-75.5 65.6797,-75.5 65.6797,-56.5 12.6797,-56.5"/>
<text text-anchor="middle" x="39.1797" y="-63.5" font-family="Helvetica,sans-Serif" font-size="10.00">board.h</text>
</a>
</g>
</g>
<!-- Node0&#45;&gt;Node4 -->
<g id="edge2" class="edge"><title>Node0&#45;&gt;Node4</title>
<path fill="none" stroke="midnightblue" d="M71.9893,-112.399C65.8054,-103.842 57.8763,-92.8708 51.3621,-83.857"/>
<polygon fill="midnightblue" stroke="midnightblue" points="54.1308,-81.7127 45.4366,-75.6578 48.4573,-85.8129 54.1308,-81.7127"/>
</g>
<!-- Node8 -->
<g id="node4" class="node"><title>Node8</title>
<g id="a_node4"><a xlink:href="xtio__extram_8h.xhtml" target="_top" xlink:title="Local header file for xtio functions. ">
<polygon fill="white" stroke="red" points="83.6797,-56.5 83.6797,-75.5 166.68,-75.5 166.68,-56.5 83.6797,-56.5"/>
<text text-anchor="middle" x="125.18" y="-63.5" font-family="Helvetica,sans-Serif" font-size="10.00">xtio_extram.h</text>
</a>
</g>
</g>
<!-- Node0&#45;&gt;Node8 -->
<g id="edge4" class="edge"><title>Node0&#45;&gt;Node8</title>
<path fill="none" stroke="midnightblue" d="M92.3701,-112.399C98.5541,-103.842 106.483,-92.8708 112.997,-83.857"/>
<polygon fill="midnightblue" stroke="midnightblue" points="115.902,-85.8129 118.923,-75.6578 110.229,-81.7127 115.902,-85.8129"/>
</g>
<!-- Node10 -->
<g id="node5" class="node"><title>Node10</title>
<g id="a_node5"><a xlink:href="xt__selftest_8h.xhtml" target="_top" xlink:title="xt_selftest.h">
<polygon fill="white" stroke="black" points="184.68,-56.5 184.68,-75.5 259.68,-75.5 259.68,-56.5 184.68,-56.5"/>
<text text-anchor="middle" x="222.18" y="-63.5" font-family="Helvetica,sans-Serif" font-size="10.00">xt_selftest.h</text>
</a>
</g>
</g>
<!-- Node0&#45;&gt;Node10 -->
<g id="edge6" class="edge"><title>Node0&#45;&gt;Node10</title>
<path fill="none" stroke="midnightblue" d="M115.358,-112.399C138.743,-102.461 169.792,-89.2649 192.386,-79.6625"/>
<polygon fill="midnightblue" stroke="midnightblue" points="193.974,-82.7904 201.809,-75.6578 191.236,-76.3481 193.974,-82.7904"/>
</g>
<!-- Node4&#45;&gt;Node1 -->
<g id="edge3" class="edge"><title>Node4&#45;&gt;Node1</title>
<path fill="none" stroke="midnightblue" d="M39.1797,-56.083C39.1797,-49.0059 39.1797,-38.8611 39.1797,-29.9865"/>
<polygon fill="midnightblue" stroke="midnightblue" points="42.6798,-29.751 39.1797,-19.7511 35.6798,-29.7511 42.6798,-29.751"/>
</g>
<!-- Node8&#45;&gt;Node1 -->
<g id="edge5" class="edge"><title>Node8&#45;&gt;Node1</title>
<path fill="none" stroke="midnightblue" d="M111.362,-56.324C97.9468,-47.9002 77.3556,-34.9709 61.5941,-25.0741"/>
<polygon fill="midnightblue" stroke="midnightblue" points="63.293,-22.0081 52.9628,-19.6545 59.5706,-27.9364 63.293,-22.0081"/>
</g>
</g>
</svg>
