<?xml version="1.0" encoding="UTF-8" standalone="no"?>
<!DOCTYPE svg PUBLIC "-//W3C//DTD SVG 1.1//EN"
 "http://www.w3.org/Graphics/SVG/1.1/DTD/svg11.dtd">
<!-- Generated by graphviz version 2.38.0 (20140413.2041)
 -->
<!-- Title: xt_software_reset Pages: 1 -->
<svg width="301pt" height="408pt"
 viewBox="0.00 0.00 301.00 408.00" xmlns="http://www.w3.org/2000/svg" xmlns:xlink="http://www.w3.org/1999/xlink">
<g id="graph0" class="graph" transform="scale(1 1) rotate(0) translate(4 404)">
<title>xt_software_reset</title>
<polygon fill="white" stroke="none" points="-4,4 -4,-404 297,-404 297,4 -4,4"/>
<!-- Node63 -->
<g id="node1" class="node"><title>Node63</title>
<polygon fill="#bfbfbf" stroke="black" points="0,-190.5 0,-209.5 101,-209.5 101,-190.5 0,-190.5"/>
<text text-anchor="middle" x="50.5" y="-197.5" font-family="Helvetica,sans-Serif" font-size="10.00">xt_software_reset</text>
</g>
<!-- Node64 -->
<g id="node2" class="node"><title>Node64</title>
<g id="a_node2"><a xlink:href="_free_r_t_o_s__hooks_8h.xhtml#ab7e5c95cf72a3f819bc4462a7fb62ca3" target="_top" xlink:title="vApplicationMallocFailedHook">
<polygon fill="white" stroke="red" points="137,-380.5 137,-399.5 293,-399.5 293,-380.5 137,-380.5"/>
<text text-anchor="middle" x="215" y="-387.5" font-family="Helvetica,sans-Serif" font-size="10.00">vApplicationMallocFailedHook</text>
</a>
</g>
</g>
<!-- Node63&#45;&gt;Node64 -->
<g id="edge1" class="edge"><title>Node63&#45;&gt;Node64</title>
<path fill="none" stroke="midnightblue" d="M55.6211,-219.65C64.1909,-255.471 87.4109,-331.345 137,-371 141.839,-374.87 147.356,-377.966 153.163,-380.441"/>
<polygon fill="midnightblue" stroke="midnightblue" points="58.952,-218.509 53.3387,-209.523 52.1233,-220.048 58.952,-218.509"/>
</g>
<!-- Node92 -->
<g id="node3" class="node"><title>Node92</title>
<g id="a_node3"><a xlink:href="x4m0x__s70_2xtio__gpio_8c.xhtml#a4ed9b32000d3b15c46ffd748f32ed44d" target="_top" xlink:title="Dummy_Handler">
<polygon fill="white" stroke="red" points="166,-342.5 166,-361.5 264,-361.5 264,-342.5 166,-342.5"/>
<text text-anchor="middle" x="215" y="-349.5" font-family="Helvetica,sans-Serif" font-size="10.00">Dummy_Handler</text>
</a>
</g>
</g>
<!-- Node63&#45;&gt;Node92 -->
<g id="edge2" class="edge"><title>Node63&#45;&gt;Node92</title>
<path fill="none" stroke="midnightblue" d="M58.504,-219.352C70.1249,-248.63 96.2305,-303.852 137,-333 145.513,-339.086 155.757,-343.233 165.955,-346.056"/>
<polygon fill="midnightblue" stroke="midnightblue" points="61.7091,-217.934 54.8776,-209.836 55.1679,-220.427 61.7091,-217.934"/>
</g>
<!-- Node98 -->
<g id="node4" class="node"><title>Node98</title>
<g id="a_node4"><a xlink:href="xt__mcu__handlers_8c.xhtml#a6ad7a5e3ee69cb6db6a6b9111ba898bc" target="_top" xlink:title="NMI_Handler">
<polygon fill="white" stroke="black" points="176.5,-304.5 176.5,-323.5 253.5,-323.5 253.5,-304.5 176.5,-304.5"/>
<text text-anchor="middle" x="215" y="-311.5" font-family="Helvetica,sans-Serif" font-size="10.00">NMI_Handler</text>
</a>
</g>
</g>
<!-- Node63&#45;&gt;Node98 -->
<g id="edge3" class="edge"><title>Node63&#45;&gt;Node98</title>
<path fill="none" stroke="midnightblue" d="M62.8221,-218.114C77.3238,-239.77 104.505,-275.524 137,-295 148.81,-302.079 163.143,-306.526 176.225,-309.318"/>
<polygon fill="midnightblue" stroke="midnightblue" points="65.6244,-216.003 57.241,-209.525 59.7546,-219.817 65.6244,-216.003"/>
</g>
<!-- Node99 -->
<g id="node5" class="node"><title>Node99</title>
<g id="a_node5"><a xlink:href="xt__mcu__handlers_8c.xhtml#a2bffc10d5bd4106753b7c30e86903bea" target="_top" xlink:title="HardFault_Handler">
<polygon fill="white" stroke="black" points="162.5,-266.5 162.5,-285.5 267.5,-285.5 267.5,-266.5 162.5,-266.5"/>
<text text-anchor="middle" x="215" y="-273.5" font-family="Helvetica,sans-Serif" font-size="10.00">HardFault_Handler</text>
</a>
</g>
</g>
<!-- Node63&#45;&gt;Node99 -->
<g id="edge4" class="edge"><title>Node63&#45;&gt;Node99</title>
<path fill="none" stroke="midnightblue" d="M70.7829,-215.708C87.408,-228.526 112.532,-246.221 137,-257 145.568,-260.775 155.018,-263.885 164.275,-266.417"/>
<polygon fill="midnightblue" stroke="midnightblue" points="72.9346,-212.947 62.9123,-209.512 68.6047,-218.447 72.9346,-212.947"/>
</g>
<!-- Node100 -->
<g id="node6" class="node"><title>Node100</title>
<g id="a_node6"><a xlink:href="xt__mcu__handlers_8c.xhtml#a3150f74512510287a942624aa9b44cc5" target="_top" xlink:title="MemManage_Handler">
<polygon fill="white" stroke="black" points="154,-228.5 154,-247.5 276,-247.5 276,-228.5 154,-228.5"/>
<text text-anchor="middle" x="215" y="-235.5" font-family="Helvetica,sans-Serif" font-size="10.00">MemManage_Handler</text>
</a>
</g>
</g>
<!-- Node63&#45;&gt;Node100 -->
<g id="edge5" class="edge"><title>Node63&#45;&gt;Node100</title>
<path fill="none" stroke="midnightblue" d="M102.371,-211.896C125.212,-217.237 151.795,-223.454 173.289,-228.48"/>
<polygon fill="midnightblue" stroke="midnightblue" points="103.04,-208.458 92.5056,-209.589 101.446,-215.274 103.04,-208.458"/>
</g>
<!-- Node101 -->
<g id="node7" class="node"><title>Node101</title>
<g id="a_node7"><a xlink:href="xt__mcu__handlers_8c.xhtml#a850cefb17a977292ae5eb4cafa9976c3" target="_top" xlink:title="BusFault_Handler">
<polygon fill="white" stroke="black" points="165,-190.5 165,-209.5 265,-209.5 265,-190.5 165,-190.5"/>
<text text-anchor="middle" x="215" y="-197.5" font-family="Helvetica,sans-Serif" font-size="10.00">BusFault_Handler</text>
</a>
</g>
</g>
<!-- Node63&#45;&gt;Node101 -->
<g id="edge6" class="edge"><title>Node63&#45;&gt;Node101</title>
<path fill="none" stroke="midnightblue" d="M111.33,-200C128.972,-200 148.064,-200 164.945,-200"/>
<polygon fill="midnightblue" stroke="midnightblue" points="111.138,-196.5 101.138,-200 111.138,-203.5 111.138,-196.5"/>
</g>
<!-- Node102 -->
<g id="node8" class="node"><title>Node102</title>
<g id="a_node8"><a xlink:href="xt__mcu__handlers_8c.xhtml#a1d98923de2ed6b7309b66f9ba2971647" target="_top" xlink:title="UsageFault_Handler">
<polygon fill="white" stroke="black" points="158.5,-152.5 158.5,-171.5 271.5,-171.5 271.5,-152.5 158.5,-152.5"/>
<text text-anchor="middle" x="215" y="-159.5" font-family="Helvetica,sans-Serif" font-size="10.00">UsageFault_Handler</text>
</a>
</g>
</g>
<!-- Node63&#45;&gt;Node102 -->
<g id="edge7" class="edge"><title>Node63&#45;&gt;Node102</title>
<path fill="none" stroke="midnightblue" d="M102.371,-188.104C125.212,-182.763 151.795,-176.546 173.289,-171.52"/>
<polygon fill="midnightblue" stroke="midnightblue" points="101.446,-184.726 92.5056,-190.411 103.04,-191.542 101.446,-184.726"/>
</g>
<!-- Node103 -->
<g id="node9" class="node"><title>Node103</title>
<g id="a_node9"><a xlink:href="xt__mcu__handlers_8c.xhtml#adbdfb05858cc36fc520974df37ec3cb0" target="_top" xlink:title="DebugMon_Handler">
<polygon fill="white" stroke="black" points="159.5,-114.5 159.5,-133.5 270.5,-133.5 270.5,-114.5 159.5,-114.5"/>
<text text-anchor="middle" x="215" y="-121.5" font-family="Helvetica,sans-Serif" font-size="10.00">DebugMon_Handler</text>
</a>
</g>
</g>
<!-- Node63&#45;&gt;Node103 -->
<g id="edge8" class="edge"><title>Node63&#45;&gt;Node103</title>
<path fill="none" stroke="midnightblue" d="M70.7829,-184.292C87.408,-171.474 112.532,-153.779 137,-143 145.568,-139.225 155.018,-136.115 164.275,-133.583"/>
<polygon fill="midnightblue" stroke="midnightblue" points="68.6047,-181.553 62.9123,-190.488 72.9346,-187.053 68.6047,-181.553"/>
</g>
<!-- Node104 -->
<g id="node10" class="node"><title>Node104</title>
<g id="a_node10"><a xlink:href="task__monitor_8c.xhtml#ad45490893a79383d6cd047fa3e4c3638" target="_top" xlink:title="task_monitor">
<polygon fill="white" stroke="red" points="175,-76.5 175,-95.5 255,-95.5 255,-76.5 175,-76.5"/>
<text text-anchor="middle" x="215" y="-83.5" font-family="Helvetica,sans-Serif" font-size="10.00">task_monitor</text>
</a>
</g>
</g>
<!-- Node63&#45;&gt;Node104 -->
<g id="edge9" class="edge"><title>Node63&#45;&gt;Node104</title>
<path fill="none" stroke="midnightblue" d="M62.8221,-181.886C77.3238,-160.23 104.505,-124.476 137,-105 148.338,-98.2046 162,-93.8338 174.65,-91.0249"/>
<polygon fill="midnightblue" stroke="midnightblue" points="59.7546,-180.183 57.241,-190.475 65.6244,-183.997 59.7546,-180.183"/>
</g>
<!-- Node106 -->
<g id="node11" class="node"><title>Node106</title>
<g id="a_node11"><a xlink:href="xep__application__mcp__callbacks_8h.xhtml#af7cff88ca2e2e7bf89b8616a868e2cda" target="_top" xlink:title="onMcpModuleReset">
<polygon fill="white" stroke="red" points="160.5,-38.5 160.5,-57.5 269.5,-57.5 269.5,-38.5 160.5,-38.5"/>
<text text-anchor="middle" x="215" y="-45.5" font-family="Helvetica,sans-Serif" font-size="10.00">onMcpModuleReset</text>
</a>
</g>
</g>
<!-- Node63&#45;&gt;Node106 -->
<g id="edge10" class="edge"><title>Node63&#45;&gt;Node106</title>
<path fill="none" stroke="midnightblue" d="M58.504,-180.648C70.1249,-151.37 96.2305,-96.1482 137,-67 143.944,-62.035 152.042,-58.3605 160.326,-55.6426"/>
<polygon fill="midnightblue" stroke="midnightblue" points="55.1679,-179.573 54.8776,-190.164 61.7091,-182.066 55.1679,-179.573"/>
</g>
<!-- Node107 -->
<g id="node12" class="node"><title>Node107</title>
<g id="a_node12"><a xlink:href="xep__application__mcp__callbacks_8h.xhtml#a8f52f6e72bd93b3a11b2c922730ee484" target="_top" xlink:title="onMcpStartBootloader">
<polygon fill="white" stroke="red" points="152.5,-0.5 152.5,-19.5 277.5,-19.5 277.5,-0.5 152.5,-0.5"/>
<text text-anchor="middle" x="215" y="-7.5" font-family="Helvetica,sans-Serif" font-size="10.00">onMcpStartBootloader</text>
</a>
</g>
</g>
<!-- Node63&#45;&gt;Node107 -->
<g id="edge11" class="edge"><title>Node63&#45;&gt;Node107</title>
<path fill="none" stroke="midnightblue" d="M55.6211,-180.35C64.1909,-144.529 87.4109,-68.6545 137,-29 141.839,-25.1304 147.356,-22.034 153.163,-19.5588"/>
<polygon fill="midnightblue" stroke="midnightblue" points="52.1233,-179.952 53.3387,-190.477 58.952,-181.491 52.1233,-179.952"/>
</g>
</g>
</svg>
