<?xml version="1.0" encoding="UTF-8" standalone="no"?>
<!DOCTYPE svg PUBLIC "-//W3C//DTD SVG 1.1//EN"
 "http://www.w3.org/Graphics/SVG/1.1/DTD/svg11.dtd">
<!-- Generated by graphviz version 2.38.0 (20140413.2041)
 -->
<!-- Title: src/hal/xt_new_delete.cpp Pages: 1 -->
<svg width="322pt" height="84pt"
 viewBox="0.00 0.00 321.50 84.00" xmlns="http://www.w3.org/2000/svg" xmlns:xlink="http://www.w3.org/1999/xlink">
<g id="graph0" class="graph" transform="scale(1 1) rotate(0) translate(4 80)">
<title>src/hal/xt_new_delete.cpp</title>
<polygon fill="white" stroke="none" points="-4,4 -4,-80 317.5,-80 317.5,4 -4,4"/>
<!-- Node0 -->
<g id="node1" class="node"><title>Node0</title>
<polygon fill="#bfbfbf" stroke="black" points="92.5,-56.5 92.5,-75.5 232.5,-75.5 232.5,-56.5 92.5,-56.5"/>
<text text-anchor="middle" x="162.5" y="-63.5" font-family="Helvetica,sans-Serif" font-size="10.00">src/hal/xt_new_delete.cpp</text>
</g>
<!-- Node1 -->
<g id="node2" class="node"><title>Node1</title>
<polygon fill="white" stroke="#bfbfbf" points="0,-0.5 0,-19.5 47,-19.5 47,-0.5 0,-0.5"/>
<text text-anchor="middle" x="23.5" y="-7.5" font-family="Helvetica,sans-Serif" font-size="10.00">cstdlib</text>
</g>
<!-- Node0&#45;&gt;Node1 -->
<g id="edge1" class="edge"><title>Node0&#45;&gt;Node1</title>
<path fill="none" stroke="midnightblue" d="M140.475,-56.4435C117.396,-47.4776 80.938,-33.314 54.8591,-23.1827"/>
<polygon fill="midnightblue" stroke="midnightblue" points="56.0107,-19.8753 45.4219,-19.5164 53.4758,-26.4002 56.0107,-19.8753"/>
</g>
<!-- Node2 -->
<g id="node3" class="node"><title>Node2</title>
<g id="a_node3"><a xlink:href="xt__new__delete_8h.xhtml" target="_top" xlink:title="Overloaded new and delete operators. ">
<polygon fill="white" stroke="black" points="65.5,-0.5 65.5,-19.5 159.5,-19.5 159.5,-0.5 65.5,-0.5"/>
<text text-anchor="middle" x="112.5" y="-7.5" font-family="Helvetica,sans-Serif" font-size="10.00">xt_new_delete.h</text>
</a>
</g>
</g>
<!-- Node0&#45;&gt;Node2 -->
<g id="edge2" class="edge"><title>Node0&#45;&gt;Node2</title>
<path fill="none" stroke="midnightblue" d="M154.244,-56.083C147.035,-48.2982 136.39,-36.8015 127.654,-27.3665"/>
<polygon fill="midnightblue" stroke="midnightblue" points="129.965,-24.7108 120.603,-19.7511 124.829,-29.4666 129.965,-24.7108"/>
</g>
<!-- Node3 -->
<g id="node4" class="node"><title>Node3</title>
<polygon fill="white" stroke="#bfbfbf" points="178,-0.5 178,-19.5 249,-19.5 249,-0.5 178,-0.5"/>
<text text-anchor="middle" x="213.5" y="-7.5" font-family="Helvetica,sans-Serif" font-size="10.00">FreeRTOS.h</text>
</g>
<!-- Node0&#45;&gt;Node3 -->
<g id="edge3" class="edge"><title>Node0&#45;&gt;Node3</title>
<path fill="none" stroke="midnightblue" d="M170.922,-56.083C178.348,-48.2195 189.352,-36.5688 198.312,-27.0813"/>
<polygon fill="midnightblue" stroke="midnightblue" points="200.913,-29.4244 205.235,-19.7511 195.824,-24.618 200.913,-29.4244"/>
</g>
<!-- Node4 -->
<g id="node5" class="node"><title>Node4</title>
<polygon fill="white" stroke="#bfbfbf" points="267.5,-0.5 267.5,-19.5 313.5,-19.5 313.5,-0.5 267.5,-0.5"/>
<text text-anchor="middle" x="290.5" y="-7.5" font-family="Helvetica,sans-Serif" font-size="10.00">task.h</text>
</g>
<!-- Node0&#45;&gt;Node4 -->
<g id="edge4" class="edge"><title>Node0&#45;&gt;Node4</title>
<path fill="none" stroke="midnightblue" d="M182.782,-56.4435C203.847,-47.5566 237.017,-33.5632 260.986,-23.4514"/>
<polygon fill="midnightblue" stroke="midnightblue" points="262.46,-26.6283 270.313,-19.5164 259.739,-20.1787 262.46,-26.6283"/>
</g>
</g>
</svg>
