<?xml version="1.0" encoding="UTF-8" standalone="no"?>
<!DOCTYPE svg PUBLIC "-//W3C//DTD SVG 1.1//EN"
 "http://www.w3.org/Graphics/SVG/1.1/DTD/svg11.dtd">
<!-- Generated by graphviz version 2.38.0 (20140413.2041)
 -->
<!-- Title: src/xtcompiler.h Pages: 1 -->
<svg width="392pt" height="84pt"
 viewBox="0.00 0.00 391.50 84.00" xmlns="http://www.w3.org/2000/svg" xmlns:xlink="http://www.w3.org/1999/xlink">
<g id="graph0" class="graph" transform="scale(1 1) rotate(0) translate(4 80)">
<title>src/xtcompiler.h</title>
<polygon fill="white" stroke="none" points="-4,4 -4,-80 387.5,-80 387.5,4 -4,4"/>
<!-- Node1 -->
<g id="node1" class="node"><title>Node1</title>
<polygon fill="#bfbfbf" stroke="black" points="163,-56.5 163,-75.5 255,-75.5 255,-56.5 163,-56.5"/>
<text text-anchor="middle" x="209" y="-63.5" font-family="Helvetica,sans-Serif" font-size="10.00">src/xtcompiler.h</text>
</g>
<!-- Node2 -->
<g id="node2" class="node"><title>Node2</title>
<g id="a_node2"><a xlink:href="task__hostcom_8c.xhtml" target="_top" xlink:title="src/HostCom/task_hostcom.c">
<polygon fill="white" stroke="black" points="0,-0.5 0,-19.5 158,-19.5 158,-0.5 0,-0.5"/>
<text text-anchor="middle" x="79" y="-7.5" font-family="Helvetica,sans-Serif" font-size="10.00">src/HostCom/task_hostcom.c</text>
</a>
</g>
</g>
<!-- Node1&#45;&gt;Node2 -->
<g id="edge1" class="edge"><title>Node1&#45;&gt;Node2</title>
<path fill="none" stroke="midnightblue" d="M178.915,-52.503C154.543,-42.3795 120.86,-28.388 99.5025,-19.5164"/>
<polygon fill="midnightblue" stroke="midnightblue" points="177.823,-55.8397 188.401,-56.4435 180.509,-49.3752 177.823,-55.8397"/>
</g>
<!-- Node3 -->
<g id="node3" class="node"><title>Node3</title>
<g id="a_node3"><a xlink:href="main_8c.xhtml" target="_top" xlink:title="main() function for Radar Application ">
<polygon fill="white" stroke="black" points="176,-0.5 176,-19.5 242,-19.5 242,-0.5 176,-0.5"/>
<text text-anchor="middle" x="209" y="-7.5" font-family="Helvetica,sans-Serif" font-size="10.00">src/main.c</text>
</a>
</g>
</g>
<!-- Node1&#45;&gt;Node3 -->
<g id="edge2" class="edge"><title>Node1&#45;&gt;Node3</title>
<path fill="none" stroke="midnightblue" d="M209,-45.8045C209,-36.9102 209,-26.7798 209,-19.7511"/>
<polygon fill="midnightblue" stroke="midnightblue" points="205.5,-46.083 209,-56.083 212.5,-46.083 205.5,-46.083"/>
</g>
<!-- Node4 -->
<g id="node4" class="node"><title>Node4</title>
<g id="a_node4"><a xlink:href="task__radar_8c.xhtml" target="_top" xlink:title="src/Radar/task_radar.c">
<polygon fill="white" stroke="black" points="260.5,-0.5 260.5,-19.5 383.5,-19.5 383.5,-0.5 260.5,-0.5"/>
<text text-anchor="middle" x="322" y="-7.5" font-family="Helvetica,sans-Serif" font-size="10.00">src/Radar/task_radar.c</text>
</a>
</g>
</g>
<!-- Node1&#45;&gt;Node4 -->
<g id="edge3" class="edge"><title>Node1&#45;&gt;Node4</title>
<path fill="none" stroke="midnightblue" d="M236.003,-52.096C257.114,-42.0073 285.862,-28.2697 304.179,-19.5164"/>
<polygon fill="midnightblue" stroke="midnightblue" points="234.419,-48.9738 226.905,-56.4435 237.437,-55.2897 234.419,-48.9738"/>
</g>
</g>
</svg>
