<?xml version="1.0" encoding="UTF-8" standalone="no"?>
<!DOCTYPE svg PUBLIC "-//W3C//DTD SVG 1.1//EN"
 "http://www.w3.org/Graphics/SVG/1.1/DTD/svg11.dtd">
<!-- Generated by graphviz version 2.38.0 (20140413.2041)
 -->
<!-- Title: src/hal/x4m0x_s70/xtio_uart.c Pages: 1 -->
<svg width="523pt" height="151pt"
 viewBox="0.00 0.00 522.50 151.00" xmlns="http://www.w3.org/2000/svg" xmlns:xlink="http://www.w3.org/1999/xlink">
<g id="graph0" class="graph" transform="scale(1 1) rotate(0) translate(4 147)">
<title>src/hal/x4m0x_s70/xtio_uart.c</title>
<polygon fill="white" stroke="none" points="-4,4 -4,-147 518.5,-147 518.5,4 -4,4"/>
<!-- Node0 -->
<g id="node1" class="node"><title>Node0</title>
<polygon fill="#bfbfbf" stroke="black" points="136,-112.5 136,-142.5 262,-142.5 262,-112.5 136,-112.5"/>
<text text-anchor="start" x="144" y="-130.5" font-family="Helvetica,sans-Serif" font-size="10.00">src/hal/x4m0x_s70/xtio</text>
<text text-anchor="middle" x="199" y="-119.5" font-family="Helvetica,sans-Serif" font-size="10.00">_uart.c</text>
</g>
<!-- Node1 -->
<g id="node2" class="node"><title>Node1</title>
<g id="a_node2"><a xlink:href="xtio__uart_8h.xhtml" target="_top" xlink:title="Local header file for xtio UART functions. ">
<polygon fill="white" stroke="black" points="103,-56.5 103,-75.5 171,-75.5 171,-56.5 103,-56.5"/>
<text text-anchor="middle" x="137" y="-63.5" font-family="Helvetica,sans-Serif" font-size="10.00">xtio_uart.h</text>
</a>
</g>
</g>
<!-- Node0&#45;&gt;Node1 -->
<g id="edge1" class="edge"><title>Node0&#45;&gt;Node1</title>
<path fill="none" stroke="midnightblue" d="M184.307,-112.399C175.019,-103.486 163.001,-91.9523 153.402,-82.7408"/>
<polygon fill="midnightblue" stroke="midnightblue" points="155.66,-80.0566 146.022,-75.6578 150.813,-85.1072 155.66,-80.0566"/>
</g>
<!-- Node2 -->
<g id="node3" class="node"><title>Node2</title>
<g id="a_node3"><a xlink:href="xep__hal_8h.xhtml" target="_top" xlink:title="Brief description. ">
<polygon fill="white" stroke="red" points="0,-0.5 0,-19.5 62,-19.5 62,-0.5 0,-0.5"/>
<text text-anchor="middle" x="31" y="-7.5" font-family="Helvetica,sans-Serif" font-size="10.00">xep_hal.h</text>
</a>
</g>
</g>
<!-- Node0&#45;&gt;Node2 -->
<g id="edge5" class="edge"><title>Node0&#45;&gt;Node2</title>
<path fill="none" stroke="midnightblue" d="M155.757,-112.42C133.604,-103.956 106.958,-91.7482 86,-76 68.1623,-62.5965 52.2393,-42.4026 42.174,-28.0849"/>
<polygon fill="midnightblue" stroke="midnightblue" points="44.9605,-25.9581 36.4444,-19.6552 39.1711,-29.8932 44.9605,-25.9581"/>
</g>
<!-- Node5 -->
<g id="node4" class="node"><title>Node5</title>
<polygon fill="white" stroke="#bfbfbf" points="80.5,-0.5 80.5,-19.5 151.5,-19.5 151.5,-0.5 80.5,-0.5"/>
<text text-anchor="middle" x="116" y="-7.5" font-family="Helvetica,sans-Serif" font-size="10.00">FreeRTOS.h</text>
</g>
<!-- Node0&#45;&gt;Node5 -->
<g id="edge9" class="edge"><title>Node0&#45;&gt;Node5</title>
<path fill="none" stroke="midnightblue" d="M142.094,-112.401C123.511,-104.805 104.874,-93.296 94,-76 84.6233,-61.0855 93.4199,-41.7131 102.523,-28.0094"/>
<polygon fill="midnightblue" stroke="midnightblue" points="105.619,-29.7027 108.655,-19.5523 99.9515,-25.5938 105.619,-29.7027"/>
</g>
<!-- Node6 -->
<g id="node5" class="node"><title>Node6</title>
<polygon fill="white" stroke="#bfbfbf" points="170,-0.5 170,-19.5 232,-19.5 232,-0.5 170,-0.5"/>
<text text-anchor="middle" x="201" y="-7.5" font-family="Helvetica,sans-Serif" font-size="10.00">semphr.h</text>
</g>
<!-- Node0&#45;&gt;Node6 -->
<g id="edge10" class="edge"><title>Node0&#45;&gt;Node6</title>
<path fill="none" stroke="midnightblue" d="M199.245,-112.337C199.604,-91.6217 200.272,-53.0162 200.673,-29.8991"/>
<polygon fill="midnightblue" stroke="midnightblue" points="204.176,-29.7286 200.85,-19.6695 197.177,-29.6073 204.176,-29.7286"/>
</g>
<!-- Node7 -->
<g id="node6" class="node"><title>Node7</title>
<polygon fill="white" stroke="#bfbfbf" points="227,-56.5 227,-75.5 351,-75.5 351,-56.5 227,-56.5"/>
<text text-anchor="middle" x="289" y="-63.5" font-family="Helvetica,sans-Serif" font-size="10.00">freertos_usart_serial.h</text>
</g>
<!-- Node0&#45;&gt;Node7 -->
<g id="edge6" class="edge"><title>Node0&#45;&gt;Node7</title>
<path fill="none" stroke="midnightblue" d="M220.329,-112.399C234.485,-103.04 253.011,-90.7924 267.253,-81.3771"/>
<polygon fill="midnightblue" stroke="midnightblue" points="269.493,-84.0923 275.904,-75.6578 265.632,-78.2531 269.493,-84.0923"/>
</g>
<!-- Node8 -->
<g id="node7" class="node"><title>Node8</title>
<g id="a_node7"><a xlink:href="xtmemory_8h.xhtml" target="_top" xlink:title="Platform independent mutex mechanism. ">
<polygon fill="white" stroke="red" points="369,-56.5 369,-75.5 443,-75.5 443,-56.5 369,-56.5"/>
<text text-anchor="middle" x="406" y="-63.5" font-family="Helvetica,sans-Serif" font-size="10.00">xtmemory.h</text>
</a>
</g>
</g>
<!-- Node0&#45;&gt;Node8 -->
<g id="edge7" class="edge"><title>Node0&#45;&gt;Node8</title>
<path fill="none" stroke="midnightblue" d="M247.794,-112.475C283.974,-102.075 332.669,-88.0783 366.436,-78.3722"/>
<polygon fill="midnightblue" stroke="midnightblue" points="367.762,-81.6328 376.406,-75.5064 365.829,-74.9052 367.762,-81.6328"/>
</g>
<!-- Node9 -->
<g id="node8" class="node"><title>Node9</title>
<polygon fill="white" stroke="#bfbfbf" points="461.5,-56.5 461.5,-75.5 514.5,-75.5 514.5,-56.5 461.5,-56.5"/>
<text text-anchor="middle" x="488" y="-63.5" font-family="Helvetica,sans-Serif" font-size="10.00">ioport.h</text>
</g>
<!-- Node0&#45;&gt;Node9 -->
<g id="edge8" class="edge"><title>Node0&#45;&gt;Node9</title>
<path fill="none" stroke="midnightblue" d="M262.08,-114.779C311.068,-105.478 380.924,-91.78 451.357,-76.0585"/>
<polygon fill="midnightblue" stroke="midnightblue" points="452.307,-79.4325 461.298,-73.827 450.774,-72.6025 452.307,-79.4325"/>
</g>
<!-- Node1&#45;&gt;Node2 -->
<g id="edge2" class="edge"><title>Node1&#45;&gt;Node2</title>
<path fill="none" stroke="midnightblue" d="M119.969,-56.324C102.97,-47.6641 76.6239,-34.2424 57.0074,-24.249"/>
<polygon fill="midnightblue" stroke="midnightblue" points="58.4876,-21.0752 47.9885,-19.6545 55.3101,-27.3125 58.4876,-21.0752"/>
</g>
<!-- Node1&#45;&gt;Node5 -->
<g id="edge3" class="edge"><title>Node1&#45;&gt;Node5</title>
<path fill="none" stroke="midnightblue" d="M133.532,-56.083C130.688,-48.77 126.571,-38.1814 123.04,-29.1034"/>
<polygon fill="midnightblue" stroke="midnightblue" points="126.29,-27.8025 119.403,-19.7511 119.766,-30.3397 126.29,-27.8025"/>
</g>
<!-- Node1&#45;&gt;Node6 -->
<g id="edge4" class="edge"><title>Node1&#45;&gt;Node6</title>
<path fill="none" stroke="midnightblue" d="M147.283,-56.324C156.836,-48.2631 171.28,-36.0765 182.784,-26.3695"/>
<polygon fill="midnightblue" stroke="midnightblue" points="185.144,-28.9577 190.53,-19.8339 180.63,-23.6076 185.144,-28.9577"/>
</g>
</g>
</svg>
