<?xml version="1.0" encoding="UTF-8" standalone="no"?>
<!DOCTYPE svg PUBLIC "-//W3C//DTD SVG 1.1//EN"
 "http://www.w3.org/Graphics/SVG/1.1/DTD/svg11.dtd">
<!-- Generated by graphviz version 2.38.0 (20140413.2041)
 -->
<!-- Title: src/hal/x4m0x_s70/xtio_extram.h Pages: 1 -->
<svg width="573pt" height="106pt"
 viewBox="0.00 0.00 572.50 106.00" xmlns="http://www.w3.org/2000/svg" xmlns:xlink="http://www.w3.org/1999/xlink">
<g id="graph0" class="graph" transform="scale(1 1) rotate(0) translate(4 102)">
<title>src/hal/x4m0x_s70/xtio_extram.h</title>
<polygon fill="white" stroke="none" points="-4,4 -4,-102 568.5,-102 568.5,4 -4,4"/>
<!-- Node5 -->
<g id="node1" class="node"><title>Node5</title>
<polygon fill="#bfbfbf" stroke="black" points="223.5,-67.5 223.5,-97.5 349.5,-97.5 349.5,-67.5 223.5,-67.5"/>
<text text-anchor="start" x="231.5" y="-85.5" font-family="Helvetica,sans-Serif" font-size="10.00">src/hal/x4m0x_s70/xtio</text>
<text text-anchor="middle" x="286.5" y="-74.5" font-family="Helvetica,sans-Serif" font-size="10.00">_extram.h</text>
</g>
<!-- Node6 -->
<g id="node2" class="node"><title>Node6</title>
<g id="a_node2"><a xlink:href="hal__board__init_8c.xhtml" target="_top" xlink:title="User board initialization template. ">
<polygon fill="white" stroke="black" points="0,-0.5 0,-30.5 123,-30.5 123,-0.5 0,-0.5"/>
<text text-anchor="start" x="8" y="-18.5" font-family="Helvetica,sans-Serif" font-size="10.00">src/hal/x4m0x_s70/hal</text>
<text text-anchor="middle" x="61.5" y="-7.5" font-family="Helvetica,sans-Serif" font-size="10.00">_board_init.c</text>
</a>
</g>
</g>
<!-- Node5&#45;&gt;Node6 -->
<g id="edge1" class="edge"><title>Node5&#45;&gt;Node6</title>
<path fill="none" stroke="midnightblue" d="M227.93,-64.5797C191.386,-54.0225 144.896,-40.5921 110.345,-30.6109"/>
<polygon fill="midnightblue" stroke="midnightblue" points="227.377,-68.063 237.955,-67.476 229.32,-61.338 227.377,-68.063"/>
</g>
<!-- Node7 -->
<g id="node3" class="node"><title>Node7</title>
<g id="a_node3"><a xlink:href="startup__sams70_8c.xhtml" target="_top" xlink:title="Interrupt handler definitions and start up code. ">
<polygon fill="white" stroke="black" points="141,-0.5 141,-30.5 284,-30.5 284,-0.5 141,-0.5"/>
<text text-anchor="start" x="149" y="-18.5" font-family="Helvetica,sans-Serif" font-size="10.00">src/hal/x4m0x_s70/startup</text>
<text text-anchor="middle" x="212.5" y="-7.5" font-family="Helvetica,sans-Serif" font-size="10.00">_sams70.c</text>
</a>
</g>
</g>
<!-- Node5&#45;&gt;Node7 -->
<g id="edge2" class="edge"><title>Node5&#45;&gt;Node7</title>
<path fill="none" stroke="midnightblue" d="M262.704,-60.5978C251.53,-50.7831 238.507,-39.3442 228.526,-30.5765"/>
<polygon fill="midnightblue" stroke="midnightblue" points="260.62,-63.4261 270.443,-67.396 265.24,-58.1669 260.62,-63.4261"/>
</g>
<!-- Node8 -->
<g id="node4" class="node"><title>Node8</title>
<g id="a_node4"><a xlink:href="xt__selftest_8c.xhtml" target="_top" xlink:title="src/hal/x4m0x_s70/xt\l_selftest.c">
<polygon fill="white" stroke="black" points="302.5,-0.5 302.5,-30.5 420.5,-30.5 420.5,-0.5 302.5,-0.5"/>
<text text-anchor="start" x="310.5" y="-18.5" font-family="Helvetica,sans-Serif" font-size="10.00">src/hal/x4m0x_s70/xt</text>
<text text-anchor="middle" x="361.5" y="-7.5" font-family="Helvetica,sans-Serif" font-size="10.00">_selftest.c</text>
</a>
</g>
</g>
<!-- Node5&#45;&gt;Node8 -->
<g id="edge3" class="edge"><title>Node5&#45;&gt;Node8</title>
<path fill="none" stroke="midnightblue" d="M310.618,-60.5978C321.943,-50.7831 335.141,-39.3442 345.258,-30.5765"/>
<polygon fill="midnightblue" stroke="midnightblue" points="308.039,-58.2017 302.774,-67.396 312.623,-63.4915 308.039,-58.2017"/>
</g>
<!-- Node9 -->
<g id="node5" class="node"><title>Node9</title>
<g id="a_node5"><a xlink:href="xtio__extram_8c.xhtml" target="_top" xlink:title="Implementent support for external RAM on boards with Atmel SAM S70 MCU. ">
<polygon fill="white" stroke="black" points="438.5,-0.5 438.5,-30.5 564.5,-30.5 564.5,-0.5 438.5,-0.5"/>
<text text-anchor="start" x="446.5" y="-18.5" font-family="Helvetica,sans-Serif" font-size="10.00">src/hal/x4m0x_s70/xtio</text>
<text text-anchor="middle" x="501.5" y="-7.5" font-family="Helvetica,sans-Serif" font-size="10.00">_extram.c</text>
</a>
</g>
</g>
<!-- Node5&#45;&gt;Node9 -->
<g id="edge4" class="edge"><title>Node5&#45;&gt;Node9</title>
<path fill="none" stroke="midnightblue" d="M342.467,-64.5797C377.387,-54.0225 421.811,-40.5921 454.825,-30.6109"/>
<polygon fill="midnightblue" stroke="midnightblue" points="341.446,-61.2318 332.887,-67.476 343.472,-67.9323 341.446,-61.2318"/>
</g>
</g>
</svg>
