<?xml version="1.0" encoding="UTF-8" standalone="no"?>
<!DOCTYPE svg PUBLIC "-//W3C//DTD SVG 1.1//EN"
 "http://www.w3.org/Graphics/SVG/1.1/DTD/svg11.dtd">
<!-- Generated by graphviz version 2.38.0 (20140413.2041)
 -->
<!-- Title: src/hal/x4m0x_s70/xtio_extram.c Pages: 1 -->
<svg width="504pt" height="151pt"
 viewBox="0.00 0.00 503.93 151.00" xmlns="http://www.w3.org/2000/svg" xmlns:xlink="http://www.w3.org/1999/xlink">
<g id="graph0" class="graph" transform="scale(1 1) rotate(0) translate(4 147)">
<title>src/hal/x4m0x_s70/xtio_extram.c</title>
<polygon fill="white" stroke="none" points="-4,4 -4,-147 499.926,-147 499.926,4 -4,4"/>
<!-- Node0 -->
<g id="node1" class="node"><title>Node0</title>
<polygon fill="#bfbfbf" stroke="black" points="138.426,-112.5 138.426,-142.5 264.426,-142.5 264.426,-112.5 138.426,-112.5"/>
<text text-anchor="start" x="146.426" y="-130.5" font-family="Helvetica,sans-Serif" font-size="10.00">src/hal/x4m0x_s70/xtio</text>
<text text-anchor="middle" x="201.426" y="-119.5" font-family="Helvetica,sans-Serif" font-size="10.00">_extram.c</text>
</g>
<!-- Node1 -->
<g id="node2" class="node"><title>Node1</title>
<polygon fill="white" stroke="#bfbfbf" points="25.4259,-0.5 25.4259,-19.5 65.4259,-19.5 65.4259,-0.5 25.4259,-0.5"/>
<text text-anchor="middle" x="45.4259" y="-7.5" font-family="Helvetica,sans-Serif" font-size="10.00">pio.h</text>
</g>
<!-- Node0&#45;&gt;Node1 -->
<g id="edge1" class="edge"><title>Node0&#45;&gt;Node1</title>
<path fill="none" stroke="midnightblue" d="M138.197,-118.726C87.024,-110.982 20.8494,-97.1646 4.42591,-76 -8.18139,-59.7532 9.25513,-39.5076 25.128,-25.9679"/>
<polygon fill="midnightblue" stroke="midnightblue" points="27.51,-28.544 33.1185,-19.5554 23.1288,-23.0846 27.51,-28.544"/>
</g>
<!-- Node2 -->
<g id="node3" class="node"><title>Node2</title>
<polygon fill="white" stroke="#bfbfbf" points="13.4259,-56.5 13.4259,-75.5 75.4259,-75.5 75.4259,-56.5 13.4259,-56.5"/>
<text text-anchor="middle" x="44.4259" y="-63.5" font-family="Helvetica,sans-Serif" font-size="10.00">sdramc.h</text>
</g>
<!-- Node0&#45;&gt;Node2 -->
<g id="edge2" class="edge"><title>Node0&#45;&gt;Node2</title>
<path fill="none" stroke="midnightblue" d="M164.219,-112.399C137.642,-102.327 102.237,-88.9093 76.8204,-79.2769"/>
<polygon fill="midnightblue" stroke="midnightblue" points="77.8622,-75.9288 67.2708,-75.6578 75.3814,-82.4745 77.8622,-75.9288"/>
</g>
<!-- Node3 -->
<g id="node4" class="node"><title>Node3</title>
<g id="a_node4"><a xlink:href="board_8h.xhtml" target="_top" xlink:title="User board definition template. ">
<polygon fill="white" stroke="red" points="93.9259,-56.5 93.9259,-75.5 146.926,-75.5 146.926,-56.5 93.9259,-56.5"/>
<text text-anchor="middle" x="120.426" y="-63.5" font-family="Helvetica,sans-Serif" font-size="10.00">board.h</text>
</a>
</g>
</g>
<!-- Node0&#45;&gt;Node3 -->
<g id="edge3" class="edge"><title>Node0&#45;&gt;Node3</title>
<path fill="none" stroke="midnightblue" d="M182.23,-112.399C169.61,-103.129 153.133,-91.0254 140.365,-81.6469"/>
<polygon fill="midnightblue" stroke="midnightblue" points="142.343,-78.7572 132.212,-75.6578 138.199,-84.3987 142.343,-78.7572"/>
</g>
<!-- Node6 -->
<g id="node5" class="node"><title>Node6</title>
<g id="a_node5"><a xlink:href="xep__hal_8h.xhtml" target="_top" xlink:title="Brief description. ">
<polygon fill="white" stroke="red" points="144.426,-0.5 144.426,-19.5 206.426,-19.5 206.426,-0.5 144.426,-0.5"/>
<text text-anchor="middle" x="175.426" y="-7.5" font-family="Helvetica,sans-Serif" font-size="10.00">xep_hal.h</text>
</a>
</g>
</g>
<!-- Node0&#45;&gt;Node6 -->
<g id="edge8" class="edge"><title>Node0&#45;&gt;Node6</title>
<path fill="none" stroke="midnightblue" d="M198.238,-112.337C193.553,-91.5271 184.805,-52.6632 179.609,-29.5834"/>
<polygon fill="midnightblue" stroke="midnightblue" points="182.988,-28.6567 177.377,-19.6695 176.159,-30.194 182.988,-28.6567"/>
</g>
<!-- Node9 -->
<g id="node6" class="node"><title>Node9</title>
<polygon fill="white" stroke="#bfbfbf" points="203.926,-56.5 203.926,-75.5 250.926,-75.5 250.926,-56.5 203.926,-56.5"/>
<text text-anchor="middle" x="227.426" y="-63.5" font-family="Helvetica,sans-Serif" font-size="10.00">pmc.h</text>
</g>
<!-- Node0&#45;&gt;Node9 -->
<g id="edge6" class="edge"><title>Node0&#45;&gt;Node9</title>
<path fill="none" stroke="midnightblue" d="M207.588,-112.399C211.171,-104.199 215.723,-93.7809 219.563,-84.9936"/>
<polygon fill="midnightblue" stroke="midnightblue" points="222.846,-86.2226 223.643,-75.6578 216.431,-83.4197 222.846,-86.2226"/>
</g>
<!-- Node10 -->
<g id="node7" class="node"><title>Node10</title>
<polygon fill="white" stroke="#bfbfbf" points="269.426,-56.5 269.426,-75.5 323.426,-75.5 323.426,-56.5 269.426,-56.5"/>
<text text-anchor="middle" x="296.426" y="-63.5" font-family="Helvetica,sans-Serif" font-size="10.00">sysclk.h</text>
</g>
<!-- Node0&#45;&gt;Node10 -->
<g id="edge7" class="edge"><title>Node0&#45;&gt;Node10</title>
<path fill="none" stroke="midnightblue" d="M223.94,-112.399C239.025,-102.951 258.811,-90.5589 273.899,-81.1089"/>
<polygon fill="midnightblue" stroke="midnightblue" points="275.985,-83.9321 282.603,-75.6578 272.27,-77.9996 275.985,-83.9321"/>
</g>
<!-- Node11 -->
<g id="node8" class="node"><title>Node11</title>
<g id="a_node8"><a xlink:href="xtio__extram_8h.xhtml" target="_top" xlink:title="Local header file for xtio functions. ">
<polygon fill="white" stroke="red" points="341.926,-56.5 341.926,-75.5 424.926,-75.5 424.926,-56.5 341.926,-56.5"/>
<text text-anchor="middle" x="383.426" y="-63.5" font-family="Helvetica,sans-Serif" font-size="10.00">xtio_extram.h</text>
</a>
</g>
</g>
<!-- Node0&#45;&gt;Node11 -->
<g id="edge9" class="edge"><title>Node0&#45;&gt;Node11</title>
<path fill="none" stroke="midnightblue" d="M244.557,-112.399C276.006,-102.118 318.118,-88.3506 347.693,-78.6818"/>
<polygon fill="midnightblue" stroke="midnightblue" points="348.792,-82.0051 357.209,-75.5709 346.616,-75.3516 348.792,-82.0051"/>
</g>
<!-- Node13 -->
<g id="node9" class="node"><title>Node13</title>
<polygon fill="white" stroke="#bfbfbf" points="442.926,-56.5 442.926,-75.5 495.926,-75.5 495.926,-56.5 442.926,-56.5"/>
<text text-anchor="middle" x="469.426" y="-63.5" font-family="Helvetica,sans-Serif" font-size="10.00">string.h</text>
</g>
<!-- Node0&#45;&gt;Node13 -->
<g id="edge11" class="edge"><title>Node0&#45;&gt;Node13</title>
<path fill="none" stroke="midnightblue" d="M264.865,-113.435C309.416,-104.101 370.636,-90.9626 432.728,-76.3434"/>
<polygon fill="midnightblue" stroke="midnightblue" points="433.773,-79.6929 442.699,-73.9848 432.162,-72.8809 433.773,-79.6929"/>
</g>
<!-- Node3&#45;&gt;Node1 -->
<g id="edge4" class="edge"><title>Node3&#45;&gt;Node1</title>
<path fill="none" stroke="midnightblue" d="M108.376,-56.324C96.9629,-48.1066 79.5949,-35.6017 65.991,-25.8069"/>
<polygon fill="midnightblue" stroke="midnightblue" points="67.8557,-22.8366 57.6952,-19.8339 63.7655,-28.5174 67.8557,-22.8366"/>
</g>
<!-- Node3&#45;&gt;Node6 -->
<g id="edge5" class="edge"><title>Node3&#45;&gt;Node6</title>
<path fill="none" stroke="midnightblue" d="M129.508,-56.083C137.597,-48.1409 149.621,-36.3354 159.336,-26.7973"/>
<polygon fill="midnightblue" stroke="midnightblue" points="161.829,-29.2545 166.513,-19.7511 156.925,-24.2595 161.829,-29.2545"/>
</g>
<!-- Node11&#45;&gt;Node6 -->
<g id="edge10" class="edge"><title>Node11&#45;&gt;Node6</title>
<path fill="none" stroke="midnightblue" d="M350.468,-56.4435C314.112,-47.0051 255.57,-31.8067 216.317,-21.6158"/>
<polygon fill="midnightblue" stroke="midnightblue" points="217.09,-18.2007 206.531,-19.0755 215.331,-24.9761 217.09,-18.2007"/>
</g>
</g>
</svg>
