<?xml version="1.0" encoding="UTF-8" standalone="no"?>
<!DOCTYPE svg PUBLIC "-//W3C//DTD SVG 1.1//EN"
 "http://www.w3.org/Graphics/SVG/1.1/DTD/svg11.dtd">
<!-- Generated by graphviz version 2.38.0 (20140413.2041)
 -->
<!-- Title: _usb_task_tx Pages: 1 -->
<svg width="245pt" height="66pt"
 viewBox="0.00 0.00 245.00 66.00" xmlns="http://www.w3.org/2000/svg" xmlns:xlink="http://www.w3.org/1999/xlink">
<g id="graph0" class="graph" transform="scale(1 1) rotate(0) translate(4 62)">
<title>_usb_task_tx</title>
<polygon fill="white" stroke="none" points="-4,4 -4,-62 241,-62 241,4 -4,4"/>
<!-- Node53 -->
<g id="node1" class="node"><title>Node53</title>
<polygon fill="#bfbfbf" stroke="black" points="0,-19.5 0,-38.5 79,-38.5 79,-19.5 0,-19.5"/>
<text text-anchor="middle" x="39.5" y="-26.5" font-family="Helvetica,sans-Serif" font-size="10.00">_usb_task_tx</text>
</g>
<!-- Node54 -->
<g id="node2" class="node"><title>Node54</title>
<g id="a_node2"><a xlink:href="task__monitor_8c.xhtml#a481565877c5eb69c47c0f998a5a3244d" target="_top" xlink:title="Register task to monitor. ">
<polygon fill="white" stroke="red" points="115,-38.5 115,-57.5 237,-57.5 237,-38.5 115,-38.5"/>
<text text-anchor="middle" x="176" y="-45.5" font-family="Helvetica,sans-Serif" font-size="10.00">monitor_task_register</text>
</a>
</g>
</g>
<!-- Node53&#45;&gt;Node54 -->
<g id="edge1" class="edge"><title>Node53&#45;&gt;Node54</title>
<path fill="none" stroke="midnightblue" d="M79.0423,-34.4446C87.1639,-35.5919 95.9732,-36.8364 104.85,-38.0903"/>
<polygon fill="midnightblue" stroke="midnightblue" points="104.477,-41.5722 114.868,-39.5055 105.456,-34.6411 104.477,-41.5722"/>
</g>
<!-- Node62 -->
<g id="node3" class="node"><title>Node62</title>
<g id="a_node3"><a xlink:href="task__monitor_8c.xhtml#a0c7f7f8017a34d24de6b5c6fd90fbfe3" target="_top" xlink:title="Reset counter to indicate that task is alive. ">
<polygon fill="white" stroke="black" points="122.5,-0.5 122.5,-19.5 229.5,-19.5 229.5,-0.5 122.5,-0.5"/>
<text text-anchor="middle" x="176" y="-7.5" font-family="Helvetica,sans-Serif" font-size="10.00">monitor_task_alive</text>
</a>
</g>
</g>
<!-- Node53&#45;&gt;Node62 -->
<g id="edge2" class="edge"><title>Node53&#45;&gt;Node62</title>
<path fill="none" stroke="midnightblue" d="M79.0423,-23.5554C89.4891,-22.0796 101.074,-20.4431 112.476,-18.8324"/>
<polygon fill="midnightblue" stroke="midnightblue" points="113.004,-22.2926 122.416,-17.4282 112.025,-15.3614 113.004,-22.2926"/>
</g>
</g>
</svg>
