<?xml version="1.0" encoding="UTF-8" standalone="no"?>
<!DOCTYPE svg PUBLIC "-//W3C//DTD SVG 1.1//EN"
 "http://www.w3.org/Graphics/SVG/1.1/DTD/svg11.dtd">
<!-- Generated by graphviz version 2.38.0 (20140413.2041)
 -->
<!-- Title: src/hal/x4m0x_s70/xtio_led.c Pages: 1 -->
<svg width="213pt" height="95pt"
 viewBox="0.00 0.00 212.50 95.00" xmlns="http://www.w3.org/2000/svg" xmlns:xlink="http://www.w3.org/1999/xlink">
<g id="graph0" class="graph" transform="scale(1 1) rotate(0) translate(4 91)">
<title>src/hal/x4m0x_s70/xtio_led.c</title>
<polygon fill="white" stroke="none" points="-4,4 -4,-91 208.5,-91 208.5,4 -4,4"/>
<!-- Node0 -->
<g id="node1" class="node"><title>Node0</title>
<polygon fill="#bfbfbf" stroke="black" points="44,-56.5 44,-86.5 170,-86.5 170,-56.5 44,-56.5"/>
<text text-anchor="start" x="52" y="-74.5" font-family="Helvetica,sans-Serif" font-size="10.00">src/hal/x4m0x_s70/xtio</text>
<text text-anchor="middle" x="107" y="-63.5" font-family="Helvetica,sans-Serif" font-size="10.00">_led.c</text>
</g>
<!-- Node1 -->
<g id="node2" class="node"><title>Node1</title>
<g id="a_node2"><a xlink:href="xtio__led_8h.xhtml" target="_top" xlink:title="Local header file for xtio LED functions. ">
<polygon fill="white" stroke="red" points="0,-0.5 0,-19.5 62,-19.5 62,-0.5 0,-0.5"/>
<text text-anchor="middle" x="31" y="-7.5" font-family="Helvetica,sans-Serif" font-size="10.00">xtio_led.h</text>
</a>
</g>
</g>
<!-- Node0&#45;&gt;Node1 -->
<g id="edge1" class="edge"><title>Node0&#45;&gt;Node1</title>
<path fill="none" stroke="midnightblue" d="M88.9891,-56.3993C77.2622,-47.2185 61.9849,-35.2579 50.0551,-25.9182"/>
<polygon fill="midnightblue" stroke="midnightblue" points="52.0902,-23.0664 42.0587,-19.6578 47.7751,-28.5782 52.0902,-23.0664"/>
</g>
<!-- Node5 -->
<g id="node3" class="node"><title>Node5</title>
<g id="a_node3"><a xlink:href="board_8h.xhtml" target="_top" xlink:title="User board definition template. ">
<polygon fill="white" stroke="red" points="80.5,-0.5 80.5,-19.5 133.5,-19.5 133.5,-0.5 80.5,-0.5"/>
<text text-anchor="middle" x="107" y="-7.5" font-family="Helvetica,sans-Serif" font-size="10.00">board.h</text>
</a>
</g>
</g>
<!-- Node0&#45;&gt;Node5 -->
<g id="edge2" class="edge"><title>Node0&#45;&gt;Node5</title>
<path fill="none" stroke="midnightblue" d="M107,-56.3993C107,-48.4664 107,-38.458 107,-29.8583"/>
<polygon fill="midnightblue" stroke="midnightblue" points="110.5,-29.6577 107,-19.6578 103.5,-29.6578 110.5,-29.6577"/>
</g>
<!-- Node9 -->
<g id="node4" class="node"><title>Node9</title>
<polygon fill="white" stroke="#bfbfbf" points="151.5,-0.5 151.5,-19.5 204.5,-19.5 204.5,-0.5 151.5,-0.5"/>
<text text-anchor="middle" x="178" y="-7.5" font-family="Helvetica,sans-Serif" font-size="10.00">ioport.h</text>
</g>
<!-- Node0&#45;&gt;Node9 -->
<g id="edge3" class="edge"><title>Node0&#45;&gt;Node9</title>
<path fill="none" stroke="midnightblue" d="M123.826,-56.3993C134.675,-47.3076 148.777,-35.4899 159.873,-26.1909"/>
<polygon fill="midnightblue" stroke="midnightblue" points="162.252,-28.7634 167.669,-19.6578 157.756,-23.3983 162.252,-28.7634"/>
</g>
</g>
</svg>
