<?xml version="1.0" encoding="UTF-8" standalone="no"?>
<!DOCTYPE svg PUBLIC "-//W3C//DTD SVG 1.1//EN"
 "http://www.w3.org/Graphics/SVG/1.1/DTD/svg11.dtd">
<!-- Generated by graphviz version 2.38.0 (20140413.2041)
 -->
<!-- Title: xtio_serial_com_init Pages: 1 -->
<svg width="258pt" height="104pt"
 viewBox="0.00 0.00 258.00 104.00" xmlns="http://www.w3.org/2000/svg" xmlns:xlink="http://www.w3.org/1999/xlink">
<g id="graph0" class="graph" transform="scale(1 1) rotate(0) translate(4 100)">
<title>xtio_serial_com_init</title>
<polygon fill="white" stroke="none" points="-4,4 -4,-100 254,-100 254,4 -4,4"/>
<!-- Node83 -->
<g id="node1" class="node"><title>Node83</title>
<polygon fill="#bfbfbf" stroke="black" points="0,-38.5 0,-57.5 110,-57.5 110,-38.5 0,-38.5"/>
<text text-anchor="middle" x="55" y="-45.5" font-family="Helvetica,sans-Serif" font-size="10.00">xtio_serial_com_init</text>
</g>
<!-- Node84 -->
<g id="node2" class="node"><title>Node84</title>
<g id="a_node2"><a xlink:href="xtio__serial__com_8c.xhtml#a44f44f30e6e6a45ec405e61d9bf66c34" target="_top" xlink:title="Check if USB is available and connected. ">
<polygon fill="white" stroke="red" points="146,-76.5 146,-95.5 250,-95.5 250,-76.5 146,-76.5"/>
<text text-anchor="middle" x="198" y="-83.5" font-family="Helvetica,sans-Serif" font-size="10.00">xtio_usb_available</text>
</a>
</g>
</g>
<!-- Node83&#45;&gt;Node84 -->
<g id="edge1" class="edge"><title>Node83&#45;&gt;Node84</title>
<path fill="none" stroke="midnightblue" d="M91.5803,-57.589C109.782,-62.4944 132.138,-68.5196 151.572,-73.7571"/>
<polygon fill="midnightblue" stroke="midnightblue" points="150.865,-77.1912 161.431,-76.4141 152.686,-70.4324 150.865,-77.1912"/>
</g>
<!-- Node87 -->
<g id="node3" class="node"><title>Node87</title>
<g id="a_node3"><a xlink:href="xtio__serial__com_8c.xhtml#a774bd78f2d1048c26e37640a7e4032d9" target="_top" xlink:title="Initiate USB and start necessary tasks. ">
<polygon fill="white" stroke="red" points="147.5,-38.5 147.5,-57.5 248.5,-57.5 248.5,-38.5 147.5,-38.5"/>
<text text-anchor="middle" x="198" y="-45.5" font-family="Helvetica,sans-Serif" font-size="10.00">xtio_task_usb_init</text>
</a>
</g>
</g>
<!-- Node83&#45;&gt;Node87 -->
<g id="edge2" class="edge"><title>Node83&#45;&gt;Node87</title>
<path fill="none" stroke="midnightblue" d="M110.111,-48C119.026,-48 128.312,-48 137.353,-48"/>
<polygon fill="midnightblue" stroke="midnightblue" points="137.425,-51.5001 147.425,-48 137.425,-44.5001 137.425,-51.5001"/>
</g>
<!-- Node99 -->
<g id="node4" class="node"><title>Node99</title>
<g id="a_node4"><a xlink:href="xtio__serial__com_8c.xhtml#a7245c132bd19ba6ed3ad97529857b614" target="_top" xlink:title="Initiate UART and start necessary tasks. ">
<polygon fill="white" stroke="red" points="146,-0.5 146,-19.5 250,-19.5 250,-0.5 146,-0.5"/>
<text text-anchor="middle" x="198" y="-7.5" font-family="Helvetica,sans-Serif" font-size="10.00">xtio_task_uart_init</text>
</a>
</g>
</g>
<!-- Node83&#45;&gt;Node99 -->
<g id="edge3" class="edge"><title>Node83&#45;&gt;Node99</title>
<path fill="none" stroke="midnightblue" d="M91.5803,-38.411C109.782,-33.5056 132.138,-27.4804 151.572,-22.2429"/>
<polygon fill="midnightblue" stroke="midnightblue" points="152.686,-25.5676 161.431,-19.5859 150.865,-18.8088 152.686,-25.5676"/>
</g>
</g>
</svg>
