<?xml version="1.0" encoding="UTF-8" standalone="no"?>
<!DOCTYPE svg PUBLIC "-//W3C//DTD SVG 1.1//EN"
 "http://www.w3.org/Graphics/SVG/1.1/DTD/svg11.dtd">
<!-- Generated by graphviz version 2.38.0 (20140413.2041)
 -->
<!-- Title: xtio_task_usb_init Pages: 1 -->
<svg width="224pt" height="66pt"
 viewBox="0.00 0.00 224.00 66.00" xmlns="http://www.w3.org/2000/svg" xmlns:xlink="http://www.w3.org/1999/xlink">
<g id="graph0" class="graph" transform="scale(1 1) rotate(0) translate(4 62)">
<title>xtio_task_usb_init</title>
<polygon fill="white" stroke="none" points="-4,4 -4,-62 220,-62 220,4 -4,4"/>
<!-- Node131 -->
<g id="node1" class="node"><title>Node131</title>
<polygon fill="#bfbfbf" stroke="black" points="0,-19.5 0,-38.5 101,-38.5 101,-19.5 0,-19.5"/>
<text text-anchor="middle" x="50.5" y="-26.5" font-family="Helvetica,sans-Serif" font-size="10.00">xtio_task_usb_init</text>
</g>
<!-- Node132 -->
<g id="node2" class="node"><title>Node132</title>
<g id="a_node2"><a xlink:href="xtio__serial__com_8c.xhtml#afdbe66e3a8423057af6855132b1965ee" target="_top" xlink:title="_usb_task_rx">
<polygon fill="white" stroke="red" points="137,-38.5 137,-57.5 216,-57.5 216,-38.5 137,-38.5"/>
<text text-anchor="middle" x="176.5" y="-45.5" font-family="Helvetica,sans-Serif" font-size="10.00">_usb_task_rx</text>
</a>
</g>
</g>
<!-- Node131&#45;&gt;Node132 -->
<g id="edge1" class="edge"><title>Node131&#45;&gt;Node132</title>
<path fill="none" stroke="midnightblue" d="M101.221,-36.6185C109.652,-37.9104 118.398,-39.2505 126.802,-40.5382"/>
<polygon fill="midnightblue" stroke="midnightblue" points="126.425,-44.0211 136.839,-42.0762 127.485,-37.1019 126.425,-44.0211"/>
</g>
<!-- Node142 -->
<g id="node3" class="node"><title>Node142</title>
<g id="a_node3"><a xlink:href="xtio__serial__com_8c.xhtml#a18a89b2e10b293c135602a32bb07cbba" target="_top" xlink:title="_usb_task_tx">
<polygon fill="white" stroke="red" points="137,-0.5 137,-19.5 216,-19.5 216,-0.5 137,-0.5"/>
<text text-anchor="middle" x="176.5" y="-7.5" font-family="Helvetica,sans-Serif" font-size="10.00">_usb_task_tx</text>
</a>
</g>
</g>
<!-- Node131&#45;&gt;Node142 -->
<g id="edge2" class="edge"><title>Node131&#45;&gt;Node142</title>
<path fill="none" stroke="midnightblue" d="M101.221,-21.3815C109.652,-20.0896 118.398,-18.7495 126.802,-17.4618"/>
<polygon fill="midnightblue" stroke="midnightblue" points="127.485,-20.8981 136.839,-15.9238 126.425,-13.9789 127.485,-20.8981"/>
</g>
</g>
</svg>
