<?xml version="1.0" encoding="UTF-8" standalone="no"?>
<!DOCTYPE svg PUBLIC "-//W3C//DTD SVG 1.1//EN"
 "http://www.w3.org/Graphics/SVG/1.1/DTD/svg11.dtd">
<!-- Generated by graphviz version 2.38.0 (20140413.2041)
 -->
<!-- Title: xtio_task_uart_init Pages: 1 -->
<svg width="229pt" height="104pt"
 viewBox="0.00 0.00 229.00 104.00" xmlns="http://www.w3.org/2000/svg" xmlns:xlink="http://www.w3.org/1999/xlink">
<g id="graph0" class="graph" transform="scale(1 1) rotate(0) translate(4 100)">
<title>xtio_task_uart_init</title>
<polygon fill="white" stroke="none" points="-4,4 -4,-100 225,-100 225,4 -4,4"/>
<!-- Node110 -->
<g id="node1" class="node"><title>Node110</title>
<polygon fill="#bfbfbf" stroke="black" points="0,-38.5 0,-57.5 104,-57.5 104,-38.5 0,-38.5"/>
<text text-anchor="middle" x="52" y="-45.5" font-family="Helvetica,sans-Serif" font-size="10.00">xtio_task_uart_init</text>
</g>
<!-- Node111 -->
<g id="node2" class="node"><title>Node111</title>
<g id="a_node2"><a xlink:href="xtio__uart_8c.xhtml#aefe56ce11c59d2ed758098c884e9fa45" target="_top" xlink:title="xtio_uart_init">
<polygon fill="white" stroke="red" points="141.5,-76.5 141.5,-95.5 219.5,-95.5 219.5,-76.5 141.5,-76.5"/>
<text text-anchor="middle" x="180.5" y="-83.5" font-family="Helvetica,sans-Serif" font-size="10.00">xtio_uart_init</text>
</a>
</g>
</g>
<!-- Node110&#45;&gt;Node111 -->
<g id="edge1" class="edge"><title>Node110&#45;&gt;Node111</title>
<path fill="none" stroke="midnightblue" d="M84.9213,-57.589C100.952,-62.4044 120.574,-68.2988 137.782,-73.468"/>
<polygon fill="midnightblue" stroke="midnightblue" points="137.005,-76.8891 147.589,-76.4141 139.019,-70.185 137.005,-76.8891"/>
</g>
<!-- Node119 -->
<g id="node3" class="node"><title>Node119</title>
<g id="a_node3"><a xlink:href="xtio__serial__com_8c.xhtml#a5e9056b9bb65d42367ec290aea738768" target="_top" xlink:title="_uart_task_rx">
<polygon fill="white" stroke="red" points="140,-38.5 140,-57.5 221,-57.5 221,-38.5 140,-38.5"/>
<text text-anchor="middle" x="180.5" y="-45.5" font-family="Helvetica,sans-Serif" font-size="10.00">_uart_task_rx</text>
</a>
</g>
</g>
<!-- Node110&#45;&gt;Node119 -->
<g id="edge2" class="edge"><title>Node110&#45;&gt;Node119</title>
<path fill="none" stroke="midnightblue" d="M104.088,-48C112.57,-48 121.356,-48 129.803,-48"/>
<polygon fill="midnightblue" stroke="midnightblue" points="129.896,-51.5001 139.896,-48 129.896,-44.5001 129.896,-51.5001"/>
</g>
<!-- Node123 -->
<g id="node4" class="node"><title>Node123</title>
<g id="a_node4"><a xlink:href="xtio__serial__com_8c.xhtml#a0870cbcfb33018b8eb1ce5679d543119" target="_top" xlink:title="_uart_task_tx">
<polygon fill="white" stroke="red" points="140,-0.5 140,-19.5 221,-19.5 221,-0.5 140,-0.5"/>
<text text-anchor="middle" x="180.5" y="-7.5" font-family="Helvetica,sans-Serif" font-size="10.00">_uart_task_tx</text>
</a>
</g>
</g>
<!-- Node110&#45;&gt;Node123 -->
<g id="edge3" class="edge"><title>Node110&#45;&gt;Node123</title>
<path fill="none" stroke="midnightblue" d="M84.9213,-38.411C100.952,-33.5956 120.574,-27.7012 137.782,-22.532"/>
<polygon fill="midnightblue" stroke="midnightblue" points="139.019,-25.815 147.589,-19.5859 137.005,-19.1109 139.019,-25.815"/>
</g>
</g>
</svg>
