<?xml version="1.0" encoding="UTF-8" standalone="no"?>
<!DOCTYPE svg PUBLIC "-//W3C//DTD SVG 1.1//EN"
 "http://www.w3.org/Graphics/SVG/1.1/DTD/svg11.dtd">
<!-- Generated by graphviz version 2.38.0 (20140413.2041)
 -->
<!-- Title: src/hal/x4m0x_s70/xtio_spi.c Pages: 1 -->
<svg width="497pt" height="207pt"
 viewBox="0.00 0.00 497.32 207.00" xmlns="http://www.w3.org/2000/svg" xmlns:xlink="http://www.w3.org/1999/xlink">
<g id="graph0" class="graph" transform="scale(1 1) rotate(0) translate(4 203)">
<title>src/hal/x4m0x_s70/xtio_spi.c</title>
<polygon fill="white" stroke="none" points="-4,4 -4,-203 493.317,-203 493.317,4 -4,4"/>
<!-- Node0 -->
<g id="node1" class="node"><title>Node0</title>
<polygon fill="#bfbfbf" stroke="black" points="165.817,-168.5 165.817,-198.5 291.817,-198.5 291.817,-168.5 165.817,-168.5"/>
<text text-anchor="start" x="173.817" y="-186.5" font-family="Helvetica,sans-Serif" font-size="10.00">src/hal/x4m0x_s70/xtio</text>
<text text-anchor="middle" x="228.817" y="-175.5" font-family="Helvetica,sans-Serif" font-size="10.00">_spi.c</text>
</g>
<!-- Node1 -->
<g id="node2" class="node"><title>Node1</title>
<polygon fill="white" stroke="#bfbfbf" points="99.3172,-0.5 99.3172,-19.5 152.317,-19.5 152.317,-0.5 99.3172,-0.5"/>
<text text-anchor="middle" x="125.817" y="-7.5" font-family="Helvetica,sans-Serif" font-size="10.00">stdint.h</text>
</g>
<!-- Node0&#45;&gt;Node1 -->
<g id="edge1" class="edge"><title>Node0&#45;&gt;Node1</title>
<path fill="none" stroke="midnightblue" d="M165.809,-176.675C107.889,-169.863 28.1655,-156.293 8.81719,-132 -24.9344,-89.6231 51.5635,-45.1641 96.3262,-23.8643"/>
<polygon fill="midnightblue" stroke="midnightblue" points="98.0107,-26.9412 105.611,-19.5597 95.0664,-20.5905 98.0107,-26.9412"/>
</g>
<!-- Node2 -->
<g id="node3" class="node"><title>Node2</title>
<polygon fill="white" stroke="#bfbfbf" points="18.3172,-112.5 18.3172,-131.5 71.3172,-131.5 71.3172,-112.5 18.3172,-112.5"/>
<text text-anchor="middle" x="44.8172" y="-119.5" font-family="Helvetica,sans-Serif" font-size="10.00">string.h</text>
</g>
<!-- Node0&#45;&gt;Node2 -->
<g id="edge2" class="edge"><title>Node0&#45;&gt;Node2</title>
<path fill="none" stroke="midnightblue" d="M185.212,-168.399C153.417,-158.118 110.843,-144.351 80.9425,-134.682"/>
<polygon fill="midnightblue" stroke="midnightblue" points="81.914,-131.318 71.3222,-131.571 79.7602,-137.978 81.914,-131.318"/>
</g>
<!-- Node3 -->
<g id="node4" class="node"><title>Node3</title>
<polygon fill="white" stroke="#bfbfbf" points="89.3172,-112.5 89.3172,-131.5 142.317,-131.5 142.317,-112.5 89.3172,-112.5"/>
<text text-anchor="middle" x="115.817" y="-119.5" font-family="Helvetica,sans-Serif" font-size="10.00">ioport.h</text>
</g>
<!-- Node0&#45;&gt;Node3 -->
<g id="edge3" class="edge"><title>Node0&#45;&gt;Node3</title>
<path fill="none" stroke="midnightblue" d="M202.038,-168.399C183.755,-158.773 159.669,-146.09 141.602,-136.577"/>
<polygon fill="midnightblue" stroke="midnightblue" points="142.739,-133.22 132.26,-131.658 139.477,-139.414 142.739,-133.22"/>
</g>
<!-- Node4 -->
<g id="node5" class="node"><title>Node4</title>
<polygon fill="white" stroke="#bfbfbf" points="160.317,-112.5 160.317,-131.5 233.317,-131.5 233.317,-112.5 160.317,-112.5"/>
<text text-anchor="middle" x="196.817" y="-119.5" font-family="Helvetica,sans-Serif" font-size="10.00">ioport_pio.h</text>
</g>
<!-- Node0&#45;&gt;Node4 -->
<g id="edge4" class="edge"><title>Node0&#45;&gt;Node4</title>
<path fill="none" stroke="midnightblue" d="M221.234,-168.399C216.775,-160.11 211.098,-149.554 206.341,-140.708"/>
<polygon fill="midnightblue" stroke="midnightblue" points="209.293,-138.807 201.473,-131.658 203.128,-142.123 209.293,-138.807"/>
</g>
<!-- Node5 -->
<g id="node6" class="node"><title>Node5</title>
<g id="a_node6"><a xlink:href="xep__hal_8h.xhtml" target="_top" xlink:title="Brief description. ">
<polygon fill="white" stroke="red" points="230.817,-56.5 230.817,-75.5 292.817,-75.5 292.817,-56.5 230.817,-56.5"/>
<text text-anchor="middle" x="261.817" y="-63.5" font-family="Helvetica,sans-Serif" font-size="10.00">xep_hal.h</text>
</a>
</g>
</g>
<!-- Node0&#45;&gt;Node5 -->
<g id="edge5" class="edge"><title>Node0&#45;&gt;Node5</title>
<path fill="none" stroke="midnightblue" d="M232.864,-168.337C238.809,-147.527 249.913,-108.663 256.508,-85.5834"/>
<polygon fill="midnightblue" stroke="midnightblue" points="259.958,-86.2462 259.34,-75.6695 253.228,-84.3231 259.958,-86.2462"/>
</g>
<!-- Node7 -->
<g id="node7" class="node"><title>Node7</title>
<polygon fill="white" stroke="#bfbfbf" points="289.817,-112.5 289.817,-131.5 371.817,-131.5 371.817,-112.5 289.817,-112.5"/>
<text text-anchor="middle" x="330.817" y="-119.5" font-family="Helvetica,sans-Serif" font-size="10.00">sams70q20.h</text>
</g>
<!-- Node0&#45;&gt;Node7 -->
<g id="edge7" class="edge"><title>Node0&#45;&gt;Node7</title>
<path fill="none" stroke="midnightblue" d="M252.99,-168.399C269.34,-158.862 290.832,-146.325 307.088,-136.842"/>
<polygon fill="midnightblue" stroke="midnightblue" points="309.101,-139.72 315.975,-131.658 305.574,-133.673 309.101,-139.72"/>
</g>
<!-- Node8 -->
<g id="node8" class="node"><title>Node8</title>
<polygon fill="white" stroke="#bfbfbf" points="444.317,-56.5 444.317,-75.5 489.317,-75.5 489.317,-56.5 444.317,-56.5"/>
<text text-anchor="middle" x="466.817" y="-63.5" font-family="Helvetica,sans-Serif" font-size="10.00">qspi.h</text>
</g>
<!-- Node0&#45;&gt;Node8 -->
<g id="edge8" class="edge"><title>Node0&#45;&gt;Node8</title>
<path fill="none" stroke="midnightblue" d="M291.842,-178.883C359.07,-173.554 459.107,-160.889 482.817,-132 493.84,-118.57 486.532,-98.6584 478.544,-84.4156"/>
<polygon fill="midnightblue" stroke="midnightblue" points="481.345,-82.2902 473.122,-75.6102 475.385,-85.9605 481.345,-82.2902"/>
</g>
<!-- Node9 -->
<g id="node9" class="node"><title>Node9</title>
<g id="a_node9"><a xlink:href="qspi__private_8h.xhtml" target="_top" xlink:title="Local header file for xtio functions. ">
<polygon fill="white" stroke="black" points="390.317,-112.5 390.317,-131.5 473.317,-131.5 473.317,-112.5 390.317,-112.5"/>
<text text-anchor="middle" x="431.817" y="-119.5" font-family="Helvetica,sans-Serif" font-size="10.00">qspi_private.h</text>
</a>
</g>
</g>
<!-- Node0&#45;&gt;Node9 -->
<g id="edge9" class="edge"><title>Node0&#45;&gt;Node9</title>
<path fill="none" stroke="midnightblue" d="M276.668,-168.475C312.149,-158.075 359.903,-144.078 393.018,-134.372"/>
<polygon fill="midnightblue" stroke="midnightblue" points="394.184,-137.678 402.795,-131.506 392.215,-130.96 394.184,-137.678"/>
</g>
<!-- Node5&#45;&gt;Node1 -->
<g id="edge6" class="edge"><title>Node5&#45;&gt;Node1</title>
<path fill="none" stroke="midnightblue" d="M240.268,-56.4435C217.786,-47.5171 182.33,-33.4387 156.837,-23.3168"/>
<polygon fill="midnightblue" stroke="midnightblue" points="157.852,-19.9539 147.266,-19.5164 155.269,-26.4598 157.852,-19.9539"/>
</g>
<!-- Node9&#45;&gt;Node5 -->
<g id="edge10" class="edge"><title>Node9&#45;&gt;Node5</title>
<path fill="none" stroke="midnightblue" d="M404.88,-112.444C376.157,-103.32 330.489,-88.8133 298.496,-78.6509"/>
<polygon fill="midnightblue" stroke="midnightblue" points="299.219,-75.2081 288.628,-75.5164 297.099,-81.8797 299.219,-75.2081"/>
</g>
<!-- Node9&#45;&gt;Node8 -->
<g id="edge11" class="edge"><title>Node9&#45;&gt;Node8</title>
<path fill="none" stroke="midnightblue" d="M437.597,-112.083C442.49,-104.534 449.645,-93.4948 455.65,-84.2298"/>
<polygon fill="midnightblue" stroke="midnightblue" points="458.643,-86.0463 461.145,-75.7511 452.769,-82.239 458.643,-86.0463"/>
</g>
</g>
</svg>
