<?xml version="1.0" encoding="UTF-8" standalone="no"?>
<!DOCTYPE svg PUBLIC "-//W3C//DTD SVG 1.1//EN"
 "http://www.w3.org/Graphics/SVG/1.1/DTD/svg11.dtd">
<!-- Generated by graphviz version 2.38.0 (20140413.2041)
 -->
<!-- Title: xtio_led_set_state Pages: 1 -->
<svg width="282pt" height="104pt"
 viewBox="0.00 0.00 282.00 104.00" xmlns="http://www.w3.org/2000/svg" xmlns:xlink="http://www.w3.org/1999/xlink">
<g id="graph0" class="graph" transform="scale(1 1) rotate(0) translate(4 100)">
<title>xtio_led_set_state</title>
<polygon fill="white" stroke="none" points="-4,4 -4,-100 278,-100 278,4 -4,4"/>
<!-- Node19 -->
<g id="node1" class="node"><title>Node19</title>
<polygon fill="#bfbfbf" stroke="black" points="0,-38.5 0,-57.5 104,-57.5 104,-38.5 0,-38.5"/>
<text text-anchor="middle" x="52" y="-45.5" font-family="Helvetica,sans-Serif" font-size="10.00">xtio_led_set_state</text>
</g>
<!-- Node20 -->
<g id="node2" class="node"><title>Node20</title>
<g id="a_node2"><a xlink:href="main_8c.xhtml#a840291bc02cba5474a4cb46a9b9566fe" target="_top" xlink:title="main">
<polygon fill="white" stroke="red" points="186.5,-76.5 186.5,-95.5 227.5,-95.5 227.5,-76.5 186.5,-76.5"/>
<text text-anchor="middle" x="207" y="-83.5" font-family="Helvetica,sans-Serif" font-size="10.00">main</text>
</a>
</g>
</g>
<!-- Node19&#45;&gt;Node20 -->
<g id="edge1" class="edge"><title>Node19&#45;&gt;Node20</title>
<path fill="none" stroke="midnightblue" d="M101.449,-60.0331C130.078,-67.1437 164.792,-75.7653 186.135,-81.0663"/>
<polygon fill="midnightblue" stroke="midnightblue" points="102.157,-56.6027 91.6084,-57.589 100.47,-63.3963 102.157,-56.6027"/>
</g>
<!-- Node22 -->
<g id="node3" class="node"><title>Node22</title>
<g id="a_node3"><a xlink:href="task__monitor_8c.xhtml#ad45490893a79383d6cd047fa3e4c3638" target="_top" xlink:title="task_monitor">
<polygon fill="white" stroke="red" points="167,-38.5 167,-57.5 247,-57.5 247,-38.5 167,-38.5"/>
<text text-anchor="middle" x="207" y="-45.5" font-family="Helvetica,sans-Serif" font-size="10.00">task_monitor</text>
</a>
</g>
</g>
<!-- Node19&#45;&gt;Node22 -->
<g id="edge2" class="edge"><title>Node19&#45;&gt;Node22</title>
<path fill="none" stroke="midnightblue" d="M114.556,-48C132.117,-48 150.77,-48 166.619,-48"/>
<polygon fill="midnightblue" stroke="midnightblue" points="114.372,-44.5001 104.372,-48 114.372,-51.5001 114.372,-44.5001"/>
</g>
<!-- Node24 -->
<g id="node4" class="node"><title>Node24</title>
<g id="a_node4"><a xlink:href="module__ui_8c.xhtml#a54f86bf93a9a46ab61ff08b7e535e9a0" target="_top" xlink:title="Set the module LED color. ">
<polygon fill="white" stroke="red" points="140,-0.5 140,-19.5 274,-19.5 274,-0.5 140,-0.5"/>
<text text-anchor="middle" x="207" y="-7.5" font-family="Helvetica,sans-Serif" font-size="10.00">module_ui_led_set_color</text>
</a>
</g>
</g>
<!-- Node19&#45;&gt;Node24 -->
<g id="edge3" class="edge"><title>Node19&#45;&gt;Node24</title>
<path fill="none" stroke="midnightblue" d="M101.477,-35.96C122.852,-30.6512 147.613,-24.5012 167.669,-19.5201"/>
<polygon fill="midnightblue" stroke="midnightblue" points="100.47,-32.6037 91.6084,-38.411 102.157,-39.3973 100.47,-32.6037"/>
</g>
</g>
</svg>
