<?xml version="1.0" encoding="UTF-8" standalone="no"?>
<!DOCTYPE svg PUBLIC "-//W3C//DTD SVG 1.1//EN"
 "http://www.w3.org/Graphics/SVG/1.1/DTD/svg11.dtd">
<!-- Generated by graphviz version 2.38.0 (20140413.2041)
 -->
<!-- Title: src/hal/x4m0x_s70/xtio_serial_com.c Pages: 1 -->
<svg width="1128pt" height="207pt"
 viewBox="0.00 0.00 1127.50 207.00" xmlns="http://www.w3.org/2000/svg" xmlns:xlink="http://www.w3.org/1999/xlink">
<g id="graph0" class="graph" transform="scale(1 1) rotate(0) translate(4 203)">
<title>src/hal/x4m0x_s70/xtio_serial_com.c</title>
<polygon fill="white" stroke="none" points="-4,4 -4,-203 1123.5,-203 1123.5,4 -4,4"/>
<!-- Node0 -->
<g id="node1" class="node"><title>Node0</title>
<polygon fill="#bfbfbf" stroke="black" points="389.5,-168.5 389.5,-198.5 515.5,-198.5 515.5,-168.5 389.5,-168.5"/>
<text text-anchor="start" x="397.5" y="-186.5" font-family="Helvetica,sans-Serif" font-size="10.00">src/hal/x4m0x_s70/xtio</text>
<text text-anchor="middle" x="452.5" y="-175.5" font-family="Helvetica,sans-Serif" font-size="10.00">_serial_com.c</text>
</g>
<!-- Node1 -->
<g id="node2" class="node"><title>Node1</title>
<polygon fill="white" stroke="#bfbfbf" points="0,-0.5 0,-19.5 61,-19.5 61,-0.5 0,-0.5"/>
<text text-anchor="middle" x="30.5" y="-7.5" font-family="Helvetica,sans-Serif" font-size="10.00">stdbool.h</text>
</g>
<!-- Node0&#45;&gt;Node1 -->
<g id="edge1" class="edge"><title>Node0&#45;&gt;Node1</title>
<path fill="none" stroke="midnightblue" d="M389.355,-178.308C298.659,-171.538 136.584,-156.431 83.5,-132 49.4684,-116.338 35.8468,-110.175 20.5,-76 13.8569,-61.2067 17.6632,-42.8205 22.3689,-29.3816"/>
<polygon fill="midnightblue" stroke="midnightblue" points="25.7246,-30.414 26.1532,-19.8278 19.2165,-27.8361 25.7246,-30.414"/>
</g>
<!-- Node2 -->
<g id="node3" class="node"><title>Node2</title>
<polygon fill="white" stroke="#bfbfbf" points="251,-112.5 251,-131.5 342,-131.5 342,-112.5 251,-112.5"/>
<text text-anchor="middle" x="296.5" y="-119.5" font-family="Helvetica,sans-Serif" font-size="10.00">cycle_counter.h</text>
</g>
<!-- Node0&#45;&gt;Node2 -->
<g id="edge2" class="edge"><title>Node0&#45;&gt;Node2</title>
<path fill="none" stroke="midnightblue" d="M415.53,-168.399C389.122,-158.327 353.943,-144.909 328.688,-135.277"/>
<polygon fill="midnightblue" stroke="midnightblue" points="329.79,-131.951 319.199,-131.658 327.296,-138.492 329.79,-131.951"/>
</g>
<!-- Node3 -->
<g id="node4" class="node"><title>Node3</title>
<g id="a_node4"><a xlink:href="xep__hal_8h.xhtml" target="_top" xlink:title="Brief description. ">
<polygon fill="white" stroke="red" points="29.5,-56.5 29.5,-75.5 91.5,-75.5 91.5,-56.5 29.5,-56.5"/>
<text text-anchor="middle" x="60.5" y="-63.5" font-family="Helvetica,sans-Serif" font-size="10.00">xep_hal.h</text>
</a>
</g>
</g>
<!-- Node0&#45;&gt;Node3 -->
<g id="edge3" class="edge"><title>Node0&#45;&gt;Node3</title>
<path fill="none" stroke="midnightblue" d="M389.349,-179.012C303.302,-173.291 154.636,-159.671 108.5,-132 90.3191,-121.096 76.8762,-100.414 68.9131,-85.2984"/>
<polygon fill="midnightblue" stroke="midnightblue" points="71.8464,-83.3329 64.2848,-75.9117 65.5681,-86.4286 71.8464,-83.3329"/>
</g>
<!-- Node5 -->
<g id="node5" class="node"><title>Node5</title>
<polygon fill="white" stroke="#bfbfbf" points="110,-56.5 110,-75.5 181,-75.5 181,-56.5 110,-56.5"/>
<text text-anchor="middle" x="145.5" y="-63.5" font-family="Helvetica,sans-Serif" font-size="10.00">FreeRTOS.h</text>
</g>
<!-- Node0&#45;&gt;Node5 -->
<g id="edge5" class="edge"><title>Node0&#45;&gt;Node5</title>
<path fill="none" stroke="midnightblue" d="M389.494,-182.379C302.359,-180.717 151.885,-171.957 117.5,-132 105.306,-117.83 117.495,-97.5454 129.393,-83.4182"/>
<polygon fill="midnightblue" stroke="midnightblue" points="132.073,-85.6723 136.177,-75.9047 126.878,-80.981 132.073,-85.6723"/>
</g>
<!-- Node6 -->
<g id="node6" class="node"><title>Node6</title>
<polygon fill="white" stroke="#bfbfbf" points="360.5,-112.5 360.5,-131.5 406.5,-131.5 406.5,-112.5 360.5,-112.5"/>
<text text-anchor="middle" x="383.5" y="-119.5" font-family="Helvetica,sans-Serif" font-size="10.00">task.h</text>
</g>
<!-- Node0&#45;&gt;Node6 -->
<g id="edge6" class="edge"><title>Node0&#45;&gt;Node6</title>
<path fill="none" stroke="midnightblue" d="M436.148,-168.399C425.605,-159.308 411.9,-147.49 401.116,-138.191"/>
<polygon fill="midnightblue" stroke="midnightblue" points="403.399,-135.538 393.54,-131.658 398.828,-140.839 403.399,-135.538"/>
</g>
<!-- Node7 -->
<g id="node7" class="node"><title>Node7</title>
<polygon fill="white" stroke="#bfbfbf" points="424.5,-112.5 424.5,-131.5 480.5,-131.5 480.5,-112.5 424.5,-112.5"/>
<text text-anchor="middle" x="452.5" y="-119.5" font-family="Helvetica,sans-Serif" font-size="10.00">queue.h</text>
</g>
<!-- Node0&#45;&gt;Node7 -->
<g id="edge7" class="edge"><title>Node0&#45;&gt;Node7</title>
<path fill="none" stroke="midnightblue" d="M452.5,-168.399C452.5,-160.466 452.5,-150.458 452.5,-141.858"/>
<polygon fill="midnightblue" stroke="midnightblue" points="456,-141.658 452.5,-131.658 449,-141.658 456,-141.658"/>
</g>
<!-- Node8 -->
<g id="node8" class="node"><title>Node8</title>
<polygon fill="white" stroke="#bfbfbf" points="199.5,-56.5 199.5,-75.5 261.5,-75.5 261.5,-56.5 199.5,-56.5"/>
<text text-anchor="middle" x="230.5" y="-63.5" font-family="Helvetica,sans-Serif" font-size="10.00">semphr.h</text>
</g>
<!-- Node0&#45;&gt;Node8 -->
<g id="edge8" class="edge"><title>Node0&#45;&gt;Node8</title>
<path fill="none" stroke="midnightblue" d="M389.303,-174.931C335.025,-167.109 262.46,-153.057 242.5,-132 231.038,-119.908 228.717,-100.625 228.856,-86.1966"/>
<polygon fill="midnightblue" stroke="midnightblue" points="232.367,-86.0573 229.367,-75.8962 225.376,-85.7106 232.367,-86.0573"/>
</g>
<!-- Node9 -->
<g id="node9" class="node"><title>Node9</title>
<polygon fill="white" stroke="#bfbfbf" points="499,-112.5 499,-131.5 564,-131.5 564,-112.5 499,-112.5"/>
<text text-anchor="middle" x="531.5" y="-119.5" font-family="Helvetica,sans-Serif" font-size="10.00">protocol.h</text>
</g>
<!-- Node0&#45;&gt;Node9 -->
<g id="edge9" class="edge"><title>Node0&#45;&gt;Node9</title>
<path fill="none" stroke="midnightblue" d="M471.222,-168.399C483.412,-159.218 499.292,-147.258 511.693,-137.918"/>
<polygon fill="midnightblue" stroke="midnightblue" points="514.123,-140.47 520.005,-131.658 509.911,-134.878 514.123,-140.47"/>
</g>
<!-- Node10 -->
<g id="node10" class="node"><title>Node10</title>
<polygon fill="white" stroke="#bfbfbf" points="582,-112.5 582,-131.5 691,-131.5 691,-112.5 582,-112.5"/>
<text text-anchor="middle" x="636.5" y="-119.5" font-family="Helvetica,sans-Serif" font-size="10.00">usb_protocol_cdc.h</text>
</g>
<!-- Node0&#45;&gt;Node10 -->
<g id="edge10" class="edge"><title>Node0&#45;&gt;Node10</title>
<path fill="none" stroke="midnightblue" d="M496.105,-168.399C527.9,-158.118 570.474,-144.351 600.375,-134.682"/>
<polygon fill="midnightblue" stroke="midnightblue" points="601.557,-137.978 609.995,-131.571 599.403,-131.318 601.557,-137.978"/>
</g>
<!-- Node11 -->
<g id="node11" class="node"><title>Node11</title>
<g id="a_node11"><a xlink:href="xtio__serial__com_8h.xhtml" target="_top" xlink:title="User board configuration template. ">
<polygon fill="white" stroke="red" points="709.5,-112.5 709.5,-131.5 809.5,-131.5 809.5,-112.5 709.5,-112.5"/>
<text text-anchor="middle" x="759.5" y="-119.5" font-family="Helvetica,sans-Serif" font-size="10.00">xtio_serial_com.h</text>
</a>
</g>
</g>
<!-- Node0&#45;&gt;Node11 -->
<g id="edge11" class="edge"><title>Node0&#45;&gt;Node11</title>
<path fill="none" stroke="midnightblue" d="M515.738,-170.244C571.639,-159.409 652.311,-143.774 705.309,-133.503"/>
<polygon fill="midnightblue" stroke="midnightblue" points="706.046,-136.925 715.197,-131.586 704.714,-130.053 706.046,-136.925"/>
</g>
<!-- Node12 -->
<g id="node12" class="node"><title>Node12</title>
<g id="a_node12"><a xlink:href="xtio__uart_8h.xhtml" target="_top" xlink:title="Local header file for xtio UART functions. ">
<polygon fill="white" stroke="black" points="126.5,-112.5 126.5,-131.5 194.5,-131.5 194.5,-112.5 126.5,-112.5"/>
<text text-anchor="middle" x="160.5" y="-119.5" font-family="Helvetica,sans-Serif" font-size="10.00">xtio_uart.h</text>
</a>
</g>
</g>
<!-- Node0&#45;&gt;Node12 -->
<g id="edge12" class="edge"><title>Node0&#45;&gt;Node12</title>
<path fill="none" stroke="midnightblue" d="M389.5,-169.663C333.778,-158.308 253.902,-142.032 204.711,-132.009"/>
<polygon fill="midnightblue" stroke="midnightblue" points="205.197,-128.536 194.7,-129.969 203.8,-135.395 205.197,-128.536"/>
</g>
<!-- Node13 -->
<g id="node13" class="node"><title>Node13</title>
<g id="a_node13"><a xlink:href="task__monitor_8h.xhtml" target="_top" xlink:title="System monitor task. ">
<polygon fill="white" stroke="red" points="827.5,-112.5 827.5,-131.5 915.5,-131.5 915.5,-112.5 827.5,-112.5"/>
<text text-anchor="middle" x="871.5" y="-119.5" font-family="Helvetica,sans-Serif" font-size="10.00">task_monitor.h</text>
</a>
</g>
</g>
<!-- Node0&#45;&gt;Node13 -->
<g id="edge16" class="edge"><title>Node0&#45;&gt;Node13</title>
<path fill="none" stroke="midnightblue" d="M515.734,-174.382C586.623,-165.145 705.263,-149.278 817.159,-132.169"/>
<polygon fill="midnightblue" stroke="midnightblue" points="817.917,-135.593 827.27,-130.616 816.855,-128.674 817.917,-135.593"/>
</g>
<!-- Node17 -->
<g id="node14" class="node"><title>Node17</title>
<polygon fill="white" stroke="#bfbfbf" points="933.5,-112.5 933.5,-131.5 995.5,-131.5 995.5,-112.5 933.5,-112.5"/>
<text text-anchor="middle" x="964.5" y="-119.5" font-family="Helvetica,sans-Serif" font-size="10.00">udi_cdc.h</text>
</g>
<!-- Node0&#45;&gt;Node17 -->
<g id="edge17" class="edge"><title>Node0&#45;&gt;Node17</title>
<path fill="none" stroke="midnightblue" d="M515.797,-178.048C604.715,-171.28 771.789,-156.688 923.176,-132.054"/>
<polygon fill="midnightblue" stroke="midnightblue" points="923.825,-135.494 933.124,-130.417 922.688,-128.587 923.825,-135.494"/>
</g>
<!-- Node18 -->
<g id="node15" class="node"><title>Node18</title>
<polygon fill="white" stroke="#bfbfbf" points="1014,-112.5 1014,-131.5 1057,-131.5 1057,-112.5 1014,-112.5"/>
<text text-anchor="middle" x="1035.5" y="-119.5" font-family="Helvetica,sans-Serif" font-size="10.00">udc.h</text>
</g>
<!-- Node0&#45;&gt;Node18 -->
<g id="edge18" class="edge"><title>Node0&#45;&gt;Node18</title>
<path fill="none" stroke="midnightblue" d="M515.542,-180.651C616.764,-176.823 821.754,-165.542 1003.92,-131.719"/>
<polygon fill="midnightblue" stroke="midnightblue" points="1004.77,-135.12 1013.95,-129.829 1003.47,-128.241 1004.77,-135.12"/>
</g>
<!-- Node19 -->
<g id="node16" class="node"><title>Node19</title>
<polygon fill="white" stroke="#bfbfbf" points="1075.5,-112.5 1075.5,-131.5 1119.5,-131.5 1119.5,-112.5 1075.5,-112.5"/>
<text text-anchor="middle" x="1097.5" y="-119.5" font-family="Helvetica,sans-Serif" font-size="10.00">udd.h</text>
</g>
<!-- Node0&#45;&gt;Node19 -->
<g id="edge19" class="edge"><title>Node0&#45;&gt;Node19</title>
<path fill="none" stroke="midnightblue" d="M515.806,-181.465C625.971,-178.754 860.002,-168.972 1065.22,-131.875"/>
<polygon fill="midnightblue" stroke="midnightblue" points="1066.07,-135.277 1075.28,-130.03 1064.81,-128.392 1066.07,-135.277"/>
</g>
<!-- Node3&#45;&gt;Node1 -->
<g id="edge4" class="edge"><title>Node3&#45;&gt;Node1</title>
<path fill="none" stroke="midnightblue" d="M55.5461,-56.083C51.3959,-48.6127 45.3469,-37.7244 40.2333,-28.5199"/>
<polygon fill="midnightblue" stroke="midnightblue" points="43.2777,-26.7929 35.3617,-19.7511 37.1586,-30.1924 43.2777,-26.7929"/>
</g>
<!-- Node12&#45;&gt;Node3 -->
<g id="edge13" class="edge"><title>Node12&#45;&gt;Node3</title>
<path fill="none" stroke="midnightblue" d="M144.433,-112.324C128.542,-103.743 103.993,-90.486 85.5415,-80.5224"/>
<polygon fill="midnightblue" stroke="midnightblue" points="86.989,-77.3264 76.5269,-75.6545 83.6629,-83.4857 86.989,-77.3264"/>
</g>
<!-- Node12&#45;&gt;Node5 -->
<g id="edge14" class="edge"><title>Node12&#45;&gt;Node5</title>
<path fill="none" stroke="midnightblue" d="M158.023,-112.083C156.014,-104.849 153.114,-94.4087 150.61,-85.3968"/>
<polygon fill="midnightblue" stroke="midnightblue" points="153.98,-84.4495 147.931,-75.7511 147.235,-86.323 153.98,-84.4495"/>
</g>
<!-- Node12&#45;&gt;Node8 -->
<g id="edge15" class="edge"><title>Node12&#45;&gt;Node8</title>
<path fill="none" stroke="midnightblue" d="M171.747,-112.324C182.297,-104.185 198.301,-91.8395 210.942,-82.0874"/>
<polygon fill="midnightblue" stroke="midnightblue" points="213.269,-84.7132 219.049,-75.8339 208.993,-79.1707 213.269,-84.7132"/>
</g>
</g>
</svg>
