<?xml version="1.0" encoding="UTF-8" standalone="no"?>
<!DOCTYPE svg PUBLIC "-//W3C//DTD SVG 1.1//EN"
 "http://www.w3.org/Graphics/SVG/1.1/DTD/svg11.dtd">
<!-- Generated by graphviz version 2.38.0 (20140413.2041)
 -->
<!-- Title: include/xtmemory.h Pages: 1 -->
<svg width="904pt" height="95pt"
 viewBox="0.00 0.00 903.50 95.00" xmlns="http://www.w3.org/2000/svg" xmlns:xlink="http://www.w3.org/1999/xlink">
<g id="graph0" class="graph" transform="scale(1 1) rotate(0) translate(4 91)">
<title>include/xtmemory.h</title>
<polygon fill="white" stroke="none" points="-4,4 -4,-91 899.5,-91 899.5,4 -4,4"/>
<!-- Node2 -->
<g id="node1" class="node"><title>Node2</title>
<polygon fill="#bfbfbf" stroke="black" points="403,-67.5 403,-86.5 513,-86.5 513,-67.5 403,-67.5"/>
<text text-anchor="middle" x="458" y="-74.5" font-family="Helvetica,sans-Serif" font-size="10.00">include/xtmemory.h</text>
</g>
<!-- Node3 -->
<g id="node2" class="node"><title>Node3</title>
<g id="a_node2"><a xlink:href="xtio__uart_8c.xhtml" target="_top" xlink:title="src/hal/x4m0x_s70/xtio\l_uart.c">
<polygon fill="white" stroke="black" points="0,-0.5 0,-30.5 126,-30.5 126,-0.5 0,-0.5"/>
<text text-anchor="start" x="8" y="-18.5" font-family="Helvetica,sans-Serif" font-size="10.00">src/hal/x4m0x_s70/xtio</text>
<text text-anchor="middle" x="63" y="-7.5" font-family="Helvetica,sans-Serif" font-size="10.00">_uart.c</text>
</a>
</g>
</g>
<!-- Node2&#45;&gt;Node3 -->
<g id="edge1" class="edge"><title>Node2&#45;&gt;Node3</title>
<path fill="none" stroke="midnightblue" d="M392.824,-68.092C327.461,-59.886 224.008,-46.1487 135,-31 132.109,-30.5079 129.156,-29.9873 126.176,-29.4471"/>
<polygon fill="midnightblue" stroke="midnightblue" points="392.623,-71.594 402.98,-69.3609 393.491,-64.648 392.623,-71.594"/>
</g>
<!-- Node4 -->
<g id="node3" class="node"><title>Node4</title>
<g id="a_node3"><a xlink:href="task__hostcom_8c.xhtml" target="_top" xlink:title="src/HostCom/task_hostcom.c">
<polygon fill="white" stroke="black" points="144,-6 144,-25 302,-25 302,-6 144,-6"/>
<text text-anchor="middle" x="223" y="-13" font-family="Helvetica,sans-Serif" font-size="10.00">src/HostCom/task_hostcom.c</text>
</a>
</g>
</g>
<!-- Node2&#45;&gt;Node4 -->
<g id="edge2" class="edge"><title>Node2&#45;&gt;Node4</title>
<path fill="none" stroke="midnightblue" d="M414.43,-64.9685C368.798,-53.4147 298.11,-35.5173 256.607,-25.0091"/>
<polygon fill="midnightblue" stroke="midnightblue" points="413.777,-68.4135 424.33,-67.4751 415.495,-61.6276 413.777,-68.4135"/>
</g>
<!-- Node5 -->
<g id="node4" class="node"><title>Node5</title>
<g id="a_node4"><a xlink:href="task__radar_8c.xhtml" target="_top" xlink:title="src/Radar/task_radar.c">
<polygon fill="white" stroke="black" points="320.5,-6 320.5,-25 443.5,-25 443.5,-6 320.5,-6"/>
<text text-anchor="middle" x="382" y="-13" font-family="Helvetica,sans-Serif" font-size="10.00">src/Radar/task_radar.c</text>
</a>
</g>
</g>
<!-- Node2&#45;&gt;Node5 -->
<g id="edge3" class="edge"><title>Node2&#45;&gt;Node5</title>
<path fill="none" stroke="midnightblue" d="M439.216,-61.2938C424.637,-49.8803 404.938,-34.4577 392.869,-25.0091"/>
<polygon fill="midnightblue" stroke="midnightblue" points="437.079,-64.0665 447.111,-67.4751 441.395,-58.5547 437.079,-64.0665"/>
</g>
<!-- Node6 -->
<g id="node5" class="node"><title>Node6</title>
<g id="a_node5"><a xlink:href="task__monitor_8c.xhtml" target="_top" xlink:title="src/System/task_monitor.c">
<polygon fill="white" stroke="black" points="462,-6 462,-25 606,-25 606,-6 462,-6"/>
<text text-anchor="middle" x="534" y="-13" font-family="Helvetica,sans-Serif" font-size="10.00">src/System/task_monitor.c</text>
</a>
</g>
</g>
<!-- Node2&#45;&gt;Node6 -->
<g id="edge4" class="edge"><title>Node2&#45;&gt;Node6</title>
<path fill="none" stroke="midnightblue" d="M476.784,-61.2938C491.363,-49.8803 511.062,-34.4577 523.131,-25.0091"/>
<polygon fill="midnightblue" stroke="midnightblue" points="474.605,-58.5547 468.889,-67.4751 478.921,-64.0665 474.605,-58.5547"/>
</g>
<!-- Node7 -->
<g id="node6" class="node"><title>Node7</title>
<g id="a_node6"><a xlink:href="xtmemory__xep_8c.xhtml" target="_top" xlink:title="src/Tools/xtmemory\l_xep.c">
<polygon fill="white" stroke="black" points="624,-0.5 624,-30.5 734,-30.5 734,-0.5 624,-0.5"/>
<text text-anchor="start" x="632" y="-18.5" font-family="Helvetica,sans-Serif" font-size="10.00">src/Tools/xtmemory</text>
<text text-anchor="middle" x="679" y="-7.5" font-family="Helvetica,sans-Serif" font-size="10.00">_xep.c</text>
</a>
</g>
</g>
<!-- Node2&#45;&gt;Node7 -->
<g id="edge5" class="edge"><title>Node2&#45;&gt;Node7</title>
<path fill="none" stroke="midnightblue" d="M499.381,-64.859C535.464,-55.1442 587.98,-41.0055 626.915,-30.523"/>
<polygon fill="midnightblue" stroke="midnightblue" points="498.41,-61.4956 489.664,-67.4751 500.23,-68.2549 498.41,-61.4956"/>
</g>
<!-- Node8 -->
<g id="node7" class="node"><title>Node8</title>
<g id="a_node7"><a xlink:href="xep__application_8c.xhtml" target="_top" xlink:title="src/XEPA/xep_application.c">
<polygon fill="white" stroke="black" points="752.5,-6 752.5,-25 895.5,-25 895.5,-6 752.5,-6"/>
<text text-anchor="middle" x="824" y="-13" font-family="Helvetica,sans-Serif" font-size="10.00">src/XEPA/xep_application.c</text>
</a>
</g>
</g>
<!-- Node2&#45;&gt;Node8 -->
<g id="edge6" class="edge"><title>Node2&#45;&gt;Node8</title>
<path fill="none" stroke="midnightblue" d="M523.315,-66.0772C581.121,-57.2022 667.743,-43.6759 743,-31 754.129,-29.1254 766.103,-27.027 777.341,-25.0214"/>
<polygon fill="midnightblue" stroke="midnightblue" points="522.577,-62.6493 513.223,-67.6243 523.638,-69.5685 522.577,-62.6493"/>
</g>
</g>
</svg>
