<?xml version="1.0" encoding="UTF-8" standalone="no"?>
<!DOCTYPE svg PUBLIC "-//W3C//DTD SVG 1.1//EN"
 "http://www.w3.org/Graphics/SVG/1.1/DTD/svg11.dtd">
<!-- Generated by graphviz version 2.38.0 (20140413.2041)
 -->
<!-- Title: src/Tools/xtmemory_xep.c Pages: 1 -->
<svg width="495pt" height="95pt"
 viewBox="0.00 0.00 495.00 95.00" xmlns="http://www.w3.org/2000/svg" xmlns:xlink="http://www.w3.org/1999/xlink">
<g id="graph0" class="graph" transform="scale(1 1) rotate(0) translate(4 91)">
<title>src/Tools/xtmemory_xep.c</title>
<polygon fill="white" stroke="none" points="-4,4 -4,-91 491,-91 491,4 -4,4"/>
<!-- Node0 -->
<g id="node1" class="node"><title>Node0</title>
<polygon fill="#bfbfbf" stroke="black" points="176,-56.5 176,-86.5 286,-86.5 286,-56.5 176,-56.5"/>
<text text-anchor="start" x="184" y="-74.5" font-family="Helvetica,sans-Serif" font-size="10.00">src/Tools/xtmemory</text>
<text text-anchor="middle" x="231" y="-63.5" font-family="Helvetica,sans-Serif" font-size="10.00">_xep.c</text>
</g>
<!-- Node1 -->
<g id="node2" class="node"><title>Node1</title>
<g id="a_node2"><a xlink:href="xtmemory_8h.xhtml" target="_top" xlink:title="Platform independent mutex mechanism. ">
<polygon fill="white" stroke="red" points="0,-0.5 0,-19.5 74,-19.5 74,-0.5 0,-0.5"/>
<text text-anchor="middle" x="37" y="-7.5" font-family="Helvetica,sans-Serif" font-size="10.00">xtmemory.h</text>
</a>
</g>
</g>
<!-- Node0&#45;&gt;Node1 -->
<g id="edge1" class="edge"><title>Node0&#45;&gt;Node1</title>
<path fill="none" stroke="midnightblue" d="M185.025,-56.3993C151.357,-46.0733 106.223,-32.2309 74.6782,-22.5559"/>
<polygon fill="midnightblue" stroke="midnightblue" points="75.5323,-19.157 64.9455,-19.5709 73.4797,-25.8494 75.5323,-19.157"/>
</g>
<!-- Node3 -->
<g id="node3" class="node"><title>Node3</title>
<polygon fill="white" stroke="#bfbfbf" points="92.5,-0.5 92.5,-19.5 163.5,-19.5 163.5,-0.5 92.5,-0.5"/>
<text text-anchor="middle" x="128" y="-7.5" font-family="Helvetica,sans-Serif" font-size="10.00">FreeRTOS.h</text>
</g>
<!-- Node0&#45;&gt;Node3 -->
<g id="edge2" class="edge"><title>Node0&#45;&gt;Node3</title>
<path fill="none" stroke="midnightblue" d="M206.59,-56.3993C190.08,-46.8619 168.377,-34.3248 151.962,-24.8422"/>
<polygon fill="midnightblue" stroke="midnightblue" points="153.397,-21.6292 142.987,-19.6578 149.896,-27.6906 153.397,-21.6292"/>
</g>
<!-- Node4 -->
<g id="node4" class="node"><title>Node4</title>
<g id="a_node4"><a xlink:href="heap__4__default_8h.xhtml" target="_top" xlink:title="Local header file for heap_4_default.c that implements alternative functions for FreeRTOS heap alloca...">
<polygon fill="white" stroke="black" points="181.5,-0.5 181.5,-19.5 280.5,-19.5 280.5,-0.5 181.5,-0.5"/>
<text text-anchor="middle" x="231" y="-7.5" font-family="Helvetica,sans-Serif" font-size="10.00">heap_4_default.h</text>
</a>
</g>
</g>
<!-- Node0&#45;&gt;Node4 -->
<g id="edge3" class="edge"><title>Node0&#45;&gt;Node4</title>
<path fill="none" stroke="midnightblue" d="M231,-56.3993C231,-48.4664 231,-38.458 231,-29.8583"/>
<polygon fill="midnightblue" stroke="midnightblue" points="234.5,-29.6577 231,-19.6578 227.5,-29.6578 234.5,-29.6577"/>
</g>
<!-- Node5 -->
<g id="node5" class="node"><title>Node5</title>
<g id="a_node5"><a xlink:href="heap__4__slow_8h.xhtml" target="_top" xlink:title="Local header file for heap_4_slow.c that implements alternative functions for FreeRTOS heap allocatio...">
<polygon fill="white" stroke="black" points="299,-0.5 299,-19.5 385,-19.5 385,-0.5 299,-0.5"/>
<text text-anchor="middle" x="342" y="-7.5" font-family="Helvetica,sans-Serif" font-size="10.00">heap_4_slow.h</text>
</a>
</g>
</g>
<!-- Node0&#45;&gt;Node5 -->
<g id="edge4" class="edge"><title>Node0&#45;&gt;Node5</title>
<path fill="none" stroke="midnightblue" d="M257.305,-56.3993C275.264,-46.7728 298.924,-34.0902 316.671,-24.5772"/>
<polygon fill="midnightblue" stroke="midnightblue" points="318.688,-27.467 325.849,-19.6578 315.381,-21.2975 318.688,-27.467"/>
</g>
<!-- Node6 -->
<g id="node6" class="node"><title>Node6</title>
<g id="a_node6"><a xlink:href="heap__4__fast_8h.xhtml" target="_top" xlink:title="Local header file for heap_4_fast.c that implements alternative functions for FreeRTOS heap allocatio...">
<polygon fill="white" stroke="black" points="403,-0.5 403,-19.5 487,-19.5 487,-0.5 403,-0.5"/>
<text text-anchor="middle" x="445" y="-7.5" font-family="Helvetica,sans-Serif" font-size="10.00">heap_4_fast.h</text>
</a>
</g>
</g>
<!-- Node0&#45;&gt;Node6 -->
<g id="edge5" class="edge"><title>Node0&#45;&gt;Node6</title>
<path fill="none" stroke="midnightblue" d="M281.444,-56.4747C319.008,-46.0304 369.623,-31.9576 404.549,-22.2469"/>
<polygon fill="midnightblue" stroke="midnightblue" points="405.709,-25.5573 414.406,-19.5064 403.834,-18.8131 405.709,-25.5573"/>
</g>
</g>
</svg>
