<?xml version="1.0" encoding="UTF-8" standalone="no"?>
<!DOCTYPE svg PUBLIC "-//W3C//DTD SVG 1.1//EN"
 "http://www.w3.org/Graphics/SVG/1.1/DTD/svg11.dtd">
<!-- Generated by graphviz version 2.38.0 (20140413.2041)
 -->
<!-- Title: xtmemory_malloc_default Pages: 1 -->
<svg width="319pt" height="230pt"
 viewBox="0.00 0.00 319.00 229.50" xmlns="http://www.w3.org/2000/svg" xmlns:xlink="http://www.w3.org/1999/xlink">
<g id="graph0" class="graph" transform="scale(1 1) rotate(0) translate(4 225.5)">
<title>xtmemory_malloc_default</title>
<polygon fill="white" stroke="none" points="-4,4 -4,-225.5 315,-225.5 315,4 -4,4"/>
<!-- Node32 -->
<g id="node1" class="node"><title>Node32</title>
<polygon fill="#bfbfbf" stroke="black" points="0,-107 0,-126 141,-126 141,-107 0,-107"/>
<text text-anchor="middle" x="70.5" y="-114" font-family="Helvetica,sans-Serif" font-size="10.00">xtmemory_malloc_default</text>
</g>
<!-- Node33 -->
<g id="node2" class="node"><title>Node33</title>
<g id="a_node2"><a xlink:href="xtio__uart_8h.xhtml#aefe56ce11c59d2ed758098c884e9fa45" target="_top" xlink:title="xtio_uart_init">
<polygon fill="white" stroke="red" points="205,-202 205,-221 283,-221 283,-202 205,-202"/>
<text text-anchor="middle" x="244" y="-209" font-family="Helvetica,sans-Serif" font-size="10.00">xtio_uart_init</text>
</a>
</g>
</g>
<!-- Node32&#45;&gt;Node33 -->
<g id="edge1" class="edge"><title>Node32&#45;&gt;Node33</title>
<path fill="none" stroke="midnightblue" d="M89.8194,-132.74C109.925,-149.803 143.778,-176.358 177,-192.5 185.687,-196.721 195.484,-200.173 204.819,-202.92"/>
<polygon fill="midnightblue" stroke="midnightblue" points="91.9439,-129.95 82.0864,-126.067 87.3705,-135.25 91.9439,-129.95"/>
</g>
<!-- Node40 -->
<g id="node3" class="node"><title>Node40</title>
<g id="a_node3"><a xlink:href="task__radar_8h.xhtml#a8e1bd6586c853a5ad3fd6df6c3b930bf" target="_top" xlink:title="Initialize Radar task. ">
<polygon fill="white" stroke="red" points="200.5,-164 200.5,-183 287.5,-183 287.5,-164 200.5,-164"/>
<text text-anchor="middle" x="244" y="-171" font-family="Helvetica,sans-Serif" font-size="10.00">task_radar_init</text>
</a>
</g>
</g>
<!-- Node32&#45;&gt;Node40 -->
<g id="edge2" class="edge"><title>Node32&#45;&gt;Node40</title>
<path fill="none" stroke="midnightblue" d="M106.036,-129.584C126.543,-137.192 153.124,-146.773 177,-154.5 187.096,-157.768 198.15,-161.06 208.274,-163.964"/>
<polygon fill="midnightblue" stroke="midnightblue" points="107.087,-126.241 96.4944,-126.025 104.64,-132.8 107.087,-126.241"/>
</g>
<!-- Node41 -->
<g id="node4" class="node"><title>Node41</title>
<g id="a_node4"><a xlink:href="task__monitor_8h.xhtml#a481565877c5eb69c47c0f998a5a3244d" target="_top" xlink:title="Resgister a task to the monitor system. ">
<polygon fill="white" stroke="red" points="183,-126 183,-145 305,-145 305,-126 183,-126"/>
<text text-anchor="middle" x="244" y="-133" font-family="Helvetica,sans-Serif" font-size="10.00">monitor_task_register</text>
</a>
</g>
</g>
<!-- Node32&#45;&gt;Node41 -->
<g id="edge3" class="edge"><title>Node32&#45;&gt;Node41</title>
<path fill="none" stroke="midnightblue" d="M151.375,-125.349C161.99,-126.525 172.726,-127.715 182.927,-128.845"/>
<polygon fill="midnightblue" stroke="midnightblue" points="151.58,-121.851 141.256,-124.228 150.809,-128.808 151.58,-121.851"/>
</g>
<!-- Node50 -->
<g id="node5" class="node"><title>Node50</title>
<g id="a_node5"><a xlink:href="xep__application_8h.xhtml#a5bb46ff10029dcede1e47eefdaa5732f" target="_top" xlink:title="Initialize module application instance. ">
<polygon fill="white" stroke="red" points="217.5,-88 217.5,-107 270.5,-107 270.5,-88 217.5,-88"/>
<text text-anchor="middle" x="244" y="-95" font-family="Helvetica,sans-Serif" font-size="10.00">xep_init</text>
</a>
</g>
</g>
<!-- Node32&#45;&gt;Node50 -->
<g id="edge4" class="edge"><title>Node32&#45;&gt;Node50</title>
<path fill="none" stroke="midnightblue" d="M151.421,-107.646C175.277,-105.003 199.738,-102.293 217.371,-100.339"/>
<polygon fill="midnightblue" stroke="midnightblue" points="150.809,-104.192 141.256,-108.772 151.58,-111.149 150.809,-104.192"/>
</g>
<!-- Node49 -->
<g id="node6" class="node"><title>Node49</title>
<g id="a_node6"><a xlink:href="xep__application_8h.xhtml#a6b62d4598b48167a0a9ca6e6896b2fff" target="_top" xlink:title="Initialize Application task. ">
<polygon fill="white" stroke="red" points="187.5,-50 187.5,-69 300.5,-69 300.5,-50 187.5,-50"/>
<text text-anchor="middle" x="244" y="-57" font-family="Helvetica,sans-Serif" font-size="10.00">task_application_init</text>
</a>
</g>
</g>
<!-- Node32&#45;&gt;Node49 -->
<g id="edge5" class="edge"><title>Node32&#45;&gt;Node49</title>
<path fill="none" stroke="midnightblue" d="M106.036,-103.416C126.543,-95.8078 153.124,-86.2275 177,-78.5 187.096,-75.2323 198.15,-71.9402 208.274,-69.0357"/>
<polygon fill="midnightblue" stroke="midnightblue" points="104.64,-100.2 96.4944,-106.975 107.087,-106.759 104.64,-100.2"/>
</g>
<!-- Node51 -->
<g id="node7" class="node"><title>Node51</title>
<g id="a_node7"><a xlink:href="xep__application_8c.xhtml#a145c12b30c377de637fb330f545ba7cb" target="_top" xlink:title="xep_init_memorypoolset\l_default">
<polygon fill="white" stroke="black" points="177,-0.5 177,-30.5 311,-30.5 311,-0.5 177,-0.5"/>
<text text-anchor="start" x="185" y="-18.5" font-family="Helvetica,sans-Serif" font-size="10.00">xep_init_memorypoolset</text>
<text text-anchor="middle" x="244" y="-7.5" font-family="Helvetica,sans-Serif" font-size="10.00">_default</text>
</a>
</g>
</g>
<!-- Node32&#45;&gt;Node51 -->
<g id="edge6" class="edge"><title>Node32&#45;&gt;Node51</title>
<path fill="none" stroke="midnightblue" d="M90.7451,-100.249C111.149,-83.6087 144.813,-57.7996 177,-40.5 183.691,-36.9035 191.013,-33.5827 198.267,-30.6149"/>
<polygon fill="midnightblue" stroke="midnightblue" points="88.3353,-97.6997 82.8554,-106.767 92.7939,-103.096 88.3353,-97.6997"/>
</g>
</g>
</svg>
