<?xml version="1.0" encoding="UTF-8" standalone="no"?>
<!DOCTYPE svg PUBLIC "-//W3C//DTD SVG 1.1//EN"
 "http://www.w3.org/Graphics/SVG/1.1/DTD/svg11.dtd">
<!-- Generated by graphviz version 2.38.0 (20140413.2041)
 -->
<!-- Title: xtlock_unlock Pages: 1 -->
<svg width="228pt" height="66pt"
 viewBox="0.00 0.00 228.00 66.00" xmlns="http://www.w3.org/2000/svg" xmlns:xlink="http://www.w3.org/1999/xlink">
<g id="graph0" class="graph" transform="scale(1 1) rotate(0) translate(4 62)">
<title>xtlock_unlock</title>
<polygon fill="white" stroke="none" points="-4,4 -4,-62 224,-62 224,4 -4,4"/>
<!-- Node83 -->
<g id="node1" class="node"><title>Node83</title>
<polygon fill="#bfbfbf" stroke="black" points="0,-19.5 0,-38.5 80,-38.5 80,-19.5 0,-19.5"/>
<text text-anchor="middle" x="40" y="-26.5" font-family="Helvetica,sans-Serif" font-size="10.00">xtlock_unlock</text>
</g>
<!-- Node84 -->
<g id="node2" class="node"><title>Node84</title>
<g id="a_node2"><a xlink:href="memorypool_8c.xhtml#a02ccbe9282c2b9e53bb9a66a269c7fa3" target="_top" xlink:title="Take memory block. ">
<polygon fill="white" stroke="red" points="116,-38.5 116,-57.5 220,-57.5 220,-38.5 116,-38.5"/>
<text text-anchor="middle" x="168" y="-45.5" font-family="Helvetica,sans-Serif" font-size="10.00">memorypool_take</text>
</a>
</g>
</g>
<!-- Node83&#45;&gt;Node84 -->
<g id="edge1" class="edge"><title>Node83&#45;&gt;Node84</title>
<path fill="none" stroke="midnightblue" d="M90.2056,-36.4199C98.6025,-37.6861 107.343,-39.0041 115.791,-40.278"/>
<polygon fill="midnightblue" stroke="midnightblue" points="90.5866,-32.9379 80.1765,-34.9076 89.5428,-39.8596 90.5866,-32.9379"/>
</g>
<!-- Node151 -->
<g id="node3" class="node"><title>Node151</title>
<g id="a_node3"><a xlink:href="memorypool_8c.xhtml#a8afae8a96a7f4198bb89ace143868223" target="_top" xlink:title="Free memory block. ">
<polygon fill="white" stroke="red" points="117.5,-0.5 117.5,-19.5 218.5,-19.5 218.5,-0.5 117.5,-0.5"/>
<text text-anchor="middle" x="168" y="-7.5" font-family="Helvetica,sans-Serif" font-size="10.00">memorypool_free</text>
</a>
</g>
</g>
<!-- Node83&#45;&gt;Node151 -->
<g id="edge2" class="edge"><title>Node83&#45;&gt;Node151</title>
<path fill="none" stroke="midnightblue" d="M90.3121,-21.5641C99.1308,-20.2342 108.326,-18.8477 117.159,-17.5157"/>
<polygon fill="midnightblue" stroke="midnightblue" points="89.5428,-18.1404 80.1765,-23.0924 90.5866,-25.0621 89.5428,-18.1404"/>
</g>
</g>
</svg>
