<?xml version="1.0" encoding="UTF-8" standalone="no"?>
<!DOCTYPE svg PUBLIC "-//W3C//DTD SVG 1.1//EN"
 "http://www.w3.org/Graphics/SVG/1.1/DTD/svg11.dtd">
<!-- Generated by graphviz version 2.38.0 (20140413.2041)
 -->
<!-- Title: include/xtsemaphore.h Pages: 1 -->
<svg width="298pt" height="95pt"
 viewBox="0.00 0.00 298.00 95.00" xmlns="http://www.w3.org/2000/svg" xmlns:xlink="http://www.w3.org/1999/xlink">
<g id="graph0" class="graph" transform="scale(1 1) rotate(0) translate(4 91)">
<title>include/xtsemaphore.h</title>
<polygon fill="white" stroke="none" points="-4,4 -4,-91 294,-91 294,4 -4,4"/>
<!-- Node2 -->
<g id="node1" class="node"><title>Node2</title>
<polygon fill="#bfbfbf" stroke="black" points="88,-67.5 88,-86.5 214,-86.5 214,-67.5 88,-67.5"/>
<text text-anchor="middle" x="151" y="-74.5" font-family="Helvetica,sans-Serif" font-size="10.00">include/xtsemaphore.h</text>
</g>
<!-- Node3 -->
<g id="node2" class="node"><title>Node3</title>
<g id="a_node2"><a xlink:href="memorypool_8c.xhtml" target="_top" xlink:title="src/Dispatch/memorypool.c">
<polygon fill="white" stroke="black" points="0,-6 0,-25 148,-25 148,-6 0,-6"/>
<text text-anchor="middle" x="74" y="-13" font-family="Helvetica,sans-Serif" font-size="10.00">src/Dispatch/memorypool.c</text>
</a>
</g>
</g>
<!-- Node2&#45;&gt;Node3 -->
<g id="edge1" class="edge"><title>Node2&#45;&gt;Node3</title>
<path fill="none" stroke="midnightblue" d="M131.968,-61.2938C117.198,-49.8803 97.2393,-34.4577 85.0118,-25.0091"/>
<polygon fill="midnightblue" stroke="midnightblue" points="129.915,-64.1301 139.968,-67.4751 134.195,-58.5911 129.915,-64.1301"/>
</g>
<!-- Node4 -->
<g id="node3" class="node"><title>Node4</title>
<g id="a_node3"><a xlink:href="xtsemaphore__xep_8c.xhtml" target="_top" xlink:title="src/Tools/xtsemaphore\l_xep.c">
<polygon fill="white" stroke="black" points="166,-0.5 166,-30.5 290,-30.5 290,-0.5 166,-0.5"/>
<text text-anchor="start" x="174" y="-18.5" font-family="Helvetica,sans-Serif" font-size="10.00">src/Tools/xtsemaphore</text>
<text text-anchor="middle" x="228" y="-7.5" font-family="Helvetica,sans-Serif" font-size="10.00">_xep.c</text>
</a>
</g>
</g>
<!-- Node2&#45;&gt;Node4 -->
<g id="edge2" class="edge"><title>Node2&#45;&gt;Node4</title>
<path fill="none" stroke="midnightblue" d="M170.159,-61.1955C182.301,-51.8129 197.91,-39.7512 209.853,-30.523"/>
<polygon fill="midnightblue" stroke="midnightblue" points="167.805,-58.5911 162.032,-67.4751 172.085,-64.1301 167.805,-58.5911"/>
</g>
</g>
</svg>
