<?xml version="1.0" encoding="UTF-8" standalone="no"?>
<!DOCTYPE svg PUBLIC "-//W3C//DTD SVG 1.1//EN"
 "http://www.w3.org/Graphics/SVG/1.1/DTD/svg11.dtd">
<!-- Generated by graphviz version 2.38.0 (20140413.2041)
 -->
<!-- Title: src/Tools/xttoolbox.c Pages: 1 -->
<svg width="220pt" height="140pt"
 viewBox="0.00 0.00 220.00 140.00" xmlns="http://www.w3.org/2000/svg" xmlns:xlink="http://www.w3.org/1999/xlink">
<g id="graph0" class="graph" transform="scale(1 1) rotate(0) translate(4 136)">
<title>src/Tools/xttoolbox.c</title>
<polygon fill="white" stroke="none" points="-4,4 -4,-136 216,-136 216,4 -4,4"/>
<!-- Node0 -->
<g id="node1" class="node"><title>Node0</title>
<polygon fill="#bfbfbf" stroke="black" points="65.5,-112.5 65.5,-131.5 178.5,-131.5 178.5,-112.5 65.5,-112.5"/>
<text text-anchor="middle" x="122" y="-119.5" font-family="Helvetica,sans-Serif" font-size="10.00">src/Tools/xttoolbox.c</text>
</g>
<!-- Node1 -->
<g id="node2" class="node"><title>Node1</title>
<g id="a_node2"><a xlink:href="xttoolbox_8h.xhtml" target="_top" xlink:title="Misc tools. ">
<polygon fill="white" stroke="red" points="0,-56.5 0,-75.5 70,-75.5 70,-56.5 0,-56.5"/>
<text text-anchor="middle" x="35" y="-63.5" font-family="Helvetica,sans-Serif" font-size="10.00">xttoolbox.h</text>
</a>
</g>
</g>
<!-- Node0&#45;&gt;Node1 -->
<g id="edge1" class="edge"><title>Node0&#45;&gt;Node1</title>
<path fill="none" stroke="midnightblue" d="M108.022,-112.324C94.4504,-103.9 73.6198,-90.9709 57.675,-81.0741"/>
<polygon fill="midnightblue" stroke="midnightblue" points="59.2856,-77.9544 48.9434,-75.6545 55.594,-83.9019 59.2856,-77.9544"/>
</g>
<!-- Node3 -->
<g id="node3" class="node"><title>Node3</title>
<g id="a_node3"><a xlink:href="asf_8h.xhtml" target="_top" xlink:title="Autogenerated API include file for the Atmel Software Framework (ASF) ">
<polygon fill="white" stroke="red" points="126.5,-56.5 126.5,-75.5 165.5,-75.5 165.5,-56.5 126.5,-56.5"/>
<text text-anchor="middle" x="146" y="-63.5" font-family="Helvetica,sans-Serif" font-size="10.00">asf.h</text>
</a>
</g>
</g>
<!-- Node0&#45;&gt;Node3 -->
<g id="edge2" class="edge"><title>Node0&#45;&gt;Node3</title>
<path fill="none" stroke="midnightblue" d="M125.963,-112.083C129.213,-104.77 133.919,-94.1814 137.954,-85.1034"/>
<polygon fill="midnightblue" stroke="midnightblue" points="141.248,-86.3107 142.111,-75.7511 134.851,-83.4677 141.248,-86.3107"/>
</g>
<!-- Node15 -->
<g id="node4" class="node"><title>Node15</title>
<polygon fill="white" stroke="#bfbfbf" points="67.5,-0.5 67.5,-19.5 138.5,-19.5 138.5,-0.5 67.5,-0.5"/>
<text text-anchor="middle" x="103" y="-7.5" font-family="Helvetica,sans-Serif" font-size="10.00">FreeRTOS.h</text>
</g>
<!-- Node0&#45;&gt;Node15 -->
<g id="edge5" class="edge"><title>Node0&#45;&gt;Node15</title>
<path fill="none" stroke="midnightblue" d="M120.509,-112.368C117.443,-94.617 110.37,-53.6664 106.212,-29.5974"/>
<polygon fill="midnightblue" stroke="midnightblue" points="109.635,-28.8498 104.484,-19.5914 102.737,-30.0413 109.635,-28.8498"/>
</g>
<!-- Node24 -->
<g id="node5" class="node"><title>Node24</title>
<polygon fill="white" stroke="#bfbfbf" points="166,-0.5 166,-19.5 212,-19.5 212,-0.5 166,-0.5"/>
<text text-anchor="middle" x="189" y="-7.5" font-family="Helvetica,sans-Serif" font-size="10.00">task.h</text>
</g>
<!-- Node0&#45;&gt;Node24 -->
<g id="edge6" class="edge"><title>Node0&#45;&gt;Node24</title>
<path fill="none" stroke="midnightblue" d="M136.137,-112.451C148.061,-104.495 164.637,-91.5451 174,-76 182.496,-61.8939 186.182,-43.4055 187.78,-29.7544"/>
<polygon fill="midnightblue" stroke="midnightblue" points="191.281,-29.901 188.691,-19.6277 184.309,-29.2739 191.281,-29.901"/>
</g>
<!-- Node3&#45;&gt;Node15 -->
<g id="edge3" class="edge"><title>Node3&#45;&gt;Node15</title>
<path fill="none" stroke="midnightblue" d="M138.899,-56.083C132.763,-48.3768 123.73,-37.0333 116.261,-27.6531"/>
<polygon fill="midnightblue" stroke="midnightblue" points="118.936,-25.3936 109.968,-19.7511 113.46,-29.7542 118.936,-25.3936"/>
</g>
<!-- Node3&#45;&gt;Node24 -->
<g id="edge4" class="edge"><title>Node3&#45;&gt;Node24</title>
<path fill="none" stroke="midnightblue" d="M153.101,-56.083C159.237,-48.3768 168.27,-37.0333 175.739,-27.6531"/>
<polygon fill="midnightblue" stroke="midnightblue" points="178.54,-29.7542 182.032,-19.7511 173.064,-25.3936 178.54,-29.7542"/>
</g>
</g>
</svg>
