<?xml version="1.0" encoding="UTF-8" standalone="no"?>
<!DOCTYPE svg PUBLIC "-//W3C//DTD SVG 1.1//EN"
 "http://www.w3.org/Graphics/SVG/1.1/DTD/svg11.dtd">
<!-- Generated by graphviz version 2.38.0 (20140413.2041)
 -->
<!-- Title: include/xttoolbox.h Pages: 1 -->
<svg width="282pt" height="84pt"
 viewBox="0.00 0.00 282.00 84.00" xmlns="http://www.w3.org/2000/svg" xmlns:xlink="http://www.w3.org/1999/xlink">
<g id="graph0" class="graph" transform="scale(1 1) rotate(0) translate(4 80)">
<title>include/xttoolbox.h</title>
<polygon fill="white" stroke="none" points="-4,4 -4,-80 278,-80 278,4 -4,4"/>
<!-- Node2 -->
<g id="node1" class="node"><title>Node2</title>
<polygon fill="#bfbfbf" stroke="black" points="76,-56.5 76,-75.5 183,-75.5 183,-56.5 76,-56.5"/>
<text text-anchor="middle" x="129.5" y="-63.5" font-family="Helvetica,sans-Serif" font-size="10.00">include/xttoolbox.h</text>
</g>
<!-- Node3 -->
<g id="node2" class="node"><title>Node3</title>
<g id="a_node2"><a xlink:href="xttoolbox_8c.xhtml" target="_top" xlink:title="src/Tools/xttoolbox.c">
<polygon fill="white" stroke="black" points="0,-0.5 0,-19.5 113,-19.5 113,-0.5 0,-0.5"/>
<text text-anchor="middle" x="56.5" y="-7.5" font-family="Helvetica,sans-Serif" font-size="10.00">src/Tools/xttoolbox.c</text>
</a>
</g>
</g>
<!-- Node2&#45;&gt;Node3 -->
<g id="edge1" class="edge"><title>Node2&#45;&gt;Node3</title>
<path fill="none" stroke="midnightblue" d="M109.358,-50.1008C96.2207,-40.3824 79.5179,-28.0269 68.4421,-19.8339"/>
<polygon fill="midnightblue" stroke="midnightblue" points="107.65,-53.1907 117.771,-56.324 111.813,-47.5631 107.65,-53.1907"/>
</g>
<!-- Node4 -->
<g id="node3" class="node"><title>Node4</title>
<g id="a_node3"><a xlink:href="xep__application_8c.xhtml" target="_top" xlink:title="src/XEPA/xep_application.c">
<polygon fill="white" stroke="black" points="131,-0.5 131,-19.5 274,-19.5 274,-0.5 131,-0.5"/>
<text text-anchor="middle" x="202.5" y="-7.5" font-family="Helvetica,sans-Serif" font-size="10.00">src/XEPA/xep_application.c</text>
</a>
</g>
</g>
<!-- Node2&#45;&gt;Node4 -->
<g id="edge2" class="edge"><title>Node2&#45;&gt;Node4</title>
<path fill="none" stroke="midnightblue" d="M149.642,-50.1008C162.779,-40.3824 179.482,-28.0269 190.558,-19.8339"/>
<polygon fill="midnightblue" stroke="midnightblue" points="147.187,-47.5631 141.229,-56.324 151.35,-53.1907 147.187,-47.5631"/>
</g>
</g>
</svg>
